<?xml version="1.0" encoding="utf-8"?>
<!-- Generator: Adobe Illustrator 19.0.0, SVG Export Plug-In . SVG Version: 6.00 Build 0)  -->
<svg version="1.1" id="Layer_1" xmlns="http://www.w3.org/2000/svg" xmlns:xlink="http://www.w3.org/1999/xlink" x="0px" y="0px"
	 viewBox="-284 345.1 102 102" style="enable-background:new -284 345.1 102 102;" xml:space="preserve">
<style type="text/css">
	.st0{fill:#FFFFFF;}
	.st1{fill:#FBAF17;}
	.st2{fill:#FEFEFE;}
</style>
<title>Group</title>
<desc>Created with Sketch.</desc>
<g id="Page-1_1_">
	<g id="Group">
		<g id="Final-Logo-Master">
			<g id="Page-1">
				<g id="Group-14" transform="translate(0.000000, 0.034833)">
					<path id="Fill-1" class="st0" d="M-207.7,382.2c3.7,0,6.8,3,6.8,6.7c0,1.4-0.4,2.8-1.4,3.8c-0.9,1-2.1,1.6-3.4,2
						c-0.3-0.2-0.7-0.5-1-0.7c-0.8-0.6-1.6-1.2-2.4-1.9l0.5-0.1c1-0.3,3-0.8,3.7-1.6c0.4-0.4,0.5-0.9,0.5-1.5c0-1.8-1.5-3.3-3.3-3.3
						h-0.4c-1.8,0-3.2,1.5-3.2,3.3c0,2.7,2.3,4.2,4.3,5.6c2.9,2.1,5.9,4.1,6.2,8c0,0.3,0,0.5,0,0.8c-0.2,3.6-3.3,6.5-6.9,6.5
						c-3.8,0-7-3.1-7-6.9v-1.2h3.5v1.2c0,1.9,1.5,3.5,3.5,3.5c1.9,0,3.4-1.5,3.5-3.4c-0.1-2.6-2.9-4.2-4.7-5.5
						c-3-2.2-5.7-4.4-5.7-8.4c0-3.7,3-6.7,6.7-6.7H-207.7L-207.7,382.2z M-239.2,409.8c-3.7,0-6.8-3-6.8-6.7c0-1.4,0.4-2.8,1.4-3.8
						c1.4-1.5,3.4-2.1,5.3-2.6l9.8-2.9c0.8,1,1.8,1.9,2.9,2.8l-11.7,3.5c-1,0.3-3,0.8-3.7,1.6c-0.4,0.4-0.5,0.9-0.5,1.5
						c0,1.8,1.5,3.3,3.3,3.3h0.4c1.8,0,3.2-1.5,3.2-3.3c0-1.2-0.5-2.2-1.1-3l3.5-1c0.7,1.1,1.1,2.4,1.1,4c0,3.7-3,6.7-6.7,6.7
						H-239.2L-239.2,409.8z M-241.1,396.5c-2.4-1.8-4.7-3.8-4.9-7.1c0-0.3,0-0.5,0-0.8c0.2-3.6,3.3-6.5,6.9-6.5c3.8,0,7,3.1,7,6.9
						v1.2h-3.5v-1.2c0-1.9-1.5-3.5-3.5-3.5c-1.9,0-3.4,1.5-3.5,3.4c0.1,2.6,2.9,4.2,4.7,5.5c0.3,0.2,0.6,0.4,0.9,0.6l-2.6,0.8
						C-240,396.1-240.6,396.3-241.1,396.5L-241.1,396.5z M-220,389c-0.1-1.9-1.6-3.4-3.5-3.4c-1.9,0-3.4,1.5-3.5,3.4
						c0.1,2.6,2.9,4.2,4.7,5.5c0.3,0.2,0.6,0.4,0.9,0.6l-2.6,0.8c-0.5,0.2-1.1,0.3-1.6,0.5c-2.5-1.8-4.7-3.8-4.9-7.1
						c0-0.2,0-0.5,0-0.8c0.2-3.6,3.3-6.5,6.9-6.5c3.6,0,6.6,2.8,6.9,6.3c0,0.3,0,0.8,0,1c-0.1,1.3-0.5,2.4-1.4,3.4
						c-0.8,0.9-1.9,1.4-3,1.8c-0.3-0.2-0.6-0.4-0.8-0.6c-0.8-0.5-1.8-1.2-2.6-1.9l0.6-0.2c0.9-0.3,2.6-0.7,3.3-1.5
						C-220.1,390.1-220,389.6-220,389L-220,389z M-223.7,409.8c-3.7,0-6.8-3-6.8-6.7c0-1.4,0.4-2.8,1.4-3.8c1.4-1.5,3.4-2.1,5.3-2.6
						l9.7-2.9c0.7,1.1,1.7,2,2.7,2.8l-11.4,3.4c-1,0.3-3,0.8-3.7,1.6c-0.4,0.4-0.5,0.9-0.5,1.5c0,1.8,1.5,3.3,3.3,3.3h0.4
						c1.8,0,3.2-1.5,3.2-3.3c0-1.2-0.5-2.2-1.1-3l3.5-1c0.7,1.1,1.1,2.4,1.1,4c0,3.7-3,6.7-6.7,6.7H-223.7L-223.7,409.8z"/>
					<g id="Group-8" transform="translate(27.507042, 1.011111)">
						<path id="Fill-2" class="st1" d="M-246.6,398.4c0.8,1.1,1.1,2.3,1.1,3.7c0,2.9-2.4,5.3-5.3,5.3c-0.1,0-0.2,0-0.3,0
							c-0.1,0-0.1,0-0.2,0c-3,0-5.3-2.4-5.3-5.4c0-3.5,2.9-4.3,5.7-5.1l10.9-3.2l0.2,0.7l-10.9,3.2c-1.4,0.4-3.3,0.9-4.4,2
							c-0.6,0.7-0.8,1.5-0.8,2.4c0,2.6,2.1,4.6,4.6,4.7c0.1,0,0.1,0,0.2,0c0.1,0,0.2,0,0.3,0c2.6,0,4.6-2.1,4.6-4.6
							c0-1.2-0.3-2.3-1-3.3l-0.2-0.3l0.6-0.4L-246.6,398.4z"/>
						<path id="Fill-4" class="st1" d="M-250.4,392.1c1.2-0.3,2.6-0.8,3.4-1.7c0.6-0.7,0.8-1.5,0.8-2.4c0-2.6-2.2-4.8-4.8-4.8
							c-2.6,0-4.9,2.1-4.9,4.8c0,0.8,0.2,1.5,0.5,2.3c0.9,1.8,3,3.1,4.6,4.3l0.3,0.2l-0.4,0.6l-0.3-0.2c-2.5-1.8-5.4-3.7-5.4-7.1
							c0-3,2.5-5.5,5.6-5.5c3,0,5.5,2.4,5.5,5.4c0,3.1-2.2,4-4.8,4.8l-0.3,0.1l-0.2-0.7L-250.4,392.1z"/>
						<path id="Fill-5" class="st1" d="M-262.2,398.3c0.8,1.1,1.2,2.4,1.2,3.8c0,2.9-2.4,5.3-5.3,5.3c-0.2,0-0.3,0-0.5,0
							c-3,0-5.4-2.4-5.4-5.4c0-3.2,2.4-4.2,5.1-4.9l11.7-3.5l0.2,0.7l-3.7,1.1l-7.9,2.3c-1.2,0.4-2.8,0.8-3.7,1.8
							c-0.6,0.7-0.8,1.5-0.8,2.4c0,2.6,2.1,4.7,4.7,4.7c0.2,0,0.3,0,0.5,0c2.6,0,4.6-2.1,4.6-4.6c0-1.3-0.4-2.4-1.1-3.4l-0.2-0.3
							l0.6-0.4L-262.2,398.3z"/>
						<path id="Fill-6" class="st1" d="M-261.7,389.1c0-0.3,0-0.7,0-1c0-2.6-2.2-4.8-4.9-4.8c-2.6,0-4.9,2.1-4.9,4.8
							c0,3,2.7,4.8,4.9,6.4l0.3,0.2l-0.4,0.6l-0.3-0.2c-2.4-1.7-5.2-3.6-5.2-7c0-3,2.5-5.5,5.6-5.5c3,0,5.5,2.4,5.6,5.5
							c0,0.3,0,0.7,0,1v0.3h-0.7V389.1z"/>
						<path id="Fill-7" class="st1" d="M-240.3,388c0.1,3.2,3,5,5.3,6.7c2.6,1.9,5.1,3.8,5.1,7.2c0,3-2.5,5.5-5.6,5.5
							c-3.1,0-5.5-2.5-5.6-5.5c0-0.5,0-0.9,0-1.4v-0.3h0.7v0.3c0,0.5,0,0.9,0,1.4c0,2.7,2.2,4.8,4.9,4.8c2.6,0,4.9-2.1,4.9-4.8
							c0-3.2-2.5-5-4.8-6.7c-2.4-1.8-5.3-3.6-5.6-6.8h0v-0.3c0,0,0-0.1,0-0.1c0,0,0-0.1,0-0.1v-0.3h0c0.3-2.8,2.6-5,5.5-5
							c3,0,5.6,2.4,5.6,5.4c0,3.2-2.2,4.4-5,4.9l-0.3,0.1l-0.1-0.7l0.3-0.1c2.5-0.5,4.5-1.4,4.5-4.2c0-2.6-2.2-4.8-4.9-4.8
							C-238.1,383.3-240.2,385.4-240.3,388"/>
					</g>
					<path id="Fill-9" class="st0" d="M-195.6,393h8.5v-10.6h4.1v27h-4.1v-12.6h-8.5v12.6h-4.1v-27h4.1V393z M-263.8,382.4h4.1v18
						c0,1.4,0.1,3.6,0.9,4.7c0.7,1,1.9,1.2,3,1.2c1.2,0,2.5-0.3,3.3-1.3c0.9-1.2,1.1-3.1,1.1-4.5v-18h4v17.4c0,0.9,0,1.9-0.1,2.8
						c-0.1,0.6-0.1,1.3-0.3,1.9c-0.3,1-0.7,1.8-1.4,2.6c-0.8,0.9-1.7,1.6-2.8,2.1c-1.2,0.5-2.5,0.7-3.8,0.7c-1.3,0-2.7-0.2-3.9-0.7
						c-1.1-0.5-2.1-1.2-2.8-2.2c-0.5-0.7-0.9-1.6-1-2.5c-0.1-0.6-0.2-1.3-0.2-1.9c-0.1-0.9-0.1-1.9-0.1-2.8V382.4z M-270,395.8
						c0.6,0.3,1.2,0.6,1.6,1.1c1,1.1,1.3,2.7,1.5,4.1c0.1,0.9,0.1,1.7,0.2,2.6c0.2,2.4,0.4,4.3,1.9,5.8h-5c-0.8-1.4-0.9-3.2-0.9-4.8
						c0-0.9-0.1-1.7-0.2-2.6c-0.1-1-0.3-2.5-1.2-3.3c-0.9-0.7-2.6-0.8-3.7-0.8h-3.1v11.5h-4v-27h7.9c2.2,0,4.6,0.3,6.3,1.8
						c1.6,1.4,2.2,3.4,2.2,5.4c0,1.6-0.3,3.2-1.3,4.5C-268.5,394.8-269.2,395.4-270,395.8L-270,395.8z M-279,394.2h2.9
						c1.3,0,3-0.2,4.1-1c1-0.8,1.2-2,1.2-3.2c0-1.1-0.2-2.3-1.1-3c-0.9-0.8-2.5-0.9-3.7-0.9h-3.5V394.2z"/>
					<path id="Fill-10" class="st1" d="M-233.7,393.7L-233.7,393.7L-233.7,393.7L-233.7,393.7L-233.7,393.7L-233.7,393.7
						L-233.7,393.7L-233.7,393.7L-233.7,393.7C-233.7,393.8-233.7,393.8-233.7,393.7L-233.7,393.7L-233.7,393.7L-233.7,393.7
						L-233.7,393.7L-233.7,393.7C-233.7,393.8-233.7,393.8-233.7,393.7L-233.7,393.7C-233.7,393.8-233.7,393.8-233.7,393.7
						L-233.7,393.7L-233.7,393.7L-233.7,393.7L-233.7,393.7L-233.7,393.7C-233.7,393.8-233.7,393.8-233.7,393.7L-233.7,393.7
						L-233.7,393.7L-233.7,393.7L-233.7,393.7L-233.7,393.7C-233.8,393.8-233.8,393.8-233.7,393.7L-233.7,393.7L-233.7,393.7
						L-233.7,393.7L-233.7,393.7L-233.7,393.7L-233.7,393.7L-233.7,393.7L-233.7,393.7L-233.7,393.7L-233.7,393.7L-233.7,393.7
						L-233.7,393.7C-233.8,393.8-233.8,393.8-233.7,393.7L-233.7,393.7L-233.7,393.7L-233.7,393.7L-233.7,393.7L-233.7,393.7
						L-233.7,393.7L-233.7,393.7L-233.7,393.7L-233.7,393.7L-233.7,393.7C-233.8,393.8-233.8,393.8-233.7,393.7L-233.7,393.7
						L-233.7,393.7L-233.7,393.7C-233.8,393.8-233.8,393.8-233.7,393.7L-233.7,393.7L-233.7,393.7L-233.7,393.7
						C-233.8,393.8-233.8,393.8-233.7,393.7L-233.7,393.7L-233.7,393.7C-233.8,393.8-233.8,393.8-233.7,393.7L-233.7,393.7
						L-233.7,393.7L-233.7,393.7C-233.8,393.8-233.8,393.8-233.7,393.7L-233.7,393.7L-233.7,393.7L-233.7,393.7
						C-233.8,393.8-233.8,393.8-233.7,393.7L-233.7,393.7C-233.8,393.8-233.8,393.8-233.7,393.7L-233.7,393.7
						c-0.1,0.1-0.1,0.1-0.1,0.1l0,0l0,0l0,0c0,0,0,0,0,0l0,0c0,0,0,0,0,0l0,0c0,0,0,0,0,0l0,0c0,0,0,0,0,0l0,0l0,0l0,0c0,0,0,0,0,0
						l0,0c0,0,0,0,0,0h0c0,0,0,0,0,0l0,0c0,0,0,0,0,0h0c0,0,0,0,0,0l0,0c0,0,0,0,0,0l0,0l0,0l0,0c0,0,0,0,0,0l0,0c0,0,0,0,0,0l0,0
						c0,0,0,0,0,0l0,0c0,0,0,0,0,0l0,0l0,0l0,0c0,0,0,0,0,0l0,0c0,0,0,0,0,0l0,0l0,0l0,0l0,0l0,0c0,0,0,0,0,0l0,0l0,0l0,0
						c0,0,0,0,0,0h0l0,0c0,0,0,0,0,0l0,0l0,0l0,0c0,0,0,0,0,0l0,0l0,0l0,0c0,0,0,0,0,0l0,0l0,0l0,0l0,0l0,0l0,0l0,0l0,0l0,0l0,0
						c0,0,0,0,0,0l0,0l0,0l0,0l0,0l0,0l0,0c0,0,0,0,0,0l0,0l0,0l0,0l0,0l0,0c0,0,0,0,0,0l0,0l0,0l0,0l0,0l0,0c0,0,0,0,0,0l0,0l0,0
						l0,0l0,0l0,0c0,0,0,0,0,0l0,0c0,0,0,0,0,0l0,0l0,0l0,0l0,0l0,0c0,0,0,0,0,0l0,0l0,0l0,0l0,0c0,0,0,0,0,0l0,0l0,0l0,0l0,0h0
						l-0.8-1.1c-0.2-0.3-0.4-0.6-0.4-0.9l0,0c0,0,0,0,0,0c0,0,0,0,0,0c0,0,0,0,0,0c0,0,0,0,0,0c0,0,0,0,0,0c0,0,0,0,0,0l0,0
						c0,0,0,0,0,0l0,0c0,0,0,0,0,0l0,0c0,0,0,0,0,0c0,0,0,0,0,0c0,0,0,0,0,0c0,0,0,0,0,0c0,0,0,0,0,0c0,0,0,0,0,0c0,0,0,0,0,0
						c0,0,0,0,0,0c0,0,0,0,0,0c0,0,0,0,0,0c0,0,0,0,0,0c0,0,0,0,0,0c0,0,0,0,0,0c0,0,0,0,0,0c0,0,0,0,0,0c0,0,0,0,0,0c0,0,0,0,0,0
						c0,0,0,0,0,0s0,0,0,0c0,0,0,0,0,0c0,0,0,0,0,0c0,0,0,0,0,0c0,0,0,0,0,0c0,0,0,0,0,0c0,0,0,0,0,0c0,0,0,0,0,0c0,0,0,0,0,0
						c0,0,0,0,0,0l0,0c0,0,0,0,0,0c0,0,0,0,0,0l0,0c0,0,0,0,0,0c0,0,0,0,0,0l0,0c0,0,0,0,0,0c0,0,0,0,0,0c0,0,0,0,0,0c0,0,0,0,0,0
						c0,0,0,0,0,0c0,0,0,0,0,0c0,0,0,0,0,0c0,0,0,0,0,0c0,0,0,0,0,0l0,0c0,0,0,0,0,0c0,0,0,0,0,0c0,0,0,0,0,0c0,0,0,0,0,0l0,0
						c0,0,0,0,0,0c0,0,0,0,0,0c0,0,0,0,0,0c0,0,0,0,0,0c0,0,0,0,0,0l0,0c0,0,0,0,0,0c0,0,0,0,0,0c0,0,0,0,0,0l0,0c0,0,0,0,0,0l0,0
						c0,0,0,0,0,0c0,0,0,0,0,0l0,0c0,0,0,0,0,0l0,0c0,0,0,0,0,0c0,0,0,0,0,0l0,0c0,0,0,0,0,0l0,0c0,0,0,0,0,0l0,0c0,0,0,0,0,0l0,0
						c0,0,0,0,0,0l0,0c0,0,0,0,0,0l0,0c0,0,0,0,0,0l0,0c0,0,0,0,0,0l0,0c0,0,0,0,0,0l0,0c0,0,0,0,0,0l0,0c0,0,0,0,0,0l0,0
						c0,0,0,0,0,0l0,0c0,0,0,0,0,0l0,0c0,0,0,0,0,0c0,0,0,0,0,0l0,0c0,0,0,0,0,0l0,0c0,0,0,0,0,0c0,0,0,0,0,0l0,0c0,0,0,0,0,0l0,0
						c0,0,0,0,0,0c0,0,0,0,0,0c0,0,0,0,0,0l0,0c0,0,0,0,0,0c0,0,0,0,0,0c0,0,0,0,0,0c0,0,0,0,0,0c0,0,0,0,0,0l0,0c0,0,0,0,0,0
						c0,0,0,0,0,0c0,0,0,0,0,0c0,0,0,0,0,0l0,0c0,0,0,0,0,0c0,0,0,0,0,0c0,0,0,0,0,0c0,0,0,0,0,0c0,0,0,0,0,0c0,0,0,0,0,0
						c0,0,0,0,0,0c0,0,0,0,0,0c0,0,0,0,0,0l0,0c0,0,0,0,0,0c0,0,0,0,0,0l0,0c0,0,0,0,0,0c0,0,0,0,0,0l0,0c0,0,0,0,0,0c0,0,0,0,0,0
						c0,0,0,0,0,0c0,0,0,0,0,0c0,0,0,0,0,0c0,0,0,0,0,0c0,0,0,0,0,0c0,0,0,0,0,0c0,0,0,0,0,0c0,0,0,0,0,0c0,0,0,0,0,0c0,0,0,0,0,0
						c0,0,0,0,0,0c0,0,0,0,0,0c0,0,0,0,0,0c0,0,0,0,0,0c0,0,0,0,0,0c0,0,0,0,0,0c0,0,0,0,0,0c0,0,0,0,0,0c0,0,0,0,0,0c0,0,0,0,0,0
						c0,0,0,0,0,0c0,0,0,0,0,0c0,0,0,0,0,0c0,0,0,0,0,0c0,0,0,0,0,0c0,0,0,0,0,0v0c0,0,0,0,0,0l0,0c0,0,0,0,0,0l0,0c0,0,0,0,0,0
						c0,0,0,0,0,0c0,0,0,0,0,0c0,0,0,0,0,0c0,0,0,0,0,0c0,0,0,0,0,0l0,0c0,0.3-0.2,0.6-0.4,0.9L-233.7,393.7L-233.7,393.7
						L-233.7,393.7z"/>
					<path id="Fill-11" class="st2" d="M-233.9,391.1c0.3,0,0.6,0.2,0.6,0.5s-0.2,0.5-0.6,0.5c-0.3,0-0.6-0.2-0.6-0.5
						S-234.2,391.1-233.9,391.1"/>
					<path id="Fill-12" class="st1" d="M-213,401.6L-213,401.6L-213,401.6L-213,401.6L-213,401.6L-213,401.6L-213,401.6L-213,401.6
						L-213,401.6C-213,401.6-213,401.6-213,401.6L-213,401.6L-213,401.6L-213,401.6L-213,401.6L-213,401.6
						C-213,401.6-213,401.6-213,401.6L-213,401.6C-213,401.6-213,401.6-213,401.6L-213,401.6L-213,401.6L-213,401.6L-213,401.6
						L-213,401.6C-213,401.6-213,401.6-213,401.6L-213,401.6L-213,401.6L-213,401.6L-213,401.6L-213,401.6
						C-213,401.6-213,401.6-213,401.6L-213,401.6L-213,401.6L-213,401.6L-213,401.6L-213,401.6L-213,401.6L-213,401.6L-213,401.6
						L-213,401.6L-213,401.6L-213,401.6L-213,401.6C-213,401.6-213,401.6-213,401.6L-213,401.6L-213,401.6L-213,401.6L-213,401.6
						L-213,401.6L-213,401.6L-213,401.6L-213,401.6L-213,401.6L-213,401.6C-213,401.6-213,401.6-213,401.6L-213,401.6L-213,401.6
						L-213,401.6C-213,401.6-213,401.6-213,401.6L-213,401.6L-213,401.6L-213,401.6C-213,401.6-213,401.6-213,401.6L-213,401.6
						L-213,401.6C-213,401.6-213,401.6-213,401.6L-213,401.6L-213,401.6L-213,401.6C-213.1,401.6-213.1,401.6-213,401.6L-213,401.6
						L-213,401.6L-213,401.6C-213.1,401.6-213.1,401.6-213,401.6L-213,401.6C-213.1,401.6-213.1,401.6-213,401.6L-213,401.6
						c-0.1,0.1-0.1,0.1-0.1,0.1l0,0l0,0l0,0c0,0,0,0,0,0l0,0c0,0,0,0,0,0l0,0c0,0,0,0,0,0l0,0c0,0,0,0,0,0l0,0l0,0l0,0c0,0,0,0,0,0
						l0,0c0,0,0,0,0,0h0c0,0,0,0,0,0l0,0c0,0,0,0,0,0h0c0,0,0,0,0,0l0,0c0,0,0,0,0,0l0,0l0,0l0,0c0,0,0,0,0,0l0,0c0,0,0,0,0,0l0,0
						c0,0,0,0,0,0l0,0c0,0,0,0,0,0l0,0l0,0l0,0c0,0,0,0,0,0l0,0c0,0,0,0,0,0l0,0l0,0l0,0l0,0l0,0c0,0,0,0,0,0l0,0l0,0l0,0
						c0,0,0,0,0,0h0l0,0c0,0,0,0,0,0l0,0l0,0l0,0c0,0,0,0,0,0l0,0l0,0l0,0c0,0,0,0,0,0l0,0l0,0l0,0l0,0l0,0l0,0l0,0l0,0l0,0l0,0
						c0,0,0,0,0,0l0,0l0,0l0,0l0,0l0,0l0,0c0,0,0,0,0,0l0,0l0,0l0,0l0,0l0,0c0,0,0,0,0,0l0,0l0,0l0,0l0,0l0,0c0,0,0,0,0,0l0,0l0,0
						l0,0l0,0l0,0c0,0,0,0,0,0l0,0c0,0,0,0,0,0l0,0l0,0l0,0l0,0l0,0c0,0,0,0,0,0l0,0l0,0l0,0l0,0c0,0,0,0,0,0l0,0l0,0l0,0l0,0h0
						l-0.8-1.1c-0.2-0.3-0.4-0.6-0.4-0.9l0,0c0,0,0,0,0,0c0,0,0,0,0,0c0,0,0,0,0,0c0,0,0,0,0,0c0,0,0,0,0,0c0,0,0,0,0,0l0,0
						c0,0,0,0,0,0l0,0c0,0,0,0,0,0l0,0c0,0,0,0,0,0c0,0,0,0,0,0c0,0,0,0,0,0c0,0,0,0,0,0c0,0,0,0,0,0c0,0,0,0,0,0c0,0,0,0,0,0
						c0,0,0,0,0,0c0,0,0,0,0,0c0,0,0,0,0,0c0,0,0,0,0,0c0,0,0,0,0,0s0,0,0,0c0,0,0,0,0,0c0,0,0,0,0,0c0,0,0,0,0,0c0,0,0,0,0,0
						c0,0,0,0,0,0c0,0,0,0,0,0c0,0,0,0,0,0c0,0,0,0,0,0c0,0,0,0,0,0c0,0,0,0,0,0c0,0,0,0,0,0c0,0,0,0,0,0c0,0,0,0,0,0c0,0,0,0,0,0
						c0,0,0,0,0,0l0,0c0,0,0,0,0,0c0,0,0,0,0,0l0,0c0,0,0,0,0,0c0,0,0,0,0,0l0,0c0,0,0,0,0,0c0,0,0,0,0,0c0,0,0,0,0,0c0,0,0,0,0,0
						c0,0,0,0,0,0c0,0,0,0,0,0s0,0,0,0c0,0,0,0,0,0c0,0,0,0,0,0l0,0c0,0,0,0,0,0c0,0,0,0,0,0c0,0,0,0,0,0c0,0,0,0,0,0l0,0
						c0,0,0,0,0,0c0,0,0,0,0,0c0,0,0,0,0,0c0,0,0,0,0,0c0,0,0,0,0,0l0,0c0,0,0,0,0,0c0,0,0,0,0,0c0,0,0,0,0,0l0,0c0,0,0,0,0,0l0,0
						c0,0,0,0,0,0c0,0,0,0,0,0l0,0c0,0,0,0,0,0l0,0c0,0,0,0,0,0c0,0,0,0,0,0l0,0c0,0,0,0,0,0l0,0c0,0,0,0,0,0l0,0c0,0,0,0,0,0l0,0
						c0,0,0,0,0,0l0,0c0,0,0,0,0,0l0,0c0,0,0,0,0,0l0,0c0,0,0,0,0,0l0,0c0,0,0,0,0,0l0,0c0,0,0,0,0,0l0,0c0,0,0,0,0,0l0,0
						c0,0,0,0,0,0l0,0c0,0,0,0,0,0l0,0c0,0,0,0,0,0c0,0,0,0,0,0l0,0c0,0,0,0,0,0l0,0c0,0,0,0,0,0c0,0,0,0,0,0l0,0c0,0,0,0,0,0l0,0
						c0,0,0,0,0,0s0,0,0,0c0,0,0,0,0,0l0,0c0,0,0,0,0,0c0,0,0,0,0,0c0,0,0,0,0,0c0,0,0,0,0,0c0,0,0,0,0,0l0,0c0,0,0,0,0,0
						c0,0,0,0,0,0c0,0,0,0,0,0c0,0,0,0,0,0l0,0c0,0,0,0,0,0c0,0,0,0,0,0c0,0,0,0,0,0c0,0,0,0,0,0c0,0,0,0,0,0c0,0,0,0,0,0
						c0,0,0,0,0,0c0,0,0,0,0,0c0,0,0,0,0,0l0,0c0,0,0,0,0,0c0,0,0,0,0,0l0,0c0,0,0,0,0,0c0,0,0,0,0,0l0,0c0,0,0,0,0,0c0,0,0,0,0,0
						c0,0,0,0,0,0c0,0,0,0,0,0c0,0,0,0,0,0c0,0,0,0,0,0c0,0,0,0,0,0c0,0,0,0,0,0c0,0,0,0,0,0c0,0,0,0,0,0c0,0,0,0,0,0c0,0,0,0,0,0
						c0,0,0,0,0,0c0,0,0,0,0,0c0,0,0,0,0,0c0,0,0,0,0,0s0,0,0,0c0,0,0,0,0,0c0,0,0,0,0,0c0,0,0,0,0,0c0,0,0,0,0,0c0,0,0,0,0,0
						c0,0,0,0,0,0c0,0,0,0,0,0c0,0,0,0,0,0c0,0,0,0,0,0c0,0,0,0,0,0c0,0,0,0,0,0v0c0,0,0,0,0,0l0,0c0,0,0,0,0,0l0,0c0,0,0,0,0,0
						c0,0,0,0,0,0c0,0,0,0,0,0c0,0,0,0,0,0c0,0,0,0,0,0c0,0,0,0,0,0l0,0c0,0.3-0.2,0.6-0.4,0.9L-213,401.6L-213,401.6L-213,401.6z"
						/>
					<path id="Fill-13" class="st2" d="M-213.1,398.9c0.3,0,0.6,0.2,0.6,0.5s-0.2,0.5-0.6,0.5c-0.3,0-0.6-0.2-0.6-0.5
						S-213.4,398.9-213.1,398.9"/>
				</g>
			</g>
		</g>
	</g>
</g>
</svg>
