<?xml version="1.0" encoding="utf-8"?>
<!-- Generator: Adobe Illustrator 23.0.0, SVG Export Plug-In . SVG Version: 6.00 Build 0)  -->
<svg version="1.1" id="Layer_1" xmlns="http://www.w3.org/2000/svg" xmlns:xlink="http://www.w3.org/1999/xlink" x="0px" y="0px"
	 viewBox="0 0 102 102" style="enable-background:new 0 0 102 102;" xml:space="preserve">
<style type="text/css">
	.st0{fill:#FFFFFF;}
</style>
<g>
	<path class="st0" d="M7.3,53.8c-0.6,0-1.4,0-1.6,0c-0.1,0-0.1-0.1,0-0.1c0.3-0.1,0.6,0,0.7-0.1c0.1-0.1,0.2-0.2-0.2-1.4l-0.5-1.5
		H4.9c-0.9,0-1.4,0-1.6,0c-0.5,1.3-0.8,2.4-0.8,2.6c0,0.2,0.1,0.3,0.7,0.4c0.1,0,0.1,0.1,0,0.1c-0.3,0-0.4,0-1,0c-0.6,0-0.8,0-1.1,0
		c-0.1,0-0.1-0.1,0-0.1c0.5-0.1,0.7-0.2,0.8-0.4c0.3-0.4,1.3-3.1,2.8-7.1c0-0.1,0.3-0.1,0.3,0c2.3,6.5,2.6,7.2,2.8,7.3
		c0.1,0.1,0.5,0.1,0.8,0.2c0.1,0,0.1,0.1,0,0.1C8.3,53.8,7.9,53.8,7.3,53.8L7.3,53.8z M4.5,47.4L4.5,47.4
		C4.5,47.4,4.5,47.4,4.5,47.4c-0.4,1-0.8,2-1.2,3c0.3,0,0.7,0,1.5,0h0.7C5.2,49.4,4.8,48.3,4.5,47.4z"/>
	<path class="st0" d="M10,53.8c-0.5,0-0.8,0-1.1,0c-0.1,0-0.1-0.1,0-0.1c0.2-0.1,0.5,0,0.6-0.1c0.1,0,0.1-0.2,0.1-3.7
		c0-2.9,0-3.5-0.1-3.5c-0.1-0.1-0.3-0.1-0.5-0.1c-0.1,0-0.1-0.1,0-0.1c0.5-0.1,1.1-0.3,1.4-0.5c0.1,0,0.1,0,0.1,0.1
		c-0.1,0.2-0.1,0.6-0.1,0.7l0,4.6c0,1.8,0,2.5,0.1,2.5c0.1,0.1,0.3,0.1,0.6,0.1c0.1,0,0.1,0.1,0,0.1C10.8,53.8,10.5,53.8,10,53.8z"
		/>
	<path class="st0" d="M13.8,53.9c-1.5,0-2.3-1.2-2.3-2.4c0-1.2,0.9-2.3,2.3-2.3c1.5,0,2.3,1.2,2.3,2.4
		C16.1,52.8,15.1,53.9,13.8,53.9L13.8,53.9z M13.7,49.4L13.7,49.4c-0.8,0-1.4,0.9-1.4,2c0,1.2,0.6,2.3,1.5,2.3c0.8,0,1.4-0.9,1.4-2
		C15.2,50.5,14.6,49.4,13.7,49.4z"/>
	<path class="st0" d="M20.4,53.8c-0.5,0-0.9,0-1.2,0c-0.1,0-0.1-0.1,0-0.1c0.4,0,0.5-0.1,0.5-0.2c0-0.1-0.4-0.6-1.2-1.6
		c-0.3-0.3-0.4-0.4-0.7-0.3c0,1.4,0,1.9,0.1,2c0.1,0.1,0.3,0.1,0.5,0.1c0.1,0,0.1,0.1,0,0.1c-0.3,0-0.6,0-1.1,0c-0.5,0-0.8,0-1.1,0
		c-0.1,0-0.1-0.1,0-0.1c0.2-0.1,0.5,0,0.6-0.1c0.1,0,0.1-0.2,0.1-3.7c0-2.9,0-3.5-0.1-3.5c-0.1-0.1-0.3-0.1-0.5-0.1
		c-0.1,0-0.1-0.1,0-0.1c0.5-0.1,1.1-0.3,1.4-0.5c0.1,0,0.1,0,0.1,0.1c-0.1,0.2-0.1,0.6-0.1,0.7l0,4.6v0.3c0.3,0,0.4-0.1,0.6-0.3
		c0.8-0.7,1.2-1.3,1.2-1.4c0-0.1,0-0.2-0.5-0.2c-0.1,0-0.1-0.1,0-0.1c0.3,0,0.6,0,1.2,0c0.5,0,0.5,0,0.7,0c0,0,0.1,0.1,0,0.1
		c-0.3,0.1-0.3,0-0.6,0.1c-0.2,0.1-0.7,0.6-1.7,1.5c1.1,1.3,2.1,2.4,2.3,2.5c0.2,0.1,0.3,0.1,0.6,0.1c0.1,0,0.1,0.1,0,0.1
		C21.2,53.8,20.9,53.8,20.4,53.8z"/>
	<path class="st0" d="M31.6,46.4c-0.3,0.1-0.7,0.1-0.8,0.2c-0.2,0.1-0.2,0.3-0.2,3.5c0,2.3,0,3.1,0.1,3.9c0,0.1-0.2,0.1-0.2,0
		c-1.7-2.1-4.1-4.9-5.2-6.2c0,0-0.1,0-0.1,0c0,0.6,0,1.3,0,2.3c0,3.2,0.1,3.4,0.2,3.4c0.1,0.1,0.4,0.1,0.7,0.2c0.1,0,0.1,0.1,0,0.1
		c-0.3,0-0.5,0-1.1,0c-0.6,0-0.9,0-1.2,0c-0.1,0-0.1-0.1,0-0.1c0.3-0.1,0.6-0.1,0.7-0.2c0.3-0.2,0.3-0.3,0.3-3.4
		c0-2.5-0.1-3-0.3-3.2c-0.2-0.2-0.4-0.3-0.8-0.4c-0.1,0-0.1-0.1,0-0.1c0.2,0,0.4,0,0.8,0c0.4,0,0.6,0,0.7-0.1c0,0,0.1,0,0.1,0
		c0.9,1.2,3.7,4.4,4.9,5.8c0,0,0.1,0,0.1,0c0-0.6,0-1.2,0-2.1c0-3.2-0.1-3.4-0.2-3.5c-0.1-0.1-0.5-0.1-0.8-0.2c-0.1,0-0.1-0.1,0-0.1
		c0.3,0,0.7,0.1,1.2,0.1s0.9,0,1.1-0.1C31.7,46.3,31.7,46.4,31.6,46.4z"/>
	<path class="st0" d="M34.7,53.9c-0.3,0-0.5-0.3-0.6-0.6c0,0-0.1,0-0.1,0c-0.3,0.3-0.8,0.6-1.4,0.6c-0.5,0-1-0.4-1-0.9
		c0-0.9,0.9-1.2,2.4-1.7c0.1,0,0.1-0.1,0.1-0.2v-0.5c0-0.8-0.3-1.1-0.8-1.1c-0.4,0-0.7,0.3-0.7,0.8c0,0.5-0.2,0.6-0.5,0.6
		c-0.2,0-0.3-0.1-0.3-0.3c0-0.5,1-1.3,1.8-1.3c0.8,0,1.3,0.4,1.3,1.3c0,0.8-0.1,1.6-0.1,2.4c0,0.3,0.1,0.5,0.3,0.5
		c0.2,0,0.3,0,0.4-0.1c0,0,0.1,0,0.1,0.1C35.5,53.6,35.1,53.9,34.7,53.9L34.7,53.9z M34,51.5L34,51.5c-1.1,0.3-1.6,0.7-1.6,1.3
		c0,0.5,0.2,0.7,0.7,0.7c0.5,0,1-0.4,1-0.5C34.1,52.6,34.1,51.8,34,51.5C34.1,51.5,34.1,51.5,34,51.5z"/>
	<path class="st0" d="M39.8,53.8c-0.5,0-0.7,0-1,0c-0.1,0-0.1-0.1,0-0.1c0.2-0.1,0.4,0,0.5-0.1c0.1-0.1,0.2-0.7,0.1-2.9
		c0-0.7-0.4-1-1-1c-0.5,0-0.8,0.2-1,0.5c-0.1,0.1-0.1,0.1-0.1,0.3l0,1c0,1.8,0,2,0.1,2c0.1,0.1,0.3,0.1,0.5,0.1c0.1,0,0.1,0.1,0,0.1
		c-0.3,0-0.6,0-1.1,0c-0.5,0-0.8,0-1.1,0c-0.1,0-0.1-0.1,0-0.1c0.2-0.1,0.5,0,0.6-0.1c0.1,0,0.1-0.2,0.1-2c0-1.3,0-1.4-0.1-1.5
		C36.4,50,36.2,50,36,49.9c-0.1,0-0.1-0.1,0-0.1c0.5-0.1,0.9-0.5,1.2-0.8c0.1-0.1,0.1,0,0.1,0.1c0,0.1-0.1,0.6-0.1,1
		c0,0,0.1,0.1,0.1,0c0.5-0.5,1-0.9,1.6-0.9c0.9,0,1.3,0.6,1.3,1.5c0,2.5,0,2.8,0.1,2.9c0.1,0.1,0.3,0.1,0.6,0.1c0.1,0,0.1,0.1,0,0.1
		C40.7,53.8,40.4,53.8,39.8,53.8z"/>
	<path class="st0" d="M45,53.9C45,54,44.9,53.9,45,53.9c-0.2-0.3-0.2-0.5-0.2-0.7c0,0-0.1-0.1-0.1,0c-0.3,0.4-0.9,0.7-1.5,0.7
		c-1.3,0-2-1-2-2.3c0-1.2,1-2.3,2.3-2.3c0.5,0,0.8,0.1,1.1,0.2c0,0,0.1,0,0.1,0c0-2.9,0-3.1-0.1-3.1c-0.1-0.1-0.3-0.1-0.5-0.1
		c-0.1,0-0.1-0.1,0-0.1c0.5-0.1,1.1-0.3,1.4-0.5c0.1,0,0.1,0,0.1,0.1c-0.1,0.2-0.1,0.6-0.1,0.7l0,5.2c0,1.4,0,1.6,0.1,1.6
		c0.1,0.1,0.2,0.2,0.5,0.2c0.1,0,0.1,0.1,0,0.1C45.7,53.7,45.3,53.8,45,53.9L45,53.9z M44.3,49.9L44.3,49.9c-0.3-0.2-0.5-0.3-1-0.3
		c-0.8,0-1.4,0.7-1.4,2c0,1.2,0.6,1.9,1.5,1.9c0.5,0,0.7-0.1,1-0.4c0.1-0.1,0.1-0.1,0.1-0.3l0-1.2C44.8,50.3,44.6,50.1,44.3,49.9z"
		/>
	<path class="st0" d="M49.7,53.9c-0.3,0-0.5-0.3-0.6-0.6c0,0-0.1,0-0.1,0c-0.3,0.3-0.8,0.6-1.4,0.6c-0.5,0-1-0.4-1-0.9
		c0-0.9,0.9-1.2,2.4-1.7c0.1,0,0.1-0.1,0.1-0.2v-0.5c0-0.8-0.3-1.1-0.8-1.1c-0.4,0-0.7,0.3-0.7,0.8c0,0.5-0.2,0.6-0.5,0.6
		c-0.2,0-0.3-0.1-0.3-0.3c0-0.5,1-1.3,1.8-1.3c0.8,0,1.3,0.4,1.3,1.3c0,0.8-0.1,1.6-0.1,2.4c0,0.3,0.1,0.5,0.3,0.5
		c0.2,0,0.3,0,0.4-0.1c0,0,0.1,0,0.1,0.1C50.5,53.6,50.1,53.9,49.7,53.9L49.7,53.9z M49,51.5L49,51.5c-1.1,0.3-1.6,0.7-1.6,1.3
		c0,0.5,0.2,0.7,0.7,0.7c0.5,0,1-0.4,1-0.5C49.1,52.6,49.1,51.8,49,51.5C49.1,51.5,49.1,51.5,49,51.5z"/>
	<path class="st0" d="M57.8,51.4c-0.3,0.4-0.7,0.9-0.9,1.2c0.7,0.8,1,1,1.3,1c0.2,0,0.4-0.1,0.6-0.3c0,0,0.1,0,0,0.1
		c-0.2,0.3-0.5,0.5-1,0.5c-0.6,0-1-0.4-1.4-0.9c-0.4,0.5-0.8,0.9-1.5,0.9c-0.7,0-1.3-0.5-1.3-1.2c0-0.7,0.6-1.2,1.3-1.5
		c-0.2-0.3-0.4-0.5-0.4-0.9c0-0.5,0.4-1.1,1.1-1.1c0.6,0,0.9,0.4,0.9,0.8s-0.3,0.8-1,1.1l1.2,1.4c0.4-0.5,0.7-1.1,0.7-1.3
		c0-0.2-0.2-0.3-0.7-0.3c0,0,0-0.1,0-0.1c0.3,0,0.6,0,1.1,0s0.6,0,1,0c0,0,0,0.1,0,0.1C58.4,50.9,58.2,51,57.8,51.4L57.8,51.4z
		 M55.1,51.4L55.1,51.4c-0.5,0.3-0.8,0.7-0.8,1.2c0,0.5,0.4,1,1.1,1c0.4,0,0.8-0.3,1.1-0.7L55.1,51.4L55.1,51.4z M55.7,49.4
		L55.7,49.4c-0.4,0-0.6,0.3-0.6,0.7c0,0.3,0.1,0.5,0.4,0.9c0.5-0.3,0.7-0.7,0.7-1C56.2,49.7,56,49.4,55.7,49.4z"/>
	<path class="st0" d="M67.6,53.6C67,53.8,66.1,54,65.3,54c-2.6,0-4-1.9-4-4c0-2.1,1.8-3.8,3.9-3.8c0.8,0,1.7,0.1,2.4,0.4
		c0.1,0,0.2,1.1,0.2,1.5c0,0.1-0.1,0.1-0.1,0c-0.5-1.1-1.2-1.6-2.5-1.6c-1.6,0-2.8,1.4-2.8,3.6c0,2.2,1.4,3.7,2.9,3.7
		c1.3,0,2.2-0.6,2.7-1.7c0-0.1,0.1-0.1,0.1,0C68,52.4,67.7,53.6,67.6,53.6z"/>
	<path class="st0" d="M71,53.9c-1.5,0-2.3-1.2-2.3-2.4c0-1.2,0.9-2.3,2.3-2.3c1.5,0,2.3,1.2,2.3,2.4C73.3,52.8,72.4,53.9,71,53.9
		L71,53.9z M70.9,49.4L70.9,49.4c-0.8,0-1.4,0.9-1.4,2c0,1.2,0.6,2.3,1.5,2.3c0.8,0,1.4-0.9,1.4-2C72.4,50.5,71.9,49.4,70.9,49.4z"
		/>
	<path class="st0" d="M80.3,53.8c-0.5,0-0.7,0-1,0c-0.1,0-0.1-0.1,0-0.1c0.2-0.1,0.3,0,0.4-0.1c0.1-0.1,0.2-0.8,0.1-3
		c0-0.5-0.3-0.8-0.9-0.8c-0.5,0-0.8,0.2-1,0.5c-0.1,0.1-0.1,0.2-0.1,0.3v0.1c0,2.5,0.1,2.9,0.1,2.9c0.1,0.1,0.3,0.1,0.5,0.1
		c0.1,0,0.1,0.1,0,0.1c-0.3,0-0.5,0-1,0c-0.5,0-0.7,0-1,0c-0.1,0-0.1-0.1,0-0.1c0.2-0.1,0.3,0,0.4-0.1c0.1-0.1,0.2-0.7,0.1-2.9
		c0-0.7-0.3-1-0.9-1c-0.5,0-0.8,0.2-1,0.5c-0.1,0.1-0.1,0.1-0.1,0.3l0,1c0,1.8,0,2,0.1,2c0.1,0.1,0.2,0.1,0.5,0.1
		c0.1,0,0.1,0.1,0,0.1c-0.3,0-0.5,0-1,0c-0.5,0-0.8,0-1.1,0c-0.1,0-0.1-0.1,0-0.1c0.2-0.1,0.5,0,0.6-0.1c0.1,0,0.1-0.2,0.1-2
		c0-1.3,0-1.4-0.1-1.5C74.1,50,74,50,73.7,49.9c-0.1,0-0.1-0.1,0-0.1c0.5-0.1,0.9-0.5,1.2-0.8c0.1-0.1,0.1,0,0.1,0.1
		c0,0.1-0.1,0.6-0.1,1c0,0,0.1,0.1,0.1,0c0.5-0.5,1-0.9,1.6-0.9c0.6,0,1,0.4,1.1,0.9c0,0,0.1,0.1,0.1,0c0.5-0.5,1-0.8,1.6-0.8
		c0.9,0,1.2,0.5,1.2,1.3c0,2.5,0,3,0.1,3c0.1,0.1,0.3,0.1,0.6,0.1c0.1,0,0.1,0.1,0,0.1C81.1,53.8,80.9,53.8,80.3,53.8z"/>
	<path class="st0" d="M84,53.9c-0.4,0-0.8-0.1-1-0.3c0,0-0.1,0-0.1,0c0,2,0,2.4,0.1,2.4c0.1,0.1,0.6,0.1,0.9,0.1
		c0.1,0,0.1,0.1,0,0.1c-0.3,0-0.9,0-1.4,0c-0.5,0-0.8,0-1.1,0c-0.1,0-0.1-0.1,0-0.1c0.2-0.1,0.4-0.1,0.6-0.1c0.1-0.1,0.1-0.5,0.1-2
		v-2.5c0-1.3,0-1.4-0.1-1.5c-0.1-0.1-0.2-0.1-0.5-0.2c-0.1,0-0.1-0.1,0-0.1c0.5-0.1,0.9-0.5,1.2-0.8c0.1-0.1,0.1,0,0.1,0.1
		c0,0.1-0.1,0.6-0.1,1c0,0,0.1,0.1,0.1,0c0.4-0.5,0.9-0.8,1.5-0.8c1.3,0,2,1,2,2.3C86.3,52.8,85.3,53.9,84,53.9L84,53.9z M84,49.8
		L84,49.8c-0.5,0-0.7,0.1-1,0.4c-0.1,0.1-0.1,0.1-0.1,0.3l0,1.2c0,1.3,0.1,1.5,0.4,1.7c0.2,0.2,0.5,0.3,0.9,0.3c0.8,0,1.4-0.7,1.4-2
		C85.5,50.5,84.9,49.8,84,49.8z"/>
	<path class="st0" d="M90,53.9c-0.3,0-0.5-0.3-0.6-0.6c0,0-0.1,0-0.1,0c-0.3,0.3-0.8,0.6-1.4,0.6c-0.5,0-1-0.4-1-0.9
		c0-0.9,0.9-1.2,2.4-1.7c0.1,0,0.1-0.1,0.1-0.2v-0.5c0-0.8-0.3-1.1-0.8-1.1c-0.4,0-0.7,0.3-0.7,0.8c0,0.5-0.2,0.6-0.5,0.6
		c-0.2,0-0.3-0.1-0.3-0.3c0-0.5,1-1.3,1.8-1.3c0.8,0,1.3,0.4,1.3,1.3c0,0.8-0.1,1.6-0.1,2.4c0,0.3,0.1,0.5,0.3,0.5
		c0.2,0,0.3,0,0.4-0.1c0,0,0.1,0,0.1,0.1C90.8,53.6,90.4,53.9,90,53.9L90,53.9z M89.3,51.5L89.3,51.5c-1.1,0.3-1.6,0.7-1.6,1.3
		c0,0.5,0.2,0.7,0.7,0.7c0.5,0,1-0.4,1-0.5C89.4,52.6,89.4,51.8,89.3,51.5C89.4,51.5,89.4,51.5,89.3,51.5z"/>
	<path class="st0" d="M95.1,53.8c-0.5,0-0.7,0-1,0c-0.1,0-0.1-0.1,0-0.1c0.2-0.1,0.4,0,0.5-0.1c0.1-0.1,0.2-0.7,0.1-2.9
		c0-0.7-0.4-1-1-1c-0.5,0-0.8,0.2-1,0.5c-0.1,0.1-0.1,0.1-0.1,0.3l0,1c0,1.8,0,2,0.1,2c0.1,0.1,0.3,0.1,0.5,0.1c0.1,0,0.1,0.1,0,0.1
		c-0.3,0-0.6,0-1.1,0c-0.5,0-0.8,0-1.1,0c-0.1,0-0.1-0.1,0-0.1c0.2-0.1,0.5,0,0.6-0.1c0.1,0,0.1-0.2,0.1-2c0-1.3,0-1.4-0.1-1.5
		c-0.1-0.1-0.2-0.1-0.5-0.1c-0.1,0-0.1-0.1,0-0.1c0.5-0.1,0.9-0.5,1.2-0.8c0.1-0.1,0.1,0,0.1,0.1c0,0.1-0.1,0.6-0.1,1
		c0,0,0.1,0.1,0.1,0c0.5-0.5,1-0.9,1.6-0.9c0.9,0,1.3,0.6,1.3,1.5c0,2.5,0,2.8,0.1,2.9c0.1,0.1,0.3,0.1,0.6,0.1c0.1,0,0.1,0.1,0,0.1
		C95.9,53.8,95.6,53.8,95.1,53.8z"/>
	<path class="st0" d="M100.9,49.4c-0.3,0.1-0.4,0-0.5,0.1c-0.2,0.1-0.6,1.1-1.4,3.2c-1,2.9-1.5,3.6-2.1,3.6c-0.4,0-0.6-0.2-0.6-0.4
		c0-0.2,0.2-0.4,0.4-0.4c0.3,0,0.4,0.2,0.5,0.2c0.3,0,0.6-0.7,1-1.9c-0.9-2-1.8-4.1-2-4.2c-0.2-0.1-0.3-0.1-0.6-0.1
		c-0.1,0-0.1-0.1,0-0.1c0.3,0,0.5,0,1,0c0.5,0,1.1,0,1.4,0c0.1,0,0.1,0.1,0,0.1c-0.2,0.1-0.7,0-0.8,0.1c-0.1,0.2,0.5,1.4,1.3,3.3
		c0.7-1.8,1.1-2.9,1.1-3.1c0-0.1-0.2-0.2-0.6-0.3c-0.1,0,0-0.1,0-0.1c0.3,0,0.5,0,1,0c0.5,0,0.5,0,0.8,0
		C101,49.3,101,49.4,100.9,49.4z"/>
</g>
</svg>
