<?xml version="1.0" encoding="utf-8"?>
<!-- Generator: Adobe Illustrator 16.0.0, SVG Export Plug-In . SVG Version: 6.00 Build 0)  -->
<!DOCTYPE svg PUBLIC "-//W3C//DTD SVG 1.1//EN" "http://www.w3.org/Graphics/SVG/1.1/DTD/svg11.dtd">
<svg version="1.1" id="_x30_2" xmlns="http://www.w3.org/2000/svg" xmlns:xlink="http://www.w3.org/1999/xlink" x="0px" y="0px"
	 width="102px" height="102px" viewBox="0 0 102 102" enable-background="new 0 0 102 102" xml:space="preserve">
<g>
	<g>
		<path fill="#FFFFFF" d="M4.686,49.727c0,0.265-0.051,0.512-0.151,0.74c-0.102,0.229-0.243,0.429-0.422,0.599
			c0.18,0.171,0.32,0.366,0.422,0.591c0.1,0.223,0.151,0.468,0.151,0.732v2.138c0,0.256-0.048,0.494-0.144,0.71
			c-0.095,0.219-0.229,0.413-0.399,0.584c-0.17,0.17-0.364,0.302-0.582,0.398c-0.218,0.096-0.455,0.145-0.709,0.145H1.511
			c-0.138,0-0.258-0.049-0.358-0.145C1.051,56.122,1,56.001,1,55.851v-9.587c0-0.14,0.051-0.26,0.152-0.36
			c0.101-0.1,0.22-0.15,0.358-0.15h1.341c0.255,0,0.491,0.047,0.709,0.144c0.218,0.095,0.412,0.228,0.582,0.398
			c0.17,0.169,0.304,0.367,0.399,0.591c0.096,0.223,0.144,0.461,0.144,0.717V49.727z M3.664,47.603c0-0.234-0.079-0.431-0.239-0.589
			c-0.159-0.158-0.352-0.24-0.574-0.24H2.022v3.78h0.829c0.222,0,0.415-0.078,0.574-0.237c0.16-0.161,0.239-0.355,0.239-0.59V47.603
			z M3.664,52.389c0-0.222-0.079-0.414-0.239-0.574c-0.159-0.158-0.352-0.238-0.574-0.238H2.022v3.765h0.829
			c0.222,0,0.415-0.079,0.574-0.239c0.16-0.16,0.239-0.351,0.239-0.575V52.389z"/>
		<path fill="#FFFFFF" d="M7.461,45.753c0.255,0,0.492,0.047,0.71,0.144c0.218,0.095,0.413,0.228,0.583,0.398
			c0.169,0.169,0.303,0.367,0.397,0.591c0.097,0.223,0.144,0.461,0.144,0.717v6.924c0,0.256-0.047,0.495-0.144,0.72
			c-0.095,0.222-0.229,0.416-0.397,0.582c-0.171,0.165-0.365,0.294-0.583,0.391c-0.218,0.096-0.455,0.145-0.71,0.145
			c-0.255,0-0.494-0.049-0.718-0.145c-0.223-0.097-0.42-0.226-0.589-0.391c-0.171-0.166-0.305-0.36-0.399-0.582
			c-0.095-0.225-0.143-0.464-0.143-0.72v-6.924c0-0.256,0.047-0.494,0.143-0.717c0.095-0.224,0.229-0.422,0.399-0.591
			c0.169-0.171,0.366-0.304,0.589-0.398C6.968,45.8,7.207,45.753,7.461,45.753 M8.274,47.603c0-0.234-0.078-0.431-0.238-0.589
			c-0.159-0.158-0.351-0.24-0.575-0.24c-0.233,0-0.43,0.082-0.59,0.24c-0.159,0.158-0.239,0.354-0.239,0.589v6.924
			c0,0.225,0.08,0.415,0.239,0.575c0.16,0.16,0.357,0.239,0.59,0.239c0.224,0,0.416-0.079,0.575-0.239
			c0.16-0.16,0.238-0.351,0.238-0.575V47.603z"/>
		<path fill="#FFFFFF" d="M14.72,45.753c0.256,0,0.496,0.047,0.719,0.144c0.223,0.095,0.419,0.228,0.589,0.398
			c0.17,0.169,0.303,0.367,0.399,0.591c0.096,0.223,0.143,0.461,0.143,0.717v8.504c0,0.075-0.026,0.137-0.08,0.184
			c-0.053,0.048-0.111,0.073-0.175,0.073h-0.511c-0.17,0-0.254-0.087-0.254-0.257v-8.504c0-0.234-0.08-0.431-0.24-0.589
			s-0.357-0.24-0.591-0.24c-0.222,0-0.414,0.082-0.573,0.24s-0.24,0.354-0.24,0.589v8.504c0,0.17-0.085,0.257-0.255,0.257h-0.51
			c-0.171,0-0.256-0.087-0.256-0.257v-8.504c0-0.234-0.079-0.431-0.239-0.589c-0.16-0.158-0.351-0.24-0.574-0.24
			c-0.235,0-0.431,0.082-0.59,0.24c-0.16,0.158-0.24,0.354-0.24,0.589v8.504c0,0.17-0.084,0.257-0.255,0.257h-0.511
			c-0.063,0-0.123-0.025-0.176-0.073c-0.052-0.047-0.079-0.108-0.079-0.184v-8.504c0-0.256,0.048-0.494,0.144-0.717
			c0.095-0.224,0.228-0.422,0.399-0.591c0.169-0.171,0.366-0.304,0.591-0.398c0.222-0.097,0.462-0.144,0.717-0.144
			s0.498,0.051,0.727,0.15c0.228,0.101,0.428,0.242,0.597,0.424c0.172-0.182,0.37-0.323,0.599-0.424
			C14.224,45.804,14.466,45.753,14.72,45.753"/>
		<path fill="#FFFFFF" d="M21.182,49.727c0,0.265-0.051,0.512-0.152,0.74c-0.101,0.229-0.241,0.429-0.422,0.599
			c0.181,0.171,0.322,0.366,0.422,0.591c0.101,0.223,0.152,0.468,0.152,0.732v2.138c0,0.256-0.047,0.494-0.143,0.71
			c-0.097,0.219-0.229,0.413-0.398,0.584c-0.172,0.17-0.365,0.302-0.582,0.398c-0.22,0.096-0.456,0.145-0.711,0.145h-1.341
			c-0.138,0-0.257-0.049-0.358-0.145c-0.102-0.097-0.151-0.218-0.151-0.368v-9.587c0-0.14,0.049-0.26,0.151-0.36
			c0.101-0.1,0.22-0.15,0.358-0.15h1.341c0.255,0,0.491,0.047,0.711,0.144c0.217,0.095,0.41,0.228,0.582,0.398
			c0.169,0.169,0.302,0.367,0.398,0.591c0.096,0.223,0.143,0.461,0.143,0.717V49.727z M20.162,47.603
			c0-0.234-0.081-0.431-0.24-0.589c-0.16-0.158-0.351-0.24-0.575-0.24h-0.83v3.78h0.83c0.224,0,0.415-0.078,0.575-0.237
			c0.159-0.161,0.24-0.355,0.24-0.59V47.603z M20.162,52.389c0-0.222-0.081-0.414-0.24-0.574c-0.16-0.158-0.351-0.238-0.575-0.238
			h-0.83v3.765h0.83c0.224,0,0.415-0.079,0.575-0.239c0.159-0.16,0.24-0.351,0.24-0.575V52.389z"/>
		<path fill="#FFFFFF" d="M23.959,45.753c0.255,0,0.49,0.047,0.709,0.144c0.218,0.095,0.412,0.228,0.582,0.398
			c0.17,0.169,0.305,0.367,0.399,0.591c0.096,0.223,0.144,0.461,0.144,0.717v8.504c0,0.17-0.084,0.257-0.256,0.257h-0.51
			c-0.17,0-0.255-0.087-0.255-0.257V51.56h-1.645v4.547c0,0.17-0.083,0.257-0.254,0.257h-0.51c-0.063,0-0.123-0.025-0.175-0.073
			c-0.054-0.047-0.08-0.108-0.08-0.184v-8.504c0-0.256,0.047-0.494,0.144-0.717c0.095-0.224,0.227-0.422,0.398-0.591
			c0.168-0.171,0.367-0.304,0.59-0.398C23.463,45.8,23.703,45.753,23.959,45.753 M24.772,50.54v-2.938
			c0-0.234-0.08-0.431-0.239-0.589s-0.351-0.24-0.574-0.24c-0.235,0-0.431,0.082-0.59,0.24c-0.161,0.158-0.241,0.354-0.241,0.589
			v2.938H24.772z"/>
		<path fill="#FFFFFF" d="M30.174,45.832c0.046,0.054,0.07,0.113,0.07,0.176v3.719c0,0.424-0.125,0.796-0.375,1.115
			c-0.251,0.32-0.567,0.536-0.95,0.654v4.61c0,0.075-0.026,0.137-0.08,0.184c-0.053,0.048-0.112,0.073-0.175,0.073h-0.512
			c-0.168,0-0.254-0.087-0.254-0.257v-4.61c-0.393-0.118-0.715-0.334-0.966-0.654c-0.249-0.319-0.374-0.691-0.374-1.115v-3.719
			c0-0.063,0.023-0.122,0.072-0.176c0.047-0.054,0.108-0.079,0.183-0.079h0.51c0.075,0,0.136,0.025,0.184,0.079
			c0.049,0.054,0.072,0.113,0.072,0.176v3.719c0,0.222,0.08,0.413,0.239,0.572c0.16,0.16,0.357,0.241,0.589,0.241
			c0.225,0,0.416-0.081,0.576-0.241c0.16-0.159,0.24-0.351,0.24-0.572v-3.719c0-0.063,0.023-0.122,0.071-0.176
			c0.048-0.054,0.108-0.079,0.183-0.079h0.51C30.063,45.753,30.124,45.778,30.174,45.832"/>
	</g>
	<g>
		<path fill="#FFFFFF" d="M49.818,48.129v-0.541c0-0.223-0.079-0.416-0.239-0.574c-0.159-0.158-0.352-0.24-0.574-0.24
			c-0.224,0-0.416,0.082-0.574,0.24c-0.16,0.158-0.24,0.352-0.24,0.574v0.813c0,0.096,0.003,0.154,0.008,0.176
			c0.005,0.02,0.019,0.053,0.04,0.095l2.298,4.052c0.075,0.139,0.134,0.244,0.176,0.319c0.042,0.074,0.072,0.145,0.087,0.208
			c0.016,0.063,0.026,0.132,0.033,0.198c0.004,0.071,0.006,0.163,0.006,0.28v0.797c0,0.257-0.047,0.495-0.143,0.72
			c-0.096,0.222-0.229,0.416-0.398,0.582c-0.17,0.165-0.365,0.294-0.582,0.391c-0.219,0.096-0.456,0.145-0.71,0.145
			c-0.255,0-0.494-0.049-0.71-0.145c-0.219-0.097-0.414-0.226-0.584-0.391c-0.17-0.166-0.303-0.36-0.397-0.582
			c-0.096-0.225-0.144-0.463-0.144-0.72v-0.542c0-0.063,0.023-0.121,0.073-0.174c0.046-0.054,0.107-0.081,0.183-0.081h0.51
			c0.075,0,0.136,0.027,0.184,0.081c0.048,0.053,0.072,0.11,0.072,0.174v0.542c0,0.235,0.08,0.433,0.24,0.592
			c0.159,0.158,0.35,0.238,0.574,0.238c0.222,0,0.415-0.08,0.574-0.238c0.16-0.159,0.239-0.356,0.239-0.592v-0.797
			c0-0.087-0.003-0.139-0.008-0.159c-0.005-0.022-0.018-0.053-0.039-0.096l-2.297-4.053c-0.075-0.137-0.132-0.245-0.176-0.318
			c-0.042-0.074-0.071-0.144-0.088-0.208c-0.017-0.063-0.026-0.134-0.032-0.207c-0.005-0.075-0.008-0.173-0.008-0.287v-0.813
			c0-0.255,0.048-0.492,0.144-0.712c0.095-0.216,0.228-0.412,0.397-0.581c0.17-0.171,0.365-0.304,0.584-0.398
			c0.216-0.097,0.455-0.144,0.71-0.144c0.254,0,0.491,0.047,0.71,0.144c0.217,0.095,0.412,0.228,0.582,0.398
			c0.17,0.169,0.302,0.365,0.398,0.581c0.096,0.22,0.143,0.457,0.143,0.712v0.541c0,0.172-0.084,0.257-0.254,0.257h-0.51
			C49.903,48.386,49.818,48.301,49.818,48.129"/>
		<path fill="#FFFFFF" d="M55.204,45.832c0.048,0.054,0.072,0.113,0.072,0.176v10.099c0,0.17-0.085,0.257-0.256,0.257h-0.495
			c-0.17,0-0.255-0.087-0.255-0.257v-4.53h-1.645v4.53c0,0.17-0.083,0.257-0.255,0.257H51.86c-0.169,0-0.254-0.087-0.254-0.257
			V46.024v-0.017c0-0.063,0.023-0.122,0.072-0.176c0.047-0.054,0.11-0.079,0.182-0.079h0.511c0.076,0,0.137,0.025,0.186,0.079
			c0.046,0.054,0.069,0.113,0.069,0.176v4.546h1.645v-4.546c0-0.063,0.023-0.122,0.071-0.176s0.109-0.079,0.184-0.079h0.495
			C55.095,45.753,55.156,45.778,55.204,45.832"/>
		<path fill="#FFFFFF" d="M57.222,56.106c0,0.17-0.084,0.257-0.255,0.257h-0.512c-0.17,0-0.254-0.087-0.254-0.257V46.024v-0.017
			c0-0.063,0.023-0.122,0.07-0.176c0.049-0.054,0.109-0.079,0.184-0.079h0.512c0.073,0,0.135,0.025,0.182,0.079
			c0.05,0.054,0.073,0.113,0.073,0.176V56.106z"/>
		<path fill="#FFFFFF" d="M61.737,49.727c0,0.53-0.187,0.973-0.56,1.323c0.373,0.351,0.56,0.797,0.56,1.339v3.718
			c0,0.17-0.086,0.257-0.255,0.257H60.97c-0.169,0-0.255-0.087-0.255-0.257v-3.718c0-0.233-0.078-0.43-0.239-0.588
			c-0.158-0.162-0.351-0.241-0.574-0.241H59.09v4.547c0,0.075-0.028,0.137-0.082,0.184c-0.054,0.048-0.111,0.073-0.175,0.073h-0.511
			c-0.171,0-0.255-0.087-0.255-0.257v-9.843c0-0.14,0.049-0.26,0.144-0.36c0.096-0.1,0.218-0.15,0.368-0.15h1.322
			c0.256,0,0.494,0.047,0.719,0.144c0.224,0.095,0.417,0.228,0.582,0.398c0.163,0.169,0.296,0.367,0.391,0.591
			c0.095,0.223,0.145,0.461,0.145,0.717V49.727z M60.715,47.603c0-0.234-0.078-0.431-0.239-0.589
			c-0.158-0.158-0.351-0.24-0.574-0.24H59.09v3.767h0.812c0.224,0,0.416-0.081,0.574-0.239c0.161-0.161,0.239-0.353,0.239-0.574
			V47.603z"/>
		<path fill="#FFFFFF" d="M64.919,45.832c0.049,0.054,0.072,0.113,0.072,0.176v0.511c0,0.17-0.085,0.255-0.255,0.255h-0.718v9.333
			c0,0.17-0.085,0.257-0.255,0.257h-0.512c-0.17,0-0.256-0.087-0.256-0.257v-9.333h-0.717c-0.17,0-0.256-0.085-0.256-0.255v-0.511
			c0-0.063,0.024-0.122,0.073-0.176c0.047-0.054,0.108-0.079,0.183-0.079h2.457C64.81,45.753,64.871,45.778,64.919,45.832"/>
		<path fill="#FFFFFF" d="M70.305,48.129v-0.541c0-0.223-0.082-0.416-0.24-0.574c-0.16-0.158-0.351-0.24-0.574-0.24
			s-0.415,0.082-0.574,0.24s-0.238,0.352-0.238,0.574v6.938c0,0.225,0.079,0.415,0.238,0.575s0.351,0.239,0.574,0.239
			s0.414-0.079,0.574-0.239c0.158-0.16,0.24-0.351,0.24-0.575v-0.589c0-0.171,0.083-0.255,0.254-0.255h0.512
			c0.17,0,0.254,0.084,0.254,0.255v0.589c0,0.257-0.046,0.494-0.143,0.71c-0.095,0.219-0.228,0.413-0.398,0.584
			c-0.171,0.17-0.365,0.302-0.584,0.398c-0.217,0.096-0.454,0.145-0.709,0.145c-0.256,0-0.496-0.049-0.718-0.145
			c-0.224-0.097-0.417-0.229-0.584-0.398c-0.163-0.171-0.294-0.365-0.389-0.584c-0.097-0.216-0.145-0.453-0.145-0.71v-6.938
			c0-0.255,0.048-0.492,0.145-0.712c0.095-0.216,0.226-0.412,0.389-0.581c0.167-0.171,0.36-0.304,0.584-0.398
			c0.222-0.097,0.462-0.144,0.718-0.144c0.255,0,0.492,0.047,0.709,0.144c0.219,0.095,0.413,0.228,0.584,0.398
			c0.171,0.169,0.304,0.365,0.398,0.581c0.097,0.22,0.143,0.457,0.143,0.712v0.541c0,0.172-0.084,0.257-0.254,0.257h-0.512
			C70.388,48.386,70.305,48.301,70.305,48.129"/>
		<path fill="#FFFFFF" d="M73.941,45.753c0.256,0,0.493,0.047,0.71,0.144c0.218,0.095,0.412,0.228,0.582,0.398
			c0.171,0.169,0.303,0.367,0.399,0.591c0.095,0.223,0.145,0.461,0.145,0.717v6.924c0,0.256-0.05,0.495-0.145,0.72
			c-0.097,0.222-0.229,0.416-0.399,0.582c-0.17,0.165-0.364,0.294-0.582,0.391c-0.217,0.096-0.454,0.145-0.71,0.145
			c-0.255,0-0.495-0.049-0.717-0.145c-0.225-0.097-0.421-0.226-0.591-0.391c-0.172-0.166-0.305-0.36-0.398-0.582
			c-0.096-0.225-0.145-0.464-0.145-0.72v-6.924c0-0.256,0.049-0.494,0.145-0.717c0.094-0.224,0.227-0.422,0.398-0.591
			c0.17-0.171,0.366-0.304,0.591-0.398C73.446,45.8,73.687,45.753,73.941,45.753 M74.755,47.603c0-0.234-0.078-0.431-0.239-0.589
			c-0.16-0.158-0.35-0.24-0.574-0.24c-0.234,0-0.43,0.082-0.589,0.24c-0.16,0.158-0.24,0.354-0.24,0.589v6.924
			c0,0.225,0.08,0.415,0.24,0.575c0.159,0.16,0.354,0.239,0.589,0.239c0.225,0,0.414-0.079,0.574-0.239
			c0.161-0.16,0.239-0.351,0.239-0.575V47.603z"/>
		<path fill="#FFFFFF" d="M81.201,45.753c0.255,0,0.494,0.047,0.717,0.144c0.224,0.095,0.421,0.228,0.591,0.398
			c0.17,0.169,0.302,0.367,0.399,0.591c0.095,0.223,0.144,0.461,0.144,0.717v8.504c0,0.075-0.027,0.137-0.079,0.184
			c-0.055,0.048-0.112,0.073-0.176,0.073h-0.512c-0.17,0-0.255-0.087-0.255-0.257v-8.504c0-0.234-0.08-0.431-0.238-0.589
			c-0.159-0.158-0.359-0.24-0.591-0.24c-0.224,0-0.417,0.082-0.574,0.24c-0.16,0.158-0.24,0.354-0.24,0.589v8.504
			c0,0.17-0.084,0.257-0.256,0.257h-0.509c-0.171,0-0.255-0.087-0.255-0.257v-8.504c0-0.234-0.08-0.431-0.241-0.589
			c-0.159-0.158-0.351-0.24-0.573-0.24c-0.234,0-0.432,0.082-0.591,0.24s-0.239,0.354-0.239,0.589v8.504
			c0,0.17-0.085,0.257-0.255,0.257h-0.513c-0.062,0-0.122-0.025-0.172-0.073c-0.055-0.047-0.081-0.108-0.081-0.184v-8.504
			c0-0.256,0.047-0.494,0.145-0.717c0.095-0.224,0.228-0.422,0.396-0.591c0.171-0.171,0.368-0.304,0.592-0.398
			c0.223-0.097,0.463-0.144,0.718-0.144s0.496,0.051,0.726,0.15c0.228,0.101,0.429,0.242,0.599,0.424
			c0.17-0.182,0.369-0.323,0.598-0.424C80.702,45.804,80.945,45.753,81.201,45.753"/>
		<path fill="#FFFFFF" d="M85.812,45.753c0.255,0,0.492,0.047,0.709,0.144c0.218,0.095,0.412,0.228,0.583,0.398
			c0.171,0.169,0.304,0.367,0.398,0.591c0.095,0.223,0.145,0.461,0.145,0.717v2.124c0,0.254-0.05,0.494-0.145,0.717
			c-0.095,0.224-0.228,0.417-0.398,0.582s-0.365,0.296-0.583,0.391c-0.217,0.097-0.454,0.144-0.709,0.144H84.98v4.547
			c0,0.075-0.022,0.137-0.069,0.184c-0.049,0.048-0.104,0.073-0.168,0.073h-0.51c-0.172,0-0.258-0.087-0.258-0.257V51.56v-1.02
			v-4.516v-0.017c0-0.063,0.025-0.122,0.072-0.176c0.048-0.054,0.109-0.079,0.186-0.079H85.812z M86.626,47.603
			c0-0.234-0.08-0.431-0.24-0.589c-0.159-0.158-0.352-0.24-0.574-0.24H84.98v3.767h0.831c0.223,0,0.415-0.081,0.574-0.239
			c0.16-0.161,0.24-0.353,0.24-0.574V47.603z"/>
		<path fill="#FFFFFF" d="M90.104,45.753c0.253,0,0.49,0.047,0.709,0.144c0.219,0.095,0.413,0.228,0.582,0.398
			c0.171,0.169,0.305,0.367,0.399,0.591c0.095,0.223,0.143,0.461,0.143,0.717v8.504c0,0.17-0.084,0.257-0.256,0.257h-0.51
			c-0.17,0-0.255-0.087-0.255-0.257V51.56h-1.644v4.547c0,0.17-0.084,0.257-0.256,0.257h-0.511c-0.064,0-0.122-0.025-0.176-0.073
			c-0.052-0.047-0.079-0.108-0.079-0.184v-8.504c0-0.256,0.048-0.494,0.144-0.717c0.096-0.224,0.229-0.422,0.399-0.591
			c0.169-0.171,0.367-0.304,0.59-0.398C89.608,45.8,89.848,45.753,90.104,45.753 M90.917,50.54v-2.938
			c0-0.234-0.079-0.431-0.24-0.589c-0.158-0.158-0.35-0.24-0.572-0.24c-0.235,0-0.433,0.082-0.591,0.24
			c-0.161,0.158-0.24,0.354-0.24,0.589v2.938H90.917z"/>
		<path fill="#FFFFFF" d="M94.714,45.753c0.255,0,0.492,0.047,0.71,0.144c0.219,0.095,0.412,0.228,0.583,0.398
			c0.169,0.169,0.303,0.367,0.399,0.591c0.095,0.223,0.143,0.461,0.143,0.717v8.504c0,0.17-0.085,0.257-0.255,0.257h-0.511
			c-0.172,0-0.256-0.087-0.256-0.257v-8.504c0-0.234-0.078-0.431-0.238-0.589c-0.159-0.158-0.352-0.24-0.575-0.24
			c-0.234,0-0.431,0.082-0.591,0.24c-0.158,0.158-0.238,0.354-0.238,0.589v8.504c0,0.17-0.084,0.257-0.256,0.257H93.12
			c-0.171,0-0.258-0.087-0.258-0.257v-8.504c0-0.256,0.05-0.494,0.145-0.717c0.097-0.224,0.229-0.422,0.399-0.591
			c0.17-0.171,0.368-0.304,0.59-0.398C94.221,45.8,94.459,45.753,94.714,45.753"/>
		<path fill="#FFFFFF" d="M100.929,45.832c0.047,0.054,0.071,0.113,0.071,0.176v3.719c0,0.424-0.126,0.796-0.374,1.115
			c-0.25,0.32-0.567,0.536-0.951,0.654v4.61c0,0.075-0.025,0.137-0.078,0.184c-0.054,0.048-0.112,0.073-0.177,0.073h-0.51
			c-0.17,0-0.257-0.087-0.257-0.257v-4.61c-0.393-0.118-0.715-0.334-0.965-0.654c-0.248-0.319-0.374-0.691-0.374-1.115v-3.719
			c0-0.063,0.023-0.122,0.072-0.176c0.048-0.054,0.108-0.079,0.182-0.079h0.511c0.076,0,0.138,0.025,0.184,0.079
			c0.049,0.054,0.073,0.113,0.073,0.176v3.719c0,0.222,0.079,0.413,0.238,0.572c0.159,0.16,0.357,0.241,0.592,0.241
			c0.223,0,0.414-0.081,0.573-0.241c0.159-0.159,0.239-0.351,0.239-0.572v-3.719c0-0.063,0.024-0.122,0.071-0.176
			c0.05-0.054,0.11-0.079,0.185-0.079h0.512C100.819,45.753,100.881,45.778,100.929,45.832"/>
	</g>
	<g>
		<circle fill="#FFFFFF" cx="38.798" cy="50.925" r="6.233"/>
		<g>
			<polygon fill="#131718" points="39.182,44.73 39.157,44.706 39.182,44.73 			"/>
			<polygon fill="#131718" points="32.47,51.254 32.494,51.277 32.494,51.277 			"/>
			<polygon fill="#131718" points="42.304,46.601 42.307,46.605 42.307,46.605 			"/>
			<path fill="#131718" d="M43.315,46.527c-0.203-0.201-0.42-0.391-0.649-0.567c-1.143-0.866-2.499-1.312-3.925-1.289
				c-0.274,0.004-0.551,0.022-0.817,0.06c-1.657,0.226-3.126,1.083-4.139,2.414c-0.829,1.093-1.27,2.386-1.276,3.743
				c-0.007,0.325,0.013,0.649,0.057,0.97c0.188,1.384,0.807,2.632,1.785,3.609v0.001c0.204,0.203,0.425,0.396,0.656,0.572
				c1.348,1.022,3.011,1.46,4.686,1.232c1.675-0.229,3.16-1.098,4.183-2.442C45.781,52.322,45.54,48.753,43.315,46.527
				 M43.593,47.405l-1.167-1.203C42.87,46.543,43.258,46.946,43.593,47.405 M35.149,55.696c-0.652-0.494-1.192-1.116-1.589-1.819
				l2.364,2.317C35.656,56.047,35.396,55.884,35.149,55.696 M37.267,56.727c-0.03-0.007-0.059-0.016-0.087-0.024l-2.092-2.009
				c-0.001,0.012-0.001,0.022-0.002,0.032l1.815,1.89c-0.286-0.094-0.565-0.208-0.832-0.343l-2.69-2.747
				c-0.021-0.044-0.044-0.087-0.065-0.131c-0.084-0.188-0.159-0.388-0.226-0.593l1.967,1.893c0.01,0,0.021,0,0.033-0.001
				l-2.083-2.163c-0.008-0.029-0.017-0.057-0.023-0.089c-0.046-0.177-0.084-0.356-0.113-0.537l2.538,2.46c0.001,0,0.003,0,0.005,0
				v0.006l2.389,2.467C37.618,56.808,37.439,56.771,37.267,56.727 M38.001,56.867l-2.586-2.506l-2.579-2.657l-0.001-0.018
				l-0.004-0.045c-0.013-0.11-0.022-0.224-0.029-0.338l0.995,0.922c-0.009-0.028-0.016-0.057-0.023-0.089l-0.985-1.063
				c0-0.007,0-0.014,0-0.021V51.02c0-0.115,0.005-0.229,0.01-0.326l0.4,0.357c0.009-0.032,0.021-0.068,0.034-0.104l-0.419-0.467
				c0.001-0.017,0.003-0.029,0.003-0.045c0.01-0.104,0.02-0.214,0.037-0.325c0.008-0.05,0.017-0.103,0.028-0.154l0.017-0.098
				c0.017-0.086,0.031-0.169,0.051-0.253c0.012-0.046,0.025-0.09,0.037-0.135l0.033-0.12c0.02-0.074,0.04-0.145,0.062-0.216
				c0.015-0.044,0.031-0.089,0.049-0.132l0.035-0.1c0.025-0.069,0.052-0.141,0.081-0.209c0.021-0.051,0.043-0.101,0.067-0.151
				l0.016-0.039c0.036-0.073,0.07-0.147,0.108-0.224c0.031-0.061,0.063-0.121,0.094-0.181c0.04-0.071,0.08-0.139,0.123-0.207
				l0.03-0.052c0.024-0.042,0.049-0.083,0.075-0.123c0.031-0.048,0.063-0.093,0.095-0.137l0.039-0.056
				c0.015-0.02,0.03-0.042,0.044-0.063c0.023-0.035,0.046-0.07,0.072-0.104l0.013-0.017c0.036-0.049,0.075-0.097,0.113-0.144
				l0.017-0.02c0.042-0.052,0.086-0.103,0.131-0.155c0.05-0.057,0.101-0.113,0.152-0.168c0.046-0.051,0.094-0.099,0.141-0.146
				c0.054-0.054,0.108-0.104,0.164-0.156c0.051-0.046,0.1-0.093,0.151-0.134c0.058-0.051,0.115-0.101,0.174-0.149
				c0.049-0.039,0.1-0.076,0.15-0.115l0.012-0.006c0.063-0.048,0.125-0.091,0.188-0.136c0.056-0.039,0.113-0.076,0.17-0.113
				c0.067-0.043,0.134-0.085,0.201-0.123c0.055-0.032,0.108-0.063,0.164-0.091l0.017-0.009c0.072-0.04,0.146-0.076,0.219-0.113
				c0.061-0.029,0.124-0.06,0.186-0.087c0.079-0.035,0.157-0.067,0.235-0.1c0.065-0.024,0.131-0.05,0.196-0.073
				c0.085-0.028,0.171-0.057,0.257-0.082c0.067-0.022,0.136-0.042,0.203-0.059c0.093-0.027,0.187-0.048,0.283-0.069
				c0.07-0.017,0.139-0.029,0.21-0.043c0.086-0.016,0.176-0.03,0.264-0.042l0.045-0.006c0.059-0.008,0.12-0.013,0.179-0.018
				l0.044-0.004c0.116-0.01,0.234-0.019,0.345-0.023l0.043-0.001c0.062-0.001,0.124-0.004,0.185-0.004h0.044
				c0.119,0.001,0.239,0.01,0.353,0.021c0.083,0.006,0.166,0.015,0.246,0.023c0.156,0.021,0.315,0.046,0.473,0.078
				c0.086,0.017,0.173,0.035,0.259,0.058c0.197,0.049,0.401,0.112,0.607,0.189c0.096,0.036,0.193,0.072,0.289,0.113
				c0.195,0.083,0.391,0.185,0.605,0.306l0.168,0.097l1.858,1.804c0.007,0.01,0.016,0.021,0.023,0.032l0.084,0.141
				c0.125,0.2,0.232,0.412,0.331,0.625l-1.894-1.834c0,0.018,0,0.032,0,0.05l-0.029-0.028l2.056,2.123
				c0.015,0.036,0.03,0.074,0.044,0.11c0.063,0.169,0.116,0.343,0.162,0.521l-2.107-2.025c-0.008,0-0.016,0-0.024,0.003l2.196,2.288
				c0.007,0.025,0.014,0.052,0.019,0.08c0.029,0.134,0.048,0.272,0.068,0.405l-2.377-2.275l0.032,0.031
				c-0.002,0.003-0.002,0.005-0.003,0.01l-0.031-0.032l2.411,2.519c0.001,0.021,0.002,0.04,0.005,0.062
				c0.008,0.106,0.013,0.222,0.017,0.346l-1.704-1.638c-0.212-0.475-0.509-0.918-0.894-1.303c-0.013-0.013-0.027-0.023-0.04-0.036
				c-0.009-0.011-0.019-0.022-0.028-0.031c-0.147-0.147-0.305-0.284-0.47-0.409c-0.276-0.21-0.571-0.382-0.879-0.522
				c-0.048-0.021-0.097-0.041-0.146-0.063c-0.241-0.098-0.487-0.175-0.74-0.232c-0.054-0.013-0.107-0.024-0.161-0.035
				c-0.18-0.034-0.36-0.058-0.543-0.07c-0.051-0.001-0.101,0-0.153-0.001c-0.149-0.005-0.297-0.005-0.447,0.009
				c-0.049,0.001-0.099,0.005-0.148,0.012c-0.046,0.004-0.093,0.005-0.14,0.012c-0.08,0.009-0.159,0.024-0.24,0.039
				c-0.055,0.011-0.109,0.023-0.165,0.038c-0.108,0.022-0.215,0.054-0.319,0.085c-0.054,0.018-0.106,0.032-0.158,0.051
				c-0.098,0.033-0.194,0.073-0.289,0.112c-0.05,0.022-0.1,0.043-0.147,0.065c-0.089,0.041-0.176,0.086-0.261,0.134
				c-0.048,0.026-0.097,0.053-0.144,0.08c-0.081,0.049-0.157,0.101-0.235,0.151c-0.044,0.03-0.089,0.061-0.131,0.093
				c-0.073,0.056-0.145,0.111-0.215,0.17c-0.043,0.034-0.085,0.071-0.127,0.107c-0.066,0.059-0.13,0.12-0.192,0.184
				c-0.04,0.039-0.079,0.079-0.117,0.119c-0.06,0.064-0.118,0.132-0.174,0.199c-0.036,0.045-0.072,0.089-0.105,0.133
				c-0.005,0.007-0.01,0.013-0.014,0.018c-0.051,0.066-0.095,0.137-0.141,0.204c-0.031,0.047-0.065,0.093-0.096,0.14
				c-0.049,0.08-0.094,0.164-0.139,0.245c-0.025,0.048-0.053,0.094-0.077,0.142c-0.045,0.089-0.084,0.181-0.123,0.274
				c-0.021,0.048-0.044,0.098-0.064,0.146c-0.038,0.1-0.068,0.199-0.101,0.303c-0.015,0.053-0.034,0.105-0.049,0.157
				c-0.03,0.113-0.051,0.226-0.072,0.339c-0.009,0.056-0.021,0.111-0.028,0.166c-0.019,0.127-0.035,0.25-0.042,0.378
				c-0.005,0.062-0.001,0.125-0.003,0.186c-0.004,0.146,0,0.294,0.011,0.442c0.004,0.063,0.007,0.122,0.015,0.186
				c0.002,0.03,0.002,0.062,0.007,0.092c0.023,0.159,0.056,0.314,0.094,0.467c0.016,0.063,0.032,0.126,0.05,0.188
				c0.088,0.301,0.208,0.591,0.354,0.864c0.027,0.048,0.052,0.098,0.082,0.146c0.193,0.331,0.429,0.64,0.705,0.918
				c0.012,0.013,0.025,0.021,0.037,0.032c0.012,0.014,0.022,0.024,0.033,0.037c0.145,0.143,0.3,0.279,0.464,0.402
				c0.133,0.102,0.276,0.192,0.419,0.276l1.836,1.91C38.265,56.896,38.134,56.883,38.001,56.867 M43.24,50.701
				c0.013,0.157,0.019,0.312,0.017,0.469l-1.915-1.84c-0.11-0.509-0.565-0.892-1.107-0.892c-0.077,0-0.155,0.008-0.236,0.025
				c-0.02,0.004-0.037,0.011-0.075,0.021c-0.145,0.043-0.277,0.111-0.41,0.217L39.48,48.73c-0.108,0.1-0.196,0.214-0.267,0.355
				c-0.008,0.014-0.016,0.027-0.023,0.042c-0.061,0.143-0.091,0.293-0.091,0.447c0,0.015,0.002,0.027,0.004,0.052
				c-0.001,0.017-0.004,0.032-0.003,0.044c-0.001,0.019,0.001,0.033,0.004,0.06c0.029,0.591,0.515,1.064,1.093,1.073l0.035,0.005
				l0.019-0.001c0.173-0.004,0.341-0.046,0.499-0.127l0.031-0.018c0.01-0.005,0.018-0.013,0.026-0.019l2.08,2.172
				c-0.042,0.098-0.089,0.195-0.139,0.289l-1.685-1.599l1.624,1.71c-0.051,0.091-0.105,0.178-0.164,0.264l-1.16-1.109
				c-0.001-0.012-0.001-0.021-0.003-0.033l-0.007-0.056c-0.002-0.026-0.005-0.054-0.011-0.082c-0.097-0.451-0.457-0.796-0.931-0.878
				c-0.19-0.027-0.401-0.011-0.598,0.066l-0.032,0.014c-0.14,0.06-0.268,0.151-0.375,0.267c-0.008,0.01-0.015,0.018-0.022,0.029
				c-0.106,0.119-0.182,0.256-0.228,0.406c-0.005,0.016-0.01,0.031-0.014,0.047c-0.028,0.108-0.042,0.199-0.042,0.295
				c0.001,0.012,0.002,0.024,0.004,0.036L39.1,52.526c0,0.079,0.009,0.16,0.029,0.243c0.003,0.016,0.007,0.03,0.016,0.057
				c0.136,0.489,0.583,0.834,1.09,0.834h0.002c0.122,0,0.244-0.022,0.391-0.074c0.011-0.002,0.022-0.011,0.034-0.016l0.89,0.949
				c-0.089,0.069-0.181,0.131-0.275,0.192l-1.004-0.935l0.922,0.988c-0.094,0.059-0.19,0.111-0.289,0.162l-0.956-0.861l0.833,0.923
				c0,0-0.002,0.001-0.002,0.003c-0.099,0.046-0.199,0.086-0.301,0.126l-0.928-0.839l0.801,0.892c-0.001,0-0.001,0-0.001,0
				c-0.112,0.037-0.226,0.069-0.341,0.1l-0.883-0.802l0.756,0.835c-0.001,0-0.001,0-0.002,0c-0.128,0.03-0.256,0.055-0.386,0.071
				l-1.021-0.945l0.89,0.958h-0.002c-0.153,0.016-0.305,0.023-0.457,0.023l-1.087-1.028l0.973,1.026
				c-0.188-0.003-0.374-0.017-0.557-0.044l-0.846-0.801l0.739,0.781c-0.25-0.046-0.497-0.109-0.734-0.197l-0.686-0.653l0.575,0.606
				c-0.356-0.144-0.698-0.332-1.012-0.571c-0.145-0.11-0.281-0.228-0.409-0.354c-0.385-0.393-0.685-0.854-0.888-1.36
				c-0.002-0.006-0.004-0.009-0.005-0.015l0.785,0.74l-0.842-0.895c-0.001-0.001-0.002-0.006-0.003-0.009
				c-0.074-0.21-0.13-0.429-0.17-0.651c-0.002-0.004-0.002-0.01-0.003-0.013l1.023,0.96l-1.05-1.12
				c-0.001-0.005-0.001-0.006-0.002-0.011c-0.004-0.033-0.011-0.065-0.016-0.099c-0.016-0.133-0.026-0.265-0.03-0.394
				c0-0.008,0-0.012,0-0.018l0.75,0.681l-0.247-0.272c-0.028-0.011-0.048-0.032-0.057-0.061l-0.444-0.491v-0.012
				c0.001-0.139,0.008-0.275,0.022-0.412c0.002-0.003,0.002-0.007,0.002-0.011l0.576,0.538c0.009-0.018,0.017-0.035,0.029-0.053
				l-0.588-0.631c0.001-0.003,0.001-0.005,0.001-0.007c0.018-0.118,0.041-0.237,0.067-0.354c0.001-0.003,0.002-0.006,0.003-0.011
				l0.478,0.442c0.015-0.018,0.028-0.036,0.044-0.052l-0.491-0.534c0-0.001,0-0.006,0.001-0.006
				c0.029-0.106,0.066-0.209,0.102-0.313c0-0.002,0.002-0.007,0.002-0.009l0.559,0.514c0.016-0.013,0.029-0.024,0.046-0.037
				l-0.557-0.605c0.001-0.004,0.001-0.005,0.003-0.008c0.038-0.097,0.079-0.19,0.124-0.283c0.002-0.004,0.003-0.008,0.005-0.011
				l0.53,0.48c0.015-0.011,0.031-0.021,0.046-0.03l-0.515-0.567c0.002-0.004,0.002-0.007,0.006-0.01
				c0.044-0.085,0.089-0.172,0.141-0.253c0.001-0.002,0.001-0.004,0.004-0.005l0.469,0.446c-0.003-0.045,0.005-0.097,0.015-0.151
				l-0.399-0.42c0-0.002,0-0.003,0.001-0.005c0.053-0.076,0.102-0.153,0.159-0.228c0-0.002,0.002-0.003,0.003-0.006l0.313,0.3
				c0.019-0.039,0.044-0.077,0.067-0.115l-0.283-0.299l0.002-0.006c0.057-0.07,0.115-0.14,0.175-0.208c0.001,0,0.003,0,0.004-0.004
				l0.278,0.266c0.029-0.034,0.057-0.064,0.088-0.096l-0.259-0.273c0.001-0.002,0.003-0.003,0.004-0.004
				c0.065-0.065,0.128-0.13,0.195-0.19c0.001-0.001,0.003-0.002,0.005-0.003l0.267,0.253c0.036-0.025,0.071-0.053,0.106-0.075
				l-0.257-0.271c0.001-0.002,0.003-0.002,0.005-0.003c0.072-0.061,0.142-0.12,0.218-0.174c0.003-0.002,0.003-0.003,0.005-0.003
				l0.411,0.39c0.044-0.014,0.085-0.025,0.125-0.027l-0.416-0.44c0.001-0.001,0.003-0.001,0.005-0.006
				c0.079-0.052,0.16-0.104,0.243-0.15c0.001-0.002,0.004-0.002,0.007-0.005l0.754,0.7c0.004-0.01,0.009-0.02,0.014-0.032
				c0.004-0.009,0.01-0.017,0.016-0.027l-0.657-0.707c0.001,0,0.005-0.003,0.009-0.003c0.088-0.048,0.178-0.092,0.272-0.132
				c0.002-0.003,0.005-0.005,0.007-0.005l0.567,0.518c0.011-0.018,0.023-0.028,0.036-0.043l-0.479-0.524
				c0.004-0.002,0.007-0.004,0.011-0.005c0.101-0.04,0.201-0.076,0.305-0.108c0.004,0,0.006-0.002,0.01-0.002l0.525,0.479
				c0.013-0.014,0.026-0.026,0.041-0.04l-0.435-0.479c0.002-0.001,0.005-0.001,0.01-0.003c0.111-0.03,0.226-0.056,0.34-0.078
				c0.004,0,0.008,0,0.011,0l0.407,0.365c0.015-0.011,0.033-0.024,0.049-0.035l-0.322-0.358c0.004,0,0.008-0.003,0.013-0.003
				s0.013-0.003,0.019-0.003c0.071-0.01,0.143-0.019,0.216-0.025c0.057-0.007,0.115-0.008,0.172-0.012c0.003,0,0.006,0,0.01,0
				l0.704,0.645l-0.595-0.651c0.005-0.002,0.008-0.002,0.013-0.002c0.162-0.005,0.322-0.007,0.481,0.005
				c0.004,0,0.008,0,0.012,0.002l0.604,0.549l-0.487-0.535c0.005,0,0.011,0.001,0.016,0.001c0.203,0.021,0.406,0.058,0.604,0.107
				c0.004,0.001,0.009,0.002,0.014,0.004l0.46,0.42l0.009,0.009l-0.005-0.009l-0.356-0.39c0.006,0.003,0.013,0.004,0.019,0.006
				c0.334,0.098,0.655,0.237,0.958,0.416c0.036,0.021,0.07,0.044,0.105,0.064c0.094,0.062,0.188,0.123,0.279,0.191
				c0.143,0.107,0.278,0.228,0.406,0.352c0.198,0.204,0.372,0.424,0.522,0.656l-0.766-0.736l0.872,0.905
				c0.172,0.294,0.308,0.603,0.405,0.923l-1.615-1.559l0.017,0.018l-0.021-0.02l1.673,1.737c0.051,0.192,0.086,0.386,0.111,0.584
				l-2.029-1.954L43.24,50.701z M43.181,51.865c-0.022,0.123-0.051,0.244-0.084,0.363l-1.958-1.875l0.01-0.013
				c0.086-0.117,0.141-0.252,0.176-0.4l0.212,0.208l-0.21-0.218c0.007-0.028,0.019-0.056,0.025-0.088
				c0.007-0.056,0.016-0.111,0.016-0.171c0-0.016-0.001-0.028-0.005-0.051c0.003-0.016,0.005-0.031,0.005-0.046
				c0-0.078-0.009-0.151-0.023-0.224l1.897,1.974c-0.008,0.137-0.021,0.273-0.043,0.41l-1.529-1.456L43.181,51.865z M41.135,50.36
				l1.922,2.008c-0.033,0.105-0.07,0.212-0.11,0.315l-2.132-2.043C40.939,50.565,41.049,50.472,41.135,50.36 M40.237,50.626
				c-0.5,0-0.905-0.405-0.905-0.905c-0.001-0.501,0.405-0.907,0.905-0.907s0.905,0.406,0.905,0.904
				C41.143,50.221,40.737,50.626,40.237,50.626 M41.025,53.338L41.025,53.338l0.854,0.904c-0.079,0.073-0.161,0.143-0.243,0.209
				l-0.953-0.892C40.813,53.504,40.929,53.433,41.025,53.338 M40.237,53.483c-0.5,0-0.905-0.405-0.906-0.906
				c0-0.5,0.406-0.908,0.906-0.908s0.905,0.407,0.905,0.908S40.737,53.483,40.237,53.483 M41.056,53.305
				c0.092-0.097,0.161-0.211,0.215-0.337l0.908,0.962c-0.069,0.081-0.143,0.155-0.216,0.23L41.056,53.305z M41.288,52.929
				c0.004-0.007,0.009-0.012,0.013-0.021l0.009-0.034c0.041-0.122,0.061-0.237,0.061-0.347c0-0.017-0.001-0.03-0.004-0.043
				l0.001-0.01l1.076,1.123c-0.024,0.033-0.044,0.068-0.07,0.101c-0.037,0.05-0.08,0.093-0.119,0.142L41.288,52.929z M38.687,56.917
				c-0.018,0-0.035-0.001-0.053-0.003l-1.893-1.819c0.277,0.146,0.566,0.262,0.865,0.345l1.399,1.471
				C38.888,56.916,38.782,56.918,38.687,56.917 M39.277,56.896c-0.015,0-0.029,0-0.043,0.002l-1.493-1.42
				c0.199,0.049,0.402,0.079,0.607,0.1l1.216,1.286C39.469,56.877,39.373,56.887,39.277,56.896 M39.818,56.822
				c-0.013,0.001-0.024,0.005-0.037,0.007l-1.308-1.239c0.164,0.013,0.333,0.019,0.5,0.011l1.104,1.169
				C39.991,56.79,39.905,56.807,39.818,56.822 M40.317,56.712c-0.009,0.002-0.019,0.004-0.029,0.006l-1.189-1.123
				c0.125-0.009,0.25-0.018,0.375-0.038c0.017-0.002,0.029-0.005,0.045-0.007l1.039,1.093C40.479,56.668,40.399,56.69,40.317,56.712
				 M40.784,56.568c-0.008,0.003-0.017,0.004-0.023,0.007l-1.104-1.051c0.121-0.021,0.242-0.05,0.36-0.08l0.991,1.038
				C40.934,56.514,40.859,56.541,40.784,56.568 M41.218,56.395c-0.005,0.001-0.011,0.005-0.018,0.007l-1.047-0.997
				c0.108-0.033,0.213-0.07,0.317-0.109l0.959,0.999C41.358,56.328,41.288,56.363,41.218,56.395 M41.625,56.19
				c-0.004,0.004-0.008,0.007-0.014,0.01l-1.003-0.96c0.097-0.043,0.191-0.087,0.285-0.133l0.931,0.973
				C41.759,56.118,41.692,56.155,41.625,56.19 M42.366,55.717c-0.002,0.001-0.005,0.001-0.007,0.004l-0.971-0.904
				c-0.03,0.019-0.061,0.039-0.091,0.059l0.898,0.965c-0.062,0.042-0.124,0.085-0.188,0.126c-0.002,0.002-0.005,0.004-0.009,0.007
				l-0.977-0.935c0.093-0.053,0.186-0.106,0.274-0.163c0.006-0.004,0.013-0.009,0.018-0.013c0.026-0.015,0.049-0.03,0.073-0.046
				c0.09-0.062,0.179-0.125,0.263-0.19l0.892,0.951C42.484,55.625,42.427,55.67,42.366,55.717 M42.703,55.444
				c-0.002,0-0.003,0-0.004,0.003l-0.955-0.895c0.08-0.066,0.157-0.135,0.232-0.208l0.892,0.947
				C42.813,55.343,42.759,55.395,42.703,55.444 M43.17,54.985c-0.05,0.055-0.102,0.109-0.156,0.163l-0.945-0.891
				c0.071-0.072,0.141-0.146,0.209-0.224l0.895,0.948C43.171,54.985,43.17,54.985,43.17,54.985 M43.45,54.658
				c-0.046,0.058-0.096,0.116-0.143,0.172l-0.946-0.893c0.041-0.051,0.084-0.104,0.124-0.155c0.02-0.028,0.038-0.056,0.057-0.082
				l0.911,0.953L43.45,54.658z M43.708,54.307c-0.041,0.063-0.085,0.123-0.13,0.184l-0.953-0.911
				c0.015-0.023,0.027-0.046,0.042-0.068c0.042-0.063,0.082-0.124,0.12-0.186l0.925,0.976C43.712,54.303,43.71,54.306,43.708,54.307
				 M43.943,53.934c-0.038,0.067-0.077,0.132-0.116,0.194l-0.973-0.922c0.052-0.09,0.098-0.184,0.143-0.277l0.954,0.994
				L43.943,53.934z M44.154,53.539c-0.032,0.067-0.068,0.136-0.105,0.204l-0.992-0.952c0.043-0.1,0.081-0.199,0.116-0.301
				l0.989,1.032C44.159,53.527,44.157,53.533,44.154,53.539 M44.339,53.113c-0.029,0.073-0.058,0.146-0.091,0.218l-1.025-0.981
				c0.035-0.114,0.065-0.229,0.091-0.344l1.034,1.087C44.343,53.099,44.342,53.104,44.339,53.113 M44.497,52.659
				c-0.024,0.079-0.051,0.157-0.078,0.233l-1.076-1.022c0.024-0.125,0.045-0.254,0.06-0.383l1.101,1.146
				C44.501,52.642,44.499,52.652,44.497,52.659 M44.621,52.174c-0.018,0.085-0.038,0.169-0.06,0.253l-1.145-1.104
				c0.009-0.141,0.013-0.285,0.01-0.427l1.201,1.246C44.625,52.151,44.623,52.163,44.621,52.174 M44.707,51.648
				c-0.01,0.091-0.026,0.183-0.041,0.272l-1.242-1.194c-0.009-0.175-0.033-0.348-0.063-0.519l1.349,1.399
				C44.709,51.622,44.708,51.636,44.707,51.648 M44.73,51.382l-1.404-1.354c-0.051-0.238-0.123-0.473-0.214-0.7l1.634,1.7
				c0,0.015,0,0.032,0,0.049C44.745,51.175,44.737,51.277,44.73,51.382"/>
			<path fill="#131718" d="M38.521,49.509l-0.005-0.056c-0.002-0.034-0.005-0.066-0.011-0.101c-0.087-0.437-0.424-0.784-0.859-0.885
				c-0.065-0.013-0.13-0.021-0.208-0.024c-0.132-0.019-0.281,0.012-0.427,0.064c-0.05,0.018-0.096,0.04-0.142,0.063
				c-0.114,0.06-0.205,0.125-0.283,0.205c-0.035,0.035-0.065,0.072-0.093,0.112c-0.073,0.093-0.129,0.202-0.169,0.314
				c-0.019,0.052-0.035,0.105-0.046,0.162c-0.013,0.072-0.02,0.142-0.021,0.212c0.002,0.014,0.003,0.029,0.005,0.049l-0.005,0.045
				c0,0.054,0.008,0.106,0.018,0.17c0.014,0.096,0.037,0.181,0.069,0.256c0.116,0.289,0.353,0.519,0.644,0.631
				c0.069,0.027,0.14,0.047,0.21,0.06c0.064,0.01,0.128,0.018,0.195,0.018h0.001c0.101,0,0.203-0.016,0.338-0.055
				c0.03-0.009,0.059-0.017,0.088-0.029c0.124-0.05,0.238-0.123,0.34-0.218c0.023-0.02,0.044-0.041,0.064-0.063
				c0.096-0.104,0.169-0.219,0.221-0.347c0.008-0.022,0.016-0.046,0.023-0.07l0.008-0.028c0.037-0.119,0.053-0.223,0.053-0.328
				c0-0.014-0.002-0.027-0.005-0.045c0.002-0.016,0.005-0.031,0.005-0.046C38.526,49.552,38.523,49.53,38.521,49.509 M37.388,50.623
				c-0.5,0-0.907-0.407-0.907-0.908c0-0.5,0.407-0.905,0.907-0.905s0.906,0.405,0.906,0.905
				C38.294,50.217,37.889,50.623,37.388,50.623"/>
			<path fill="#131718" d="M37.39,51.308c-0.012,0-0.022,0-0.031,0.002c-0.02,0.002-0.038,0.002-0.079,0.008
				c-0.163,0.015-0.317,0.064-0.468,0.152c-0.018,0.008-0.035,0.018-0.048,0.028c-0.117,0.076-0.217,0.173-0.297,0.288
				c-0.011,0.016-0.021,0.033-0.043,0.068c-0.081,0.133-0.132,0.279-0.152,0.437c-0.005,0.028-0.008,0.058-0.01,0.098
				c-0.003,0.018-0.004,0.036-0.004,0.049v0.089c0,0.235,0.073,0.463,0.212,0.657c0.06,0.085,0.137,0.164,0.227,0.234
				c0.204,0.16,0.443,0.242,0.695,0.242c0.064,0,0.125-0.005,0.198-0.02c0.171-0.029,0.33-0.099,0.459-0.195l0.024-0.016
				c0.118-0.092,0.217-0.202,0.293-0.332l0.026-0.048c0.089-0.168,0.134-0.345,0.132-0.532l0.002-0.076
				c0-0.303-0.118-0.587-0.333-0.803C37.979,51.426,37.694,51.308,37.39,51.308 M37.387,53.484c-0.5,0-0.906-0.406-0.906-0.907
				c0-0.5,0.405-0.907,0.906-0.908c0.5,0.001,0.908,0.408,0.908,0.908C38.294,53.078,37.887,53.484,37.387,53.484"/>
		</g>
	</g>
</g>
</svg>
