<?xml version="1.0" encoding="utf-8"?>
<!-- Generator: Adobe Illustrator 16.0.0, SVG Export Plug-In . SVG Version: 6.00 Build 0)  -->
<!DOCTYPE svg PUBLIC "-//W3C//DTD SVG 1.1//EN" "http://www.w3.org/Graphics/SVG/1.1/DTD/svg11.dtd">
<svg version="1.1" id="Layer_1" xmlns="http://www.w3.org/2000/svg" xmlns:xlink="http://www.w3.org/1999/xlink" x="0px" y="0px"
	 width="102px" height="102px" viewBox="7.306 11.945 102 102" enable-background="new 7.306 11.945 102 102" xml:space="preserve">
<g>
	<g>
		<path fill="#FFFFFF" d="M77.33,55.057c-1.245-0.782-1.245-1.717,0-2.51c2.196-1.405,6.718-4.652,6.718-14.006
			c-0.001-14.046-10.302-22.157-25.745-22.157c-20.384,0-25.738,12.026-25.738,16.971c0.171,2.322,1.516,2.567,3.413,2.955
			c1.59,0.292,3.448,0.146,4.966,0.07c1.203,0,2.693-1.473,3.235-2.854c0.284-0.591,2.346-6.073,13.97-6.073
			c7.802,0,13.87,3.585,13.87,11.087c0,8.721-9.489,10.284-15.437,10.284c-2.173,0-3.413,1.238-3.413,3.417v3.438
			c0,2.174,1.239,3.423,3.413,3.423c5.947,0,15.437,1.571,15.437,10.294c0,7.497-6.067,11.075-13.716,11.075
			c-8.718,0-13.73-7.177-13.73-14.186v-20c0-0.064,0-0.137,0.022-0.205v-0.402c0-2.323-0.531-3.537-4.541-3.537h-4.046
			c-2.18,0-3.437,1.263-3.437,3.446v20.696c0,13.406,10.3,25.266,25.731,25.266c15.443,0,25.744-8.119,25.744-22.154
			C84.047,60.058,79.525,56.457,77.33,55.057"/>
	</g>
	<g>
		<path fill="#FFFFFF" d="M73.929,109.507c-2.309,0-3.848-1.771-3.848-3.774v-3.684c0-2.009,1.539-3.774,3.848-3.774
			c2.307,0,3.216,1.607,3.401,2.023c0.094,0.213,0.14,0.514-0.14,0.701l-0.56,0.4c-0.253,0.18-0.509,0.161-0.695-0.121
			c-0.21-0.326-0.702-1.351-2.007-1.351c-1.307,0-2.055,1.071-2.055,2.121v3.684c0,1.044,0.748,2.117,2.055,2.117
			c1.305,0,1.745-0.954,2.007-1.303c0.207-0.305,0.442-0.347,0.695-0.188l0.537,0.376c0.302,0.213,0.349,0.444,0.209,0.696
			C77.121,107.944,76.235,109.507,73.929,109.507"/>
		<path fill="#FFFFFF" d="M83.949,109.507c-2.305,0-3.846-1.771-3.846-3.774v-3.684c0-2.009,1.541-3.775,3.846-3.775
			c2.31,0,3.848,1.767,3.848,3.775v3.684C87.797,107.735,86.259,109.507,83.949,109.507 M86.001,102.049
			c0-1.051-0.745-2.121-2.052-2.121c-1.304,0-2.049,1.07-2.049,2.121v3.684c0,1.044,0.745,2.117,2.049,2.117
			c1.307,0,2.052-1.073,2.052-2.117V102.049z"/>
		<path fill="#FFFFFF" d="M97.538,109.273H96.77c-0.324,0-0.517-0.187-0.517-0.513v-1.984c0-1.044-0.743-2.117-2.048-2.117H92.67
			c-0.328,0-0.513,0.183-0.513,0.511v3.591c0,0.326-0.187,0.513-0.515,0.513h-0.771c-0.325,0-0.513-0.187-0.513-0.513v-6.712
			c0-2.009,1.542-3.774,3.846-3.774c2.189,0,3.848,1.231,3.848,3.305c0,1.308-0.749,1.869-1.05,2.103
			c-0.186,0.142-0.186,0.322,0,0.486c0.511,0.442,1.05,1.167,1.05,2.608v1.984C98.053,109.087,97.865,109.273,97.538,109.273
			 M94.205,99.928c-1.305,0-2.048,1.071-2.048,2.121v0.56c0,0.325,0.185,0.508,0.513,0.508h1.535c0.606,0,2.048-0.229,2.048-1.537
			C96.253,100.463,95.302,99.928,94.205,99.928"/>
		<path fill="#FFFFFF" d="M104.463,105.822c-0.563,0-1.119-0.142-1.681-0.374c-0.208-0.089-0.369,0.023-0.369,0.212v3.101
			c0,0.326-0.188,0.513-0.518,0.513h-0.765c-0.327,0-0.518-0.187-0.518-0.513v-6.712c0-2.009,1.54-3.774,3.85-3.774
			c2.306,0,3.843,1.766,3.843,3.774C108.306,104.054,106.769,105.822,104.463,105.822 M104.463,99.928
			c-1.306,0-2.05,1.071-2.05,2.121s0.744,2.119,2.05,2.119c1.304,0,2.05-1.069,2.05-2.119S105.767,99.928,104.463,99.928"/>
		<path fill="#FFFFFF" d="M25.751,109.273h-0.769c-0.325,0-0.516-0.187-0.516-0.513v-1.984c0-1.044-0.745-2.117-2.048-2.117H20.88
			c-0.329,0-0.514,0.183-0.514,0.511v3.591c0,0.326-0.185,0.513-0.515,0.513h-0.766c-0.326,0-0.511-0.187-0.511-0.513v-6.712
			c0-2.009,1.537-3.774,3.844-3.774c2.189,0,3.846,1.231,3.846,3.305c0,1.308-0.747,1.869-1.051,2.103
			c-0.187,0.142-0.187,0.322,0,0.486c0.515,0.442,1.051,1.167,1.051,2.608v1.984C26.264,109.087,26.079,109.273,25.751,109.273
			 M22.418,99.928c-1.309,0-2.052,1.071-2.052,2.121v0.56c0,0.325,0.185,0.508,0.514,0.508h1.538c0.604,0,2.048-0.229,2.048-1.537
			C24.467,100.463,23.513,99.928,22.418,99.928"/>
		<path fill="#FFFFFF" d="M36.004,109.273h-0.766c-0.328,0-0.519-0.187-0.519-0.513v-3.591c0-0.328-0.182-0.511-0.506-0.511h-3.08
			c-0.326,0-0.516,0.183-0.516,0.511v3.591c0,0.326-0.183,0.513-0.511,0.513h-0.767c-0.324,0-0.51-0.187-0.51-0.513v-6.712
			c0-2.009,1.537-3.775,3.841-3.775c2.31,0,3.848,1.767,3.848,3.775v6.712C36.518,109.087,36.331,109.273,36.004,109.273
			 M34.72,102.049c0-1.051-0.742-2.121-2.049-2.121c-1.301,0-2.053,1.07-2.053,2.121v0.56c0,0.325,0.19,0.508,0.516,0.508h3.08
			c0.324,0,0.506-0.183,0.506-0.508V102.049z"/>
		<path fill="#FFFFFF" d="M46.263,109.273h-0.652c-0.331,0-0.514-0.187-0.514-0.513v-5.645c0-0.183-0.235-0.229-0.326,0
			l-1.072,2.427c-0.166,0.373-0.421,0.657-0.771,0.657c-0.351,0-0.606-0.26-0.771-0.657l-1.071-2.427
			c-0.113-0.229-0.323-0.183-0.323,0v5.645c0,0.326-0.188,0.513-0.515,0.513h-0.652c-0.327,0-0.512-0.187-0.512-0.513v-9.739
			c0-0.327,0.186-0.521,0.512-0.521h0.909c0.324,0,0.559,0.237,0.679,0.521l1.533,3.747c0.048,0.118,0.12,0.231,0.211,0.231
			c0.094,0,0.165-0.113,0.209-0.231l1.54-3.747c0.115-0.283,0.348-0.521,0.678-0.521h0.907c0.324,0,0.514,0.193,0.514,0.521v9.739
			C46.777,109.087,46.586,109.273,46.263,109.273"/>
		<path fill="#FFFFFF" d="M56.518,109.273h-0.773c-0.321,0-0.513-0.187-0.513-0.513v-3.591c0-0.328-0.186-0.511-0.51-0.511h-3.078
			c-0.325,0-0.51,0.183-0.51,0.511v3.591c0,0.326-0.189,0.513-0.515,0.513h-0.768c-0.327,0-0.514-0.187-0.514-0.513v-9.739
			c0-0.327,0.188-0.521,0.514-0.521h0.768c0.326,0,0.515,0.193,0.515,0.521v3.587c0,0.325,0.186,0.508,0.51,0.508h3.078
			c0.324,0,0.51-0.183,0.51-0.508v-3.587c0-0.327,0.191-0.521,0.513-0.521h0.773c0.324,0,0.513,0.193,0.513,0.521v9.739
			C57.03,109.087,56.842,109.273,56.518,109.273"/>
		<path fill="#FFFFFF" d="M66.775,109.273h-0.77c-0.327,0-0.515-0.187-0.515-0.513v-3.591c0-0.328-0.187-0.511-0.514-0.511h-3.074
			c-0.331,0-0.513,0.183-0.513,0.511v3.591c0,0.326-0.191,0.513-0.516,0.513h-0.771c-0.327,0-0.51-0.187-0.51-0.513v-6.712
			c0-2.009,1.536-3.775,3.845-3.775c2.311,0,3.849,1.767,3.849,3.775v6.712C67.288,109.087,67.1,109.273,66.775,109.273
			 M65.491,102.049c0-1.051-0.747-2.121-2.052-2.121c-1.303,0-2.049,1.07-2.049,2.121v0.56c0,0.325,0.182,0.508,0.513,0.508h3.074
			c0.327,0,0.514-0.183,0.514-0.508V102.049z"/>
		<rect x="14.302" y="103.116" fill="#FFFFFF" width="6.501" height="1.54"/>
		<path fill="#FFFFFF" d="M14.994,104.054c-0.187-0.117-0.187-0.256,0-0.371c0.329-0.215,1.001-0.701,1.001-2.103
			c0-2.092-1.535-3.306-3.844-3.306c-3.049,0-3.845,1.797-3.845,2.537c0.023,0.346,0.219,0.384,0.509,0.438
			c0.238,0.049,0.516,0.021,0.741,0.013c0.183,0,0.403-0.222,0.484-0.429c0.042-0.086,0.349-0.905,2.088-0.905
			c1.165,0,2.073,0.535,2.073,1.652c0,1.307-1.424,1.536-2.304,1.536c-0.327,0-0.514,0.192-0.514,0.517v0.515
			c0,0.325,0.187,0.512,0.514,0.512c0.88,0,2.304,0.232,2.304,1.542c0,1.113-0.908,1.648-2.05,1.648c-1.305,0-2.05-1.073-2.05-2.117
			v-2.987v-0.034v-0.064c0-0.341-0.077-0.522-0.68-0.522H8.817c-0.326,0-0.512,0.188-0.512,0.514v3.095
			c0,2.003,1.541,3.774,3.845,3.774c2.309,0,3.844-1.213,3.844-3.306C15.995,104.8,15.323,104.264,14.994,104.054"/>
	</g>
</g>
</svg>
