<?xml version="1.0" encoding="utf-8"?>
<!-- Generator: Adobe Illustrator 23.0.0, SVG Export Plug-In . SVG Version: 6.00 Build 0)  -->
<svg version="1.1" id="Layer_1" xmlns="http://www.w3.org/2000/svg" xmlns:xlink="http://www.w3.org/1999/xlink" x="0px" y="0px"
	 viewBox="0 0 102 102" style="enable-background:new 0 0 102 102;" xml:space="preserve">
<style type="text/css">
	.st0{fill:#FFFFFF;}
</style>
<g>
	<path class="st0" d="M4.8,36v4.2c0.5-0.3,0.9-0.5,1.4-0.7s0.9-0.2,1.4-0.2c1.3,0,2.4,0.4,3.3,1.3c0.9,0.9,1.3,2,1.3,3.2
		c0,1.2-0.4,2.2-1.3,3S8.9,48,7.5,48c-0.5,0-1-0.1-1.4-0.2c-0.5-0.1-0.9-0.3-1.3-0.6v0.5H2.6c-0.4,0-0.8-0.1-1-0.3s-0.3-0.4-0.3-0.7
		c0-0.3,0.1-0.5,0.3-0.7s0.5-0.3,0.9-0.3h0.3v-8H2.6c-0.4,0-0.8-0.1-1-0.3c-0.2-0.2-0.3-0.4-0.3-0.7c0-0.3,0.1-0.5,0.3-0.7
		s0.5-0.3,1-0.3L4.8,36L4.8,36z M10.3,43.9c0-0.8-0.3-1.4-0.8-1.9c-0.5-0.5-1.2-0.8-2-0.8c-0.8,0-1.4,0.3-2,0.8s-0.8,1.2-0.8,1.9
		c0,0.7,0.2,1.2,0.7,1.7s1.2,0.7,2,0.7s1.6-0.2,2-0.7C10.1,45.1,10.3,44.5,10.3,43.9z"/>
	<path class="st0" d="M17.8,39.5v1.2c0.8-0.6,1.4-0.9,1.8-1.1s0.9-0.3,1.3-0.3c0.6,0,1.2,0.2,1.8,0.7c0.4,0.3,0.6,0.6,0.6,0.9
		c0,0.3-0.1,0.5-0.3,0.7s-0.4,0.3-0.7,0.3c-0.2,0-0.5-0.1-0.7-0.3s-0.5-0.3-0.7-0.3c-0.3,0-0.6,0.2-1.2,0.5
		c-0.5,0.3-1.2,0.8-1.9,1.5v2.8h2.6c0.4,0,0.8,0.1,1,0.3s0.3,0.4,0.3,0.7c0,0.3-0.1,0.5-0.3,0.7s-0.5,0.3-1,0.3h-5.6
		c-0.4,0-0.8-0.1-1-0.3s-0.3-0.4-0.3-0.7c0-0.3,0.1-0.5,0.3-0.7s0.5-0.3,1-0.3H16v-4.5h-0.7c-0.4,0-0.8-0.1-1-0.3S14,40.7,14,40.4
		c0-0.3,0.1-0.5,0.3-0.7s0.5-0.3,1-0.3L17.8,39.5L17.8,39.5z"/>
	<path class="st0" d="M34.1,43.8c0,0.7-0.2,1.4-0.6,2.1c-0.4,0.7-1,1.2-1.8,1.6c-0.8,0.4-1.6,0.6-2.4,0.6c-0.8,0-1.6-0.2-2.4-0.6
		c-0.8-0.4-1.4-0.9-1.8-1.6c-0.4-0.7-0.6-1.4-0.6-2.1c0-0.7,0.2-1.5,0.6-2.2s1-1.3,1.8-1.7s1.6-0.6,2.4-0.6c0.8,0,1.7,0.2,2.4,0.6
		c0.8,0.4,1.4,1,1.8,1.7C33.9,42.3,34.1,43,34.1,43.8z M32.2,43.8c0-0.6-0.2-1.1-0.6-1.6c-0.6-0.7-1.4-1-2.3-1
		c-0.8,0-1.5,0.3-2.1,0.8s-0.8,1.2-0.8,1.9c0,0.6,0.3,1.1,0.8,1.6s1.3,0.8,2.1,0.8c0.8,0,1.5-0.3,2.1-0.8S32.2,44.4,32.2,43.8z"/>
	<path class="st0" d="M40.4,44.3l-1.3,3.4h-1.7l-1.6-6.3c-0.3,0-0.6-0.1-0.8-0.3c-0.2-0.2-0.3-0.4-0.3-0.6c0-0.3,0.1-0.5,0.3-0.7
		s0.5-0.3,1-0.3h1.7c0.4,0,0.8,0.1,1,0.3s0.3,0.4,0.3,0.7c0,0.3-0.1,0.5-0.3,0.7c-0.2,0.1-0.5,0.2-1,0.2l0.7,2.9l1.1-3h1.6l1.2,3
		l0.7-2.9c-0.5,0-0.8,0-0.9-0.1c-0.3-0.2-0.4-0.5-0.4-0.8c0-0.3,0.1-0.5,0.3-0.7s0.5-0.3,1-0.3h1.7c0.4,0,0.8,0.1,1,0.3
		s0.3,0.4,0.3,0.7c0,0.2-0.1,0.5-0.2,0.6c-0.2,0.2-0.4,0.3-0.7,0.3l-1.5,6.3h-1.7L40.4,44.3z"/>
	<path class="st0" d="M49.6,39.5v0.6c0.3-0.3,0.7-0.5,1.1-0.6c0.4-0.1,0.8-0.2,1.3-0.2c1.1,0,2,0.3,2.6,1c0.5,0.5,0.8,1.3,0.8,2.1
		v3.4c0.4,0,0.7,0.1,0.9,0.3s0.3,0.4,0.3,0.7c0,0.3-0.1,0.5-0.3,0.7s-0.5,0.3-1,0.3h-1.7c-0.4,0-0.8-0.1-1-0.3s-0.3-0.4-0.3-0.7
		c0-0.3,0.1-0.5,0.3-0.7s0.5-0.3,0.9-0.3v-3.5c0-0.4-0.1-0.7-0.3-0.9c-0.3-0.2-0.7-0.4-1.3-0.4c-0.4,0-0.8,0.1-1.1,0.2
		c-0.3,0.2-0.7,0.5-1.2,1.1v3.4c0.5,0,0.8,0,0.9,0.1c0.3,0.2,0.4,0.4,0.4,0.8c0,0.3-0.1,0.5-0.3,0.7s-0.5,0.3-1,0.3h-2.1
		c-0.4,0-0.8-0.1-1-0.3s-0.3-0.4-0.3-0.7c0-0.3,0.1-0.6,0.4-0.8c0.1-0.1,0.5-0.1,0.9-0.1v-4.5c-0.4,0-0.7-0.1-0.9-0.3
		c-0.2-0.2-0.3-0.4-0.3-0.7c0-0.3,0.1-0.5,0.3-0.7s0.5-0.3,1-0.3L49.6,39.5L49.6,39.5z"/>
	<path class="st0" d="M4.2,54.7v1.4c0.5-0.5,0.9-1,1.5-1.2c0.5-0.3,1.1-0.4,1.8-0.4c0.7,0,1.4,0.2,2.1,0.5s1.1,0.8,1.5,1.5
		s0.5,1.3,0.5,2c0,1.1-0.4,2-1.2,2.8s-1.7,1.2-2.9,1.2c-1.4,0-2.5-0.5-3.3-1.7v4.6h1.8c0.2,0,0.3,0,0.4,0.1c0.1,0.1,0.1,0.2,0.1,0.3
		c0,0.1,0,0.2-0.1,0.3S6.3,66,6.1,66H2.5c-0.2,0-0.3,0-0.4-0.1C2,65.8,2,65.7,2,65.6s0-0.2,0.1-0.3c0.1-0.1,0.2-0.1,0.4-0.1h1v-9.8
		h-1c-0.2,0-0.3,0-0.4-0.1C2,55.3,2,55.2,2,55.1c0-0.1,0-0.2,0.1-0.3c0.1-0.1,0.2-0.1,0.4-0.1L4.2,54.7L4.2,54.7z M10.8,58.4
		c0-0.9-0.3-1.6-1-2.2c-0.6-0.6-1.4-0.9-2.3-0.9c-0.9,0-1.7,0.3-2.3,0.9s-1,1.4-1,2.2c0,0.9,0.3,1.6,1,2.2s1.4,0.9,2.3,0.9
		c0.9,0,1.7-0.3,2.3-0.9C10.5,60,10.8,59.2,10.8,58.4z"/>
	<path class="st0" d="M20.4,62.5v-1.1c-1.1,0.9-2.3,1.4-3.5,1.4c-0.9,0-1.6-0.2-2.1-0.7c-0.5-0.5-0.8-1-0.8-1.7c0-0.7,0.3-1.4,1-1.9
		s1.7-0.8,3-0.8c0.3,0,0.7,0,1.1,0.1s0.9,0.1,1.3,0.2v-1.2c0-0.4-0.2-0.8-0.6-1.1s-1-0.5-1.7-0.5c-0.6,0-1.4,0.2-2.5,0.5
		c-0.2,0.1-0.3,0.1-0.4,0.1c-0.1,0-0.2,0-0.2-0.1c-0.1-0.1-0.1-0.2-0.1-0.3c0-0.1,0-0.2,0.1-0.2c0.1-0.1,0.4-0.2,1-0.4
		c0.9-0.3,1.6-0.4,2.1-0.4c1,0,1.7,0.2,2.2,0.7s0.8,1,0.8,1.6v5h1c0.2,0,0.3,0,0.4,0.1s0.1,0.2,0.1,0.3c0,0.1,0,0.2-0.1,0.3
		s-0.2,0.1-0.4,0.1L20.4,62.5L20.4,62.5z M20.4,58.7c-0.4-0.1-0.7-0.2-1.1-0.2c-0.4,0-0.8-0.1-1.3-0.1c-1.1,0-2,0.2-2.6,0.7
		c-0.5,0.4-0.7,0.8-0.7,1.3c0,0.5,0.2,0.8,0.5,1.2c0.4,0.3,0.9,0.5,1.6,0.5c0.7,0,1.3-0.1,1.8-0.4s1.1-0.7,1.7-1.3L20.4,58.7
		L20.4,58.7z"/>
	<path class="st0" d="M26.4,54.7v1.4c0.5-0.5,0.9-1,1.5-1.2c0.5-0.3,1.1-0.4,1.8-0.4c0.7,0,1.4,0.2,2.1,0.5c0.6,0.3,1.1,0.8,1.5,1.5
		s0.5,1.3,0.5,2c0,1.1-0.4,2-1.2,2.8s-1.7,1.2-2.9,1.2c-1.4,0-2.5-0.5-3.3-1.7v4.6h1.8c0.2,0,0.3,0,0.4,0.1c0.1,0.1,0.1,0.2,0.1,0.3
		c0,0.1,0,0.2-0.1,0.3S28.4,66,28.3,66h-3.6c-0.2,0-0.3,0-0.4-0.1c-0.1-0.1-0.1-0.2-0.1-0.3s0-0.2,0.1-0.3c0.1-0.1,0.2-0.1,0.4-0.1
		h1v-9.8h-1c-0.2,0-0.3,0-0.4-0.1s-0.1-0.2-0.1-0.3c0-0.1,0-0.2,0.1-0.3s0.2-0.1,0.4-0.1L26.4,54.7L26.4,54.7z M33,58.4
		c0-0.9-0.3-1.6-1-2.2c-0.6-0.6-1.4-0.9-2.3-0.9c-0.9,0-1.7,0.3-2.3,0.9c-0.6,0.6-1,1.4-1,2.2c0,0.9,0.3,1.6,1,2.2
		c0.6,0.6,1.4,0.9,2.3,0.9c0.9,0,1.7-0.3,2.3-0.9C32.7,60,33,59.2,33,58.4z"/>
	<path class="st0" d="M44.5,58.8h-7.7c0.1,1,0.5,1.8,1.2,2.4s1.5,0.9,2.6,0.9c0.6,0,1.2-0.1,1.8-0.3c0.6-0.2,1.1-0.4,1.5-0.7
		c0.1-0.1,0.2-0.1,0.3-0.1c0.1,0,0.2,0,0.3,0.1c0.1,0.1,0.1,0.2,0.1,0.3c0,0.1,0,0.2-0.1,0.3c-0.3,0.3-0.8,0.6-1.5,0.8
		c-0.7,0.3-1.5,0.4-2.3,0.4c-1.3,0-2.4-0.4-3.3-1.3S36,59.6,36,58.4c0-1.1,0.4-2,1.2-2.8c0.8-0.8,1.8-1.2,3-1.2
		c1.2,0,2.3,0.4,3.1,1.2S44.5,57.5,44.5,58.8z M43.7,58c-0.2-0.8-0.5-1.5-1.2-2s-1.4-0.8-2.3-0.8c-0.9,0-1.6,0.3-2.3,0.8
		c-0.6,0.5-1,1.2-1.2,2H43.7z"/>
	<path class="st0" d="M50.5,54.7v1.9c1-0.9,1.7-1.5,2.2-1.7c0.5-0.3,0.9-0.4,1.4-0.4c0.5,0,0.9,0.2,1.3,0.5c0.4,0.3,0.6,0.5,0.6,0.7
		c0,0.1,0,0.2-0.1,0.3S55.7,56,55.6,56c-0.1,0-0.1,0-0.2,0c0,0-0.1-0.1-0.2-0.2c-0.2-0.2-0.4-0.4-0.5-0.4c-0.2-0.1-0.3-0.1-0.5-0.1
		c-0.3,0-0.7,0.1-1.2,0.4c-0.5,0.3-1.3,0.9-2.4,1.9v4.2h3.4c0.2,0,0.3,0,0.4,0.1s0.1,0.2,0.1,0.3c0,0.1,0,0.2-0.1,0.3
		s-0.2,0.1-0.4,0.1H48c-0.2,0-0.3,0-0.4-0.1s-0.1-0.2-0.1-0.3c0-0.1,0-0.2,0.1-0.3s0.2-0.1,0.4-0.1h1.8v-6.3h-1.4
		c-0.2,0-0.3,0-0.4-0.1s-0.1-0.2-0.1-0.3c0-0.1,0-0.2,0.1-0.3s0.2-0.1,0.4-0.1L50.5,54.7L50.5,54.7z"/>
	<path class="st0" d="M70.8,51.2v5c0.9-1.2,2-1.8,3.3-1.8c1.1,0,2.1,0.4,2.8,1.2c0.8,0.8,1.2,1.8,1.2,3c0,1.2-0.4,2.2-1.2,3
		s-1.7,1.2-2.8,1.2c-1.3,0-2.4-0.6-3.3-1.8v1.5H69c-0.2,0-0.3,0-0.4-0.1s-0.1-0.2-0.1-0.3c0-0.1,0-0.2,0.1-0.3
		c0.1-0.1,0.2-0.1,0.4-0.1h1v-9.8h-1c-0.2,0-0.3,0-0.4-0.1s-0.1-0.2-0.1-0.3c0-0.1,0-0.2,0.1-0.3s0.2-0.1,0.4-0.1L70.8,51.2
		L70.8,51.2z M77.3,58.6c0-1-0.3-1.8-1-2.4c-0.7-0.7-1.4-1-2.3-1c-0.9,0-1.6,0.3-2.3,1c-0.7,0.7-1,1.5-1,2.4s0.3,1.8,1,2.4
		c0.7,0.7,1.4,1,2.3,1c0.9,0,1.6-0.3,2.3-1C77,60.4,77.3,59.6,77.3,58.6z"/>
	<path class="st0" d="M86.9,62.5v-1.1c-1.1,0.9-2.3,1.4-3.5,1.4c-0.9,0-1.6-0.2-2.1-0.7c-0.5-0.5-0.8-1-0.8-1.7c0-0.7,0.3-1.4,1-1.9
		s1.7-0.8,2.9-0.8c0.3,0,0.7,0,1.1,0.1s0.9,0.1,1.3,0.2v-1.2c0-0.4-0.2-0.8-0.6-1.1s-1-0.5-1.7-0.5c-0.6,0-1.4,0.2-2.5,0.5
		c-0.2,0.1-0.3,0.1-0.4,0.1c-0.1,0-0.2,0-0.2-0.1s-0.1-0.2-0.1-0.3c0-0.1,0-0.2,0.1-0.2c0.1-0.1,0.4-0.2,1-0.4
		c0.9-0.3,1.6-0.4,2.1-0.4c1,0,1.7,0.2,2.2,0.7c0.5,0.5,0.8,1,0.8,1.6v5h1c0.2,0,0.3,0,0.4,0.1s0.1,0.2,0.1,0.3c0,0.1,0,0.2-0.1,0.3
		s-0.2,0.1-0.4,0.1L86.9,62.5L86.9,62.5z M86.9,58.7c-0.4-0.1-0.7-0.2-1.1-0.2c-0.4,0-0.8-0.1-1.3-0.1c-1.1,0-2,0.2-2.6,0.7
		c-0.5,0.4-0.7,0.8-0.7,1.3c0,0.5,0.2,0.8,0.5,1.2c0.4,0.3,0.9,0.5,1.6,0.5c0.7,0,1.3-0.1,1.8-0.4s1.1-0.7,1.7-1.3L86.9,58.7
		L86.9,58.7z"/>
	<path class="st0" d="M98.4,56.1v-1.4h1.8c0.2,0,0.3,0,0.4,0.1s0.1,0.2,0.1,0.3c0,0.1,0,0.2-0.1,0.3s-0.2,0.1-0.4,0.1h-1V63
		c0,0.5-0.1,1-0.3,1.4c-0.1,0.3-0.4,0.5-0.7,0.8s-0.6,0.5-0.9,0.6C96.9,65.9,96.5,66,96,66h-2.1c-0.2,0-0.3,0-0.4-0.1
		c-0.1-0.1-0.1-0.2-0.1-0.3s0-0.2,0.1-0.3c0.1-0.1,0.2-0.1,0.4-0.1l2.2,0c0.4,0,0.8-0.1,1.2-0.3s0.7-0.6,0.9-1
		c0.1-0.3,0.2-0.6,0.2-1v-2.3c-0.8,1.1-1.9,1.7-3.1,1.7c-1,0-1.9-0.4-2.7-1.2s-1.1-1.7-1.1-2.8c0-1.1,0.4-2,1.1-2.8s1.7-1.2,2.7-1.2
		C96.5,54.4,97.5,55,98.4,56.1z M98.4,58.4c0-0.9-0.3-1.6-0.9-2.3c-0.6-0.6-1.3-0.9-2.2-0.9c-0.8,0-1.6,0.3-2.2,0.9
		c-0.6,0.6-0.9,1.4-0.9,2.3c0,0.9,0.3,1.6,0.9,2.3c0.6,0.6,1.3,0.9,2.2,0.9c0.8,0,1.6-0.3,2.2-0.9C98,60,98.4,59.3,98.4,58.4z"/>
</g>
</svg>
