<?xml version="1.0" encoding="utf-8"?>
<!-- Generator: Adobe Illustrator 23.0.0, SVG Export Plug-In . SVG Version: 6.00 Build 0)  -->
<svg version="1.1" id="Layer_1" xmlns="http://www.w3.org/2000/svg" xmlns:xlink="http://www.w3.org/1999/xlink" x="0px" y="0px"
	 viewBox="0 0 102 102" style="enable-background:new 0 0 102 102;" xml:space="preserve">
<style type="text/css">
	.st0{fill:#FFFFFF;}
	.st1{fill:none;stroke:#010101;stroke-width:3.270000e-02;}
	.st2{clip-path:url(#SVGID_2_);fill:url(#SVGID_3_);}
	.st3{clip-path:url(#SVGID_5_);fill:url(#SVGID_6_);}
	.st4{clip-path:url(#SVGID_8_);fill:url(#SVGID_9_);}
	.st5{clip-path:url(#SVGID_11_);fill:url(#SVGID_12_);}
	.st6{clip-path:url(#SVGID_14_);fill:url(#SVGID_15_);}
	.st7{clip-path:url(#SVGID_17_);fill:url(#SVGID_18_);}
	.st8{clip-path:url(#SVGID_20_);fill:url(#SVGID_21_);}
</style>
<g>
	<g>
		<path class="st0" d="M6.9,88.5c-3.2,0-5.9-2.4-5.9-5.8c0-3.4,2.7-5.8,5.7-5.8c2.5,0,3.9,1,4.9,2.4l-2.3,1.6
			c-0.4-0.7-1.1-1.3-2.6-1.3c-1.7,0-2.7,1.4-2.7,3.2c0,1.8,1.1,3.2,2.8,3.2c1.5,0,2.2-0.7,2.7-1.6l2.3,1.5
			C10.8,87.7,9.2,88.5,6.9,88.5z"/>
		<path class="st0" d="M23,87h-4l-0.6,1.4h-3L21,76.8c0-0.1,0.1-0.1,0.2,0l5.5,11.5h-3.1L23,87z M19.9,84.8H22l-1-2.4L19.9,84.8z"/>
		<path class="st0" d="M39.6,76.9h0.2l3.9,6.1c0.3,0.5,0.7,1.2,0.7,1.2s0.4-0.7,0.7-1.2l3.9-6.1h0.2l1.1,11.5h-1.8L48,82.8
			c0-0.7-0.1-1.8-0.1-1.8s-0.5,1-0.9,1.6l-2.6,4.1h-0.2l-2.5-4.1c-0.4-0.6-0.9-1.6-0.9-1.6s0,1.1-0.1,1.8l-0.6,5.6h-1.7L39.6,76.9z"
			/>
		<path class="st0" d="M56.1,77h7.2v1.6h-5.4V83h4.8v1.5h-4.8v2.3h5.7v1.6h-7.4V77z"/>
		<path class="st0" d="M69.2,77h3.1c3.6,0,6.1,2.3,6.1,5.7c0,3.4-2.4,5.7-6.1,5.7h-3.1V77z M72.2,86.8c3,0,4.3-1.7,4.3-4.1
			s-1.4-4.1-4.3-4.1H71v8.2C71,86.8,72.2,86.8,72.2,86.8z"/>
		<path class="st0" d="M84,77h1.8v11.3H84V77z"/>
		<path class="st0" d="M95.8,76.9H96l5,11.5h-1.8l-0.6-1.6h-5.2l-0.7,1.6H91L95.8,76.9z M97.9,85.3l-1.4-3.5
			c-0.3-0.7-0.6-1.7-0.6-1.7s-0.3,1-0.6,1.7l-1.4,3.5H97.9z"/>
	</g>
	<g>
		<path class="st1" d="M44.6,26.3"/>
		<g>
			<g>
				<defs>
					<polygon id="SVGID_1_" points="38.9,33.2 37.4,33.8 33.1,29.5 39.2,25.9 39.1,27.1 38.9,29.5 38.9,31.2 38.9,32.5 					"/>
				</defs>
				<clipPath id="SVGID_2_">
					<use xlink:href="#SVGID_1_"  style="overflow:visible;"/>
				</clipPath>
				
					<linearGradient id="SVGID_3_" gradientUnits="userSpaceOnUse" x1="-611.3994" y1="-320.8652" x2="-611.1581" y2="-320.8652" gradientTransform="matrix(28.6891 66.3205 -66.3205 28.6891 -3704.343 49765.9766)">
					<stop  offset="0" style="stop-color:#E2E3E4"/>
					<stop  offset="0.3146" style="stop-color:#8F8C8D"/>
					<stop  offset="0.6292" style="stop-color:#595555"/>
					<stop  offset="0.8674" style="stop-color:#3D3B3B"/>
					<stop  offset="1" style="stop-color:#333232"/>
				</linearGradient>
				<polygon class="st2" points="50.1,17.1 57.7,29.9 33.1,37.7 25.6,24.9 				"/>
			</g>
		</g>
		<g>
			<g>
				<defs>
					<path id="SVGID_4_" d="M37.4,33.8l-4.3-4.3L32.3,31l-0.7,2.8l-0.4,3.3l0,2.7c0,0,0,2,0,2.1s0.4,1.5,0.4,1.5l0.8,2.2l5.5-2.7
						C38,43.1,35.6,38.6,37.4,33.8z"/>
				</defs>
				<clipPath id="SVGID_5_">
					<use xlink:href="#SVGID_4_"  style="overflow:visible;"/>
				</clipPath>
				
					<linearGradient id="SVGID_6_" gradientUnits="userSpaceOnUse" x1="-612.1437" y1="-320.042" x2="-611.9335" y2="-319.772" gradientTransform="matrix(61.9089 91.4562 -91.4562 61.9089 8674.5596 75804.4688)">
					<stop  offset="0.2025" style="stop-color:#E2E3E4"/>
					<stop  offset="0.638" style="stop-color:#E2E3E4"/>
					<stop  offset="0.7071" style="stop-color:#B0AEAF"/>
					<stop  offset="0.858" style="stop-color:#555152"/>
					<stop  offset="0.9202" style="stop-color:#373536"/>
					<stop  offset="1" style="stop-color:#373536"/>
				</linearGradient>
				<polygon class="st3" points="39.3,19.9 54,41.6 35.4,54.2 20.7,32.5 				"/>
			</g>
		</g>
		<g>
			<g>
				<defs>
					<path id="SVGID_7_" d="M39.3,49c0,0,1.6,6.1,9.3,9.7l4.2,5.4l-0.8,0.2l-2.1-0.5l-5.8-2.4l-4.4-2.8l-3.4-3.6L35,52.7l-0.4-1.2
						L39.3,49z"/>
				</defs>
				<clipPath id="SVGID_8_">
					<use xlink:href="#SVGID_7_"  style="overflow:visible;"/>
				</clipPath>
				
					<linearGradient id="SVGID_9_" gradientUnits="userSpaceOnUse" x1="-613.2641" y1="-319.6987" x2="-612.9506" y2="-319.7929" gradientTransform="matrix(45.0606 115.6966 -115.6966 45.0605 -9315.7471 85377.2656)">
					<stop  offset="0" style="stop-color:#E2E3E4"/>
					<stop  offset="0.6851" style="stop-color:#5C5859"/>
					<stop  offset="1" style="stop-color:#373536"/>
				</linearGradient>
				<polygon class="st4" points="69.2,-6.1 93.1,55.2 34,78.2 10.2,16.9 				"/>
			</g>
		</g>
		<g>
			<g>
				<defs>
					<path id="SVGID_10_" d="M60.2,61.7l12.4-4.1l-0.1,0c-0.2,0-0.3,0.1-0.5,0.1c0,0,0,0-0.1,0c-0.2,0.1-0.5,0.1-0.7,0.2
						c0,0-0.1,0-0.1,0c-0.2,0-0.5,0.1-0.8,0.1c0,0-0.1,0-0.1,0c-0.2,0-0.4,0.1-0.6,0.1c-0.1,0-0.1,0-0.2,0c-0.1,0-0.1,0-0.2,0
						c-0.1,0-0.1,0-0.2,0c-0.1,0-0.2,0-0.3,0h-0.2c-0.1,0-0.2,0-0.3,0c-0.1,0-0.1,0-0.2,0c-0.1,0-0.2,0-0.3,0c-0.1,0-0.1,0-0.2,0
						c-0.1,0-0.2,0-0.3,0c-0.1,0-0.1,0-0.2,0c-0.1,0-0.2,0-0.3,0c-0.1,0-0.1,0-0.2,0c-0.1,0-0.2,0-0.3,0c-0.1,0-0.1,0-0.2,0
						c-0.2,0-0.3,0-0.5-0.1c-0.5-0.1-1-0.2-1.5-0.3c-1.5-0.4-3-1-4.4-1.7c-0.7-0.4-1.4-0.8-2.1-1.3c-0.3-0.2-0.7-0.4-1-0.7
						c-0.8-0.6-1.6-1.3-2.4-2c-1.7-1.6-3.3-3.4-4.6-5.5c-0.4-0.6-0.8-1.2-1.1-1.8c0-0.1-0.1-0.1-0.1-0.2c-0.3-0.6-0.7-1.2-1-1.9
						c-0.1-0.2-0.1-0.3-0.2-0.5c-0.3-0.7-0.7-1.5-1-2.2c-0.7-1.7-1.4-4-1.8-6.7c0,0-0.1-0.7-0.1-1c0-0.3-0.1-0.7-0.1-1
						c0-0.3,0-0.7-0.1-1c0-0.3,0-0.7,0-1c0-0.2,0-0.5,0-0.6c0,0,0,0,0-0.4v0c0-0.1,0-0.1,0-0.2l0.1-1.5c0.1-0.8,0.3-3.3,1.9-7.1
						c1-2.4,2.6-4,3.6-4.9c-4.8,3.1-15.6,10.1-17.5,11.3c-2.3,1.5-3.5,3.5-3.5,3.5c-4.3,6.9-4.8,13.8-1.6,21.7
						c3.2,7.9,10,13,14.9,14.1c4.9,1.1,8,0.1,8,0.1l2.6-0.9C37.6,60.5,35,51.7,35,51.7l7.8-3.9C49.9,59.8,60.2,61.7,60.2,61.7z
						 M32.8,45.3c-3.1-8.2,0.6-15.5,0.6-15.5l5.6-3.4c-1.1,11.1,1.6,14.9,1.6,14.9L32.8,45.3z"/>
				</defs>
				<clipPath id="SVGID_11_">
					<use xlink:href="#SVGID_10_"  style="overflow:visible;"/>
				</clipPath>
				
					<linearGradient id="SVGID_12_" gradientUnits="userSpaceOnUse" x1="-613.2206" y1="-319.75" x2="-612.9556" y2="-319.75" gradientTransform="matrix(45.0606 115.6966 -115.6966 45.0605 -9315.7471 85377.2656)">
					<stop  offset="0" style="stop-color:#E2E3E4"/>
					<stop  offset="0.1802" style="stop-color:#B9B7B7"/>
					<stop  offset="0.5713" style="stop-color:#686364"/>
					<stop  offset="1" style="stop-color:#231F20"/>
				</linearGradient>
				<polygon class="st5" points="70.1,-4.2 94,57.1 34.9,80.1 11,18.8 				"/>
			</g>
		</g>
		<g>
			<g>
				<defs>
					<path id="SVGID_13_" d="M65.4,49.9c0.9,0.2,1.8,0.2,2.7,0.2c0.9-0.1,1.7-0.2,2.5-0.5c0.1,0,0.3-0.1,0.4-0.2
						c0.1,0,0.2-0.1,0.3-0.1c0.1,0,0.2-0.1,0.3-0.1c0.1,0,0.2-0.1,0.2-0.1c0.1-0.1,0.2-0.1,0.3-0.2c0.1,0,0.1-0.1,0.2-0.1
						c0.1-0.1,0.2-0.1,0.3-0.2c0.1,0,0.1-0.1,0.2-0.1c0.1-0.1,0.2-0.1,0.3-0.2c0.1,0,0.1-0.1,0.2-0.1c0.1-0.1,0.2-0.2,0.3-0.3
						c0,0,0.1-0.1,0.1-0.1c0.1-0.1,0.2-0.2,0.3-0.3c0,0,0.1-0.1,0.1-0.1c0.1-0.1,0.3-0.3,0.4-0.4l0.6-0.8L65.4,49.9z"/>
				</defs>
				<clipPath id="SVGID_14_">
					<use xlink:href="#SVGID_13_"  style="overflow:visible;"/>
				</clipPath>
				
					<linearGradient id="SVGID_15_" gradientUnits="userSpaceOnUse" x1="-615.874" y1="-309.5498" x2="-615.6085" y2="-309.5498" gradientTransform="matrix(-4.6712 -26.6261 26.6261 -4.6712 5436.52 -17790.377)">
					<stop  offset="0" style="stop-color:#E2E3E4"/>
					<stop  offset="1" style="stop-color:#302E2F"/>
				</linearGradient>
				<polygon class="st6" points="65.7,51.8 64.8,46.2 74.8,44.4 75.8,50 				"/>
			</g>
		</g>
		<g>
			<g>
				<defs>
					<path id="SVGID_16_" d="M60.7,18.7c-0.1,0-0.1,0-0.2,0c-0.2,0-0.4,0-0.6,0c0,0-0.1,0-0.1,0c-0.2,0-0.3,0-0.5,0.1
						c-0.1,0-0.1,0-0.2,0c-0.2,0-0.3,0.1-0.5,0.1c0,0-0.1,0-0.1,0c-0.2,0-0.4,0.1-0.6,0.2c0,0-0.1,0-0.1,0c-0.1,0.1-0.3,0.1-0.4,0.2
						c-0.1,0-0.1,0-0.2,0.1c-0.1,0.1-0.3,0.1-0.4,0.2c0,0-0.1,0-0.1,0c-0.2,0.1-0.4,0.2-0.6,0.3c-0.7,0.5-1.2,0.8-1.8,1.5l-9.2,5.2
						l4.2,1.1c0.3-0.1,0.6,0.1,0.5,0.4c0,0.3,1.4,0.2,1.4,0.6c0,0.3-0.1,0.6-0.1,1c0,0.2,0,0.3,0,0.5c0.4,0.2,0.8,0.5,1.2,0.8
						c0.7,0.5,1.4,1.1,2,1.8c0.6,0.7,1.2,1.4,1.8,2.1l0.7,0.9L74,27.2l-0.7-1c-0.6-0.8-1.2-1.6-1.9-2.4c-0.7-0.7-1.4-1.4-2.2-2
						c-0.8-0.6-1.6-1.1-2.4-1.6c-0.8-0.5-1.7-0.8-2.6-1.1c-0.2-0.1-0.4-0.1-0.7-0.2c-0.1,0-0.1,0-0.2,0c-0.2,0-0.3-0.1-0.5-0.1
						c-0.1,0-0.1,0-0.2,0c-0.2,0-0.4-0.1-0.6-0.1c0,0,0,0-0.1,0c-0.2,0-0.4,0-0.5,0c-0.1,0-0.1,0-0.2,0C61,18.7,60.8,18.7,60.7,18.7
						"/>
				</defs>
				<clipPath id="SVGID_17_">
					<use xlink:href="#SVGID_16_"  style="overflow:visible;"/>
				</clipPath>
				
					<linearGradient id="SVGID_18_" gradientUnits="userSpaceOnUse" x1="-615.9409" y1="-316.0246" x2="-615.676" y2="-316.0246" gradientTransform="matrix(-62.0796 -84.0666 84.0666 -62.0797 -11595.4268 -71350.7813)">
					<stop  offset="0" style="stop-color:#FFFFFF"/>
					<stop  offset="0.3821" style="stop-color:#9B9798"/>
					<stop  offset="0.804" style="stop-color:#565353"/>
					<stop  offset="1" style="stop-color:#3F3F40"/>
				</linearGradient>
				<polygon class="st7" points="55.4,49.7 37,24.8 63.8,5 82.2,29.9 				"/>
			</g>
		</g>
		<g>
			<g>
				<defs>
					<path id="SVGID_19_" d="M44.3,26.5l-0.1,1.5c0,0.1,0,0.1,0,0.2v0c0,0.3,0,0.4,0,0.4c0,0.2,0,0.5,0,0.6c0,0.3,0,0.7,0,1
						c0,0.3,0,0.7,0.1,1c0,0.3,0.1,0.7,0.1,1c0,0.3,0.1,1,0.1,1c0.4,2.7,1.1,5,1.8,6.7c0.3,0.8,0.6,1.5,1,2.2
						c0.1,0.2,0.1,0.3,0.2,0.5c0.3,0.6,0.6,1.3,1,1.9c0,0.1,0.1,0.1,0.1,0.2c0.4,0.6,0.7,1.2,1.1,1.8c1.4,2,2.9,3.9,4.6,5.5
						c0.8,0.7,1.6,1.4,2.4,2c0.3,0.2,0.6,0.5,1,0.7c0.7,0.5,1.4,0.9,2.1,1.3c1.4,0.8,2.9,1.4,4.4,1.7c0.5,0.1,1,0.2,1.5,0.3
						c0.2,0,0.3,0.1,0.5,0.1c0.1,0,0.1,0,0.2,0c0.1,0,0.2,0,0.3,0c0.1,0,0.1,0,0.2,0c0.1,0,0.2,0,0.3,0c0.1,0,0.1,0,0.2,0
						c0.1,0,0.2,0,0.3,0c0.1,0,0.1,0,0.2,0c0.1,0,0.2,0,0.3,0c0.1,0,0.1,0,0.2,0c0.1,0,0.2,0,0.3,0h0.2c0.1,0,0.2,0,0.3,0
						c0.1,0,0.1,0,0.2,0c0.1,0,0.1,0,0.2,0c0.1,0,0.1,0,0.2,0c0.2,0,0.4,0,0.6-0.1c0,0,0.1,0,0.1,0c0.3,0,0.5-0.1,0.8-0.1
						c0,0,0.1,0,0.1,0c0.3-0.1,0.5-0.1,0.7-0.2c0,0,0,0,0.1,0c0.3-0.1,0.5-0.1,0.7-0.2l0,0h0c0.1-0.1,0.3-0.1,0.4-0.2
						c1.1-0.4,2.1-1,3.1-1.7c0.9-0.7,1.8-1.5,2.5-2.4l0.5-0.7l-4.4-6.5l-0.6,0.8c-0.1,0.2-0.3,0.3-0.4,0.4c0,0.1-0.1,0.1-0.1,0.1
						c-0.1,0.1-0.2,0.2-0.3,0.3c0,0-0.1,0.1-0.1,0.1c-0.1,0.1-0.2,0.2-0.3,0.3c-0.1,0-0.1,0.1-0.2,0.1c-0.1,0.1-0.2,0.2-0.3,0.2
						c0,0,0,0,0,0c-0.1,0-0.1,0.1-0.2,0.1c-0.1,0.1-0.2,0.1-0.3,0.2c0,0,0,0,0,0c-0.1,0.1-0.1,0.1-0.2,0.1c-0.1,0.1-0.2,0.1-0.3,0.2
						c-0.1,0-0.2,0.1-0.2,0.1c-0.1,0.1-0.2,0.1-0.3,0.1c-0.1,0-0.2,0.1-0.3,0.1c-0.1,0.1-0.3,0.1-0.4,0.2c-0.8,0.3-1.6,0.5-2.5,0.5
						c-0.9,0.1-1.8,0-2.7-0.2c0,0,0,0,0,0c-1-0.2-2.1-0.6-3.1-1c-1-0.5-2-1.1-2.9-1.8c-0.9-0.7-1.8-1.5-2.6-2.5
						c-0.4-0.4-0.8-0.9-1.1-1.4l0,0c-0.1-0.1-0.1-0.2-0.2-0.3c0,0,0,0,0,0c-0.3-0.4-0.5-0.7-0.8-1.1c0,0,0,0,0,0
						c-1.6-2.7-2.7-5.8-3-7.4c0-0.2-0.1-0.4-0.1-0.5c-0.1-0.3-0.1-0.7-0.2-1c0-0.3-0.1-0.7-0.1-1c0-0.3,0-0.7,0-1c0-0.2,0-0.3,0-0.5
						c0-0.2,0-0.3,0-0.5c0-0.3,0-0.7,0.1-1c0-0.2,0-0.3,0-0.5c0,0,0.5-4.6,3.1-6.9c2.6-2.3,6.2-3.7,11-1.8c4.8,2,7.6,6.2,8.5,7.6
						l3.6-4.1c0,0-5.8-9.6-15.2-11.4c0,0-6.3-1.6-11.6,1.9c0,0-3.1,1.9-4.6,5.7C44.6,23.2,44.4,25.7,44.3,26.5"/>
				</defs>
				<clipPath id="SVGID_20_">
					<use xlink:href="#SVGID_19_"  style="overflow:visible;"/>
				</clipPath>
				
					<linearGradient id="SVGID_21_" gradientUnits="userSpaceOnUse" x1="43.005" y1="50.0518" x2="81.986" y2="50.0518" gradientTransform="matrix(1 0 0 -1 0 84.3865)">
					<stop  offset="0" style="stop-color:#FFFFFF"/>
					<stop  offset="0.1339" style="stop-color:#E6E6E6"/>
					<stop  offset="0.3596" style="stop-color:#CBCBCC"/>
					<stop  offset="0.5822" style="stop-color:#B8B9BB"/>
					<stop  offset="0.7982" style="stop-color:#ADAFB2"/>
					<stop  offset="1" style="stop-color:#AAABAF"/>
				</linearGradient>
				<polygon class="st8" points="79,21.4 73.7,14.3 58.7,9.2 49.1,11.5 44.4,17.6 43,36.6 49.2,50 57.5,58.1 65.7,59.5 79,58.9 
					82,53.3 75.8,44.1 				"/>
			</g>
		</g>
	</g>
</g>
</svg>
