<?xml version="1.0" encoding="utf-8"?>
<!-- Generator: Adobe Illustrator 23.0.0, SVG Export Plug-In . SVG Version: 6.00 Build 0)  -->
<svg version="1.1" id="Layer_1" xmlns="http://www.w3.org/2000/svg" xmlns:xlink="http://www.w3.org/1999/xlink" x="0px" y="0px"
	 viewBox="0 0 102 102" style="enable-background:new 0 0 102 102;" xml:space="preserve">
<style type="text/css">
	.st0{fill:#FFFFFF;}
</style>
<g>
	<g>
		<path class="st0" d="M13.7,61.9h-0.2c-1.5,0-3,0-4.6,0c-0.1,0-0.2,0-0.3-0.2c-0.4-0.7-0.8-1.5-1.2-2.2c0.2-0.1,0.4-0.2,0.7-0.4
			c0.2,0.4,0.4,0.8,0.6,1.2C8.9,60.5,9,60.7,9.1,61c0,0.1,0.1,0.1,0.2,0.1c1.2,0,2.4,0,3.6,0c0-0.1,0-0.1,0-0.2c0-1.8,0-3.5,0-5.3
			c0-0.1,0-0.2-0.2-0.3c-3.2-1.9-6.4-3.8-9.6-5.7c0,0-0.1,0-0.2-0.1c0.9,1.7,1.8,3.4,2.7,5.1C5.5,54.7,5.3,54.9,5,55
			c-1.3-2.5-2.7-5-4-7.5c0.1,0,0.1,0.1,0.2,0.1c4.1,2.4,8.2,4.9,12.4,7.3c0.1,0,0.2,0.2,0.2,0.2C13.7,57.3,13.7,59.5,13.7,61.9
			C13.7,61.8,13.7,61.8,13.7,61.9"/>
		<path class="st0" d="M23.2,54.8c-0.2-0.1-0.4-0.2-0.7-0.4c0.9-1.7,1.8-3.4,2.7-5l0,0c-0.3,0.2-0.5,0.3-0.8,0.5
			c-3,1.8-5.9,3.5-8.9,5.3c-0.1,0.1-0.2,0.1-0.2,0.3c0,1.8,0,3.6,0,5.4c0,0,0,0.1,0,0.1c0.1,0,0.1,0,0.2,0c1.1,0,2.3,0,3.4,0
			c0.1,0,0.2,0,0.3-0.2c0.3-0.6,0.7-1.2,1-1.9c0.2,0.1,0.5,0.2,0.7,0.4c-0.3,0.6-0.7,1.2-1,1.8c-0.2,0.5-0.5,0.6-1,0.6
			c-1.4,0-2.9,0-4.3,0v-0.2c0-2.1,0-4.3,0-6.4c0-0.1,0-0.2,0.2-0.3c4.1-2.4,8.2-4.9,12.4-7.3c0,0,0.1,0,0.2,0
			C25.9,49.8,24.5,52.3,23.2,54.8"/>
		<path class="st0" d="M9.5,50.3c0.4,0.3,0.8,0.5,1.3,0.8c1,0.6,2.1,1.3,3.1,1.9c0.1,0.1,0.2,0.1,0.3,0c1.5-0.9,2.9-1.7,4.4-2.6
			c0,0,0.1,0,0.1-0.1c-0.3-0.5-0.6-1-0.8-1.5c0.2-0.1,0.4-0.2,0.7-0.4c0.4,0.7,0.8,1.5,1.2,2.2c-0.4,0.2-0.8,0.5-1.2,0.7
			c-1.5,0.9-2.9,1.7-4.4,2.6c-0.1,0.1-0.2,0.1-0.3,0c-1.8-1.1-3.5-2.2-5.3-3.3c0,0-0.1-0.1-0.1-0.1c1.8-3.5,3.7-6.9,5.6-10.4
			c0.9,1.6,1.7,3.1,2.6,4.7c-0.2,0.1-0.4,0.2-0.7,0.4c-0.6-1.1-1.2-2.3-1.9-3.4C12.5,44.6,11,47.4,9.5,50.3"/>
	</g>
	<g>
		<path class="st0" d="M35.5,46.6v5.2h5.1V50l1.9,0.4v0.9c0,0.3,0,1.1-0.4,1.5c-0.4,0.4-1.1,0.4-1.6,0.4h-4.9c-0.5,0-1.2,0-1.6-0.4
			c-0.4-0.4-0.4-1.2-0.4-1.5V47c0-0.3,0-1.1,0.4-1.5c0.4-0.4,1.1-0.4,1.6-0.4h4.9c0.5,0,1.2,0,1.6,0.4c0.4,0.4,0.4,1.2,0.4,1.5v0.8
			l-1.9,0.3v-1.5H35.5z"/>
		<path class="st0" d="M49.7,45.1l4.7,8.2h-2.1l-1-1.8h-5.2l-0.9,1.8h-1.9l4.6-8.2C47.9,45.1,49.7,45.1,49.7,45.1z M50.5,50
			l-1.8-3.3L46.9,50H50.5z"/>
		<path class="st0" d="M62.5,49.9c0.3,0.2,0.2,0.1,0.9,0.9l-0.1-1.4v-4.3H65v8.2h-1.3l-6-5c0,0-0.4-0.3-0.7-0.7c0,0.2,0,0.4,0,0.7
			c0,0.1,0,0.1,0,0.2c0,0.2,0,0.3,0,0.4v4.4h-1.7v-8.2h1.3L62.5,49.9z"/>
		<path class="st0" d="M72.5,45.1l4.7,8.2h-2.1l-1-1.8h-5.2L68,53.2h-1.9l4.6-8.2C70.7,45.1,72.5,45.1,72.5,45.1z M73.3,50l-1.8-3.3
			L69.7,50H73.3z"/>
		<path class="st0" d="M83.5,45.1c1.1,0,2.5,0.1,3.5,1.1c0.8,0.7,1.1,1.7,1.1,2.9c0,2-1.1,3.1-1.8,3.5c-0.9,0.5-2,0.6-3.4,0.6h-4.8
			v-8.2H83.5z M83,51.8c1.2,0,2-0.3,2.5-0.7c0.7-0.6,0.7-1.4,0.7-1.9c0-2.3-1.6-2.5-2.7-2.5h-3.4v5.2H83z"/>
		<path class="st0" d="M94.9,45.1l4.7,8.2h-2.1l-1-1.8h-5.2l-0.9,1.8h-1.9l4.6-8.2C93.1,45.1,94.9,45.1,94.9,45.1z M95.7,50
			l-1.8-3.3L92.1,50H95.7z"/>
		<path class="st0" d="M33.3,58.5v2.2h2.2V60l0.8,0.2v0.4c0,0.1,0,0.5-0.2,0.7c-0.2,0.2-0.5,0.2-0.7,0.2h-2.1c-0.2,0-0.5,0-0.7-0.2
			c-0.2-0.2-0.2-0.5-0.2-0.7v-1.8c0-0.1,0-0.5,0.2-0.7c0.2-0.2,0.5-0.2,0.7-0.2h2.1c0.2,0,0.5,0,0.7,0.2c0.2,0.2,0.2,0.5,0.2,0.7
			v0.3l-0.8,0.1v-0.7L33.3,58.5L33.3,58.5z"/>
		<polygon class="st0" points="38.1,60.7 40.8,60.7 40.8,61.4 37.3,61.4 37.3,57.9 38.1,57.9 		"/>
		<path class="st0" d="M40.9,58.7c0-0.1,0-0.5,0.2-0.7c0.2-0.2,0.5-0.2,0.7-0.2h2.6c0.2,0,0.5,0,0.7,0.2c0.2,0.2,0.2,0.5,0.2,0.7
			v1.8c0,0.1,0,0.5-0.2,0.7c-0.2,0.2-0.5,0.2-0.7,0.2h-2.6c-0.2,0-0.5,0-0.7-0.2c-0.2-0.2-0.2-0.5-0.2-0.7V58.7z M44.4,58.5h-2.7
			v2.2h2.7V58.5z"/>
		<polygon class="st0" points="47.9,61.4 47.1,61.4 47.1,58.5 45.5,58.5 45.5,57.9 49.5,57.9 49.5,58.5 47.9,58.5 		"/>
		<polygon class="st0" points="50.6,57.9 50.6,59.2 53.2,59.2 53.2,57.9 54,57.9 54,61.4 53.2,61.4 53.2,59.9 50.6,59.9 50.6,61.4 
			49.8,61.4 49.8,57.9 		"/>
		<rect x="55.1" y="57.9" class="st0" width="0.8" height="3.5"/>
		<path class="st0" d="M60,59.9c0.1,0.1,0.1,0.1,0.4,0.4l0-0.6v-1.8h0.7v3.5h-0.6L58,59.2c0,0-0.2-0.2-0.3-0.3c0,0.1,0,0.2,0,0.3
			c0,0,0,0.1,0,0.1c0,0.1,0,0.1,0,0.2v1.9H57v-3.5h0.6L60,59.9z"/>
		<path class="st0" d="M62.9,58.5v2.2h2.5V60h-1.3v-0.6h2.1v1.2c0,0.1,0,0.5-0.2,0.7c-0.2,0.2-0.5,0.2-0.7,0.2H63
			c-0.2,0-0.5,0-0.7-0.2c-0.2-0.2-0.2-0.5-0.2-0.7v-1.8c0-0.1,0-0.5,0.2-0.7c0.2-0.2,0.5-0.2,0.7-0.2h2.4c0.2,0,0.5,0,0.7,0.2
			c0.2,0.2,0.2,0.4,0.2,0.6v0.1l-0.8,0.1v-0.4C65.5,58.5,62.9,58.5,62.9,58.5z"/>
		<path class="st0" d="M69,58.5v2.2h2.2V60l0.8,0.2v0.4c0,0.1,0,0.5-0.2,0.7c-0.2,0.2-0.5,0.2-0.7,0.2H69c-0.2,0-0.5,0-0.7-0.2
			c-0.2-0.2-0.2-0.5-0.2-0.7v-1.8c0-0.1,0-0.5,0.2-0.7c0.2-0.2,0.5-0.2,0.7-0.2h2.1c0.2,0,0.5,0,0.7,0.2c0.2,0.2,0.2,0.5,0.2,0.7
			v0.3l-0.8,0.1v-0.7L69,58.5L69,58.5z"/>
		<path class="st0" d="M72.9,58.7c0-0.1,0-0.5,0.2-0.7c0.2-0.2,0.5-0.2,0.7-0.2h2.6c0.2,0,0.5,0,0.7,0.2c0.2,0.2,0.2,0.5,0.2,0.7
			v1.8c0,0.1,0,0.5-0.2,0.7c-0.2,0.2-0.5,0.2-0.7,0.2h-2.6c-0.2,0-0.5,0-0.7-0.2c-0.2-0.2-0.2-0.5-0.2-0.7V58.7z M76.4,58.5h-2.7
			v2.2h2.7V58.5z"/>
		<path class="st0" d="M82.8,57.9v3.5h-0.7v-2.2c0-0.1,0-0.2,0-0.4c-0.1,0.2-0.2,0.3-0.2,0.4L80.6,61h-0.2l-1.3-1.8
			c-0.1-0.2-0.2-0.3-0.2-0.4l0,0.4v2.2h-0.7v-3.5h0.7l1.6,2.1l1.6-2.1H82.8z"/>
		<path class="st0" d="M86.9,57.9c0.2,0,0.4,0,0.6,0.1c0.2,0.1,0.2,0.4,0.2,0.5v0.8c0,0.1,0,0.4-0.2,0.5C87.3,60,86.9,60,86.8,60
			h-2.2v1.4h-0.8v-3.5L86.9,57.9L86.9,57.9z M84.7,58.5v0.9h1.8c0.1,0,0.2,0,0.3-0.1c0.1-0.1,0.1-0.2,0.1-0.2v-0.4
			c0-0.1,0-0.2-0.1-0.2c-0.1,0-0.1-0.1-0.3-0.1L84.7,58.5L84.7,58.5z"/>
		<path class="st0" d="M89.9,57.9l2,3.5H91l-0.4-0.8h-2.2l-0.4,0.8h-0.8l2-3.5H89.9z M90.2,60l-0.8-1.4L88.7,60H90.2z"/>
		<path class="st0" d="M95.3,59.9c0.1,0.1,0.1,0.1,0.4,0.4l0-0.6v-1.8h0.7v3.5h-0.6l-2.6-2.2c0,0-0.2-0.2-0.3-0.3c0,0.1,0,0.2,0,0.3
			c0,0,0,0.1,0,0.1c0,0.1,0,0.1,0,0.2v1.9h-0.7v-3.5h0.6L95.3,59.9z"/>
		<polygon class="st0" points="101,57.9 99.2,59.8 99.2,61.4 98.4,61.4 98.4,59.8 96.6,57.9 97.6,57.9 98.8,59.2 100,57.9 		"/>
	</g>
</g>
</svg>
