<?xml version="1.0" encoding="utf-8"?>
<!-- Generator: Adobe Illustrator 23.0.0, SVG Export Plug-In . SVG Version: 6.00 Build 0)  -->
<svg version="1.1" id="Layer_1" xmlns="http://www.w3.org/2000/svg" xmlns:xlink="http://www.w3.org/1999/xlink" x="0px" y="0px"
	 viewBox="0 0 102 102" style="enable-background:new 0 0 102 102;" xml:space="preserve">
<style type="text/css">
	.st0{fill:#FFFFFF;}
</style>
<g>
	<g>
		<path class="st0" d="M96,31.1l-0.6-4.4c-0.2-1.3,0.4-2.7,1.3-3.5c0.8-0.7,1.6-1.3,2.3-2.1c0.2-0.3,0.7-0.7,0.8-1.3
			c0,0,1.8,5.7,0.9,8.6c0,0-3.7,2-4.8,3.8c0.2-0.3,0.2-0.7,0.4-0.9c0.3-0.7,0.7-1.4,1.3-1.9c0.8-0.8,1.9-1.4,2.2-2.6
			c0.4-1.4,0.2-2.8-0.2-4.2c0,0-0.1-0.4-0.2-0.4c0,0-4.1,1.9-3.8,5.4L96,31.1z"/>
		<path class="st0" d="M95.1,29.4c-0.7-3.4-5.2-4-5.2-4c-0.1,0-0.1,0.4-0.1,0.4c0,1.4,0.3,2.8,1.1,4c0.6,1,1.9,1.2,2.9,1.8
			c0.7,0.4,1.3,0.9,1.8,1.5c0.2,0.2,0.4,0.6,0.6,0.8c-1.6-1.4-5.7-2.2-5.7-2.2c-1.7-2.5-1.7-8.5-1.7-8.5c0.2,0.5,0.8,0.8,1.1,1
			c1.1,0.6,2.5,0.8,3.5,1.6c0.6,0.4,1,1.1,1.3,1.7C94.9,28.2,95,28.8,95.1,29.4z"/>
	</g>
	<g>
		<path class="st0" d="M26.7,40.6l-2.1,1.6c-1.1-1.5-2.5-2.6-4.1-3.3c-1.6-0.8-3.4-1.1-5.3-1.1c-2.1,0-4,0.5-5.8,1.5s-3.2,2.3-4.2,4
			c-1,1.7-1.5,3.5-1.5,5.6c0,3.1,1.1,5.7,3.3,7.8c2.2,2.1,5,3.1,8.3,3.1c3.7,0,6.8-1.4,9.3-4.2l2.1,1.5c-1.3,1.6-3,2.9-4.9,3.8
			c-2,0.9-4.2,1.3-6.6,1.3c-4.6,0-8.2-1.5-10.9-4.5C2.1,55.1,1,52.1,1,48.5c0-3.8,1.4-6.9,4.1-9.5c2.7-2.6,6.1-3.8,10.2-3.8
			c2.5,0,4.7,0.5,6.7,1.4C23.9,37.6,25.5,38.9,26.7,40.6z"/>
		<path class="st0" d="M35.7,35.9h2.6v10.8h13.4V35.9h2.6v25.6h-2.6V49.1H38.3v12.4h-2.6V35.9z"/>
		<path class="st0" d="M75.2,35.9l12.3,25.6h-2.8l-4.1-8.4H69.1L65,61.5h-2.9l12.4-25.6H75.2z M74.8,41.3l-4.5,9.3h9L74.8,41.3z"/>
		<path class="st0" d="M94.8,35.9h2.6v25.6h-2.6V35.9z"/>
	</g>
	<g>
		<path class="st0" d="M6.4,81.7V65.3h3.5c2.5,0,4.3,0.2,5.4,0.6c1.6,0.6,2.9,1.5,3.8,2.9c0.9,1.4,1.4,3,1.4,4.9
			c0,1.6-0.4,3.1-1.1,4.3c-0.7,1.2-1.7,2.2-2.8,2.8c-1.2,0.6-2.8,0.9-4.9,0.9L6.4,81.7L6.4,81.7z M8,80.1h1.9c2.3,0,3.9-0.1,4.8-0.4
			c1.3-0.4,2.2-1.1,3-2.2c0.7-1,1.1-2.3,1.1-3.8c0-1.6-0.4-2.9-1.2-4c-0.8-1.1-1.9-1.9-3.3-2.3c-1-0.3-2.8-0.5-5.2-0.5H8V80.1z"/>
		<path class="st0" d="M25.8,65.3h1.7v16.4h-1.7V65.3z"/>
		<path class="st0" d="M40.5,65.3l7.8,16.4h-1.8l-2.6-5.4h-7.2L34,81.7h-1.9l7.9-16.4H40.5z M40.3,68.8l-2.9,5.9h5.7L40.3,68.8z"/>
		<path class="st0" d="M53.3,65.3h3.3c1.9,0,3.1,0.1,3.8,0.2c1,0.2,1.8,0.7,2.4,1.4s0.9,1.6,0.9,2.7c0,0.9-0.2,1.7-0.6,2.3
			c-0.4,0.7-1,1.2-1.8,1.5c-0.8,0.3-1.9,0.5-3.3,0.5l6,7.6h-2.1l-6-7.6H55v7.6h-1.7C53.3,81.7,53.3,65.3,53.3,65.3z M55,66.9v5.6
			l2.9,0c1.1,0,1.9-0.1,2.5-0.3c0.5-0.2,1-0.5,1.3-1c0.3-0.5,0.4-1,0.4-1.5c0-0.5-0.2-1-0.5-1.5s-0.7-0.8-1.2-1
			c-0.5-0.2-1.3-0.3-2.5-0.3H55z"/>
		<path class="st0" d="M69.4,65.3h1.7v16.4h-1.7V65.3z"/>
		<path class="st0" d="M77.3,65.3h9.6v1.6H79V72h7.9v1.6H79v6.4h7.9v1.6h-9.5L77.3,65.3L77.3,65.3z"/>
		<path class="st0" d="M90.4,78.6l1.4-0.8c1,1.8,2.2,2.7,3.5,2.7c0.6,0,1.1-0.1,1.6-0.4c0.5-0.3,0.9-0.6,1.1-1s0.4-0.9,0.4-1.4
			c0-0.5-0.2-1.1-0.6-1.6c-0.5-0.7-1.5-1.6-2.9-2.6c-1.4-1-2.3-1.8-2.6-2.2c-0.6-0.8-0.9-1.6-0.9-2.5c0-0.7,0.2-1.4,0.5-1.9
			c0.3-0.6,0.8-1,1.5-1.4c0.6-0.3,1.3-0.5,2.1-0.5c0.8,0,1.5,0.2,2.2,0.6c0.7,0.4,1.4,1.1,2.2,2.1l-1.4,1c-0.6-0.8-1.2-1.4-1.6-1.6
			c-0.4-0.3-0.9-0.4-1.4-0.4c-0.7,0-1.2,0.2-1.7,0.6c-0.4,0.4-0.6,0.9-0.6,1.5c0,0.4,0.1,0.7,0.2,1c0.2,0.3,0.4,0.7,0.8,1.1
			c0.2,0.2,0.9,0.8,2.2,1.6c1.4,1,2.4,2,3,2.8c0.5,0.8,0.8,1.6,0.8,2.5c0,1.2-0.5,2.2-1.4,3.1c-0.9,0.9-2,1.3-3.4,1.3
			c-1,0-1.9-0.3-2.8-0.8C91.8,80.8,91.1,79.9,90.4,78.6z"/>
	</g>
</g>
</svg>
