<?xml version="1.0" encoding="utf-8"?>
<!-- Generator: Adobe Illustrator 16.0.0, SVG Export Plug-In . SVG Version: 6.00 Build 0)  -->
<!DOCTYPE svg PUBLIC "-//W3C//DTD SVG 1.1//EN" "http://www.w3.org/Graphics/SVG/1.1/DTD/svg11.dtd">
<svg version="1.1" id="Layer_1" xmlns="http://www.w3.org/2000/svg" xmlns:xlink="http://www.w3.org/1999/xlink" x="0px" y="0px"
	 width="102px" height="102px" viewBox="0 0 102 102" enable-background="new 0 0 102 102" xml:space="preserve">
<g>
	<path fill-rule="evenodd" clip-rule="evenodd" fill="#FFFFFF" d="M28.836,37.094H1v27.812h27.836v-0.303
		c-7.559-0.02-13.728-6.182-13.728-13.743c0-7.566,6.164-13.737,13.728-13.752V37.094L28.836,37.094z M28.836,63.831
		c-4.402-0.081-8.106-3.719-8.106-8.124c0-4.47,3.639-8.116,8.106-8.131V63.831z"/>
	<path fill-rule="evenodd" clip-rule="evenodd" fill="#FFFFFF" d="M39.605,39.608c-0.195-0.501-0.502-0.883-0.921-1.14
		c-0.419-0.259-0.94-0.388-1.562-0.388c-0.985,0-1.758,0.338-2.318,1.011c-0.559,0.673-0.84,1.604-0.84,2.789
		c0,1.414,0.276,2.484,0.831,3.215c0.552,0.73,1.361,1.095,2.425,1.095c0.609,0,1.145-0.1,1.606-0.3
		c0.462-0.2,0.831-0.492,1.104-0.873l0.216,0.104c-0.069,0.262-0.133,0.512-0.188,0.75c-0.057,0.241-0.102,0.474-0.14,0.702
		c-0.421,0.229-0.888,0.397-1.393,0.51c-0.507,0.112-1.063,0.167-1.666,0.167c-1.687,0-3.001-0.448-3.943-1.345
		c-0.94-0.897-1.412-2.156-1.412-3.774c0-1.547,0.495-2.772,1.485-3.677c0.99-0.904,2.337-1.356,4.043-1.356
		c0.59,0,1.162,0.062,1.711,0.188c0.552,0.126,1.099,0.319,1.642,0.579c-0.103,0.302-0.193,0.598-0.269,0.885
		c-0.076,0.29-0.143,0.576-0.2,0.859H39.605L39.605,39.608z M41.553,47.047c0.05-0.652,0.088-1.311,0.114-1.985
		c0.026-0.671,0.038-1.447,0.038-2.325v-0.557c0-1.062-0.012-1.966-0.038-2.713c-0.026-0.747-0.067-1.471-0.122-2.168
		c0.433,0.038,0.735,0.062,0.907,0.076c0.171,0.014,0.31,0.021,0.412,0.021c0.143,0,0.312-0.007,0.505-0.021
		c0.193-0.015,0.476-0.038,0.847-0.076c-0.034,0.357-0.057,0.726-0.074,1.102s-0.024,0.769-0.024,1.178v1.556
		c0.228,0.007,0.526,0.017,0.892,0.026c0.521,0.019,0.85,0.029,0.99,0.029c0.348,0,0.94-0.015,1.778-0.043
		c0.117-0.004,0.205-0.007,0.264-0.012V39.58c0-0.352-0.01-0.716-0.029-1.09c-0.019-0.376-0.045-0.773-0.083-1.189
		c0.005,0,0.012,0,0.021,0c0.702,0.064,1.145,0.097,1.33,0.097c0.195,0,0.614-0.033,1.257-0.097h0.062
		c-0.055,0.693-0.095,1.409-0.121,2.154c-0.026,0.745-0.038,1.654-0.038,2.727v0.557c0,0.878,0.012,1.654,0.038,2.325
		c0.026,0.674,0.066,1.333,0.121,1.985c-0.34-0.028-0.606-0.045-0.802-0.055c-0.195-0.01-0.367-0.014-0.517-0.014
		c-0.152,0-0.331,0.004-0.533,0.014c-0.203,0.009-0.474,0.026-0.819,0.055c0.038-0.386,0.064-0.754,0.083-1.104
		c0.019-0.352,0.029-0.692,0.029-1.023v-2.537c-0.399-0.019-0.771-0.033-1.111-0.04c-0.343-0.007-0.652-0.01-0.931-0.01
		c-0.19,0-0.442,0.002-0.757,0.01c-0.314,0.007-0.688,0.021-1.125,0.04v2.537c0,0.383,0.007,0.748,0.024,1.1
		c0.017,0.35,0.04,0.692,0.074,1.028c-0.345-0.028-0.616-0.045-0.819-0.055c-0.202-0.01-0.381-0.014-0.533-0.014
		c-0.155,0-0.333,0.004-0.54,0.017C42.117,47.007,41.86,47.023,41.553,47.047L41.553,47.047z M54.323,43.149
		c0.033,0,0.085,0.002,0.159,0.007c0.457,0.015,0.783,0.021,0.979,0.021c0.221,0,0.583-0.009,1.081-0.028h0.076
		c-0.15-0.483-0.317-0.976-0.508-1.478c-0.188-0.502-0.399-1.019-0.638-1.549c-0.226,0.545-0.438,1.071-0.631,1.578
		C54.649,42.207,54.476,42.69,54.323,43.149L54.323,43.149z M51.45,47.047c0.748-1.673,1.454-3.336,2.116-4.988
		c0.661-1.654,1.285-3.303,1.866-4.947c0.01,0,0.021,0,0.04,0c0.316,0.036,0.547,0.055,0.69,0.055c0.116,0,0.307-0.014,0.573-0.041
		c0.069-0.009,0.119-0.014,0.152-0.014c0.596,1.737,1.204,3.429,1.828,5.076c0.621,1.645,1.264,3.266,1.922,4.86
		c-0.302-0.014-0.568-0.024-0.796-0.031c-0.231-0.007-0.427-0.012-0.584-0.012c-0.21,0-0.431,0.005-0.666,0.012
		c-0.233,0.007-0.485,0.017-0.757,0.031c-0.083-0.254-0.219-0.69-0.409-1.304s-0.341-1.087-0.447-1.42
		c-0.088-0.005-0.312-0.015-0.674-0.026c-0.359-0.012-0.652-0.017-0.873-0.017c-0.071,0-0.276,0.005-0.617,0.017
		c-0.343,0.012-0.649,0.021-0.925,0.026c-0.186,0.571-0.486,1.454-0.898,2.648l-0.028,0.076c-0.174-0.014-0.316-0.024-0.428-0.031
		c-0.114-0.007-0.204-0.012-0.269-0.012c-0.117,0-0.243,0.005-0.381,0.012C51.748,47.023,51.604,47.033,51.45,47.047L51.45,47.047z
		 M61.554,47.047c0.055-0.711,0.096-1.442,0.121-2.189c0.026-0.747,0.038-1.64,0.038-2.677c0-0.647-0.012-1.38-0.035-2.199
		c-0.021-0.82-0.055-1.715-0.096-2.682c0.245,0.023,0.44,0.038,0.581,0.048c0.143,0.009,0.262,0.014,0.359,0.014
		c0.106,0,0.229-0.004,0.366-0.012c0.136-0.01,0.324-0.026,0.56-0.05c0.866,1.114,1.754,2.199,2.665,3.253
		c0.911,1.055,1.85,2.083,2.811,3.084v-2.685c0-0.766-0.007-1.423-0.024-1.975c-0.016-0.552-0.04-1.111-0.072-1.678
		c0.166,0.021,0.311,0.036,0.43,0.045c0.122,0.012,0.225,0.017,0.308,0.017c0.078,0,0.209-0.007,0.39-0.023
		c0.181-0.017,0.316-0.031,0.404-0.038c-0.068,0.523-0.118,1.23-0.149,2.118c-0.031,0.885-0.045,2.199-0.045,3.934v0.683
		c0,0.707,0.009,1.29,0.028,1.747c0.019,0.459,0.045,0.88,0.083,1.266c-0.229-0.028-0.401-0.045-0.525-0.055
		c-0.124-0.01-0.231-0.014-0.323-0.014c-0.099,0-0.212,0.004-0.339,0.014c-0.128,0.009-0.302,0.026-0.519,0.055
		c-0.876-1.106-1.775-2.194-2.703-3.267c-0.929-1.071-1.895-2.14-2.899-3.204v3.946c0,0.281,0.006,0.638,0.015,1.076
		c0.01,0.436,0.024,0.918,0.04,1.449c-0.171-0.024-0.316-0.041-0.438-0.052c-0.121-0.012-0.226-0.017-0.321-0.017
		c-0.06,0-0.14,0.004-0.242,0.014C61.918,47.002,61.763,47.019,61.554,47.047L61.554,47.047z M74.92,45.974
		c0.152,0.034,0.297,0.055,0.435,0.069c0.136,0.014,0.271,0.021,0.407,0.021c1.126,0,1.973-0.335,2.542-1.006
		c0.568-0.673,0.854-1.671,0.854-2.997c0-1.352-0.26-2.325-0.778-2.915c-0.517-0.59-1.386-0.885-2.604-0.885
		c-0.209,0-0.373,0-0.492,0.002c-0.116,0.002-0.235,0.009-0.352,0.019c-0.005,0.245-0.01,0.604-0.02,1.073
		c-0.023,1.452-0.035,2.435-0.035,2.951c0,0.376,0.002,0.871,0.01,1.485C74.894,44.406,74.905,45.132,74.92,45.974L74.92,45.974z
		 M72.354,47.047c0.05-0.438,0.088-0.909,0.114-1.416s0.038-1.157,0.038-1.952v-1.73v-1.019c0-0.821-0.012-1.509-0.038-2.056
		c-0.026-0.55-0.066-1.069-0.121-1.562c0.19,0.007,0.386,0.017,0.586,0.024c0.199,0.007,0.404,0.01,0.614,0.01
		c0.375,0,0.84-0.01,1.395-0.029c0.552-0.017,0.922-0.026,1.108-0.026c1.185,0,2.027,0.045,2.529,0.136
		c0.503,0.09,0.934,0.241,1.29,0.45c0.629,0.362,1.098,0.883,1.409,1.559c0.312,0.676,0.466,1.514,0.466,2.513
		c0,1.697-0.489,2.97-1.47,3.822c-0.981,0.85-2.446,1.275-4.401,1.275c-0.297,0-0.701-0.005-1.218-0.014
		c-0.517-0.01-0.886-0.014-1.108-0.014c-0.155,0-0.315,0.002-0.486,0.007C72.892,47.031,72.656,47.038,72.354,47.047L72.354,47.047z
		 M84.715,43.149c0.033,0,0.086,0.002,0.16,0.007c0.456,0.015,0.783,0.021,0.978,0.021c0.222,0,0.583-0.009,1.08-0.028h0.076
		c-0.149-0.483-0.316-0.976-0.506-1.478c-0.188-0.502-0.4-1.019-0.639-1.549c-0.226,0.545-0.438,1.071-0.63,1.578
		C85.041,42.207,84.867,42.69,84.715,43.149L84.715,43.149z M81.843,47.047c0.747-1.673,1.454-3.336,2.115-4.988
		c0.662-1.654,1.285-3.303,1.866-4.947c0.01,0,0.021,0,0.04,0c0.316,0.036,0.548,0.055,0.69,0.055c0.117,0,0.307-0.014,0.574-0.041
		c0.068-0.009,0.118-0.014,0.152-0.014c0.594,1.737,1.203,3.429,1.827,5.076c0.621,1.645,1.264,3.266,1.923,4.86
		c-0.303-0.014-0.568-0.024-0.797-0.031c-0.231-0.007-0.427-0.012-0.583-0.012c-0.21,0-0.432,0.005-0.667,0.012
		c-0.232,0.007-0.485,0.017-0.757,0.031c-0.083-0.254-0.219-0.69-0.409-1.304s-0.34-1.087-0.447-1.42
		c-0.088-0.005-0.313-0.015-0.674-0.026c-0.359-0.012-0.651-0.017-0.873-0.017c-0.071,0-0.276,0.005-0.616,0.017
		c-0.343,0.012-0.65,0.021-0.926,0.026c-0.187,0.571-0.485,1.454-0.897,2.648l-0.028,0.076c-0.174-0.014-0.316-0.024-0.429-0.031
		c-0.114-0.007-0.205-0.012-0.269-0.012c-0.117,0-0.243,0.005-0.381,0.012C82.141,47.023,81.995,47.033,81.843,47.047L81.843,47.047
		z M91.945,47.047c0.055-0.711,0.096-1.442,0.122-2.189c0.025-0.747,0.038-1.64,0.038-2.677c0-0.647-0.013-1.38-0.036-2.199
		c-0.021-0.82-0.055-1.715-0.095-2.682c0.244,0.023,0.439,0.038,0.58,0.048c0.143,0.009,0.262,0.014,0.359,0.014
		c0.107,0,0.229-0.004,0.366-0.012c0.136-0.01,0.324-0.026,0.56-0.05c0.866,1.114,1.754,2.199,2.666,3.253
		c0.911,1.055,1.849,2.083,2.811,3.084v-2.685c0-0.766-0.008-1.423-0.024-1.975c-0.017-0.552-0.041-1.111-0.073-1.678
		c0.166,0.021,0.312,0.036,0.431,0.045c0.121,0.012,0.224,0.017,0.307,0.017c0.079,0,0.21-0.007,0.391-0.023
		c0.181-0.017,0.316-0.031,0.404-0.038c-0.069,0.523-0.119,1.23-0.15,2.118c-0.03,0.885-0.045,2.199-0.045,3.934v0.683
		c0,0.707,0.01,1.29,0.028,1.747c0.02,0.459,0.045,0.88,0.083,1.266c-0.228-0.028-0.401-0.045-0.525-0.055
		c-0.124-0.01-0.23-0.014-0.323-0.014c-0.098,0-0.212,0.004-0.338,0.014c-0.129,0.009-0.303,0.026-0.52,0.055
		c-0.875-1.106-1.774-2.194-2.703-3.267c-0.929-1.071-1.895-2.14-2.898-3.204v3.946c0,0.281,0.005,0.638,0.015,1.076
		c0.009,0.436,0.023,0.918,0.039,1.449c-0.17-0.024-0.315-0.041-0.438-0.052c-0.121-0.012-0.226-0.017-0.32-0.017
		c-0.06,0-0.142,0.004-0.243,0.014C92.31,47.002,92.155,47.019,91.945,47.047z"/>
	<path fill-rule="evenodd" clip-rule="evenodd" fill="#FFFFFF" d="M31.966,55.891c0.057-0.174,0.104-0.347,0.142-0.521
		c0.036-0.175,0.061-0.348,0.074-0.521c0.144,0.369,0.358,0.655,0.645,0.861s0.612,0.309,0.975,0.309
		c0.426,0,0.766-0.131,1.023-0.393c0.255-0.261,0.382-0.612,0.382-1.05c0-0.303-0.073-0.548-0.221-0.736
		c-0.147-0.188-0.404-0.354-0.772-0.501l-0.795-0.335c-0.454-0.188-0.785-0.414-0.993-0.676s-0.311-0.586-0.311-0.974
		c0-0.556,0.191-1.01,0.576-1.363c0.383-0.354,0.882-0.53,1.496-0.53c0.265,0,0.519,0.029,0.762,0.088
		c0.242,0.059,0.486,0.15,0.729,0.272c-0.048,0.104-0.095,0.219-0.141,0.343c-0.047,0.123-0.092,0.26-0.133,0.414
		c-0.171-0.252-0.373-0.442-0.599-0.568c-0.227-0.126-0.479-0.189-0.757-0.189c-0.362,0-0.648,0.109-0.861,0.329
		c-0.212,0.217-0.319,0.515-0.319,0.888c0,0.275,0.075,0.504,0.227,0.689c0.153,0.184,0.408,0.354,0.766,0.511l0.795,0.343
		c0.466,0.2,0.8,0.431,1,0.696c0.199,0.265,0.299,0.602,0.299,1.011c0,0.637-0.214,1.148-0.643,1.539
		c-0.427,0.391-0.993,0.585-1.697,0.585c-0.322,0-0.623-0.045-0.901-0.135S32.187,56.059,31.966,55.891L31.966,55.891z
		 M39.006,56.285c0.02-0.809,0.033-1.598,0.042-2.366c0.01-0.77,0.015-1.517,0.015-2.242v-1.64H38.8c-0.39,0-0.736,0.01-1.039,0.031
		c-0.301,0.021-0.559,0.051-0.77,0.088c0.007-0.064,0.012-0.116,0.015-0.159c0.003-0.041,0.005-0.078,0.005-0.114
		c0-0.038-0.001-0.08-0.005-0.125c-0.003-0.048-0.008-0.106-0.015-0.18c0.375,0.01,0.756,0.016,1.144,0.021
		c0.388,0.004,0.789,0.008,1.201,0.008c0.419,0,0.844-0.003,1.278-0.008c0.434-0.007,0.878-0.014,1.335-0.021
		c-0.006,0.029-0.012,0.062-0.015,0.101c-0.003,0.04-0.005,0.1-0.005,0.184c0,0.08,0.001,0.141,0.005,0.182
		c0.003,0.039,0.008,0.077,0.015,0.113c-0.224-0.041-0.476-0.072-0.758-0.09c-0.281-0.02-0.607-0.03-0.978-0.03l-0.288,0.005
		c-0.016,0.278-0.028,0.592-0.036,0.943c-0.008,0.35-0.012,0.767-0.012,1.253c0,0.623,0.005,1.272,0.015,1.952
		c0.01,0.677,0.023,1.374,0.042,2.095c-0.073-0.011-0.147-0.019-0.221-0.023c-0.074-0.006-0.149-0.007-0.229-0.007
		c-0.074,0-0.151,0.001-0.23,0.007C39.175,56.266,39.093,56.274,39.006,56.285L39.006,56.285z M43.444,56.285
		c0.031-0.413,0.052-0.894,0.067-1.445c0.013-0.552,0.02-1.213,0.02-1.983c0-0.71-0.007-1.328-0.02-1.86
		c-0.015-0.53-0.036-1.003-0.067-1.418c0.137,0.006,0.288,0.011,0.45,0.015c0.162,0.003,0.416,0.005,0.762,0.005
		c0.448,0,0.846-0.002,1.195-0.005c0.348-0.003,0.702-0.008,1.06-0.015c0,0.029-0.001,0.075-0.005,0.139
		C46.902,49.78,46.9,49.83,46.9,49.866c0,0.029,0.002,0.075,0.005,0.139c0.003,0.064,0.005,0.111,0.005,0.144
		c-0.372-0.033-0.753-0.056-1.144-0.072c-0.391-0.017-0.787-0.025-1.187-0.025h-0.235c-0.003,0.38-0.006,0.743-0.008,1.088
		c-0.001,0.345-0.001,0.672-0.001,0.983v0.393h0.173c0.298,0,0.626-0.007,0.986-0.021s0.743-0.033,1.15-0.056
		c-0.007,0.07-0.012,0.127-0.015,0.174c-0.003,0.044-0.005,0.087-0.005,0.129c0,0.034,0.002,0.073,0.005,0.114
		c0.003,0.043,0.008,0.096,0.015,0.158c-0.157-0.028-0.354-0.049-0.589-0.06c-0.234-0.012-0.658-0.017-1.27-0.017h-0.452v0.47
		c0,0.56,0,1.015,0.001,1.364c0.002,0.351,0.005,0.693,0.008,1.033h0.245c0.282,0,0.625-0.011,1.033-0.028
		c0.406-0.02,0.848-0.048,1.325-0.082c0,0.033-0.002,0.08-0.005,0.146c-0.003,0.065-0.005,0.116-0.005,0.15
		c0,0.033,0.002,0.082,0.005,0.147c0.003,0.065,0.005,0.112,0.005,0.146c-0.187-0.008-0.393-0.013-0.624-0.016
		c-0.229-0.003-0.583-0.005-1.058-0.005c-0.488,0-0.858,0.002-1.111,0.005S43.665,56.277,43.444,56.285L43.444,56.285z
		 M48.735,56.285c0.031-0.413,0.052-0.894,0.067-1.445c0.013-0.552,0.02-1.213,0.02-1.983c0-0.71-0.006-1.328-0.02-1.86
		c-0.015-0.53-0.036-1.003-0.067-1.418c0.137,0.006,0.288,0.011,0.45,0.015c0.163,0.003,0.416,0.005,0.763,0.005
		c0.448,0,0.846-0.002,1.194-0.005c0.349-0.003,0.702-0.008,1.061-0.015c0,0.029-0.002,0.075-0.005,0.139
		c-0.004,0.063-0.006,0.113-0.006,0.149c0,0.029,0.002,0.075,0.006,0.139c0.003,0.064,0.005,0.111,0.005,0.144
		c-0.372-0.033-0.753-0.056-1.144-0.072c-0.392-0.017-0.788-0.025-1.187-0.025h-0.236c-0.003,0.38-0.006,0.743-0.008,1.088
		c-0.001,0.345-0.001,0.672-0.001,0.983v0.393H49.8c0.298,0,0.627-0.007,0.986-0.021c0.36-0.015,0.743-0.033,1.15-0.056
		c-0.006,0.07-0.012,0.127-0.015,0.174c-0.003,0.044-0.005,0.087-0.005,0.129c0,0.034,0.002,0.073,0.005,0.114
		c0.003,0.043,0.009,0.096,0.015,0.158c-0.156-0.028-0.353-0.049-0.589-0.06c-0.233-0.012-0.658-0.017-1.27-0.017h-0.451v0.47
		c0,0.56,0,1.015,0.001,1.364c0.002,0.351,0.005,0.693,0.008,1.033h0.246c0.282,0,0.625-0.011,1.032-0.028
		c0.405-0.02,0.848-0.048,1.325-0.082c0,0.033-0.002,0.08-0.005,0.146s-0.005,0.116-0.005,0.15c0,0.033,0.002,0.082,0.005,0.147
		s0.005,0.112,0.005,0.146c-0.186-0.008-0.393-0.013-0.623-0.016c-0.229-0.003-0.583-0.005-1.059-0.005
		c-0.487,0-0.857,0.002-1.111,0.005C49.193,56.272,48.956,56.277,48.735,56.285L48.735,56.285z M54.046,56.285
		c0.017-0.577,0.029-1.14,0.041-1.692s0.017-1.104,0.017-1.654c0-0.61-0.005-1.189-0.016-1.736c-0.01-0.546-0.024-1.088-0.047-1.625
		c0.073,0.013,0.147,0.021,0.223,0.028c0.073,0.006,0.155,0.01,0.245,0.01c0.083,0,0.164-0.003,0.238-0.01
		c0.075-0.006,0.147-0.015,0.215-0.028c-0.027,0.64-0.049,1.253-0.063,1.841c-0.016,0.589-0.023,1.137-0.023,1.644
		c0,0.529,0.006,1.017,0.014,1.463c0.008,0.448,0.023,0.881,0.042,1.299c0.07,0.004,0.149,0.007,0.237,0.009
		c0.089,0.001,0.231,0.001,0.429,0.001c0.427,0,0.807-0.011,1.139-0.035c0.332-0.025,0.62-0.063,0.862-0.113
		c0,0.029-0.001,0.075-0.005,0.141c-0.003,0.065-0.005,0.118-0.005,0.157c0,0.027,0.002,0.075,0.005,0.142
		c0.004,0.068,0.004,0.122,0,0.16c-0.577-0.011-1.056-0.019-1.433-0.023c-0.377-0.006-0.656-0.007-0.84-0.007
		c-0.232,0-0.455,0.001-0.668,0.007C54.44,56.266,54.237,56.274,54.046,56.285z"/>
	<path fill-rule="evenodd" clip-rule="evenodd" fill="#FFFFFF" d="M63.058,56.285c0.017-0.577,0.029-1.14,0.041-1.692
		c0.011-0.553,0.017-1.104,0.017-1.654c0-0.61-0.006-1.189-0.016-1.736c-0.009-0.547-0.024-1.088-0.047-1.625
		c0.073,0.013,0.147,0.021,0.222,0.028s0.156,0.01,0.246,0.01c0.084,0,0.163-0.003,0.239-0.01c0.075-0.007,0.146-0.015,0.214-0.028
		c-0.027,0.64-0.049,1.253-0.063,1.841c-0.015,0.589-0.023,1.137-0.023,1.644c0,0.529,0.005,1.017,0.014,1.463
		c0.008,0.448,0.022,0.88,0.043,1.299c0.07,0.004,0.148,0.007,0.236,0.009c0.089,0.001,0.23,0.001,0.429,0.001
		c0.428,0,0.807-0.011,1.139-0.035c0.333-0.025,0.62-0.063,0.863-0.113c0,0.029-0.003,0.075-0.005,0.141
		c-0.004,0.065-0.006,0.118-0.006,0.157c0,0.027,0.002,0.075,0.006,0.142c0.002,0.067,0.002,0.122,0,0.16
		c-0.578-0.011-1.056-0.019-1.435-0.024c-0.376-0.005-0.656-0.006-0.839-0.006c-0.232,0-0.455,0.001-0.667,0.006
		C63.452,56.266,63.249,56.274,63.058,56.285L63.058,56.285z M68.324,56.285c0.022-0.32,0.038-0.677,0.048-1.067
		c0.01-0.392,0.015-0.879,0.015-1.465v-0.814c0-1.046-0.005-1.787-0.015-2.222c-0.01-0.437-0.025-0.816-0.048-1.139
		c0.066,0.013,0.136,0.021,0.208,0.028c0.071,0.007,0.152,0.01,0.237,0.01c0.086,0,0.167-0.003,0.242-0.01s0.15-0.015,0.227-0.028
		c-0.022,0.221-0.037,0.478-0.045,0.772c-0.008,0.293-0.012,0.679-0.012,1.155v1.434v1.62c0,0.519,0.004,0.892,0.012,1.118
		c0.008,0.229,0.022,0.433,0.045,0.608c-0.069-0.014-0.143-0.021-0.216-0.029c-0.073-0.006-0.15-0.009-0.233-0.009
		c-0.087,0-0.169,0.003-0.243,0.009C68.469,56.263,68.395,56.271,68.324,56.285L68.324,56.285z M70.896,56.285
		c0.121-0.541,0.259-1.324,0.412-2.353c0.154-1.027,0.354-2.521,0.599-4.479h0.164c0.581,1.163,1.09,2.165,1.522,3.005
		c0.436,0.842,0.848,1.616,1.238,2.325c0.428-0.758,0.878-1.569,1.351-2.438c0.473-0.867,0.991-1.831,1.553-2.892h0.129
		c0.091,0.862,0.195,1.823,0.314,2.881c0.12,1.057,0.273,2.374,0.458,3.95c-0.08-0.018-0.155-0.029-0.228-0.037
		c-0.071-0.008-0.144-0.011-0.213-0.011c-0.068,0-0.137,0.003-0.209,0.011c-0.071,0.008-0.147,0.02-0.228,0.037
		c-0.083-1.151-0.17-2.161-0.262-3.031c-0.09-0.868-0.175-1.492-0.252-1.868c-0.607,1.02-1.132,1.962-1.578,2.83
		c-0.445,0.868-0.758,1.553-0.937,2.059h-0.134c-0.074-0.255-0.183-0.54-0.324-0.853c-0.142-0.314-0.347-0.713-0.611-1.199
		l-1.529-2.827c-0.15,1.054-0.267,2.002-0.35,2.847s-0.128,1.525-0.135,2.043c-0.063-0.018-0.126-0.029-0.185-0.037
		s-0.118-0.011-0.175-0.011s-0.118,0.003-0.182,0.011S70.974,56.267,70.896,56.285L70.896,56.285z M80.492,56.285
		c0.022-0.32,0.038-0.677,0.048-1.067c0.01-0.392,0.014-0.879,0.014-1.465v-0.814c0-1.046-0.004-1.787-0.014-2.222
		c-0.01-0.437-0.025-0.816-0.048-1.139c0.066,0.013,0.136,0.021,0.208,0.028c0.071,0.007,0.152,0.01,0.237,0.01
		c0.086,0,0.167-0.003,0.242-0.01s0.15-0.015,0.227-0.028c-0.022,0.221-0.037,0.478-0.045,0.772
		c-0.009,0.293-0.012,0.679-0.012,1.155v1.434v1.62c0,0.519,0.003,0.892,0.012,1.118c0.008,0.229,0.022,0.433,0.045,0.608
		c-0.069-0.014-0.142-0.021-0.215-0.029c-0.074-0.006-0.151-0.009-0.234-0.009c-0.087,0-0.169,0.003-0.243,0.009
		C80.636,56.263,80.563,56.271,80.492,56.285L80.492,56.285z M84.93,56.285c0.02-0.809,0.032-1.598,0.042-2.366
		c0.01-0.77,0.015-1.518,0.015-2.242v-1.639h-0.263c-0.39,0-0.736,0.01-1.039,0.031c-0.301,0.022-0.558,0.051-0.77,0.089
		c0.007-0.064,0.012-0.116,0.016-0.159c0.003-0.041,0.005-0.078,0.005-0.114c0-0.038-0.002-0.08-0.005-0.126
		c-0.004-0.047-0.009-0.106-0.016-0.18c0.375,0.01,0.756,0.017,1.144,0.021c0.389,0.005,0.789,0.008,1.201,0.008
		c0.42,0,0.845-0.003,1.278-0.008c0.434-0.006,0.878-0.013,1.335-0.021c-0.007,0.029-0.012,0.063-0.015,0.102
		c-0.003,0.04-0.005,0.1-0.005,0.183c0,0.081,0.002,0.141,0.005,0.182c0.003,0.04,0.008,0.077,0.015,0.113
		c-0.225-0.041-0.477-0.072-0.758-0.09c-0.281-0.02-0.606-0.03-0.979-0.03l-0.288,0.005c-0.016,0.278-0.027,0.592-0.035,0.942
		c-0.009,0.35-0.012,0.767-0.012,1.253c0,0.623,0.005,1.272,0.015,1.951c0.01,0.678,0.022,1.375,0.042,2.096
		c-0.073-0.011-0.147-0.019-0.221-0.024c-0.073-0.005-0.148-0.006-0.229-0.006c-0.074,0-0.15,0.001-0.231,0.006
		C85.098,56.266,85.017,56.274,84.93,56.285L84.93,56.285z M89.367,56.285c0.03-0.413,0.052-0.895,0.066-1.445
		c0.014-0.552,0.021-1.213,0.021-1.983c0-0.71-0.007-1.329-0.021-1.86c-0.015-0.53-0.036-1.003-0.066-1.419
		c0.137,0.006,0.287,0.012,0.449,0.015c0.162,0.003,0.416,0.005,0.763,0.005c0.448,0,0.846-0.002,1.194-0.005
		c0.349-0.003,0.702-0.009,1.061-0.015c0,0.029-0.002,0.075-0.005,0.139c-0.004,0.064-0.005,0.113-0.005,0.149
		c0,0.029,0.001,0.076,0.005,0.139c0.003,0.063,0.005,0.111,0.005,0.144c-0.372-0.033-0.753-0.056-1.144-0.072
		c-0.392-0.016-0.787-0.024-1.187-0.024h-0.235c-0.004,0.379-0.007,0.743-0.008,1.088c-0.002,0.346-0.002,0.672-0.002,0.983v0.394
		h0.173c0.298,0,0.627-0.007,0.986-0.021c0.36-0.016,0.743-0.033,1.15-0.056c-0.006,0.07-0.011,0.127-0.015,0.174
		c-0.003,0.044-0.005,0.086-0.005,0.129c0,0.034,0.002,0.073,0.005,0.114c0.004,0.043,0.009,0.095,0.015,0.158
		c-0.156-0.028-0.354-0.049-0.589-0.06c-0.234-0.012-0.657-0.017-1.27-0.017h-0.451v0.47c0,0.56,0,1.015,0.002,1.364
		c0.001,0.351,0.004,0.693,0.008,1.033h0.245c0.281,0,0.625-0.011,1.032-0.028c0.406-0.02,0.848-0.048,1.325-0.082
		c0,0.033-0.002,0.08-0.005,0.146s-0.005,0.116-0.005,0.15c0,0.033,0.002,0.082,0.005,0.147s0.005,0.112,0.005,0.146
		c-0.187-0.008-0.393-0.013-0.623-0.016c-0.229-0.003-0.582-0.005-1.059-0.005c-0.487,0-0.857,0.002-1.111,0.005
		C89.825,56.272,89.588,56.277,89.367,56.285L89.367,56.285z M95.55,55.864c0.211,0.015,0.399,0.027,0.566,0.035
		c0.165,0.009,0.32,0.012,0.465,0.012c1.082,0,1.89-0.247,2.421-0.741c0.53-0.494,0.795-1.243,0.795-2.251
		c0-1.053-0.218-1.812-0.65-2.278c-0.436-0.466-1.145-0.7-2.124-0.7c-0.273,0-0.528,0.003-0.771,0.011
		c-0.24,0.008-0.475,0.021-0.702,0.036c-0.017,0.413-0.025,0.839-0.032,1.281s-0.011,0.911-0.011,1.41
		c0,0.61,0.004,1.177,0.011,1.696C95.524,54.898,95.533,55.392,95.55,55.864L95.55,55.864z M94.665,56.285
		c0.016-0.373,0.026-0.784,0.031-1.238c0.004-0.453,0.006-1.157,0.006-2.108c0-0.988-0.002-1.707-0.006-2.155
		c-0.005-0.45-0.014-0.851-0.026-1.206c0.156,0.006,0.29,0.012,0.404,0.015c0.114,0.003,0.224,0.005,0.328,0.005
		c0.131,0,0.409-0.008,0.831-0.025c0.424-0.016,0.781-0.024,1.071-0.024c0.561,0,1.002,0.036,1.328,0.109
		c0.327,0.074,0.613,0.195,0.863,0.36c0.405,0.275,0.715,0.644,0.932,1.107c0.215,0.463,0.323,1,0.323,1.607
		c0,1.163-0.328,2.05-0.986,2.658c-0.659,0.608-1.618,0.913-2.881,0.913c-0.151,0-0.385-0.006-0.704-0.019
		c-0.32-0.014-0.563-0.021-0.729-0.021c-0.051,0-0.167,0.003-0.347,0.008S94.776,56.281,94.665,56.285z"/>
	<path fill="#FFFFFF" d="M33.489,64.755v-3.363h-1.073v-0.43h2.597v0.43h-1.067v3.363H33.489L33.489,64.755z M36.026,64.755v-2.37
		h0.36v0.493c0.108-0.207,0.225-0.354,0.347-0.442c0.122-0.087,0.272-0.131,0.447-0.131c0.049,0,0.096,0.004,0.141,0.011
		c0.044,0.008,0.089,0.021,0.134,0.035l-0.134,0.365c-0.047-0.016-0.091-0.027-0.133-0.034c-0.042-0.007-0.081-0.012-0.118-0.012
		c-0.215,0-0.375,0.077-0.482,0.231c-0.106,0.154-0.161,0.388-0.161,0.698v1.155H36.026L36.026,64.755z M39.345,62.385v1.166
		c0,0.34,0.05,0.578,0.151,0.713c0.102,0.136,0.272,0.204,0.512,0.204s0.41-0.067,0.51-0.201c0.099-0.135,0.148-0.373,0.148-0.716
		v-1.166h0.415v1.384c0,0.356-0.091,0.628-0.274,0.812c-0.183,0.184-0.453,0.275-0.809,0.275c-0.353,0-0.62-0.092-0.803-0.276
		c-0.183-0.186-0.275-0.455-0.275-0.811v-1.384H39.345L39.345,62.385z M44.629,63.302c-0.014-0.209-0.083-0.37-0.209-0.483
		c-0.125-0.113-0.296-0.17-0.514-0.17c-0.197,0-0.361,0.06-0.492,0.178c-0.132,0.118-0.208,0.276-0.229,0.476H44.629L44.629,63.302z
		 M45.064,63.631h-1.878v0.036c0,0.254,0.073,0.459,0.218,0.615s0.334,0.234,0.567,0.234c0.159,0,0.303-0.043,0.43-0.129
		c0.128-0.086,0.241-0.215,0.339-0.388l0.308,0.208c-0.119,0.214-0.271,0.375-0.456,0.484c-0.185,0.108-0.399,0.163-0.643,0.163
		c-0.361,0-0.652-0.119-0.875-0.357s-0.334-0.55-0.334-0.938c0-0.371,0.111-0.675,0.332-0.912c0.221-0.236,0.505-0.354,0.852-0.354
		c0.351,0,0.628,0.111,0.833,0.337c0.204,0.225,0.307,0.531,0.307,0.92V63.631L45.064,63.631z M52.048,62.649
		c0.247,0.105,0.434,0.245,0.559,0.419c0.125,0.176,0.188,0.381,0.188,0.619c0,0.35-0.11,0.631-0.332,0.844s-0.517,0.32-0.883,0.32
		c-0.299,0-0.55-0.076-0.752-0.229c-0.201-0.152-0.337-0.37-0.408-0.652l0.408-0.201c0.057,0.229,0.147,0.403,0.273,0.521
		c0.128,0.118,0.287,0.177,0.479,0.177c0.227,0,0.409-0.065,0.549-0.194c0.14-0.131,0.21-0.3,0.21-0.51
		c0-0.169-0.049-0.316-0.146-0.441s-0.244-0.23-0.441-0.317l-0.461-0.197c-0.252-0.105-0.44-0.24-0.563-0.407
		c-0.124-0.165-0.186-0.363-0.186-0.595c0-0.27,0.1-0.493,0.301-0.669c0.199-0.176,0.455-0.264,0.767-0.264
		c0.229,0,0.426,0.049,0.592,0.145c0.167,0.097,0.297,0.24,0.391,0.428l-0.374,0.238c-0.084-0.146-0.179-0.256-0.285-0.327
		c-0.104-0.071-0.225-0.108-0.356-0.108c-0.169,0-0.308,0.053-0.416,0.156c-0.107,0.104-0.162,0.235-0.162,0.396
		c0,0.135,0.042,0.252,0.125,0.35c0.082,0.099,0.212,0.186,0.386,0.262L52.048,62.649L52.048,62.649z M54.497,62.719h-0.435v-0.334
		h0.435v-0.956h0.415v0.956h0.435v0.334h-0.435v2.036h-0.415V62.719L54.497,62.719z M58.704,63.593c0-0.269-0.073-0.484-0.22-0.647
		c-0.146-0.164-0.336-0.245-0.571-0.245c-0.243,0-0.434,0.075-0.569,0.226c-0.138,0.15-0.205,0.359-0.205,0.63
		c0,0.286,0.069,0.508,0.206,0.662c0.137,0.155,0.332,0.234,0.585,0.234c0.241,0,0.431-0.076,0.568-0.228
		C58.635,64.075,58.704,63.863,58.704,63.593L58.704,63.593z M59.098,62.385v2.37h-0.394v-0.431
		c-0.095,0.174-0.217,0.305-0.364,0.396s-0.313,0.136-0.497,0.136c-0.341,0-0.614-0.116-0.822-0.352
		c-0.208-0.232-0.313-0.543-0.313-0.929c0-0.39,0.102-0.7,0.304-0.931s0.473-0.346,0.812-0.346c0.197,0,0.37,0.045,0.517,0.134
		c0.146,0.089,0.264,0.221,0.354,0.396v-0.444H59.098L59.098,62.385z M60.914,61.242c0-0.081,0.029-0.15,0.087-0.209
		c0.059-0.057,0.128-0.087,0.211-0.087c0.082,0,0.151,0.03,0.209,0.09c0.058,0.058,0.087,0.128,0.087,0.211
		c0,0.082-0.028,0.15-0.086,0.207c-0.057,0.058-0.127,0.086-0.21,0.086s-0.152-0.028-0.211-0.086
		C60.943,61.397,60.914,61.327,60.914,61.242L60.914,61.242z M61.01,64.755v-2.37h0.409v2.37H61.01L61.01,64.755z M63.355,64.755
		v-2.37h0.396v0.366c0.102-0.152,0.225-0.267,0.367-0.341c0.144-0.074,0.311-0.111,0.498-0.111c0.28,0,0.499,0.075,0.655,0.224
		c0.158,0.148,0.236,0.355,0.236,0.618v1.614h-0.415v-1.396c0-0.239-0.05-0.418-0.15-0.534c-0.102-0.116-0.258-0.175-0.468-0.175
		c-0.121,0-0.231,0.021-0.332,0.066c-0.099,0.043-0.182,0.106-0.247,0.187c-0.049,0.063-0.085,0.134-0.106,0.213
		c-0.022,0.08-0.033,0.218-0.033,0.415v1.225H63.355L63.355,64.755z M67.414,64.755V60.74h0.415v4.016H67.414L67.414,64.755z
		 M71.44,63.302c-0.014-0.209-0.083-0.37-0.209-0.483c-0.124-0.113-0.296-0.17-0.514-0.17c-0.197,0-0.361,0.06-0.492,0.178
		c-0.132,0.118-0.208,0.276-0.229,0.476H71.44L71.44,63.302z M71.876,63.631h-1.879v0.036c0,0.254,0.073,0.459,0.218,0.615
		c0.146,0.156,0.334,0.234,0.567,0.234c0.158,0,0.303-0.043,0.431-0.129s0.241-0.215,0.339-0.388l0.308,0.208
		c-0.118,0.214-0.271,0.375-0.455,0.484c-0.185,0.108-0.398,0.163-0.644,0.163c-0.36,0-0.651-0.119-0.875-0.357
		c-0.223-0.238-0.334-0.55-0.334-0.938c0-0.371,0.11-0.675,0.331-0.912c0.222-0.236,0.506-0.354,0.853-0.354
		c0.351,0,0.628,0.111,0.834,0.337c0.204,0.225,0.307,0.531,0.307,0.92V63.631L71.876,63.631z M73.317,64.357l0.347-0.233
		c0.065,0.126,0.148,0.221,0.248,0.284c0.102,0.063,0.221,0.094,0.356,0.094c0.133,0,0.24-0.032,0.323-0.098
		c0.082-0.066,0.122-0.152,0.122-0.26c0-0.083-0.028-0.151-0.084-0.208c-0.057-0.055-0.152-0.105-0.289-0.152l-0.066-0.023
		c-0.578-0.198-0.866-0.447-0.866-0.746c0-0.211,0.077-0.382,0.233-0.516c0.155-0.133,0.356-0.199,0.605-0.199
		c0.206,0,0.382,0.041,0.528,0.123c0.147,0.083,0.253,0.198,0.317,0.349l-0.329,0.202c-0.049-0.108-0.12-0.192-0.214-0.251
		c-0.095-0.06-0.203-0.088-0.328-0.088c-0.119,0-0.217,0.033-0.292,0.1c-0.075,0.065-0.112,0.151-0.112,0.255
		c0,0.146,0.157,0.267,0.471,0.365c0.06,0.019,0.106,0.033,0.142,0.044c0.257,0.083,0.436,0.178,0.537,0.284
		c0.101,0.105,0.151,0.246,0.151,0.421c0,0.225-0.08,0.405-0.239,0.544c-0.16,0.14-0.369,0.209-0.626,0.209
		c-0.222,0-0.409-0.041-0.563-0.124C73.534,64.649,73.411,64.524,73.317,64.357L73.317,64.357z M76.56,64.357l0.347-0.233
		c0.065,0.126,0.148,0.221,0.249,0.284c0.101,0.063,0.219,0.094,0.355,0.094c0.132,0,0.24-0.032,0.322-0.098
		c0.082-0.066,0.123-0.152,0.123-0.26c0-0.083-0.028-0.151-0.084-0.208c-0.058-0.055-0.153-0.105-0.29-0.152l-0.066-0.023
		c-0.578-0.198-0.866-0.447-0.866-0.746c0-0.211,0.077-0.382,0.233-0.516c0.155-0.133,0.357-0.199,0.606-0.199
		c0.205,0,0.382,0.041,0.528,0.123c0.146,0.083,0.252,0.198,0.316,0.349l-0.329,0.202c-0.049-0.108-0.12-0.192-0.214-0.251
		c-0.095-0.06-0.203-0.088-0.328-0.088c-0.119,0-0.217,0.033-0.291,0.1c-0.076,0.065-0.113,0.151-0.113,0.255
		c0,0.146,0.158,0.267,0.472,0.365c0.06,0.019,0.106,0.033,0.141,0.044c0.258,0.083,0.437,0.178,0.537,0.284
		c0.102,0.105,0.152,0.246,0.152,0.421c0,0.225-0.08,0.405-0.24,0.544c-0.16,0.14-0.368,0.209-0.626,0.209
		c-0.221,0-0.408-0.041-0.563-0.124S76.652,64.524,76.56,64.357L76.56,64.357z M85.045,64.903l-1.604-3.94h0.489l1.114,2.901
		l1.108-2.901h0.488L85.045,64.903L85.045,64.903z M89.604,63.593c0-0.269-0.073-0.484-0.22-0.647
		c-0.146-0.164-0.336-0.245-0.571-0.245c-0.243,0-0.433,0.075-0.569,0.226c-0.138,0.15-0.205,0.359-0.205,0.63
		c0,0.286,0.069,0.508,0.206,0.662c0.137,0.155,0.333,0.234,0.585,0.234c0.241,0,0.431-0.076,0.568-0.228
		C89.534,64.075,89.604,63.863,89.604,63.593L89.604,63.593z M89.997,62.385v2.37h-0.394v-0.431
		c-0.095,0.174-0.217,0.305-0.364,0.396s-0.313,0.136-0.497,0.136c-0.34,0-0.614-0.116-0.821-0.352
		c-0.209-0.232-0.313-0.543-0.313-0.929c0-0.39,0.101-0.7,0.303-0.931s0.473-0.346,0.812-0.346c0.197,0,0.37,0.045,0.517,0.134
		c0.146,0.089,0.265,0.221,0.354,0.396v-0.444H89.997L89.997,62.385z M91.909,64.755V60.74h0.415v4.016H91.909L91.909,64.755z
		 M94.636,62.385v1.166c0,0.34,0.05,0.578,0.151,0.713c0.102,0.136,0.271,0.204,0.512,0.204c0.239,0,0.409-0.067,0.51-0.201
		c0.099-0.135,0.148-0.373,0.148-0.716v-1.166h0.415v1.384c0,0.356-0.092,0.628-0.275,0.812c-0.183,0.184-0.452,0.275-0.808,0.275
		c-0.354,0-0.62-0.092-0.803-0.276c-0.184-0.186-0.275-0.455-0.275-0.811v-1.384H94.636L94.636,62.385z M99.919,63.302
		c-0.014-0.209-0.083-0.37-0.209-0.483c-0.124-0.113-0.296-0.17-0.514-0.17c-0.197,0-0.361,0.06-0.492,0.178
		c-0.132,0.118-0.208,0.276-0.228,0.476H99.919L99.919,63.302z M100.354,63.631h-1.878v0.036c0,0.254,0.071,0.459,0.217,0.615
		c0.145,0.156,0.335,0.234,0.568,0.234c0.158,0,0.302-0.043,0.43-0.129s0.241-0.215,0.339-0.388l0.308,0.208
		c-0.118,0.214-0.271,0.375-0.455,0.484c-0.185,0.108-0.399,0.163-0.643,0.163c-0.361,0-0.653-0.119-0.876-0.357
		s-0.334-0.55-0.334-0.938c0-0.371,0.11-0.675,0.332-0.912c0.221-0.236,0.505-0.354,0.853-0.354c0.35,0,0.628,0.111,0.833,0.337
		c0.204,0.225,0.307,0.531,0.307,0.92V63.631z"/>
	<rect x="31.966" y="58.397" fill-rule="evenodd" clip-rule="evenodd" fill="#FFFFFF" width="69.034" height="0.56"/>
</g>
</svg>
