<?xml version="1.0" encoding="utf-8"?>
<!-- Generator: Adobe Illustrator 19.0.0, SVG Export Plug-In . SVG Version: 6.00 Build 0)  -->
<svg version="1.1" id="Layer_1" xmlns="http://www.w3.org/2000/svg" xmlns:xlink="http://www.w3.org/1999/xlink" x="0px" y="0px"
	 viewBox="0 0 102 102" style="enable-background:new 0 0 102 102;" xml:space="preserve">
<style type="text/css">
	.st0{fill-rule:evenodd;clip-rule:evenodd;fill:#FFFFFF;}
	.st1{fill-rule:evenodd;clip-rule:evenodd;fill:#424242;}
	.st2{fill-rule:evenodd;clip-rule:evenodd;fill:url(#SVGID_1_);}
	.st3{fill-rule:evenodd;clip-rule:evenodd;fill:url(#SVGID_2_);}
	.st4{fill-rule:evenodd;clip-rule:evenodd;fill:url(#SVGID_3_);}
	.st5{fill-rule:evenodd;clip-rule:evenodd;fill:url(#SVGID_4_);}
	.st6{fill-rule:evenodd;clip-rule:evenodd;fill:url(#SVGID_5_);}
	.st7{fill-rule:evenodd;clip-rule:evenodd;fill:url(#SVGID_6_);}
	.st8{fill-rule:evenodd;clip-rule:evenodd;fill:url(#SVGID_7_);}
	.st9{fill-rule:evenodd;clip-rule:evenodd;fill:url(#SVGID_8_);}
	.st10{fill-rule:evenodd;clip-rule:evenodd;fill:url(#SVGID_9_);}
	.st11{fill-rule:evenodd;clip-rule:evenodd;fill:url(#SVGID_10_);}
	.st12{fill-rule:evenodd;clip-rule:evenodd;fill:url(#SVGID_11_);}
	.st13{fill-rule:evenodd;clip-rule:evenodd;fill:url(#SVGID_12_);}
	.st14{fill-rule:evenodd;clip-rule:evenodd;fill:url(#SVGID_13_);}
	.st15{fill-rule:evenodd;clip-rule:evenodd;fill:url(#SVGID_14_);}
	.st16{fill-rule:evenodd;clip-rule:evenodd;fill:url(#SVGID_15_);}
	.st17{fill-rule:evenodd;clip-rule:evenodd;fill:url(#SVGID_16_);}
	.st18{fill-rule:evenodd;clip-rule:evenodd;fill:url(#SVGID_17_);}
	.st19{fill-rule:evenodd;clip-rule:evenodd;fill:url(#SVGID_18_);}
	.st20{fill-rule:evenodd;clip-rule:evenodd;fill:url(#SVGID_19_);}
	.st21{fill-rule:evenodd;clip-rule:evenodd;fill:url(#SVGID_20_);}
	.st22{fill-rule:evenodd;clip-rule:evenodd;fill:url(#SVGID_21_);}
	.st23{fill-rule:evenodd;clip-rule:evenodd;fill:url(#SVGID_22_);}
	.st24{fill-rule:evenodd;clip-rule:evenodd;fill:url(#SVGID_23_);}
	.st25{fill-rule:evenodd;clip-rule:evenodd;fill:url(#SVGID_24_);}
</style>
<path class="st0" d="M9.4,12.1v4.1c0.1,0.1,0.1,0.3,0.2,0.4l2.3,1.8c0.3,0.3,2.5,1.9,2.6,2l-0.2,0.4c-0.5-0.2-0.8-0.9-1.5-0.7
	c-0.6,0.2-0.4,1-0.5,1.7c-0.4-0.2-1.4-1-1.8-1.1c-0.4-0.1-0.8,0.2-0.8,0.6c0,0.3,0.2,3.6,0.3,4.1c0.1,1.4,0,1,1.1,1.9l5.7,4.4
	c0.2,0.1,0.3,0.1,0.3,0.4c0,0.2,0.1,0.5,0,0.7L15,31.3c-0.3-0.2-0.7-0.6-1.2-0.3c-0.4,0.2-0.4,0.8-0.4,1.3c-0.4-0.1-1.5-0.9-1.8-1
	c-0.4-0.2-0.8,0.1-0.9,0.3c-0.1,0.3,0,0.9,0,1.2c0.1,0.8,0.2,1.7,0.4,2.5c0.2,1.4,0.2,1.1,1.1,1.8l5.7,4.4c0.2,0.2,0.2,0.2,0.2,0.5
	c0,0.2,0.1,0.4,0.1,0.6c0,0-0.6-0.5-0.7-0.5c-0.3-0.2-0.6-0.4-1-0.1c-0.5,0.4-0.2,1.4-0.1,2.2c-0.5-0.2-2.4-1.8-2.8-1.8
	c-0.3,0-0.5,0.1-0.7,0.3c-0.3,0.4,0,1,0.1,1.5c0.4,1.6,1,3.4,1.6,4.9c0.1,0.3,0.1,0.4,0.4,0.6l2.1,1.6c0.7,0.6,1.4,1.1,2.1,1.6
	l1.6,1.2c0.1,0.1,0.6,1.9,0.7,2.1c0.1,0.2,0.2,0.5,0.2,0.7c0,0.1,0,0.2,0.1,0.4c0,0.1,0.1,0.2,0.1,0.4c-0.2-0.1-0.5-0.4-0.7-0.6
	c-0.2-0.2-0.5-0.4-0.7-0.6c-0.6-0.4-1.1-1.1-1.6-0.9c-0.3,0.1-0.6,0.4-0.5,0.8c0,0.2,0.8,1.4,1,1.6c0.2,0.3,0.3,0.5,0.4,0.9
	c1.5,4.3,3.3,8.9,5.4,12.9c0.9,1.7,1.8,3.4,2.8,5c1.9,3.1,4.2,6.5,6.4,9.3c0.4,0.5,1.9,2.3,2.4,2.8c0.2,0.2,0.4,0.5,0.6,0.7
	c0.1,0.1,0.2,0.2,0.3,0.3l0.9,1c0.6,0.7,1.9,2,2.6,2.7c0.2,0.2,0.5,0.4,0.7,0.6c0.3,0.3,1.6,1.5,2,1.9c0.6,0.5,1.5,1.3,2.1,1.8
	l1.4,1.2c0.5,0.4,0.9,0.8,1.5,1.1c0.2,0.2,0.6,0.3,0.9,0.5c0.5,0.2,0.9,0.2,1,0.3h0.8c0.5-0.2,0.7,0,1.8-0.8
	c0.5-0.3,1.6-1.3,2.2-1.8l3.2-2.7c0.9-0.7,3-2.7,3.7-3.5c0.6-0.7,1.6-1.7,2.2-2.4l1.2-1.4c0.1-0.1,0.2-0.3,0.3-0.4
	c0.2-0.2,0.4-0.5,0.6-0.7c2.8-3.3,5.4-7,7.6-10.7c1.3-2.1,2.6-4.5,3.7-6.7c1.8-3.7,3.2-7.1,4.6-11.1c0.4-1.1,0.3-0.8,0.9-1.7
	c0.1-0.2,0.4-0.6,0.5-0.8c0.1-0.5-0.2-0.7-0.5-0.8c-0.5-0.2-1.1,0.4-1.6,0.9l-1.5,1.1c0.1-0.4,0.3-1,0.4-1.4c0.2-0.5,0.3-1,0.4-1.4
	c0.3-0.9,0.1-0.6,0.7-1.1l2.1-1.6c0.8-0.6,2.5-1.9,3.2-2.4c0.2-0.2,0.2-0.2,0.3-0.5c0.6-1.5,1.2-3.4,1.6-5c0.1-0.5,0.4-1,0.1-1.5
	c-0.1-0.2-0.3-0.3-0.6-0.3c-0.4,0-2.3,1.6-2.9,1.8c0.1-0.7,0.5-1.8-0.1-2.2c-0.7-0.5-1.3,0.5-1.8,0.7c0-0.2,0.1-0.4,0.1-0.6
	c0.1-0.3,0-0.3,0.2-0.5c1-0.8,6.4-4.8,6.5-5c0.2-0.2,0.2-0.8,0.3-1.1c0.1-0.8,0.3-1.7,0.4-2.5c0-0.3,0.2-0.9,0.1-1.2
	c-0.1-0.3-0.5-0.5-0.9-0.4c-0.1,0.1-0.3,0.2-0.4,0.3c-0.3,0.2-1.2,0.7-1.4,0.8c0-0.6,0-1.1-0.4-1.3c-0.5-0.3-0.9,0.1-1.2,0.4l-2,1.5
	c0-1.2-0.1-0.8,1.1-1.7c1.7-1.4,3.6-2.7,5.3-4.1c0.6-0.5,0.6-0.3,0.7-1.5c0.1-0.9,0.1-1.8,0.2-2.7c0-0.8,0.3-2.1-0.7-2.1
	c-0.4,0-1.5,0.9-1.9,1.1c-0.1-0.6,0.1-1.5-0.6-1.7c-0.6-0.2-1,0.6-1.5,0.8l-0.3-0.5l4.6-3.6c0.4-0.3,0.3-0.2,0.5-0.7v-4
	c-0.1-0.2-0.1-5.2-0.1-5.9c0-1-0.1-1.9-0.2-2.9c0-0.5-0.1-0.9-0.1-1.4C92.2,1.2,92,1.3,91.7,1h-0.4c-0.4,0.3-0.4,0.1-0.6,0.9
	c-0.2,1.2-0.5,2.3-0.8,3.5l-2.3,9.2c-0.4,1.5-0.8,3.1-1.2,4.5c-0.1-0.1-0.2-0.2-0.4-0.3c-1.1-0.8-1.8-1.1-3-1.6
	c-3.8-1.5-8.3-2.7-12.4-3.5c-12.2-2.3-26.8-2-39.1,0.1c-3,0.5-5.8,1.2-8.6,2c-1.6,0.5-5.6,1.8-7,2.9c-0.1,0.1-0.1,0.1-0.2,0.1
	l-0.2,0.1L11.1,1.6C10.9,1,10,1.1,9.8,1.7C9.6,2.2,9.5,7.1,9.5,7.8C9.5,8.4,9.5,11.9,9.4,12.1z"/>
<g>
	<path class="st1" d="M49,15.8c12.1,0.2,22.2,1.1,31.9,4.9c2.7,1.1,3.8,2.5,3.7,5.7C83.9,50.1,77.3,71.3,61,88.7
		c-2.5,2.7-5.3,4.9-8.1,7.3c-1.5,1.3-2.6,1-4.1-0.1C32.8,83.3,23.6,66.5,19.4,46.6c-1.5-7-2.2-14-2.2-21.1c0-2.4,0.8-3.5,2.9-4.4
		c6-2.6,12.4-3.9,18.8-4.5C42.8,16.1,46.8,15.6,49,15.8z"/>
	<path class="st1" d="M86.6,22.7c0.3-0.2,0.6-0.3,0.9-0.4c-0.4-2.1-1.7-3.4-4.2-4.4c-9.9-3.9-21.2-5.6-34.5-5.2
		c-3.5,0.1-7.2,0.3-11,0.7c-7.9,0.8-14.4,2.4-20.3,4.9c-2.1,0.9-3.1,2.1-3.3,4.1c0.3,0,0.6,0.1,0.9,0.2c0.2-1.8,0.9-2.7,2.7-3.5
		c5.8-2.5,12.2-4,20-4.8c3.8-0.4,7.5-0.6,10.9-0.7C62,13.2,73.2,14.9,83,18.8C85.3,19.7,86.3,20.8,86.6,22.7z"/>
	<linearGradient id="SVGID_1_" gradientUnits="userSpaceOnUse" x1="45.0333" y1="58.955" x2="49.0607" y2="58.955">
		<stop  offset="0" style="stop-color:#979797"/>
		<stop  offset="0.2" style="stop-color:#AFAFAF"/>
		<stop  offset="0.44" style="stop-color:#C9C9C9"/>
		<stop  offset="0.74" style="stop-color:#D6D6D6"/>
		<stop  offset="0.94" style="stop-color:#E5E5E5"/>
		<stop  offset="0.96" style="stop-color:#E5E5E5"/>
		<stop  offset="1" style="stop-color:#E5E5E5"/>
	</linearGradient>
	<path class="st2" d="M45.3,56h-0.2v-0.9h1.8V56h-0.3l0,1.3c0.2-0.6,0.4-1.1,0.6-1.4v-0.8H49v0.9h-0.5c-0.3,0.5-0.8,1.2-1.4,2.1
		l1.5,3.7h0.4v0.9h-1.8v-0.9h0.2c-0.2-0.5-0.5-1.3-0.9-2.3h0v2.3h0.2v0.9H45v-0.9h0.3V56z"/>
	<linearGradient id="SVGID_2_" gradientUnits="userSpaceOnUse" x1="50.1121" y1="61.9174" x2="51.3814" y2="61.9174">
		<stop  offset="0" style="stop-color:#E5E5E5"/>
		<stop  offset="9.000000e-002" style="stop-color:#E5E5E5"/>
		<stop  offset="0.22" style="stop-color:#D7D7D7"/>
		<stop  offset="0.45" style="stop-color:#C9C9C9"/>
		<stop  offset="0.78" style="stop-color:#C9C9C9"/>
		<stop  offset="1" style="stop-color:#C9C9C9"/>
	</linearGradient>
	<rect x="50.1" y="61.2" class="st3" width="1.3" height="1.4"/>
	<linearGradient id="SVGID_3_" gradientUnits="userSpaceOnUse" x1="52.8683" y1="58.9576" x2="56.4444" y2="58.9576">
		<stop  offset="0" style="stop-color:#B7B7B7"/>
		<stop  offset="0.45" style="stop-color:#C2C2C2"/>
		<stop  offset="0.86" style="stop-color:#CCCCCC"/>
		<stop  offset="0.91" style="stop-color:#CCCCCC"/>
		<stop  offset="1" style="stop-color:#CCCCCC"/>
	</linearGradient>
	<path class="st4" d="M55.1,56.6c0-0.3-0.1-0.4-0.3-0.4h-0.4c-0.2,0-0.3,0.1-0.3,0.4v4.7c0,0.3,0.1,0.4,0.3,0.4h0.4
		c0.2,0,0.3-0.1,0.3-0.4v-0.6c0,0,0,0,0,0l1.1-0.3c0,0,0,0,0,0v1.2c0,0.4-0.3,0.7-0.8,1c-0.2,0.1-0.3,0.1-0.4,0.1h-1
		c-0.4,0-0.8-0.3-1.1-0.8c-0.1-0.1-0.1-0.2-0.1-0.3v-5.3c0-0.4,0.3-0.7,0.8-1c0.2-0.1,0.3-0.1,0.4-0.1h1c0.4,0,0.8,0.3,1.1,0.8
		c0.1,0.1,0.1,0.2,0.1,0.3l0,0.4l0.2-0.1l0,0.8l-1.3,0.5L55.1,56.6z"/>
	<linearGradient id="SVGID_4_" gradientUnits="userSpaceOnUse" x1="57.4115" y1="61.9174" x2="58.6811" y2="61.9174">
		<stop  offset="0" style="stop-color:#CCCCCC"/>
		<stop  offset="0.8296" style="stop-color:#ADADAD"/>
		<stop  offset="1" style="stop-color:#A6A6A6"/>
	</linearGradient>
	<rect x="57.4" y="61.2" class="st5" width="1.3" height="1.4"/>
	<path class="st1" d="M82.1,57.3c-0.3,0.6-0.7,1.1-1.3,1.4C76.6,71,70.1,81.6,61.4,91c-2.3,2.4-4.9,4.6-7.4,6.7
		c-0.4,0.4-0.8,0.7-1.3,1.1c-1.3,1.1-2.2,1.1-3.8-0.1C35.7,88.2,26.4,74.9,20.9,58.3c-0.6-0.2-1-0.6-1.3-1
		c5.6,17.4,15.1,31.3,28.8,42.1c0.9,0.7,1.7,1.2,2.6,1.2c0.7,0,1.5-0.3,2.4-1c0.4-0.4,0.8-0.7,1.3-1.1c2.5-2.1,5.1-4.3,7.5-6.8
		c9.3-9.9,16.1-21.3,20.3-34.4C82.2,57.3,82.2,57.3,82.1,57.3z"/>
	<g>
		<linearGradient id="SVGID_5_" gradientUnits="userSpaceOnUse" x1="53.2228" y1="59.2015" x2="86.798" y2="59.2015">
			<stop  offset="0" style="stop-color:#B7B7B7"/>
			<stop  offset="6.000000e-002" style="stop-color:#9E9E9E"/>
			<stop  offset="0.31" style="stop-color:#848484"/>
			<stop  offset="0.44" style="stop-color:#B3B3B3"/>
			<stop  offset="0.62" style="stop-color:#E5E5E5"/>
			<stop  offset="0.76" style="stop-color:#B5B5B5"/>
			<stop  offset="1" style="stop-color:#848484"/>
			<stop  offset="1" style="stop-color:#848484"/>
		</linearGradient>
		<path class="st6" d="M85.2,42.4L62.7,59.7C57.8,66,54.1,71.5,51.4,76l35.4-27.1c0.7-1.9,1.3-3.9,1.9-6l-3.9,2.6L85.2,42.4z"/>
		<linearGradient id="SVGID_6_" gradientUnits="userSpaceOnUse" x1="69.2435" y1="42.1467" x2="89.6797" y2="42.1467">
			<stop  offset="0" style="stop-color:#B7B7B7"/>
			<stop  offset="6.000000e-002" style="stop-color:#9E9E9E"/>
			<stop  offset="0.31" style="stop-color:#848484"/>
			<stop  offset="0.44" style="stop-color:#B3B3B3"/>
			<stop  offset="0.62" style="stop-color:#E5E5E5"/>
			<stop  offset="0.76" style="stop-color:#B5B5B5"/>
			<stop  offset="1" style="stop-color:#848484"/>
			<stop  offset="1" style="stop-color:#848484"/>
		</linearGradient>
		<path class="st7" d="M87.9,31.5l-10,7.7c-2.6,4.2-5.8,8.7-9.7,13.7l22.1-16.9c0.2-1.4,0.4-2.8,0.6-4.2L88,33.4L87.9,31.5z"/>
		<linearGradient id="SVGID_7_" gradientUnits="userSpaceOnUse" x1="21.986" y1="73.5733" x2="79.9554" y2="73.5733">
			<stop  offset="0" style="stop-color:#B7B7B7"/>
			<stop  offset="6.000000e-002" style="stop-color:#9E9E9E"/>
			<stop  offset="0.31" style="stop-color:#848484"/>
			<stop  offset="0.44" style="stop-color:#B3B3B3"/>
			<stop  offset="0.62" style="stop-color:#E5E5E5"/>
			<stop  offset="0.76" style="stop-color:#B5B5B5"/>
			<stop  offset="1" style="stop-color:#848484"/>
			<stop  offset="1" style="stop-color:#848484"/>
		</linearGradient>
		<path class="st8" d="M79.7,57L50.9,79l-28.6-22l1,2.7l-4.4-3.5C25.6,67.1,38,77.2,47.1,83.7c-2.3,4.6-3.1,7.1-3.1,7.1
			s2.8-1.6,6.9-4.4c4.2,2.9,7,4.5,7,4.5s-0.7-2.5-3.1-7.3c9.1-6.5,21.6-16.7,28.4-27.5l-4.4,3.5L79.7,57z"/>
		<linearGradient id="SVGID_8_" gradientUnits="userSpaceOnUse" x1="81.2222" y1="27.4523" x2="91.2101" y2="27.4523">
			<stop  offset="0" style="stop-color:#B7B7B7"/>
			<stop  offset="6.000000e-002" style="stop-color:#9E9E9E"/>
			<stop  offset="0.31" style="stop-color:#848484"/>
			<stop  offset="0.44" style="stop-color:#B3B3B3"/>
			<stop  offset="0.62" style="stop-color:#E5E5E5"/>
			<stop  offset="0.76" style="stop-color:#B5B5B5"/>
			<stop  offset="1" style="stop-color:#848484"/>
			<stop  offset="1" style="stop-color:#848484"/>
		</linearGradient>
		<path class="st9" d="M89.1,20.6l-3.3,2.6c-1.4,3.7-3,7.3-5,11.1L91.4,26c0.1-1.6,0.2-3.2,0.3-4.8l-2.5,1.6L89.1,20.6z"/>
		<linearGradient id="SVGID_9_" gradientUnits="userSpaceOnUse" x1="87.2294" y1="10.5929" x2="91.73" y2="10.5929">
			<stop  offset="0" style="stop-color:#B7B7B7"/>
			<stop  offset="6.000000e-002" style="stop-color:#9E9E9E"/>
			<stop  offset="0.31" style="stop-color:#848484"/>
			<stop  offset="0.44" style="stop-color:#B3B3B3"/>
			<stop  offset="0.62" style="stop-color:#E5E5E5"/>
			<stop  offset="0.76" style="stop-color:#B5B5B5"/>
			<stop  offset="1" style="stop-color:#848484"/>
			<stop  offset="1" style="stop-color:#848484"/>
		</linearGradient>
		<path class="st10" d="M92,12L92,12c0-1.5-0.1-3.3-0.1-5.1l0,0c0-0.1,0-0.1,0-0.2l0,0c-0.1-3.3-0.3-5.3-0.3-5.3
			c-0.1,0.5-0.2,1-0.3,1.5c-0.8,3.2-2.8,11.3-4.2,16.7l5-3.8C92,14.5,92,13.3,92,12z"/>
		<linearGradient id="SVGID_10_" gradientUnits="userSpaceOnUse" x1="15.1681" y1="59.3061" x2="48.7432" y2="59.3061">
			<stop  offset="0" style="stop-color:#B7B7B7"/>
			<stop  offset="6.000000e-002" style="stop-color:#9E9E9E"/>
			<stop  offset="0.31" style="stop-color:#848484"/>
			<stop  offset="0.44" style="stop-color:#B3B3B3"/>
			<stop  offset="0.62" style="stop-color:#E5E5E5"/>
			<stop  offset="0.76" style="stop-color:#B5B5B5"/>
			<stop  offset="1" style="stop-color:#848484"/>
			<stop  offset="1" style="stop-color:#848484"/>
		</linearGradient>
		<path class="st11" d="M39.3,59.8L16.8,42.5l0.5,3.1L13.3,43c0.5,2.1,1.2,4.1,1.9,6l35.4,27.1C47.9,71.6,44.2,66.1,39.3,59.8z"/>
		<linearGradient id="SVGID_11_" gradientUnits="userSpaceOnUse" x1="12.2995" y1="42.2515" x2="32.7357" y2="42.2515">
			<stop  offset="0" style="stop-color:#B7B7B7"/>
			<stop  offset="6.000000e-002" style="stop-color:#9E9E9E"/>
			<stop  offset="0.31" style="stop-color:#848484"/>
			<stop  offset="0.44" style="stop-color:#B3B3B3"/>
			<stop  offset="0.62" style="stop-color:#E5E5E5"/>
			<stop  offset="0.76" style="stop-color:#B5B5B5"/>
			<stop  offset="1" style="stop-color:#848484"/>
			<stop  offset="1" style="stop-color:#848484"/>
		</linearGradient>
		<path class="st12" d="M24.1,39.3l-10-7.7L14,33.5l-2.8-1.6c0.2,1.4,0.4,2.8,0.6,4.2l22.1,16.9C29.9,47.9,26.7,43.4,24.1,39.3z"/>
		<linearGradient id="SVGID_12_" gradientUnits="userSpaceOnUse" x1="10.7807" y1="27.557" x2="20.7674" y2="27.557">
			<stop  offset="0" style="stop-color:#B7B7B7"/>
			<stop  offset="6.000000e-002" style="stop-color:#9E9E9E"/>
			<stop  offset="0.31" style="stop-color:#848484"/>
			<stop  offset="0.44" style="stop-color:#B3B3B3"/>
			<stop  offset="0.62" style="stop-color:#E5E5E5"/>
			<stop  offset="0.76" style="stop-color:#B5B5B5"/>
			<stop  offset="1" style="stop-color:#848484"/>
			<stop  offset="1" style="stop-color:#848484"/>
		</linearGradient>
		<path class="st13" d="M16.3,23.3l-3.3-2.6L12.8,23l-2.5-1.6c0.1,1.6,0.2,3.2,0.3,4.8l10.8,8.3C19.3,30.6,17.6,27,16.3,23.3z"/>
		<linearGradient id="SVGID_13_" gradientUnits="userSpaceOnUse" x1="10.2669" y1="10.7894" x2="14.7662" y2="10.7894">
			<stop  offset="0" style="stop-color:#B7B7B7"/>
			<stop  offset="6.000000e-002" style="stop-color:#9E9E9E"/>
			<stop  offset="0.31" style="stop-color:#848484"/>
			<stop  offset="0.44" style="stop-color:#B3B3B3"/>
			<stop  offset="0.62" style="stop-color:#E5E5E5"/>
			<stop  offset="0.76" style="stop-color:#B5B5B5"/>
			<stop  offset="1" style="stop-color:#848484"/>
			<stop  offset="1" style="stop-color:#848484"/>
		</linearGradient>
		<path class="st14" d="M15,19.8L15,19.8c0-0.1,0-0.1-0.1-0.2C13.3,13.5,11,4,10.5,2.1c0-0.1,0-0.2-0.1-0.3c0,0,0,0,0,0c0,0,0,0,0,0
			c-0.1,1.3-0.2,3-0.3,4.9c0,0.1,0,0.3,0,0.4l0,0c-0.1,1.8-0.1,3.6-0.1,5.1l0,0c0,0.9,0,1.8,0,2.7c0,0.7,0,1.1,0,1.1L15,19.8
			C15,19.8,15,19.8,15,19.8z"/>
	</g>
	<g>
		<linearGradient id="SVGID_14_" gradientUnits="userSpaceOnUse" x1="24.9348" y1="29.8005" x2="31.74" y2="29.8005">
			<stop  offset="0" style="stop-color:#B7B7B7"/>
			<stop  offset="0.45" style="stop-color:#C2C2C2"/>
			<stop  offset="0.86" style="stop-color:#CCCCCC"/>
			<stop  offset="0.91" style="stop-color:#CCCCCC"/>
			<stop  offset="1" style="stop-color:#CCCCCC"/>
		</linearGradient>
		<path class="st15" d="M24.9,36.8v-1.4h0.6V24.2h-0.6v-1.4h0.6c0,0,0,0,0.1,0h4.1c0.7,0,1.4,0.5,1.9,1.4c0.1,0.2,0.2,0.4,0.2,0.6
			v9.9c0,0.7-0.5,1.3-1.4,1.9c-0.3,0.1-0.5,0.2-0.7,0.2H24.9L24.9,36.8z M27.9,24.6L27.9,24.6v10.7c0.8,0,1.2-0.1,1.4-0.4
			c0.2-0.2,0.3-0.9,0.3-2v-6.3c0-0.7,0-1.2-0.1-1.4c-0.1-0.2-0.2-0.4-0.4-0.5C28.9,24.7,28.5,24.6,27.9,24.6z"/>
		<linearGradient id="SVGID_15_" gradientUnits="userSpaceOnUse" x1="33.2205" y1="29.7709" x2="41.0056" y2="29.7709">
			<stop  offset="0" style="stop-color:#CCCCCC"/>
			<stop  offset="0.15" style="stop-color:#CCCCCC"/>
			<stop  offset="0.76" style="stop-color:#B4B4B4"/>
			<stop  offset="0.94" style="stop-color:#999999"/>
			<stop  offset="0.97" style="stop-color:#999999"/>
			<stop  offset="1" style="stop-color:#999999"/>
		</linearGradient>
		<path class="st16" d="M35.2,24.2h-0.8v-1.4H39v0h0c0.1,0,0.2,0.6,0.2,1.8c0,0,0.4,3.6,1,10.8H41v1.4h-3.3v-1.4h0.5
			c0-0.6,0-1,0-1.2h-1.8c0,0.2,0,0.6,0,1.2h0.4v1.4h-3.5v-1.4h1C34.5,32.5,34.8,28.7,35.2,24.2L35.2,24.2z M37.2,24.6L37.2,24.6
			L37.2,24.6l-0.6,7.6h1.3L37.2,24.6L37.2,24.6z"/>
		<linearGradient id="SVGID_16_" gradientUnits="userSpaceOnUse" x1="42.6138" y1="29.8004" x2="49.9674" y2="29.8004">
			<stop  offset="0" style="stop-color:#979797"/>
			<stop  offset="0.2" style="stop-color:#AFAFAF"/>
			<stop  offset="0.44" style="stop-color:#C9C9C9"/>
			<stop  offset="0.74" style="stop-color:#D6D6D6"/>
			<stop  offset="0.94" style="stop-color:#E5E5E5"/>
			<stop  offset="0.96" style="stop-color:#E5E5E5"/>
			<stop  offset="1" style="stop-color:#E5E5E5"/>
		</linearGradient>
		<path class="st17" d="M43.7,24.3h-1.1l0-1.5l5.3,0c0.7,0,1.4,0.5,1.9,1.4c0.1,0.2,0.2,0.4,0.2,0.6v1.9c0,0.8-0.3,1.5-1,2.1
			c0.7,0.5,1,1.2,1,2v3.9c0,0.7-0.5,1.3-1.4,1.9c-0.3,0.1-0.5,0.2-0.7,0.2h-1.5v0h-3.8v-1.4h1.1V24.3L43.7,24.3z M46.2,24.5
			L46.2,24.5V28c0.2,0,0.4,0,0.5,0c0.5,0,0.8-0.1,0.9-0.3c0.1-0.2,0.2-0.8,0.2-1.7c0-0.5-0.1-0.8-0.2-1c-0.1-0.2-0.3-0.3-0.4-0.4
			C47.1,24.5,46.7,24.5,46.2,24.5L46.2,24.5z M46.2,29.7L46.2,29.7v5.2c0.7,0,1.2-0.1,1.4-0.3c0.2-0.2,0.3-0.7,0.3-1.4v-1.7
			c0-0.8-0.1-1.3-0.3-1.4C47.4,29.8,47,29.7,46.2,29.7z"/>
		<linearGradient id="SVGID_17_" gradientUnits="userSpaceOnUse" x1="51.7816" y1="29.7709" x2="59.5667" y2="29.7709">
			<stop  offset="0" style="stop-color:#E5E5E5"/>
			<stop  offset="9.000000e-002" style="stop-color:#E5E5E5"/>
			<stop  offset="0.22" style="stop-color:#D7D7D7"/>
			<stop  offset="0.45" style="stop-color:#C9C9C9"/>
			<stop  offset="0.78" style="stop-color:#C9C9C9"/>
			<stop  offset="1" style="stop-color:#C9C9C9"/>
		</linearGradient>
		<path class="st18" d="M53.8,24.2H53v-1.4h4.5v0h0c0.1,0,0.2,0.6,0.2,1.8c0,0,0.4,3.6,1,10.8h0.7v1.4h-3.3v-1.4h0.5
			c0-0.6,0-1,0-1.2h-1.8c0,0.2,0,0.6,0,1.2h0.4v1.4h-3.5v-1.4h1C53,32.5,53.4,28.7,53.8,24.2L53.8,24.2z M55.8,24.6L55.8,24.6
			L55.8,24.6l-0.6,7.6h1.3L55.8,24.6L55.8,24.6z"/>
		<linearGradient id="SVGID_18_" gradientUnits="userSpaceOnUse" x1="61.1158" y1="29.7711" x2="68.088" y2="29.7711">
			<stop  offset="0" style="stop-color:#B7B7B7"/>
			<stop  offset="0.45" style="stop-color:#C2C2C2"/>
			<stop  offset="0.86" style="stop-color:#CCCCCC"/>
			<stop  offset="0.91" style="stop-color:#CCCCCC"/>
			<stop  offset="1" style="stop-color:#CCCCCC"/>
		</linearGradient>
		<path class="st19" d="M61.7,24.3h-0.6v-1.6h2.8c0.1,0,0.5,2.6,1.4,7.8h0v-6.3H65v-1.6h3.1v1.6h-0.6v11h0.6v1.6h-2.8v-0.1
			c-0.1-0.4-0.6-2.8-1.4-7.1h0v5.6h0.5v1.6h-3.1v-1.6h0.5V24.3z"/>
		<linearGradient id="SVGID_19_" gradientUnits="userSpaceOnUse" x1="70.0385" y1="29.8102" x2="76.854" y2="29.8102">
			<stop  offset="0" style="stop-color:#CCCCCC"/>
			<stop  offset="0.8296" style="stop-color:#ADADAD"/>
			<stop  offset="1" style="stop-color:#A6A6A6"/>
		</linearGradient>
		<path class="st20" d="M76.5,29.9v4.9c0,0.7-0.5,1.3-1.5,1.9c-0.3,0.1-0.5,0.2-0.7,0.2h-1.9c-0.9,0-1.6-0.5-2.2-1.6
			c0-0.4-0.1-0.6-0.1-0.6c0,0,0,0,0,0l0-0.4v-8.8c0-0.1,0-0.2,0-0.4c0,0,0,0,0,0c0-1,0.6-1.7,1.8-2.2l0.5,0h1.9c0.8,0,1.5,0.5,2,1.4
			c0.1,0.2,0.2,0.4,0.2,0.6v1.7c0,0.1,0,0.1-0.1,0.1l-2-0.3c-0.1,0-0.1,0-0.1-0.1v-0.9c0-0.5-0.2-0.8-0.6-0.8h-0.8
			c-0.3,0-0.5,0.2-0.6,0.7v9c0.1,0.4,0.3,0.7,0.6,0.7h0.8c0.4,0,0.6-0.3,0.6-0.8v-4.3h-0.9c0,0,0,0,0,0c0,0,0,0,0-0.1v-1.5
			c0,0,0,0,0-0.1v0h3.6v1.6H76.5z"/>
	</g>
	<linearGradient id="SVGID_20_" gradientUnits="userSpaceOnUse" x1="35.3133" y1="46.4464" x2="40.7383" y2="46.4464">
		<stop  offset="0" style="stop-color:#B7B7B7"/>
		<stop  offset="0.45" style="stop-color:#C2C2C2"/>
		<stop  offset="0.86" style="stop-color:#CCCCCC"/>
		<stop  offset="0.91" style="stop-color:#CCCCCC"/>
		<stop  offset="1" style="stop-color:#CCCCCC"/>
	</linearGradient>
	<path class="st21" d="M35.3,52.1v-1.1h0.5V42h-0.5v-1.1h0.5c0,0,0,0,0,0h3.3c0.6,0,1.1,0.4,1.5,1.1c0.1,0.2,0.1,0.3,0.1,0.5v7.9
		c0,0.6-0.4,1.1-1.1,1.5c-0.2,0.1-0.4,0.1-0.5,0.1H35.3L35.3,52.1z M37.7,42.3L37.7,42.3v8.5c0.6,0,1-0.1,1.1-0.3
		c0.1-0.2,0.2-0.7,0.2-1.6v-5c0-0.6,0-1-0.1-1.1c0-0.2-0.2-0.3-0.3-0.4C38.5,42.4,38.2,42.3,37.7,42.3z"/>
	<linearGradient id="SVGID_21_" gradientUnits="userSpaceOnUse" x1="42.5302" y1="46.4504" x2="47.073" y2="46.4504">
		<stop  offset="0" style="stop-color:#979797"/>
		<stop  offset="0.2" style="stop-color:#AFAFAF"/>
		<stop  offset="0.44" style="stop-color:#C9C9C9"/>
		<stop  offset="0.74" style="stop-color:#D6D6D6"/>
		<stop  offset="0.94" style="stop-color:#E5E5E5"/>
		<stop  offset="0.96" style="stop-color:#E5E5E5"/>
		<stop  offset="1" style="stop-color:#E5E5E5"/>
	</linearGradient>
	<path class="st22" d="M43.1,42h-0.6v-1.2h0.9v0H47c0,0,0,0,0,0h0v0c0,0,0,0,0,0v1.7c0,0,0,0,0,0v0.9h-1.2v-0.9h-1v2.5h0.5v-0.7h1.2
		v2.7h-1.2v-0.7h-0.5v3.8h1.1v-0.9h1.2V52h0c0,0,0,0-0.1,0h-3.8c0,0,0,0,0,0h-0.6v-1.2h0.6V42z"/>
	<linearGradient id="SVGID_22_" gradientUnits="userSpaceOnUse" x1="49.2321" y1="46.4583" x2="54.3293" y2="46.4583">
		<stop  offset="0" style="stop-color:#E5E5E5"/>
		<stop  offset="9.000000e-002" style="stop-color:#E5E5E5"/>
		<stop  offset="0.22" style="stop-color:#D7D7D7"/>
		<stop  offset="0.45" style="stop-color:#C9C9C9"/>
		<stop  offset="0.78" style="stop-color:#C9C9C9"/>
		<stop  offset="1" style="stop-color:#C9C9C9"/>
	</linearGradient>
	<polygon class="st23" points="49.2,52.1 49.2,50.8 49.9,50.8 49.9,42.1 49.3,42.1 49.3,40.9 52.5,40.9 52.5,42.1 51.8,42.1 
		51.8,50.7 53,50.7 53,49.6 54.3,49.6 54.3,52.1 	"/>
	<linearGradient id="SVGID_23_" gradientUnits="userSpaceOnUse" x1="56.1294" y1="46.466" x2="61.9753" y2="46.466">
		<stop  offset="0" style="stop-color:#B7B7B7"/>
		<stop  offset="0.45" style="stop-color:#C2C2C2"/>
		<stop  offset="0.86" style="stop-color:#CCCCCC"/>
		<stop  offset="0.91" style="stop-color:#CCCCCC"/>
		<stop  offset="1" style="stop-color:#CCCCCC"/>
	</linearGradient>
	<path class="st24" d="M56.6,42h-0.4v-1.1h2.7V42h-0.6v3.2h1.5V42h-0.5v-1.1H62V42h-0.4v8.9H62V52h-0.5c0,0,0,0,0,0h-1.6
		c0,0,0,0-0.1,0h-0.5v-1.1h0.5v-4.4h-1.5v4.4h0.6V52h-0.6c0,0,0,0,0,0h-1.6c0,0,0,0,0,0h-0.4v-1.1h0.4V42z"/>
	<linearGradient id="SVGID_24_" gradientUnits="userSpaceOnUse" x1="63.7913" y1="46.4698" x2="66.4837" y2="46.4698">
		<stop  offset="0" style="stop-color:#CCCCCC"/>
		<stop  offset="0.8296" style="stop-color:#ADADAD"/>
		<stop  offset="1" style="stop-color:#A6A6A6"/>
	</linearGradient>
	<path class="st25" d="M64.3,40.9C64.3,40.9,64.3,40.9,64.3,40.9l1.7,0c0,0,0,0,0,0h0.5V42h-0.4v8.9h0.4v1.1h-2.7v-1.1h0.4V42h-0.4
		v-1.1H64.3z"/>
</g>
</svg>
