<?xml version="1.0" encoding="utf-8"?>
<!-- Generator: Adobe Illustrator 23.0.0, SVG Export Plug-In . SVG Version: 6.00 Build 0)  -->
<svg version="1.1" id="Layer_1" xmlns="http://www.w3.org/2000/svg" xmlns:xlink="http://www.w3.org/1999/xlink" x="0px" y="0px"
	 viewBox="0 0 102 102" style="enable-background:new 0 0 102 102;" xml:space="preserve">
<style type="text/css">
	.st0{display:none;fill:#FFFFFF;}
	.st1{fill:#FFFFFF;}
</style>
<g>
	<rect x="1" y="1" class="st0" width="100" height="100"/>
	<g>
		<g>
			<path class="st1" d="M52.3,41.9h-3.7v12.4h3.7c4.5,0,6.2-2.5,6.2-6.2C58.5,44.5,56.8,41.9,52.3,41.9z"/>
			<path class="st1" d="M6.3,88.1c1.5,0,2.3-0.4,2.3-1.5c0-0.8-0.6-1.2-1.8-1.6l-2.2-0.7C3.1,83.8,1.8,83,1,81.9v5.3l1.5-1.1
				C3.4,87.2,4.5,88.1,6.3,88.1z"/>
			<path class="st1" d="M13.4,20.5c0-3.4-2-5.6-5.3-5.6H6.3v11.1h1.8C11.4,26.1,13.4,23.9,13.4,20.5z"/>
			<path class="st1" d="M96.7,91.9h-4.9V77.6h-4.9v-4.1H101V41.9h-9.9v29h-10v-29h-9.9v-8.4H101v-2.8h-4.4L92,20.1
				c0,0-3.8,8.8-3.8,8.8l-0.7,1.7h-5.3L92,10c0.1-0.2,0.3-0.2,0.4,0l8.6,18V1H1v9.4h7.7c5.9,0,10.3,3.8,10.3,10.1
				c0,6.3-4.4,10.1-10.3,10.1H1v34.2l15.3-32.1c0.2-0.4,0.5-0.4,0.7,0l18.2,38.1H24.8l-8.6-19.4c0.1,0-6.9,16.2-6.9,16.2l-1.4,3.2H1
				v4.8c1.1-1.6,3.2-2.5,5.4-2.5c3.3,0,5,1.2,6.1,2.4l-2.8,3c-0.8-0.8-1.6-1.3-3-1.3c-1.2,0-1.8,0.5-1.8,1.3c0,0.7,0.4,1.1,1.3,1.4
				l2.4,0.8c3.7,1.2,4.9,3,4.9,5.6c0,3.4-2.1,5.8-7,5.8c-2.4,0-4.2-0.6-5.5-1.5V101h100V77.6h-4.3L96.7,91.9L96.7,91.9z M63.1,10.4
				h5.4v8.4l6.3-8.4h5.9L74,19.2l7.6,11.5h-6.4l-4.8-7.4c0,0-1.1,1.4-1.7,2.1v5.3h-5.4L63.1,10.4L63.1,10.4z M68.4,70.9H57.6
				l-5.2-8.6h-3.7v8.6h-10V33.5h14.2c10.1,0,15.7,6.4,15.7,14.7c0,5.4-2.4,9.7-6.8,12.1L68.4,70.9z M51.1,10c0.1-0.2,0.3-0.2,0.4,0
				l9.9,20.7h-5.6L51,20.1c0,0-3.8,8.8-3.8,8.8l-0.7,1.7h-5.3L51.1,10z M33.9,30.6v-6.4h-7v6.4h-5.4V10.4h5.4v9.3h7v-9.3h5.4v20.3
				C39.3,30.6,33.9,30.6,33.9,30.6z M31.6,84.8c0,5-3.4,7.4-8,7.4c-4.6,0-8-2.4-8-7.4V73.5h4.9v11.2c0,2.1,1,3.3,3.1,3.3
				c2.1,0,3.1-1.2,3.1-3.3V73.5h4.9V84.8z M53.9,91.9h-4.9v-8.5L44.3,88c-0.1,0.1-0.1,0.1-0.2,0l-4.6-4.6v8.5h-4.9V73.1
				c0-0.2,0.1-0.2,0.2-0.1l9.5,9.1l9.3-9.1c0.1-0.1,0.2-0.1,0.2,0.1V91.9z M76.4,91.9h-4.9v-8.5L66.8,88c-0.1,0.1-0.1,0.1-0.2,0
				L62,83.4v8.5h-4.9V73.1c0-0.2,0.1-0.2,0.2-0.1l9.5,9.1l9.3-9.1c0.1-0.1,0.2-0.1,0.2,0.1L76.4,91.9L76.4,91.9z M84.6,91.9h-4.9
				V73.5h4.9V91.9z"/>
		</g>
	</g>
</g>
</svg>
