<?xml version="1.0" encoding="utf-8"?>
<!-- Generator: Adobe Illustrator 23.0.0, SVG Export Plug-In . SVG Version: 6.00 Build 0)  -->
<svg version="1.1" id="Layer_1" xmlns="http://www.w3.org/2000/svg" xmlns:xlink="http://www.w3.org/1999/xlink" x="0px" y="0px"
	 viewBox="0 0 102 102" style="enable-background:new 0 0 102 102;" xml:space="preserve">
<style type="text/css">
	.st0{fill-rule:evenodd;clip-rule:evenodd;fill:#FFFFFF;}
</style>
<g>
	<path class="st0" d="M5.1,32.2l-1.9-0.1l-0.8-0.2l-0.2-0.3c0-0.3,0.2-0.4,0.6-0.4h19.6c9.2,0,15.6,2.8,19.4,8.4
		c2.1,3.2,3.2,7.1,3.2,11.5c0,2.3-0.4,4.6-1.1,6.7c-0.8,2.3-2,4.3-3.4,6.1c-1.6,1.9-3.6,3.4-5.8,4.4c-2.4,1.1-5.1,1.7-8.1,1.7h-25
		C1.2,70.1,1,70,1,69.7c0-0.3,0.3-0.4,0.8-0.4L6.6,69c0.7-0.1,1.3-0.3,1.5-0.6l0.5-0.7c0.2-0.5,0.3-1.2,0.3-2.1v-31
		c0-1.2-0.7-2-2-2.2L5.1,32.2L5.1,32.2z M15.6,32.7l-0.1,0.8v34.4c0,0.4,0.1,0.7,0.2,0.8l0.8,0.1h2.6l6-0.2c1.6-0.2,3-0.4,4-0.8
		c1.1-0.4,2.1-1,3-1.6c0.8-0.6,1.6-1.6,2.5-2.7C36,61.5,37,59,37.7,56c0.4-2,0.6-3.8,0.6-5.7c0-1.6-0.2-3.3-0.7-5.2
		c-0.7-2.7-1.7-5-3.2-7c-2.8-3.9-7.5-5.8-13.9-5.8h-4C16,32.4,15.7,32.5,15.6,32.7L15.6,32.7z M48.8,69.8c0-0.2,0.2-0.3,0.6-0.3
		l1.4,0c0.7-0.1,1.2-0.4,1.4-0.7l0.3-1.4V56c0-0.4-0.2-0.8-0.4-1l-1-0.1l-1.4,0.4l-0.7,0c-0.1-0.2,0.2-0.4,0.9-0.6
		c1.6-0.4,3-1,4.3-1.7c0.7-0.4,1.3-0.7,1.5-0.8l0.6-0.1c0.2,0,0.3,0.4,0.3,1.1v14.3c0,0.7,0.2,1.2,0.4,1.5c0.4,0.4,1.2,0.5,2.4,0.5
		c0.4,0,0.7,0.1,0.7,0.3c0,0.2-0.1,0.2-0.4,0.2H49.2C48.9,70.1,48.8,70,48.8,69.8L48.8,69.8z M94.9,55.8c-1,1-1.6,2.2-2,3.6v8.3
		c0,0.7,0.3,1.3,0.8,1.6l1.2,0.2l1.2,0.1c0.3,0,0.4,0.1,0.4,0.3L96.5,70l-0.3,0.1H85.7c-0.3,0-0.5-0.1-0.5-0.3l0.3-0.2l1.8-0.1
		c0.7-0.1,1.1-0.4,1.3-0.7l0.3-0.9V56.1l-0.2-0.9l-0.3-0.2c-0.1-0.1-0.3-0.2-0.5-0.2c-0.3,0-0.6,0-1,0.2l-1,0.3l-0.6-0.1
		c-0.1-0.1-0.1-0.2,0.1-0.3l0.8-0.4c1.9-0.6,3.5-1.2,4.5-1.8l1.3-0.7l0.6,0l0.2,0.5v4.3c1.5-2.4,2.6-3.8,3.4-4.3
		c0.5-0.3,1-0.5,1.3-0.6l0.7-0.1c0.4,0,0.9,0.1,1.5,0.4c0.7,0.4,1.1,1.1,1.2,1.9c0,0.7-0.2,1.2-0.6,1.6c-0.4,0.3-0.8,0.4-1.1,0.3
		c-0.3-0.1-0.6-0.2-0.8-0.4L98,55.1c-0.4-0.6-0.8-0.8-1.3-0.6C96.1,54.6,95.5,55.1,94.9,55.8L94.9,55.8z M54.1,39.7
		c-0.7,0-1.3,0.3-1.8,0.7c-0.5,0.5-0.8,1.1-0.7,1.8c0,0.7,0.2,1.3,0.7,1.8c0.5,0.5,1.1,0.7,1.8,0.7c0.7,0,1.3-0.3,1.8-0.7
		c0.5-0.5,0.8-1.1,0.8-1.8c0-0.7-0.3-1.3-0.8-1.8C55.4,40,54.8,39.7,54.1,39.7L54.1,39.7z M64.4,55.3c0.7-0.9,1.6-1.7,2.6-2.3
		c0.9-0.5,1.9-0.9,2.8-1.1l3.6-0.2c1.3,0.1,2.5,0.3,3.6,0.8c2.6,1.2,4.3,3.3,4.9,6.4c0.6,3.2,0.1,5.8-1.6,8c-1.5,1.8-3.4,3-5.8,3.5
		c-2.6,0.6-4.9,0.4-7.1-0.5c-2.8-1.1-4.5-3.4-5-6.7C62,60.2,62.6,57.5,64.4,55.3L64.4,55.3z M75.9,54.4c-1.2-1.3-2.7-1.9-4.5-1.8
		c-1.8,0.2-3.1,1.2-4,3c-0.8,1.7-1.1,3.7-0.8,6.1c0.2,2.4,1,4.3,2.2,5.8c1.3,1.5,2.8,2.2,4.5,1.9c1.7-0.3,3-1.3,3.8-2.8
		c0.8-1.6,1.1-3.7,0.9-6.3C77.8,57.7,77.1,55.8,75.9,54.4L75.9,54.4z"/>
	<path class="st0" d="M48.7,55.3v0.2l-0.4-0.3v0.1l0,0.2h-0.1c0,0,0-0.1,0-0.2v-0.1h0l0.4,0.3v-0.3h0.1L48.7,55.3L48.7,55.3z"/>
	<polygon class="st0" points="49.4,55.1 49.2,55.1 49.2,55.3 49.4,55.3 49.4,55.3 49.2,55.3 49.2,55.4 49.4,55.4 49.4,55.5 
		49.1,55.5 49.1,55.1 49.4,55.1 49.4,55.1 	"/>
	<path class="st0" d="M50.5,55.1L50.5,55.1l-0.2,0.4h-0.1l-0.2-0.3l-0.2,0.3h0c-0.1-0.2-0.2-0.3-0.2-0.4h0.1l0.1,0.3l0.2-0.3h0.1
		l0.1,0.3L50.5,55.1L50.5,55.1L50.5,55.1z"/>
	<polygon class="st0" points="51,55.3 51.1,55.5 51,55.5 51,55.3 50.8,55.1 50.9,55.1 51,55.3 51.2,55.1 51.3,55.1 51,55.3 	"/>
	<path class="st0" d="M51.6,55.2c0,0,0.1-0.1,0.2-0.1c0.1,0,0.2,0,0.2,0.1c0,0,0.1,0.1,0.1,0.1L52,55.4c-0.1,0-0.1,0-0.2,0
		c-0.1,0-0.2,0-0.2,0l-0.1-0.1C51.5,55.2,51.5,55.2,51.6,55.2L51.6,55.2z M52,55.2l-0.2,0l-0.2,0c0,0-0.1,0.1-0.1,0.1
		c0,0,0,0.1,0.1,0.1l0.2,0.1c0.1,0,0.1,0,0.2-0.1c0,0,0.1-0.1,0.1-0.1C52,55.2,52,55.2,52,55.2L52,55.2z"/>
	<path class="st0" d="M52.5,55.1l0,0.1h0.1c0.1,0,0.2,0,0.2-0.1C52.7,55.2,52.7,55.1,52.5,55.1L52.5,55.1L52.5,55.1z M52.6,55.1
		c0.1,0,0.2,0,0.2,0.1l-0.1,0.1l-0.1,0l0.2,0.2h-0.1l-0.2-0.2h0l0,0.2h-0.1v-0.4H52.6L52.6,55.1z"/>
	<polygon class="st0" points="53.6,55.1 53.4,55.3 53.6,55.5 53.5,55.5 53.3,55.3 53.3,55.3 53.3,55.3 53.3,55.5 53.2,55.5 
		53.2,55.1 53.3,55.1 53.3,55.3 53.3,55.3 53.6,55.1 53.6,55.1 	"/>
</g>
</svg>
