<?xml version="1.0" encoding="utf-8"?>
<!-- Generator: Adobe Illustrator 19.0.0, SVG Export Plug-In . SVG Version: 6.00 Build 0)  -->
<svg version="1.1" id="Layer_1" xmlns="http://www.w3.org/2000/svg" xmlns:xlink="http://www.w3.org/1999/xlink" x="0px" y="0px"
	 viewBox="0 0 102 102" style="enable-background:new 0 0 102 102;" xml:space="preserve">
<style type="text/css">
	.st0{fill:#FFFFFF;}
	.st1{fill:none;stroke:#000000;stroke-width:0.3;stroke-miterlimit:10;}
</style>
<path class="st0" d="M22.8,46.6c0,4.9-3.6,8.6-8.4,8.6H7.5V37.9h6.9C19.1,37.9,22.8,41.7,22.8,46.6 M19,46.6c0-3-1.9-4.8-4.6-4.8h-3
	v9.6h3C17.1,51.4,19,49.5,19,46.6z"/>
<path class="st0" d="M24.2,46.6c0-5.1,4-9,9-9c4.9,0,9,3.9,9,9c0,5.1-4,9-9,9C28.3,55.5,24.2,51.6,24.2,46.6 M38.2,46.6
	c0-3.1-2.2-5.1-5-5.1c-2.8,0-5,2-5,5.1s2.2,5.1,5,5.1C36,51.7,38.2,49.6,38.2,46.6z"/>
<rect x="76" y="38" class="st0" width="3.9" height="17.2"/>
<polygon class="st0" points="94.4,41.8 90,41.8 90,55.3 86.1,55.3 86.1,41.8 81.6,41.8 81.6,38 94.4,38 "/>
<path class="st0" d="M51.7,35.9h-4c-0.3,0-0.5,0.2-0.5,0.5v4.1c0,0.3,0.2,0.5,0.5,0.5s0.5-0.2,0.5-0.5v-3.6h3.5
	c0.3,0,0.5-0.2,0.5-0.5C52.3,36.1,52,35.9,51.7,35.9"/>
<path class="st0" d="M51.7,56.4h-3.5v-3.5c0-0.3-0.2-0.5-0.5-0.5s-0.5,0.2-0.5,0.5v4c0,0.3,0.2,0.5,0.5,0.5h4c0.3,0,0.5-0.2,0.5-0.5
	C52.3,56.6,52,56.4,51.7,56.4"/>
<path class="st0" d="M69.7,35.8h-4.1c-0.3,0-0.5,0.2-0.5,0.5c0,0.3,0.2,0.5,0.5,0.5h3.6v3.6c0,0.3,0.2,0.5,0.5,0.5
	c0.1,0,0.3-0.1,0.4-0.2c0.1-0.1,0.2-0.2,0.2-0.4v-4.1C70.2,36,70,35.8,69.7,35.8"/>
<path class="st0" d="M69.7,52.4c-0.3,0-0.5,0.2-0.5,0.5v3.5h-3.6c-0.3,0-0.5,0.2-0.5,0.5c0,0.3,0.2,0.5,0.5,0.5h4.1
	c0.1,0,0.3-0.1,0.4-0.2c0.1-0.1,0.2-0.2,0.2-0.4v-4C70.2,52.6,70,52.4,69.7,52.4"/>
<path class="st0" d="M90.2,60.4v1.1h1.6v4.7h1.1v-4.7h1.6v-1.1H90.2z M88.4,64l-2.5-3.5H85v5.8h1.1v-3.5l2.5,3.5h0.9v-5.8h-1.1V64z
	 M81.8,63.8H84v-1.1h-2.2v-1.2h2.4v-1.1h-3.5v5.8h3.6v-1.1h-2.4V63.8z M78.4,60.4l-1.7,2.7l-1.7-2.7h-1.2v5.8h1.1v-3.7l1.6,2.7h0.1
	l1.6-2.7v3.7h1.1v-5.8H78.4z M70.7,63.8h2.2v-1.1h-2.2v-1.2h2.4v-1.1h-3.5v5.8h3.6v-1.1h-2.4V63.8z M65.9,63.1v1h1.7
	c-0.2,0.7-0.8,1.1-1.7,1.1c-0.6,0-1.1-0.2-1.4-0.5c-0.4-0.4-0.5-0.8-0.5-1.4c0-0.6,0.2-1,0.5-1.4c0.4-0.4,0.8-0.5,1.4-0.5
	c0.7,0,1.3,0.3,1.6,0.8l1-0.6c-0.5-0.8-1.4-1.3-2.5-1.3c-0.9,0-1.6,0.3-2.2,0.9c-0.6,0.6-0.9,1.3-0.9,2.1c0,0.8,0.3,1.5,0.9,2.1
	c0.6,0.6,1.3,0.9,2.2,0.9c0.8,0,1.5-0.3,2-0.8c0.5-0.5,0.8-1.2,0.8-2v-0.4H65.9z M60,61.8l0.8,2.4h-1.6L60,61.8z M62.7,66.2l-2-5.8
	h-1.4l-2,5.8h1.2l0.3-1h2.3l0.3,1H62.7z M55.6,64l-2.5-3.5h-0.9v5.8h1.1v-3.5l2.5,3.5h0.9v-5.8h-1.1V64z M48.9,61.8l0.8,2.4h-1.6
	L48.9,61.8z M51.7,66.2l-2-5.8h-1.4l-2,5.8h1.2l0.3-1h2.3l0.3,1H51.7z M44.5,60.4l-1.7,2.7l-1.7-2.7H40v5.8h1.1v-3.7l1.6,2.7h0.1
	l1.6-2.7v3.7h1.1v-5.8H44.5z M35.1,66.3c0.6,0,1.1-0.2,1.5-0.5c0.4-0.3,0.6-0.7,0.6-1.3c0-0.3-0.1-0.6-0.2-0.8
	c-0.1-0.2-0.4-0.4-0.5-0.5c-0.1-0.1-0.2-0.1-0.4-0.2c-0.2-0.1-0.3-0.1-0.4-0.1l-0.4-0.1c-0.4-0.1-0.7-0.3-0.9-0.4
	c-0.1-0.1-0.2-0.3-0.2-0.4c0-0.3,0.3-0.6,0.8-0.6c0.5,0,0.9,0.2,1.1,0.7l1-0.6c-0.4-0.8-1.1-1.3-2.1-1.3c-0.5,0-1,0.2-1.3,0.5
	c-0.4,0.3-0.6,0.7-0.6,1.2c0,0.5,0.2,0.9,0.5,1.2c0.4,0.3,0.7,0.4,1.2,0.5c0.5,0.1,0.8,0.3,1,0.4c0.2,0.1,0.3,0.3,0.3,0.5
	c0,0.4-0.3,0.6-0.9,0.6c-0.7,0-1.1-0.3-1.3-0.9l-1,0.6C33.1,65.8,33.9,66.3,35.1,66.3z M28.4,60.4v1.1H30v4.7h1.1v-4.7h1.6v-1.1
	H28.4z M26.2,61.5c0.4,0,0.8,0.4,0.8,0.8c0,0.5-0.4,0.9-0.8,0.9H25v-1.7H26.2z M28.3,66.2L27,64c0.7-0.3,1.1-1,1.1-1.7
	c0-0.5-0.2-1-0.6-1.4c-0.4-0.4-0.8-0.6-1.4-0.6h-2.3v5.8H25v-2h0.9l1.2,2H28.3z M18.8,64.7c-0.4-0.4-0.5-0.8-0.5-1.4
	c0-0.6,0.2-1,0.5-1.4c0.4-0.4,0.8-0.5,1.3-0.5c0.5,0,1,0.2,1.3,0.5c0.4,0.4,0.5,0.8,0.5,1.4c0,0.6-0.2,1-0.5,1.4
	c-0.4,0.4-0.8,0.5-1.3,0.5C19.6,65.2,19.1,65,18.8,64.7z M22.2,65.5c0.6-0.6,0.9-1.3,0.9-2.1c0-0.8-0.3-1.6-0.9-2.1
	c-0.6-0.6-1.3-0.9-2.1-0.9c-0.8,0-1.5,0.3-2.1,0.9c-0.6,0.6-0.9,1.3-0.9,2.1c0,0.8,0.3,1.6,0.9,2.1c0.6,0.6,1.3,0.9,2.1,0.9
	C20.9,66.3,21.6,66,22.2,65.5z M13.7,63.3v-1.7h1c0.5,0,0.8,0.4,0.8,0.9c0,0.5-0.4,0.9-0.8,0.9H13.7z M12.5,60.4v5.8h1.1v-1.9h1
	c0.6,0,1-0.2,1.4-0.6c0.4-0.4,0.6-0.8,0.6-1.4c0-0.5-0.2-1-0.6-1.4c-0.4-0.4-0.8-0.6-1.4-0.6H12.5z M9.7,66.3c0.6,0,1.1-0.2,1.5-0.5
	c0.4-0.3,0.6-0.7,0.6-1.3c0-0.3-0.1-0.6-0.2-0.8c-0.1-0.2-0.4-0.4-0.5-0.5c-0.1-0.1-0.2-0.1-0.4-0.2c-0.2-0.1-0.3-0.1-0.4-0.1
	l-0.4-0.1c-0.4-0.1-0.7-0.3-0.9-0.4c-0.1-0.1-0.2-0.3-0.2-0.4c0-0.3,0.3-0.6,0.8-0.6c0.5,0,0.9,0.2,1.1,0.7l1-0.6
	c-0.4-0.8-1.1-1.3-2.1-1.3c-0.5,0-1,0.2-1.3,0.5c-0.4,0.3-0.6,0.7-0.6,1.2c0,0.5,0.2,0.9,0.5,1.2c0.4,0.3,0.7,0.4,1.2,0.5
	c0.5,0.1,0.8,0.3,1,0.4c0.2,0.1,0.3,0.3,0.3,0.5c0,0.4-0.3,0.6-0.9,0.6c-0.7,0-1.1-0.3-1.3-0.9l-1,0.6C7.8,65.8,8.6,66.3,9.7,66.3z"
	/>
<line class="st1" x1="-298.1" y1="275.6" x2="-322.1" y2="275.6"/>
<line class="st1" x1="-277.1" y1="296.6" x2="-277.1" y2="320.6"/>
<line class="st1" x1="-298.1" y1="-65.4" x2="-322.1" y2="-65.4"/>
<line class="st1" x1="-277.1" y1="-86.4" x2="-277.1" y2="-110.4"/>
<line class="st1" x1="339.9" y1="275.6" x2="363.9" y2="275.6"/>
<line class="st1" x1="318.9" y1="296.6" x2="318.9" y2="320.6"/>
</svg>
