<?xml version="1.0" encoding="utf-8"?>
<!-- Generator: Adobe Illustrator 23.0.0, SVG Export Plug-In . SVG Version: 6.00 Build 0)  -->
<svg version="1.1" id="Layer_1" xmlns="http://www.w3.org/2000/svg" xmlns:xlink="http://www.w3.org/1999/xlink" x="0px" y="0px"
	 viewBox="0 0 102 102" enable-background="new 0 0 102 102" xml:space="preserve">
<g>
	<g>
		<path fill="#FFFFFF" d="M37.783,41.72c0-1.817,0-2.151-0.025-2.534c-0.025-0.407-0.122-0.597-0.529-0.681
			c-0.099-0.023-0.308-0.036-0.481-0.036c-0.135,0-0.209-0.023-0.209-0.108c0-0.084,0.086-0.108,0.27-0.108
			c0.654,0,1.427,0.036,1.773,0.036c0.382,0,1.158-0.036,1.895-0.036c1.539,0,3.595,0,4.938,1.362
			c0.616,0.622,1.193,1.613,1.193,3.036c0,1.505-0.652,2.652-1.343,3.336c-0.567,0.561-1.847,1.411-4.124,1.411
			c-0.443,0-0.949-0.036-1.417-0.072c-0.468-0.036-0.898-0.072-1.206-0.072c-0.135,0-0.407,0-0.702,0.013
			c-0.283,0-0.603,0.023-0.85,0.023c-0.16,0-0.247-0.036-0.247-0.12c0-0.059,0.048-0.095,0.196-0.095
			c0.186,0,0.333-0.023,0.443-0.048c0.247-0.048,0.308-0.31,0.356-0.658c0.061-0.502,0.061-1.446,0.061-2.545V41.72H37.783z
			 M39.323,43.035c0,1.267,0.013,2.186,0.025,2.414c0.013,0.299,0.038,0.776,0.135,0.909c0.16,0.228,0.641,0.479,1.613,0.479
			c1.257,0,2.094-0.238,2.832-0.86c0.789-0.658,1.035-1.746,1.035-2.975c0-1.518-0.654-2.498-1.183-2.988
			c-1.132-1.052-2.536-1.195-3.496-1.195c-0.247,0-0.702,0.036-0.801,0.084c-0.112,0.048-0.148,0.108-0.148,0.238
			c-0.013,0.405-0.013,1.444-0.013,2.389V43.035z"/>
		<path fill="#FFFFFF" d="M54.132,44.195c0-0.645-0.122-0.909-0.283-1.255c-0.086-0.192-1.735-2.821-2.167-3.443
			c-0.308-0.443-0.616-0.74-0.85-0.873c-0.16-0.084-0.369-0.156-0.517-0.156c-0.099,0-0.186-0.023-0.186-0.108
			c0-0.072,0.086-0.108,0.234-0.108c0.221,0,1.145,0.036,1.552,0.036c0.259,0,0.763-0.036,1.318-0.036
			c0.122,0,0.186,0.036,0.186,0.108s-0.086,0.084-0.27,0.131c-0.112,0.023-0.173,0.12-0.173,0.215c0,0.095,0.061,0.238,0.148,0.407
			c0.173,0.358,1.895,3.239,2.094,3.574c0.122-0.287,1.674-2.916,1.847-3.287c0.122-0.264,0.173-0.466,0.173-0.622
			c0-0.12-0.048-0.251-0.259-0.299c-0.112-0.023-0.221-0.048-0.221-0.12c0-0.084,0.061-0.108,0.209-0.108
			c0.407,0,0.801,0.036,1.158,0.036c0.27,0,1.084-0.036,1.318-0.036c0.135,0,0.221,0.023,0.221,0.095c0,0.084-0.099,0.12-0.234,0.12
			c-0.122,0-0.356,0.048-0.542,0.143c-0.259,0.12-0.394,0.264-0.664,0.586c-0.407,0.479-2.129,3.287-2.351,3.801
			c-0.186,0.43-0.186,0.801-0.186,1.195v0.98c0,0.192,0,0.694,0.036,1.195c0.025,0.346,0.135,0.609,0.504,0.658
			c0.173,0.023,0.443,0.048,0.616,0.048c0.135,0,0.196,0.036,0.196,0.095c0,0.084-0.099,0.12-0.259,0.12
			c-0.776,0-1.552-0.036-1.883-0.036c-0.308,0-1.084,0.036-1.539,0.036c-0.173,0-0.27-0.023-0.27-0.12
			c0-0.059,0.061-0.095,0.196-0.095c0.173,0,0.32-0.023,0.43-0.048c0.247-0.048,0.356-0.31,0.382-0.658
			c0.036-0.502,0.036-1.004,0.036-1.195v-0.978H54.132z"/>
	</g>
	<g>
		<path fill="#FFFFFF" d="M43.704,51.208c0-0.38,0-0.449-0.004-0.529c-0.004-0.084-0.025-0.124-0.11-0.141
			c-0.021-0.004-0.063-0.008-0.101-0.008c-0.027,0-0.044-0.004-0.044-0.023c0-0.019,0.019-0.023,0.057-0.023
			c0.137,0,0.297,0.008,0.371,0.008c0.08,0,0.242-0.008,0.396-0.008c0.32,0,0.751,0,1.031,0.285
			c0.129,0.131,0.249,0.337,0.249,0.635c0,0.314-0.137,0.555-0.28,0.696c-0.118,0.118-0.386,0.295-0.86,0.295
			c-0.093,0-0.198-0.008-0.295-0.015c-0.097-0.008-0.188-0.015-0.251-0.015c-0.027,0-0.084,0-0.145,0.002
			c-0.059,0-0.127,0.004-0.177,0.004c-0.034,0-0.051-0.008-0.051-0.025c0-0.013,0.011-0.019,0.04-0.019
			c0.038,0,0.07-0.004,0.093-0.011c0.051-0.011,0.063-0.065,0.074-0.137c0.013-0.105,0.013-0.302,0.013-0.531v-0.439H43.704z
			 M44.024,51.482c0,0.264,0.002,0.458,0.004,0.504c0.002,0.063,0.008,0.162,0.027,0.19c0.034,0.048,0.133,0.099,0.337,0.099
			c0.261,0,0.436-0.051,0.59-0.179c0.164-0.137,0.215-0.365,0.215-0.622c0-0.316-0.137-0.521-0.247-0.624
			c-0.236-0.219-0.529-0.249-0.73-0.249c-0.051,0-0.148,0.008-0.167,0.017c-0.023,0.011-0.032,0.023-0.032,0.051
			c-0.002,0.084-0.002,0.302-0.002,0.5v0.314H44.024z"/>
		<path fill="#FFFFFF" d="M48.226,51.208c0-0.38,0-0.449-0.004-0.529c-0.004-0.084-0.025-0.124-0.11-0.141
			c-0.021-0.004-0.063-0.008-0.101-0.008c-0.027,0-0.044-0.004-0.044-0.023c0-0.019,0.019-0.023,0.057-0.023
			c0.07,0,0.143,0.002,0.209,0.002c0.067,0.002,0.127,0.004,0.162,0.004c0.082,0,0.595,0,0.643-0.002
			c0.048-0.004,0.091-0.011,0.11-0.015c0.013-0.002,0.027-0.011,0.04-0.011s0.015,0.011,0.015,0.023
			c0,0.017-0.013,0.048-0.021,0.162c-0.002,0.025-0.008,0.135-0.013,0.164c-0.002,0.013-0.008,0.027-0.025,0.027
			c-0.017,0-0.023-0.013-0.023-0.036c0-0.017-0.002-0.059-0.015-0.091c-0.019-0.044-0.044-0.076-0.173-0.091
			c-0.044-0.004-0.314-0.011-0.365-0.011c-0.013,0-0.019,0.008-0.019,0.025v0.633c0,0.017,0.002,0.027,0.019,0.027
			c0.057,0,0.352,0,0.411-0.004c0.061-0.004,0.101-0.013,0.122-0.038c0.019-0.019,0.027-0.032,0.042-0.032
			c0.011,0,0.019,0.004,0.019,0.019s-0.011,0.055-0.021,0.181c-0.002,0.051-0.011,0.15-0.011,0.167c0,0.019,0,0.048-0.023,0.048
			c-0.019,0-0.023-0.011-0.023-0.023c-0.002-0.025-0.002-0.057-0.011-0.091c-0.013-0.051-0.048-0.086-0.143-0.097
			c-0.048-0.004-0.304-0.008-0.365-0.008c-0.013,0-0.015,0.011-0.015,0.025v0.205c0,0.084-0.002,0.314,0,0.388
			c0.004,0.173,0.046,0.209,0.308,0.209c0.067,0,0.175,0,0.242-0.03c0.067-0.03,0.097-0.082,0.116-0.186
			c0.004-0.027,0.011-0.038,0.027-0.038c0.021,0,0.021,0.019,0.021,0.044c0,0.057-0.021,0.228-0.034,0.276
			c-0.019,0.065-0.042,0.065-0.139,0.065c-0.192,0-0.333-0.004-0.445-0.008c-0.11-0.004-0.19-0.008-0.268-0.008
			c-0.027,0-0.084,0-0.145,0.002c-0.059,0-0.127,0.004-0.177,0.004c-0.034,0-0.051-0.008-0.051-0.025
			c0-0.013,0.011-0.019,0.04-0.019c0.038,0,0.07-0.004,0.093-0.011c0.051-0.011,0.063-0.065,0.074-0.137
			c0.013-0.105,0.013-0.302,0.013-0.531V51.208z"/>
		<path fill="#FFFFFF" d="M51.994,51.208c0-0.38,0-0.449-0.004-0.529c-0.004-0.084-0.025-0.124-0.11-0.141
			c-0.021-0.004-0.063-0.008-0.101-0.008c-0.027,0-0.044-0.004-0.044-0.023c0-0.019,0.019-0.023,0.057-0.023
			c0.07,0,0.143,0.002,0.209,0.002c0.067,0.002,0.127,0.004,0.162,0.004c0.082,0,0.595,0,0.643-0.002
			c0.048-0.004,0.091-0.011,0.11-0.015c0.013-0.002,0.027-0.011,0.04-0.011s0.015,0.011,0.015,0.023
			c0,0.017-0.013,0.048-0.021,0.162c-0.002,0.025-0.008,0.135-0.013,0.164c-0.002,0.013-0.008,0.027-0.025,0.027
			s-0.023-0.013-0.023-0.036c0-0.017-0.002-0.059-0.015-0.091c-0.019-0.044-0.044-0.076-0.173-0.091
			c-0.044-0.004-0.314-0.011-0.365-0.011c-0.013,0-0.019,0.008-0.019,0.025v0.633c0,0.017,0.002,0.027,0.019,0.027
			c0.057,0,0.352,0,0.411-0.004c0.061-0.004,0.101-0.013,0.122-0.038c0.019-0.019,0.027-0.032,0.042-0.032
			c0.011,0,0.019,0.004,0.019,0.019s-0.011,0.055-0.021,0.181c-0.002,0.051-0.011,0.15-0.011,0.167c0,0.019,0,0.048-0.023,0.048
			c-0.019,0-0.023-0.011-0.023-0.023c-0.002-0.025-0.002-0.057-0.011-0.091c-0.013-0.051-0.048-0.086-0.143-0.097
			c-0.048-0.004-0.304-0.008-0.365-0.008c-0.013,0-0.015,0.011-0.015,0.025v0.205c0,0.084-0.002,0.314,0,0.388
			c0.004,0.173,0.046,0.209,0.308,0.209c0.067,0,0.175,0,0.242-0.03s0.097-0.082,0.116-0.186c0.004-0.027,0.011-0.038,0.027-0.038
			c0.021,0,0.021,0.019,0.021,0.044c0,0.057-0.021,0.228-0.034,0.276c-0.019,0.065-0.042,0.065-0.139,0.065
			c-0.192,0-0.333-0.004-0.445-0.008c-0.11-0.004-0.19-0.008-0.268-0.008c-0.027,0-0.084,0-0.145,0.002
			c-0.059,0-0.127,0.004-0.177,0.004c-0.034,0-0.051-0.008-0.051-0.025c0-0.013,0.011-0.019,0.04-0.019
			c0.038,0,0.07-0.004,0.093-0.011c0.051-0.011,0.063-0.065,0.074-0.137c0.013-0.105,0.013-0.302,0.013-0.531L51.994,51.208
			L51.994,51.208z"/>
		<path fill="#FFFFFF" d="M55.855,50.514c0.008-0.042,0.023-0.065,0.044-0.065c0.021,0,0.036,0.013,0.07,0.078l0.702,1.387
			l0.7-1.406c0.021-0.04,0.034-0.059,0.057-0.059s0.038,0.025,0.046,0.078l0.234,1.529c0.023,0.158,0.048,0.23,0.127,0.253
			c0.074,0.023,0.127,0.025,0.16,0.025c0.023,0,0.042,0.002,0.042,0.017c0,0.019-0.032,0.027-0.067,0.027
			c-0.063,0-0.42-0.004-0.521-0.013c-0.059-0.004-0.074-0.013-0.074-0.027c0-0.013,0.011-0.019,0.027-0.027
			c0.015-0.004,0.023-0.038,0.013-0.108l-0.154-1.086H57.25L56.69,52.23c-0.059,0.118-0.072,0.139-0.095,0.139
			c-0.023,0-0.048-0.051-0.091-0.124c-0.061-0.114-0.266-0.498-0.295-0.567c-0.023-0.053-0.177-0.348-0.268-0.533h-0.011
			l-0.133,0.974c-0.004,0.044-0.008,0.078-0.008,0.118c0,0.048,0.034,0.07,0.078,0.08c0.046,0.011,0.082,0.013,0.108,0.013
			c0.021,0,0.038,0.004,0.038,0.017c0,0.023-0.023,0.027-0.061,0.027c-0.108,0-0.223-0.008-0.27-0.008
			c-0.048,0-0.173,0.008-0.255,0.008c-0.025,0-0.046-0.004-0.046-0.027c0-0.013,0.015-0.017,0.042-0.017
			c0.021,0,0.038,0,0.078-0.008c0.072-0.015,0.093-0.112,0.105-0.198L55.855,50.514z"/>
		<path fill="#FFFFFF" d="M60.584,51.208c0-0.38,0-0.449-0.004-0.529c-0.004-0.084-0.025-0.124-0.11-0.141
			c-0.021-0.004-0.063-0.008-0.101-0.008c-0.027,0-0.044-0.004-0.044-0.023c0-0.019,0.017-0.023,0.057-0.023
			c0.07,0,0.143,0.002,0.209,0.002c0.067,0.002,0.127,0.004,0.162,0.004c0.082,0,0.595,0,0.643-0.002
			c0.048-0.004,0.091-0.011,0.11-0.015c0.013-0.002,0.027-0.011,0.042-0.011c0.013,0,0.015,0.011,0.015,0.023
			c0,0.017-0.013,0.048-0.021,0.162c-0.002,0.025-0.008,0.135-0.013,0.164c-0.002,0.013-0.008,0.027-0.025,0.027
			s-0.023-0.013-0.023-0.036c0-0.017-0.002-0.059-0.015-0.091c-0.017-0.044-0.044-0.076-0.173-0.091
			c-0.044-0.004-0.314-0.011-0.365-0.011c-0.013,0-0.019,0.008-0.019,0.025v0.633c0,0.017,0.002,0.027,0.019,0.027
			c0.057,0,0.352,0,0.411-0.004c0.061-0.004,0.101-0.013,0.124-0.038c0.017-0.019,0.027-0.032,0.04-0.032
			c0.011,0,0.019,0.004,0.019,0.019s-0.011,0.055-0.021,0.181c-0.002,0.051-0.011,0.15-0.011,0.167c0,0.019,0,0.048-0.023,0.048
			c-0.019,0-0.023-0.011-0.023-0.023c-0.002-0.025-0.002-0.057-0.011-0.091c-0.013-0.051-0.048-0.086-0.143-0.097
			c-0.048-0.004-0.304-0.008-0.365-0.008c-0.013,0-0.015,0.011-0.015,0.025v0.205c0,0.084-0.002,0.314,0,0.388
			c0.004,0.173,0.046,0.209,0.308,0.209c0.067,0,0.175,0,0.242-0.03s0.097-0.082,0.116-0.186c0.004-0.027,0.011-0.038,0.027-0.038
			c0.021,0,0.021,0.019,0.021,0.044c0,0.057-0.021,0.228-0.034,0.276c-0.019,0.065-0.042,0.065-0.139,0.065
			c-0.194,0-0.333-0.004-0.445-0.008c-0.11-0.004-0.19-0.008-0.268-0.008c-0.027,0-0.084,0-0.148,0.002
			c-0.059,0-0.127,0.004-0.177,0.004c-0.034,0-0.051-0.008-0.051-0.025c0-0.013,0.011-0.019,0.042-0.019
			c0.038,0,0.07-0.004,0.093-0.011c0.051-0.011,0.063-0.065,0.074-0.137c0.013-0.105,0.013-0.302,0.013-0.531v-0.436H60.584z"/>
		<path fill="#FFFFFF" d="M64.352,51.208c0-0.38,0-0.449-0.004-0.529c-0.004-0.084-0.025-0.124-0.11-0.141
			c-0.021-0.004-0.063-0.008-0.101-0.008c-0.027,0-0.044-0.004-0.044-0.023c0-0.019,0.017-0.023,0.057-0.023
			c0.137,0,0.297,0.008,0.371,0.008c0.08,0,0.242-0.008,0.396-0.008c0.32,0,0.751,0,1.031,0.285
			c0.129,0.131,0.249,0.337,0.249,0.635c0,0.314-0.137,0.555-0.28,0.696c-0.118,0.118-0.386,0.295-0.86,0.295
			c-0.093,0-0.198-0.008-0.295-0.015c-0.097-0.008-0.188-0.015-0.253-0.015c-0.027,0-0.084,0-0.145,0.002
			c-0.059,0-0.127,0.004-0.177,0.004c-0.034,0-0.051-0.008-0.051-0.025c0-0.013,0.011-0.019,0.042-0.019
			c0.038,0,0.07-0.004,0.093-0.011c0.051-0.011,0.063-0.065,0.074-0.137c0.013-0.105,0.013-0.302,0.013-0.531v-0.439H64.352z
			 M64.672,51.482c0,0.264,0.002,0.458,0.004,0.504c0.002,0.063,0.008,0.162,0.027,0.19c0.034,0.048,0.133,0.099,0.337,0.099
			c0.261,0,0.436-0.051,0.59-0.179c0.164-0.137,0.215-0.365,0.215-0.622c0-0.316-0.137-0.521-0.247-0.624
			C65.364,50.63,65.07,50.6,64.87,50.6c-0.051,0-0.148,0.008-0.167,0.017c-0.023,0.011-0.032,0.023-0.032,0.051
			c-0.002,0.084-0.002,0.302-0.002,0.5v0.314H64.672z"/>
		<path fill="#FFFFFF" d="M75.066,50.624l-0.384,0.011c-0.15,0.004-0.211,0.017-0.249,0.072c-0.025,0.038-0.038,0.067-0.044,0.086
			c-0.004,0.019-0.013,0.03-0.027,0.03c-0.017,0-0.023-0.013-0.023-0.04c0-0.04,0.048-0.268,0.055-0.287
			c0.008-0.032,0.015-0.048,0.032-0.048c0.021,0,0.046,0.025,0.11,0.03c0.074,0.008,0.173,0.013,0.257,0.013h1.018
			c0.082,0,0.139-0.008,0.177-0.013c0.038-0.008,0.059-0.013,0.07-0.013c0.019,0,0.021,0.015,0.021,0.053
			c0,0.053-0.008,0.226-0.008,0.289c-0.002,0.025-0.008,0.04-0.023,0.04c-0.021,0-0.025-0.013-0.027-0.051l-0.002-0.027
			c-0.004-0.065-0.074-0.135-0.304-0.139l-0.325-0.008v1.029c0,0.23,0,0.426,0.013,0.533c0.008,0.07,0.023,0.124,0.101,0.135
			c0.036,0.004,0.093,0.011,0.131,0.011c0.027,0,0.042,0.008,0.042,0.019c0,0.017-0.021,0.025-0.048,0.025
			c-0.169,0-0.331-0.008-0.403-0.008c-0.059,0-0.221,0.008-0.325,0.008c-0.034,0-0.051-0.008-0.051-0.025
			c0-0.013,0.011-0.019,0.042-0.019c0.038,0,0.07-0.004,0.093-0.011c0.051-0.011,0.067-0.065,0.074-0.137
			c0.013-0.105,0.013-0.302,0.013-0.531v-1.025H75.066z"/>
		<path fill="#FFFFFF" d="M78.379,51.427c0-0.426,0.291-0.978,1.063-0.978c0.641,0,1.037,0.363,1.037,0.934
			s-0.411,1.023-1.065,1.023C78.678,52.407,78.379,51.87,78.379,51.427z M80.12,51.475c0-0.559-0.331-0.907-0.753-0.907
			c-0.295,0-0.633,0.16-0.633,0.782c0,0.519,0.295,0.932,0.789,0.932C79.703,52.281,80.12,52.197,80.12,51.475z"/>
		<path fill="#FFFFFF" d="M89.012,51.208c0-0.38,0-0.449-0.004-0.529c-0.004-0.084-0.025-0.124-0.11-0.141
			c-0.021-0.004-0.063-0.008-0.101-0.008c-0.027,0-0.044-0.004-0.044-0.023c0-0.019,0.017-0.023,0.057-0.023
			c0.137,0,0.297,0.008,0.35,0.008c0.127,0,0.226-0.008,0.314-0.008c0.466,0,0.548,0.242,0.548,0.375
			c0,0.205-0.12,0.327-0.261,0.436c0.211,0.07,0.468,0.247,0.468,0.54c0,0.268-0.213,0.544-0.685,0.544
			c-0.032,0-0.105-0.004-0.179-0.008c-0.078-0.004-0.154-0.008-0.194-0.008c-0.027,0-0.084,0-0.145,0.002
			c-0.059,0-0.127,0.004-0.177,0.004c-0.034,0-0.051-0.008-0.051-0.025c0-0.013,0.011-0.019,0.042-0.019
			c0.038,0,0.07-0.004,0.093-0.011c0.051-0.011,0.063-0.065,0.074-0.137c0.013-0.105,0.013-0.302,0.013-0.531v-0.436H89.012z
			 M89.319,51.25c0,0.019,0.008,0.025,0.017,0.027c0.023,0.004,0.061,0.008,0.12,0.008c0.084,0,0.141-0.011,0.186-0.048
			c0.067-0.053,0.105-0.141,0.105-0.264c0-0.167-0.099-0.388-0.32-0.388c-0.036,0-0.059,0-0.084,0.004
			c-0.017,0.004-0.023,0.015-0.023,0.042L89.319,51.25L89.319,51.25z M89.659,51.45c-0.055-0.038-0.114-0.055-0.213-0.059
			c-0.046-0.002-0.072-0.002-0.11-0.002c-0.011,0-0.015,0.004-0.015,0.017v0.592c0,0.164,0.008,0.207,0.091,0.24
			c0.07,0.027,0.129,0.03,0.188,0.03c0.116,0,0.31-0.059,0.31-0.32C89.908,51.792,89.855,51.583,89.659,51.45z"/>
		<path fill="#FFFFFF" d="M92.921,51.208c0-0.38,0-0.449-0.004-0.529c-0.004-0.084-0.025-0.124-0.11-0.141
			c-0.021-0.004-0.063-0.008-0.101-0.008c-0.027,0-0.044-0.004-0.044-0.023c0-0.019,0.017-0.023,0.057-0.023
			c0.07,0,0.143,0.002,0.209,0.002c0.067,0.002,0.127,0.004,0.162,0.004c0.082,0,0.595,0,0.643-0.002
			c0.049-0.004,0.091-0.011,0.11-0.015c0.013-0.002,0.027-0.011,0.042-0.011c0.013,0,0.015,0.011,0.015,0.023
			c0,0.017-0.013,0.048-0.021,0.162c-0.002,0.025-0.008,0.135-0.013,0.164c-0.002,0.013-0.008,0.027-0.025,0.027
			c-0.017,0-0.023-0.013-0.023-0.036c0-0.017-0.002-0.059-0.015-0.091c-0.017-0.044-0.044-0.076-0.173-0.091
			c-0.044-0.004-0.314-0.011-0.365-0.011c-0.013,0-0.019,0.008-0.019,0.025v0.633c0,0.017,0.002,0.027,0.019,0.027
			c0.057,0,0.352,0,0.411-0.004c0.061-0.004,0.101-0.013,0.124-0.038c0.017-0.019,0.027-0.032,0.04-0.032
			c0.011,0,0.019,0.004,0.019,0.019s-0.011,0.055-0.021,0.181c-0.002,0.051-0.011,0.15-0.011,0.167c0,0.019,0,0.048-0.023,0.048
			c-0.019,0-0.023-0.011-0.023-0.023c-0.002-0.025-0.002-0.057-0.011-0.091c-0.013-0.051-0.048-0.086-0.143-0.097
			c-0.048-0.004-0.304-0.008-0.365-0.008c-0.013,0-0.015,0.011-0.015,0.025v0.205c0,0.084-0.002,0.314,0,0.388
			c0.004,0.173,0.046,0.209,0.308,0.209c0.067,0,0.175,0,0.242-0.03c0.067-0.03,0.097-0.082,0.116-0.186
			c0.004-0.027,0.011-0.038,0.027-0.038c0.021,0,0.021,0.019,0.021,0.044c0,0.057-0.021,0.228-0.034,0.276
			c-0.019,0.065-0.042,0.065-0.139,0.065c-0.194,0-0.333-0.004-0.445-0.008c-0.11-0.004-0.19-0.008-0.268-0.008
			c-0.027,0-0.084,0-0.145,0.002c-0.059,0-0.127,0.004-0.177,0.004c-0.034,0-0.051-0.008-0.051-0.025
			c0-0.013,0.011-0.019,0.042-0.019c0.038,0,0.07-0.004,0.093-0.011c0.051-0.011,0.063-0.065,0.074-0.137
			c0.013-0.105,0.013-0.302,0.013-0.531v-0.436H92.921z"/>
	</g>
	<g>
		<path fill="#FFFFFF" d="M64.415,41.72c0-1.817,0-2.151-0.025-2.534c-0.025-0.407-0.122-0.597-0.529-0.681
			c-0.099-0.023-0.308-0.036-0.481-0.036c-0.135,0-0.209-0.023-0.209-0.108c0-0.084,0.086-0.108,0.272-0.108
			c0.652,0,1.427,0.036,1.773,0.036c0.504,0,1.219-0.036,1.786-0.036c1.539,0,2.094,0.502,2.29,0.681
			c0.272,0.251,0.616,0.789,0.616,1.423c0,1.697-1.28,2.893-3.03,2.893c-0.061,0-0.196,0-0.259-0.013
			c-0.061-0.013-0.148-0.023-0.148-0.108c0-0.095,0.086-0.131,0.344-0.131c0.689,0,1.651-0.753,1.651-1.971
			c0-0.394-0.038-1.195-0.727-1.792c-0.443-0.394-0.949-0.466-1.231-0.466c-0.186,0-0.369,0.013-0.481,0.048
			c-0.061,0.023-0.099,0.095-0.099,0.228v4.78c0,1.101,0,2.043,0.061,2.558c0.036,0.335,0.112,0.597,0.481,0.645
			c0.173,0.023,0.443,0.048,0.628,0.048c0.135,0,0.196,0.036,0.196,0.095c0,0.084-0.099,0.12-0.234,0.12
			c-0.812,0-1.588-0.036-1.908-0.036c-0.283,0-1.058,0.036-1.552,0.036c-0.16,0-0.247-0.036-0.247-0.12
			c0-0.059,0.048-0.095,0.196-0.095c0.186,0,0.333-0.023,0.443-0.048c0.247-0.048,0.308-0.31,0.356-0.658
			c0.061-0.502,0.061-1.446,0.061-2.545V41.72H64.415z"/>
		<path fill="#FFFFFF" d="M72.785,44.241c-0.061,0-0.086,0.023-0.112,0.095l-0.664,1.638c-0.122,0.299-0.186,0.586-0.186,0.73
			c0,0.215,0.112,0.371,0.493,0.371h0.186c0.148,0,0.186,0.023,0.186,0.095c0,0.095-0.074,0.12-0.209,0.12
			c-0.394,0-0.923-0.036-1.305-0.036c-0.135,0-0.812,0.036-1.453,0.036c-0.16,0-0.234-0.023-0.234-0.12
			c0-0.072,0.049-0.095,0.148-0.095c0.112,0,0.283-0.013,0.382-0.023c0.567-0.072,0.801-0.479,1.046-1.075l3.091-7.411
			c0.148-0.346,0.221-0.479,0.344-0.479c0.112,0,0.186,0.108,0.308,0.382c0.295,0.658,2.267,5.438,3.053,7.255
			c0.468,1.075,0.824,1.244,1.084,1.303c0.186,0.036,0.369,0.048,0.517,0.048c0.099,0,0.16,0.013,0.16,0.095
			c0,0.095-0.112,0.12-0.567,0.12c-0.443,0-1.343,0-2.328-0.023c-0.221-0.013-0.369-0.013-0.369-0.095
			c0-0.072,0.048-0.095,0.173-0.108c0.086-0.023,0.173-0.131,0.112-0.274l-0.985-2.463c-0.025-0.059-0.061-0.084-0.122-0.084h-2.747
			V44.241z M75.298,43.645c0.061,0,0.074-0.036,0.061-0.072l-1.109-2.939c-0.013-0.048-0.025-0.108-0.061-0.108
			c-0.036,0-0.061,0.059-0.074,0.108l-1.132,2.929c-0.013,0.048,0,0.084,0.049,0.084h2.267V43.645z"/>
		<path fill="#FFFFFF" d="M82.18,38.924l-1.834,0.048c-0.715,0.023-1.01,0.084-1.193,0.346c-0.122,0.179-0.186,0.323-0.209,0.417
			s-0.061,0.143-0.135,0.143c-0.086,0-0.112-0.059-0.112-0.192c0-0.192,0.234-1.28,0.259-1.375c0.036-0.156,0.074-0.228,0.148-0.228
			c0.099,0,0.221,0.12,0.529,0.143c0.356,0.036,0.824,0.059,1.231,0.059h4.877c0.394,0,0.664-0.036,0.85-0.059
			c0.186-0.036,0.283-0.059,0.333-0.059c0.086,0,0.099,0.072,0.099,0.251c0,0.251-0.038,1.075-0.038,1.387
			c-0.013,0.12-0.036,0.192-0.112,0.192c-0.099,0-0.122-0.059-0.135-0.238l-0.013-0.131c-0.025-0.31-0.356-0.645-1.453-0.668
			l-1.552-0.036v4.9c0,1.101,0,2.043,0.061,2.558c0.038,0.335,0.112,0.597,0.481,0.645c0.173,0.023,0.443,0.048,0.628,0.048
			c0.135,0,0.196,0.036,0.196,0.095c0,0.084-0.099,0.12-0.234,0.12c-0.812,0-1.588-0.036-1.933-0.036
			c-0.283,0-1.058,0.036-1.552,0.036c-0.16,0-0.247-0.036-0.247-0.12c0-0.059,0.049-0.095,0.196-0.095
			c0.186,0,0.333-0.023,0.443-0.048c0.247-0.048,0.32-0.31,0.356-0.658c0.061-0.502,0.061-1.446,0.061-2.545v-4.902H82.18z"/>
		<path fill="#FFFFFF" d="M89.714,41.72c0-1.817,0-2.151-0.025-2.534c-0.025-0.407-0.148-0.609-0.42-0.668
			c-0.135-0.036-0.295-0.048-0.443-0.048c-0.122,0-0.196-0.023-0.196-0.12c0-0.072,0.099-0.095,0.295-0.095
			c0.468,0,1.244,0.036,1.6,0.036c0.308,0,1.035-0.036,1.503-0.036c0.16,0,0.259,0.023,0.259,0.095c0,0.095-0.074,0.12-0.196,0.12
			c-0.122,0-0.221,0.013-0.369,0.036c-0.333,0.059-0.43,0.264-0.455,0.681c-0.025,0.382-0.025,0.717-0.025,2.534v2.104
			c0,1.16,0,2.104,0.048,2.617c0.036,0.323,0.122,0.538,0.493,0.586c0.173,0.023,0.443,0.048,0.628,0.048
			c0.135,0,0.196,0.036,0.196,0.095c0,0.084-0.099,0.12-0.234,0.12c-0.812,0-1.588-0.036-1.921-0.036
			c-0.283,0-1.058,0.036-1.552,0.036c-0.16,0-0.247-0.036-0.247-0.12c0-0.059,0.048-0.095,0.196-0.095
			c0.186,0,0.333-0.023,0.443-0.048c0.247-0.048,0.32-0.251,0.356-0.597c0.063-0.502,0.063-1.446,0.063-2.606V41.72z"/>
		<path fill="#FFFFFF" d="M97.249,43.824c0,1.531,0,2.355,0.259,2.57c0.209,0.179,0.529,0.264,1.491,0.264
			c0.654,0,1.132-0.013,1.44-0.335c0.148-0.156,0.295-0.489,0.32-0.717c0.013-0.108,0.038-0.179,0.135-0.179
			c0.086,0,0.099,0.059,0.099,0.202c0,0.131-0.086,1.029-0.186,1.375c-0.074,0.264-0.135,0.323-0.776,0.323
			c-0.886,0-1.526-0.023-2.081-0.036c-0.555-0.023-0.997-0.036-1.503-0.036c-0.135,0-0.407,0-0.702,0.013
			c-0.283,0-0.603,0.023-0.85,0.023c-0.16,0-0.247-0.036-0.247-0.12c0-0.059,0.049-0.095,0.196-0.095
			c0.186,0,0.333-0.023,0.443-0.048c0.247-0.048,0.308-0.31,0.356-0.658c0.061-0.502,0.061-1.446,0.061-2.545V41.72
			c0-1.817,0-2.151-0.025-2.534c-0.025-0.407-0.122-0.597-0.529-0.681c-0.099-0.023-0.247-0.036-0.407-0.036
			c-0.135,0-0.209-0.023-0.209-0.108c0-0.084,0.086-0.108,0.272-0.108c0.578,0,1.354,0.036,1.687,0.036
			c0.295,0,1.193-0.036,1.674-0.036c0.173,0,0.259,0.023,0.259,0.108c0,0.084-0.074,0.108-0.221,0.108
			c-0.135,0-0.333,0.013-0.481,0.036c-0.333,0.059-0.43,0.264-0.455,0.681c-0.025,0.382-0.025,0.717-0.025,2.534v2.104H97.249z"/>
	</g>
	<g>
		<path fill="#FFFFFF" d="M44.117,57.796c0-1.018,0-1.206-0.015-1.421c-0.015-0.228-0.07-0.335-0.297-0.382
			c-0.055-0.013-0.173-0.021-0.27-0.021c-0.076,0-0.118-0.013-0.118-0.061c0-0.048,0.048-0.061,0.152-0.061
			c0.367,0,0.801,0.021,1.008,0.021c0.167,0,0.601-0.021,0.85-0.021c0.103,0,0.152,0.013,0.152,0.061
			c0,0.048-0.042,0.061-0.11,0.061c-0.076,0-0.118,0.006-0.2,0.021c-0.186,0.034-0.242,0.148-0.255,0.382
			c-0.015,0.215-0.015,0.403-0.015,1.421v0.938c0,0.972,0.2,1.381,0.54,1.649c0.31,0.249,0.628,0.274,0.862,0.274
			c0.304,0,0.677-0.093,0.953-0.363c0.38-0.369,0.401-0.972,0.401-1.664v-0.839c0-1.018,0-1.206-0.015-1.421
			c-0.015-0.228-0.07-0.335-0.297-0.382c-0.055-0.013-0.173-0.021-0.249-0.021c-0.076,0-0.118-0.013-0.118-0.061
			c0-0.048,0.048-0.061,0.145-0.061c0.352,0,0.786,0.021,0.795,0.021c0.082,0,0.519-0.021,0.786-0.021
			c0.097,0,0.145,0.013,0.145,0.061c0,0.048-0.042,0.061-0.124,0.061c-0.076,0-0.118,0.006-0.2,0.021
			c-0.186,0.034-0.242,0.148-0.255,0.382c-0.015,0.215-0.015,0.403-0.015,1.421v0.717c0,0.744-0.076,1.535-0.656,2.018
			c-0.491,0.409-0.987,0.483-1.436,0.483c-0.367,0-1.029-0.021-1.533-0.462c-0.352-0.308-0.616-0.805-0.616-1.777v-0.974H44.117z"/>
		<path fill="#FFFFFF" d="M51.085,60.008c0.015,0.523,0.103,0.698,0.242,0.744c0.118,0.04,0.249,0.046,0.358,0.046
			c0.076,0,0.118,0.013,0.118,0.053c0,0.053-0.061,0.067-0.158,0.067c-0.449,0-0.725-0.021-0.856-0.021
			c-0.061,0-0.386,0.021-0.746,0.021c-0.091,0-0.152-0.006-0.152-0.067c0-0.04,0.042-0.053,0.11-0.053
			c0.091,0,0.215-0.006,0.31-0.034c0.179-0.053,0.207-0.249,0.215-0.831l0.061-3.949c0-0.135,0.021-0.228,0.091-0.228
			c0.076,0,0.139,0.086,0.255,0.209c0.082,0.086,1.132,1.16,2.142,2.132c0.47,0.455,1.402,1.421,1.52,1.529h0.034l-0.07-3.011
			c-0.006-0.409-0.07-0.536-0.234-0.603c-0.103-0.04-0.27-0.04-0.367-0.04c-0.082,0-0.11-0.021-0.11-0.061
			c0-0.053,0.076-0.061,0.179-0.061c0.358,0,0.692,0.021,0.835,0.021c0.076,0,0.339-0.021,0.677-0.021
			c0.091,0,0.158,0.006,0.158,0.061c0,0.04-0.042,0.061-0.124,0.061c-0.07,0-0.124,0-0.207,0.021
			c-0.194,0.053-0.249,0.194-0.255,0.569l-0.076,4.232c0,0.148-0.027,0.209-0.091,0.209c-0.076,0-0.158-0.074-0.234-0.148
			c-0.434-0.403-1.32-1.28-2.037-1.971c-0.753-0.723-1.52-1.541-1.645-1.67h-0.021L51.085,60.008z"/>
		<path fill="#FFFFFF" d="M57.64,57.796c0-1.018,0-1.206-0.015-1.421c-0.015-0.228-0.082-0.342-0.234-0.375
			c-0.076-0.021-0.167-0.027-0.249-0.027c-0.07,0-0.11-0.013-0.11-0.067c0-0.04,0.055-0.053,0.167-0.053
			c0.261,0,0.698,0.021,0.898,0.021c0.173,0,0.58-0.021,0.843-0.021c0.091,0,0.145,0.013,0.145,0.053
			c0,0.053-0.042,0.067-0.11,0.067c-0.07,0-0.124,0.006-0.207,0.021c-0.186,0.034-0.242,0.148-0.255,0.382
			c-0.015,0.215-0.015,0.403-0.015,1.421v1.181c0,0.649,0,1.181,0.027,1.467c0.021,0.181,0.07,0.302,0.276,0.329
			c0.097,0.013,0.249,0.027,0.352,0.027c0.076,0,0.11,0.021,0.11,0.053c0,0.046-0.055,0.067-0.131,0.067
			c-0.455,0-0.892-0.021-1.077-0.021c-0.158,0-0.595,0.021-0.871,0.021c-0.091,0-0.139-0.021-0.139-0.067
			c0-0.034,0.027-0.053,0.11-0.053c0.103,0,0.186-0.013,0.249-0.027c0.139-0.027,0.179-0.141,0.2-0.335
			c0.034-0.283,0.034-0.812,0.034-1.461L57.64,57.796L57.64,57.796z"/>
		<path fill="#FFFFFF" d="M60.527,56.508c-0.158-0.369-0.276-0.443-0.525-0.51c-0.103-0.027-0.215-0.027-0.27-0.027
			c-0.061,0-0.082-0.021-0.082-0.061c0-0.053,0.076-0.061,0.179-0.061c0.367,0,0.759,0.021,1.001,0.021
			c0.173,0,0.504-0.021,0.85-0.021c0.082,0,0.158,0.013,0.158,0.061c0,0.048-0.042,0.061-0.103,0.061
			c-0.11,0-0.215,0.006-0.27,0.046c-0.048,0.034-0.07,0.08-0.07,0.141c0,0.086,0.061,0.274,0.158,0.517l1.187,3.045h0.027
			c0.297-0.738,1.195-2.897,1.36-3.34c0.034-0.086,0.061-0.188,0.061-0.249c0-0.053-0.027-0.108-0.091-0.127
			c-0.082-0.027-0.186-0.034-0.276-0.034c-0.061,0-0.118-0.006-0.118-0.053c0-0.053,0.061-0.067,0.194-0.067
			c0.346,0,0.635,0.021,0.725,0.021c0.118,0,0.443-0.021,0.649-0.021c0.091,0,0.145,0.013,0.145,0.061
			c0,0.048-0.042,0.061-0.11,0.061c-0.07,0-0.215,0-0.337,0.08c-0.091,0.061-0.194,0.175-0.38,0.603
			c-0.27,0.63-0.455,0.993-0.829,1.817c-0.443,0.978-0.767,1.71-0.919,2.045c-0.179,0.388-0.221,0.495-0.318,0.495
			c-0.091,0-0.131-0.095-0.264-0.409L60.527,56.508z"/>
		<path fill="#FFFFFF" d="M66.563,57.796c0-1.018,0-1.206-0.015-1.421c-0.015-0.228-0.07-0.335-0.297-0.382
			c-0.055-0.013-0.173-0.021-0.27-0.021c-0.076,0-0.118-0.013-0.118-0.061c0-0.048,0.048-0.061,0.152-0.061
			c0.186,0,0.386,0.006,0.559,0.006c0.179,0.006,0.339,0.013,0.434,0.013c0.221,0,1.596,0,1.727-0.006
			c0.131-0.013,0.242-0.027,0.297-0.04c0.034-0.006,0.076-0.027,0.11-0.027s0.042,0.027,0.042,0.061
			c0,0.046-0.034,0.127-0.055,0.436c-0.006,0.067-0.021,0.363-0.034,0.443c-0.006,0.034-0.021,0.074-0.07,0.074
			c-0.048,0-0.061-0.034-0.061-0.095c0-0.046-0.006-0.16-0.042-0.242c-0.049-0.12-0.118-0.2-0.464-0.24
			c-0.118-0.013-0.843-0.027-0.98-0.027c-0.034,0-0.048,0.021-0.048,0.067v1.695c0,0.046,0.006,0.074,0.048,0.074
			c0.152,0,0.947,0,1.105-0.013c0.167-0.013,0.27-0.034,0.331-0.101c0.049-0.053,0.076-0.086,0.11-0.086
			c0.027,0,0.049,0.013,0.049,0.053s-0.027,0.148-0.055,0.489c-0.006,0.135-0.027,0.403-0.027,0.449c0,0.053,0,0.127-0.061,0.127
			c-0.048,0-0.061-0.027-0.061-0.061c-0.006-0.067-0.006-0.154-0.027-0.242c-0.034-0.135-0.131-0.234-0.386-0.261
			c-0.131-0.013-0.816-0.021-0.98-0.021c-0.034,0-0.042,0.027-0.042,0.067v0.529c0,0.228-0.006,0.845,0,1.039
			c0.015,0.462,0.124,0.563,0.829,0.563c0.179,0,0.47,0,0.649-0.08c0.179-0.08,0.261-0.221,0.31-0.495
			c0.015-0.074,0.027-0.101,0.076-0.101c0.055,0,0.055,0.053,0.055,0.12c0,0.154-0.055,0.609-0.091,0.744
			c-0.048,0.175-0.11,0.175-0.373,0.175c-0.519,0-0.898-0.013-1.195-0.021c-0.297-0.013-0.51-0.021-0.719-0.021
			c-0.076,0-0.228,0-0.394,0.006c-0.158,0-0.337,0.013-0.477,0.013c-0.091,0-0.139-0.021-0.139-0.067
			c0-0.034,0.027-0.053,0.11-0.053c0.103,0,0.186-0.013,0.249-0.027c0.139-0.027,0.173-0.175,0.2-0.369
			c0.034-0.283,0.034-0.812,0.034-1.427v-1.17H66.563z"/>
		<path fill="#FFFFFF" d="M71.328,57.796c0-1.018,0-1.206-0.015-1.421c-0.015-0.228-0.07-0.335-0.297-0.382
			c-0.055-0.013-0.173-0.021-0.27-0.021c-0.076,0-0.118-0.013-0.118-0.061c0-0.048,0.049-0.061,0.152-0.061
			c0.367,0,0.801,0.021,0.947,0.021c0.234,0,0.759-0.021,0.974-0.021c0.434,0,0.898,0.04,1.271,0.289
			c0.194,0.127,0.47,0.47,0.47,0.919c0,0.495-0.215,0.953-0.911,1.501c0.616,0.751,1.092,1.347,1.499,1.763
			c0.386,0.388,0.67,0.436,0.774,0.455c0.076,0.013,0.139,0.021,0.194,0.021c0.055,0,0.082,0.021,0.082,0.053
			c0,0.053-0.048,0.067-0.131,0.067h-0.656c-0.386,0-0.559-0.034-0.74-0.127c-0.297-0.154-0.559-0.47-0.947-0.985
			c-0.276-0.369-0.595-0.824-0.683-0.926c-0.034-0.04-0.076-0.046-0.124-0.046l-0.601-0.013c-0.034,0-0.055,0.013-0.055,0.053v0.095
			c0,0.624,0,1.153,0.034,1.436c0.021,0.194,0.061,0.342,0.27,0.369c0.103,0.013,0.255,0.027,0.339,0.027
			c0.055,0,0.082,0.021,0.082,0.053c0,0.046-0.049,0.067-0.139,0.067c-0.401,0-0.911-0.021-1.016-0.021
			c-0.131,0-0.567,0.021-0.843,0.021c-0.091,0-0.139-0.021-0.139-0.067c0-0.034,0.027-0.053,0.11-0.053
			c0.103,0,0.186-0.013,0.249-0.027c0.139-0.027,0.173-0.175,0.2-0.369c0.034-0.283,0.034-0.812,0.034-1.427v-1.183H71.328z
			 M72.142,58.326c0,0.074,0.015,0.101,0.061,0.12c0.145,0.046,0.352,0.067,0.525,0.067c0.276,0,0.367-0.027,0.491-0.114
			c0.207-0.148,0.407-0.455,0.407-1.006c0-0.953-0.649-1.227-1.056-1.227c-0.173,0-0.297,0.006-0.367,0.027
			c-0.049,0.013-0.061,0.04-0.061,0.095L72.142,58.326L72.142,58.326z"/>
		<path fill="#FFFFFF" d="M76.46,60.839c-0.11-0.046-0.131-0.08-0.131-0.228c0-0.369,0.027-0.772,0.034-0.879
			c0.006-0.101,0.027-0.175,0.082-0.175c0.061,0,0.07,0.061,0.07,0.114c0,0.086,0.027,0.228,0.061,0.342
			c0.152,0.495,0.559,0.677,0.987,0.677c0.622,0,0.926-0.409,0.926-0.765c0-0.329-0.103-0.637-0.677-1.073l-0.318-0.242
			c-0.759-0.576-1.023-1.046-1.023-1.59c0-0.738,0.635-1.267,1.596-1.267c0.449,0,0.74,0.067,0.919,0.114
			c0.061,0.013,0.097,0.034,0.097,0.08c0,0.086-0.027,0.283-0.027,0.805c0,0.148-0.021,0.2-0.076,0.2c-0.048,0-0.07-0.04-0.07-0.12
			c0-0.061-0.034-0.268-0.179-0.443c-0.103-0.127-0.304-0.329-0.753-0.329c-0.51,0-0.822,0.289-0.822,0.692
			c0,0.308,0.158,0.544,0.732,0.966l0.194,0.141c0.835,0.609,1.132,1.073,1.132,1.71c0,0.388-0.152,0.852-0.649,1.166
			c-0.346,0.215-0.732,0.274-1.098,0.274C77.067,61.014,76.755,60.968,76.46,60.839z"/>
		<path fill="#FFFFFF" d="M81.259,57.796c0-1.018,0-1.206-0.015-1.421c-0.015-0.228-0.082-0.342-0.234-0.375
			c-0.076-0.021-0.167-0.027-0.249-0.027c-0.07,0-0.11-0.013-0.11-0.067c0-0.04,0.055-0.053,0.167-0.053
			c0.261,0,0.698,0.021,0.898,0.021c0.173,0,0.58-0.021,0.843-0.021c0.091,0,0.145,0.013,0.145,0.053
			c0,0.053-0.042,0.067-0.11,0.067c-0.07,0-0.124,0.006-0.207,0.021c-0.186,0.034-0.242,0.148-0.255,0.382
			c-0.015,0.215-0.015,0.403-0.015,1.421v1.181c0,0.649,0,1.181,0.027,1.467c0.021,0.181,0.07,0.302,0.276,0.329
			c0.097,0.013,0.249,0.027,0.352,0.027c0.076,0,0.11,0.021,0.11,0.053c0,0.046-0.055,0.067-0.131,0.067
			c-0.455,0-0.892-0.021-1.077-0.021c-0.158,0-0.595,0.021-0.871,0.021c-0.091,0-0.139-0.021-0.139-0.067
			c0-0.034,0.027-0.053,0.11-0.053c0.103,0,0.186-0.013,0.249-0.027c0.139-0.027,0.179-0.141,0.2-0.335
			c0.034-0.283,0.034-0.812,0.034-1.461L81.259,57.796L81.259,57.796z"/>
		<path fill="#FFFFFF" d="M85.699,56.226l-1.029,0.027c-0.401,0.013-0.567,0.046-0.67,0.194c-0.07,0.101-0.103,0.181-0.118,0.234
			c-0.015,0.053-0.034,0.08-0.076,0.08c-0.048,0-0.061-0.034-0.061-0.108c0-0.108,0.131-0.717,0.145-0.772
			c0.021-0.086,0.042-0.127,0.082-0.127c0.055,0,0.124,0.067,0.297,0.08c0.2,0.021,0.464,0.034,0.692,0.034h2.735
			c0.221,0,0.373-0.021,0.477-0.034c0.103-0.021,0.158-0.034,0.186-0.034c0.048,0,0.055,0.04,0.055,0.141
			c0,0.141-0.021,0.603-0.021,0.778c-0.006,0.067-0.021,0.108-0.061,0.108c-0.055,0-0.07-0.034-0.076-0.135l-0.006-0.074
			c-0.015-0.175-0.2-0.363-0.816-0.375l-0.871-0.021v2.749c0,0.618,0,1.147,0.034,1.436c0.021,0.188,0.061,0.335,0.27,0.363
			c0.097,0.013,0.249,0.027,0.352,0.027c0.076,0,0.11,0.021,0.11,0.053c0,0.046-0.055,0.067-0.131,0.067
			c-0.455,0-0.892-0.021-1.084-0.021c-0.158,0-0.595,0.021-0.871,0.021c-0.091,0-0.139-0.021-0.139-0.067
			c0-0.034,0.027-0.053,0.11-0.053c0.103,0,0.186-0.013,0.249-0.027c0.139-0.027,0.179-0.175,0.2-0.369
			c0.034-0.283,0.034-0.812,0.034-1.427v-2.749H85.699z"/>
		<path fill="#FFFFFF" d="M90.892,59.184c0-0.363-0.07-0.51-0.158-0.704c-0.049-0.108-0.974-1.581-1.217-1.931
			c-0.173-0.249-0.346-0.415-0.477-0.489c-0.091-0.046-0.207-0.086-0.291-0.086c-0.055,0-0.103-0.013-0.103-0.061
			c0-0.04,0.049-0.061,0.131-0.061c0.124,0,0.643,0.021,0.871,0.021c0.145,0,0.428-0.021,0.74-0.021c0.07,0,0.103,0.021,0.103,0.061
			c0,0.04-0.048,0.046-0.152,0.074c-0.061,0.013-0.097,0.067-0.097,0.12s0.034,0.135,0.082,0.228c0.097,0.2,1.063,1.817,1.174,2.005
			c0.07-0.16,0.94-1.636,1.035-1.843c0.07-0.148,0.097-0.261,0.097-0.348c0-0.067-0.027-0.141-0.145-0.167
			c-0.061-0.013-0.124-0.027-0.124-0.067c0-0.046,0.034-0.061,0.118-0.061c0.228,0,0.449,0.021,0.649,0.021
			c0.152,0,0.607-0.021,0.74-0.021c0.076,0,0.124,0.013,0.124,0.053c0,0.046-0.055,0.067-0.131,0.067c-0.07,0-0.2,0.027-0.304,0.08
			c-0.145,0.067-0.221,0.148-0.373,0.329c-0.228,0.268-1.195,1.843-1.32,2.132c-0.103,0.242-0.103,0.449-0.103,0.67v0.55
			c0,0.108,0,0.388,0.021,0.67c0.015,0.194,0.076,0.342,0.283,0.369c0.097,0.013,0.249,0.027,0.346,0.027
			c0.076,0,0.11,0.021,0.11,0.053c0,0.046-0.055,0.067-0.145,0.067c-0.434,0-0.871-0.021-1.056-0.021
			c-0.173,0-0.607,0.021-0.864,0.021c-0.097,0-0.152-0.013-0.152-0.067c0-0.034,0.034-0.053,0.11-0.053
			c0.097,0,0.179-0.013,0.242-0.027c0.139-0.027,0.2-0.175,0.215-0.369c0.021-0.283,0.021-0.563,0.021-0.67V59.184z"/>
	</g>
	<g>
		<path fill="#FFFFFF" d="M53.008,69.903c0.008,0.301,0.059,0.401,0.139,0.428c0.067,0.023,0.143,0.027,0.207,0.027
			c0.044,0,0.067,0.008,0.067,0.032c0,0.032-0.036,0.038-0.091,0.038c-0.259,0-0.417-0.013-0.493-0.013
			c-0.036,0-0.223,0.013-0.43,0.013c-0.053,0-0.089-0.004-0.089-0.038c0-0.023,0.023-0.032,0.063-0.032
			c0.053,0,0.122-0.004,0.179-0.019c0.103-0.032,0.12-0.143,0.122-0.479l0.036-2.273c0-0.078,0.013-0.131,0.053-0.131
			c0.044,0,0.08,0.051,0.148,0.12c0.048,0.051,0.652,0.668,1.233,1.227c0.27,0.264,0.808,0.818,0.875,0.879h0.019l-0.04-1.733
			c-0.004-0.236-0.04-0.308-0.135-0.348c-0.059-0.023-0.156-0.023-0.211-0.023c-0.048,0-0.063-0.011-0.063-0.034
			c0-0.032,0.044-0.034,0.103-0.034c0.207,0,0.398,0.011,0.481,0.011c0.044,0,0.194-0.011,0.39-0.011
			c0.053,0,0.091,0.004,0.091,0.034c0,0.023-0.023,0.034-0.072,0.034c-0.04,0-0.072,0-0.12,0.013
			c-0.112,0.032-0.143,0.112-0.148,0.329l-0.044,2.435c0,0.084-0.017,0.12-0.053,0.12c-0.044,0-0.091-0.042-0.135-0.084
			c-0.251-0.232-0.759-0.738-1.172-1.134c-0.434-0.417-0.875-0.888-0.947-0.961H52.96L53.008,69.903z"/>
		<path fill="#FFFFFF" d="M56.94,69.443c-0.019,0-0.027,0.008-0.036,0.032l-0.215,0.529c-0.04,0.097-0.059,0.19-0.059,0.236
			c0,0.07,0.036,0.12,0.158,0.12h0.059c0.048,0,0.059,0.008,0.059,0.032c0,0.032-0.023,0.038-0.067,0.038
			c-0.127,0-0.297-0.013-0.422-0.013c-0.044,0-0.264,0.013-0.47,0.013c-0.053,0-0.076-0.008-0.076-0.038
			c0-0.023,0.017-0.032,0.048-0.032c0.036,0,0.091-0.004,0.122-0.008c0.183-0.023,0.259-0.154,0.337-0.348l0.997-2.393
			c0.048-0.112,0.072-0.154,0.112-0.154c0.036,0,0.059,0.036,0.099,0.124c0.095,0.213,0.732,1.756,0.987,2.342
			c0.152,0.348,0.266,0.401,0.35,0.422c0.059,0.013,0.12,0.015,0.167,0.015c0.032,0,0.053,0.004,0.053,0.032
			c0,0.032-0.036,0.038-0.183,0.038c-0.143,0-0.434,0-0.751-0.008c-0.072-0.004-0.12-0.004-0.12-0.032
			c0-0.023,0.017-0.032,0.055-0.034c0.027-0.008,0.055-0.042,0.036-0.089l-0.318-0.795c-0.008-0.019-0.019-0.027-0.04-0.027H56.94
			V69.443z M57.752,69.249c0.019,0,0.023-0.011,0.019-0.023l-0.358-0.949c-0.004-0.015-0.008-0.036-0.019-0.036
			s-0.019,0.019-0.023,0.036l-0.365,0.947c-0.004,0.015,0,0.027,0.017,0.027h0.73V69.249z"/>
		<path fill="#FFFFFF" d="M59.19,67.887c-0.091-0.213-0.158-0.255-0.302-0.293c-0.059-0.015-0.122-0.015-0.156-0.015
			c-0.036,0-0.048-0.011-0.048-0.034c0-0.032,0.044-0.034,0.103-0.034c0.211,0,0.436,0.011,0.576,0.011
			c0.099,0,0.291-0.011,0.489-0.011c0.048,0,0.091,0.008,0.091,0.034c0,0.025-0.023,0.034-0.059,0.034
			c-0.063,0-0.122,0.004-0.156,0.027c-0.027,0.019-0.04,0.046-0.04,0.08c0,0.051,0.036,0.158,0.091,0.297l0.683,1.752h0.017
			c0.171-0.424,0.687-1.668,0.784-1.923c0.019-0.051,0.036-0.108,0.036-0.143c0-0.032-0.017-0.061-0.053-0.074
			c-0.048-0.015-0.108-0.019-0.158-0.019c-0.036,0-0.067-0.004-0.067-0.032c0-0.032,0.036-0.038,0.112-0.038
			c0.198,0,0.367,0.011,0.417,0.011c0.067,0,0.255-0.011,0.373-0.011c0.053,0,0.084,0.008,0.084,0.034
			c0,0.025-0.023,0.034-0.063,0.034c-0.04,0-0.122,0-0.194,0.046c-0.053,0.036-0.112,0.101-0.219,0.348
			c-0.156,0.363-0.264,0.571-0.477,1.046c-0.255,0.563-0.441,0.985-0.529,1.176c-0.103,0.223-0.127,0.285-0.183,0.285
			c-0.053,0-0.076-0.055-0.152-0.236L59.19,67.887z"/>
		<path fill="#FFFFFF" d="M62.665,68.63c0-0.586,0-0.696-0.008-0.818c-0.008-0.131-0.048-0.196-0.135-0.217
			c-0.044-0.011-0.095-0.015-0.143-0.015c-0.04,0-0.063-0.008-0.063-0.038c0-0.023,0.032-0.032,0.095-0.032
			c0.152,0,0.403,0.011,0.517,0.011c0.099,0,0.333-0.011,0.485-0.011c0.053,0,0.084,0.008,0.084,0.032
			c0,0.032-0.023,0.038-0.063,0.038c-0.04,0-0.072,0.004-0.12,0.013c-0.108,0.019-0.139,0.084-0.148,0.219
			c-0.008,0.124-0.008,0.232-0.008,0.818v0.679c0,0.375,0,0.679,0.017,0.845c0.013,0.103,0.04,0.173,0.158,0.19
			c0.055,0.008,0.143,0.015,0.202,0.015c0.044,0,0.063,0.013,0.063,0.032c0,0.027-0.032,0.038-0.076,0.038
			c-0.264,0-0.512-0.013-0.62-0.013c-0.091,0-0.342,0.013-0.502,0.013c-0.053,0-0.08-0.013-0.08-0.038
			c0-0.019,0.017-0.032,0.063-0.032c0.059,0,0.108-0.008,0.143-0.015c0.08-0.015,0.103-0.08,0.116-0.194
			c0.019-0.162,0.019-0.468,0.019-0.841V68.63H62.665z"/>
		<path fill="#FFFFFF" d="M66.262,67.556c0.013-0.065,0.036-0.101,0.067-0.101c0.032,0,0.055,0.019,0.108,0.12l1.086,2.146
			l1.082-2.174c0.032-0.061,0.053-0.093,0.089-0.093c0.036,0,0.059,0.038,0.072,0.12l0.363,2.364
			c0.036,0.242,0.076,0.354,0.194,0.39c0.116,0.036,0.194,0.038,0.247,0.038c0.036,0,0.063,0.004,0.063,0.027
			c0,0.032-0.048,0.042-0.103,0.042c-0.099,0-0.647-0.008-0.808-0.019c-0.091-0.008-0.116-0.019-0.116-0.042
			c0-0.019,0.017-0.032,0.044-0.042c0.023-0.008,0.036-0.057,0.019-0.167l-0.238-1.68h-0.017l-0.867,1.723
			c-0.091,0.181-0.112,0.217-0.148,0.217s-0.076-0.078-0.139-0.194c-0.095-0.177-0.409-0.767-0.458-0.877
			c-0.036-0.08-0.274-0.536-0.413-0.826h-0.017l-0.207,1.505c-0.008,0.07-0.013,0.12-0.013,0.181c0,0.074,0.053,0.108,0.12,0.124
			c0.072,0.015,0.127,0.019,0.167,0.019c0.032,0,0.059,0.008,0.059,0.027c0,0.034-0.036,0.042-0.095,0.042
			c-0.167,0-0.346-0.013-0.417-0.013c-0.076,0-0.266,0.013-0.394,0.013c-0.04,0-0.072-0.008-0.072-0.042
			c0-0.019,0.023-0.027,0.063-0.027c0.032,0,0.059,0,0.12-0.011c0.112-0.023,0.143-0.173,0.162-0.306L66.262,67.556z"/>
		<path fill="#FFFFFF" d="M70.27,68.63c0-0.586,0-0.696-0.008-0.818c-0.008-0.131-0.04-0.194-0.171-0.219
			c-0.032-0.008-0.099-0.013-0.156-0.013c-0.044,0-0.067-0.008-0.067-0.034c0-0.025,0.027-0.034,0.089-0.034
			c0.211,0,0.462,0.011,0.58,0.011c0.095,0,0.346-0.011,0.489-0.011c0.059,0,0.089,0.008,0.089,0.034
			c0,0.025-0.023,0.034-0.063,0.034c-0.044,0-0.067,0.004-0.116,0.013c-0.108,0.019-0.139,0.084-0.148,0.219
			c-0.008,0.124-0.008,0.232-0.008,0.818v0.54c0,0.561,0.116,0.795,0.31,0.949c0.179,0.143,0.363,0.158,0.498,0.158
			c0.175,0,0.39-0.055,0.548-0.209c0.219-0.213,0.23-0.561,0.23-0.957v-0.483c0-0.586,0-0.696-0.008-0.818
			c-0.008-0.131-0.04-0.194-0.171-0.219c-0.032-0.008-0.099-0.013-0.143-0.013c-0.044,0-0.067-0.008-0.067-0.034
			c0-0.025,0.027-0.034,0.084-0.034c0.202,0,0.453,0.011,0.458,0.011c0.049,0,0.299-0.011,0.453-0.011
			c0.055,0,0.084,0.008,0.084,0.034c0,0.025-0.023,0.034-0.072,0.034c-0.044,0-0.067,0.004-0.116,0.013
			c-0.108,0.019-0.139,0.084-0.148,0.219c-0.008,0.124-0.008,0.232-0.008,0.818v0.413c0,0.428-0.044,0.883-0.377,1.162
			c-0.283,0.236-0.569,0.278-0.826,0.278c-0.211,0-0.592-0.011-0.883-0.266c-0.202-0.177-0.354-0.464-0.354-1.023V68.63H70.27z"/>
		<path fill="#FFFFFF" d="M74.141,67.556c0.013-0.065,0.036-0.101,0.067-0.101s0.055,0.019,0.108,0.12l1.086,2.146l1.082-2.174
			c0.032-0.061,0.053-0.093,0.089-0.093c0.036,0,0.059,0.038,0.072,0.12l0.363,2.364c0.036,0.242,0.076,0.354,0.194,0.39
			c0.116,0.036,0.194,0.038,0.247,0.038c0.036,0,0.063,0.004,0.063,0.027c0,0.032-0.048,0.042-0.103,0.042
			c-0.099,0-0.647-0.008-0.808-0.019c-0.091-0.008-0.116-0.019-0.116-0.042c0-0.019,0.017-0.032,0.044-0.042
			c0.023-0.008,0.036-0.057,0.019-0.167l-0.238-1.68h-0.017l-0.867,1.723c-0.091,0.181-0.112,0.217-0.148,0.217
			c-0.036,0-0.076-0.078-0.139-0.194c-0.095-0.177-0.409-0.767-0.458-0.877c-0.036-0.08-0.274-0.536-0.413-0.826h-0.017
			l-0.207,1.505c-0.008,0.07-0.013,0.12-0.013,0.181c0,0.074,0.053,0.108,0.12,0.124c0.072,0.015,0.127,0.019,0.167,0.019
			c0.032,0,0.059,0.008,0.059,0.027c0,0.034-0.036,0.042-0.095,0.042c-0.167,0-0.346-0.013-0.417-0.013
			c-0.076,0-0.266,0.013-0.394,0.013c-0.04,0-0.072-0.008-0.072-0.042c0-0.019,0.023-0.027,0.063-0.027c0.032,0,0.059,0,0.12-0.011
			c0.112-0.023,0.143-0.173,0.162-0.306L74.141,67.556z"/>
		<path fill="#FFFFFF" d="M78.37,68.63c0-0.586,0-0.696-0.008-0.818c-0.008-0.131-0.04-0.194-0.171-0.219
			c-0.032-0.008-0.099-0.013-0.156-0.013c-0.044,0-0.067-0.008-0.067-0.034c0-0.025,0.027-0.034,0.089-0.034
			c0.211,0,0.462,0.011,0.54,0.011c0.194,0,0.35-0.011,0.485-0.011c0.719,0,0.848,0.375,0.848,0.58c0,0.316-0.188,0.506-0.405,0.675
			c0.327,0.108,0.723,0.382,0.723,0.835c0,0.413-0.331,0.841-1.063,0.841c-0.049,0-0.162-0.008-0.278-0.011
			c-0.12-0.008-0.238-0.013-0.297-0.013c-0.044,0-0.131,0-0.228,0.004c-0.091,0-0.194,0.008-0.274,0.008
			c-0.053,0-0.08-0.013-0.08-0.038c0-0.019,0.017-0.032,0.063-0.032c0.059,0,0.108-0.008,0.143-0.015
			c0.08-0.015,0.099-0.101,0.116-0.213c0.019-0.162,0.019-0.468,0.019-0.822V68.63H78.37z M78.849,68.695
			c0,0.032,0.013,0.038,0.027,0.042c0.036,0.008,0.095,0.013,0.188,0.013c0.131,0,0.219-0.015,0.287-0.074
			c0.103-0.08,0.162-0.219,0.162-0.409c0-0.259-0.156-0.599-0.498-0.599c-0.055,0-0.091,0-0.131,0.008
			c-0.027,0.008-0.036,0.023-0.036,0.065V68.695z M79.372,69.003c-0.084-0.057-0.175-0.084-0.331-0.093
			c-0.072-0.004-0.112-0.004-0.171-0.004c-0.017,0-0.023,0.008-0.023,0.027v0.915c0,0.255,0.013,0.32,0.139,0.371
			c0.108,0.042,0.198,0.046,0.291,0.046c0.179,0,0.481-0.093,0.481-0.493C79.758,69.532,79.675,69.207,79.372,69.003z"/>
		<path fill="#FFFFFF" d="M81.59,69.443c-0.019,0-0.027,0.008-0.036,0.032l-0.215,0.529c-0.04,0.097-0.059,0.19-0.059,0.236
			c0,0.07,0.036,0.12,0.158,0.12h0.059c0.049,0,0.059,0.008,0.059,0.032c0,0.032-0.023,0.038-0.067,0.038
			c-0.127,0-0.299-0.013-0.422-0.013c-0.044,0-0.264,0.013-0.47,0.013c-0.053,0-0.076-0.008-0.076-0.038
			c0-0.023,0.017-0.032,0.049-0.032c0.036,0,0.091-0.004,0.122-0.008c0.183-0.023,0.259-0.154,0.337-0.348l0.997-2.393
			c0.049-0.112,0.072-0.154,0.112-0.154c0.036,0,0.059,0.036,0.099,0.124c0.095,0.213,0.732,1.756,0.987,2.342
			c0.152,0.348,0.266,0.401,0.35,0.422c0.059,0.013,0.12,0.015,0.167,0.015c0.032,0,0.053,0.004,0.053,0.032
			c0,0.032-0.036,0.038-0.183,0.038c-0.143,0-0.434,0-0.751-0.008c-0.072-0.004-0.12-0.004-0.12-0.032
			c0-0.023,0.017-0.032,0.055-0.034c0.027-0.008,0.055-0.042,0.036-0.089l-0.318-0.795c-0.008-0.019-0.019-0.027-0.04-0.027H81.59
			V69.443z M82.402,69.249c0.019,0,0.023-0.011,0.019-0.023l-0.358-0.949c-0.004-0.015-0.008-0.036-0.019-0.036
			c-0.011,0-0.019,0.019-0.023,0.036l-0.367,0.947c-0.004,0.015,0,0.027,0.017,0.027h0.732V69.249z"/>
		<path fill="#FFFFFF" d="M84.445,68.63c0-0.586,0-0.696-0.008-0.818c-0.008-0.131-0.048-0.196-0.135-0.217
			c-0.044-0.011-0.095-0.015-0.143-0.015c-0.04,0-0.063-0.008-0.063-0.038c0-0.023,0.032-0.032,0.095-0.032
			c0.152,0,0.403,0.011,0.517,0.011c0.099,0,0.333-0.011,0.485-0.011c0.053,0,0.084,0.008,0.084,0.032
			c0,0.032-0.023,0.038-0.063,0.038s-0.072,0.004-0.12,0.013c-0.108,0.019-0.139,0.084-0.148,0.219
			c-0.008,0.124-0.008,0.232-0.008,0.818v0.679c0,0.375,0,0.679,0.017,0.845c0.013,0.103,0.04,0.173,0.158,0.19
			c0.055,0.008,0.143,0.015,0.202,0.015c0.044,0,0.063,0.013,0.063,0.032c0,0.027-0.032,0.038-0.076,0.038
			c-0.264,0-0.512-0.013-0.62-0.013c-0.091,0-0.342,0.013-0.502,0.013c-0.053,0-0.08-0.013-0.08-0.038
			c0-0.019,0.017-0.032,0.063-0.032c0.059,0,0.108-0.008,0.143-0.015c0.08-0.015,0.103-0.08,0.116-0.194
			c0.019-0.162,0.019-0.468,0.019-0.841V68.63H84.445z"/>
	</g>
	<g>
		<line fill="none" x1="36.563" y1="64.204" x2="101" y2="64.204"/>
		<rect x="36.563" y="64.073" fill="#FFFFFF" width="64.437" height="0.264"/>
	</g>
	<path fill="#FFFFFF" d="M27.678,35.279l-3.26-1.86l-0.181,0.042c-0.04,0.008-4.027,0.932-6.743,0.141
		c-1.581-0.46-1.94-1.2-1.94-1.2l0,0L15.2,31.519l-0.495,0.816c-0.023,0.038-0.582,0.94-1.948,1.261
		c-2.77,0.652-6.743-0.131-6.783-0.137l-0.175-0.036l-3.253,1.853L1,55.214l0.198,0.156c0.027,0.021,2.836,2.243,7.126,6.323
		c4.251,4.04,6.351,7.814,6.372,7.852l0.228,0.413v-1.864c-0.911-1.415-2.861-4.158-5.944-7.088
		c-3.677-3.494-6.279-5.642-6.994-6.222L3.454,35.85l2.509-1.432c0.833,0.152,4.35,0.723,7.01,0.097
		c1.042-0.245,1.725-0.767,2.121-1.17c0.363,0.371,1.01,0.837,2.134,1.164c2.636,0.767,6.188,0.095,7.042-0.086l2.503,1.427
		l1.467,18.934c-0.717,0.58-3.319,2.726-6.994,6.222c-3.083,2.931-5.033,5.674-5.944,7.088v1.864l0.228-0.413
		c0.021-0.038,2.121-3.812,6.372-7.852c4.291-4.08,7.099-6.302,7.126-6.323l0.198-0.156L27.678,35.279z"/>
	<rect x="14.897" y="53.291" fill="#FFFFFF" width="0.377" height="16.762"/>
	<path fill="#FFFFFF" d="M11.713,52.363c0,0,1.151-0.595,2.281-0.211s1.117,1.136,1.117,1.136s0.74-1.233,2.051-1.267
		c1.311-0.034,1.514,0.339,1.514,0.339l-0.304,4.251c0,0-0.304-0.626-1.292-0.626s-1.811,0.626-1.811,0.626
		s-0.814-0.645-1.984-0.626c-1.17,0.021-1.231,0.626-1.231,0.626L11.713,52.363z"/>
	<path fill="#FFFFFF" d="M10.214,53.459H5.866c-0.175,0-0.316-0.141-0.316-0.316c0-0.175,0.141-0.316,0.316-0.316h4.348
		c0.175,0,0.316,0.141,0.316,0.316C10.53,53.318,10.387,53.459,10.214,53.459z"/>
	<path fill="#FFFFFF" d="M10.794,50.934c-0.055,0-0.112-0.015-0.162-0.044L6.969,48.69c-0.15-0.091-0.198-0.285-0.108-0.434
		s0.285-0.198,0.434-0.108l3.662,2.199c0.15,0.091,0.198,0.285,0.108,0.434C11.004,50.881,10.901,50.934,10.794,50.934z"/>
	<path fill="#FFFFFF" d="M12.733,49.118c-0.108,0-0.213-0.055-0.272-0.154l-2.224-3.734c-0.089-0.15-0.04-0.344,0.11-0.434
		c0.15-0.091,0.344-0.04,0.434,0.11l2.224,3.734c0.089,0.15,0.04,0.344-0.11,0.434C12.845,49.103,12.79,49.118,12.733,49.118z"/>
	<path fill="#FFFFFF" d="M10.264,52.173c-0.027,0-0.055-0.004-0.082-0.011l-2.669-0.719c-0.169-0.044-0.268-0.219-0.223-0.388
		c0.044-0.169,0.219-0.268,0.388-0.223l2.669,0.719c0.169,0.044,0.268,0.219,0.223,0.388C10.532,52.081,10.406,52.173,10.264,52.173
		z"/>
	<path fill="#FFFFFF" d="M11.622,49.871c-0.08,0-0.16-0.03-0.221-0.091l-1.992-1.95c-0.124-0.122-0.127-0.323-0.004-0.447
		c0.122-0.124,0.323-0.127,0.447-0.004l1.992,1.95c0.124,0.122,0.127,0.323,0.004,0.447C11.787,49.837,11.704,49.871,11.622,49.871z
		"/>
	<path fill="#FFFFFF" d="M13.893,48.515c-0.141,0-0.27-0.095-0.306-0.238l-0.683-2.68c-0.042-0.169,0.059-0.342,0.228-0.384
		c0.169-0.044,0.342,0.059,0.384,0.228l0.683,2.68c0.042,0.169-0.059,0.342-0.228,0.384C13.946,48.511,13.918,48.515,13.893,48.515z
		"/>
	<path fill="#FFFFFF" d="M24.49,53.478h-4.348c-0.175,0-0.316-0.141-0.316-0.316s0.141-0.316,0.316-0.316h4.348
		c0.175,0,0.316,0.141,0.316,0.316S24.665,53.478,24.49,53.478z"/>
	<path fill="#FFFFFF" d="M19.565,50.955c-0.108,0-0.213-0.055-0.272-0.154c-0.091-0.15-0.042-0.344,0.108-0.434l3.662-2.199
		c0.15-0.091,0.344-0.042,0.434,0.108c0.091,0.15,0.042,0.344-0.108,0.434l-3.662,2.199C19.674,50.94,19.619,50.955,19.565,50.955z"
		/>
	<path fill="#FFFFFF" d="M17.623,49.137c-0.055,0-0.112-0.015-0.162-0.044c-0.15-0.089-0.198-0.283-0.11-0.434l2.224-3.734
		c0.089-0.15,0.283-0.2,0.434-0.11c0.15,0.089,0.198,0.283,0.11,0.434l-2.224,3.734C17.836,49.082,17.73,49.137,17.623,49.137z"/>
	<path fill="#FFFFFF" d="M20.092,52.192c-0.139,0-0.268-0.093-0.306-0.234c-0.046-0.169,0.055-0.342,0.223-0.388l2.669-0.719
		c0.169-0.044,0.342,0.055,0.388,0.223s-0.055,0.342-0.223,0.388l-2.669,0.719C20.147,52.188,20.119,52.192,20.092,52.192z"/>
	<path fill="#FFFFFF" d="M18.736,49.89c-0.082,0-0.164-0.032-0.226-0.095c-0.122-0.124-0.12-0.325,0.004-0.447l1.992-1.95
		c0.124-0.122,0.325-0.12,0.447,0.004c0.122,0.124,0.12,0.325-0.004,0.447l-1.992,1.95C18.894,49.86,18.814,49.89,18.736,49.89z"/>
	<path fill="#FFFFFF" d="M16.463,48.534c-0.025,0-0.053-0.004-0.078-0.011c-0.169-0.044-0.272-0.215-0.228-0.384l0.683-2.68
		c0.044-0.169,0.215-0.272,0.384-0.228c0.169,0.044,0.272,0.215,0.228,0.384l-0.683,2.68C16.733,48.439,16.604,48.534,16.463,48.534
		z"/>
	<path fill="#FFFFFF" d="M15.202,48.444c-0.175,0-0.316-0.141-0.316-0.316l-0.006-5.752c0-0.175,0.141-0.316,0.316-0.316l0,0
		c0.175,0,0.316,0.141,0.316,0.316l0.006,5.752C15.519,48.302,15.377,48.444,15.202,48.444L15.202,48.444z"/>
</g>
</svg>
