<?xml version="1.0" encoding="utf-8"?>
<!-- Generator: Adobe Illustrator 16.0.0, SVG Export Plug-In . SVG Version: 6.00 Build 0)  -->
<!DOCTYPE svg PUBLIC "-//W3C//DTD SVG 1.1//EN" "http://www.w3.org/Graphics/SVG/1.1/DTD/svg11.dtd">
<svg version="1.1" id="Layer_1" xmlns="http://www.w3.org/2000/svg" xmlns:xlink="http://www.w3.org/1999/xlink" x="0px" y="0px"
	 width="102px" height="102px" viewBox="0 0 102 102" enable-background="new 0 0 102 102" xml:space="preserve">
<path fill="#FFFFFF" d="M32.887,50.779c0-2.881-2.105-3.176-4.45-3.176h-0.572v6.278h0.591
	C30.671,53.881,32.887,53.475,32.887,50.779z"/>
<g>
	<g>
		<path fill="#FFFFFF" d="M17.285,31.577V19.095c2.659,0,2.991,1.81,2.991,4.542h0.351v-9.453h-0.351
			c0,2.695-0.333,4.579-2.991,4.579V6.945c2.807,0,5.114,0.48,5.114,6.352h0.37V6.613H12.392v0.332h1.902v24.631h-1.902v0.332H22.99
			v-6.721H22.64C22.64,30.949,20.092,31.577,17.285,31.577z"/>
		<path fill="#FFFFFF" d="M39.866,31.687V6.798h1.828V6.576h-6.628v0.222h1.828v24.889h-1.828v0.222h10.303v-6.795h-0.222
			C45.147,30.875,42.673,31.687,39.866,31.687z"/>
		<path fill="#FFFFFF" d="M62.134,31.687V6.798h1.828V6.576h-6.61v0.222h1.81v24.889h-1.81v0.222h10.285v-6.795h-0.223
			C67.414,30.875,64.959,31.687,62.134,31.687z"/>
		<path fill="#FFFFFF" d="M84.106,31.577V19.095c2.658,0,2.99,1.81,2.99,4.542h0.37v-9.453h-0.37c0,2.695-0.332,4.579-2.99,4.579
			V6.945c2.843,0,5.132,0.48,5.132,6.352h0.37V6.613H79.214v0.332h1.9v24.631h-1.9v0.332H89.83v-6.721h-0.369
			C89.461,30.949,86.949,31.577,84.106,31.577z"/>
	</g>
</g>
<path fill="#FFFFFF" d="M15.235,47.603h-0.757v5.908h0.738c2.197,0,4.081-0.258,4.081-2.99
	C19.297,47.898,17.636,47.603,15.235,47.603z"/>
<path fill="#FFFFFF" d="M16.177,55.173h-1.699v6.277h1.939c2.179,0,4.468-0.517,4.468-3.175
	C20.886,55.542,18.3,55.173,16.177,55.173z"/>
<polygon fill="none" points="38.703,45.793 47.75,45.793 47.75,47.603 40.642,47.603 40.642,52.81 47.547,52.81 47.547,54.618 
	40.642,54.618 40.642,61.45 47.75,61.45 47.75,63.261 38.703,63.261 "/>
<polygon fill="none" points="38.703,45.793 47.75,45.793 47.75,47.603 40.642,47.603 40.642,52.81 47.547,52.81 47.547,54.618 
	40.642,54.618 40.642,61.45 47.75,61.45 47.75,63.261 38.703,63.261 "/>
<polygon fill="#FFFFFF" points="54.711,56.502 60.602,56.502 57.685,49.523 "/>
<path fill="none" d="M75.631,49.228c-0.684-1.218-1.514-1.92-3.009-1.92c-1.552,0-2.899,1.108-2.899,2.696
	c0,1.515,1.569,2.216,2.751,2.732l1.146,0.518c2.271,0.997,4.19,2.142,4.19,4.911c0,3.064-2.455,5.392-5.483,5.392
	c-2.807,0-4.894-1.811-5.447-4.506l1.902-0.517c0.258,1.772,1.625,3.212,3.489,3.212c1.884,0,3.601-1.402,3.601-3.396
	c0-2.031-1.606-2.732-3.212-3.471l-1.071-0.443c-2.05-0.924-3.805-1.995-3.805-4.468c0-2.733,2.29-4.469,4.894-4.469
	c1.938,0,3.582,0.997,4.505,2.732L75.631,49.228z"/>
<path fill="none" d="M75.631,49.228c-0.684-1.218-1.514-1.92-3.009-1.92c-1.552,0-2.899,1.108-2.899,2.696
	c0,1.515,1.569,2.216,2.751,2.732l1.146,0.518c2.271,0.997,4.19,2.142,4.19,4.911c0,3.064-2.455,5.392-5.483,5.392
	c-2.807,0-4.894-1.811-5.447-4.506l1.902-0.517c0.258,1.772,1.625,3.212,3.489,3.212c1.884,0,3.601-1.402,3.601-3.396
	c0-2.031-1.606-2.732-3.212-3.471l-1.071-0.443c-2.05-0.924-3.805-1.995-3.805-4.468c0-2.733,2.29-4.469,4.894-4.469
	c1.938,0,3.582,0.997,4.505,2.732L75.631,49.228z"/>
<path fill="none" d="M24.394,68.983c-1.145-1.182-2.732-1.92-4.394-1.92c-3.213,0-5.798,2.807-5.798,5.982s2.603,5.945,5.834,5.945
	c1.625,0,3.213-0.775,4.357-1.92v1.994c-1.237,0.923-2.77,1.439-4.302,1.439c-4.063,0-7.497-3.323-7.497-7.422
	c0-4.137,3.379-7.497,7.497-7.497c1.606,0,3.028,0.444,4.302,1.404V68.983z"/>
<path fill="none" d="M24.394,68.983c-1.145-1.182-2.732-1.92-4.394-1.92c-3.213,0-5.798,2.807-5.798,5.982s2.603,5.945,5.834,5.945
	c1.625,0,3.213-0.775,4.357-1.92v1.994c-1.237,0.923-2.77,1.439-4.302,1.439c-4.063,0-7.497-3.323-7.497-7.422
	c0-4.137,3.379-7.497,7.497-7.497c1.606,0,3.028,0.444,4.302,1.404V68.983z"/>
<g>
	<polygon fill="#FFFFFF" points="30.118,74.671 34.992,74.671 32.573,68.873 	"/>
</g>
<polygon fill="none" points="40.956,65.217 52.182,76.998 52.182,65.845 53.788,65.845 53.788,80.875 42.563,69.132 42.563,80.247 
	40.956,80.247 "/>
<polygon fill="none" points="40.956,65.217 52.182,76.998 52.182,65.845 53.788,65.845 53.788,80.875 42.563,69.132 42.563,80.247 
	40.956,80.247 "/>
<g>
	<path fill="#FFFFFF" d="M87.022,69.907c0-2.363-1.734-2.585-3.655-2.585h-0.479v5.17h0.517
		C85.177,72.492,87.022,72.159,87.022,69.907z"/>
</g>
<path fill="none" d="M21.938,87.521c-0.923-0.96-2.197-1.551-3.545-1.551c-2.604,0-4.708,2.252-4.708,4.838
	c0,2.585,2.123,4.838,4.727,4.838c1.329,0,2.603-0.628,3.526-1.552v1.588c-0.997,0.738-2.234,1.146-3.472,1.146
	c-3.305,0-6.092-2.66-6.092-5.983s2.751-6.056,6.092-6.056c1.293,0,2.438,0.369,3.472,1.145V87.521z"/>
<path fill="none" d="M21.938,87.521c-0.923-0.96-2.197-1.551-3.545-1.551c-2.604,0-4.708,2.252-4.708,4.838
	c0,2.585,2.123,4.838,4.727,4.838c1.329,0,2.603-0.628,3.526-1.552v1.588c-0.997,0.738-2.234,1.146-3.472,1.146
	c-3.305,0-6.092-2.66-6.092-5.983s2.751-6.056,6.092-6.056c1.293,0,2.438,0.369,3.472,1.145V87.521z"/>
<g>
	<polygon fill="#FFFFFF" points="55.801,92.138 59.752,92.138 57.795,87.448 	"/>
</g>
<polygon fill="#FFFFFF" points="25.963,92.138 29.896,92.138 27.957,87.448 "/>
<polygon fill="#FFFFFF" points="33.183,96.643 33.238,96.643 33.201,96.569 "/>
<path fill="#FFFFFF" d="M49.228,86.192h-0.48v4.136h0.849c1.44,0,2.678-0.443,2.678-2.105
	C52.274,86.304,50.742,86.192,49.228,86.192z"/>
<rect x="63.906" y="84.974" fill="none" width="1.312" height="11.669"/>
<rect x="63.906" y="84.974" fill="none" width="1.312" height="11.669"/>
<g>
	<path fill="#FFFFFF" d="M5.855,1v100h90.289V1H5.855z M21.938,87.521c-0.923-0.96-2.197-1.551-3.545-1.551
		c-2.604,0-4.708,2.252-4.708,4.838c0,2.585,2.123,4.838,4.727,4.838c1.329,0,2.603-0.628,3.526-1.552v1.588
		c-0.997,0.738-2.234,1.146-3.472,1.146c-3.305,0-6.092-2.66-6.092-5.983s2.751-6.056,6.092-6.056c1.293,0,2.438,0.369,3.472,1.145
		V87.521z M22.843,58.422c0,3.472-2.807,4.839-6.259,4.839H12.54V45.793h2.862c3.176,0,5.834,1.182,5.834,4.727
		c0,1.439-0.536,2.621-1.717,3.397C21.605,54.435,22.843,56.317,22.843,58.422z M20.036,78.991c1.625,0,3.213-0.775,4.357-1.92
		v1.994c-1.237,0.923-2.77,1.439-4.302,1.439c-4.063,0-7.497-3.323-7.497-7.422c0-4.137,3.379-7.497,7.497-7.497
		c1.606,0,3.028,0.444,4.302,1.404v1.993c-1.145-1.182-2.732-1.92-4.394-1.92c-3.213,0-5.798,2.807-5.798,5.982
		S16.805,78.991,20.036,78.991z M45.092,96.643l-1.514-7.902h-0.019l-3.767,8.383l-3.749-8.383h-0.036l-1.496,7.902h-1.274h-1.44
		l-1.385-3.323h-4.985l-1.403,3.323h-1.422l5.373-12.223l5.262,12.223l-0.037-0.073l2.345-12.261l4.247,9.786l4.247-9.786
		l2.382,12.334H45.092z M36.008,63.261h-2.382l-5.281-7.645h-0.48v7.645h-1.938V45.793h2.511c3.324,0,6.389,0.887,6.389,4.837
		c0,2.697-1.68,4.579-4.376,4.801L36.008,63.261z M52.182,76.998V65.845h1.606v15.03L42.563,69.132v11.115h-1.606v-15.03
		L52.182,76.998z M49.671,63.261l8.069-18.279l7.846,18.279h-2.16l-2.049-4.948h-7.459l-2.105,4.948H49.671z M47.75,47.603h-7.108
		v5.207h6.905v1.809h-6.905v6.832h7.108v1.811h-9.047V45.793h9.047V47.603z M39.091,80.247h-1.772l-1.699-4.1h-6.148l-1.735,4.1
		h-1.773l6.647-15.104L39.091,80.247z M48.748,91.547v5.096h-1.311V84.974h1.92c1.015,0,2.049,0.037,2.899,0.628
		c0.867,0.591,1.311,1.625,1.311,2.658c0,0.924-0.388,1.884-1.107,2.512c-0.794,0.627-1.81,0.775-2.77,0.775H48.748z M61.636,96.643
		l-1.386-3.323h-4.985l-1.402,3.323H52.44l5.392-12.223l5.243,12.223H61.636z M56.171,73.083c0-4.137,3.378-7.497,7.496-7.497
		c1.605,0,3.027,0.444,4.302,1.404v1.993c-1.146-1.182-2.733-1.92-4.395-1.92c-3.213,0-5.798,2.807-5.798,5.982
		s2.604,5.945,5.835,5.945c1.624,0,3.212-0.775,4.357-1.92v1.994c-1.237,0.923-2.77,1.439-4.302,1.439
		C59.604,80.505,56.171,77.182,56.171,73.083z M72.659,54.878l-1.071-0.443c-2.05-0.924-3.805-1.995-3.805-4.468
		c0-2.733,2.29-4.469,4.894-4.469c1.938,0,3.582,0.997,4.505,2.732l-1.551,0.997c-0.684-1.218-1.514-1.92-3.009-1.92
		c-1.552,0-2.899,1.108-2.899,2.696c0,1.515,1.569,2.216,2.751,2.732l1.146,0.518c2.271,0.997,4.19,2.142,4.19,4.911
		c0,3.064-2.455,5.392-5.483,5.392c-2.807,0-4.894-1.811-5.447-4.506l1.902-0.517c0.258,1.772,1.625,3.212,3.489,3.212
		c1.884,0,3.601-1.402,3.601-3.396C75.871,56.317,74.265,55.616,72.659,54.878z M65.218,96.643h-1.312V84.974h1.312V96.643z
		 M76.757,94.907c-1.07,1.219-2.695,1.921-4.32,1.921c-3.286,0-6-2.696-6-5.983c0-3.359,2.714-6.056,6.074-6.056
		c2.05,0,3.711,0.887,4.948,2.511l-0.96,0.887c-0.961-1.403-2.289-2.216-4.007-2.216c-2.658,0-4.764,2.252-4.764,4.874
		c0,1.256,0.499,2.438,1.366,3.287c0.85,0.887,2.086,1.515,3.305,1.515c2.031,0,4.173-1.515,4.173-3.657h-3.471v-1.218h4.856
		C77.994,92.359,77.828,93.651,76.757,94.907z M78.345,67.322h-5.853v4.283h5.687v1.478h-5.687v5.649h5.853v1.515h-7.459V65.845
		h7.459V67.322z M89.608,80.247h-1.994l-4.357-6.353h-0.369v6.353h-1.606V65.845h2.086c2.732,0,5.28,0.702,5.28,3.952
		c0,2.216-1.402,3.803-3.618,3.987L89.608,80.247z M85.546,47.603v15.658H83.59V47.603H79.36v-1.809h10.433v1.809H85.546z
		 M89.83,97.16l-9.103-9.528v9.011h-1.312V84.493l9.085,9.528v-9.048h1.329V97.16z M95.517,41.473H6.521V1.702h88.996V41.473z"/>
</g>
<g>
	<rect x="12.392" y="35.158" fill="#FFFFFF" width="0.941" height="4.173"/>
	<path fill="#FFFFFF" d="M32.186,36.376c0,0.628,0.018,1.182,0.092,1.736h-0.037c-0.185-0.48-0.424-0.998-0.665-1.441l-0.868-1.514
		h-1.108v4.173h0.868v-1.255c0-0.702-0.019-1.292-0.037-1.809l0.018-0.037c0.203,0.517,0.48,1.033,0.72,1.477l0.886,1.625h0.997
		v-4.173h-0.868V36.376z"/>
	<path fill="#FFFFFF" d="M52.312,35.564c-0.407-0.295-0.923-0.443-1.718-0.443c-0.48,0-0.923,0.037-1.274,0.074v4.099
		c0.24,0.037,0.591,0.074,1.071,0.074c0.813,0,1.495-0.185,1.921-0.554c0.406-0.332,0.701-0.886,0.701-1.662
		C53.013,36.414,52.736,35.897,52.312,35.564z M50.594,38.629c-0.11,0-0.24,0-0.313,0v-2.732c0.074-0.037,0.203-0.037,0.424-0.037
		c0.813,0,1.311,0.443,1.311,1.33C52.016,38.15,51.443,38.629,50.594,38.629z"/>
	<rect x="69.076" y="35.158" fill="#FFFFFF" width="0.96" height="4.173"/>
	<path fill="#FFFFFF" d="M87.245,35.158l-1.256,4.173h0.96l0.296-1.071h1.219l0.332,1.071h0.997l-1.292-4.173H87.245z
		 M87.393,37.559l0.258-0.887c0.074-0.258,0.111-0.554,0.186-0.812l0,0c0.074,0.258,0.147,0.554,0.222,0.812l0.295,0.887H87.393z"/>
</g>
<g>
	<path fill="#FFFFFF" d="M89.238,30.764c0-0.147-0.146-0.185-0.258-0.185h-0.296v0.665h0.111v-0.295h0.11l0.186,0.295h0.146
		l-0.221-0.295C89.129,30.949,89.238,30.875,89.238,30.764z M88.906,30.837h-0.11v-0.148h0.147c0.074,0,0.186,0,0.186,0.074
		C89.129,30.875,88.98,30.837,88.906,30.837z"/>
	<path fill="#FFFFFF" d="M88.943,30.284c-0.368,0-0.665,0.295-0.665,0.628c0,0.37,0.297,0.628,0.665,0.628
		c0.332,0,0.591-0.258,0.591-0.628C89.534,30.579,89.275,30.284,88.943,30.284z M88.943,31.465c-0.296,0-0.554-0.258-0.554-0.554
		s0.258-0.518,0.554-0.518c0.259,0,0.518,0.222,0.518,0.518S89.202,31.465,88.943,31.465z"/>
</g>
</svg>
