<?xml version="1.0" encoding="utf-8"?>
<!-- Generator: Adobe Illustrator 23.0.0, SVG Export Plug-In . SVG Version: 6.00 Build 0)  -->
<svg version="1.1" id="Layer_1" xmlns="http://www.w3.org/2000/svg" xmlns:xlink="http://www.w3.org/1999/xlink" x="0px" y="0px"
	 viewBox="0 0 102 102" style="enable-background:new 0 0 102 102;" xml:space="preserve">
<style type="text/css">
	.st0{fill-rule:evenodd;clip-rule:evenodd;fill:#FFFFFF;}
	.st1{fill:#FFFFFF;}
</style>
<g>
	<path class="st0" d="M3.2,65.2H1v0.4h12.3v-7.8H13c0,0,0,4.5-1.5,6c-1.3,1.3-2.6,1.4-4.8,1.4V50.9c0,0,1.5-0.1,2.2,0.6
		c1.1,1.1,1.3,2.6,1.3,4.6h0.4v-11h-0.4c0,2-0.1,3.5-1.3,4.6c-0.7,0.7-2.2,0.6-2.2,0.6V36.8c2.2,0,3.2,0.1,4.5,1.4
		c1.5,1.5,1.5,6,1.5,6h0.4v-7.8H1v0.4h2.2V65.2L3.2,65.2z"/>
	<path class="st0" d="M36.1,36.8v28.5c2.2,0,3.5-0.1,4.8-1.4c1.5-1.5,1.5-6,1.5-6h0.4v7.8H30.4v-0.4h2.2V36.8h-2.2v-0.4h7.8v0.4
		L36.1,36.8L36.1,36.8z"/>
	<path class="st0" d="M65.2,36.8v28.5c2.2,0,3.5-0.1,4.8-1.4c1.5-1.5,1.5-6,1.5-6h0.4v7.8H59.5v-0.4h2.2V36.8h-2.2v-0.4h7.8v0.4
		L65.2,36.8L65.2,36.8z"/>
	<g>
		<path class="st1" d="M100.6,57.9c0,0,0,4.5-1.5,6c-1.3,1.3-2.6,1.4-4.8,1.4V50.9c0,0,1.5-0.1,2.2,0.6c1.1,1.1,1.3,2.6,1.3,4.6h0.4
			v-11h-0.4c0,2-0.1,3.5-1.3,4.6c-0.7,0.7-2.2,0.6-2.2,0.6V36.8c2.2,0,3.2,0.1,4.5,1.4c1.5,1.5,1.5,6,1.5,6h0.4v-7.8H88.7v0.4h2.2
			v28.5h-2.2v0.4H101v-7.8H100.6z M100,65.1c-0.4,0-0.7-0.3-0.7-0.7c0-0.4,0.3-0.7,0.7-0.7c0.4,0,0.7,0.3,0.7,0.7
			C100.7,64.8,100.4,65.1,100,65.1z"/>
		<path class="st1" d="M100.3,64.3c0-0.1-0.1-0.2-0.3-0.2h-0.3v0.8h0.1v-0.4h0.2l0.2,0.4h0.1l-0.2-0.4
			C100.2,64.5,100.3,64.4,100.3,64.3z M99.9,64.4h-0.2v-0.2h0.2c0.1,0,0.2,0,0.2,0.1C100.2,64.4,100.1,64.4,99.9,64.4z"/>
		<path class="st1" d="M100,63.7c-0.4,0-0.7,0.3-0.7,0.7c0,0.4,0.3,0.7,0.7,0.7c0.4,0,0.7-0.3,0.7-0.7
			C100.7,64.1,100.4,63.7,100,63.7z M100,65.1c-0.3,0-0.6-0.3-0.6-0.6c0-0.3,0.3-0.6,0.6-0.6c0.3,0,0.6,0.3,0.6,0.6
			C100.6,64.8,100.3,65.1,100,65.1z"/>
	</g>
</g>
</svg>
