<?xml version="1.0" encoding="utf-8"?>
<!-- Generator: Adobe Illustrator 19.0.0, SVG Export Plug-In . SVG Version: 6.00 Build 0)  -->
<svg version="1.1" xmlns="http://www.w3.org/2000/svg" xmlns:xlink="http://www.w3.org/1999/xlink" x="0px" y="0px"
	 viewBox="0 0 289.1 289.1" style="enable-background:new 0 0 289.1 289.1;" xml:space="preserve">
<style type="text/css">
	.st0{fill:#FFFFFF;}
</style>
<g>
	<g>
		<path class="st0" d="M39.3,142.3v24.1H2.8v-0.8h6.4v-88H2.8v-0.8h35.8v24h-0.8c0-20.9-8-22.5-18-22.5v38.2v3.4
			c9.4,0,10.3-6.9,10.3-16.5h0.8v33.5h-0.8c0-9.6-0.9-16.2-10.3-16.2v5.4v35.9v3c10,0,18.7-2.2,18.7-22.6H39.3z"/>
		<path class="st0" d="M101.9,165.5c10,0,18.7-2.9,18.7-23.3h0.8v24.1H84.9v-0.8h6.4v-88h-6.4v-0.8h23.4v0.8h-6.4v33.8V165.5z"/>
		<path class="st0" d="M184,165.5c10,0,18.7-2.9,18.7-23.3h0.8v24.1H167v-0.8h6.4v-88H167v-0.8h23.4v0.8H184v33.8V165.5z"/>
		<path class="st0" d="M285.5,142.3v24.1h-36.5v-0.8h6.4v-88h-6.4v-0.8h35.8v24H284c0-20.9-8-22.5-18-22.5v38.2v3.4
			c9.4,0,10.3-6.9,10.3-16.5h0.8v33.5h-0.8c0-9.6-0.9-16.2-10.3-16.2v5.4v35.9v3c10,0,18.7-2.2,18.7-22.6H285.5z"/>
	</g>
	<g>
		<path class="st0" d="M31.7,206.5c-4,3.6-8.3,5.2-14.8,5.2H8.8v-40.5h8.1c6.5,0,10.9,1.6,14.9,5.2c4.2,3.8,6.5,9.1,6.5,15.1
			C38.3,197.4,36,202.7,31.7,206.5z M34.6,191.5c0-10.1-7.1-16.9-17.6-16.9h-4.7v33.9H17c5,0,8.9-1.4,12-4.1
			C32.6,201.3,34.6,196.7,34.6,191.5L34.6,191.5z"/>
		<path class="st0" d="M71.5,211.7v-40.5h20.1v3.3H75v13.4h16.3v3.3H75v17.2h16.6v3.3H71.5z"/>
		<path class="st0" d="M143.5,212.4c-11.4,0-21.1-9.5-21.1-20.8c0-11.5,9.6-21,21.1-21c4.1,0,7.8,1.2,11,3.4
			c0.5,0.3,1.1,0.7,1.8,1.2v4.6c-2.7-2.7-3.9-3.6-6.9-4.7c-2.1-0.8-4.1-1.2-6.1-1.2c-9.3,0-17.3,8.1-17.3,17.7
			c0,9.4,8,17.4,17.4,17.4c3.7,0,8.3-1.7,11.1-4.1c0.4-0.4,1-0.9,1.8-1.7v4.6C152.1,211,148.2,212.4,143.5,212.4z"/>
		<path class="st0" d="M209.8,212.4c-11.5,0-21.1-9.4-21.1-20.8c0-11.5,9.5-21,21.1-21c11.5,0,21,9.5,21,20.9
			C230.8,202.9,221.3,212.4,209.8,212.4z M227.2,191.6c0-9.6-7.8-17.6-17.4-17.6c-9.6,0-17.4,7.9-17.4,17.6
			c0,9.6,7.9,17.5,17.4,17.5C219.4,209.1,227.2,201.1,227.2,191.6L227.2,191.6z"/>
		<path class="st0" d="M282,211.7l-12.6-18.5h-1.2v18.5h-3.6v-40.5h6.1c4.4,0,7,0.6,9.2,2.1c2.7,1.9,4.3,5.1,4.3,8.9
			c0,4.7-2.4,8.4-6.2,9.8c-1.5,0.6-2.5,0.8-4.7,1l13,18.6H282z M268.2,174.6v15.5h3.3c5.8,0,9.1-2.8,9.1-7.8c0-3.1-1.3-5.5-3.5-6.6
			c-1.5-0.8-3.4-1.2-5.9-1.2H268.2z"/>
	</g>
	<g>
		<path class="st0" d="M282.3,165.1c-1.1,0-2.1-0.9-2.1-2.1c0-1.1,0.9-2.1,2.1-2.1c1.2,0,2.1,0.9,2.1,2.1
			C284.4,164.1,283.4,165.1,282.3,165.1z M280.5,163c0,1,0.8,1.8,1.8,1.8c1,0,1.8-0.8,1.8-1.8c0-1-0.8-1.8-1.8-1.8
			C281.3,161.2,280.5,162,280.5,163z M282.7,164.1l-0.8-1l0,1h-0.3v-2.4h0.4c0.6,0,0.9,0.2,0.9,0.7c0,0.4-0.2,0.6-0.6,0.6l0.8,1.1
			H282.7z M282.6,162.5c0-0.3-0.2-0.4-0.5-0.4h-0.1v0.8h0.2C282.4,162.9,282.6,162.7,282.6,162.5L282.6,162.5z"/>
	</g>
</g>
</svg>
