<?xml version="1.0" encoding="utf-8"?>
<!-- Generator: Adobe Illustrator 16.0.0, SVG Export Plug-In . SVG Version: 6.00 Build 0)  -->
<!DOCTYPE svg PUBLIC "-//W3C//DTD SVG 1.1//EN" "http://www.w3.org/Graphics/SVG/1.1/DTD/svg11.dtd">
<svg version="1.1" id="Layer_1" xmlns="http://www.w3.org/2000/svg" xmlns:xlink="http://www.w3.org/1999/xlink" x="0px" y="0px"
	 width="102px" height="102px" viewBox="0 0 102 102" enable-background="new 0 0 102 102" xml:space="preserve">
<g>
	<g>
		<defs>
			<rect id="SVGID_1_" x="1" y="29.123" width="100" height="43.754"/>
		</defs>
		<clipPath id="SVGID_2_">
			<use xlink:href="#SVGID_1_"  overflow="visible"/>
		</clipPath>
		<path clip-path="url(#SVGID_2_)" fill="#FFFFFF" d="M25.13,60.047c-3.766,0-6.032,3.004-6.032,6.415
			c0,3.819,2.495,6.415,6.975,6.415c1.527,0,2.824-0.229,4.226-0.687l-0.561-2.241c-1.145,0.306-2.47,0.483-3.64,0.483
			c-2.292,0-3.92-1.094-3.971-2.951h8.781v-0.943C30.908,62.695,28.719,60.047,25.13,60.047 M22.153,65.291
			c0.228-1.884,1.374-2.851,2.977-2.851c1.73,0,2.648,1.069,2.826,2.851H22.153z"/>
		<path clip-path="url(#SVGID_2_)" fill="#FFFFFF" d="M39.558,60.047c-1.832,0-3.436,1.02-4.226,2.189v-1.959h-3.029v12.396h3.106
			v-6.899c0-1.729,1.501-2.952,2.9-2.952c1.554,0,2.24,0.915,2.24,2.442v7.409h3.105v-7.866
			C43.655,61.957,42.356,60.047,39.558,60.047"/>
		<path clip-path="url(#SVGID_2_)" fill="#FFFFFF" d="M50.002,60.048c-1.449,0-3.028,0.152-4.352,0.434l0.253,2.29
			c1.351-0.179,2.521-0.28,3.82-0.28c2.291,0,2.978,0.662,2.978,2.037v1.043h-3.717c-2.547,0-4.021,1.273-4.021,3.615
			c0,2.163,1.679,3.69,4.174,3.69c1.705,0,2.877-0.56,3.69-1.579v1.375h2.979v-8.068C55.807,61.523,53.643,60.048,50.002,60.048
			 M52.701,68.065c0,1.553-1.044,2.597-2.699,2.597c-1.271,0-1.935-0.483-1.935-1.502c0-1.119,0.688-1.553,1.935-1.553h2.699V68.065
			z"/>
		<path clip-path="url(#SVGID_2_)" fill="#FFFFFF" d="M64.063,62.542c0.738,0,1.605,0.076,2.47,0.28l0.509-2.24
			c-1.018-0.383-2.086-0.535-3.232-0.535c-4.124,0-6.847,2.802-6.847,6.416s2.723,6.413,6.847,6.413
			c1.019,0,2.368-0.255,3.232-0.584l-0.509-2.267c-0.942,0.255-1.604,0.383-2.47,0.383c-2.697,0-3.996-1.63-3.996-3.945
			C60.066,64.146,61.365,62.542,64.063,62.542"/>
		<path clip-path="url(#SVGID_2_)" fill="#FFFFFF" d="M82.92,67.176c0,1.73-1.503,2.926-2.902,2.926
			c-1.553,0-2.215-0.915-2.215-2.443v-7.381h-0.416h-6.245V56.79h-3.104v3.487v2.087v6.745c0,2.725,1.654,3.767,3.92,3.767
			c0.61,0,1.35-0.102,1.781-0.202l-0.28-2.292c-0.279,0.052-0.688,0.103-0.891,0.103c-0.814,0-1.426-0.28-1.426-1.578v-6.542h3.556
			v5.777c0,2.852,1.298,4.734,4.099,4.734c1.833,0,3.411-1.018,4.199-2.188v1.985h3.056V60.277H82.92V67.176z"/>
		<path clip-path="url(#SVGID_2_)" fill="#FFFFFF" d="M93.345,65.291c-2.19-0.865-2.773-1.069-2.773-1.884
			c0-0.661,0.456-0.967,2.085-0.967c1.223,0,2.75,0.255,3.767,0.534l0.535-2.266c-1.349-0.457-3.154-0.662-4.354-0.662
			c-3.231,0-5.014,1.146-5.014,3.463c0,2.087,1.096,2.75,4.404,4.098c1.884,0.764,2.366,0.968,2.366,1.706
			c0,0.688-0.558,1.172-2.188,1.172c-1.274,0-2.852-0.357-4.354-0.893l-0.688,2.164c1.528,0.662,3.463,1.12,5.065,1.12
			c3.132,0,5.194-1.477,5.194-3.69C97.392,67.098,96.449,66.514,93.345,65.291"/>
		<polygon clip-path="url(#SVGID_2_)" fill="#FFFFFF" points="98.255,71.376 98.255,71.213 99.421,71.213 99.421,71.376 
			98.936,71.376 98.936,72.672 98.741,72.672 98.741,71.376 		"/>
		<polygon clip-path="url(#SVGID_2_)" fill="#FFFFFF" points="99.813,71.213 100.272,72.439 100.733,71.213 101,71.213 101,72.672 
			100.815,72.672 100.815,71.458 100.811,71.458 100.354,72.672 100.19,72.672 99.734,71.458 99.73,71.458 99.73,72.672 
			99.547,72.672 99.547,71.213 		"/>
		<polygon clip-path="url(#SVGID_2_)" fill="#DDDDDD" points="30.341,46.242 25.411,51.187 35.29,51.187 		"/>
		<polygon clip-path="url(#SVGID_2_)" fill="#FFFFFF" points="13.223,63.41 30.341,46.242 13.223,29.124 		"/>
		<polygon clip-path="url(#SVGID_2_)" fill="#DDDDDD" points="13.223,51.187 1,51.187 13.223,63.41 		"/>
		<polygon clip-path="url(#SVGID_2_)" fill="#AAAAAA" points="13.223,63.41 13.223,51.187 11.841,51.187 		"/>
		<polygon clip-path="url(#SVGID_2_)" fill="#AAAAAA" points="30.341,46.242 25.411,51.187 26.935,51.187 		"/>
	</g>
</g>
</svg>
