<?xml version="1.0" encoding="utf-8"?>
<!-- Generator: Adobe Illustrator 23.0.0, SVG Export Plug-In . SVG Version: 6.00 Build 0)  -->
<svg version="1.1" id="Layer_1" xmlns="http://www.w3.org/2000/svg" xmlns:xlink="http://www.w3.org/1999/xlink" x="0px" y="0px"
	 viewBox="0 0 102 102" style="enable-background:new 0 0 102 102;" xml:space="preserve">
<style type="text/css">
	.st0{fill:#FFFFFF;}
</style>
<g>
	<path class="st0" d="M22.4,42v15.2c0,2.9-3.6,2.9-3.6,2.9V44.9C18.8,42.1,22.4,42,22.4,42z"/>
	<path class="st0" d="M50.1,59.3c1.1,0.5,2.2,0.7,3.5,0.7h7.3c0,0-0.3-3.6-3-3.6h-4.3c-1.3,0-2.2-0.4-3-1.1c-0.1,0-0.1-0.1-0.2-0.1
		c0,0-0.1-0.1-0.1-0.1c-0.1-0.1-0.1-0.1-0.2-0.2c-0.1-0.1-0.2-0.2-0.2-0.2c-0.9-1-1.5-2.2-1.5-3.6c0-1.4,0.5-2.7,1.3-3.6
		c0.1-0.1,0.1-0.1,0.2-0.2c0.9-1,2.1-1.5,3.7-1.5h4.3c2.9,0,3-3.6,3-3.6h-7.3c-0.5,0-1,0-1.4,0.1c0,0-0.6,0.1-0.7,0.1
		c-0.5,0.1-1,0.3-1.5,0.5c-2.2,0.9-3.5,2.4-4.5,4.7c-0.5,1.1-0.7,2.3-0.7,3.6s0.2,2.4,0.7,3.6c1,2.2,2.5,3.8,4.5,4.7
		C50,59.2,50,59.2,50.1,59.3C50,59.2,50.1,59.3,50.1,59.3z"/>
	<path class="st0" d="M39.2,56.4H31v-3.6H36c2.6,0,3-3.6,3-3.6H31v-3.5h8.2c2.7,0,3.1-3.6,3.1-3.6H30.4c-2.9,0-2.9,2.9-3,3.6v10.7
		c0,0,0.4,3.6,3,3.6h11.8C42.2,60,42.1,56.4,39.2,56.4z"/>
	<path class="st0" d="M4,42.1h11.9c0,0-0.4,3.7-3,3.7H1C1,45,1.1,42.1,4,42.1z M4,49.3h8.5c0,0-0.4,3.7-3,3.7H4.7v4.3
		c0,3-3.7,3-3.7,3v-7.9C1,50.7,2.2,49.3,4,49.3z"/>
	<path class="st0" d="M72.3,41.8c-5.3,0-9.2,3.9-9.2,9.2c0,5.3,3.9,9.3,9.2,9.3c5.3,0,9.2-4,9.2-9.3C81.5,45.7,77.6,41.8,72.3,41.8z
		 M72.4,56.4c-2.8,0-5.3-2.3-5.3-5.4c0-3.1,2.4-5.3,5.3-5.3c2.8,0,5.1,2.2,5.1,5.3C77.5,54.1,75.3,56.4,72.4,56.4z"/>
	<path class="st0" d="M101,59.8v-4.7V42c0,0-3.6,0.4-3.6,3v7c-3.3-3.3-9-8.7-9-8.7c-1.3-1.3-3.2-1.2-3.2-1.2v18.1c0,0,3.6,0,3.6-2.9
		v-8c2.6,2.7,10.3,9.5,11.8,10.8c0,0,0.1,0,0.1,0C100.9,59.9,101,59.9,101,59.8C101,59.8,101,59.8,101,59.8L101,59.8
		C101,59.8,101,59.8,101,59.8C101,59.8,101,59.8,101,59.8z"/>
</g>
</svg>
