<?xml version="1.0" encoding="utf-8"?>
<!-- Generator: Adobe Illustrator 23.0.0, SVG Export Plug-In . SVG Version: 6.00 Build 0)  -->
<svg version="1.1" id="Layer_1" xmlns="http://www.w3.org/2000/svg" xmlns:xlink="http://www.w3.org/1999/xlink" x="0px" y="0px"
	 viewBox="0 0 102 102" style="enable-background:new 0 0 102 102;" xml:space="preserve">
<style type="text/css">
	.st0{fill:#FFFFFF;}
	.st1{fill:#DDDDDD;}
	.st2{fill:none;stroke:#DDDDDD;stroke-width:1.3088;stroke-miterlimit:22.9256;}
	.st3{fill:#EEEEEE;}
</style>
<g>
	<polygon class="st0" points="26.7,96.1 26.7,96.4 21.8,96.4 21.8,101.1 21.5,101.1 21.5,91.7 27.3,91.7 27.3,92 21.8,92 21.8,96.1 
			"/>
	<rect x="27.8" y="91.7" class="st0" width="0.3" height="9.4"/>
	<path class="st0" d="M29.5,101.1v-9.4h3.8c1,0,1.7,0.2,2.2,0.6c0.5,0.4,0.7,1,0.7,1.8c0,0.6-0.1,1.2-0.5,1.6
		c-0.4,0.4-0.9,0.7-1.5,0.8v0c0.4,0.1,0.7,0.1,1,0.3c0.2,0.1,0.4,0.3,0.6,0.5c0.1,0.2,0.2,0.5,0.3,0.8c0,0.3,0.1,0.6,0.1,1
		c0,0.1,0,0.3,0,0.5c0,0.2,0,0.4,0,0.6c0,0.2,0,0.4,0.1,0.5c0,0.2,0.1,0.3,0.1,0.3H36c0-0.1-0.1-0.2-0.1-0.4c0-0.2,0-0.3-0.1-0.5
		c0-0.2,0-0.4,0-0.6c0-0.2,0-0.4,0-0.5c0-0.4,0-0.7-0.1-1c-0.1-0.3-0.2-0.6-0.3-0.8c-0.2-0.2-0.4-0.4-0.7-0.5
		c-0.3-0.1-0.8-0.2-1.3-0.2h-3.5v4.4L29.5,101.1L29.5,101.1z M33.3,96.4L33.3,96.4c0.4,0,0.7,0,1-0.1c0.3-0.1,0.6-0.2,0.8-0.4
		c0.2-0.2,0.4-0.4,0.6-0.7c0.1-0.3,0.2-0.6,0.2-1.1c0-0.7-0.2-1.2-0.6-1.6c-0.4-0.4-1-0.6-1.9-0.6h-3.6v4.4L33.3,96.4L33.3,96.4z"/>
	<path class="st0" d="M43.5,93.2c-0.2-0.3-0.4-0.6-0.6-0.8c-0.3-0.2-0.6-0.4-0.9-0.4c-0.4-0.1-0.8-0.1-1.2-0.1c-0.3,0-0.7,0-1,0.1
		c-0.4,0.1-0.7,0.2-0.9,0.3c-0.3,0.2-0.5,0.4-0.7,0.7c-0.2,0.3-0.3,0.6-0.3,1s0.1,0.8,0.3,1c0.2,0.3,0.4,0.5,0.7,0.6
		c0.3,0.2,0.6,0.3,1,0.4c0.4,0.1,0.8,0.2,1.2,0.3c0.4,0.1,0.8,0.2,1.2,0.3c0.4,0.1,0.7,0.2,1,0.4c0.3,0.2,0.5,0.4,0.7,0.7
		c0.2,0.3,0.3,0.7,0.3,1.2c0,0.4-0.1,0.8-0.3,1.1c-0.2,0.3-0.4,0.6-0.8,0.8c-0.3,0.2-0.7,0.4-1.1,0.4c-0.4,0.1-0.8,0.1-1.2,0.1
		c-0.5,0-1-0.1-1.5-0.2c-0.4-0.1-0.8-0.3-1.2-0.6c-0.3-0.3-0.6-0.6-0.8-1c-0.2-0.4-0.3-0.9-0.3-1.5h0.3c0,0.6,0.1,1,0.2,1.4
		c0.2,0.4,0.4,0.7,0.7,0.9c0.3,0.2,0.7,0.4,1.1,0.5c0.4,0.1,0.9,0.2,1.4,0.2c0.4,0,0.7,0,1.1-0.1c0.4-0.1,0.7-0.2,1-0.4
		c0.3-0.2,0.5-0.4,0.7-0.7c0.2-0.3,0.3-0.6,0.3-1c0-0.5-0.1-0.8-0.3-1.1c-0.2-0.3-0.5-0.5-0.8-0.7c-0.3-0.2-0.7-0.3-1.1-0.4
		c-0.4-0.1-0.8-0.2-1.1-0.3c-0.4-0.1-0.8-0.2-1.1-0.3c-0.4-0.1-0.7-0.2-1-0.4c-0.3-0.2-0.5-0.4-0.7-0.7c-0.2-0.3-0.3-0.7-0.3-1.1
		c0-0.5,0.1-0.9,0.3-1.2c0.2-0.3,0.4-0.6,0.7-0.7c0.3-0.2,0.6-0.3,1-0.4c0.4-0.1,0.8-0.1,1.1-0.1c0.5,0,0.9,0.1,1.3,0.2
		c0.4,0.1,0.7,0.3,1,0.5c0.3,0.2,0.5,0.5,0.7,0.9c0.2,0.4,0.3,0.8,0.3,1.3h-0.3C43.7,93.9,43.6,93.5,43.5,93.2z"/>
	<polygon class="st0" points="44.6,91.7 51.6,91.7 51.6,92 48.2,92 48.2,101.1 48,101.1 48,92 44.6,92 	"/>
	<path class="st0" d="M53.2,101.1v-9.4h3.8c1,0,1.7,0.2,2.2,0.6c0.5,0.4,0.7,1,0.7,1.8c0,0.6-0.1,1.2-0.5,1.6
		c-0.4,0.4-0.9,0.7-1.5,0.8v0c0.4,0.1,0.7,0.1,1,0.3c0.2,0.1,0.4,0.3,0.6,0.5c0.1,0.2,0.2,0.5,0.3,0.8c0,0.3,0.1,0.6,0.1,1
		c0,0.1,0,0.3,0,0.5c0,0.2,0,0.4,0,0.6c0,0.2,0,0.4,0.1,0.5c0,0.2,0.1,0.3,0.1,0.3h-0.3c0-0.1-0.1-0.2-0.1-0.4c0-0.2,0-0.3-0.1-0.5
		c0-0.2,0-0.4,0-0.6c0-0.2,0-0.4,0-0.5c0-0.4,0-0.7-0.1-1c-0.1-0.3-0.2-0.6-0.3-0.8c-0.2-0.2-0.4-0.4-0.8-0.5
		c-0.3-0.1-0.8-0.2-1.3-0.2h-3.5v4.4L53.2,101.1L53.2,101.1z M57,96.4L57,96.4c0.4,0,0.7,0,1-0.1c0.3-0.1,0.6-0.2,0.8-0.4
		c0.2-0.2,0.4-0.4,0.6-0.7c0.1-0.3,0.2-0.6,0.2-1.1c0-0.7-0.2-1.2-0.6-1.6c-0.4-0.4-1-0.6-1.9-0.6h-3.6v4.4L57,96.4L57,96.4z"/>
	<path class="st0" d="M61.2,94.5c0.2-0.6,0.5-1.1,0.8-1.6c0.4-0.4,0.8-0.8,1.4-1.1c0.5-0.3,1.2-0.4,1.9-0.4c0.7,0,1.3,0.1,1.9,0.4
		c0.5,0.3,1,0.6,1.4,1.1c0.4,0.4,0.6,1,0.8,1.6c0.2,0.6,0.3,1.2,0.3,1.9c0,0.7-0.1,1.3-0.3,1.9c-0.2,0.6-0.5,1.1-0.8,1.6
		c-0.4,0.4-0.8,0.8-1.4,1.1c-0.5,0.3-1.2,0.4-1.9,0.4c-0.7,0-1.3-0.1-1.9-0.4c-0.5-0.3-1-0.6-1.4-1.1c-0.4-0.4-0.6-1-0.8-1.6
		c-0.2-0.6-0.3-1.2-0.3-1.9C61,95.8,61.1,95.1,61.2,94.5L61.2,94.5z M61.5,98.3L61.5,98.3c0.2,0.6,0.5,1.1,0.8,1.5
		c0.3,0.4,0.8,0.7,1.3,1c0.5,0.2,1.1,0.3,1.7,0.3c0.6,0,1.2-0.1,1.7-0.3c0.5-0.2,0.9-0.6,1.3-1c0.3-0.4,0.6-0.9,0.8-1.5
		c0.2-0.6,0.3-1.2,0.3-1.9c0-0.7-0.1-1.3-0.3-1.9c-0.2-0.6-0.5-1.1-0.8-1.5c-0.3-0.4-0.8-0.7-1.3-1c-0.5-0.2-1.1-0.3-1.7-0.3
		c-0.6,0-1.2,0.1-1.7,0.3c-0.5,0.2-0.9,0.6-1.3,1c-0.3,0.4-0.6,0.9-0.8,1.5c-0.2,0.6-0.3,1.2-0.3,1.9C61.2,97.1,61.3,97.7,61.5,98.3
		z"/>
	<polygon class="st0" points="81.5,91.7 78.8,101.1 78.5,101.1 75.7,92.1 75.7,92.1 73,101.1 72.6,101.1 69.9,91.7 70.1,91.7 
		72.8,100.8 72.8,100.8 75.5,91.7 75.9,91.7 78.6,100.8 78.7,100.8 81.3,91.7 	"/>
	<rect x="21.2" y="1.3" class="st1" width="59.3" height="85.6"/>
	<rect x="21.2" y="1.3" class="st2" width="59.3" height="85.6"/>
	<path class="st3" d="M50,63.5V76c0,2.4,0.1,4.2,0.4,5.3c0.3,1.2,0.8,2.1,1.5,2.9c0.6,0.7,1.4,1.1,2.2,1.5c0.8,0.3,1.9,0.5,3.3,0.6
		V87H35v-0.8c1.4-0.1,2.5-0.3,3.3-0.6c0.8-0.3,1.6-0.8,2.2-1.5c0.8-0.8,1.3-1.7,1.5-2.9c0.3-1.1,0.4-2.9,0.4-5.4V50
		c0-2.4-0.1-4.2-0.4-5.4c-0.3-1.1-0.8-2.1-1.5-2.9c-0.6-0.7-1.4-1.2-2.2-1.5c-0.8-0.3-1.9-0.5-3.3-0.6V39h16.9c2.8,0,4.7,0,5.6,0
		c3.6,0.2,6.5,0.7,8.5,1.5c2.3,0.9,4.1,2.3,5.4,4.2c1.3,1.9,1.9,4,1.9,6.5c0,3.7-1.4,6.6-4.1,8.8c-0.8,0.7-1.8,1.2-2.8,1.6
		c-1,0.4-2.4,0.8-4.1,1.2c1.4,0.6,2.4,1.2,3.1,1.8c0.5,0.5,1,1.1,1.5,1.8c0.4,0.7,1.1,2,2,3.9c2.1,4.3,3.7,7.4,4.7,9.4
		c1.1,2,2,3.4,2.7,4.3c0.6,0.7,1.2,1.2,1.7,1.5c0.5,0.3,1.3,0.5,2.5,0.6V87H68.6c-0.6-1.3-1-2.1-1.1-2.5L65,78.9
		c-1.5-3.3-3-6.3-4.5-8.9c-1.5-2.6-2.9-4.3-4.1-5.2c-0.6-0.5-1.3-0.8-2-1c-0.7-0.2-1.6-0.3-2.7-0.3L50,63.5L50,63.5z M50,62.8
		L50,62.8h1.3c2.9,0,5-0.2,6.3-0.5c1.3-0.3,2.4-1,3.5-2c2.5-2.3,3.7-5.3,3.7-8.7c0-1.9-0.4-3.6-1.1-5.2c-0.7-1.6-1.7-3-3-4
		c-1-0.8-2.2-1.4-3.5-1.7c-1.4-0.3-3.3-0.5-5.8-0.5H50L50,62.8L50,62.8z"/>
	<path class="st0" d="M36.2,61.9V76c0,2.4,0.1,4.2,0.4,5.3c0.3,1.1,0.7,2.1,1.5,2.9c0.6,0.7,1.4,1.2,2.2,1.5
		c0.9,0.3,1.9,0.5,3.3,0.6V87H21.2v-0.8c1.1,0,2.2-0.2,3.2-0.5c1-0.4,1.8-0.9,2.4-1.5c0.7-0.7,1.1-1.7,1.4-3c0.3-1.3,0.4-3,0.4-5.3
		V50c0-1.5-0.1-3.1-0.2-4.7c-0.2-2.1-1.2-3.6-3-4.6c-1-0.5-3.1-0.9-4.9-0.9V39h37.5l1,11.4l-0.8,0.2c-0.6-1.8-1.1-3.1-1.6-4
		c-1.1-2-2.6-3.6-4.6-4.8c-1.2-0.7-2.5-1.1-4-1.4c-1.5-0.3-3.6-0.4-6.2-0.4h-5.4v20.8h1.4c4.1,0,7.1-0.9,9-2.8
		c0.8-0.8,1.4-1.7,1.9-2.8c0.4-1.1,0.7-2.5,0.8-4.3l0.8,0L50,72.3h-0.8c-0.3-2.4-0.7-4.2-1.3-5.5c-0.6-1.3-1.6-2.3-2.8-3.1
		c-0.9-0.6-2.1-1-3.5-1.3C40.1,62,38.4,61.9,36.2,61.9z"/>
</g>
</svg>
