<?xml version="1.0" encoding="utf-8"?>
<!-- Generator: Adobe Illustrator 19.0.0, SVG Export Plug-In . SVG Version: 6.00 Build 0)  -->
<svg version="1.1" id="Layer_1" xmlns="http://www.w3.org/2000/svg" xmlns:xlink="http://www.w3.org/1999/xlink" x="0px" y="0px"
	 viewBox="0 0 102 102" style="enable-background:new 0 0 102 102;" xml:space="preserve">
<style type="text/css">
	.st0{fill-rule:evenodd;clip-rule:evenodd;fill:#FFFFFF;}
	.st1{fill:#FFFFFF;}
</style>
<g>
	<path class="st0" d="M47.2,35.6c0.1-0.6,0.4-0.9,0.9-0.9c0.5,0,0.8,0.3,0.9,0.9H47.2z M48.1,38.1c1.1,0,1.8-0.5,1.9-1.3h-1
		c-0.1,0.3-0.3,0.5-0.8,0.5c-0.6,0-0.9-0.4-1-1H50V36c0-1.4-0.9-2-1.9-2c-1.1,0-2,0.8-2,2v0.1C46,37.3,46.9,38.1,48.1,38.1z
		 M41.7,38h1.1v-2.3c0-0.6,0.4-0.9,0.8-0.9c0.5,0,0.7,0.3,0.7,0.8V38h1.1v-2.5c0-1.1-0.5-1.5-1.3-1.5c-0.7,0-1.1,0.3-1.3,0.7v-2.1
		h-1.1V38z M38.3,38h1.2v-4.4H41v-0.9h-4.1v0.9h1.5V38z"/>
	<path class="st1" d="M98.6,49.6c1.5,0,2.4-0.7,2.4-1.9c0-1.2-0.8-1.6-2.2-1.8c-0.8-0.1-1.1-0.3-1.1-0.6c0-0.4,0.3-0.6,0.8-0.6
		c0.6,0,0.8,0.2,0.9,0.7h1.5c-0.1-1.3-1.1-1.8-2.4-1.8c-1.2,0-2.3,0.6-2.3,1.8c0,1.1,0.6,1.6,2.1,1.8c0.8,0.1,1.2,0.3,1.2,0.7
		s-0.3,0.6-0.9,0.6c-0.7,0-0.9-0.3-1-0.8h-1.5C96.1,48.9,97,49.6,98.6,49.6 M91.2,45.9c0.1-0.8,0.6-1.3,1.3-1.3
		c0.8,0,1.2,0.4,1.3,1.3H91.2z M92.6,49.6c1.6,0,2.6-0.7,2.8-1.9h-1.5c-0.1,0.5-0.5,0.8-1.2,0.8c-0.9,0-1.4-0.6-1.4-1.5h4.2v-0.4
		c0-2.1-1.3-2.9-2.8-2.9c-1.7,0-3,1.2-3,3v0.1C89.6,48.5,90.9,49.6,92.6,49.6z M85.7,49.4h1.6v-2.9c0-1.1,0.7-1.5,1.9-1.5v-1.5
		c-0.9,0-1.5,0.4-1.9,1.2v-1.1h-1.6V49.4z M81.9,49.6c1.7,0,2.7-0.9,2.8-2.3h-1.4c-0.1,0.7-0.6,1.1-1.2,1.1c-0.9,0-1.4-0.6-1.4-1.8
		v-0.1c0-1.1,0.6-1.7,1.4-1.7c0.7,0,1.1,0.3,1.2,1h1.5c-0.1-1.7-1.4-2.2-2.7-2.2c-1.6,0-3,1.1-3,3v0.1
		C78.9,48.5,80.2,49.6,81.9,49.6z M74.9,43l1,3.4h-2.1L74.9,43z M71.3,49.4h1.7l0.5-1.8h2.9l0.5,1.8h1.9l-2.6-7.9h-2.3L71.3,49.4z
		 M62.5,49.4h1.6v-3.3c0-0.9,0.5-1.3,1.2-1.3c0.7,0,1,0.4,1,1.2v3.4h1.6v-3.7c0-1.5-0.8-2.2-1.9-2.2c-1,0-1.6,0.5-1.9,1v-0.9h-1.6
		V49.4z M57.3,45.9c0.1-0.8,0.6-1.3,1.3-1.3c0.8,0,1.2,0.4,1.3,1.3H57.3z M58.7,49.6c1.6,0,2.6-0.7,2.8-1.9h-1.5
		c-0.1,0.5-0.5,0.8-1.2,0.8c-0.9,0-1.4-0.6-1.4-1.5h4.2v-0.4c0-2.1-1.3-2.9-2.8-2.9c-1.7,0-3,1.2-3,3v0.1
		C55.7,48.5,56.9,49.6,58.7,49.6z M50.8,45.9c0.1-0.8,0.6-1.3,1.3-1.3c0.8,0,1.2,0.4,1.3,1.3H50.8z M52.2,49.6
		c1.6,0,2.6-0.7,2.8-1.9h-1.5c-0.1,0.5-0.5,0.8-1.2,0.8c-0.9,0-1.4-0.6-1.4-1.5H55v-0.4c0-2.1-1.3-2.9-2.8-2.9c-1.7,0-3,1.2-3,3v0.1
		C49.2,48.5,50.5,49.6,52.2,49.6z M45.3,49.4h1.6v-2.9c0-1.1,0.7-1.5,1.9-1.5v-1.5c-0.9,0-1.5,0.4-1.9,1.2v-1.1h-1.6V49.4z
		 M40.4,49.6c2.4,0,3.7-1.4,3.7-3.5v-0.8h-3.5v1.3h1.8c0,0.9-0.6,1.7-1.9,1.7c-1.5,0-2.2-1.1-2.2-2.6v-0.1c0-1.6,0.8-2.6,2.2-2.6
		c0.9,0,1.6,0.4,1.7,1.3h1.8c-0.2-2-1.8-2.8-3.5-2.8c-2.3,0-4,1.7-4,4v0.1C36.4,47.9,37.8,49.6,40.4,49.6z"/>
	<path class="st1" d="M81.5,62.8h1.5l3.1-7.7h-1.5l-1.3,3.5l-1.4-3.5h-1.7l2.3,5.2L81.5,62.8z M70.8,60.9h1.6v-3.4
		c0-0.8,0.5-1.2,1.1-1.2c0.6,0,0.9,0.3,0.9,1.1v3.5H76v-3.4c0-0.8,0.5-1.2,1.1-1.2c0.6,0,0.9,0.3,0.9,1.1v3.5h1.6v-3.7
		c0-1.5-0.8-2.2-1.9-2.2c-0.7,0-1.5,0.3-1.9,1c-0.3-0.7-0.9-1-1.6-1c-0.9,0-1.5,0.5-1.8,1v-0.9h-1.6V60.9z M65.6,57.3
		c0.1-0.8,0.6-1.3,1.3-1.3c0.8,0,1.2,0.4,1.3,1.3H65.6z M66.9,61c1.6,0,2.6-0.7,2.8-1.9h-1.5c-0.1,0.5-0.5,0.8-1.2,0.8
		c-0.9,0-1.4-0.6-1.4-1.5h4.2v-0.4c0-2.1-1.3-2.9-2.8-2.9c-1.7,0-3,1.2-3,3V58C63.9,59.9,65.2,61,66.9,61z M59.9,59.7
		c-0.8,0-1.3-0.6-1.3-1.7v-0.1c0-1.1,0.5-1.8,1.4-1.8c0.9,0,1.4,0.6,1.4,1.7V58C61.3,59.2,60.7,59.7,59.9,59.7z M59.4,61
		c0.9,0,1.6-0.5,1.9-1.1v1h1.6v-8.4h-1.6v3.5c-0.3-0.6-0.9-1-1.8-1c-1.4,0-2.5,1.1-2.5,3V58C56.9,60,58,61,59.4,61z M53,59.9
		c-0.6,0-0.8-0.3-0.8-0.7c0-0.6,0.5-0.8,1.5-0.8h0.6v0.5C54.3,59.5,53.8,59.9,53,59.9z M52.6,61c0.9,0,1.4-0.4,1.7-0.8v0.7h1.6v-3.8
		c0-1.6-1-2.1-2.4-2.1c-1.4,0-2.5,0.6-2.6,2h1.5c0.1-0.5,0.4-0.8,1-0.8c0.7,0,0.9,0.4,0.9,1.1v0.2h-0.7c-1.8,0-3,0.5-3,1.9
		C50.6,60.5,51.5,61,52.6,61z M47.3,61c1.7,0,2.7-0.9,2.8-2.3h-1.4c-0.1,0.7-0.6,1.1-1.2,1.1c-0.9,0-1.4-0.6-1.4-1.8v-0.1
		c0-1.1,0.6-1.7,1.4-1.7c0.7,0,1.1,0.3,1.2,1H50c-0.1-1.7-1.4-2.2-2.7-2.2c-1.6,0-3,1.1-3,3V58C44.3,59.9,45.6,61,47.3,61z M40,54.4
		l1,3.4H39L40,54.4z M36.4,60.9h1.7l0.5-1.8h2.9l0.5,1.8h1.9L41.3,53H39L36.4,60.9z"/>
	<path class="st0" d="M23.5,37.4L25,36l-0.2,2.1l2.1,0.3l-1.7,1.2l1,1.8l-2-0.6l-0.8,2l-0.8-2l-2,0.6l1-1.8L20,38.4l2.1-0.3L22,36
		L23.5,37.4z M28.9,48c-4.4,6.3-16.6,8.1-20.5,1.1c-1.3-2.3-1.4-5.2,0-7.7c-0.8,2.4-0.4,5.2,1.1,7.3c1.1,1.4,2.7,2.5,4.6,2.8
		c-1.8-0.7-3.3-2.2-3.8-4c-0.6-1.7-0.2-3.3,0.1-4.2l0,0l0,0c-0.4,1.7,0.5,4.3,2.2,5c-3.6-4.1,1.9-12.8,9.2-10.7
		C14.3,34.6,5,37.4,1,44v8.2c0.5,9,6.1,13.5,14.7,17.3c0,0,1.3-0.6,3.1-1.8C2.6,63.3,0.6,45.5,8,39.2c-6.1,5.7-3.4,22.9,13.7,26.6
		c1.2-0.8,2.4-1.8,3.5-2.8c-15-2-17.3-11.2-17.3-11.2c5.4,9.9,18,9.5,18.9,9.5c0.2-0.2,0.3-0.4,0.4-0.6c1-1.3,1.8-2.7,2.3-4.3
		c-4.8,2.4-10.7,1.7-13.8-0.4c5.8,2.5,12.3,0.1,14.4-2.1c0.2-0.9,0.2-1.8,0.2-2.7v-6.4l0,0V32.5H1v9c0.5-0.6,1.2-1.3,1.5-1.5v-6.2
		h26.4V48z"/>
</g>
</svg>
