<?xml version="1.0" encoding="utf-8"?>
<!-- Generator: Adobe Illustrator 23.0.0, SVG Export Plug-In . SVG Version: 6.00 Build 0)  -->
<svg version="1.1" id="Layer_1" xmlns="http://www.w3.org/2000/svg" xmlns:xlink="http://www.w3.org/1999/xlink" x="0px" y="0px"
	 viewBox="0 0 102 102" style="enable-background:new 0 0 102 102;" xml:space="preserve">
<style type="text/css">
	.st0{fill:#FFFFFF;}
	.st1{fill:#EEEEEE;}
	.st2{fill:none;}
	.st3{clip-path:url(#SVGID_2_);fill:#2780B0;}
	.st4{clip-path:url(#SVGID_4_);fill:#2780B0;}
	.st5{clip-path:url(#SVGID_6_);fill:#2780B0;}
	.st6{clip-path:url(#SVGID_8_);fill:#2780B0;}
	.st7{clip-path:url(#SVGID_10_);fill:#2780B0;}
	.st8{clip-path:url(#SVGID_12_);fill:#2780B0;}
	.st9{clip-path:url(#SVGID_14_);fill:#2780B0;}
	.st10{clip-path:url(#SVGID_16_);fill:#2780B0;}
	.st11{clip-path:url(#SVGID_18_);fill:#2780B0;}
	.st12{clip-path:url(#SVGID_20_);fill:#2780B0;}
	.st13{clip-path:url(#SVGID_22_);fill:#231F20;}
	.st14{clip-path:url(#SVGID_24_);fill:#231F20;}
	.st15{clip-path:url(#SVGID_26_);fill:#FFFFFF;}
	.st16{clip-path:url(#SVGID_28_);fill:#231F20;}
	.st17{clip-path:url(#SVGID_30_);fill:#231F20;}
	.st18{clip-path:url(#SVGID_32_);fill:#231F20;}
	.st19{clip-path:url(#SVGID_34_);fill:#231F20;}
	.st20{clip-path:url(#SVGID_36_);fill:#231F20;}
	.st21{clip-path:url(#SVGID_38_);fill:#231F20;}
	.st22{clip-path:url(#SVGID_40_);fill:#231F20;}
	.st23{clip-path:url(#SVGID_42_);fill:#231F20;}
	.st24{clip-path:url(#SVGID_44_);fill:#231F20;}
	.st25{clip-path:url(#SVGID_46_);fill:#231F20;}
	.st26{clip-path:url(#SVGID_48_);fill:#231F20;}
	.st27{fill:#FFFFFF;stroke:#FFFFFF;stroke-miterlimit:10;}
	.st28{clip-path:url(#SVGID_50_);fill:#231F20;}
	.st29{clip-path:url(#SVGID_52_);fill:#2780B0;}
	.st30{clip-path:url(#SVGID_54_);fill:#2780B0;}
	.st31{clip-path:url(#SVGID_56_);fill:#2780B0;}
	.st32{clip-path:url(#SVGID_58_);fill:#2780B0;}
	.st33{clip-path:url(#SVGID_60_);fill:#231F20;}
	.st34{clip-path:url(#SVGID_62_);fill:#231F20;}
	.st35{clip-path:url(#SVGID_64_);fill:#231F20;}
	.st36{clip-path:url(#SVGID_66_);fill:#231F20;}
	.st37{clip-path:url(#SVGID_68_);fill:#231F20;}
	.st38{clip-path:url(#SVGID_70_);fill:#231F20;}
	.st39{clip-path:url(#SVGID_72_);fill:#231F20;}
	.st40{clip-path:url(#SVGID_74_);fill:#231F20;}
	.st41{clip-path:url(#SVGID_76_);fill:#231F20;}
	.st42{clip-path:url(#SVGID_78_);fill:#231F20;}
</style>
<g>
	<g>
		<path class="st0" d="M33.7,57.6c-0.9,0.3-1.8,0.5-2.8,0.5c-3.9,0-5.8-1.9-5.8-5.6c0-3.5,1.9-5.3,5.6-5.3c1.1,0,2.1,0.2,3,0.5v1.2
			c-0.9-0.3-1.9-0.5-2.9-0.5c-2.9,0-4.4,1.4-4.4,4.2c0,3,1.4,4.5,4.3,4.5c0.5,0,1-0.1,1.5-0.2v-3.6h1.4L33.7,57.6L33.7,57.6z"/>
		<path class="st0" d="M38.3,50.2c2.2,0,3.4,1.1,3.4,3.3c0,0.3,0,0.7-0.1,1h-5.5c0,1.6,0.9,2.4,2.8,2.4c0.9,0,1.7-0.1,2.4-0.3v1.1
			c-0.7,0.2-1.5,0.3-2.5,0.3c-2.7,0-4.1-1.3-4.1-4C34.7,51.5,35.9,50.2,38.3,50.2z M36.1,53.4h4.3c0-1.4-0.7-2.1-2-2.1
			C36.9,51.3,36.1,52,36.1,53.4z"/>
		<path class="st0" d="M43.1,48.9h0.9l0.3,1.3h2.1v1.1h-1.9v4.5c0,0.7,0.3,1.1,1,1.1h1v1.1H45c-1.3,0-2-0.7-2-2.1L43.1,48.9
			L43.1,48.9z"/>
		<path class="st1" d="M48,58.1V47.3H50l3.6,8.1l3.6-8.1h2v10.7h-1.8v-7.5l-2.9,7.5h-1.7l-3-7.5v7.5C49.8,58.1,48,58.1,48,58.1z"/>
		<path class="st1" d="M60.2,50.2h2.1l2,5.7l1.9-5.7h2.1L65,58.3c-0.6,1.4-1.5,2.4-2.8,3.1l-1-1.4c0.9-0.4,1.5-1,1.9-1.9L60.2,50.2z
			"/>
		<path class="st1" d="M69.3,58.1V47.3h4.8c2.2,0,3.3,1,3.3,3c0,2.2-1.5,3.5-4.5,4l-0.3-1.8c1.8-0.3,2.7-1,2.7-2.1
			c0-0.9-0.4-1.3-1.3-1.3h-2.7v9H69.3z"/>
		<path class="st1" d="M81,50.2c2.4,0,3.6,1.2,3.6,3.7c0,0.3,0,0.7-0.1,1h-5.2c0,1.1,0.8,1.7,2.4,1.7c0.8,0,1.6-0.1,2.4-0.2v1.6
			c-0.7,0.1-1.5,0.2-2.5,0.2c-2.9,0-4.3-1.3-4.3-4C77.3,51.5,78.6,50.2,81,50.2z M79.3,53.4h3.4v-0.1c0-1.1-0.6-1.6-1.7-1.6
			C80,51.7,79.4,52.3,79.3,53.4z"/>
		<path class="st1" d="M85.3,54.1c0-2.6,1.3-4,3.9-4s3.9,1.3,3.9,4c0,2.6-1.3,4-3.9,4C86.6,58.1,85.3,56.7,85.3,54.1z M89.2,56.6
			c1.3,0,1.9-0.8,1.9-2.5c0-1.6-0.6-2.4-1.9-2.4c-1.3,0-1.9,0.8-1.9,2.4C87.3,55.7,87.9,56.6,89.2,56.6z"/>
		<path class="st1" d="M94.1,58.1v-7.9h1.5l0.2,1.2c0.8-0.8,1.6-1.2,2.6-1.2c1.9,0,2.8,1,2.8,2.9v5h-2v-5c0-0.9-0.4-1.3-1.3-1.3
			c-0.6,0-1.3,0.3-1.9,0.8v5.5H94.1z"/>
	</g>
	<rect x="7.5" y="42.8" class="st2" width="11.3" height="8.8"/>
	<path class="st0" d="M9.3,55.9L7,56.8l-4.4-3.3l1.2,1.1l-0.1,0.7l1.1,1.1l0.3-0.6l1.4,1.1l-0.5,1.1l0,1.2c0,0,0.1-1.5,0.7-2
		C7.8,56.4,9.3,55.9,9.3,55.9"/>
	<g>
		<g>
			<defs>
				<rect id="SVGID_1_" x="18.1" y="55" width="0" height="0"/>
			</defs>
			<clipPath id="SVGID_2_">
				<use xlink:href="#SVGID_1_"  style="overflow:visible;"/>
			</clipPath>
			<path class="st3" d="M18.1,55C18.1,55,18.1,55,18.1,55C18.1,55,18.1,55,18.1,55"/>
		</g>
	</g>
	<g>
		<g>
			<defs>
				<rect id="SVGID_3_" x="11.4" y="50.3" width="7.4" height="4.7"/>
			</defs>
			<clipPath id="SVGID_4_">
				<use xlink:href="#SVGID_3_"  style="overflow:visible;"/>
			</clipPath>
			<path class="st4" d="M17.9,52.9c0,0-0.3-0.6-0.3-1c-0.1-0.4,0.2-0.7,0.2-0.7s0.3,0.3,0.5,0.3c0.1,0,0.7-1.3,0.7-1.3
				s-0.2-0.1-0.6,1.2c0,0-0.3-0.2-0.7-0.5c-0.2-0.1-0.3-0.3-0.3-0.3l-0.2,0c0,0,0.1,0.2,0,0.3c-0.4,0.3-0.9,1.4-0.9,1.4l-4.7-1.6
				v0.1l4.7,1.6l0.5-0.9l0.7,0.5c0,0,0.1,0.3-0.5,0.5s-1.5,0.8-1.8,1.4l1.5,0.1l0.3-0.7c0,0,0.3-0.5,0.8-0.8c0,0,0.2,0.8,0.3,1
				c0.1,0.2,0.3,1.2,0.2,1.3c0,0,0.1-0.1,0.1-0.1S18.2,53.8,17.9,52.9"/>
		</g>
	</g>
	<g>
		<g>
			<defs>
				<rect id="SVGID_5_" x="12.8" y="52.6" width="1.9" height="0.7"/>
			</defs>
			<clipPath id="SVGID_6_">
				<use xlink:href="#SVGID_5_"  style="overflow:visible;"/>
			</clipPath>
			<path class="st5" d="M12.8,53c0,0,1.2-0.2,1.7-0.2c0.1,0,0.1,0.2,0.1,0.2l0.2,0.3l0-0.7C14.7,52.6,12.9,52.9,12.8,53"/>
		</g>
	</g>
	<g>
		<g>
			<defs>
				<rect id="SVGID_7_" x="18.1" y="55" width="0" height="0"/>
			</defs>
			<clipPath id="SVGID_8_">
				<use xlink:href="#SVGID_7_"  style="overflow:visible;"/>
			</clipPath>
			<path class="st6" d="M18.1,55C18.1,55,18.1,55,18.1,55C18.1,55,18.1,55,18.1,55"/>
		</g>
	</g>
	<g>
		<g>
			<defs>
				<rect id="SVGID_9_" x="11.4" y="50.3" width="7.4" height="4.7"/>
			</defs>
			<clipPath id="SVGID_10_">
				<use xlink:href="#SVGID_9_"  style="overflow:visible;"/>
			</clipPath>
			<path class="st7" d="M17.9,52.9c0,0-0.3-0.6-0.3-1c-0.1-0.4,0.2-0.7,0.2-0.7s0.3,0.3,0.5,0.3c0.1,0,0.7-1.3,0.7-1.3
				s-0.2-0.1-0.6,1.2c0,0-0.3-0.2-0.7-0.5c-0.2-0.1-0.3-0.3-0.3-0.3l-0.2,0c0,0,0.1,0.2,0,0.3c-0.4,0.3-0.9,1.4-0.9,1.4l-4.7-1.6
				v0.1l4.7,1.6l0.5-0.9l0.7,0.5c0,0,0.1,0.3-0.5,0.5s-1.5,0.8-1.8,1.4l1.5,0.1l0.3-0.7c0,0,0.3-0.5,0.8-0.8c0,0,0.2,0.8,0.3,1
				c0.1,0.2,0.3,1.2,0.2,1.3c0,0,0.1-0.1,0.1-0.1S18.2,53.8,17.9,52.9"/>
		</g>
	</g>
	<g>
		<g>
			<defs>
				<rect id="SVGID_11_" x="12.8" y="52.6" width="1.9" height="0.7"/>
			</defs>
			<clipPath id="SVGID_12_">
				<use xlink:href="#SVGID_11_"  style="overflow:visible;"/>
			</clipPath>
			<path class="st8" d="M12.8,53c0,0,1.2-0.2,1.7-0.2c0.1,0,0.1,0.2,0.1,0.2l0.2,0.3l0-0.7C14.7,52.6,12.9,52.9,12.8,53"/>
		</g>
	</g>
	<g>
		<g>
			<defs>
				<rect id="SVGID_13_" x="18.1" y="55" width="0" height="0"/>
			</defs>
			<clipPath id="SVGID_14_">
				<use xlink:href="#SVGID_13_"  style="overflow:visible;"/>
			</clipPath>
			<path class="st9" d="M18.1,55C18.1,55,18.1,55,18.1,55C18.1,55,18.1,55,18.1,55"/>
		</g>
	</g>
	<g>
		<g>
			<defs>
				<rect id="SVGID_15_" x="11.4" y="50.3" width="7.4" height="4.7"/>
			</defs>
			<clipPath id="SVGID_16_">
				<use xlink:href="#SVGID_15_"  style="overflow:visible;"/>
			</clipPath>
			<path class="st10" d="M17.9,52.9c0,0-0.3-0.6-0.3-1c-0.1-0.4,0.2-0.7,0.2-0.7s0.3,0.3,0.5,0.3c0.1,0,0.7-1.3,0.7-1.3
				s-0.2-0.1-0.6,1.2c0,0-0.3-0.2-0.7-0.5c-0.2-0.1-0.3-0.3-0.3-0.3l-0.2,0c0,0,0.1,0.2,0,0.3c-0.4,0.3-0.9,1.4-0.9,1.4l-4.7-1.6
				v0.1l4.7,1.6l0.5-0.9l0.7,0.5c0,0,0.1,0.3-0.5,0.5s-1.5,0.8-1.8,1.4l1.5,0.1l0.3-0.7c0,0,0.3-0.5,0.8-0.8c0,0,0.2,0.8,0.3,1
				c0.1,0.2,0.3,1.2,0.2,1.3c0,0,0.1-0.1,0.1-0.1S18.2,53.8,17.9,52.9"/>
		</g>
	</g>
	<g>
		<g>
			<defs>
				<rect id="SVGID_17_" x="12.8" y="52.6" width="1.9" height="0.7"/>
			</defs>
			<clipPath id="SVGID_18_">
				<use xlink:href="#SVGID_17_"  style="overflow:visible;"/>
			</clipPath>
			<path class="st11" d="M12.8,53c0,0,1.2-0.2,1.7-0.2c0.1,0,0.1,0.2,0.1,0.2l0.2,0.3l0-0.7C14.7,52.6,12.9,52.9,12.8,53"/>
		</g>
	</g>
	<g>
		<g>
			<defs>
				<rect id="SVGID_19_" x="18.1" y="55" width="0" height="0"/>
			</defs>
			<clipPath id="SVGID_20_">
				<use xlink:href="#SVGID_19_"  style="overflow:visible;"/>
			</clipPath>
			<path class="st12" d="M18.1,55C18.1,55,18.1,55,18.1,55C18.1,55,18.1,55,18.1,55"/>
		</g>
	</g>
	<path class="st0" d="M17.9,52.9c0,0-0.3-0.6-0.3-1c-0.1-0.4,0.2-0.7,0.2-0.7s0.3,0.3,0.5,0.3c0.1,0,0.7-1.3,0.7-1.3
		s-0.2-0.1-0.6,1.2c0,0-0.3-0.2-0.7-0.5c-0.2-0.1-0.3-0.3-0.3-0.3l-0.2,0c0,0,0.1,0.2,0,0.3c-0.4,0.3-0.9,1.4-0.9,1.4l-4.7-1.6v0.1
		l4.7,1.6l0.5-0.9l0.7,0.5c0,0,0.1,0.3-0.5,0.5s-1.5,0.8-1.8,1.4l1.5,0.1l0.3-0.7c0,0,0.3-0.5,0.8-0.8c0,0,0.2,0.8,0.3,1
		c0.1,0.2,0.3,1.2,0.2,1.3c0,0,0.1-0.1,0.1-0.1S18.2,53.8,17.9,52.9"/>
	<path class="st0" d="M12.8,53c0,0,1.2-0.2,1.7-0.2c0.1,0,0.1,0.2,0.1,0.2l0.2,0.3l0-0.7C14.7,52.6,12.9,52.9,12.8,53"/>
	<rect x="12.8" y="52.6" class="st2" width="1.9" height="0.7"/>
	<g>
		<g>
			<defs>
				<rect id="SVGID_21_" x="10.7" y="44.6" width="0" height="0"/>
			</defs>
			<clipPath id="SVGID_22_">
				<use xlink:href="#SVGID_21_"  style="overflow:visible;"/>
			</clipPath>
			<path class="st13" d="M10.7,44.6L10.7,44.6C10.7,44.6,10.7,44.7,10.7,44.6"/>
		</g>
	</g>
	<g>
		<g>
			<defs>
				<rect id="SVGID_23_" x="10.7" y="43.4" width="0.8" height="1.2"/>
			</defs>
			<clipPath id="SVGID_24_">
				<use xlink:href="#SVGID_23_"  style="overflow:visible;"/>
			</clipPath>
			<path class="st14" d="M11.4,43.7c0.2-0.1,0-0.2,0-0.2s-0.6-0.1-0.7,0.7c0,0.4,0,0.5,0,0.5l0.3,0c0,0,0-0.8,0.2-0.9
				C11.3,43.7,11.3,43.8,11.4,43.7"/>
		</g>
	</g>
	<g>
		<g>
			<defs>
				<rect id="SVGID_25_" x="11.2" y="44.3" width="0.5" height="0.9"/>
			</defs>
			<clipPath id="SVGID_26_">
				<use xlink:href="#SVGID_25_"  style="overflow:visible;"/>
			</clipPath>
			<path class="st15" d="M11.5,44.3c-0.1,0-0.2,0.1-0.2,0.1c-0.2,0.3,0.1,0.7,0.2,0.7c0,0.1,0.2-0.1,0.2-0.1
				C11.9,44.5,11.5,44.3,11.5,44.3"/>
		</g>
	</g>
	<g>
		<g>
			<defs>
				<rect id="SVGID_27_" x="7.9" y="53.9" width="0.1" height="0"/>
			</defs>
			<clipPath id="SVGID_28_">
				<use xlink:href="#SVGID_27_"  style="overflow:visible;"/>
			</clipPath>
			<path class="st16" d="M7.9,54C7.9,53.9,7.9,53.9,7.9,54C7.9,53.9,7.8,53.9,7.9,54"/>
		</g>
	</g>
	<g>
		<g>
			<defs>
				<rect id="SVGID_29_" x="10.7" y="44.6" width="0" height="0"/>
			</defs>
			<clipPath id="SVGID_30_">
				<use xlink:href="#SVGID_29_"  style="overflow:visible;"/>
			</clipPath>
			<path class="st17" d="M10.7,44.6L10.7,44.6C10.7,44.6,10.7,44.7,10.7,44.6"/>
		</g>
	</g>
	<g>
		<g>
			<defs>
				<rect id="SVGID_31_" x="10.7" y="43.4" width="0.8" height="1.2"/>
			</defs>
			<clipPath id="SVGID_32_">
				<use xlink:href="#SVGID_31_"  style="overflow:visible;"/>
			</clipPath>
			<path class="st18" d="M11.4,43.7c0.2-0.1,0-0.2,0-0.2s-0.6-0.1-0.7,0.7c0,0.4,0,0.5,0,0.5l0.3,0c0,0,0-0.8,0.2-0.9
				C11.3,43.7,11.3,43.8,11.4,43.7"/>
		</g>
	</g>
	<g>
		<g>
			<defs>
				<rect id="SVGID_33_" x="7.9" y="53.9" width="0.1" height="0"/>
			</defs>
			<clipPath id="SVGID_34_">
				<use xlink:href="#SVGID_33_"  style="overflow:visible;"/>
			</clipPath>
			<path class="st19" d="M7.9,54C7.9,53.9,7.9,53.9,7.9,54C7.9,53.9,7.8,53.9,7.9,54"/>
		</g>
	</g>
	<g>
		<g>
			<defs>
				<rect id="SVGID_35_" x="10.7" y="44.6" width="0" height="0"/>
			</defs>
			<clipPath id="SVGID_36_">
				<use xlink:href="#SVGID_35_"  style="overflow:visible;"/>
			</clipPath>
			<path class="st20" d="M10.7,44.6L10.7,44.6C10.7,44.6,10.7,44.7,10.7,44.6"/>
		</g>
	</g>
	<g>
		<g>
			<defs>
				<rect id="SVGID_37_" x="10.7" y="43.4" width="0.8" height="1.2"/>
			</defs>
			<clipPath id="SVGID_38_">
				<use xlink:href="#SVGID_37_"  style="overflow:visible;"/>
			</clipPath>
			<path class="st21" d="M11.4,43.7c0.2-0.1,0-0.2,0-0.2s-0.6-0.1-0.7,0.7c0,0.4,0,0.5,0,0.5l0.3,0c0,0,0-0.8,0.2-0.9
				C11.3,43.7,11.3,43.8,11.4,43.7"/>
		</g>
	</g>
	<g>
		<g>
			<defs>
				<rect id="SVGID_39_" x="7.9" y="53.9" width="0.1" height="0"/>
			</defs>
			<clipPath id="SVGID_40_">
				<use xlink:href="#SVGID_39_"  style="overflow:visible;"/>
			</clipPath>
			<path class="st22" d="M7.9,54C7.9,53.9,7.9,53.9,7.9,54C7.9,53.9,7.8,53.9,7.9,54"/>
		</g>
	</g>
	<g>
		<g>
			<defs>
				<rect id="SVGID_41_" x="10.7" y="44.6" width="0" height="0"/>
			</defs>
			<clipPath id="SVGID_42_">
				<use xlink:href="#SVGID_41_"  style="overflow:visible;"/>
			</clipPath>
			<path class="st23" d="M10.7,44.6L10.7,44.6C10.7,44.6,10.7,44.7,10.7,44.6"/>
		</g>
	</g>
	<g>
		<g>
			<defs>
				<rect id="SVGID_43_" x="10.7" y="43.4" width="0.8" height="1.2"/>
			</defs>
			<clipPath id="SVGID_44_">
				<use xlink:href="#SVGID_43_"  style="overflow:visible;"/>
			</clipPath>
			<path class="st24" d="M11.4,43.7c0.2-0.1,0-0.2,0-0.2s-0.6-0.1-0.7,0.7c0,0.4,0,0.5,0,0.5l0.3,0c0,0,0-0.8,0.2-0.9
				C11.3,43.7,11.3,43.8,11.4,43.7"/>
		</g>
	</g>
	<g>
		<g>
			<defs>
				<rect id="SVGID_45_" x="7.9" y="53.9" width="0.1" height="0"/>
			</defs>
			<clipPath id="SVGID_46_">
				<use xlink:href="#SVGID_45_"  style="overflow:visible;"/>
			</clipPath>
			<path class="st25" d="M7.9,54C7.9,53.9,7.9,53.9,7.9,54C7.9,53.9,7.8,53.9,7.9,54"/>
		</g>
	</g>
	<g>
		<g>
			<defs>
				<rect id="SVGID_47_" x="10.7" y="44.6" width="0" height="0"/>
			</defs>
			<clipPath id="SVGID_48_">
				<use xlink:href="#SVGID_47_"  style="overflow:visible;"/>
			</clipPath>
			<path class="st26" d="M10.7,44.6L10.7,44.6C10.7,44.6,10.7,44.7,10.7,44.6"/>
		</g>
	</g>
	<path class="st0" d="M11.4,43.7c0.2-0.1,0-0.2,0-0.2s-0.6-0.1-0.7,0.7c0,0.4,0,0.5,0,0.5l0.3,0c0,0,0-0.8,0.2-0.9
		C11.3,43.7,11.3,43.8,11.4,43.7"/>
	<path class="st27" d="M22.4,46.5c0,0-0.1-0.5-0.3-1c-0.1-0.4-0.5-0.1-0.5-0.1l-0.4,0.5l0.3,1.1l-0.2,0.3c0.4,0.3,0.1,1.7,0.1,1.7
		c0,0.2,0,0.4-0.1,0.6c-0.1,0.1-0.4,0.3-0.4,0.3l0.1-0.5L19.7,49l-0.1,0.4h-0.7c-0.3-0.7-1.8-2.6-1.8-2.6c1.5-0.5,2-2.1,2-2.1
		s-0.7-0.6-2.4-1.3c-1.7-0.7-3.4-0.7-3.8-0.6c-0.4,0-2.4,0.2-2.4,0.2s0-0.1,0.2-0.3s0-0.4,0-0.4l-0.3-0.4L10,43.1
		c-0.2-0.5-0.5-0.7-0.6-0.7c-0.1,0-0.3,0.1-0.3,0.1c0.4,0,0.7,0.4,0.7,0.4c0.2,0.6-0.4,0.2-0.5,0.2s-0.5,0-0.5,0l0,0.4l0.9-0.1
		c0,0-0.3,0.7-0.5,1C9.1,44.6,9,45.1,9,45.1l-0.1,2.1c-1.2-0.1-1.6,0.7-1.6,0.7c-0.4,1,0.8,1.1,0.8,1.1l1-0.3c0,0,0.5,0.6,0.3,0.7
		c-0.3,0.1-0.9,0.8-0.9,0.8S8,49.4,8,49.8c-0.1,0.3-0.8,1-0.8,1l0.5,0.5c-0.1,0.3-0.5,0.9-0.6,1c-0.1,0.1-0.6,0.1-0.8,0.4
		c0,0,0,0,0,0c-0.1-0.1-0.4-0.4-0.5-0.4c0,0-0.5,0.2-0.6,0.3c-0.1,0-0.3,0.1-0.8-0.2c0,0-0.1-0.3-0.8,0L2,53c0,0-0.1,0-0.1,0.3
		c-0.1,0.3-0.6,2.6-0.6,2.6l4.8,3.5l2.2-0.1l1.5-1.7l-0.3-1.9l-1-0.7c0,0,0.1-0.3,0.1-0.4c0,0,0.1-0.4,0.1-0.4s-0.1,0-0.2-0.1
		l-0.1-0.1c0,0,0,0,0,0s-0.1-0.5-0.3-0.8C8,53.1,8,52.9,8,52.9l0.6-0.8l0,0c0,0,0.3,0.5,0.4,0.4c0.1,0,0.7-0.9,0.7-0.9l-0.2-0.2
		l0.3-0.3c0,0,1,2.4,1.2,5.5c0,0,5.4,0.5,9.1-2.7l-0.4-2.3h0.6l0.2-0.6l1.7,0.2l0.1-2.5c0.4,0,0.7-0.4,0.7-0.4c-0.2-0.7,0-0.8,0-0.8
		l0.2-0.3C23.4,47,22.4,46.6,22.4,46.5 M8.9,47.8C8.4,47.8,8,48,8,48h1c0,0,0.2,0-0.2,0.4c-0.5,0.4-1.1-0.1-1.1-0.1
		c-0.2-1,1.2-0.8,1.2-0.8C8.9,47.6,9.3,47.8,8.9,47.8 M7.3,54.5l0.3-0.1l0.2,0.3l-0.3,0.5l-2.2-1.7l0.3-0.3l0.3,0v0.2
		c0,0,0.2,0.5,0.5,0.4c0,0,0.1,0,0.1,0.2s0.1,0.2,0.3,0.2c0.2-0.1,0.2,0,0.2,0L7.3,54.5z M9,55.6c0,0,0.3,0.1,0.3,0.6
		c0,0.5,0.2,1.4,0.2,1.4L8.2,59l-2.1,0.1l-4.6-3.4l0.6-2.6l1.6-0.7c0,0,0.3-0.2,0.9,0.3c0,0,0.1,0.1,0.3,0c0.2-0.1,0.7-0.3,0.7-0.3
		L6.2,53l0,0.1l-0.4-0.2l-0.9,0.6l2.7,2.2l0.5-0.9l-0.2-0.4c0,0,0,0,0-0.1c0,0,0,0,0,0c0,0,0.1-0.1,0.3,0c0,0,0,0,0,0c0,0,0,0,0,0
		c-0.2,0-0.2,0-0.2,0c0.1,0,0.2,0,0.3,0l0,0l0,0c0,0,0,0,0,0l0.3,0.2l-0.1,0.8L9,55.6z M7.8,52.8c0,0-0.2,0.1,0.1,0.5
		c0.3,0.3,0.3,0.5,0.3,0.5s0.2,0.3-0.2,0.2c-0.1,0-0.2,0-0.2,0c-0.1,0.1-0.3,0.3-0.4,0.3c-0.1,0-0.1-0.2-0.1-0.2s-0.3,0.1-0.4,0
		c0,0-0.1,0-0.1-0.3c0,0,0-0.1-0.2,0c-0.2,0-0.4-0.3-0.4-0.4c0,0,0,0,0-0.1c0.1-0.2,0.2-0.2,0.2-0.4c0-0.2,0.4-0.2,0.5-0.3
		c0.1-0.1,0.2,0,0.3-0.3c0,0,0.3-0.4,0.3-0.5c0,0,0.1-0.2,0.2-0.3L8.5,52L7.8,52.8z M19.1,49.7h0.4c0,0-0.1,1-0.1,0.9
		c0-0.1-0.4-0.7-0.4-0.7L19.1,49.7z M19.9,53.7c-0.6,0.5-3.1,2.7-8.5,2.6c0,0-0.3-2.8-1.1-5.1l0.3,0.1l0.4-0.1l-1.3-0.5l-0.4,0.5
		l-0.7-0.8l0.7-0.7l2,1.3l0.1-0.3c0,0-1.1-0.7-1.5-1c-0.4-0.3-0.2-0.4-0.2-0.4l0.4-0.2l-0.6,0.1l0-0.2l0.8-0.3l0-0.1l-0.7,0.1
		l-0.2-0.3c0,0,0.1-0.1,0.6-0.1c0.6,0,0.6-0.1,0.6-0.1c-0.9-1.4-0.7-3.3-0.7-4.1c0-0.9,0.5-0.8,0.5-0.8s1.7-0.4,4.1-0.1
		c2.5,0.3,4,1.7,4,1.7c-0.5,1.8-2.3,1.8-2.3,1.8l0.5,0.7c-2.5,1-3.7-0.9-3.7-0.9c1,2,3.8,1,3.8,1C19.6,50.7,19.9,53.7,19.9,53.7
		 M20.2,51.3h-0.5c0-1,0.3-1.9,0.3-1.9l0.7,0.1L20.2,51.3z M22.9,48c-0.4,0.3-0.6,0.3-0.6,0.3l0-0.2c0.2,0.2,0.5-0.1,0.5-0.1
		C23,47.9,22.9,48,22.9,48 M22.4,47.6h0.3l-0.1,0.2c0,0-0.3,0-0.2-0.1C22.5,47.7,22.4,47.6,22.4,47.6 M22.3,47.3l0.1-0.2
		c0,0,0-0.2-0.1-0.2c-0.1,0-0.3,0.2-0.2,0.6c0.1,0.5-0.2,0.6-0.2,0.8c0.1,0.2,0.2,0.2,0.2,0.2v2.2c0,0-1.3-0.1-1.4-0.1
		s0.1-0.5,0.1-0.5h0.8c0,0,0.4-2.3,0.1-2.8c0,0,0.3-0.3,0.2-0.5c0-0.1-0.1-0.2-0.1-0.4c-0.1-0.2-0.2-0.5-0.2-0.5s0.4-0.5,0.5-0.2
		c0,0.2,0,0.5,0,0.6l0.3,0.4c0,0,0.5,0.2,0.5,0.3S22.3,47.3,22.3,47.3"/>
	<g>
		<g>
			<defs>
				<rect id="SVGID_49_" x="7.9" y="53.9" width="0.1" height="0"/>
			</defs>
			<clipPath id="SVGID_50_">
				<use xlink:href="#SVGID_49_"  style="overflow:visible;"/>
			</clipPath>
			<path class="st28" d="M7.9,54C7.9,53.9,7.9,53.9,7.9,54C7.9,53.9,7.8,53.9,7.9,54"/>
		</g>
	</g>
	<path class="st0" d="M15.7,56.2l-0.8,1.7L13.7,57l-0.3,0.2L13.2,57l-2.4,2.3l1.9-1.5l0.6-0.3l-0.2,0.5l1.9,0.5l0.8-2.3
		c0,0,0.1-0.2,0.2-0.3c0.2-0.1,1.5-0.6,1.5-0.6s0.2-0.1,0.4,0c0.3,0.1,0.8,0.4,0.8,0.4s0.4,0.2,0.6,0.6c0.2,0.3,0.8,1.3,0.8,1.3
		l0.3-0.2l0.3,0.9l2.6-3.1l-2.4,2.2l-0.2-0.2l0.4-0.5l-2.7-1.6l1.7-1.3l-2.7,1.5L15.7,56.2z"/>
	<g>
		<path class="st0" d="M16.5,50.8c-2.1,0-6.2-0.7-6.3-0.7l0-0.1c0,0,5,0.9,6.8,0.7c0,0,0.6-0.1,1.4-1.6l0.1,0.1
			c-0.8,1.6-1.5,1.7-1.5,1.7C16.9,50.8,16.7,50.8,16.5,50.8z"/>
	</g>
</g>
<g>
	<g>
		<defs>
			<rect id="SVGID_51_" x="17.8" y="55.2" width="0" height="0"/>
		</defs>
		<clipPath id="SVGID_52_">
			<use xlink:href="#SVGID_51_"  style="overflow:visible;"/>
		</clipPath>
		<path class="st29" d="M17.9,55.2C17.9,55.2,17.9,55.2,17.9,55.2C17.8,55.2,17.8,55.2,17.9,55.2"/>
	</g>
</g>
<g>
	<g>
		<defs>
			<rect id="SVGID_53_" x="17.8" y="55.2" width="0" height="0"/>
		</defs>
		<clipPath id="SVGID_54_">
			<use xlink:href="#SVGID_53_"  style="overflow:visible;"/>
		</clipPath>
		<path class="st30" d="M17.9,55.2C17.9,55.2,17.9,55.2,17.9,55.2C17.8,55.2,17.8,55.2,17.9,55.2"/>
	</g>
</g>
<g>
	<g>
		<defs>
			<rect id="SVGID_55_" x="17.8" y="55.2" width="0" height="0"/>
		</defs>
		<clipPath id="SVGID_56_">
			<use xlink:href="#SVGID_55_"  style="overflow:visible;"/>
		</clipPath>
		<path class="st31" d="M17.9,55.2C17.9,55.2,17.9,55.2,17.9,55.2C17.8,55.2,17.8,55.2,17.9,55.2"/>
	</g>
</g>
<g>
	<g>
		<defs>
			<rect id="SVGID_57_" x="17.8" y="55.2" width="0" height="0"/>
		</defs>
		<clipPath id="SVGID_58_">
			<use xlink:href="#SVGID_57_"  style="overflow:visible;"/>
		</clipPath>
		<path class="st32" d="M17.9,55.2C17.9,55.2,17.9,55.2,17.9,55.2C17.8,55.2,17.8,55.2,17.9,55.2"/>
	</g>
</g>
<g>
	<g>
		<defs>
			<rect id="SVGID_59_" x="10.4" y="44.8" width="0" height="0"/>
		</defs>
		<clipPath id="SVGID_60_">
			<use xlink:href="#SVGID_59_"  style="overflow:visible;"/>
		</clipPath>
		<path class="st33" d="M10.4,44.8L10.4,44.8C10.4,44.8,10.4,44.8,10.4,44.8"/>
	</g>
</g>
<g>
	<g>
		<defs>
			<rect id="SVGID_61_" x="7.5" y="54.1" width="0.1" height="0"/>
		</defs>
		<clipPath id="SVGID_62_">
			<use xlink:href="#SVGID_61_"  style="overflow:visible;"/>
		</clipPath>
		<path class="st34" d="M7.6,54.1C7.6,54.1,7.6,54.1,7.6,54.1C7.6,54.1,7.5,54.1,7.6,54.1"/>
	</g>
</g>
<g>
	<g>
		<defs>
			<rect id="SVGID_63_" x="10.4" y="44.8" width="0" height="0"/>
		</defs>
		<clipPath id="SVGID_64_">
			<use xlink:href="#SVGID_63_"  style="overflow:visible;"/>
		</clipPath>
		<path class="st35" d="M10.4,44.8L10.4,44.8C10.4,44.8,10.4,44.8,10.4,44.8"/>
	</g>
</g>
<g>
	<g>
		<defs>
			<rect id="SVGID_65_" x="7.5" y="54.1" width="0.1" height="0"/>
		</defs>
		<clipPath id="SVGID_66_">
			<use xlink:href="#SVGID_65_"  style="overflow:visible;"/>
		</clipPath>
		<path class="st36" d="M7.6,54.1C7.6,54.1,7.6,54.1,7.6,54.1C7.6,54.1,7.5,54.1,7.6,54.1"/>
	</g>
</g>
<g>
	<g>
		<defs>
			<rect id="SVGID_67_" x="10.4" y="44.8" width="0" height="0"/>
		</defs>
		<clipPath id="SVGID_68_">
			<use xlink:href="#SVGID_67_"  style="overflow:visible;"/>
		</clipPath>
		<path class="st37" d="M10.4,44.8L10.4,44.8C10.4,44.8,10.4,44.8,10.4,44.8"/>
	</g>
</g>
<g>
	<g>
		<defs>
			<rect id="SVGID_69_" x="7.5" y="54.1" width="0.1" height="0"/>
		</defs>
		<clipPath id="SVGID_70_">
			<use xlink:href="#SVGID_69_"  style="overflow:visible;"/>
		</clipPath>
		<path class="st38" d="M7.6,54.1C7.6,54.1,7.6,54.1,7.6,54.1C7.6,54.1,7.5,54.1,7.6,54.1"/>
	</g>
</g>
<g>
	<g>
		<defs>
			<rect id="SVGID_71_" x="10.4" y="44.8" width="0" height="0"/>
		</defs>
		<clipPath id="SVGID_72_">
			<use xlink:href="#SVGID_71_"  style="overflow:visible;"/>
		</clipPath>
		<path class="st39" d="M10.4,44.8L10.4,44.8C10.4,44.8,10.4,44.8,10.4,44.8"/>
	</g>
</g>
<g>
	<g>
		<defs>
			<rect id="SVGID_73_" x="7.5" y="54.1" width="0.1" height="0"/>
		</defs>
		<clipPath id="SVGID_74_">
			<use xlink:href="#SVGID_73_"  style="overflow:visible;"/>
		</clipPath>
		<path class="st40" d="M7.6,54.1C7.6,54.1,7.6,54.1,7.6,54.1C7.6,54.1,7.5,54.1,7.6,54.1"/>
	</g>
</g>
<g>
	<g>
		<defs>
			<rect id="SVGID_75_" x="10.4" y="44.8" width="0" height="0"/>
		</defs>
		<clipPath id="SVGID_76_">
			<use xlink:href="#SVGID_75_"  style="overflow:visible;"/>
		</clipPath>
		<path class="st41" d="M10.4,44.8L10.4,44.8C10.4,44.8,10.4,44.8,10.4,44.8"/>
	</g>
</g>
<g>
	<g>
		<defs>
			<rect id="SVGID_77_" x="7.5" y="54.1" width="0.1" height="0"/>
		</defs>
		<clipPath id="SVGID_78_">
			<use xlink:href="#SVGID_77_"  style="overflow:visible;"/>
		</clipPath>
		<path class="st42" d="M7.6,54.1C7.6,54.1,7.6,54.1,7.6,54.1C7.6,54.1,7.5,54.1,7.6,54.1"/>
	</g>
</g>
</svg>
