<?xml version="1.0" encoding="utf-8"?>
<!-- Generator: Adobe Illustrator 23.0.0, SVG Export Plug-In . SVG Version: 6.00 Build 0)  -->
<svg version="1.1" id="Layer_1" xmlns="http://www.w3.org/2000/svg" xmlns:xlink="http://www.w3.org/1999/xlink" x="0px" y="0px"
	 viewBox="0 0 102 102" style="enable-background:new 0 0 102 102;" xml:space="preserve">
<style type="text/css">
	.st0{fill:#FFFFFF;}
</style>
<g>
	<path class="st0" d="M86.5,50.3c-0.7,0.6-1.3,1.1-2,1.7c-1.6,1.3-3.3,2.4-5.2,3.1c-0.8,0.3-1.7,0.5-2.6,0.5
		c-1.2,0.1-2.1-0.6-2.5-1.8c-0.3-1.1-0.3-2.2,0-3.3c0.1-0.3,0.2-0.6,0.3-0.9c-1.8,0.4-3.6,0.9-4.3-1.6c-0.2,0.3-0.4,0.5-0.5,0.7
		c-1.2,1.8-2.4,3.7-3.6,5.5c-0.4,0.7-0.9,1-1.7,0.9c-1.3-0.1-2.6,0-3.8,0c-0.2,0-0.5-0.1-0.6-0.2c-0.1-0.2,0-0.5,0.2-0.7
		c1.6-2.6,3.3-5.2,4.8-7.8c0.5-0.9,0.9-1.9,1.3-2.9c0.4-1.1-0.1-1.7-1.2-1.9c-0.5-0.1-1-0.1-1.4-0.1c-0.3,0-0.4,0.1-0.5,0.4
		c-0.8,4.5-2.8,8.3-6.2,11.5c-1.5,1.4-3.3,2.2-5.5,2c-2.2-0.2-3.6-1.5-3.5-3.7c0-1.4,0.4-2.7,0.6-4.1c0-0.1,0-0.2,0.1-0.5
		C48,47,47.6,47,47.4,47.2c-0.6,0.4-1.2,0.8-1.7,1.3c-1.2,1.2-2.4,2.5-3.6,3.7c-1.5,1.5-3.2,2.7-5.3,3.1c-0.7,0.1-1.5,0.2-2.2,0.1
		c-1.5-0.2-2.3-1.5-2-3c0.1-0.5,0.2-1,0.4-1.6c-0.3,0.1-0.6,0.1-0.8,0.2c-1.8,1.2-3.6,2.5-5.4,3.8c-0.3,0.2-0.6,0.7-0.8,1
		c-2.7,4.2-5.7,8.2-9.2,11.8c-2.2,2.3-4.6,4.3-7.3,5.8c-1.7,0.9-3.5,1.5-5.5,1.3c-0.2,0-0.4,0-0.6-0.1c-1.7-0.4-2.4-1.4-2.1-3.1
		c0.2-1.5,1-2.8,2-3.9c1.8-2.2,4-3.9,6.3-5.4c3.4-2.3,6.9-4.4,10.2-6.6c0.7-0.5,1.3-1.1,1.9-1.8c0.2-0.2,0.2-0.4,0.3-0.6
		c0,0-0.1-0.1-0.1-0.1c-0.4,0.2-0.8,0.3-1.1,0.5c-1.9,1-4,1.5-6.2,1.4c-0.6,0-1.1-0.1-1.7-0.3c-1.8-0.6-2.8-2.1-2.6-4
		c0.2-1.6,0.7-3,1.5-4.4c1.7-3,3.9-5.5,6.5-7.7c5.1-4.5,10.8-8,17.3-10.1c2.3-0.7,4.7-1.3,7.1-1.4c0.6,0,1.2,0,1.8,0.1
		c0.4,0,0.5,0.3,0.3,0.7c-0.8,1.5-1.7,3-2.5,4.4c-0.1,0.2-0.5,0.4-0.7,0.4c-4.6-0.9-8.7,0.5-12.5,2.9c-4.8,3-8.4,7-10.8,12.2
		c-0.3,0.6-0.5,1.2-0.5,1.8c-0.1,1.1,0.6,1.7,1.7,1.4c0.8-0.2,1.6-0.6,2.3-1.1c2.6-1.6,4.8-3.7,6.9-5.8c1.2-1.2,2.4-2.4,3.6-3.6
		c1.1-1.1,2.4-1.8,4-2c0.2,0,0.3-0.1,0.5,0c0.4,0.2,0.8,0.3,1,0.6c0.1,0.2-0.1,0.7-0.3,1c-1.8,2.4-3.6,4.8-5.4,7.2
		c-0.1,0.2-0.2,0.3-0.3,0.6c0.3-0.1,0.6-0.2,0.8-0.3c0.7-0.5,1.4-1,2-1.5c2.2-2,4.3-4.1,6.8-5.8c1.2-0.8,2.5-1.6,4-1.9
		c0.6-0.1,1.2-0.1,1.8-0.1c1.3,0.1,2.2,1.2,2.3,2.7c0,0.7-0.2,1.5-0.2,2.2c0,0.2,0,0.5,0,0.7c0.2,0,0.5,0,0.7-0.1
		c0.8-0.5,1.7-1,2.5-1.6c0.8-0.7,1.5-1.6,2.2-2.4c-1.2-0.6-2.3-1-3.3-1.6c-1.9-1.1-3.5-2.5-4.2-4.7c-0.2-0.6-0.3-1.3-0.3-2
		c0.1-1.9,1.4-3.1,3.4-3.2c3.3-0.2,5.9,1.1,8.2,3.4c1.8,1.8,3.1,3.9,4.1,6.2c0.2,0.6,0.6,0.8,1.2,0.8c1.6,0,3.2,0,4.8,0
		c1.5,0,2.6,0.6,3.1,2.1c0.1,0.2,0.2,0.4,0.3,0.6c0,0.1,0.1,0.1,0.2,0.2c0.3-0.3,0.6-0.5,0.9-0.7c0.6-0.5,1.2-1.1,1.9-1.6
		c0.3-0.2,0.6-0.4,0.9-0.6c0.5-0.2,1-0.3,1.3,0.1c0.4,0.4,0.2,0.8,0,1.3c-0.3,0.8-0.8,1.6-0.9,2.5c-0.1,0.9,0,1.8,0.2,2.7
		c0.1,0.6,0.5,0.7,1,0.3c0.4-0.3,0.8-0.8,1.2-1.2c1.5-1.7,3.1-3.2,5-4.3c1.1-0.7,2.3-1.1,3.6-1.3c1.5-0.2,2.3,0.6,2.1,2.1
		c-0.2,1.1-0.8,2-1.5,2.8c-1.8,2-3.9,3.6-6.4,4.5c-0.5,0.2-0.9,0.4-1,0.9c-0.1,0.7,0.3,1.4,1.1,1.4c0.8-0.1,1.6-0.2,2.3-0.5
		c1.4-0.6,2.5-1.6,3.6-2.7c1.3-1.3,2.5-2.8,3.9-4.1c1.3-1.3,2.7-2.4,4.1-3.6c0.5-0.4,1.2-0.6,1.8-0.9c0.5-0.2,1-0.1,1.3,0.3
		c0.4,0.4,0.5,0.9,0.3,1.4c-0.3,0.5-0.5,1.1-0.9,1.5c-4.2,4.1-6.8,9.3-9.7,14.3c-2.4,4.2-5,8.3-7.6,12.4c-1.2,1.9-2.7,3.7-4.4,5.2
		c-0.7,0.5-1.4,1-2.2,1.3c-0.8,0.4-1.6,0-2.2-0.6c-0.6-0.6-0.9-1.4-0.6-2.3c0.2-0.6,0.5-1.2,0.9-1.8c1.6-2.1,3.3-4.1,5-6.1
		c3-3.6,6-7.1,8.6-10.9c0.6-0.9,1.1-1.8,1.7-2.8C86.5,50.4,86.5,50.4,86.5,50.3z M59.5,38.5c-1.1-2.8-2.4-5.4-5.1-6.7
		c-0.6-0.3-1.3-0.4-2-0.5c-1.1-0.1-1.7,0.7-1.5,1.8c0.2,1.1,0.9,1.9,1.7,2.5c1.8,1.4,3.8,2.4,6.1,2.9C58.9,38.5,59.1,38.5,59.5,38.5
		z M57.8,40.8c0.1,0.3,0.1,0.4,0.1,0.4c0.1,0.1,0.1,0.2,0.2,0.3c0.7,0.9,0.7,1.2-0.1,1.9c-0.1,0.1-0.3,0.2-0.4,0.3
		c-1.4,0.9-2.4,2.2-3.3,3.6c-0.4,0.6-0.7,1.3-1,2c-0.3,0.9,0.1,1.4,1.1,1.2c0.9-0.2,1.7-0.7,2.3-1.3c1.8-2,2.9-4.5,3.5-7.1
		c0-0.2-0.1-0.6-0.2-0.7C59.2,41.1,58.6,41,57.8,40.8z M14.8,62.2c-0.1,0-0.2,0-0.3,0c-0.1,0-0.2,0.1-0.3,0.1
		C11.5,64.1,9,66.1,7,68.7c-0.2,0.3-0.4,0.7-0.5,1.1c-0.2,0.7,0.2,1.1,0.9,1c0.4-0.1,0.8-0.3,1.1-0.5c2.6-1.9,4.6-4.4,6.1-7.2
		C14.7,62.8,14.7,62.5,14.8,62.2z M38.1,49.7c0,1,0.5,1.4,1.1,1.1c0.6-0.3,1.3-0.7,1.8-1.2c0.8-0.8,1.6-1.6,2.3-2.5
		c0.2-0.2,0.2-0.7,0.1-0.9c-0.5-1-0.5-1.2,0.4-1.9c0.6-0.5,1.2-0.9,1.8-1.3c0.3-0.2,0.6-0.5,0.4-0.9c-0.1-0.1-0.7-0.1-0.9,0.1
		c-2.6,1.6-4.8,3.7-6.4,6.3C38.4,48.9,38.2,49.5,38.1,49.7z M81.5,45.5c1.1,0,3.6-2.4,3.7-3.5C84.2,42,81.7,44.4,81.5,45.5z"/>
	<path class="st0" d="M101,34.7c0,1.4-1.5,3.2-2.8,3.4c-0.7,0.1-1.3-0.3-1.7-0.8c-0.4-0.5-0.3-1-0.1-1.5c0.5-1,1.3-1.8,2.2-2.4
		c0.5-0.3,1-0.5,1.5-0.2C100.8,33.6,101,34.1,101,34.7z"/>
</g>
</svg>
