<?xml version="1.0" encoding="utf-8"?>
<!-- Generator: Adobe Illustrator 23.0.0, SVG Export Plug-In . SVG Version: 6.00 Build 0)  -->
<svg version="1.1" id="Layer_1" xmlns="http://www.w3.org/2000/svg" xmlns:xlink="http://www.w3.org/1999/xlink" x="0px" y="0px"
	 viewBox="0 0 102 102" style="enable-background:new 0 0 102 102;" xml:space="preserve">
<style type="text/css">
	.st0{fill:#AAAAAA;}
	.st1{fill:#CCCCCC;}
	.st2{fill:#EEEEEE;}
	.st3{fill:#FFFFFF;}
</style>
<g>
	<path class="st0" d="M35.1,28.4l-28,1.2c-1.7,0-3.1,1.4-3.1,3.1L2.9,72.1C4,74,5.3,75,7.1,75H36c1.7,0,3.1-1.4,3.1-3.1V32.8
		C39.1,30.5,36.8,28.4,35.1,28.4z M14.8,45.2c0,0.5-0.4,0.8-0.8,0.8c-0.5,0-0.8-0.4-0.8-0.8v-0.5c0-0.8-0.7-1.5-1.5-1.5
		c-0.9,0-1.6,0.7-1.6,1.5v0.5c0,0.5-0.4,0.8-0.8,0.8c-0.5,0-0.8-0.4-0.8-0.8v-0.5c0-1.8,1.4-3.2,3.2-3.2c1.8,0,3.3,1.4,3.3,3.2V45.2
		z M28.8,45.2c0,0.5-0.4,0.8-0.8,0.8c-0.5,0-0.8-0.4-0.8-0.8v-0.5c0-0.8-0.7-1.5-1.5-1.5c-0.9,0-1.6,0.7-1.6,1.5v0.5
		c0,0.5-0.4,0.8-0.8,0.8c-0.5,0-0.8-0.4-0.8-0.8v-0.5c0-1.8,1.4-3.2,3.2-3.2c1.8,0,3.2,1.4,3.2,3.2V45.2z"/>
	<path class="st1" d="M33.1,27.1H4.1c-1.7,0-3.1,1.4-3.1,3.1v39.1c0,1.7,1.4,3.1,3.1,3.1h28.9c1.7,0,3.1-1.4,3.1-3.1V30.2
		C36.2,28.5,34.8,27.1,33.1,27.1z M14.8,45.2c0,0.5-0.4,0.8-0.8,0.8c-0.5,0-0.8-0.4-0.8-0.8v-0.5c0-0.8-0.7-1.5-1.5-1.5
		c-0.9,0-1.6,0.7-1.6,1.5v0.5c0,0.5-0.4,0.8-0.8,0.8c-0.5,0-0.8-0.4-0.8-0.8v-0.5c0-1.8,1.4-3.2,3.2-3.2c1.8,0,3.3,1.4,3.3,3.2V45.2
		z M28.8,45.2c0,0.5-0.4,0.8-0.8,0.8c-0.5,0-0.8-0.4-0.8-0.8v-0.5c0-0.8-0.7-1.5-1.5-1.5c-0.9,0-1.6,0.7-1.6,1.5v0.5
		c0,0.5-0.4,0.8-0.8,0.8c-0.5,0-0.8-0.4-0.8-0.8v-0.5c0-1.8,1.4-3.2,3.2-3.2c1.8,0,3.2,1.4,3.2,3.2V45.2z"/>
	<path class="st2" d="M4.1,27.1c-1.7,0-3.1,1.4-3.1,3.1v39.1c0,1.7,1.4,3.1,3.1,3.1h14.5V27.1H4.1z M14.8,45.2
		c0,0.5-0.4,0.8-0.8,0.8c-0.5,0-0.8-0.4-0.8-0.8v-0.5c0-0.8-0.7-1.5-1.5-1.5c-0.9,0-1.6,0.7-1.6,1.5v0.5c0,0.5-0.4,0.8-0.8,0.8
		c-0.5,0-0.8-0.4-0.8-0.8v-0.5c0-1.8,1.4-3.2,3.2-3.2c1.8,0,3.3,1.4,3.3,3.2V45.2z"/>
	<path class="st3" d="M9.3,50.6c0,0,2.2,7.5,9.3,7.5s9.3-7.5,9.3-7.5H9.3z"/>
	<path class="st3" d="M47.6,35.4c0.5-0.8,1.7-1.7,3.5-1.7c3.8,0,4.6,2.4,4.6,4.8v6.9c0,0.8-0.7,1.4-1.5,1.4c-0.9,0-1.5-0.6-1.5-1.4
		v-6.3c0-1.6-0.6-2.6-2.4-2.6c-2.1,0-2.8,1.2-2.8,2.8v6.2c0,0.8-0.6,1.4-1.5,1.4c-0.9,0-1.5-0.6-1.5-1.4V28.5c0-0.8,0.7-1.5,1.5-1.5
		c0.8,0,1.5,0.7,1.5,1.5L47.6,35.4L47.6,35.4z"/>
	<path class="st3" d="M60,37.4c-0.3,0.2-0.5,0.3-0.8,0.3c-0.7,0-1.3-0.6-1.3-1.3c0-0.3,0.1-0.6,0.4-0.9c0.8-0.9,2.2-1.8,4.5-1.8
		c3.4,0,5.5,1.7,5.5,4.6v7.1c0,0.8-0.7,1.5-1.5,1.5c-0.8,0-1.5-0.7-1.5-1.5c-0.7,1.2-2,1.6-3.6,1.6c-2.7,0-4.5-1.7-4.5-4.2
		c0-2.6,2.1-3.9,4.5-3.9h3.6v-0.5c0-1.2-0.9-2.1-2.5-2.1C61.6,36.3,60.7,36.9,60,37.4 M65.3,42v-0.8h-3.2c-1.2,0-1.9,0.6-1.9,1.6
		c0,1,0.7,1.7,2.3,1.7C64,44.5,65.3,43.5,65.3,42"/>
	<path class="st3" d="M76.7,33.7c3.6,0,5.6,2.1,5.6,6.6c0,4.5-2,6.6-5.6,6.6c-1.4,0-2.6-0.4-3.3-1.2v4.9c0,0.8-0.7,1.5-1.5,1.5
		c-0.8,0-1.5-0.7-1.5-1.5V35.4c0-0.8,0.7-1.5,1.5-1.5c0.8,0,1.5,0.7,1.5,1.5C73.9,34.7,75.2,33.7,76.7,33.7 M76.3,36.2
		c-1.9,0-3,1.4-3,4.1c0,2.7,1,4.1,3,4.1s3-1.4,3-4.1C79.3,37.6,78.2,36.2,76.3,36.2"/>
	<path class="st3" d="M90.3,33.7c3.6,0,5.6,2.1,5.6,6.6c0,4.5-2,6.6-5.6,6.6c-1.4,0-2.6-0.4-3.3-1.2v4.9c0,0.8-0.7,1.5-1.5,1.5
		c-0.8,0-1.5-0.7-1.5-1.5V35.4c0-0.8,0.7-1.5,1.5-1.5c0.8,0,1.5,0.7,1.5,1.5C87.5,34.7,88.8,33.7,90.3,33.7 M89.9,36.2
		c-1.9,0-2.9,1.4-2.9,4.1c0,2.7,1,4.1,2.9,4.1s3-1.4,3-4.1C92.9,37.6,91.9,36.2,89.9,36.2"/>
	<path class="st3" d="M97.4,30.6c0-1.3,0.6-1.8,1.8-1.8c1.2,0,1.8,0.6,1.8,1.8c0,1.1-0.6,1.7-1.8,1.7C98.1,32.4,97.4,31.7,97.4,30.6
		 M100.7,45.3c0,0.8-0.7,1.5-1.5,1.5c-0.8,0-1.5-0.7-1.5-1.5v-10c0-0.8,0.7-1.5,1.5-1.5c0.8,0,1.5,0.7,1.5,1.5V45.3z"/>
	<path class="st3" d="M46.6,55.1V56c0.5-1,1.9-2,3.8-2c3.6,0,5.9,2.1,5.9,6.7s-2.2,6.8-5.9,6.8c-1.9,0-3.2-1-3.8-2v6.3
		c0,0.5-0.4,0.9-0.9,0.9c-0.5,0-0.9-0.4-0.9-0.9V55.1c0-0.5,0.4-0.9,0.9-0.9C46.1,54.2,46.6,54.6,46.6,55.1 M50.4,65.9
		c2.6,0,4-1.6,4-5.1c0-3.5-1.5-5.1-4.1-5.1c-2.1,0-3.8,1.5-3.8,5.1C46.5,64.3,48.2,65.9,50.4,65.9"/>
	<path class="st3" d="M60.7,56.3c0.6-1.3,2-2.2,3.9-2.2c0.5,0,0.9,0.4,0.9,0.9c0,0.5-0.4,0.9-0.9,0.9c-2.6,0-3.9,1.8-3.9,4.4v6.3
		c0,0.5-0.4,0.9-0.9,0.9c-0.5,0-0.9-0.4-0.9-0.9V55.1c0-0.5,0.4-0.9,0.9-0.9c0.5,0,0.9,0.4,0.9,0.9V56.3z"/>
	<path class="st3" d="M72.1,54c4.5,0,5.4,3.6,5.4,5.5c0,0.8,0,1.8-1.1,1.8h-8.2c0,2.8,1.6,4.6,4.2,4.6c1.6,0,2.6-0.6,3.4-1.2
		c0.2-0.1,0.3-0.2,0.5-0.2c0.4,0,0.8,0.4,0.8,0.8c0,0.3-0.1,0.5-0.3,0.6c-0.4,0.4-1.9,1.6-4.4,1.6c-3.7,0-6.1-2-6.1-6.8
		C66.3,56.4,68.5,54,72.1,54 M72.1,55.6c-2.4,0-3.8,1.6-4,4.1h7.5C75.7,57.7,75,55.6,72.1,55.6"/>
	<path class="st3" d="M81.6,57.4c0,2.9,7.4,1.8,7.4,6.3c0,2.6-2.1,3.7-4.8,3.7c-2.3,0-4.1-1.1-4.8-2c-0.1-0.2-0.2-0.3-0.2-0.5
		c0-0.4,0.4-0.8,0.8-0.8c0.2,0,0.4,0.1,0.6,0.3c0.9,0.9,2,1.4,3.6,1.4c1.6,0,3-0.5,3-2c0-2.9-7.4-1.7-7.4-6.3c0-2.3,1.9-3.4,4.3-3.4
		c1.9,0,3.4,0.6,4.3,1.8c0.1,0.1,0.2,0.3,0.2,0.5c0,0.4-0.4,0.8-0.8,0.8c-0.1,0-0.4,0-0.6-0.3c-0.8-0.7-1.6-1.2-3.1-1.2
		C82.9,55.7,81.6,56.1,81.6,57.4"/>
	<path class="st3" d="M93.4,57.4c0,2.9,7.4,1.8,7.4,6.3c0,2.6-2.1,3.7-4.8,3.7c-2.3,0-4.1-1.1-4.8-2c-0.1-0.2-0.2-0.3-0.2-0.5
		c0-0.4,0.4-0.8,0.8-0.8c0.2,0,0.4,0.1,0.6,0.3c0.9,0.9,2,1.4,3.6,1.4c1.6,0,3-0.5,3-2c0-2.9-7.4-1.7-7.4-6.3c0-2.3,1.9-3.4,4.3-3.4
		c1.9,0,3.4,0.6,4.3,1.8c0.1,0.1,0.2,0.3,0.2,0.5c0,0.4-0.4,0.8-0.8,0.8c-0.1,0-0.4,0-0.6-0.3c-0.8-0.7-1.6-1.2-3.1-1.2
		C94.6,55.7,93.4,56.1,93.4,57.4"/>
</g>
</svg>
