<?xml version="1.0" encoding="utf-8"?>
<!-- Generator: Adobe Illustrator 19.0.0, SVG Export Plug-In . SVG Version: 6.00 Build 0)  -->
<svg version="1.1" id="Layer_1" xmlns="http://www.w3.org/2000/svg" xmlns:xlink="http://www.w3.org/1999/xlink" x="0px" y="0px"
	 viewBox="252.8 298.1 102 102" style="enable-background:new 252.8 298.1 102 102;" xml:space="preserve">
<style type="text/css">
	.st0{fill:#FFFFFF;}
</style>
<g>
	<path class="st0" d="M312.1,347.6c0-2.9,0-5.8,0-8.7c-0.5,0-0.9,0-1.6,0c0,2,0,3.9,0,5.8c-1.6-1.7-3.1-3.4-4.4-5.2
		c-0.5-0.7-1.1-0.8-1.8-0.5c0,2.9,0,5.8,0,8.7c0.5,0,1,0,1.5,0c0-2,0-3.9,0-5.7c1.6,1.6,3,3.3,4.3,5
		C310.7,347.6,311.3,347.8,312.1,347.6z"/>
	<path class="st0" d="M309.7,354.9c1.4-1.8,2.8-3.5,4.3-5.3c-1-0.3-1.6-0.1-2.1,0.7c-0.9,1.2-1.9,2.4-2.9,3.7c-1-1.3-2.1-2.5-3-3.8
		c-0.5-0.7-1.1-0.8-2-0.6c0.2,0.3,0.4,0.6,0.6,0.8c1.1,1.3,2.1,2.6,3.2,3.9c0.4,0.5,0.4,0.8,0,1.3c-1,1.2-2,2.4-3,3.7
		c-0.5,0.6-1,1.3-1.6,2c0.9,0.2,1.5,0.1,2.1-0.6c1.2-1.6,2.5-3.1,3.8-4.7c1.3,1.7,2.6,3.2,3.8,4.8c0.5,0.7,1.1,0.8,2,0.5
		C313,359.1,311.4,357,309.7,354.9z"/>
	<path class="st0" d="M326,344.7c-1.1,1.1-2.3,1.7-3.8,1.6s-2.8-1.5-2.8-2.9c-0.1-1.5,1.2-2.9,2.6-3.1c1.2-0.1,2.5,0,3.4,1
		c0.5,0.5,0.8,0.2,1.2-0.1c0.5-0.5,0.2-0.8-0.2-1.1c-1.4-1.2-3-1.5-4.7-1.2c-2.2,0.4-3.7,2-3.8,3.9c-0.1,2.7,1,4.5,3.4,5
		c2.2,0.5,4.1-0.2,5.7-1.8C326.7,345.5,326.4,345.1,326,344.7z"/>
	<path class="st0" d="M292.3,340.6c-2.7-2.5-6.2-2.6-8.2-0.2c-1.5,1.8-1.2,5,0.7,6.4c2.1,1.6,5.6,1.3,7.5-1.1
		c-0.3-0.3-0.7-0.6-0.9-0.8c-0.9,0.5-1.6,1-2.5,1.3c-1.8,0.6-3.6-0.4-4-1.9c-0.5-1.8,0.3-3.4,2-3.8c1.3-0.3,2.5-0.2,3.6,0.7
		c0.2,0.2,0.5,0.4,0.8,0.6C291.6,341.3,291.9,341,292.3,340.6z"/>
	<path class="st0" d="M314.9,349.6c1.6,2.1,3.2,4,4.8,6c0.3,0.4,0.5,0.9,0.5,1.4c0.1,1.4,0,2.8,0,4.3c0.4,0,0.7,0,1.2,0
		c0-1.3,0.1-2.5,0-3.7c-0.1-1,0.1-1.7,0.8-2.5c1.3-1.5,2.5-3.1,3.8-4.7c0.2-0.3,0.4-0.6,0.6-0.9c-1.4-0.1-1.4-0.1-2,0.7
		c-0.3,0.5-0.7,0.9-1,1.3c-0.9,1.1-1.8,2.2-2.7,3.4c-1.3-1.6-2.6-3.1-3.7-4.7C316.6,349.6,316,349.3,314.9,349.6z"/>
	<path class="st0" d="M289,360.2c-2.6,0-5,0-7.6,0c0-3.6,0-7.1,0-10.6c-0.5,0-0.8,0-1.2,0c0,4,0,7.9,0,11.8c3,0,5.8,0,8.8,0
		C289,360.9,289,360.6,289,360.2z"/>
	<path class="st0" d="M314.7,338.9c0,3,0,5.9,0,8.8c0.5,0,1,0,1.5,0c0-3,0-5.8,0-8.8C315.6,338.9,315.2,338.9,314.7,338.9z"/>
	<path class="st0" d="M281.4,347.6c0-2.9,0-5.8,0-8.7c-0.5,0-0.9,0-1.4,0c0,3,0,5.8,0,8.7C280.5,347.6,280.9,347.6,281.4,347.6z"/>
	<path class="st0" d="M353.8,349.1c-0.1,1.1-0.2,2.2-0.4,3.3c-0.8,5.6-3.2,10.6-7.2,14.7c-4.2,4.4-9.4,7.3-15.4,8.2
		c-7.4,1.2-14.3-0.3-20.5-4.6c-0.1-0.1-0.2-0.1-0.4-0.2c-2.4,3-4.8,6-7.1,9c-0.1,0-0.1-0.1-0.2-0.1c2.3-3.1,4.5-6.2,6.8-9.3
		c-2.5-2.5-5.4-4.7-7-7.9c0.7-0.2,0.7-0.2,1.1,0.5c1.8,2.5,4,4.7,6.6,6.5c3-4,5.9-7.9,8.9-12.1c0.2,1,0.2,1.7-0.4,2.4
		c-2.7,3.3-5.3,6.6-7.9,9.9c8.5,6.1,24,6.3,33.4-5.4c8.9-11,6.5-26.4-2.7-34.4c-1.4,1.9-2.9,3.8-4.3,5.7c-3.1,4.1-6.2,8.2-9.3,12.4
		c-0.5,0.7-1,0.9-2,0.7c2.6-3.2,5.1-6.4,7.6-9.6c2.5-3.2,5-6.3,7.6-9.6c-6.7-5.4-14.2-7.6-22.7-5.5c-8.4,2.1-14.2,7.3-17.8,15.1
		c-0.3-3.1,5.9-10.6,10.8-13.8c7.3-4.7,20.4-6.9,31.7,1.6c2.1-2.7,4.3-5.4,6.4-8.1c0.1,0,0.1,0.1,0.2,0.1c-2.1,2.7-4.1,5.5-6.2,8.2
		c0.9,0.9,1.7,1.7,2.5,2.5c4.5,4.7,7,10.3,7.5,16.8c0,0.2,0.1,0.5,0.2,0.7C353.8,347.7,353.8,348.4,353.8,349.1z"/>
	<path class="st0" d="M253.8,354.9c0.1-0.2,0.2-0.5,0.2-0.7c0.5-2.7,2.9-4.7,5.6-5c2.3-0.2,4.3,0.3,5.9,2.1
		c-0.2,0.3-0.5,0.5-0.7,0.8c-0.4-0.3-0.8-0.6-1.1-0.8c-3-2.3-7.7-0.5-8.4,3.1c-0.7,3.2,2,6.1,5.5,5.9c0.5,0,1-0.1,1.5-0.2
		c2-0.5,2.6-1.4,2.3-3.9c-1,0-2,0-3.1,0c-1.1,0-1.1-0.1-1-1.3c1.6,0,3.3,0,4.9,0c0.2,0,0.4,0.4,0.4,0.6c0,0.9,0.1,1.9,0,2.8
		c-0.1,1-0.8,1.8-1.6,2.3c-3.5,2.4-9.1,0.3-10.1-3.8c-0.1-0.4-0.2-0.8-0.3-1.2C253.8,355.4,253.8,355.2,253.8,354.9z"/>
	<path class="st0" d="M312.1,347.6c-0.8,0.2-1.4,0-2-0.7c-1.3-1.7-2.7-3.4-4.3-5c0,1.9,0,3.8,0,5.7c-0.6,0-1,0-1.5,0
		c0-2.9,0-5.7,0-8.7c0.7-0.2,1.3-0.2,1.8,0.5c1.3,1.8,2.8,3.5,4.4,5.2c0-1.9,0-3.8,0-5.8c0.6,0,1.1,0,1.6,0
		C312.1,341.8,312.1,344.7,312.1,347.6z"/>
	<path class="st0" d="M297.7,338.6c-2.6,0-4.7,2-4.7,4.4c0.1,2.9,1.9,4.8,4.6,4.8c2.8,0,4.9-2,4.9-4.6S300.4,338.6,297.7,338.6z
		 M297.7,346.3c-1.8,0-3.2-1.4-3.2-3.1c0-1.7,1.4-3,3.2-3c1.9,0,3.2,1.3,3.2,3C300.9,345,299.5,346.3,297.7,346.3z"/>
	<path class="st0" d="M302.6,361.3c-0.9,0.3-1.4,0.1-1.7-0.7c-0.4-0.9-1-1.8-1.4-2.8c-0.2-0.5-0.5-0.6-1-0.6c-1.5,0-3.1,0-4.6,0
		c-0.5,0-0.8,0.2-1,0.6c-0.4,0.9-0.9,1.8-1.3,2.7c-0.3,0.9-0.9,1-1.8,0.8c0.9-1.8,1.7-3.6,2.6-5.4c1-2,1.9-3.9,2.9-5.9
		c0.1-0.2,0.5-0.4,0.8-0.5c0.3,0,0.7,0.2,0.8,0.4C298.9,353.7,300.7,357.4,302.6,361.3z M298.6,355.9c-0.8-1.7-1.5-3.3-2.3-5
		c-0.8,1.7-1.5,3.3-2.3,5C295.6,355.9,297,355.9,298.6,355.9z"/>
	<path class="st0" d="M273.2,349.6c1.8,3.8,3.7,7.7,5.6,11.6c-0.8,0.3-1.4,0.1-1.7-0.7c-0.4-0.9-0.9-1.7-1.3-2.6
		c-0.2-0.5-0.5-0.8-1.2-0.8c-1.5,0.1-3,0-4.5,0.1c-0.3,0-0.7,0.3-0.9,0.6c-0.5,0.9-1,1.8-1.3,2.7c-0.3,0.8-0.8,1.1-1.7,0.8
		c0.6-1.4,1.2-2.8,1.9-4.1c1.1-2.3,2.2-4.5,3.3-6.7C271.8,349.7,272.2,349.2,273.2,349.6z M272.6,350.9c-0.8,1.8-1.6,3.4-2.3,5
		c1.6,0,3.1,0,4.7,0C274.1,354.3,273.4,352.7,272.6,350.9z"/>
	<path class="st0" d="M309.7,354.9c1.7,2.1,3.3,4.2,5,6.3c-0.9,0.2-1.5,0.2-2-0.5c-1.2-1.6-2.5-3.1-3.8-4.8
		c-1.3,1.6-2.6,3.1-3.8,4.7c-0.5,0.7-1.1,0.8-2.1,0.6c0.6-0.7,1.1-1.4,1.6-2c1-1.2,1.9-2.5,3-3.7c0.4-0.5,0.4-0.8,0-1.3
		c-1.1-1.3-2.1-2.6-3.2-3.9c-0.2-0.2-0.4-0.5-0.6-0.8c0.9-0.2,1.5-0.1,2,0.6c0.9,1.3,2,2.5,3,3.8c1-1.2,2-2.4,2.9-3.7
		c0.5-0.8,1.1-1,2.1-0.7C312.5,351.4,311.1,353.1,309.7,354.9z"/>
	<path class="st0" d="M326,344.7c0.4,0.4,0.7,0.8,1.1,1.1c-1.6,1.6-3.5,2.3-5.7,1.8c-2.4-0.5-3.5-2.3-3.4-5c0.1-1.9,1.6-3.5,3.8-3.9
		c1.8-0.3,3.4,0,4.7,1.2c0.4,0.3,0.6,0.6,0.2,1.1c-0.4,0.4-0.7,0.7-1.2,0.1c-0.9-1-2.1-1.1-3.4-1c-1.5,0.2-2.7,1.6-2.6,3.1
		c0.1,1.5,1.3,2.8,2.8,2.9C323.7,346.4,324.9,345.8,326,344.7z"/>
	<path class="st0" d="M292.3,340.6c-0.3,0.4-0.6,0.7-1,1.1c-0.3-0.2-0.5-0.4-0.8-0.6c-1.1-0.9-2.4-1-3.6-0.7c-1.8,0.5-2.5,2.1-2,3.8
		c0.5,1.6,2.3,2.5,4,1.9c0.8-0.3,1.6-0.8,2.5-1.3c0.2,0.2,0.6,0.5,0.9,0.8c-1.9,2.4-5.3,2.7-7.5,1.1c-1.9-1.4-2.2-4.6-0.7-6.4
		C286,338,289.6,338.1,292.3,340.6z"/>
	<path class="st0" d="M314.9,349.6c1-0.3,1.6,0,2.2,0.7c1.1,1.6,2.4,3.1,3.7,4.7c0.9-1.2,1.8-2.3,2.7-3.4c0.4-0.4,0.7-0.9,1-1.3
		c0.7-0.9,0.7-0.9,2-0.7c-0.2,0.4-0.4,0.7-0.6,0.9c-1.2,1.6-2.4,3.2-3.8,4.7c-0.7,0.8-0.8,1.5-0.8,2.5c0.1,1.2,0,2.4,0,3.7
		c-0.5,0-0.8,0-1.2,0c0-1.5,0-2.9,0-4.3c0-0.5-0.2-1-0.5-1.4C318.2,353.6,316.6,351.7,314.9,349.6z"/>
	<path class="st0" d="M289,360.2c0,0.5,0,0.8,0,1.1c-2.9,0-5.8,0-8.8,0c0-3.9,0-7.8,0-11.8c0.4,0,0.7,0,1.2,0c0,3.5,0,7,0,10.6
		C284,360.2,286.4,360.2,289,360.2z"/>
	<path class="st0" d="M314.7,338.9c0.5,0,0.9,0,1.5,0c0,2.9,0,5.8,0,8.8c-0.5,0-0.9,0-1.5,0C314.7,344.7,314.7,341.8,314.7,338.9z"
		/>
	<path class="st0" d="M281.4,347.6c-0.5,0-0.9,0-1.4,0c0-2.9,0-5.8,0-8.7c0.5,0,0.9,0,1.4,0C281.4,341.8,281.4,344.7,281.4,347.6z"
		/>
</g>
</svg>
