<?xml version="1.0" encoding="utf-8"?>
<!-- Generator: Adobe Illustrator 23.0.0, SVG Export Plug-In . SVG Version: 6.00 Build 0)  -->
<svg version="1.1" id="Layer_1" xmlns="http://www.w3.org/2000/svg" xmlns:xlink="http://www.w3.org/1999/xlink" x="0px" y="0px"
	 viewBox="0 0 102 102" style="enable-background:new 0 0 102 102;" xml:space="preserve">
<style type="text/css">
	.st0{fill:#FFFFFF;}
	.st1{fill:#EEEEEE;}
	.st2{fill:#5C6543;}
</style>
<path class="st0" d="M12.6,95.3h-2.3v-0.4H13v3.8c0,1.5-1,2.4-2.4,2.4s-2.4-1-2.4-2.4h0.4c0,1.1,0.8,1.9,2,1.9
	c1.1,0,1.9-0.7,1.9-1.9L12.6,95.3L12.6,95.3z"/>
<polygon class="st0" points="24.6,95.5 22.3,99.1 22.1,99.1 19.8,95.5 19.8,100.9 19.3,100.9 19.3,94.9 19.9,94.9 22.2,98.4 
	24.5,94.9 25,94.9 25,100.9 24.6,100.9 "/>
<path class="st0" d="M35.8,96.5c0,0.6-0.4,1.1-1,1.3c0.8,0.2,1.2,0.8,1.2,1.5c0,1.2-1.2,1.6-2.2,1.6h-2.5v-6h2.5
	C34.8,94.9,35.8,95.4,35.8,96.5 M31.8,97.6h2.1c0.7,0,1.5-0.2,1.5-1.1s-0.8-1.3-1.5-1.3h-2C31.8,95.3,31.8,97.6,31.8,97.6z
	 M31.8,100.4h2c0.8,0,1.7-0.2,1.7-1.1S34.6,98,33.8,98h-2.1C31.8,98,31.8,100.4,31.8,100.4z"/>
<path class="st0" d="M43.2,100.9l-0.7-1.5h-3.6l-0.7,1.5h-0.5l2.7-6H41l2.7,6H43.2z M42.4,99l-1.6-3.7L39.1,99H42.4z"/>
<polygon class="st0" points="49.7,94.9 50.2,94.9 50.2,94.9 48.2,97.8 50.4,100.9 50.4,100.9 49.8,100.9 47.9,98.1 45.9,100.9 
	45.4,100.9 45.4,100.9 47.6,97.8 45.6,94.9 45.6,94.9 46.1,94.9 47.9,97.4 "/>
<rect x="52.6" y="94.9" class="st0" width="0.5" height="6"/>
<path class="st0" d="M64.1,96c-0.5-0.5-1.3-0.8-1.9-0.8c-1.8,0-2.7,1.3-2.7,2.7c0,1.4,0.9,2.6,2.7,2.6c0.6,0,1.3-0.2,1.8-0.7v-1.7
	h-2.1v-0.4h2.5v2.3c-0.6,0.6-1.4,1-2.3,1c-2.1,0-3.1-1.4-3.1-3.1c0-1.9,1.3-3.1,3.1-3.1c0.8,0,1.6,0.3,2.2,0.9L64.1,96z"/>
<path class="st0" d="M71.7,100.9h-0.6L69,98.6h-1.6v2.3h-0.5v-6h2.7c1.3,0,2,0.9,2,1.9s-0.6,1.8-2,1.8L71.7,100.9z M67.3,98.2h2.1
	c1.1,0,1.5-0.6,1.5-1.4c0-0.7-0.5-1.4-1.5-1.4h-2.2L67.3,98.2L67.3,98.2z"/>
<path class="st0" d="M79.6,97.9c0,1.6-1,3.1-3,3.1s-3-1.5-3-3.1s1-3.1,3-3.1S79.6,96.3,79.6,97.9 M74,97.9c0,1.4,0.9,2.7,2.6,2.7
	s2.6-1.3,2.6-2.7c0-1.4-0.9-2.7-2.6-2.7C74.8,95.2,74,96.5,74,97.9"/>
<path class="st0" d="M86.6,94.9v3.8c0,3.2-4.6,3.2-4.6,0v-3.8h0.5v3.8c0,2.6,3.7,2.6,3.7,0v-3.8H86.6z"/>
<path class="st0" d="M89.7,98.8v2.1h-0.5v-6h2.6c2.6,0,2.6,4,0,4L89.7,98.8L89.7,98.8z M89.7,95.3v3.1h2.2c2,0,2-3.1,0-3.1H89.7z"/>
<path class="st0" d="M30.2,38C16.8,38,5.9,48.8,5.9,62.3c0,13.4,11,24.3,24.4,24.3c13.4,0,24.3-10.9,24.3-24.3
	C54.6,48.8,43.7,38,30.2,38z M40.7,72.1h-3.8V57.8l-6.4,8.6h-0.7l-6.3-8.6v14.3h-3.7V52.4h4.3l6.2,8.5l6.1-8.5h4.3V72.1z"/>
<path class="st1" d="M51,74.9c-2.3-3.7-3.6-8-3.6-12.7c0-4.6,1.3-9,3.5-12.6l0,0l0,0c2.2,3.7,3.5,8,3.5,12.6
	C54.6,66.9,53.3,71.2,51,74.9"/>
<path class="st0" d="M51,1C37.6,1,26.7,11.9,26.7,25.4c0,4.6,1.3,8.9,3.5,12.6C39,38,46.7,42.6,51,49.6c4.3-7,12-11.6,20.8-11.7
	c2.2-3.6,3.5-8,3.5-12.6C75.3,11.9,64.4,1,51,1z M59.6,26.5c0,5.1-3.2,8.8-8.7,8.8c-5,0-8.6-3-8.6-8.6H46c0,3.4,1.6,5.1,5,5.1
	s4.9-2.3,4.9-5.3v-7.8H50v-3.5h9.6V26.5z"/>
<path class="st1" d="M51,49.6c-8.8,0-16.5-4.7-20.8-11.7l0,0C39,38,46.7,42.6,51,49.6L51,49.6"/>
<path class="st1" d="M51,49.6L51,49.6c4.3-7,12-11.6,20.8-11.6l0,0C67.5,44.9,59.8,49.6,51,49.6"/>
<path class="st2" d="M51,49.6L51,49.6L51,49.6L51,49.6L51,49.6"/>
<path class="st0" d="M72.8,63.5h-5.7v5.1h5.7c1.5,0,3.7-0.5,3.7-2.4C76.5,64.4,74.3,63.5,72.8,63.5z"/>
<path class="st0" d="M75.9,58.2c0-0.9-0.7-2.4-3.1-2.4h-5.7v4.5h5.7C75.1,60.3,75.9,59.3,75.9,58.2z"/>
<path class="st0" d="M71.9,38c-4.3,7-12,11.7-20.8,11.7c2.2,3.6,3.5,8,3.5,12.6c0,4.7-1.3,9-3.6,12.7c4.3,6.9,12,11.6,20.8,11.6
	c13.4,0,24.3-10.9,24.4-24.3C96.2,48.9,85.3,38,71.9,38z M72.6,72.1h-9.3V52.4h9.3c4,0,6.9,1.8,6.9,5.7c0,1.5-0.7,3-2.6,3.8
	c2.3,0.7,3.1,3.1,3.1,4.4C80,70.7,76.7,72.1,72.6,72.1z"/>
<text transform="matrix(1 0 0 1 396 306)" style="font-family:'MyriadPro-Regular'; font-size:12px;">col-sm-6</text>
</svg>
