<?xml version="1.0" encoding="utf-8"?>
<!-- Generator: Adobe Illustrator 23.0.0, SVG Export Plug-In . SVG Version: 6.00 Build 0)  -->
<svg version="1.1" id="Layer_1" xmlns="http://www.w3.org/2000/svg" xmlns:xlink="http://www.w3.org/1999/xlink" x="0px" y="0px"
	 viewBox="0 0 102 102" style="enable-background:new 0 0 102 102;" xml:space="preserve">
<style type="text/css">
	.st0{fill:#FFFFFF;}
	.st1{fill-rule:evenodd;clip-rule:evenodd;fill:#FFFFFF;}
	.st2{fill-rule:evenodd;clip-rule:evenodd;fill:#AAAAAA;stroke:#AAAAAA;stroke-width:0.216;stroke-miterlimit:2.6131;}
</style>
<g>
	<path class="st0" d="M12.4,50.8H8.2v-9H6.8v10.4h5.4L12.4,50.8L12.4,50.8z M23.5,52.2l-3.1-10.4h-1.8l-3,10.4h1.5l0.8-3.1H21
		l0.8,3.1H23.5L23.5,52.2z M20.7,47.7h-2.4l1-3.7c0.1-0.4,0.1-0.9,0.1-0.9s0,0.5,0.2,0.9L20.7,47.7L20.7,47.7z M35.1,41.7h-1.4v7.9
		c0,0,0-0.3-0.2-0.5l-4.9-7.3h-1.4v10.4h1.5v-7.3c0-0.4-0.1-0.7-0.1-0.7l5.3,8h1.3V41.7L35.1,41.7z M46.1,49.1v-4.5
		c0-1.7-1.6-2.9-3.2-2.9h-3.4v10.4h3.4C44.5,52.2,46.1,50.8,46.1,49.1L46.1,49.1z M44.6,49c0,1.1-1.1,1.8-1.9,1.8H41v-7.7h1.7
		c0.8,0,1.9,0.5,1.9,1.7V49L44.6,49z M60.3,41.8H59l-3.5,8.4l-3.8-8.4h-1.3l0,10.4h1.3v-5.7c0-0.5-0.2-1.4-0.2-1.4l3.1,7.1H56l3-7.1
		c0,0-0.2,0.7-0.2,1.4v5.7h1.5L60.3,41.8L60.3,41.8z M72.1,52.2L69,41.7h-1.8l-3,10.4h1.5l0.8-3.1h3.1l0.8,3.1H72.1L72.1,52.2z
		 M69.3,47.7h-2.4l1-3.7c0.1-0.4,0.1-0.9,0.1-0.9s0,0.5,0.2,0.9L69.3,47.7L69.3,47.7z M82.8,52.2l-2.8-4.3c1.5-0.2,2-1.5,2-2.6v-0.9
		c0-1.8-1.6-2.7-3.1-2.7l-3,0v10.4h1.5V48h1.1l2.6,4.2H82.8L82.8,52.2z M80.4,45.1c0,1.1-0.8,1.5-1.8,1.5h-1.4v-3.5h1.4
		c0.9,0,1.8,0.2,1.8,1.3V45.1L80.4,45.1z M92.2,51.5l-0.4-1.4c-0.8,0.6-1.8,0.9-2.3,0.9c-0.7,0-1.8-0.3-1.8-1.4v-5.2
		c0-0.9,0.9-1.4,1.7-1.4c0.6,0,1.4,0.2,2,0.9l0.8-1.1c-0.6-0.7-1.6-1.1-2.8-1.1c-1.6,0-3.2,1-3.2,2.7v5.6c0,1.6,1.6,2.4,3.1,2.4
		C90.6,52.3,91.4,52,92.2,51.5z"/>
	<polygon class="st1" points="18.4,47.2 20.5,47.2 21.1,49.5 17.8,49.5 	"/>
	<polygon class="st1" points="67.1,47.2 69.1,47.2 69.8,49.5 66.4,49.5 	"/>
	<path class="st2" d="M1,52.3c33.7-8.7,67-8.4,100-0.2C67.7,44.8,34.3,44.4,1,52.3z"/>
	<path class="st0" d="M7.3,54.7V59h2.6v0.2H7v-4.6H7.3L7.3,54.7z M13.4,58.1c-0.1,0.4-0.2,0.7-0.5,0.9s-0.6,0.3-1,0.3
		c-0.5,0-0.8-0.2-1.1-0.5s-0.4-0.7-0.4-1.3c0-0.5,0.1-0.9,0.4-1.2s0.6-0.5,1.1-0.5c0.4,0,0.8,0.2,1.1,0.5c0.3,0.3,0.4,0.7,0.4,1.1
		v0.1h-2.7c0,0.4,0.1,0.8,0.3,1.1c0.2,0.3,0.5,0.4,0.9,0.4c0.3,0,0.6-0.1,0.8-0.3c0.2-0.2,0.3-0.4,0.4-0.7L13.4,58.1L13.4,58.1z
		 M10.8,57.4h2.4c0-0.4-0.1-0.7-0.4-1c-0.2-0.3-0.5-0.4-0.9-0.4c-0.4,0-0.6,0.1-0.9,0.4C10.9,56.8,10.8,57.1,10.8,57.4L10.8,57.4z
		 M14.6,55.3v-0.7h0.2v0.7H14.6L14.6,55.3z M14.9,59.2h-0.2v-3.3h0.2V59.2L14.9,59.2z M18.7,58.4c0,0.3-0.1,0.5-0.3,0.7
		s-0.5,0.2-0.9,0.2c-0.4,0-0.7-0.1-1-0.3c-0.2-0.2-0.4-0.5-0.4-0.9h0.2c0,0.3,0.1,0.5,0.3,0.7c0.2,0.2,0.5,0.3,0.8,0.3
		c0.3,0,0.6-0.1,0.7-0.2c0.2-0.1,0.3-0.3,0.3-0.5c0-0.2-0.1-0.4-0.2-0.5c-0.2-0.1-0.5-0.2-0.9-0.3c-0.4-0.1-0.7-0.2-0.9-0.3
		c-0.2-0.1-0.3-0.3-0.3-0.6c0-0.3,0.1-0.5,0.3-0.6c0.2-0.1,0.5-0.2,0.9-0.2c0.4,0,0.7,0.1,0.9,0.3c0.2,0.2,0.3,0.4,0.3,0.8h-0.2
		c0-0.3-0.1-0.5-0.3-0.6s-0.4-0.2-0.7-0.2c-0.3,0-0.6,0.1-0.7,0.2c-0.2,0.1-0.2,0.3-0.2,0.5c0,0.2,0.1,0.3,0.2,0.4
		c0.2,0.1,0.5,0.2,1,0.3c0.4,0.1,0.7,0.2,0.8,0.3S18.7,58.1,18.7,58.4L18.7,58.4z M22.4,55.9v3.3h-0.2v-0.7
		c-0.1,0.2-0.2,0.4-0.4,0.6c-0.2,0.2-0.5,0.2-0.7,0.2c-0.8,0-1.2-0.4-1.2-1.2v-2.1H20v2.1c0,0.7,0.3,1,1,1c0.3,0,0.6-0.1,0.8-0.4
		c0.2-0.3,0.3-0.6,0.3-1v-1.7L22.4,55.9L22.4,55.9z M23.9,59.2h-0.2v-3.3h0.2v0.8c0.1-0.3,0.2-0.4,0.5-0.6c0.2-0.1,0.5-0.2,0.7-0.2
		h0.1v0.2h-0.1c-0.4,0-0.6,0.1-0.9,0.4c-0.2,0.2-0.3,0.5-0.3,0.9L23.9,59.2L23.9,59.2z M28.7,58.1c-0.1,0.4-0.2,0.7-0.5,0.9
		c-0.2,0.2-0.6,0.3-1,0.3c-0.5,0-0.8-0.2-1.1-0.5s-0.4-0.7-0.4-1.3c0-0.5,0.1-0.9,0.4-1.2s0.6-0.5,1.1-0.5c0.4,0,0.8,0.2,1.1,0.5
		c0.3,0.3,0.4,0.7,0.4,1.1v0.1H26c0,0.4,0.1,0.8,0.3,1.1c0.2,0.3,0.5,0.4,0.9,0.4c0.3,0,0.6-0.1,0.8-0.3c0.2-0.2,0.3-0.4,0.4-0.7
		L28.7,58.1L28.7,58.1z M26,57.4h2.4c0-0.4-0.1-0.7-0.4-1c-0.2-0.3-0.5-0.4-0.9-0.4c-0.4,0-0.6,0.1-0.9,0.4
		C26.2,56.8,26.1,57.1,26,57.4L26,57.4z M31.7,57c0,0.6,0.2,1.1,0.5,1.5c0.4,0.4,0.8,0.6,1.4,0.6c0.4,0,0.8-0.2,1.1-0.5
		c0.3-0.3,0.5-0.7,0.5-1.2h0.3c-0.1,0.5-0.3,1-0.6,1.3c-0.4,0.4-0.8,0.5-1.3,0.5c-0.6,0-1.2-0.2-1.6-0.7s-0.6-1-0.6-1.7
		c0-0.7,0.2-1.3,0.6-1.7c0.4-0.5,0.9-0.7,1.6-0.7c0.5,0,0.9,0.1,1.2,0.4c0.3,0.2,0.5,0.6,0.6,1.1h-0.3c-0.1-0.4-0.3-0.7-0.5-0.9
		c-0.3-0.2-0.6-0.3-1-0.3c-0.6,0-1,0.2-1.4,0.6S31.7,56.3,31.7,57L31.7,57z M39.5,57.6c0,0.5-0.1,0.9-0.4,1.3
		c-0.3,0.3-0.6,0.5-1.1,0.5c-0.5,0-0.8-0.2-1.1-0.5c-0.3-0.3-0.4-0.7-0.4-1.2c0-0.5,0.1-0.9,0.4-1.3c0.3-0.3,0.6-0.5,1.1-0.5
		c0.5,0,0.8,0.2,1.1,0.5C39.4,56.7,39.5,57.1,39.5,57.6L39.5,57.6z M39.3,57.6c0-0.4-0.1-0.8-0.3-1.1c-0.2-0.3-0.5-0.4-0.9-0.4
		s-0.7,0.1-0.9,0.4c-0.2,0.3-0.3,0.6-0.3,1.1s0.1,0.8,0.3,1.1c0.2,0.3,0.5,0.4,0.9,0.4s0.7-0.1,0.9-0.4C39.1,58.4,39.3,58,39.3,57.6
		L39.3,57.6z M40.9,59.2h-0.2v-3.3h0.2v0.8c0.1-0.3,0.2-0.4,0.5-0.6c0.2-0.1,0.5-0.2,0.7-0.2h0.1v0.2h-0.1c-0.3,0-0.6,0.1-0.9,0.4
		c-0.2,0.2-0.3,0.5-0.3,0.9V59.2L40.9,59.2z M43.2,58.5v1.9H43v-4.5h0.2v0.8c0.1-0.3,0.2-0.5,0.5-0.6c0.2-0.2,0.5-0.2,0.8-0.2
		c0.4,0,0.8,0.2,1.1,0.5s0.4,0.7,0.4,1.2c0,0.5-0.1,1-0.4,1.3c-0.3,0.3-0.6,0.5-1.1,0.5c-0.3,0-0.6-0.1-0.8-0.2
		C43.5,59,43.3,58.8,43.2,58.5L43.2,58.5z M43.2,57.6c0,1,0.4,1.5,1.2,1.5c0.4,0,0.7-0.1,0.9-0.4c0.2-0.3,0.3-0.6,0.3-1.1
		c0-0.5-0.1-0.8-0.3-1.1c-0.2-0.3-0.5-0.4-0.9-0.4c-0.4,0-0.7,0.1-0.9,0.4C43.3,56.8,43.2,57.1,43.2,57.6L43.2,57.6z M49.9,57.6
		c0,0.5-0.1,0.9-0.4,1.3s-0.6,0.5-1.1,0.5c-0.5,0-0.8-0.2-1.1-0.5c-0.3-0.3-0.4-0.7-0.4-1.2c0-0.5,0.1-0.9,0.4-1.3
		c0.3-0.3,0.6-0.5,1.1-0.5c0.5,0,0.8,0.2,1.1,0.5C49.7,56.7,49.9,57.1,49.9,57.6L49.9,57.6z M49.6,57.6c0-0.4-0.1-0.8-0.3-1.1
		c-0.2-0.3-0.5-0.4-0.9-0.4s-0.7,0.1-0.9,0.4c-0.2,0.3-0.3,0.6-0.3,1.1s0.1,0.8,0.3,1.1s0.5,0.4,0.9,0.4s0.7-0.1,0.9-0.4
		C49.5,58.4,49.6,58,49.6,57.6L49.6,57.6z M51.2,59.2H51v-3.3h0.2v0.8c0.1-0.3,0.2-0.4,0.5-0.6c0.2-0.1,0.5-0.2,0.7-0.2h0.1v0.2
		h-0.1c-0.3,0-0.6,0.1-0.9,0.4c-0.2,0.2-0.3,0.5-0.3,0.9L51.2,59.2L51.2,59.2z M55.5,57.9v-0.6c-0.1,0.2-0.4,0.2-0.9,0.2
		c-0.4,0-0.7,0.1-0.9,0.2c-0.2,0.1-0.3,0.3-0.3,0.6c0,0.2,0.1,0.4,0.2,0.5c0.2,0.1,0.4,0.2,0.6,0.2c0.4,0,0.7-0.1,0.9-0.4
		C55.4,58.6,55.5,58.3,55.5,57.9L55.5,57.9z M55.5,58.6c-0.1,0.3-0.3,0.4-0.5,0.6c-0.2,0.1-0.5,0.2-0.8,0.2c-0.4,0-0.6-0.1-0.8-0.2
		c-0.2-0.2-0.3-0.4-0.3-0.7c0-0.7,0.5-1,1.4-1c0.2,0,0.4,0,0.5-0.1c0.3-0.1,0.4-0.2,0.4-0.5c0-0.2-0.1-0.4-0.3-0.6
		c-0.2-0.1-0.4-0.2-0.7-0.2c-0.3,0-0.6,0.1-0.7,0.3c-0.2,0.2-0.3,0.4-0.3,0.6h-0.2c0-0.3,0.1-0.6,0.3-0.8c0.2-0.2,0.5-0.3,1-0.3
		c0.8,0,1.1,0.3,1.1,1v1.9c0,0.2,0.1,0.3,0.2,0.3l0.2,0v0.2l-0.2,0c-0.3,0-0.4-0.1-0.4-0.4L55.5,58.6L55.5,58.6z M57.5,58.5
		c0,0.2,0,0.4,0.1,0.4s0.2,0.1,0.4,0.1h0.2v0.2l-0.2,0c-0.3,0-0.5-0.1-0.6-0.2c-0.1-0.1-0.2-0.3-0.2-0.6v-2.4h-0.6v-0.2h0.6v-1h0.2
		v1h0.7v0.2h-0.7L57.5,58.5L57.5,58.5z M59.3,55.3v-0.7h0.2v0.7H59.3L59.3,55.3z M59.5,59.2h-0.2v-3.3h0.2V59.2L59.5,59.2z
		 M63.7,57.6c0,0.5-0.1,0.9-0.4,1.3s-0.6,0.5-1.1,0.5c-0.5,0-0.8-0.2-1.1-0.5c-0.3-0.3-0.4-0.7-0.4-1.2c0-0.5,0.1-0.9,0.4-1.3
		c0.3-0.3,0.6-0.5,1.1-0.5c0.5,0,0.8,0.2,1.1,0.5C63.6,56.7,63.7,57.1,63.7,57.6L63.7,57.6z M63.5,57.6c0-0.4-0.1-0.8-0.3-1.1
		c-0.2-0.3-0.5-0.4-0.9-0.4s-0.7,0.1-0.9,0.4c-0.2,0.3-0.3,0.6-0.3,1.1s0.1,0.8,0.3,1.1c0.2,0.3,0.5,0.4,0.9,0.4s0.7-0.1,0.9-0.4
		S63.5,58,63.5,57.6L63.5,57.6z M67.4,59.2h-0.2v-2.1c0-0.7-0.3-1-0.9-1c-0.4,0-0.6,0.1-0.9,0.4s-0.3,0.6-0.3,1v1.8h-0.2V56h0.2v0.7
		c0.1-0.2,0.2-0.4,0.4-0.6c0.2-0.2,0.5-0.2,0.7-0.2c0.4,0,0.7,0.1,0.9,0.3c0.2,0.2,0.3,0.5,0.3,0.9L67.4,59.2L67.4,59.2z M70.8,54.7
		V59h2.6v0.2h-2.9v-4.6H70.8L70.8,54.7z M74.2,55.3v-0.7h0.2v0.7H74.2L74.2,55.3z M74.5,59.2h-0.2v-3.3h0.2V59.2L74.5,59.2z
		 M80.2,59.2h-0.2V57c0-0.3-0.1-0.5-0.2-0.6c-0.1-0.2-0.3-0.2-0.6-0.2c-0.3,0-0.6,0.1-0.8,0.3c-0.2,0.2-0.3,0.5-0.3,0.9v1.9h-0.2V57
		c0-0.3-0.1-0.5-0.2-0.6c-0.1-0.2-0.3-0.2-0.6-0.2c-0.3,0-0.5,0.1-0.7,0.3c-0.2,0.2-0.3,0.5-0.3,0.8v2h-0.2V56H76v0.7
		c0-0.2,0.2-0.4,0.4-0.6c0.2-0.2,0.4-0.2,0.7-0.2c0.3,0,0.5,0.1,0.7,0.2c0.2,0.1,0.3,0.3,0.3,0.5c0.1-0.2,0.2-0.4,0.4-0.5
		c0.2-0.1,0.4-0.2,0.6-0.2c0.3,0,0.6,0.1,0.8,0.3s0.3,0.5,0.3,0.8L80.2,59.2L80.2,59.2z M81.5,55.3v-0.7h0.2v0.7H81.5L81.5,55.3z
		 M81.7,59.2h-0.2v-3.3h0.2V59.2L81.7,59.2z M83.5,58.5c0,0.2,0,0.4,0.1,0.4c0.1,0.1,0.2,0.1,0.4,0.1h0.2v0.2l-0.2,0
		c-0.3,0-0.5-0.1-0.6-0.2s-0.2-0.3-0.2-0.6v-2.4h-0.6v-0.2h0.6v-1h0.2v1h0.7v0.2h-0.7L83.5,58.5L83.5,58.5z M88,58.1
		c-0.1,0.4-0.2,0.7-0.5,0.9c-0.2,0.2-0.6,0.3-1,0.3c-0.5,0-0.8-0.2-1.1-0.5s-0.4-0.7-0.4-1.3c0-0.5,0.1-0.9,0.4-1.2s0.6-0.5,1.1-0.5
		c0.4,0,0.8,0.2,1.1,0.5c0.3,0.3,0.4,0.7,0.4,1.1v0.1h-2.7c0,0.4,0.1,0.8,0.3,1.1c0.2,0.3,0.5,0.4,0.9,0.4c0.3,0,0.6-0.1,0.8-0.3
		c0.2-0.2,0.3-0.4,0.4-0.7L88,58.1L88,58.1z M85.3,57.4h2.4c0-0.4-0.1-0.7-0.4-1c-0.2-0.3-0.5-0.4-0.9-0.4c-0.4,0-0.6,0.1-0.9,0.4
		C85.5,56.8,85.4,57.1,85.3,57.4L85.3,57.4z M91.6,58.5c-0.1,0.3-0.3,0.5-0.5,0.6c-0.2,0.1-0.5,0.2-0.7,0.2c-0.5,0-0.8-0.2-1.1-0.5
		c-0.3-0.3-0.4-0.7-0.4-1.3c0-0.5,0.1-1,0.4-1.3c0.3-0.3,0.6-0.5,1.1-0.5c0.3,0,0.5,0.1,0.8,0.2c0.2,0.1,0.4,0.4,0.5,0.6v-2.1h0.2
		v4.6h-0.2L91.6,58.5L91.6,58.5z M91.6,57.6c0-0.5-0.1-0.8-0.3-1.1c-0.2-0.3-0.5-0.4-0.9-0.4c-0.4,0-0.7,0.1-0.9,0.4
		c-0.2,0.3-0.3,0.6-0.3,1.1c0,0.5,0.1,0.8,0.3,1.1s0.5,0.4,0.9,0.4c0.4,0,0.7-0.1,0.9-0.4C91.5,58.4,91.6,58.1,91.6,57.6z"/>
</g>
</svg>
