<?xml version="1.0" encoding="utf-8"?>
<!-- Generator: Adobe Illustrator 19.0.0, SVG Export Plug-In . SVG Version: 6.00 Build 0)  -->
<svg version="1.1" id="Layer_1" xmlns="http://www.w3.org/2000/svg" xmlns:xlink="http://www.w3.org/1999/xlink" x="0px" y="0px"
	 viewBox="0 0 102 102" style="enable-background:new 0 0 102 102;" xml:space="preserve">
<style type="text/css">
	.st0{fill:#FFFFFF;}
</style>
<g>
	<path class="st0" d="M97,27l-0.7-0.6c-2.6-2-3-2.8-3-4.1c0-1.6,1.1-2.6,2.8-2.6c2.1,0,2.8,0.9,2.9,1.2c0.1,0.2,0.3,0.8,0.3,1.2
		c0,0.2,0.1,0.7,0.6,0.7c0.6,0,0.6-0.7,0.6-1c0-1.4,0.1-2.2,0.1-2.6c0-0.1,0-0.2,0-0.2c0-0.1,0-0.6-0.7-0.6c-0.2,0-0.3,0-0.8-0.1
		c-0.8-0.2-1.6-0.3-2.5-0.3c-3.5,0-5.9,2.1-5.9,5.2c0,1.9,0.6,3.6,3.6,6l1.2,1c2.3,1.9,2.9,2.8,2.9,4.4c0,1.5-1.1,3.1-3.3,3.1
		c-0.9,0-3.1-0.2-3.5-2.4c-0.1-0.3-0.1-0.7-0.1-0.9c0-0.6-0.4-0.7-0.6-0.7c-0.4,0-0.6,0.3-0.6,0.8c0,0.1,0,0.2,0,0.3
		c0,0.5-0.1,1.4-0.1,2.5c0,0.7,0,1.1,0.6,1.4c1,0.5,2.3,0.8,3.7,0.8c1.6,0,3.1-0.4,4.2-1.2c1.8-1.3,2.4-3.3,2.4-4.7
		C101,31,99.9,29.3,97,27z"/>
	<g>
		<g>
			<path class="st0" d="M95.4,41.8c0.6,3,1,6.1,1,9.2c0,7.8-2,15.2-5.8,21.8c0.1,0.7,0.2,1.4,0.2,2.2c0,1-0.1,2-0.3,3
				c5.4-7.6,8.6-16.9,8.6-27c0-3.4-0.4-6.6-1-9.8C97.2,41.5,96.3,41.7,95.4,41.8z"/>
			<path class="st0" d="M11.9,31c0,0.7,0,2.5,0.1,3.7c2.2-5.4,5.4-10.4,9.7-14.7c8.3-8.3,19.3-12.8,31-12.8c9.5,0,18.6,3,26.1,8.7
				c1.8,0,3.5,0,4.3,0C74.9,8.8,64.2,4.5,52.6,4.5c-17.5,0-32.8,9.7-40.7,24.1V31z"/>
		</g>
		<path class="st0" d="M17.7,39c0.8,0,1.8,0,2.4-0.1c0.3,0,0.5,0,0.6,0c0.1,0,0.4,0,0.7,0c0.5,0,1,0.1,1.4,0.1
			c0.8,0,0.8-0.5,0.8-0.6c0-0.3-0.2-0.6-0.7-0.6h-0.3c-0.2,0-0.6-0.1-0.6-0.3c0-0.4,0.1-1,0.3-1.6l1.6-4.6h5.4l2.4,6.4
			c0,0.1,0,0.2,0,0.2c-0.3,0.1-0.4,0.4-0.4,0.6c0,0.5,0.6,0.6,1.1,0.6l0.1,0c1.2,0,2.6,0.1,4.1,0.1c0.9,0,0.9-0.4,0.9-0.6
			c0-0.1,0-0.6-0.7-0.6c-0.2,0-0.6,0-0.9-0.1c-0.3-0.1-1-0.3-2-2.7c-1.1-2.9-3.6-9.2-5-13c-0.6-1.5-1-2.6-1.1-2.9
			c-0.3-0.7-0.5-1.2-1-1.2c-0.5,0-0.7,0.5-1,1.3l-6,16.3c-0.5,1.3-0.9,2.1-1.9,2.2c-0.2,0-0.6,0-0.7,0c-0.2,0-0.3,0.1-0.4,0.1
			c0.2-0.8,0.4-2.3,0.4-2.6c0-0.2,0-0.8-0.6-0.8c-0.2,0-0.6,0.1-0.7,0.7c-0.1,0.5-0.3,1-0.6,1.4c-0.5,0.6-1.5,0.6-2.9,0.6
			c-2,0-2.6-0.2-2.9-0.5c-0.4-0.4-0.5-3.1-0.5-5.7v-4.7c0-4.1,0-4.8,0.1-5.7c0.1-0.9,0.2-1,0.7-1.1c0.3-0.1,0.6-0.1,0.8-0.1
			c0.4,0,0.6-0.2,0.6-0.6c0-0.2-0.1-0.6-0.8-0.6c-0.6,0-1.7,0-2.4,0.1c-0.3,0-0.4,0-0.5,0c0,0-0.2,0-0.3,0c-0.6,0-1.7-0.1-2.6-0.1
			c-0.7,0-0.8,0.4-0.8,0.6c0,0.3,0.3,0.6,0.6,0.6c0.2,0,0.6,0,0.8,0.1c0.6,0.1,0.8,0.3,0.8,1.1c0.1,0.8,0.1,1.6,0.1,5.7V31
			c0,2.5,0,4.6-0.1,5.7c-0.1,0.8-0.2,1-0.4,1.1c-0.3,0.1-0.5,0.1-0.7,0.1c-0.4,0-0.6,0.3-0.6,0.6c0,0.2,0.1,0.6,0.8,0.6
			c0.4,0,1,0,1.5-0.1c0.4,0,0.7,0,0.9,0c0.1,0,0.1,0,0.2,0c0.7,0,1.5,0,2.7,0.1c0.2,0,0.5,0,0.8,0c0.9,0,2.1,0.1,3.6,0.1
			c1.1,0,1.6-0.1,1.9-0.6C16.9,38.8,17.1,39,17.7,39z M24.6,29.5l2-6.1l2.2,6.1H24.6z"/>
		<path class="st0" d="M39,19.5c0.2,0,0.6,0,0.8,0.1c0.6,0.1,0.8,0.3,0.8,1.1c0.1,0.8,0.1,1.6,0.1,5.7V31c0,2.5,0,4.6-0.1,5.7
			c-0.1,0.8-0.2,1-0.4,1.1c-0.3,0.1-0.5,0.1-0.7,0.1c-0.4,0-0.6,0.3-0.6,0.6c0,0.2,0.1,0.6,0.8,0.6c0.2,0,0.4,0,0.7,0
			c0.3,0,0.6,0,0.9,0c0.5,0,0.9,0,1,0c0.1,0,0.4,0,0.7,0c0.4,0,0.9,0.1,1.5,0.1c1.5,0.1,2.8,0.2,3.7,0.2c3.4,0,6.3-1.1,8.3-3.2
			c1.9-2,3-4.8,3-7.7c0-3.5-1.5-5.7-2.7-7c-2.7-2.8-6.4-3.1-9.8-3.1c-0.2,0-0.4,0-0.6,0l-0.5,0c-1.1,0-2.2,0-2.9,0.1
			c-0.3,0-0.5,0-0.6,0c0,0-0.2,0-0.3,0c-0.6,0-1.7-0.1-2.6-0.1c-0.7,0-0.8,0.4-0.8,0.6C38.3,19.2,38.6,19.5,39,19.5z M48.1,37.5
			c-3.1,0-3.9-0.5-4.1-0.9c-0.1-0.1-0.2-0.4-0.2-1.8c0-0.5-0.1-2.9-0.1-5.7v-3.3c0-2,0-4.7,0-5.6c0-0.1,0-0.1,0-0.1c0,0,0,0,0.1,0
			c0.2-0.1,1-0.1,1.5-0.1c3.4,0,6.1,0.5,8.3,2.8c0.9,0.9,2.4,3,2.4,6.3c0,2.5-0.8,4.8-2,6C52.5,36.7,50.4,37.5,48.1,37.5z"/>
		<path class="st0" d="M63.1,19.5c0.2,0,0.5,0,0.7,0.1c0.3,0.1,0.5,0.2,0.6,1.1c0.1,0.8,0.1,1.6,0.1,5.7V31c0,2.5,0,4.6-0.1,5.7
			c-0.1,0.8-0.2,1-0.4,1.1c-0.3,0.1-0.5,0.1-0.7,0.1c-0.4,0-0.6,0.3-0.6,0.6c0,0.2,0.1,0.6,0.8,0.6c0.6,0,1.6,0,2.2-0.1
			c0.2,0,0.4,0,0.4,0c0,0,0.1,0,0.3,0c0.6,0,1.8,0.1,2.9,0.1c0.8,0,0.8-0.5,0.8-0.6c0-0.3-0.2-0.6-0.6-0.6c-0.2,0-0.8,0-1.1-0.1
			c-0.4-0.1-0.6-0.2-0.7-1.1c-0.1-1.1-0.1-3.2-0.1-5.7v-4.6c0-4.1,0-4.8,0.1-5.7c0.1-0.9,0.2-1,0.6-1.1c0.3-0.1,0.4-0.1,0.6-0.1
			c0.4,0,0.6-0.2,0.6-0.6c0-0.2-0.1-0.6-0.8-0.6c-0.6,0-1.6,0-2.2,0.1c-0.2,0-0.4,0-0.4,0c0,0-0.2,0-0.4,0c-0.6,0-1.6-0.1-2.3-0.1
			c-0.7,0-0.8,0.4-0.8,0.6C62.5,19.2,62.8,19.5,63.1,19.5z"/>
		<path class="st0" d="M74.4,19.5c0.2,0,0.6,0,0.8,0.1c0.6,0.1,0.8,0.3,0.8,1.1c0.1,0.8,0.1,1.6,0.1,5.7V31c0,2.5,0,4.6-0.1,5.7
			c-0.1,0.8-0.2,1-0.4,1.1c-0.3,0.1-0.5,0.1-0.7,0.1c-0.4,0-0.6,0.3-0.6,0.6c0,0.2,0.1,0.6,0.8,0.6c0.2,0,0.4,0,0.7,0
			c0.3,0,0.6,0,0.9,0c0.5,0,0.9,0,1,0c0.4,0,0.9,0,2,0.1l0.6,0c0.9,0,2.2,0.1,3.9,0.1c1,0,1.6,0,1.8-1c0.1-0.6,0.4-2.4,0.4-2.6
			c0-0.7-0.3-0.8-0.6-0.8c-0.5,0-0.6,0.5-0.7,0.7c-0.2,1.1-0.5,1.4-0.9,1.6c-0.6,0.3-1.7,0.3-2.4,0.3c-2.5,0-2.6-0.3-2.6-1.8
			c0-0.4,0-2.1,0-3.3c0-0.5,0-0.9,0-1.2v-2.1c0.8,0,2.9,0.1,3.5,0.1c0.9,0.1,0.9,0.4,1,0.6c0.1,0.3,0.1,0.5,0.1,0.7
			c0,0.4,0.3,0.7,0.6,0.7c0.4,0,0.6-0.3,0.6-0.9c0-0.2,0.1-1.1,0.1-1.6c0-0.5,0.1-0.9,0.2-1.1c0-0.2,0.1-0.3,0.1-0.4
			c0-0.4-0.3-0.6-0.6-0.6c-0.3,0-0.5,0.2-0.7,0.4l0,0c-0.1,0.1-0.4,0.2-1,0.2c-0.4,0-2.2,0-3.9,0.1v-6.9c0.8,0,2.9,0,3.3,0.1
			c1.3,0.1,1.4,0.4,1.5,0.6c0.1,0.2,0.1,0.6,0.1,0.8c0,0.7,0.5,0.8,0.6,0.8c0.1,0,0.5-0.1,0.6-0.6c0-0.2,0.1-0.7,0.1-1.2
			c0-0.2,0-0.4,0-0.5c0-0.4,0.1-0.7,0.1-0.9c0-0.2,0.1-0.3,0.1-0.4c0-0.6-0.5-0.7-0.5-0.7c-0.2,0-0.3,0.1-0.4,0.1c0,0,0,0-0.1,0
			c-0.1,0-0.5,0.1-1,0.1c-0.5,0-4,0-6,0l-1.1-0.1c-0.6,0-1.3,0-1.9,0c-0.7,0-0.8,0.4-0.8,0.6C73.8,19.2,74,19.5,74.4,19.5z"/>
		<path class="st0" d="M36.3,61.4c0.6,0,0.8-0.5,1.4-2.2c0.5-1.3,1.3-3.8,2.1-6.3c0.8-2.3,1.6-4.8,2.1-6.2c0.4-1.1,0.7-1.9,1.2-2.1
			c0.2-0.1,0.6-0.1,0.7-0.1c0.4,0,0.6-0.3,0.6-0.7c0-0.1,0-0.6-0.7-0.6c-0.5,0-1.1,0-1.5,0c-0.2,0-0.3,0-0.4,0c-0.1,0-0.2,0-0.4,0
			c-0.4,0-1.2,0-2,0c-0.7,0-0.8,0.4-0.8,0.6c0,0.3,0.3,0.6,0.6,0.6c0.8,0,0.8,0.1,0.8,0.2c0,0.2,0,0.5-0.2,1.3
			c-0.7,2.3-2.1,6.9-3,9.6c-0.1,0.2-0.1,0.4-0.2,0.6l-4.2-11.5c-0.3-0.9-0.6-1.3-1-1.3c-0.5,0-0.7,0.4-1,1.3l-4.4,11.4
			c-0.7-2.5-2.4-8.2-2.7-9.4c-0.4-1.4-0.4-1.8-0.4-2c0,0,0-0.1,0-0.1l0.1,0c0.2-0.1,0.5-0.1,0.6-0.1c0.3,0,0.7-0.2,0.7-0.6
			c0-0.3-0.1-0.6-0.8-0.6c-0.8,0-1.6,0-2,0c-0.2,0-0.3,0-0.4,0c-0.1,0-0.2,0-0.5,0c-0.5,0-1.4,0-2.3,0c-0.6,0-0.8,0.3-0.8,0.6
			c0,0.4,0.3,0.6,0.6,0.6c0.2,0,0.7,0,0.9,0.1c0.4,0.1,0.6,0.2,0.9,1.4l4.1,13.3c0.5,1.5,0.7,2.1,1.3,2.1c0.6,0,0.8-0.5,1.2-1.4
			c0.4-1.1,1.5-3.7,2.4-6.3c0.7-1.9,1.4-3.7,1.9-4.9L35.2,60C35.5,60.7,35.8,61.4,36.3,61.4z"/>
		<path class="st0" d="M47.3,59L47.3,59c-0.1,0.7-0.2,0.8-0.3,0.8c-0.2,0.1-0.5,0.1-0.6,0.1c-0.4,0-0.6,0.3-0.6,0.6
			c0,0.1,0.1,0.6,0.8,0.6c0.5,0,1.4,0,1.9-0.1c0.2,0,0.4,0,0.4,0c0,0,0.1,0,0.2,0c0.5,0,1.6,0.1,2.6,0.1c0.8,0,0.8-0.5,0.8-0.6
			c0-0.3-0.2-0.6-0.6-0.6c-0.2,0-0.6,0-1-0.1c-0.3-0.1-0.4-0.1-0.5-0.8c-0.1-0.9-0.1-2.6-0.1-4.7v-1.9h9.1v1.9c0,2.1,0,3.8-0.1,4.7
			c-0.1,0.7-0.2,0.8-0.3,0.9c-0.2,0.1-0.4,0.1-0.6,0.1c-0.4,0-0.6,0.3-0.6,0.6c0,0.2,0.1,0.6,0.8,0.6c0.5,0,1.4,0,1.9-0.1
			c0.2,0,0.3,0,0.4,0c0,0,0.1,0,0.3,0c0.5,0,1.6,0.1,2.6,0.1c0.6,0,0.8-0.3,0.8-0.6c0-0.3-0.2-0.6-0.6-0.6c-0.2,0-0.7,0-1-0.1
			c-0.4-0.1-0.4-0.1-0.5-0.8c-0.1-1-0.1-3.1-0.1-4.8v-3.9c0-3.5,0-4.1,0.1-4.8c0.1-0.8,0.2-0.8,0.4-0.8c0.3,0,0.4,0,0.5,0
			c0.3,0,0.6-0.3,0.6-0.6c0-0.2-0.1-0.6-0.8-0.6c-0.5,0-1.3,0-1.9,0c-0.2,0-0.4,0-0.4,0c0,0-0.1,0-0.3,0c-0.5,0-1.6,0-2.3,0
			c-0.7,0-0.8,0.4-0.8,0.6c0,0.3,0.3,0.6,0.6,0.6c0.2,0,0.6,0,0.7,0c0.4,0.1,0.5,0.1,0.6,0.9c0,0.7,0.1,1.4,0.1,4.8v0.2h-9.1v-0.2
			c0-3.4,0-4.1,0-4.8c0.1-0.8,0.2-0.8,0.5-0.9c0.2,0,0.3,0,0.5,0c0.3,0,0.6-0.3,0.6-0.6c0-0.2-0.1-0.6-0.8-0.6c-0.5,0-1.4,0-1.9,0
			c-0.2,0-0.3,0-0.3,0c0,0-0.2,0-0.3,0c-0.5,0-1.5,0-2.3,0c-0.7,0-0.8,0.4-0.8,0.6c0,0.3,0.3,0.6,0.6,0.6c0.2,0,0.6,0,0.7,0
			c0.4,0.1,0.5,0.1,0.6,0.9c0.1,0.7,0.1,1.3,0.1,4.8v3.9C47.4,56.3,47.4,58.1,47.3,59z"/>
		<path class="st0" d="M76.3,43c-6.6,0-9.6,5.4-9.6,9.2c0,4.6,3.3,9.2,9.5,9.2c5.5,0,9.7-4.1,9.7-9.6C85.9,46.7,81.9,43,76.3,43z
			 M76.8,59.6c-4.1,0-6.9-3.2-6.9-8.1c0-4.3,2.3-6.9,6.2-6.9c3.2,0,6.5,2.4,6.5,7.8C82.7,59.1,78.2,59.6,76.8,59.6z"/>
	</g>
	<path class="st0" d="M30.1,81.2c-0.2,0-0.6,0.1-0.7,0.7c-0.1,0.5-0.3,1-0.6,1.4c-0.5,0.6-1.5,0.6-2.9,0.6c-2,0-2.6-0.2-2.9-0.5
		c-0.4-0.4-0.5-3.1-0.5-5.7V73c0-4.1,0-4.8,0.1-5.7c0.1-0.9,0.2-1,0.7-1.1c0.3-0.1,0.6-0.1,0.8-0.1c0.4,0,0.6-0.2,0.6-0.6
		c0-0.2-0.1-0.6-0.8-0.6c-0.6,0-1.7,0-2.4,0.1c-0.3,0-0.4,0-0.5,0c0,0-0.2,0-0.3,0c-0.6,0-1.7-0.1-2.6-0.1c-0.7,0-0.8,0.4-0.8,0.6
		c0,0.3,0.3,0.6,0.6,0.6c0.2,0,0.6,0,0.8,0.1c0.6,0.1,0.8,0.3,0.8,1.1c0.1,0.8,0.1,1.6,0.1,5.7v4.6c0,2.5,0,4.6-0.1,5.7
		c-0.1,0.8-0.2,1-0.4,1.1c-0.3,0.1-0.5,0.1-0.7,0.1c-0.4,0-0.6,0.3-0.6,0.6c0,0.2,0.1,0.6,0.8,0.6c0.4,0,1,0,1.5-0.1
		c0.4,0,0.7,0,0.9,0c0.1,0,0.1,0,0.2,0c0.7,0,1.5,0,2.7,0.1c0.2,0,0.5,0,0.8,0c0.9,0,2.1,0.1,3.6,0.1c1.4,0,1.8-0.1,2.1-1
		c0.2-0.8,0.4-2.4,0.4-2.7C30.7,81.8,30.7,81.2,30.1,81.2z"/>
	<path class="st0" d="M44.8,81.3c-0.5,0-0.6,0.5-0.7,0.7c-0.2,1.1-0.5,1.4-0.9,1.6c-0.6,0.3-1.7,0.3-2.4,0.3c-2.5,0-2.6-0.3-2.6-1.8
		c0-0.4,0-2.1,0-3.3c0-0.5,0-0.9,0-1.2v-2.1c0.8,0,2.9,0.1,3.5,0.1c0.9,0.1,0.9,0.4,1,0.6c0.1,0.3,0.1,0.5,0.1,0.7
		c0,0.4,0.3,0.7,0.6,0.7c0.4,0,0.6-0.3,0.6-0.9c0-0.2,0.1-1.1,0.1-1.6c0-0.5,0.1-0.9,0.2-1.1c0-0.2,0.1-0.3,0.1-0.4
		c0-0.4-0.3-0.6-0.6-0.6c-0.3,0-0.5,0.2-0.7,0.4l0,0c-0.1,0.1-0.4,0.2-1,0.2c-0.4,0-2.2,0-3.9,0.1v-6.9c0.8,0,2.9,0,3.3,0.1
		c1.3,0.1,1.4,0.4,1.5,0.6c0.1,0.2,0.1,0.6,0.1,0.8c0,0.7,0.5,0.8,0.6,0.8c0.1,0,0.5-0.1,0.6-0.6c0-0.2,0.1-0.7,0.1-1.2
		c0-0.2,0-0.4,0-0.5c0-0.4,0.1-0.7,0.1-0.9c0-0.2,0.1-0.3,0.1-0.4c0-0.6-0.5-0.7-0.5-0.7c-0.2,0-0.3,0.1-0.4,0.1c0,0,0,0-0.1,0
		c-0.2,0-0.5,0.1-1,0.1c-0.5,0-4,0-6,0L35.7,65c-0.6,0-1.3,0-1.9,0c-0.7,0-0.8,0.4-0.8,0.6c0,0.3,0.3,0.6,0.6,0.6
		c0.2,0,0.6,0,0.8,0.1c0.6,0.1,0.8,0.3,0.8,1.1c0.1,0.8,0.1,1.6,0.1,5.7v4.6c0,2.5,0,4.6-0.1,5.7c-0.1,0.8-0.2,1-0.4,1.1
		c-0.3,0.1-0.5,0.1-0.7,0.1c-0.4,0-0.6,0.3-0.6,0.6c0,0.2,0.1,0.6,0.8,0.6c0.2,0,0.4,0,0.7,0c0.3,0,0.6,0,0.9,0c0.5,0,0.9,0,1,0
		c0.4,0,1,0,2,0.1l0.6,0c0.9,0,2.2,0.1,3.9,0.1c1,0,1.6,0,1.8-1c0.1-0.6,0.4-2.4,0.4-2.6C45.4,81.4,45.1,81.3,44.8,81.3z"/>
	<path class="st0" d="M66.1,84.5c-0.2,0-0.6,0-0.9-0.1c-0.3-0.1-1-0.3-2-2.7c-1.1-2.9-3.6-9.2-5-13c-0.6-1.5-1-2.6-1.1-2.9
		c-0.3-0.7-0.5-1.2-1-1.2c-0.5,0-0.7,0.5-1,1.3l-6,16.3c-0.5,1.3-0.9,2.1-1.9,2.2c-0.2,0-0.6,0-0.7,0c-0.4,0-0.7,0.3-0.7,0.6
		c0,0.3,0.2,0.6,0.9,0.6c0.8,0,1.8,0,2.4-0.1c0.3,0,0.5,0,0.6,0c0.1,0,0.4,0,0.7,0c0.5,0,1,0.1,1.4,0.1c0.8,0,0.8-0.5,0.8-0.6
		c0-0.3-0.2-0.6-0.7-0.6h-0.3c-0.2,0-0.6-0.1-0.6-0.3c0-0.4,0.1-1,0.3-1.6l1.6-4.6h5.4l2.4,6.4c0,0.1,0,0.2,0,0.2
		c-0.3,0.1-0.4,0.4-0.4,0.6c0,0.5,0.6,0.6,1.1,0.6l0.1,0c1.2,0,2.6,0.1,4.1,0.1c0.9,0,0.9-0.4,0.9-0.6
		C66.8,84.9,66.7,84.5,66.1,84.5z M57.8,76.1h-4.2l2-6.1L57.8,76.1z"/>
	<path class="st0" d="M75.9,64.9c-0.2,0-0.4,0-0.6,0l-0.5,0c-1.1,0-2.2,0-2.9,0.1c-0.3,0-0.5,0-0.6,0c0,0-0.2,0-0.3,0
		c-0.6,0-1.7-0.1-2.6-0.1c-0.7,0-0.8,0.4-0.8,0.6c0,0.3,0.3,0.6,0.6,0.6c0.2,0,0.6,0,0.8,0.1c0.6,0.1,0.8,0.3,0.8,1.1
		c0.1,0.8,0.1,1.6,0.1,5.7v4.6c0,2.5,0,4.6-0.1,5.7c-0.1,0.8-0.2,1-0.4,1.1c-0.3,0.1-0.5,0.1-0.7,0.1c-0.4,0-0.6,0.3-0.6,0.6
		c0,0.2,0.1,0.6,0.8,0.6c0.2,0,0.4,0,0.7,0c0.3,0,0.6,0,0.9,0c0.5,0,0.9,0,1,0c0.1,0,0.4,0,0.7,0c0.4,0,0.9,0.1,1.5,0.1
		c1.5,0.1,2.7,0.2,3.7,0.2c3.4,0,6.3-1.1,8.3-3.2c1.9-2,3-4.8,3-7.7c0-3.5-1.5-5.7-2.7-7C82.9,65.3,79.2,64.9,75.9,64.9z M77.1,84.2
		c-3.1,0-3.9-0.5-4.1-0.9c-0.1-0.1-0.2-0.4-0.2-1.8c0-0.5-0.1-2.9-0.1-5.7v-3.3c0-2,0-4.7,0-5.6c0-0.1,0-0.1,0-0.1c0,0,0,0,0.1,0
		c0.2-0.1,1-0.1,1.5-0.1c3.4,0,6.1,0.5,8.3,2.8c0.9,0.9,2.4,3,2.4,6.3c0,2.5-0.8,4.8-2,6C81.6,83.3,79.4,84.2,77.1,84.2z"/>
	<path class="st0" d="M77.1,88.4c-0.5,0-1,0-1.6,0c-6.8,4.2-14.7,6.4-22.9,6.4c-8.2,0-16.2-2.6-23.2-7c-0.5,0.1-0.9,0.1-1.2,0.1
		c-1.5,0-2.7,0-3.7-0.1l-0.8,0c-0.6,0-1,0-1.4-0.1c-4.1,1.2-7.9,2.3-11.2,2.9c2.1-1.9,4.1-4.1,6.2-6.6v-7.1
		C11.8,69.5,8.8,60.3,8.8,51c0-3.3,0.4-6.5,1-9.6c-0.8,0-1.4-0.1-2-0.1l-0.1,0c-0.2,0-0.4,0-0.7,0c-0.6,3.1-1,6.3-1,9.6
		c0,11.2,4,21.5,10.6,29.5c-4.5,5.6-9.9,11-15.7,14.1c0,0,11.7-0.6,25.7-5.1c7.4,5,16.3,7.9,25.9,7.9c10.6,0,20.4-3.6,28.2-9.5
		C79.6,88.2,78.4,88.4,77.1,88.4z"/>
</g>
</svg>
