<?xml version="1.0" encoding="utf-8"?>
<!-- Generator: Adobe Illustrator 16.0.0, SVG Export Plug-In . SVG Version: 6.00 Build 0)  -->
<!DOCTYPE svg PUBLIC "-//W3C//DTD SVG 1.1//EN" "http://www.w3.org/Graphics/SVG/1.1/DTD/svg11.dtd">
<svg version="1.1" id="Layer_1" xmlns="http://www.w3.org/2000/svg" xmlns:xlink="http://www.w3.org/1999/xlink" x="0px" y="0px"
	 width="102px" height="102px" viewBox="0 0 102 102" enable-background="new 0 0 102 102" xml:space="preserve">
<g>
	<path fill-rule="evenodd" clip-rule="evenodd" d="M19.531,39.114l0.623,0.572c-1.869,3.24-4.279,6.125-5.985,9.637
		c-0.813,1.525-1.625,3.376-1.462,5.227c0.081,0.299,0.189,0.436,0.217,0.708c-0.054,0-0.108-0.054-0.217-0.082
		c-0.081-0.027-0.027-0.136-0.081-0.218l-0.271-0.136c-0.785-1.361-0.325-2.967,0.189-4.328c0.217-0.626,0.46-1.198,0.731-1.688
		c0.244-0.327,0.298-0.735,0.514-0.98c0.271-0.463,0.379-0.925,0.704-1.279c0.027-0.082,0-0.082-0.108-0.136
		c-0.082,0.054-0.108,0.082-0.163,0.218c-2.085,2.096-3.9,5.009-6.364,6.751c-0.189-0.082-0.298-0.218-0.487-0.218l-0.244-0.436
		c0.298-0.953,0.542-1.987,1.272-2.722l0.46-0.871l0.19-0.19l0.352-0.79l1.272-2.341c0-0.054,0-0.082-0.054-0.082
		c-2.085,2.015-3.98,4.329-6.066,6.37c-0.975,0.98-1.95,2.178-2.762,3.158l-0.677-0.49c0.948-1.688,2.708-3.049,4.063-4.573
		c0.054-0.027,0.081-0.082,0.189-0.109l2.654-2.94c1.165-1.034,2.356-2.205,3.25-3.375l0.271-0.19
		c0.677-0.871,1.517-1.606,1.95-2.586c0.298-0.408,0.46-0.844,0.677-1.307c0-0.136,0.054,0.164,0.108-0.027l0.244,0.218
		c0.325,0.272,0.189,0.708,0.054,0.98c-1.896,3.43-4.008,6.833-5.687,10.344l1.002-0.735c0.027-0.054,0.054-0.136,0.054-0.164
		l0.352-0.571l0.271-0.109c0-0.082,0.027-0.109,0.082-0.164c0.027-0.054,0.108,0,0.163,0c0.108-0.054,0.108-0.163,0.163-0.299
		c0.054-0.027,0.081,0,0.135-0.055l2.816-3.212c0-0.082-0.054-0.136,0.027-0.218c0.136-0.027,0.244-0.136,0.325-0.272l0.325-0.19
		l0.786-0.98c0.135-0.136,0.406-0.19,0.487-0.463c0.433-0.436,0.867-0.98,1.219-1.497c0.46-0.409,0.758-0.898,1.191-1.361
		c0.379-0.681,0.731-1.198,1.165-1.797H19.531L19.531,39.114z M55.413,43.605l0.244,0.109c0.65-0.082,1.3,0,1.977-0.109
		c0.487,0.109,0.948,0.327,0.921,0.817c-0.108,0.98-0.84,1.661-1.462,2.232c-0.515,0.463-1.138,0.79-1.571,1.143
		c-0.515,0.327-0.975,0.518-1.381,0.844c-0.189,0.163-0.352,0.163-0.406,0.381c0,0.055,0,0.109,0.054,0.109
		c1.002,0,2.031-0.408,3.033,0.082c0.271,0.3,0.65,0.817,0.487,1.389c0.163,0.054,0.217-0.19,0.325-0.272
		c0.758-0.327,1.517-0.381,2.356-0.681c1.733-0.082,2.6-1.715,4.306-1.66c0.271,0.19,0.542,0.462,0.542,0.816
		c-0.082,0.354-0.623,0.327-0.867,0.572c-0.135,0.054-0.217-0.055-0.271,0c-0.054,0.082-0.162,0.136-0.189,0.272
		c0.189,0.272,0.515,0.844,0.163,1.198c-0.731,0.789-1.3,1.579-1.571,2.477c0.271,0.109,0.623-0.109,0.839-0.299
		c0.054-0.027,0.108-0.109,0.136-0.136l0.813-0.327l0.731-0.463l0.623-0.272c0.163,0.027,0.19-0.136,0.298-0.191l0.433-0.245
		l0.163-0.218c0.027,0,0.135-0.027,0.163-0.027l1.435-0.817l0.704-0.626c0.352-0.19,0.813-0.327,1.083-0.79
		c0.054-0.109,0.054-0.136,0.054-0.136l0.731-0.354l0.46-0.436c0.162-0.055,0.352-0.082,0.487,0
		c0.163,0.354,0.596,0.871,0.406,1.388c-0.054,0.164-0.244,0.218-0.189,0.327c0,0.163-0.054,0.327-0.217,0.408
		c-0.081,0-0.163,0.055-0.217,0.055c0,0.082,0,0.163,0,0.218c0,0.109-0.054,0.109-0.108,0.163l-0.46,0.844
		c-0.135,0.109-0.217,0.245-0.244,0.462c-0.055,0-0.108,0-0.19,0c-0.135,0-0.135,0.136-0.135,0.218
		c-0.054,0.055-0.135,0.082-0.189,0.136c0,0.055-0.027,0.082-0.027,0.136c-0.027,0.082-0.108,0.082-0.189,0.082
		c-0.027,0.082-0.081,0.082-0.108,0.218c-0.054,0-0.054,0.082-0.135,0.109c-0.163,0.082-0.244,0.327-0.352,0.49
		c0,0.054,0,0.082,0.054,0.136c1.002,0.055,2.383-0.953,3.195,0.055c0.271,0.381,0.163,0.898,0.136,1.361
		c0.135,0.082,0.189-0.109,0.325-0.109l0.704-0.436c-0.135-0.245-0.46-0.708-0.244-1.035c0.135-0.299,0.217-0.436,0.325-0.653
		l0.46-0.408c0.081-0.245,0.298-0.463,0.542-0.544l0.244-0.327l0.379-0.3c0.081,0,0.163,0,0.217,0
		c0.027-0.027,0.081-0.082,0.081-0.136c0.162-0.109,0.379-0.245,0.677-0.272c0.136-0.245,0.406-0.408,0.623-0.653
		c0.271-0.055,0.406-0.218,0.65-0.327c0.027,0,0.135,0,0.162-0.027c0.081-0.027,0.081-0.109,0.136-0.19c0.027,0,0.108,0,0.162-0.055
		c0.189-0.19,0.406-0.436,0.84-0.327c0.352,0.218,0.568,0.381,0.568,0.79c0,0.082-0.027,0.191-0.027,0.191l-0.324,0.19
		c-0.055,0-0.136,0-0.189-0.082c-1.246,0.354-2.167,1.307-3.277,1.878l-1.435,1.416c0,0.055,0.054,0.109,0.135,0.136
		c1.489-0.708,2.871-1.77,4.063-2.995c0.108-0.136,0.324,0,0.46,0.055c0.163,0.163,0.244,0.544,0.108,0.762
		c-0.162,0.517-0.649,0.953-0.46,1.552c0.216,0.354,0.758,0.245,1.164,0.19l0.894-1.307c0.055,0,0.081-0.027,0.163-0.082
		l0.081-0.299c0.271-0.354,0.785-0.654,1.245-1.062c0.731-0.381,1.544-1.116,2.519-0.898c0.244,0.136,0.38,0.218,0.542,0.409
		l0.487-0.055c0.244,0.109,0.461,0.299,0.487,0.599c-0.243,1.225-1.381,1.77-1.76,2.858l0.947-0.327l0.813-0.626
		c0-0.027,0.081-0.136,0.108-0.218l1.083-0.898l0.353-0.191l0.677-0.599c0.569-0.708,0.515-1.824,1.408-2.478
		c0.325-0.19,0.596-0.408,0.813-0.653c0.055,0,0.081-0.054,0.136-0.054c0.298,0,0.379,0.327,0.515,0.544
		c-0.027,0.626-0.515,0.844-0.759,1.334c-0.054,0.054-0.081,0.082-0.081,0.082l-0.244,0.436c0,0.027,0,0.082,0.055,0.109
		c0.027,0.027,0.081,0.109,0.189,0.109l1.191-0.218c0.244,0.136,0.515,0.381,0.515,0.735c-0.081,0.3-0.217,0.626-0.434,0.735
		l-0.081,0.272c-0.325,0.218-0.487,0.626-0.704,0.953c-0.054,0.136-0.054,0.218,0,0.272c0.596,0.19,1.354-0.136,2.004-0.218
		c1.436-0.327,2.871-0.735,4.306-1.17c1.301-0.436,2.329-1.007,3.521-1.389l0.243,0.191c0.027,0.136-0.162,0.108-0.243,0.19
		c-0.055,0-0.055,0.082-0.082,0.136l-0.271,0.027l-0.136,0.218l-0.298,0.19c0,0-0.027,0.082-0.081,0.082l-0.947,0.463
		c-0.055,0-0.163,0-0.217,0l-0.515,0.408l-0.786,0.272c-0.487,0-0.785,0.327-1.354,0.409c-1.11,0.299-2.193,0.844-3.358,0.953
		c-0.108,0-0.108,0.109-0.189,0.163l-0.947,0.164c-0.055,0-0.136,0-0.217,0c-0.055,0-0.136,0-0.217,0.027l-0.65-0.136
		c-0.379-0.218-0.514-0.762-0.487-1.252c0.136-0.599,0.487-1.007,0.678-1.442c-0.19-0.109-0.488-0.109-0.731-0.109
		c-0.189-0.108-0.487-0.108-0.731-0.136l-0.677,0.572c-0.298,0.462-0.948,0.735-1.3,1.17c-0.108,0.027-0.163,0.082-0.189,0.082
		c-0.189,0-0.217,0.218-0.325,0.327c-0.542,0.408-1.029,0.926-1.787,1.252c-0.027,0.027-0.027,0.109-0.108,0.163
		c-0.244,0.055-0.434,0.354-0.759,0.272c-0.135-0.082-0.217-0.164-0.325-0.164l-0.352-0.408v-0.626c0-0.109-0.136-0.164-0.244-0.109
		c-0.243,0.082-0.324,0.299-0.568,0.381c-0.677,0.027-1.138,0.871-1.868,0.599c-0.38-0.245-0.542-0.653-0.731-0.898l-1.11,0.436
		c-0.325-0.109-0.677-0.436-0.84-0.817c-0.026-0.109-0.054-0.19-0.054-0.272c-0.027-0.055-0.136-0.136-0.163-0.136l-1.489,0.898
		c-1.408,1.198-3.439,1.334-4.495,2.886l-0.921,0.98c-0.081,0.054-0.108,0.19-0.135,0.327l-1.029,0.871
		c-0.759,0.735-1.409,1.497-2.329,2.042c-0.244,0.082-0.352,0.272-0.569,0.354c-0.054,0.109-0.135,0.136-0.163,0.218l-1.083,0.681
		c-0.054,0.027-0.136-0.027-0.217,0c-0.135,0.027-0.189,0.245-0.352,0.245l-0.569,0.218c-0.081,0-0.081,0.109-0.081,0.163
		l-0.406,0.082c-0.189,0.217-0.596,0.435-0.975,0.435c-0.298,0.272-0.785,0.327-1.246,0.218c-0.108-0.082-0.135-0.218-0.189-0.381
		c1.435-2.369,3.927-3.484,5.985-5.145c0.46-0.218,0.813-0.463,1.3-0.599c0.352-0.272,0.813-0.381,1.138-0.708
		c0.108,0,0.189-0.082,0.244-0.027c0.569-0.354,1.164-0.708,1.462-1.388c0.054-0.354,0.216-0.518,0.216-0.79
		c0-0.136-0.081-0.136-0.162-0.218l-1.3,0.218c0,0.027-0.054,0.082-0.135,0.136c-0.515,0-0.786,0.544-1.327,0.327
		c-0.271-0.164-0.568-0.436-0.568-0.817c0.135-0.218,0.162-0.572,0.298-0.653c0.027-0.055,0.135-0.136,0.163-0.164l0.135-0.327
		c0.081-0.082,0.298-0.163,0.352-0.354c0-0.082,0.054-0.191,0.135-0.245c0.027-0.055,0.163,0.054,0.217,0.027
		c0.135-0.164,0-0.381,0.108-0.599c0.054-0.054,0.081-0.082,0.163-0.136c0.027-0.027,0.027-0.109,0.081-0.218
		c0.027-0.027,0.108-0.027,0.163-0.082l0.216-0.436l0.325-0.299c0.108-0.136,0.189-0.408,0.244-0.653
		c-0.081-0.136-0.244-0.3-0.434-0.3c-0.081,0-0.027,0.109-0.081,0.218l-1.327,0.817c-0.19,0.136-0.298,0.327-0.542,0.408
		c-0.054,0-0.135-0.054-0.216-0.054c-0.054,0.027-0.082,0.136-0.136,0.218c-0.054,0-0.135,0-0.216,0
		c-0.082,0-0.082,0.082-0.163,0.163l-0.325,0.218c0,0-0.027,0.082-0.081,0.109l-0.325,0.164c-0.027,0.027-0.027,0.082-0.027,0.163
		c-0.189,0.218-0.515,0.436-0.867,0.354c-0.027,0-0.081,0.055-0.108,0.082c-0.027,0.082,0.027,0.109,0.082,0.191l-0.867,0.462
		c-0.054,0.027-0.054,0.109-0.135,0.136c-0.082,0-0.054-0.109-0.136-0.136c-0.189,0.027-0.244,0.272-0.406,0.436l-1.138,0.626
		c-0.054,0.163-0.271,0.163-0.406,0.245c-0.027,0.082-0.081,0.109-0.163,0.19l-0.568,0.163l-0.542-0.163
		c-0.325-0.354-0.244-0.98-0.271-1.47c-0.921,0.109-1.95,1.035-2.844,1.579c-0.487,0.082-1.165,0.109-1.462-0.327
		c-0.162-0.354,0.027-0.599,0.054-0.926c0.217-0.381,0.596-0.599,0.867-1.007c0.217-0.082,0.298-0.218,0.487-0.299l0.921-0.925
		c0-0.027,0-0.082-0.054-0.109c-0.623-0.108-0.975,0.572-1.706,0.436c-0.082-0.055-0.163-0.109-0.271-0.109
		c-0.027,0-0.081,0.027-0.108,0.082c-1.138,2.287-3.71,3.866-5.66,5.717c-0.054,0.054-0.135,0.082-0.135,0.082
		c-0.65,0.79-1.706,1.361-2.573,2.396l-2.735,2.75l-0.487,0.572c-0.379,0.299-0.948,0.163-1.435,0.218l0.108-0.299
		c0.46-0.245,0.542-1.007,1.11-1.198c0.244-0.571,0.921-1.062,1.354-1.633c0.921-0.871,1.923-1.796,2.735-2.586
		c0.081-0.054,0.081-0.109,0.081-0.109c2.167-2.069,5.2-3.838,6.852-6.534c0-0.108,0-0.19,0-0.272c-0.487-0.381-1.165,0.136-1.787,0
		c-0.731,0-1.544,0.19-2.14,0.49c-0.298-0.054-0.542,0.082-0.813,0.109c-0.731,0.789-0.948,2.232-1.327,3.267
		c-0.108,0.572-0.325,1.007-0.46,1.497c-0.108,0.136-0.406,0.027-0.487-0.054c-0.271-0.626,0.189-1.198,0.298-1.852
		c0.244-0.544,0.352-1.279,0.596-1.742c0.135-0.816,0.677-1.307,0.785-2.069c0.731-1.77,1.842-3.103,2.41-5.009
		c-1.543,0.054-3.25,0.381-4.766,0.871c0,0.19,0.217,0.272,0.271,0.436c0,0,0,0.054,0,0.109l-1.652-0.218
		c-0.136-0.136,0.054-0.408,0.135-0.572c0.46-0.653,1.435-0.327,1.977-0.79c0.244-0.027,0.406-0.027,0.596,0
		c0.325-0.354,0.894-0.109,1.3-0.354c0.623-0.217,1.246-0.245,1.896-0.435L55.413,43.605L55.413,43.605z M54.979,44.613
		c0.786,0.027,1.652-0.082,2.438,0.245c0.082,0.327-0.379,0.544-0.542,0.79l-1.814,1.225l-0.731,0.408l-0.46,0.299
		c-0.108,0.027-0.136,0.136-0.217,0.218l-1.219,0.844l1.652-3.784L54.979,44.613L54.979,44.613z M19.667,47.58
		c0.46,0.164,0.813,0.653,0.975,1.198c-0.027,0.681-0.568,0.98-0.758,1.552c-0.108,0.109-0.108,0.19-0.189,0.3
		c-0.054,0.108-0.217,0.108-0.352,0.108c-0.054,0.082-0.108,0.109-0.108,0.218c-0.027,0.082-0.163,0.027-0.244,0.082l-0.135,0.272
		c-0.434,0.218-0.894,0.436-1.327,0.653c-0.325,0.218-0.46,0.544-0.92,0.463c-0.271-0.245-0.298-0.327-0.488-0.544
		c-0.027-0.136-0.027,0.136-0.081-0.027c-0.488,0.626-1.002,1.47-1.083,2.423c0.027,0.136,0.082,0.164,0.108,0.245
		c0.813,0.218,1.517-0.436,2.248-0.599l0.406-0.245c1.436-0.708,3.087-1.198,4.225-2.423l0.189-0.245
		c0.027-0.055,0.027-0.136,0-0.19l2.112-1.77c0.162-0.354,0.596-0.572,0.92-0.708c0.163,0,0.19,0,0.298,0.055
		c0.352,0.299,0.677,0.735,0.677,1.252c-0.081,0.436-0.433,0.626-0.433,0.98c-0.704,0.762-1.436,1.633-2.411,2.069
		c-0.054,0.054-0.054,0.136-0.135,0.19c-0.325,0-0.515,0.245-0.731,0.517c0,0.027-0.054,0.136-0.054,0.136
		c-0.108,0.163-0.406,0.027-0.569,0.163l-0.108,0.354c0.027,0.055,0.082,0.082,0.189,0.136l3.575-1.742l1.3-1.144
		c0.081-0.136,0.216-0.218,0.325-0.354c0.325-0.218,0.677-0.68,1.056-0.898c0.136-0.272,0.379-0.354,0.542-0.572
		c0.325-0.218,0.325-0.49,0.623-0.681l0.596,0.898l-1.814,2.532c0,0.027,0,0.082,0.054,0.109h0.298c0-0.027,0-0.082,0.082-0.164
		c0-0.027,0.108,0,0.162,0L29.09,51.8c0.271,0,0.515-0.164,0.65-0.408c0.054,0,0.082-0.082,0.163-0.082l0.325-0.381
		c0.677-0.109,0.948-0.871,1.598-1.144l0.569,0.599l0.108,0.354l-0.786,1.77l0.135,0.245c0.298,0.218,0.542-0.163,0.867-0.136
		c0.623-0.217,1.083-0.517,1.571-0.789c0.163-0.681,0.921-1.089,1.3-1.688c0.027-0.055,0.081-0.082,0.163-0.136
		c0.731-0.653,1.517-1.225,2.519-1.552c0.352,0.191,0.569,0.599,0.677,1.007c0,0.327-0.081,0.653-0.054,0.926
		c-0.027,0.109-0.108,0.027-0.244,0.109c-0.027,0-0.027,0.082-0.081,0.163c-0.082,0-0.135-0.027-0.217-0.136l-0.081-0.462
		c0-0.136-0.163-0.136-0.271-0.136c-0.758,0.436-1.462,0.98-2.085,1.661c-0.082,0-0.108,0.054-0.19,0.109l-0.46,0.735
		c0.027,0.027,0.027,0.055,0.108,0.082c0.867-0.408,1.733-1.252,2.41-2.014c0.325,0.082,0.434,0.436,0.569,0.653
		c0.189,0.708-0.271,1.198-0.433,1.851c0,0.054,0.054,0.136,0.081,0.19l1.625-0.436l2.979-1.361c0.081,0.054,0.054,0.19,0.027,0.272
		l-0.244,0.027c-0.054,0.054,0.081,0.136,0,0.19c-0.189,0.027-0.217,0.218-0.352,0.354l-0.352,0.136c0,0.054,0,0.082-0.081,0.136
		c-0.054,0.109-0.217,0.109-0.352,0.164c-0.082,0.082,0.054,0.109,0.108,0.218c-0.054,0.163-0.325,0.163-0.433,0.163
		c-0.65,0.3-1.3,0.653-1.923,1.062c-0.433,0.082-0.839,0.19-1.219,0c-0.514-0.245-0.379-0.898-0.731-1.225
		c-0.108-0.055-0.135,0.109-0.189,0.163l-0.894,0.49l-0.596,0.245c-0.081,0-0.054-0.136-0.135-0.164l-0.217,0.082l-0.46-0.163
		l-0.488-0.926c0,0-0.081,0.055-0.135,0.055c-0.027,0.027-0.108,0-0.189,0c-0.082,0-0.082,0.082-0.163,0.218
		c0,0.136-0.081-0.136-0.081,0.027c-0.353,0.272-0.731,0.49-1.165,0.653c-0.298,0-0.65,0-0.813-0.136l-0.189-0.218l-0.379-1.334
		c-0.054-0.109-0.217,0.027-0.298,0.082l-1.165,0.817c-0.975,0.408-1.543,1.579-2.708,1.334c-0.108-0.082-0.163-0.109-0.189-0.109
		l-0.244-0.953c-0.108-0.136-0.298,0.082-0.434,0.109c-0.433,0.544-1.191,0.735-1.814,1.198c-0.271-0.054-0.487,0.082-0.623,0.3
		c-0.488,0.027-0.786,0.517-1.354,0.354c-0.108,0-0.136,0.054-0.189,0.082c-0.542-0.136-0.759-0.681-0.948-1.225
		c0-0.463,0-0.871,0.054-1.307c-0.054-0.027-0.054-0.027-0.135-0.055c-0.786,0.327-1.354,1.116-2.329,1.28
		c-0.054,0.109-0.189,0.218-0.325,0.327c-0.054,0-0.136-0.055-0.217-0.027c-0.082,0.027-0.163,0.136-0.217,0.272l-1.272,0.654
		l-0.379,0.272c-0.487,0.055-1.083-0.027-1.327-0.408c-0.46-0.599-0.677-1.47-0.46-2.178c0.352-0.953,0.92-1.633,1.354-2.369
		l1.002-0.898c0.216-0.082,0.325-0.163,0.569-0.218l0.596-0.599c0.054-0.027,0.081-0.082,0.135-0.164
		C18.529,48.07,18.935,47.744,19.667,47.58L19.667,47.58z M19.802,48.587c0.027,0.027,0.081,0.027,0.108,0.027
		c0,0,0.054,0.054,0.108,0.082c-0.19,0.517-0.542,0.871-0.894,1.225c-0.46,0.327-0.894,0.653-1.408,0.953c-0.054,0-0.081,0-0.135,0
		l-1.219,0.653c0.515-1.034,1.76-2.042,2.708-2.667C19.341,48.724,19.558,48.615,19.802,48.587L19.802,48.587z M25.38,49.513v0.082
		l-0.975,1.198c-0.135,0.055-0.352,0.109-0.433,0.354l-0.921,0.49c0.434-0.735,1.408-1.688,2.248-2.15L25.38,49.513L25.38,49.513z
		 M100.882,49.513c0.027,0,0.081,0,0.108,0.027c0.054,0.082-0.136,0.136-0.217,0.082C100.746,49.541,100.827,49.513,100.882,49.513
		L100.882,49.513z M62.833,49.84v0.027l-1.029,1.307c-1.083,0.735-2.248,1.579-3.575,1.987l0.596-0.653l0.298-0.163l0.189-0.218
		c0.027-0.055,0.082-0.082,0.108-0.164c0.46-0.544,1.138-0.708,1.652-1.225C61.723,50.412,62.156,50.03,62.833,49.84L62.833,49.84z
		 M83.767,50.52h0.379c0.108,0.381-0.352,0.735-0.622,0.98c-0.244,0.218-0.488,0.436-0.65,0.708l-1.029,0.544l-0.189,0.19
		c-0.026,0.027-0.135-0.054-0.189-0.027l-0.975,0.381c0-0.653,0.623-0.871,0.975-1.361c0.271,0,0.379-0.3,0.542-0.518
		c0.054-0.027,0.135,0.055,0.189,0.027l0.839-0.599L83.767,50.52L83.767,50.52z M69.577,57.054
		c-0.352,0.544-1.056,1.144-1.463,1.661c-0.948,0.925-1.896,1.497-2.843,2.178c-0.839,0.463-1.625,0.898-2.573,1.252
		c0.054-0.055,0.054-0.136,0.135-0.136l0.217-0.354c0.786-0.517,1.246-1.279,2.167-1.661l1.083-1.034l2.383-1.361l0.921-0.572
		L69.577,57.054L69.577,57.054z"/>
	<path fill-rule="evenodd" clip-rule="evenodd" fill="#FFFFFF" d="M19.415,38.905l0.623,0.572c-1.869,3.24-4.279,6.125-5.985,9.637
		c-0.813,1.524-1.625,3.375-1.462,5.227c0.082,0.299,0.189,0.436,0.217,0.708c-0.054,0-0.108-0.054-0.217-0.082
		c-0.081-0.027-0.027-0.136-0.081-0.218l-0.271-0.136c-0.785-1.361-0.325-2.967,0.189-4.328c0.217-0.626,0.46-1.198,0.731-1.688
		c0.244-0.327,0.298-0.735,0.515-0.98c0.271-0.463,0.379-0.926,0.704-1.279c0.027-0.082,0-0.082-0.108-0.136
		c-0.082,0.054-0.108,0.082-0.163,0.218c-2.085,2.096-3.9,5.009-6.364,6.751c-0.189-0.082-0.298-0.218-0.487-0.218l-0.244-0.436
		c0.298-0.953,0.542-1.987,1.273-2.722l0.46-0.871l0.189-0.19l0.352-0.79l1.273-2.341c0-0.054,0-0.082-0.054-0.082
		c-2.085,2.015-3.981,4.328-6.066,6.37c-0.975,0.98-1.95,2.178-2.762,3.158L1,54.559c0.948-1.688,2.708-3.049,4.062-4.574
		c0.054-0.027,0.081-0.082,0.189-0.109l2.654-2.94c1.165-1.035,2.356-2.205,3.25-3.375l0.271-0.19
		c0.677-0.872,1.517-1.606,1.95-2.586c0.298-0.408,0.46-0.844,0.677-1.307c0-0.136,0.054,0.163,0.108-0.027l0.244,0.218
		c0.325,0.272,0.189,0.708,0.054,0.98c-1.896,3.43-4.008,6.833-5.687,10.345l1.002-0.735c0.027-0.055,0.054-0.136,0.054-0.164
		l0.352-0.571l0.271-0.109c0-0.082,0.027-0.108,0.081-0.163c0.027-0.055,0.108,0,0.163,0c0.108-0.055,0.108-0.164,0.163-0.299
		c0.054-0.027,0.081,0,0.135-0.055l2.816-3.212c0-0.082-0.054-0.136,0.027-0.218c0.136-0.027,0.244-0.136,0.325-0.272l0.325-0.19
		l0.785-0.98c0.135-0.136,0.406-0.191,0.487-0.463c0.434-0.436,0.867-0.98,1.219-1.498c0.46-0.408,0.758-0.898,1.191-1.361
		c0.379-0.681,0.731-1.198,1.165-1.797H19.415L19.415,38.905z M55.297,43.397l0.244,0.109c0.65-0.082,1.3,0,1.977-0.109
		c0.488,0.109,0.948,0.327,0.921,0.817c-0.108,0.98-0.84,1.661-1.462,2.232c-0.515,0.462-1.138,0.789-1.571,1.143
		c-0.515,0.327-0.975,0.517-1.381,0.844c-0.189,0.164-0.352,0.164-0.406,0.381c0,0.054,0,0.109,0.054,0.109
		c1.002,0,2.031-0.408,3.033,0.082c0.271,0.3,0.65,0.817,0.487,1.389c0.163,0.054,0.217-0.191,0.325-0.272
		c0.758-0.327,1.517-0.381,2.356-0.681c1.733-0.082,2.6-1.715,4.306-1.661c0.271,0.191,0.542,0.463,0.542,0.817
		c-0.082,0.354-0.623,0.327-0.867,0.572c-0.135,0.054-0.217-0.055-0.271,0c-0.054,0.082-0.163,0.136-0.189,0.272
		c0.189,0.272,0.515,0.844,0.163,1.198c-0.731,0.79-1.3,1.579-1.571,2.478c0.271,0.109,0.623-0.109,0.84-0.3
		c0.054-0.027,0.108-0.109,0.135-0.136l0.813-0.327l0.731-0.463l0.623-0.272c0.163,0.027,0.189-0.136,0.298-0.19l0.433-0.245
		l0.163-0.218c0.027,0,0.135-0.027,0.163-0.027l1.435-0.817l0.704-0.626c0.352-0.19,0.813-0.327,1.083-0.79
		c0.054-0.109,0.054-0.136,0.054-0.136l0.731-0.354l0.46-0.436c0.163-0.054,0.352-0.082,0.487,0
		c0.163,0.354,0.596,0.872,0.406,1.389c-0.054,0.163-0.244,0.218-0.189,0.327c0,0.163-0.054,0.327-0.217,0.408
		c-0.081,0-0.163,0.055-0.217,0.055c0,0.082,0,0.163,0,0.218c0,0.109-0.054,0.109-0.108,0.163l-0.46,0.844
		c-0.136,0.109-0.217,0.245-0.244,0.463c-0.054,0-0.108,0-0.19,0c-0.135,0-0.135,0.136-0.135,0.218
		c-0.054,0.055-0.135,0.082-0.189,0.136c0,0.054-0.027,0.082-0.027,0.136c-0.027,0.082-0.108,0.082-0.189,0.082
		c-0.027,0.082-0.081,0.082-0.108,0.218c-0.054,0-0.054,0.082-0.135,0.109c-0.163,0.082-0.244,0.327-0.352,0.49
		c0,0.054,0,0.082,0.054,0.136c1.002,0.055,2.383-0.953,3.196,0.055c0.271,0.381,0.162,0.898,0.135,1.361
		c0.135,0.082,0.189-0.109,0.325-0.109l0.704-0.436c-0.135-0.245-0.46-0.708-0.244-1.034c0.135-0.3,0.217-0.436,0.325-0.653
		l0.461-0.409c0.081-0.245,0.298-0.462,0.541-0.544l0.244-0.327l0.379-0.299c0.081,0,0.163,0,0.217,0
		c0.027-0.027,0.081-0.082,0.081-0.136c0.163-0.109,0.379-0.245,0.677-0.272c0.136-0.245,0.406-0.408,0.623-0.653
		c0.271-0.055,0.406-0.218,0.65-0.327c0.027,0,0.135,0,0.162-0.027c0.081-0.027,0.081-0.109,0.136-0.19c0.027,0,0.108,0,0.162-0.055
		c0.189-0.19,0.406-0.436,0.84-0.327c0.352,0.218,0.568,0.381,0.568,0.79c0,0.082-0.026,0.19-0.026,0.19l-0.325,0.191
		c-0.055,0-0.136,0-0.189-0.082c-1.246,0.354-2.167,1.307-3.277,1.878l-1.435,1.416c0,0.055,0.054,0.109,0.135,0.136
		c1.489-0.708,2.87-1.77,4.063-2.995c0.108-0.136,0.325,0,0.46,0.055c0.163,0.163,0.244,0.544,0.108,0.762
		c-0.162,0.517-0.649,0.953-0.46,1.552c0.217,0.354,0.758,0.245,1.164,0.19l0.894-1.307c0.055,0,0.081-0.027,0.163-0.082l0.081-0.3
		c0.271-0.354,0.785-0.653,1.245-1.062c0.731-0.381,1.544-1.116,2.519-0.898c0.244,0.136,0.38,0.218,0.542,0.408l0.487-0.054
		c0.244,0.109,0.461,0.299,0.487,0.599c-0.243,1.225-1.381,1.769-1.76,2.858l0.948-0.327l0.812-0.626
		c0-0.027,0.081-0.136,0.108-0.218l1.084-0.898l0.352-0.19l0.677-0.599c0.569-0.708,0.515-1.824,1.408-2.478
		c0.325-0.19,0.596-0.408,0.813-0.653c0.055,0,0.081-0.054,0.136-0.054c0.298,0,0.379,0.327,0.515,0.544
		c-0.027,0.626-0.515,0.844-0.759,1.333c-0.054,0.055-0.081,0.082-0.081,0.082l-0.243,0.436c0,0.027,0,0.082,0.054,0.109
		c0.027,0.027,0.081,0.109,0.189,0.109l1.191-0.218c0.244,0.136,0.515,0.381,0.515,0.735c-0.081,0.299-0.217,0.626-0.434,0.735
		l-0.081,0.272c-0.324,0.218-0.487,0.626-0.704,0.953c-0.054,0.136-0.054,0.218,0,0.272c0.596,0.19,1.354-0.136,2.004-0.218
		c1.436-0.327,2.871-0.735,4.307-1.171c1.3-0.436,2.328-1.007,3.52-1.388l0.244,0.19c0.027,0.136-0.162,0.109-0.244,0.191
		c-0.054,0-0.054,0.082-0.081,0.136l-0.271,0.027l-0.136,0.218l-0.298,0.19c0,0-0.027,0.082-0.081,0.082l-0.948,0.462
		c-0.054,0-0.162,0-0.216,0l-0.515,0.409l-0.785,0.272c-0.488,0-0.786,0.327-1.354,0.408c-1.11,0.3-2.193,0.844-3.358,0.953
		c-0.107,0-0.107,0.109-0.189,0.163l-0.947,0.164c-0.055,0-0.136,0-0.217,0c-0.054,0-0.136,0-0.217,0.027l-0.649-0.136
		c-0.38-0.218-0.515-0.762-0.488-1.252c0.136-0.599,0.488-1.007,0.678-1.443c-0.189-0.109-0.487-0.109-0.731-0.109
		c-0.189-0.109-0.487-0.109-0.731-0.136l-0.677,0.571c-0.298,0.463-0.948,0.735-1.3,1.171c-0.108,0.027-0.163,0.082-0.189,0.082
		c-0.189,0-0.217,0.218-0.325,0.327c-0.542,0.408-1.029,0.926-1.787,1.252c-0.027,0.027-0.027,0.109-0.108,0.163
		c-0.244,0.055-0.434,0.354-0.759,0.272c-0.135-0.082-0.217-0.164-0.324-0.164l-0.353-0.408v-0.626c0-0.109-0.136-0.164-0.244-0.109
		c-0.243,0.082-0.324,0.3-0.568,0.381c-0.677,0.027-1.138,0.871-1.868,0.599c-0.38-0.245-0.542-0.653-0.731-0.898l-1.11,0.436
		c-0.325-0.109-0.677-0.436-0.84-0.817c-0.026-0.109-0.054-0.19-0.054-0.272c-0.027-0.055-0.136-0.136-0.163-0.136l-1.489,0.898
		c-1.408,1.198-3.439,1.334-4.495,2.886l-0.921,0.98c-0.081,0.054-0.108,0.19-0.135,0.327l-1.029,0.871
		c-0.758,0.735-1.408,1.497-2.329,2.042c-0.244,0.082-0.353,0.272-0.569,0.354c-0.054,0.109-0.135,0.136-0.163,0.218l-1.083,0.68
		c-0.054,0.028-0.136-0.027-0.217,0c-0.135,0.028-0.189,0.245-0.352,0.245l-0.568,0.218c-0.082,0-0.082,0.109-0.082,0.164
		l-0.406,0.082c-0.189,0.218-0.596,0.436-0.975,0.436c-0.298,0.272-0.785,0.327-1.246,0.218c-0.108-0.082-0.135-0.218-0.189-0.381
		c1.435-2.369,3.927-3.485,5.985-5.145c0.46-0.218,0.813-0.463,1.3-0.599c0.352-0.272,0.813-0.381,1.137-0.708
		c0.108,0,0.19-0.082,0.244-0.027c0.568-0.354,1.165-0.708,1.462-1.389c0.054-0.354,0.216-0.517,0.216-0.789
		c0-0.136-0.081-0.136-0.163-0.218l-1.3,0.218c0,0.027-0.054,0.082-0.135,0.136c-0.515,0-0.785,0.544-1.327,0.327
		c-0.271-0.163-0.568-0.436-0.568-0.816c0.135-0.218,0.162-0.572,0.298-0.653c0.027-0.055,0.135-0.136,0.162-0.164l0.136-0.327
		c0.081-0.082,0.298-0.163,0.352-0.354c0-0.082,0.054-0.19,0.135-0.245c0.027-0.055,0.163,0.054,0.217,0.027
		c0.135-0.164,0-0.381,0.108-0.599c0.054-0.055,0.081-0.082,0.162-0.136c0.027-0.027,0.027-0.109,0.082-0.218
		c0.027-0.027,0.108-0.027,0.163-0.082l0.216-0.436l0.325-0.299c0.108-0.136,0.189-0.409,0.244-0.653
		c-0.081-0.136-0.244-0.3-0.433-0.3c-0.082,0-0.027,0.109-0.082,0.218l-1.327,0.817c-0.19,0.136-0.298,0.327-0.542,0.408
		c-0.055,0-0.136-0.054-0.217-0.054c-0.054,0.027-0.081,0.136-0.135,0.218c-0.054,0-0.136,0-0.217,0
		c-0.082,0-0.082,0.082-0.163,0.163l-0.325,0.218c0,0-0.027,0.082-0.081,0.109l-0.325,0.164c-0.027,0.027-0.027,0.082-0.027,0.163
		c-0.189,0.218-0.515,0.436-0.866,0.354c-0.027,0-0.082,0.054-0.109,0.082c-0.027,0.082,0.027,0.109,0.082,0.19l-0.867,0.463
		c-0.054,0.027-0.054,0.109-0.135,0.136c-0.082,0-0.054-0.109-0.136-0.136c-0.189,0.027-0.244,0.272-0.406,0.436l-1.138,0.626
		c-0.054,0.163-0.271,0.163-0.406,0.245c-0.027,0.082-0.081,0.109-0.163,0.191l-0.568,0.163l-0.542-0.163
		c-0.325-0.354-0.244-0.98-0.271-1.47c-0.921,0.109-1.95,1.035-2.844,1.579c-0.487,0.082-1.164,0.109-1.462-0.327
		c-0.162-0.354,0.027-0.599,0.055-0.926c0.216-0.381,0.596-0.599,0.866-1.007c0.217-0.082,0.298-0.218,0.488-0.299l0.92-0.926
		c0-0.027,0-0.082-0.054-0.109c-0.623-0.109-0.975,0.572-1.706,0.436c-0.081-0.054-0.163-0.109-0.271-0.109
		c-0.027,0-0.082,0.027-0.108,0.082c-1.138,2.287-3.71,3.865-5.66,5.717c-0.054,0.054-0.135,0.082-0.135,0.082
		c-0.65,0.79-1.706,1.361-2.573,2.396l-2.735,2.75l-0.488,0.572c-0.379,0.299-0.948,0.163-1.435,0.218l0.108-0.3
		c0.46-0.245,0.542-1.007,1.11-1.198c0.244-0.572,0.921-1.062,1.354-1.633c0.921-0.871,1.923-1.796,2.735-2.586
		c0.082-0.055,0.082-0.109,0.082-0.109c2.167-2.069,5.199-3.838,6.851-6.534c0-0.109,0-0.19,0-0.272
		c-0.487-0.381-1.164,0.136-1.787,0c-0.731,0-1.543,0.19-2.14,0.49c-0.298-0.054-0.542,0.082-0.812,0.109
		c-0.731,0.79-0.948,2.232-1.327,3.267c-0.108,0.571-0.325,1.007-0.46,1.497c-0.108,0.136-0.406,0.027-0.487-0.055
		c-0.271-0.626,0.189-1.198,0.298-1.851c0.244-0.544,0.352-1.279,0.596-1.742c0.135-0.816,0.677-1.307,0.785-2.069
		c0.731-1.77,1.842-3.104,2.411-5.009c-1.544,0.054-3.25,0.381-4.767,0.871c0,0.19,0.217,0.272,0.271,0.436c0,0,0,0.054,0,0.109
		l-1.652-0.218c-0.136-0.136,0.054-0.409,0.135-0.572c0.46-0.653,1.436-0.327,1.977-0.79c0.244-0.027,0.406-0.027,0.596,0
		c0.325-0.354,0.894-0.109,1.3-0.354c0.623-0.218,1.246-0.245,1.896-0.436L55.297,43.397L55.297,43.397z M54.864,44.404
		c0.785,0.027,1.652-0.082,2.437,0.245c0.082,0.327-0.379,0.544-0.542,0.79l-1.814,1.225l-0.731,0.408l-0.46,0.299
		c-0.108,0.027-0.135,0.136-0.217,0.218l-1.219,0.844l1.652-3.784L54.864,44.404L54.864,44.404z M19.55,47.372
		c0.46,0.164,0.813,0.653,0.975,1.198c-0.027,0.681-0.568,0.98-0.758,1.552c-0.108,0.109-0.108,0.19-0.189,0.299
		c-0.054,0.109-0.216,0.109-0.352,0.109c-0.054,0.082-0.108,0.109-0.108,0.218c-0.027,0.082-0.162,0.027-0.244,0.082l-0.135,0.272
		c-0.433,0.218-0.894,0.436-1.327,0.653c-0.325,0.218-0.46,0.544-0.92,0.463c-0.271-0.245-0.298-0.327-0.488-0.544
		c-0.027-0.136-0.027,0.136-0.081-0.027c-0.487,0.626-1.002,1.47-1.083,2.423c0.027,0.136,0.082,0.164,0.108,0.245
		c0.813,0.218,1.517-0.436,2.248-0.599l0.406-0.245c1.435-0.708,3.087-1.198,4.225-2.423l0.189-0.245
		c0.027-0.055,0.027-0.136,0-0.19l2.112-1.77c0.163-0.354,0.596-0.572,0.921-0.708c0.162,0,0.189,0,0.298,0.055
		c0.352,0.299,0.677,0.735,0.677,1.252c-0.081,0.436-0.433,0.626-0.433,0.98c-0.704,0.762-1.436,1.633-2.41,2.069
		c-0.054,0.055-0.054,0.136-0.136,0.191c-0.325,0-0.514,0.245-0.731,0.517c0,0.027-0.054,0.136-0.054,0.136
		c-0.108,0.163-0.406,0.027-0.569,0.163l-0.108,0.354c0.027,0.055,0.082,0.082,0.19,0.136l3.575-1.742l1.3-1.144
		c0.081-0.136,0.216-0.218,0.325-0.354c0.325-0.218,0.677-0.681,1.056-0.898c0.136-0.272,0.379-0.354,0.542-0.571
		c0.325-0.218,0.325-0.49,0.623-0.681l0.596,0.898l-1.814,2.532c0,0.027,0,0.082,0.054,0.109h0.298c0-0.027,0-0.082,0.082-0.164
		c0-0.027,0.108,0,0.162,0l0.406-0.381c0.271,0,0.515-0.164,0.65-0.409c0.055,0,0.082-0.082,0.163-0.082l0.325-0.381
		c0.677-0.109,0.948-0.872,1.598-1.144l0.569,0.599l0.108,0.354l-0.786,1.77l0.135,0.245c0.298,0.218,0.542-0.163,0.867-0.136
		c0.623-0.218,1.083-0.517,1.571-0.79c0.163-0.68,0.921-1.089,1.3-1.688c0.027-0.055,0.082-0.082,0.163-0.136
		c0.731-0.653,1.517-1.225,2.519-1.552c0.352,0.19,0.569,0.599,0.677,1.007c0,0.327-0.081,0.653-0.054,0.926
		c-0.027,0.109-0.108,0.027-0.244,0.109c-0.027,0-0.027,0.082-0.081,0.163c-0.081,0-0.135-0.027-0.217-0.136l-0.081-0.463
		c0-0.136-0.163-0.136-0.271-0.136c-0.758,0.436-1.462,0.98-2.085,1.661c-0.082,0-0.108,0.054-0.189,0.109l-0.46,0.735
		c0.027,0.027,0.027,0.054,0.108,0.082c0.867-0.408,1.733-1.252,2.411-2.014c0.325,0.082,0.433,0.436,0.568,0.653
		c0.19,0.708-0.271,1.198-0.433,1.851c0,0.054,0.054,0.136,0.081,0.19l1.625-0.436l2.979-1.361c0.081,0.055,0.054,0.191,0.027,0.272
		l-0.244,0.027c-0.054,0.054,0.082,0.136,0,0.19c-0.189,0.027-0.217,0.218-0.352,0.354l-0.352,0.136c0,0.055,0,0.082-0.081,0.136
		c-0.054,0.109-0.217,0.109-0.352,0.164c-0.082,0.082,0.054,0.109,0.108,0.218c-0.054,0.163-0.325,0.163-0.434,0.163
		c-0.65,0.3-1.3,0.653-1.923,1.062c-0.433,0.082-0.839,0.19-1.218,0c-0.515-0.245-0.379-0.898-0.731-1.225
		c-0.108-0.055-0.135,0.109-0.189,0.163l-0.894,0.49l-0.596,0.245c-0.081,0-0.054-0.136-0.135-0.164l-0.217,0.082l-0.46-0.163
		l-0.488-0.926c0,0-0.081,0.055-0.135,0.055c-0.027,0.027-0.108,0-0.189,0c-0.082,0-0.082,0.082-0.163,0.218
		c0,0.136-0.081-0.136-0.081,0.027c-0.352,0.272-0.731,0.49-1.165,0.654c-0.298,0-0.65,0-0.813-0.136l-0.189-0.218l-0.379-1.334
		c-0.054-0.109-0.216,0.027-0.298,0.082l-1.165,0.817c-0.975,0.408-1.543,1.579-2.708,1.334c-0.108-0.082-0.163-0.109-0.189-0.109
		l-0.244-0.953c-0.108-0.136-0.298,0.082-0.434,0.109c-0.433,0.544-1.191,0.735-1.814,1.198c-0.271-0.054-0.487,0.082-0.623,0.3
		c-0.487,0.027-0.785,0.517-1.354,0.354c-0.108,0-0.136,0.055-0.189,0.082c-0.542-0.136-0.758-0.681-0.948-1.225
		c0-0.463,0-0.871,0.054-1.307c-0.054-0.027-0.054-0.027-0.135-0.055c-0.785,0.327-1.354,1.116-2.329,1.28
		c-0.054,0.108-0.189,0.218-0.325,0.327c-0.054,0-0.136-0.055-0.217-0.027s-0.163,0.136-0.217,0.272l-1.272,0.653l-0.379,0.272
		c-0.487,0.054-1.083-0.027-1.327-0.408c-0.46-0.599-0.677-1.47-0.46-2.178c0.352-0.953,0.92-1.633,1.354-2.368l1.002-0.898
		c0.217-0.082,0.325-0.163,0.569-0.218l0.596-0.599c0.054-0.027,0.081-0.082,0.135-0.164C18.413,47.862,18.819,47.535,19.55,47.372
		L19.55,47.372z M19.686,48.379c0.027,0.027,0.081,0.027,0.108,0.027c0,0,0.054,0.054,0.108,0.082
		c-0.19,0.517-0.542,0.871-0.894,1.225c-0.46,0.327-0.894,0.653-1.408,0.953c-0.055,0-0.082,0-0.136,0l-1.218,0.653
		c0.514-1.034,1.76-2.042,2.708-2.667C19.225,48.515,19.442,48.406,19.686,48.379L19.686,48.379z M25.264,49.305v0.082l-0.975,1.198
		c-0.136,0.054-0.352,0.109-0.434,0.354l-0.921,0.49c0.434-0.735,1.408-1.688,2.248-2.15L25.264,49.305L25.264,49.305z
		 M100.766,49.305c0.027,0,0.081,0,0.108,0.027c0.055,0.082-0.136,0.136-0.217,0.082C100.631,49.332,100.712,49.305,100.766,49.305
		L100.766,49.305z M62.717,49.631v0.027l-1.029,1.307c-1.083,0.735-2.248,1.579-3.575,1.987l0.596-0.653l0.298-0.163l0.189-0.218
		c0.027-0.055,0.081-0.082,0.108-0.164c0.46-0.544,1.138-0.708,1.652-1.225C61.607,50.203,62.04,49.822,62.717,49.631L62.717,49.631
		z M83.65,50.312h0.38c0.107,0.381-0.353,0.735-0.623,0.98c-0.244,0.218-0.487,0.436-0.65,0.708l-1.029,0.544l-0.189,0.19
		c-0.027,0.027-0.135-0.054-0.189-0.027l-0.975,0.381c0-0.653,0.623-0.871,0.975-1.361c0.271,0,0.379-0.3,0.542-0.518
		c0.054-0.027,0.135,0.055,0.189,0.027l0.84-0.599L83.65,50.312L83.65,50.312z M69.46,56.845c-0.352,0.544-1.056,1.143-1.462,1.661
		c-0.948,0.925-1.896,1.497-2.844,2.178c-0.839,0.463-1.625,0.898-2.573,1.252c0.054-0.054,0.054-0.136,0.136-0.136l0.217-0.354
		c0.785-0.517,1.246-1.279,2.166-1.661l1.083-1.035l2.383-1.361l0.921-0.572L69.46,56.845L69.46,56.845z"/>
</g>
</svg>
