<?xml version="1.0" encoding="utf-8"?>
<!-- Generator: Adobe Illustrator 16.0.0, SVG Export Plug-In . SVG Version: 6.00 Build 0)  -->
<!DOCTYPE svg PUBLIC "-//W3C//DTD SVG 1.1//EN" "http://www.w3.org/Graphics/SVG/1.1/DTD/svg11.dtd">
<svg version="1.1" id="Layer_1" xmlns="http://www.w3.org/2000/svg" xmlns:xlink="http://www.w3.org/1999/xlink" x="0px" y="0px"
	 width="102px" height="102px" viewBox="0 0 102 102" enable-background="new 0 0 102 102" xml:space="preserve">
<g>
	<path fill="#FFFFFF" d="M42.323,65.366c0,0,0.305-0.534,0.763-0.534c0.42,0,0.802,0.343,0.802,0.763
		c0,0.344-0.344,0.916-0.344,0.916s-2.785,4.693-6.563,4.693c-2.633,0-5.418-2.136-5.418-5.265c0-3.777,2.175-10.073,4.197-14.805
		c-3.091,3.93-8.166,14.69-9.272,17.056c-0.725,1.603-2.938,3.014-3.548,3.014c-1.183,0-2.786-2.022-2.786-4.312
		s1.068-10.798,1.068-14.041c-2.061,6.753-5.647,18.353-11.332,18.353c-4.655,0-8.89-4.006-8.89-6.601
		c0-3.053,4.464-5.266,6.677-5.266c0.572,0,0.954,0.229,0.954,0.572c0,0.458-0.229,0.649-0.763,1.107
		c-0.839,0.648-2.403,2.327-2.403,4.35c0,1.641,1.221,2.786,2.67,2.786c4.312,0,12.057-16.217,12.057-20.948
		c0-0.916-0.572-1.717-1.984-1.717c-2.328,0-7.211,3.434-7.211,7.135c0,2.328,1.908,3.396,1.908,3.892
		c0,0.534-0.305,0.763-0.801,0.763c-2.061,0-6.066-2.29-6.066-5.304c0-4.731,7.326-8.775,12.896-8.775
		c2.404,0,6.715,2.098,6.715,6.524c0,4.96-0.954,13.622-0.954,15.529c1.145-1.793,5.838-12.019,10.836-18.696
		c1.87-2.518,4.77-3.09,7.517-3.09c0.763,0,1.106,0.152,1.106,0.534c0,0.229-0.267,0.611-0.954,1.374
		c-1.45,1.832-7.135,14.728-7.135,20.757c0,1.755,0.916,2.518,2.175,2.518C40.3,68.647,42.323,65.366,42.323,65.366z"/>
	<path fill="#FFFFFF" d="M47.89,68.647c2.061,0,4.083-3.281,4.083-3.281s0.305-0.534,0.763-0.534c0.419,0,0.801,0.343,0.801,0.763
		c0,0.344-0.343,0.916-0.343,0.916s-2.786,4.693-6.563,4.693c-2.9,0-4.846-1.717-4.846-4.197c0-2.747,2.061-8.242,2.977-10.378
		c0.19-0.42,0.572-0.725,1.03-0.725c1.145,0,3.014,1.603,3.014,2.175c0,2.29-2.137,5.418-2.137,9.12
		C46.669,68.075,47.127,68.647,47.89,68.647z M49.073,52.775c-1.106,0-2.061-0.802-2.061-2.175c0-1.946,1.526-3.854,3.205-3.854
		c1.107,0,1.946,0.839,1.946,2.099C52.164,50.867,50.714,52.775,49.073,52.775z"/>
	<path fill="#FFFFFF" d="M56.36,65.633c0,1.756,0.877,3.014,2.442,3.014c2.061,0,4.083-3.281,4.083-3.281s0.305-0.534,0.763-0.534
		c0.42,0,0.801,0.343,0.801,0.763c0,0.344-0.343,0.916-0.343,0.916s-2.785,4.693-6.563,4.693c-3.014,0-5.799-2.136-5.799-5.723
		c0-12.516,8.127-26.709,17.704-26.709c5.838,0,10.417,2.861,15.568,2.861c2.823,0,4.655-1.297,5.8-2.175
		c0.381-0.267,0.534-0.419,0.839-0.419c0.306,0,0.534,0.229,0.534,0.496s-0.115,0.496-0.305,0.801c-1.068,1.717-4.159,5.8-8.432,5.8
		c-4.159,0-8.7-5.151-14.194-5.151C63.152,40.984,56.36,55.293,56.36,65.633z M77.231,33.315c0,0.61-0.152,0.954-0.916,1.603
		c-1.603,1.373-4.388,2.06-5.571,2.06c-0.42,0-0.687-0.267-0.687-0.572s0.114-0.458,0.61-0.725c1.145-0.687,2.518-2.251,3.701-4.121
		c0.306-0.496,0.497-0.763,0.916-0.763C75.896,30.797,77.231,32.476,77.231,33.315z"/>
	<path fill="#FFFFFF" d="M68.455,68.647c2.06,0,4.083-3.281,4.083-3.281s0.305-0.534,0.763-0.534c0.419,0,0.801,0.343,0.801,0.763
		c0,0.344-0.343,0.916-0.343,0.916s-2.786,4.693-6.563,4.693c-2.9,0-4.846-1.717-4.846-4.197c0-2.747,2.06-8.242,2.976-10.378
		c0.191-0.42,0.572-0.725,1.03-0.725c1.145,0,3.014,1.603,3.014,2.175c0,2.29-2.137,5.418-2.137,9.12
		C67.234,68.075,67.692,68.647,68.455,68.647z M69.638,52.775c-1.106,0-2.061-0.802-2.061-2.175c0-1.946,1.526-3.854,3.205-3.854
		c1.107,0,1.946,0.839,1.946,2.099C72.729,50.867,71.278,52.775,69.638,52.775z"/>
	<path fill="#FFFFFF" d="M83.449,68.647c2.061,0,4.083-3.281,4.083-3.281s0.305-0.534,0.763-0.534c0.42,0,0.801,0.343,0.801,0.763
		c0,0.344-0.343,0.916-0.343,0.916s-2.786,4.693-6.563,4.693c-2.9,0-4.846-1.717-4.846-3.815c0-3.358,2.404-5.991,2.404-7.174
		c0-0.763-2.29-0.916-2.29-0.916c-1.45,3.701-2.899,6.029-3.701,7.211c-0.115,0.153-0.382,0.572-0.84,0.572
		c-0.381,0-0.801-0.419-0.801-0.801c0-0.344,0.305-0.725,0.419-0.916c0.687-0.992,2.213-3.205,3.319-6.792
		c0,0-1.259-0.916-1.259-2.824c0-1.564,1.297-2.824,2.213-2.824c1.068,0,2.366,1.221,2.366,1.984c0,0.992-0.496,1.603-0.496,2.213
		c0,0.534,0.687,0.801,1.603,0.801c1.717,0,2.251-0.496,3.167-0.496c0.916,0,1.564,0.839,1.564,1.832
		c0,1.717-2.824,4.96-2.824,8.051C82.19,68.189,82.686,68.647,83.449,68.647z"/>
	<path fill="#FFFFFF" d="M99.359,66.816c0,0,0.458-0.534,0.839-0.534c0.458,0,0.802,0.343,0.802,0.763
		c0,0.344-0.497,0.916-0.497,0.916s-2.518,3.243-6.639,3.243c-3.854,0-6.639-2.366-6.639-5.609c0-5.837,4.845-9.691,8.165-9.691
		c2.327,0,4.197,1.984,4.197,4.006c0,1.832-1.411,5.647-6.219,5.647c-0.419,0-1.45-0.229-1.45-0.229
		c0,2.251,1.565,3.396,3.396,3.396C97.642,68.724,98.825,67.312,99.359,66.816z M97.07,58.612c0-0.496-0.268-0.763-0.687-0.763
		c-2.099,0-4.274,3.93-4.274,5.914C94.895,63.763,97.07,60.215,97.07,58.612z"/>
</g>
</svg>
