<?xml version="1.0" encoding="utf-8"?>
<!-- Generator: Adobe Illustrator 16.0.0, SVG Export Plug-In . SVG Version: 6.00 Build 0)  -->
<!DOCTYPE svg PUBLIC "-//W3C//DTD SVG 1.1//EN" "http://www.w3.org/Graphics/SVG/1.1/DTD/svg11.dtd">
<svg version="1.1" id="Layer_1" xmlns="http://www.w3.org/2000/svg" xmlns:xlink="http://www.w3.org/1999/xlink" x="0px" y="0px"
	 width="102px" height="102px" viewBox="0 0 102 102" enable-background="new 0 0 102 102" xml:space="preserve">
<g>
	<path fill="#FFFFFF" d="M94.268,52.701c-0.027,0.417-0.106,0.722-0.237,0.914c-0.062,0.101-0.148,0.182-0.261,0.243
		c-0.111,0.062-0.245,0.093-0.399,0.093h-0.764v-5.902h0.764c0.154,0,0.288,0.031,0.399,0.093c0.112,0.062,0.199,0.143,0.261,0.243
		c0.131,0.193,0.21,0.494,0.237,0.902c0.026,0.409,0.04,0.976,0.04,1.701C94.308,51.714,94.294,52.284,94.268,52.701 M95.587,49.744
		c-0.012-0.358-0.037-0.675-0.075-0.949c-0.039-0.273-0.099-0.509-0.18-0.706s-0.191-0.372-0.33-0.526
		c-0.17-0.193-0.38-0.355-0.631-0.486c-0.25-0.131-0.572-0.197-0.966-0.197h-2.095v8.24h2.095c0.394,0,0.716-0.065,0.966-0.197
		c0.251-0.131,0.461-0.293,0.631-0.486c0.139-0.154,0.249-0.331,0.33-0.532c0.081-0.2,0.141-0.438,0.18-0.711
		c0.038-0.274,0.063-0.591,0.075-0.949c0.011-0.359,0.018-0.777,0.018-1.256C95.604,50.518,95.598,50.103,95.587,49.744
		 M86.185,52.319h-1.412l0.706-3.449L86.185,52.319z M88.117,55.12l-2.002-8.24h-1.262l-2.025,8.24h1.366l0.323-1.632h1.909
		l0.336,1.632H88.117z M79.912,55.12v-1.169h-2.164v-2.396h1.863v-1.169h-1.863v-2.338h2.164V46.88h-3.46v8.24H79.912z
		 M71.354,49.796c-0.02,0.154-0.056,0.29-0.11,0.405c-0.054,0.116-0.135,0.206-0.243,0.272c-0.107,0.065-0.246,0.098-0.416,0.098
		h-0.799v-2.523h0.799c0.17,0,0.309,0.033,0.416,0.099c0.108,0.065,0.189,0.156,0.243,0.272c0.055,0.116,0.091,0.25,0.11,0.405
		c0.019,0.155,0.029,0.316,0.029,0.486C71.384,49.48,71.373,49.642,71.354,49.796 M72.945,55.12l-1.227-3.657
		c0.378-0.201,0.633-0.482,0.764-0.845c0.132-0.363,0.197-0.798,0.197-1.308c0-0.856-0.162-1.476-0.486-1.857
		s-0.864-0.573-1.62-0.573H68.49v8.24h1.296v-3.38h0.729l1.076,3.38H72.945z M64.672,55.12v-8.24h-1.296v3.472h-1.609V46.88h-1.296
		v8.24h1.296v-3.6h1.609v3.6H64.672z M57.104,48.049V46.88h-4.062v1.168h1.377v7.071h1.296v-7.071H57.104z M45.439,55.12v-1.169
		h-2.164v-2.396h1.863v-1.169h-1.863v-2.338h2.164V46.88h-3.46v8.24H45.439z M38.808,46.88h-1.423l-1.065,6.249l-1.053-6.249h-1.423
		l1.805,8.24h1.342L38.808,46.88z M30.673,46.88h-1.296v8.24h1.296V46.88z M26.009,48.049V46.88h-4.062v1.168h1.377v7.071h1.296
		v-7.071H26.009z M17.735,52.319h-1.412l0.706-3.449L17.735,52.319z M19.668,55.12l-2.002-8.24h-1.261l-2.025,8.24h1.366
		l0.324-1.632h1.909l0.336,1.632H19.668z M11.197,55.12v-8.24H9.901v4.895L7.968,46.88H6.811v8.24h1.296v-4.896l1.944,4.896H11.197z
		"/>
	<polygon fill="#ABABAB" points="4.061,52.057 2.596,49.899 1.259,51.866 1,51.69 2.596,49.342 4.061,51.5 5.527,49.342 6.993,51.5 
		8.459,49.342 9.926,51.5 11.394,49.342 12.86,51.5 14.326,49.342 15.792,51.5 17.258,49.342 18.725,51.5 20.191,49.342 
		21.659,51.5 23.125,49.342 24.591,51.5 26.057,49.342 27.523,51.5 28.991,49.342 30.458,51.5 31.924,49.342 33.391,51.5 
		34.857,49.342 36.324,51.5 37.791,49.342 39.257,51.5 40.724,49.342 42.19,51.5 43.658,49.342 45.125,51.5 46.591,49.342 
		48.058,51.5 49.525,49.342 50.992,51.5 52.459,49.342 53.926,51.5 55.393,49.342 56.859,51.5 58.326,49.342 59.793,51.5 
		61.261,49.342 62.728,51.5 64.195,49.342 65.662,51.5 67.127,49.342 68.594,51.5 70.062,49.342 71.527,51.5 72.993,49.342 
		74.46,51.5 75.927,49.342 77.394,51.5 78.86,49.342 80.328,51.5 81.795,49.342 83.262,51.5 84.729,49.342 86.196,51.5 
		87.663,49.342 89.131,51.5 90.598,49.342 92.065,51.5 93.534,49.342 95.001,51.5 96.469,49.342 97.937,51.5 99.403,49.342 
		101,51.689 100.741,51.866 99.403,49.899 97.937,52.057 96.469,49.898 95.001,52.057 93.534,49.898 92.065,52.057 90.598,49.898 
		89.131,52.057 87.663,49.898 86.196,52.057 84.729,49.899 83.262,52.057 81.795,49.899 80.328,52.057 78.86,49.899 77.394,52.057 
		75.927,49.899 74.46,52.057 72.993,49.899 71.527,52.057 70.062,49.899 68.594,52.057 67.127,49.899 65.662,52.057 64.195,49.899 
		62.728,52.057 61.261,49.898 59.793,52.057 58.326,49.899 56.859,52.057 55.393,49.899 53.926,52.057 52.459,49.899 50.992,52.057 
		49.525,49.898 48.058,52.057 46.591,49.899 45.125,52.057 43.658,49.899 42.19,52.057 40.724,49.899 39.257,52.057 37.791,49.899 
		36.324,52.057 34.857,49.899 33.391,52.057 31.924,49.899 30.458,52.057 28.991,49.899 27.523,52.057 26.057,49.899 24.591,52.057 
		23.125,49.899 21.659,52.057 20.191,49.899 18.725,52.057 17.258,49.899 15.792,52.057 14.326,49.899 12.86,52.057 11.394,49.899 
		9.926,52.057 8.459,49.899 6.993,52.057 5.527,49.899 	"/>
</g>
</svg>
