<?xml version="1.0" encoding="utf-8"?>
<!-- Generator: Adobe Illustrator 23.0.0, SVG Export Plug-In . SVG Version: 6.00 Build 0)  -->
<svg version="1.1" id="Layer_1" xmlns="http://www.w3.org/2000/svg" xmlns:xlink="http://www.w3.org/1999/xlink" x="0px" y="0px"
	 viewBox="0 0 102 102" style="enable-background:new 0 0 102 102;" xml:space="preserve">
<style type="text/css">
	.st0{clip-path:url(#SVGID_4_);fill:#FFFFFF;}
	.st1{fill:#FFFFFF;}
</style>
<g>
	<g>
		<defs>
			<path id="SVGID_1_" d="M7.1,19.8C-4,39,29.2,96.4,51.3,96.4c22.9,0,52.9-56.3,44.2-76.6C91.3,9.8,72.5,5,53.1,5
				C33.2,5,12.7,10.1,7.1,19.8"/>
		</defs>
		<clipPath id="SVGID_2_">
			<use xlink:href="#SVGID_1_"  style="overflow:visible;"/>
		</clipPath>
	</g>
	<g>
		<defs>
			<path id="SVGID_3_" d="M7.1,19.8C-4,39,29.2,96.4,51.3,96.4c22.9,0,52.9-56.3,44.2-76.6C91.3,9.8,72.5,5,53.1,5
				C33.2,5,12.7,10.1,7.1,19.8"/>
		</defs>
		<clipPath id="SVGID_4_">
			<use xlink:href="#SVGID_3_"  style="overflow:visible;"/>
		</clipPath>
		<path class="st0" d="M126.4,40.1H-23.4v-46h149.8L126.4,40.1L126.4,40.1z M-17.5,34.2h138V0h-138V34.2z"/>
	</g>
</g>
<g>
	<path class="st1" d="M33.5,15.9c0.2,0,0.4,0.1,0.5,0.2l8.6,7.3V19h-3.7c-0.3,0-0.4-0.1-0.4-0.2v-2.6c0-0.2,0.1-0.4,0.2-0.4h12
		c0.3,0,0.4,0.3,0.4,0.4v2.4c0,0.2-0.2,0.3-0.4,0.3h-3.6V28c0,0.3-0.1,0.5-0.3,0.5H36.5c-0.1,0-0.3,0-0.4-0.1l-9.4-8v4.9h3.9
		c0.2,0,0.4,0.1,0.4,0.3v2.5c0,0.3-0.1,0.4-0.3,0.4H18.4c-0.2,0-0.3-0.1-0.3-0.3v-2.5c0-0.1,0.1-0.3,0.4-0.3h3.6V19h-3.8
		c-0.1,0-0.3-0.1-0.3-0.3v-2.6c0-0.2,0.2-0.3,0.4-0.3C18.6,15.9,33.5,15.9,33.5,15.9z"/>
	<path class="st1" d="M67.7,15.9c0.2,0,0.3,0.1,0.3,0.3v2.6c0,0.2-0.2,0.2-0.4,0.2h-3.2v1.8h8v-1.8h-3.4c-0.2,0-0.3,0-0.3-0.2v-2.5
		c0-0.2,0.1-0.3,0.3-0.3h15.6c0.2,0,0.3,0.1,0.3,0.3v2.4c0,0.1-0.1,0.3-0.3,0.3h-3.7v6.3h3.6c0.3,0,0.5,0,0.5,0.3v2.6
		c0,0.2-0.1,0.3-0.3,0.3H68.9c-0.2,0-0.3-0.1-0.3-0.3v-2.7c0-0.1,0.1-0.2,0.2-0.2h3.5v-1.8h-8v1.8h3.5c0.1,0,0.2,0.1,0.2,0.2v2.8
		c0,0.1-0.1,0.2-0.3,0.2H51.9c-0.1,0-0.2-0.1-0.2-0.2v-2.8c0-0.1,0.1-0.2,0.2-0.2h3.9v-6.3h-3.9c-0.2,0-0.3-0.1-0.3-0.3v-2.5
		c0-0.1,0.1-0.2,0.2-0.2L67.7,15.9L67.7,15.9z"/>
	<path class="st1" d="M63.4,80c0,0.2-0.2,0.4-0.5,0.4H38.4c-0.3,0-0.4-0.4-0.4-0.6l18.5-23.4H43.3v5.1c0,0.4-0.1,1-0.6,1H28.3
		c-0.5,0-1.5,0.1-1.5-0.6V49.4c0-0.3,0.3-0.7,0.6-0.7h51c0.5,0,0.8,0.4,0.5,1.1L63.4,80z"/>
	<path class="st1" d="M52.9,1L52.9,1C42.6,1,32.3,2.4,24,4.9C13.8,7.9,6.9,12.4,3.6,18.2C0.2,24-0.3,31.9,2.1,41.9
		C4,50,7.8,59.3,12.9,68c5.1,8.8,11.2,16.7,17.2,22.4c7.4,7,14.6,10.6,21.2,10.6c5.9,0,12.1-2.7,18.4-7.9
		c5.1-4.3,10.4-10.3,15.1-17.4c6.1-9.2,11-19.7,13.9-29.5c2.3-7.9,4.3-19,0.7-27.3c-2.7-6.2-8.9-11-18.6-14.1
		C73.1,2.4,63.7,1,53.5,1v0 M51.3,95.1C30,95.1-2,39.7,8.7,21.2c5.4-9.4,25.1-14.3,44.2-14.3h0.4c18.6,0,36.6,4.7,40.7,14.3
		C102.4,40.8,73.4,95.1,51.3,95.1"/>
</g>
</svg>
