<?xml version="1.0" encoding="utf-8"?>
<!-- Generator: Adobe Illustrator 23.0.0, SVG Export Plug-In . SVG Version: 6.00 Build 0)  -->
<svg version="1.1" id="Layer_1" xmlns="http://www.w3.org/2000/svg" xmlns:xlink="http://www.w3.org/1999/xlink" x="0px" y="0px"
	 viewBox="0 0 102 102" style="enable-background:new 0 0 102 102;" xml:space="preserve">
<style type="text/css">
	.st0{fill:#FFFFFF;}
</style>
<g>
	<path class="st0" d="M13,63C6.4,63,1,57.6,1,51c0-6.6,5.4-12,12-12c6.6,0,12,5.4,12,12C25,57.6,19.6,63,13,63"/>
	<path class="st0" d="M67.1,62.1c-2.9,1.7-7.4,0.9-9-2.3c-0.4-0.7-0.7-1.4-1-2.1C53.9,61,55,59.9,53.9,61c-2.4,2.4-6.9,2.7-9.2,0.1
		c-1-1.1-2-2.3-3.1-3.4c-0.3,0.6-0.7,1.3-1,1.9c-1.7,3.1-5.9,4.1-8.9,2.4c-3.2-1.8-4.1-5.8-2.4-8.9c1.8-3.3,3.5-6.6,5.3-10
		c1.9-3.6,7.5-4.5,10.3-1.4c1.5,1.7,3.1,3.4,4.6,5.2c1.6-1.6,3.2-3.3,4.8-4.9c2.8-2.8,8.4-2.5,10.3,1.3c1.6,3.3,3.3,6.6,4.9,10
		C71,56.4,70.3,60.2,67.1,62.1"/>
	<path class="st0" d="M94.4,63c-3.8,0-7.6,0-11.4-0.1c-2.2,0-4.5-1.2-5.6-3.2c-1.8-3.5-3.6-6.9-5.4-10.3c-1.7-3.2-0.9-7.1,2.3-9
		c3-1.7,7.3-0.8,9,2.3c1.2,2.4,2.5,4.8,3.7,7.1c2.5,0,5,0,7.5,0c3.6,0,6.5,3,6.5,6.6C101,60,98,63,94.4,63"/>
</g>
</svg>
