<?xml version="1.0" encoding="utf-8"?>
<!-- Generator: Adobe Illustrator 16.0.0, SVG Export Plug-In . SVG Version: 6.00 Build 0)  -->
<!DOCTYPE svg PUBLIC "-//W3C//DTD SVG 1.1//EN" "http://www.w3.org/Graphics/SVG/1.1/DTD/svg11.dtd">
<svg version="1.1" id="Layer_1" xmlns="http://www.w3.org/2000/svg" xmlns:xlink="http://www.w3.org/1999/xlink" x="0px" y="0px"
	 width="102px" height="102px" viewBox="0 0 102 102" enable-background="new 0 0 102 102" xml:space="preserve">
<g>
	<path fill="#FFFFFF" d="M53.143,41.642v9.811c0,0-1.738,0-2.794-0.488c-0.683-0.31-2.096-0.939-2.124-2.678v-1.882v-3.992v-0.169
		c0-0.972,0.119-1.788-0.396-2.471c-0.542-0.712-1.101-1.009-2.3-1.009c-1.053,0-2.308,0.227-2.708,0.882
		c-0.399,0.626-0.628,1.339-0.628,2.651V52.95c0,0-0.23-1.207-1.686-1.599c-1.698-0.459-3.529-0.193-3.529-0.193v-9.544
		c0-0.997,0.082-1.881,0.256-2.708c0.169-0.827,1.297-1.911,1.921-2.337c1.712-1.198,5.147-1.484,6.401-1.484
		c1.428,0,4.45,0.372,5.848,1.539c0.513,0.458,1.111,1.37,1.396,2.339C53.059,39.96,53.143,40.816,53.143,41.642"/>
	<path fill="#FFFFFF" d="M58.273,32.462v18.987h-4.422V29.183h0.744c1.025,0,2.223,0.172,2.938,0.969
		C58.245,30.892,58.273,31.635,58.273,32.462"/>
	<path fill="#FFFFFF" d="M60.729,54.096c-0.871,0.006-1.508,0.008-1.686,0.008h-0.797c-0.973,0.056-1.797,0.627-2.169,1.168
		c-0.399,0.569-0.627,1.256-0.627,2.252v0.172h5.276v-3.6H60.729z"/>
	<path fill="#FFFFFF" d="M73.07,35.369c-1.227,0-2.053,0.201-2.596,0.715c-0.514,0.457-1.055,1.253-1.055,2.311v5.443
		c0,1.484,0,2.368-0.711,3.249c-0.572,0.715-1.74,0.999-2.427,0.999c-1.027,0-2.05-0.341-2.452-0.999
		c-0.453-0.769-0.54-1.481-0.54-2.792v-8.897h-4.306v9.695c0,0.968,0.086,1.852,0.254,2.651c0.176,0.798,0.486,1.482,0.887,2.053
		c0.43,0.541,1.027,0.969,1.768,1.31c0.741,0.314,1.685,0.573,2.851,0.629h0.229c1.141,0,2.879-0.229,4.36-1.313l0.087,1.911v0.111
		c0,0.545,0.146,0.998-0.514,1.398c-0.18,0.162-4.453,0.223-7.329,0.244v3.605h7.047c0.683,0,1.337-0.059,1.938-0.144
		c0.623-0.114,1.166-0.286,1.623-0.569c0.485-0.258,0.854-0.654,1.111-1.142c0.258-0.455,0.401-1.059,0.401-1.796V35.369H73.07z"/>
	<path fill="#FFFFFF" d="M19.911,78.521v-0.685c0-0.137,0-1.36,0.408-2.211c0.443-0.954,1.259-1.431,2.45-1.463
		c0.206-0.037,0.68-0.037,1.533-0.037c1.36,0,6.129,0.037,6.129,0.037c0.577,0,1.021-0.103,1.428-0.375
		c0.206-0.171,0.41-0.442,0.41-1.261c0-0.508-0.134-0.92-0.34-1.055c-0.273-0.172-0.545-0.272-1.158-0.307h-5.719
		c-0.75,0-1.432-0.068-2.044-0.205c-0.682-0.17-1.599-0.577-2.042-1.193c-0.886-1.259-1.466-2.52-1.466-4.457
		c0-1.806,0.513-3.271,1.565-4.528c0.445-0.511,1.193-0.954,1.976-1.19c0.682-0.171,1.329-0.238,2.011-0.238h10.587v0.68
		c0,0.138,0,1.361-0.408,2.215c-0.443,0.953-1.259,1.43-2.487,1.463c-0.169,0.035-0.61,0.035-1.361,0.035
		c-1.191,0-5.752-0.035-5.787-0.035c-0.581,0-1.022,0.104-1.397,0.373c-0.204,0.171-0.441,0.441-0.441,1.264
		c0,0.508,0.134,0.916,0.373,1.053c0.274,0.17,0.546,0.274,1.126,0.307h5.75c0.716,0,1.396,0.068,2.01,0.206
		c0.715,0.169,1.632,0.579,2.04,1.188c0.853,1.192,1.396,2.418,1.396,4.461c0,0.955-0.138,1.807-0.373,2.586
		c-0.237,0.717-0.612,1.36-1.088,1.943c-0.445,0.51-1.228,0.951-1.976,1.192c-0.682,0.169-1.329,0.237-2.042,0.237H19.911z"/>
	<path fill="#FFFFFF" d="M42.141,55.031v5.548c1.77-1.228,3.812-1.534,5.172-1.534h0.411c1.362,0.035,2.518,0.377,3.405,0.753
		c0.883,0.373,1.564,0.884,2.075,1.563c0.509,0.646,0.884,1.465,1.09,2.418c0.205,0.953,0.308,2.008,0.308,3.199V78.52h-1.19
		c-1.466,0-2.452-0.271-3.202-0.984c-0.645-0.613-0.783-1.434-0.783-2.622V67.9c0-1.533-0.066-2.387-0.647-3.338
		c-0.476-0.783-1.667-1.192-2.928-1.192c-0.816,0-2.212,0.377-2.859,1.192c-0.851,1.09-0.851,2.145-0.851,3.916V78.52h-5.173V51.932
		h1.564c1.702,0,2.281,0.34,2.79,0.885C41.867,53.43,42.107,53.975,42.141,55.031"/>
	<path fill="#FFFFFF" d="M60.729,63.335V78.52H55.45V59.318h1.772c1.227,0,1.938,0.306,2.688,1.226
		C60.693,61.533,60.729,62.281,60.729,63.335"/>
	<path fill="#FFFFFF" d="M67.129,59.796c1.564-0.683,3.609-0.683,5.105-0.683h0.203c0.375,0,0.852,0.035,1.261,0.138v4.834
		c-0.238-0.067-0.511-0.104-0.853-0.138c-0.341-0.031-0.681-0.066-0.986-0.066c-0.952,0-1.771,0.171-2.418,0.479
		c-0.646,0.304-1.19,0.746-1.566,1.291c-0.408,0.545-0.746,1.16-0.917,1.873c-0.173,0.748-0.206,1.567-0.206,2.416v8.582h-5.174
		V67.557c0-1.873,0.477-4.018,2.316-5.754C65.052,60.68,66.55,60.035,67.129,59.796"/>
	<path fill="#FFFFFF" d="M83.878,59.25v1.122c0,0.785-0.274,1.329-0.616,1.771c-0.305,0.342-1.086,0.717-2.041,0.75h-1.359v9.225
		c0,0.886,0.168,1.5,0.443,1.807c0.307,0.307,0.916,0.342,1.803,0.342h0.715h1.057v4.256h-3.234c-0.817,0-1.6-0.035-2.314-0.172
		c-0.75-0.104-1.396-0.308-1.977-0.648c-0.543-0.34-0.986-0.78-1.324-1.393c-0.307-0.582-0.479-1.363-0.479-2.35V51.93h1.975
		c1.191,0,2.213,0.514,2.652,1.127c0.551,0.746,0.684,1.325,0.684,1.903v4.29H83.878z"/>
	<path fill="#FFFFFF" d="M84.455,78.521v-0.685c0-0.137,0-1.36,0.408-2.211c0.443-0.954,1.26-1.431,2.449-1.463
		c0.205-0.037,0.684-0.037,1.533-0.037c1.362,0,6.127,0.037,6.127,0.037c0.582,0,1.022-0.103,1.432-0.375
		c0.203-0.171,0.406-0.442,0.406-1.261c0-0.508-0.136-0.92-0.34-1.055c-0.271-0.172-0.541-0.272-1.156-0.307h-5.721
		c-0.748,0-1.43-0.068-2.041-0.205c-0.681-0.17-1.602-0.577-2.044-1.193c-0.886-1.259-1.463-2.52-1.463-4.457
		c0-1.806,0.509-3.271,1.567-4.528c0.441-0.511,1.191-0.954,1.974-1.19c0.679-0.171,1.325-0.238,2.007-0.238h10.59v0.68
		c0,0.138,0,1.361-0.41,2.215c-0.44,0.953-1.258,1.43-2.482,1.463c-0.171,0.035-0.615,0.035-1.361,0.035
		c-1.193,0-5.754-0.035-5.789-0.035c-0.576,0-1.021,0.104-1.396,0.373c-0.204,0.171-0.44,0.441-0.44,1.264
		c0,0.508,0.137,0.916,0.375,1.053c0.271,0.17,0.543,0.274,1.122,0.307h5.755c0.715,0,1.396,0.068,2.006,0.206
		c0.72,0.169,1.637,0.579,2.045,1.188c0.851,1.192,1.395,2.418,1.395,4.461c0,0.955-0.134,1.807-0.375,2.586
		c-0.236,0.717-0.611,1.36-1.088,1.943c-0.441,0.51-1.227,0.951-1.977,1.192c-0.68,0.169-1.328,0.237-2.039,0.237H84.455z"/>
	<path fill="#393734" d="M20.506,23.998c-10.198,0-18.496,8.3-18.496,18.498c0,10.197,8.298,18.495,18.496,18.495
		c10.2,0,18.496-8.298,18.496-18.495C39.002,32.298,30.706,23.998,20.506,23.998z M20.506,56.255
		c-7.587,0-13.759-6.172-13.759-13.759s6.173-13.759,13.759-13.759c7.588,0,13.761,6.172,13.761,13.759S28.094,56.255,20.506,56.255
		z"/>
	<path fill="#FFFFFF" d="M20.518,23.479C9.756,23.479,1,32.235,1,42.996c0,10.761,8.756,19.518,19.518,19.518
		c10.762,0,19.518-8.757,19.518-19.518C40.036,32.235,31.28,23.479,20.518,23.479z M20.518,57.514
		c-8.005,0-14.517-6.514-14.517-14.518s6.512-14.517,14.517-14.517s14.519,6.513,14.519,14.517S28.523,57.514,20.518,57.514z"/>
	<circle fill="#FFFFFF" cx="17.361" cy="39.976" r="2.276"/>
	<path fill="#FFFFFF" d="M23.678,37.699c-1.257,0-2.277,1.02-2.277,2.277c0,1.257,1.02,2.276,2.277,2.276
		c1.255,0,2.275-1.019,2.275-2.276C25.953,38.719,24.933,37.699,23.678,37.699z"/>
	<circle fill="#FFFFFF" cx="17.361" cy="46.016" r="2.276"/>
	<path fill="#FFFFFF" d="M23.678,43.74c-1.257,0-2.277,1.019-2.277,2.276c0,1.257,1.02,2.276,2.277,2.276
		c1.255,0,2.275-1.019,2.275-2.276C25.953,44.759,24.933,43.74,23.678,43.74z"/>
	<path fill="#F3F3F3" d="M20.52,24.847c-10.038,0-18.177,8.137-18.177,18.174c0,10.038,8.139,18.174,18.177,18.174
		c10.037,0,18.173-8.137,18.173-18.174C38.693,32.983,30.558,24.847,20.52,24.847z M20.518,55.771
		c-7.039,0-12.748-5.709-12.748-12.75c0-7.04,5.708-12.748,12.748-12.748c7.041,0,12.75,5.707,12.75,12.748
		S27.559,55.771,20.518,55.771z"/>
	<path fill="#AFAFAF" d="M20.518,24.703C10.419,24.703,2.2,32.921,2.2,43.021c0,10.101,8.219,18.318,18.318,18.319
		c10.1,0,18.32-8.218,18.32-18.319C38.838,32.921,30.619,24.703,20.518,24.703z M20.518,61.055c-9.942,0-18.031-8.09-18.031-18.034
		c0-9.943,8.089-18.031,18.031-18.031s18.033,8.088,18.033,18.031S30.46,61.055,20.518,61.055z"/>
	<path fill="#CFCECD" d="M20.518,28.359c-8.097,0-14.662,6.565-14.662,14.662s6.565,14.665,14.662,14.665S35.18,51.118,35.18,43.021
		S28.615,28.359,20.518,28.359z M20.518,55.771c-7.039,0-12.748-5.709-12.748-12.75c0-7.04,5.708-12.748,12.748-12.748
		c7.041,0,12.75,5.707,12.75,12.748S27.559,55.771,20.518,55.771z"/>
	<path fill="#AFAFAF" d="M20.518,29.384c-7.533,0-13.637,6.106-13.637,13.637s6.105,13.635,13.637,13.635
		c7.533,0,13.637-6.104,13.637-13.635C34.155,35.49,28.051,29.384,20.518,29.384z M20.518,55.771
		c-7.039,0-12.748-5.709-12.748-12.75c0-7.04,5.708-12.748,12.748-12.748c7.041,0,12.75,5.707,12.75,12.748
		S27.559,55.771,20.518,55.771z"/>
	<circle fill="#393734" cx="16.431" cy="38.324" r="3.119"/>
	<circle fill="#393734" cx="24.605" cy="38.324" r="3.119"/>
	<circle fill="#393734" cx="16.431" cy="47.718" r="3.119"/>
	<circle fill="#393734" cx="24.605" cy="47.718" r="3.119"/>
	<path fill="#FFFFFF" d="M25.911,36.841c-0.779-0.671-1.957-0.583-2.627,0.198l-2.629,3.058l-2.629-3.058
		c-0.671-0.781-1.849-0.869-2.629-0.198c-0.781,0.671-0.87,1.848-0.199,2.628l2.999,3.485l-2.998,3.485
		c-0.671,0.78-0.584,1.957,0.197,2.628c0.352,0.303,0.786,0.452,1.215,0.452c0.523,0,1.044-0.222,1.414-0.649l2.629-3.058
		l2.627,3.058c0.37,0.428,0.891,0.649,1.414,0.649c0.431,0,0.865-0.148,1.215-0.452c0.781-0.671,0.87-1.848,0.197-2.628
		l-2.994-3.485l2.997-3.485C26.781,38.689,26.693,37.512,25.911,36.841z"/>
	<g opacity="0.25">
		<g>
			<g>
				<defs>
					<rect id="SVGID_1_" x="20.551" y="39.976" width="2.786" height="2.978"/>
				</defs>
				<clipPath id="SVGID_2_">
					<use xlink:href="#SVGID_1_"  overflow="visible"/>
				</clipPath>
				<polygon clip-path="url(#SVGID_2_)" fill="#393734" points="23.111,42.954 23.337,42.692 20.551,39.976 				"/>
			</g>
		</g>
	</g>
	<g opacity="0.25">
		<g>
			<g>
				<defs>
					<rect id="SVGID_3_" x="18.004" y="42.954" width="2.648" height="2.859"/>
				</defs>
				<clipPath id="SVGID_4_">
					<use xlink:href="#SVGID_3_"  overflow="visible"/>
				</clipPath>
				<polygon clip-path="url(#SVGID_4_)" fill="#393734" points="18.004,43.176 20.654,45.813 18.196,42.954 				"/>
			</g>
		</g>
	</g>
</g>
</svg>
