<?xml version="1.0" encoding="utf-8"?>
<!-- Generator: Adobe Illustrator 16.0.0, SVG Export Plug-In . SVG Version: 6.00 Build 0)  -->
<!DOCTYPE svg PUBLIC "-//W3C//DTD SVG 1.1//EN" "http://www.w3.org/Graphics/SVG/1.1/DTD/svg11.dtd">
<svg version="1.1" id="Layer_1" xmlns="http://www.w3.org/2000/svg" xmlns:xlink="http://www.w3.org/1999/xlink" x="0px" y="0px"
	 width="102px" height="102px" viewBox="0 0 102 102" enable-background="new 0 0 102 102" xml:space="preserve">
<g>
	
		<path fill-rule="evenodd" clip-rule="evenodd" fill="#FFFFFF" stroke="#FFFFFF" stroke-width="0.216" stroke-miterlimit="2.6131" d="
		M36.588,46.179c-1.751,1.229-2.781,1.686-4.476,2.039c-1.002,0.082-1.816,0.103-2.024-0.525c-0.229-0.692-0.487-0.924-1.005-0.581
		c-1.718,1.139-3.255,1.566-3.988,1.274c-0.659-0.263-0.575-1.06-0.253-1.643c0.363-0.657,1.321-1.194,1.974-1.484
		c0.495-0.22,1.036-0.404,1.595-0.53c0.658-0.148,2.037-0.369,2.415,0.143c0.064,0.087,0.131,0.188,0.181,0.319
		c0.12-0.116,0.238-0.237,0.354-0.298c0.348-0.184,0.537-0.234,0.811,0.469c-0.25,1.066,0.154,1.339,0.807,1.367
		c1.198,0.051,2.413-0.495,3.326-1.325L36.588,46.179L36.588,46.179z M27.165,46.11c-0.646,0.335-0.994,0.774-0.774,0.977
		c0.221,0.203,0.928,0.096,1.575-0.239c0.647-0.335,0.994-0.775,0.774-0.978C28.519,45.667,27.811,45.775,27.165,46.11z"/>
	
		<path fill-rule="evenodd" clip-rule="evenodd" fill="#FFFFFF" stroke="#FFFFFF" stroke-width="0.216" stroke-miterlimit="2.6131" d="
		M19.7,41.091c-1.031,1.152-1.646,2.078-3.053,3.927c-1.637,2.15-3.234,4.319-4.936,6.419c-3.303,4.074-6.766,7.93-10.375,12.066
		c-0.874,1.002,0.511,1.556,1.044,1.017C7.401,59.44,14.903,50.467,16.6,48.06c4.854-0.306,10.403-4.248,10.912-7.159
		c0.184-1.051-0.481-1.796-1.593-2.135c-1.241-0.379-4.613-0.27-7.127,1.157c-0.066,0.038-0.154,0.102-0.238,0.179
		c-0.588,0.539-0.112,0.758,0.399,0.511c0.214-0.103,0.477-0.197,0.773-0.28c0.903-0.253,2.117-0.401,3.224-0.372
		c1.39,0.036,2.962,0.566,2.025,2.341c-1.038,1.964-4.786,4.346-7.708,4.483c1.238-1.517,2.623-3.423,4.082-5.688
		C21.534,40.561,20.117,40.626,19.7,41.091z"/>
	
		<path fill-rule="evenodd" clip-rule="evenodd" fill="#FFFFFF" stroke="#FFFFFF" stroke-width="0.216" stroke-miterlimit="2.6131" d="
		M42.981,45.43c-0.111-0.865-1.24-0.698-2.829,0.205c-1.137,0.706-2.27,1.085-2,0.179c0.141-0.478,0.236-0.873-0.503-0.856
		c-0.259,0.006-0.574,0.082-0.9,0.229c-0.952,0.486-1.772,1.17-2.856,1.393l0.69,0.899c0.427-0.253,0.854-0.505,1.282-0.758
		c-0.351,1.274-0.043,1.521,1.471,1.133c1.041-0.399,1.848-0.876,2.889-1.274c0.168-0.103,0.509-0.023,0.62,0.375
		c0.208,0.726,0.553,1.198,1.917,1.295c1.421-0.258,2.819-0.713,4.139-1.174c-0.102-0.305-0.242-0.42-0.344-0.726
		C44.91,46.758,43.173,47.309,42.981,45.43z"/>
	
		<path fill-rule="evenodd" clip-rule="evenodd" fill="#FFFFFF" stroke="#FFFFFF" stroke-width="0.216" stroke-miterlimit="2.6131" d="
		M58.105,46.111c-1.751,1.229-2.781,1.686-4.476,2.039c-1.001,0.081-1.816,0.103-2.025-0.525c-0.229-0.692-0.486-0.924-1.005-0.581
		c-1.718,1.139-3.255,1.566-3.987,1.274c-0.66-0.263-0.576-1.059-0.253-1.642c0.363-0.656,1.321-1.193,1.974-1.484
		c0.494-0.221,1.035-0.404,1.594-0.53c0.658-0.148,2.036-0.369,2.415,0.143c0.064,0.087,0.131,0.188,0.181,0.319
		c0.12-0.116,0.238-0.237,0.354-0.298c0.349-0.184,0.537-0.234,0.811,0.469c-0.25,1.066,0.154,1.339,0.808,1.367
		c1.198,0.051,2.413-0.495,3.325-1.325L58.105,46.111L58.105,46.111z M48.683,46.042c-0.647,0.335-0.994,0.774-0.774,0.977
		c0.221,0.203,0.928,0.096,1.575-0.239c0.646-0.335,0.994-0.774,0.774-0.978C50.037,45.6,49.329,45.707,48.683,46.042z"/>
	
		<path fill-rule="evenodd" clip-rule="evenodd" fill="#FFFFFF" stroke="#FFFFFF" stroke-width="0.216" stroke-miterlimit="2.6131" d="
		M62.774,46.552c-1.042,0.952-2.858,1.802-4.245,1.75c-1.349-0.051-2.702-0.624-1.723-2.15c0.793-1.235,2.703-2.15,4.833-2.244
		c0.641-0.082,0.61,0.529-0.003,0.62c-1.156,0.307-2.278,0.624-2.677,1.146c-0.554,0.725,0.201,1.13,0.815,1.201
		c0.873,0.101,1.731-0.163,2.446-0.632c0.125-0.086,0.227-0.148,0.313-0.188C63.037,45.827,63.093,46.26,62.774,46.552z"/>
	
		<path fill-rule="evenodd" clip-rule="evenodd" fill="#FFFFFF" stroke="#FFFFFF" stroke-width="0.216" stroke-miterlimit="2.6131" d="
		M71.462,46.574c-0.843,0.451-2.361,0.479-2.44-0.422c-0.035-0.407,0.042-0.74-0.167-1.135c-0.264-0.499-0.744-0.436-1.238-0.247
		c-0.704,0.309-0.88,0.144-0.53-0.497c1.543-2.019,3.13-3.953,4.779-5.761c0.765-0.961,0.58-1.432-0.149-1.171
		c-0.525,0.187-1.121,0.543-1.73,1.19c-2.523,2.681-4.675,5.407-6.437,8.182c-0.083,0.131-0.141,0.227-0.162,0.386
		c-0.03,0.227,0.046,0.377,0.228,0.453c0.843,0.35,1.566-0.562,2.171-1.098c0.138-0.123,0.227-0.236,0.351-0.364
		c0.136-0.141,0.258-0.103,0.342,0.104c0.167,0.41,0.097,0.867,0.347,1.265c0.263,0.417,0.716,0.625,1.28,0.721
		c0.667,0.113,2.818-0.093,3.242-0.778C71.535,47.099,71.478,46.833,71.462,46.574z"/>
	<path fill-rule="evenodd" clip-rule="evenodd" fill="#FFFFFF" d="M72.6,46.049c0.62-0.06,1.153-0.207,1.601-0.442
		c0.448-0.235,0.694-0.439,0.74-0.613c0.009-0.035,0.013-0.06,0.013-0.073c-0.001-0.015-0.006-0.022-0.015-0.025
		c-0.038-0.066-0.199-0.071-0.483-0.016c-0.284,0.056-0.595,0.178-0.933,0.368S72.876,45.705,72.6,46.049L72.6,46.049z
		 M73.035,46.924c0.12,0.25,1.445,0.411,2.519,0.513c2.798,0.267,5.374,0.341,8.179,0.511c2.912,0.177,5.244,0.294,8.162,0.354
		c2.827,0.057,5.706-0.056,7.204-0.197c0.45-0.042,0.972-0.109,1.415-0.149c0.821-0.074,0.819,0.761-0.8,1.017
		c-1.344,0.212-6.446,0.423-13.439,0.166c-3.937-0.144-8.122-0.152-12.029-0.615c-0.971-0.115-1.866-0.308-2.553-0.646
		c-0.579-0.286-0.842-0.736-0.75-1.149c0.11-0.492,0.383-0.967,0.842-1.423c0.895-0.888,2.257-1.499,3.513-1.224
		c0.685,0.15,0.965,0.549,0.841,1.019C75.85,46.2,74.019,46.861,73.035,46.924z"/>
</g>
</svg>
