<?xml version="1.0" encoding="utf-8"?>
<!-- Generator: Adobe Illustrator 16.0.0, SVG Export Plug-In . SVG Version: 6.00 Build 0)  -->
<!DOCTYPE svg PUBLIC "-//W3C//DTD SVG 1.1//EN" "http://www.w3.org/Graphics/SVG/1.1/DTD/svg11.dtd">
<svg version="1.1" id="Layer_1" xmlns="http://www.w3.org/2000/svg" xmlns:xlink="http://www.w3.org/1999/xlink" x="0px" y="0px"
	 width="102px" height="102px" viewBox="0 0 102 102" enable-background="new 0 0 102 102" xml:space="preserve">
<g>
	<polygon fill="#BCBEC0" points="35.607,1.868 14.891,3.417 12.989,3.559 13.131,5.461 14.68,26.178 16.582,26.036 15.033,5.319 
		35.75,3.77 	"/>
	<g>
		<path fill-rule="evenodd" clip-rule="evenodd" fill="#BCBEC0" d="M25.743,11.075l-0.867,3.843l2.295-0.171L25.743,11.075z
			 M22.549,18.223l0.588-0.044c0.669-2.965,1.382-6.13,2.039-9.046l0.835-0.063c1.108,2.845,2.234,5.741,3.347,8.598l0.611-0.041
			l0.074,0.989c-0.981,0.074-1.967,0.13-2.969,0.205l-0.073-0.976l1.337-0.1L27.542,15.7l-2.892,0.216l-0.493,2.186l1.177-0.088
			l0.073,0.976l-2.785,0.208L22.549,18.223z"/>
		<path fill-rule="evenodd" clip-rule="evenodd" fill="#BCBEC0" d="M30.36,24.96c-0.187-0.44-3.579-4.656-3.942-5.107l-0.003-0.043
			c-0.001,0.001-0.006,0.009-0.015,0.023c-0.009-0.013-0.016-0.021-0.016-0.021l0.003,0.043c-0.293,0.5-3.02,5.173-3.139,5.636
			c-0.125,0.488-0.136,1.411,0.375,1.9c0.51,0.489,1.058,0.764,1.424,0.736c0.167-0.012,0.446-0.015,0.76-0.172
			c0.354-0.259,0.694-0.756,0.66-1.713c0,0,0.189,1.625-0.368,2.62c-0.035,0.077-0.07,0.148-0.112,0.208
			c0,0,0.848-0.136,1.091-0.152c0.243-0.021,1.102-0.012,1.102-0.012c-0.049-0.053-0.096-0.119-0.141-0.189
			c-0.698-0.901-0.754-2.536-0.754-2.536c0.109,0.951,0.521,1.392,0.908,1.595c0.335,0.108,0.612,0.07,0.778,0.058
			c0.366-0.027,0.866-0.381,1.298-0.94C30.704,26.335,30.557,25.425,30.36,24.96"/>
	</g>
	<g>
		<polygon fill="#BCBEC0" points="66.012,101 86.729,99.451 88.631,99.31 88.49,97.407 86.94,76.687 85.038,76.829 86.586,97.549 
			65.87,99.098 		"/>
		<g>
			<path fill-rule="evenodd" clip-rule="evenodd" fill="#BCBEC0" d="M71.756,81.425c0.516,0.493,1.068,0.771,1.438,0.743
				c0.359-0.027,1.245-0.007,1.874-1.582c0.851,1.437,1.715,1.286,2.071,1.26c0.37-0.028,0.874-0.385,1.311-0.949
				c0.437-0.563,0.288-1.483,0.089-1.953c-0.198-0.469-3.966-5.174-3.966-5.174s-3.067,5.243-3.194,5.736
				C71.252,80,71.242,80.931,71.756,81.425"/>
			<path fill-rule="evenodd" clip-rule="evenodd" fill="#BCBEC0" d="M75.913,91.415l0.867-3.843l-2.295,0.172L75.913,91.415z
				 M79.107,84.267l-0.589,0.044c-0.668,2.966-1.381,6.13-2.039,9.046l-0.835,0.064c-1.107-2.845-2.233-5.74-3.347-8.599
				l-0.612,0.04l-0.073-0.989c0.98-0.072,1.968-0.128,2.969-0.203l0.073,0.976l-1.336,0.101l0.795,2.043l2.893-0.216l0.493-2.187
				l-1.177,0.088l-0.073-0.976l2.785-0.208L79.107,84.267z"/>
		</g>
	</g>
	<polygon fill="#FFFFFF" points="36.177,1 15.46,2.549 13.558,2.692 13.7,4.594 15.249,25.311 17.152,25.168 15.603,4.452 
		36.32,2.903 	"/>
	<g>
		<path fill-rule="evenodd" clip-rule="evenodd" fill="#FFFFFF" d="M26.123,10.586l-0.867,3.843l2.295-0.172L26.123,10.586z
			 M22.929,17.735l0.588-0.044c0.669-2.965,1.381-6.131,2.039-9.046l0.835-0.064c1.108,2.845,2.234,5.741,3.347,8.598l0.611-0.04
			l0.074,0.988c-0.981,0.074-1.967,0.13-2.969,0.205l-0.073-0.976l1.337-0.1l-0.795-2.044l-2.892,0.217l-0.494,2.186l1.177-0.088
			l0.073,0.976l-2.785,0.208L22.929,17.735z"/>
		<path fill-rule="evenodd" clip-rule="evenodd" fill="#FFFFFF" d="M30.74,24.472c-0.187-0.44-3.579-4.657-3.941-5.107l-0.003-0.043
			c0,0-0.006,0.009-0.014,0.023c-0.009-0.013-0.016-0.021-0.016-0.021l0.003,0.043c-0.292,0.499-3.02,5.173-3.139,5.636
			c-0.125,0.489-0.136,1.411,0.375,1.9c0.51,0.488,1.058,0.764,1.424,0.736c0.167-0.012,0.446-0.016,0.76-0.173
			c0.354-0.259,0.694-0.756,0.66-1.713c0,0,0.189,1.625-0.369,2.62c-0.034,0.077-0.069,0.148-0.111,0.208
			c0,0,0.848-0.136,1.091-0.152c0.243-0.021,1.102-0.012,1.102-0.012c-0.049-0.053-0.096-0.119-0.141-0.189
			c-0.698-0.901-0.754-2.536-0.754-2.536c0.109,0.951,0.521,1.392,0.908,1.596c0.335,0.108,0.612,0.07,0.778,0.058
			c0.366-0.027,0.867-0.381,1.298-0.94C31.084,25.847,30.937,24.937,30.74,24.472"/>
	</g>
	<g>
		<polygon fill="#FFFFFF" points="66.392,100.327 87.109,98.778 89.011,98.637 88.87,96.733 87.32,76.011 85.417,76.153 
			86.966,96.876 66.25,98.425 		"/>
		<g>
			<path fill-rule="evenodd" clip-rule="evenodd" fill="#FAFBFB" d="M72.136,80.751c0.516,0.493,1.067,0.771,1.438,0.743
				c0.359-0.026,1.244-0.006,1.874-1.582c0.851,1.437,1.715,1.286,2.071,1.26c0.37-0.027,0.874-0.385,1.311-0.949
				s0.288-1.484,0.089-1.953c-0.198-0.47-3.966-5.178-3.966-5.178s-3.067,5.246-3.194,5.74
				C71.632,79.326,71.622,80.257,72.136,80.751"/>
			<path fill-rule="evenodd" clip-rule="evenodd" fill="#FAFBFB" d="M76.292,90.742l0.867-3.844l-2.295,0.173L76.292,90.742z
				 M79.487,83.593l-0.589,0.045c-0.669,2.965-1.381,6.13-2.039,9.046l-0.835,0.064c-1.107-2.845-2.233-5.74-3.347-8.6l-0.612,0.041
				L71.992,83.2c0.98-0.073,1.968-0.129,2.969-0.203l0.073,0.976l-1.336,0.1l0.795,2.044l2.893-0.216l0.493-2.188l-1.177,0.089
				l-0.073-0.977l2.785-0.208L79.487,83.593z"/>
		</g>
	</g>
	<g>
		<g>
			<path fill="#BCBEC0" d="M25.701,45.281l-0.502-6.709l-1.125,0.084l-0.084-1.119l3.197-0.239c0.939-0.07,1.647-0.057,2.125,0.041
				c0.478,0.098,0.891,0.37,1.242,0.816c0.351,0.447,0.549,0.989,0.597,1.627c0.038,0.511-0.032,0.977-0.209,1.397
				c-0.178,0.421-0.413,0.739-0.705,0.955c-0.292,0.216-0.628,0.373-1.007,0.467c-0.378,0.096-0.957,0.172-1.733,0.229l-0.617,0.046
				l0.172,2.303l1.158-0.086l0.083,1.119l-3.634,0.271l-0.083-1.118L25.701,45.281z M26.798,41.796l0.772-0.058
				c0.879-0.065,1.479-0.236,1.799-0.512c0.32-0.276,0.456-0.731,0.409-1.367c-0.03-0.403-0.145-0.73-0.345-0.983
				c-0.2-0.252-0.436-0.405-0.708-0.458c-0.271-0.053-0.718-0.056-1.339-0.01l-0.837,0.063L26.798,41.796z"/>
			<path fill="#BCBEC0" d="M32.265,41.375c-0.097-1.3,0.246-2.418,1.03-3.357c0.784-0.938,1.858-1.458,3.222-1.561
				c1.376-0.103,2.531,0.251,3.462,1.061s1.446,1.873,1.545,3.19c0.1,1.342-0.257,2.483-1.073,3.421
				c-0.816,0.939-1.904,1.459-3.263,1.561c-0.867,0.065-1.679-0.083-2.436-0.442c-0.758-0.36-1.347-0.896-1.767-1.608
				C32.564,42.928,32.325,42.172,32.265,41.375z M33.739,41.271c0.073,0.982,0.422,1.784,1.046,2.406
				c0.625,0.622,1.404,0.898,2.34,0.828c0.926-0.069,1.662-0.466,2.207-1.191c0.545-0.725,0.783-1.558,0.712-2.501
				c-0.071-0.953-0.436-1.735-1.091-2.348c-0.657-0.613-1.443-0.885-2.361-0.817c-0.914,0.068-1.636,0.448-2.166,1.139
				C33.896,39.479,33.667,40.306,33.739,41.271z"/>
			<path fill="#BCBEC0" d="M50.452,40.895l1.213,0.563c-0.188,1.015-0.659,1.825-1.413,2.431c-0.755,0.606-1.648,0.949-2.682,1.026
				c-1.355,0.101-2.476-0.257-3.36-1.075c-0.885-0.818-1.375-1.875-1.472-3.17c-0.106-1.419,0.221-2.58,0.981-3.482
				c0.761-0.902,1.803-1.403,3.129-1.502c1.171-0.087,2.179,0.158,3.024,0.738l-0.061-0.817l1.158-0.087l0.215,2.875l-1.157,0.086
				c-0.301-0.564-0.732-0.985-1.292-1.265c-0.56-0.28-1.136-0.397-1.728-0.354c-0.892,0.067-1.601,0.444-2.125,1.129
				c-0.524,0.687-0.75,1.521-0.676,2.502c0.075,1.008,0.443,1.809,1.104,2.402c0.661,0.593,1.412,0.858,2.252,0.796
				c0.69-0.052,1.302-0.321,1.835-0.807C49.93,42.398,50.282,41.736,50.452,40.895z"/>
			<path fill="#BCBEC0" d="M53.792,43.181l-0.502-6.709l-1.119,0.084l-0.084-1.119l3.622-0.271l0.083,1.12l-1.151,0.085l0.502,6.71
				l1.029-0.077l0.084,1.119l-3.499,0.262l-0.084-1.119L53.792,43.181z M54.918,39.471l2.637-3.318l-1.022,0.076l-0.084-1.119
				l3.506-0.262l0.084,1.119l-0.952,0.071l-2.522,3.31l3.102,3.394l0.958-0.071l0.084,1.119l-3.635,0.272l-0.083-1.119l0.965-0.072
				L54.918,39.471z"/>
			<path fill="#BCBEC0" d="M62.187,42.553l-0.502-6.709l-1.158,0.086l-0.083-1.119l7.436-0.556l0.202,2.695l-1.107,0.083
				l-0.117-1.576l-3.821,0.286l0.199,2.664l3.326-0.249l0.084,1.119l-3.326,0.249l0.219,2.927l3.821-0.286l-0.122-1.627l1.106-0.083
				l0.206,2.746l-7.437,0.556l-0.084-1.119L62.187,42.553z"/>
			<path fill="#BCBEC0" d="M72.009,41.819l-0.501-6.709l-1.847,0.138l0.171,2.284l-1.106,0.083l-0.255-3.403l7.25-0.542l0.255,3.403
				l-1.106,0.083l-0.171-2.284l-1.839,0.138l0.501,6.709l1.164-0.087l0.084,1.119l-3.66,0.273l-0.084-1.119L72.009,41.819z"/>
		</g>
		<path fill="#BCBEC0" d="M35.633,57.051l-5.189,0.388l-0.858,3.344l1.75-0.131l0.135,1.801l-5.674,0.425l-0.135-1.802l1.743-0.13
			l3.112-11.27l-1.741,0.13l-0.121-1.625l7.362-0.551l0.122,1.625l-1.8,0.134l4.851,10.675l1.611-0.12l0.135,1.801l-5.644,0.422
			l-0.134-1.802l1.792-0.134L35.633,57.051z M34.964,55.402l-2.367-5.882L32.4,49.535l-1.545,6.175L34.964,55.402z"/>
		<path fill="#BCBEC0" d="M51.357,55.073l1.952,0.905c-0.302,1.634-1.059,2.938-2.274,3.914c-1.214,0.975-2.654,1.525-4.317,1.649
			c-2.181,0.163-3.984-0.413-5.409-1.729c-1.425-1.316-2.214-3.017-2.371-5.103c-0.17-2.284,0.356-4.153,1.581-5.604
			c1.224-1.453,2.903-2.258,5.036-2.417c1.884-0.141,3.507,0.254,4.868,1.187l-0.098-1.315l1.864-0.139l0.346,4.628l-1.864,0.139
			c-0.484-0.907-1.178-1.585-2.079-2.036c-0.902-0.45-1.828-0.639-2.781-0.568c-1.436,0.107-2.576,0.713-3.42,1.818
			c-0.844,1.104-1.207,2.446-1.089,4.026c0.122,1.622,0.715,2.911,1.778,3.866c1.064,0.955,2.273,1.382,3.626,1.28
			c1.112-0.083,2.097-0.516,2.954-1.299C50.518,57.495,51.083,56.427,51.357,55.073z"/>
		<path fill="#BCBEC0" d="M56.505,58.77L55.698,47.97l-1.863,0.14L53.7,46.308l11.971-0.896l0.324,4.338l-1.781,0.133l-0.19-2.536
			l-6.15,0.46l0.32,4.287l5.354-0.401l0.135,1.801l-5.354,0.4l0.353,4.712l6.15-0.46l-0.195-2.619l1.781-0.134l0.331,4.421
			l-11.971,0.896l-0.135-1.802L56.505,58.77z"/>
		<path fill="#BCBEC0" d="M67.698,59.745l-0.391-5.229l1.803-0.135l0.095,1.273c0.98,1.504,2.168,2.202,3.563,2.098
			c0.71-0.053,1.295-0.315,1.753-0.787c0.457-0.472,0.659-1.06,0.606-1.764c-0.051-0.684-0.288-1.16-0.711-1.431
			c-0.422-0.271-1.2-0.513-2.334-0.727c-1.317-0.248-2.298-0.503-2.941-0.764c-0.645-0.261-1.173-0.662-1.584-1.204
			c-0.413-0.542-0.647-1.203-0.706-1.983c-0.09-1.208,0.239-2.203,0.99-2.984c0.75-0.781,1.733-1.217,2.947-1.308
			c1.153-0.086,2.251,0.206,3.294,0.878l-0.072-0.963l1.761-0.132l0.326,4.369l-1.76,0.132l-0.075-1.003
			c-0.821-1.057-1.881-1.536-3.179-1.439c-0.787,0.059-1.378,0.286-1.771,0.68c-0.395,0.394-0.573,0.843-0.535,1.346
			c0.029,0.387,0.162,0.718,0.397,0.996s0.524,0.473,0.866,0.586c0.342,0.114,1.009,0.257,2.001,0.432
			c1.295,0.236,2.24,0.476,2.834,0.719c0.595,0.244,1.124,0.686,1.588,1.324s0.729,1.394,0.794,2.264
			c0.092,1.229-0.266,2.276-1.072,3.143c-0.807,0.865-1.848,1.346-3.125,1.441c-1.312,0.098-2.527-0.286-3.647-1.153l0.089,1.19
			L67.698,59.745z"/>
		<g>
			<path fill="#BCBEC0" d="M26.737,68.261l-0.159-2.128l-0.356,0.026l-0.026-0.354l1.014-0.076c0.297-0.022,0.522-0.019,0.673,0.013
				c0.151,0.032,0.283,0.118,0.394,0.259c0.111,0.142,0.174,0.313,0.19,0.517c0.012,0.162-0.01,0.31-0.067,0.442
				c-0.056,0.134-0.131,0.234-0.224,0.303c-0.092,0.068-0.198,0.118-0.319,0.148c-0.12,0.03-0.303,0.054-0.549,0.073l-0.196,0.014
				l0.054,0.73l0.367-0.027l0.026,0.355l-1.152,0.086l-0.026-0.354L26.737,68.261z M27.085,67.155l0.245-0.019
				c0.279-0.021,0.469-0.074,0.57-0.162c0.102-0.088,0.146-0.231,0.13-0.434c-0.01-0.127-0.046-0.231-0.109-0.312
				c-0.064-0.079-0.139-0.128-0.224-0.146c-0.086-0.016-0.228-0.018-0.425-0.003l-0.265,0.021L27.085,67.155z"/>
			<path fill="#BCBEC0" d="M29.999,68.017l-0.159-2.127l-0.306,0.022l-0.026-0.354l1.04-0.077l0.026,0.354l-0.306,0.023l0.159,2.128
				l0.306-0.022l0.026,0.354l-1.04,0.078l-0.027-0.355L29.999,68.017z"/>
			<path fill="#BCBEC0" d="M34.281,66.893l0.385,0.178c-0.06,0.322-0.208,0.58-0.448,0.771c-0.239,0.192-0.523,0.301-0.851,0.326
				c-0.429,0.031-0.785-0.082-1.064-0.342c-0.281-0.26-0.437-0.594-0.467-1.005c-0.034-0.45,0.07-0.818,0.311-1.104
				c0.241-0.286,0.571-0.444,0.992-0.476c0.371-0.028,0.691,0.05,0.959,0.233l-0.02-0.259l0.367-0.027l0.068,0.911l-0.367,0.027
				c-0.095-0.178-0.232-0.312-0.41-0.4c-0.177-0.088-0.36-0.126-0.548-0.112c-0.282,0.021-0.507,0.141-0.674,0.358
				c-0.166,0.218-0.238,0.481-0.214,0.793c0.024,0.32,0.141,0.574,0.351,0.761c0.209,0.189,0.447,0.273,0.714,0.254
				c0.218-0.017,0.413-0.103,0.582-0.257C34.116,67.369,34.227,67.159,34.281,66.893z"/>
			<path fill="#BCBEC0" d="M36.764,67.512l-0.159-2.128l-0.586,0.044l0.054,0.724l-0.351,0.026l-0.081-1.079l2.299-0.172l0.08,1.079
				l-0.351,0.026l-0.054-0.725l-0.583,0.044l0.159,2.127l0.37-0.027l0.027,0.355l-1.161,0.086l-0.026-0.354L36.764,67.512z"/>
			<path fill="#BCBEC0" d="M39.717,65.15l0.106,1.42c0.017,0.221,0.039,0.372,0.067,0.454c0.029,0.083,0.091,0.15,0.185,0.203
				c0.094,0.052,0.212,0.073,0.354,0.063c0.168-0.013,0.296-0.048,0.381-0.105c0.086-0.058,0.14-0.131,0.164-0.219
				c0.022-0.088,0.025-0.243,0.009-0.462l-0.107-1.439l-0.328,0.024l-0.026-0.354l1.109-0.083l0.027,0.354l-0.355,0.026l0.111,1.483
				c0.015,0.199,0.017,0.345,0.007,0.437c-0.01,0.093-0.049,0.189-0.117,0.294c-0.067,0.105-0.166,0.191-0.298,0.261
				c-0.132,0.069-0.294,0.111-0.489,0.125c-0.214,0.018-0.395,0.003-0.542-0.042c-0.146-0.045-0.26-0.11-0.339-0.197
				c-0.079-0.087-0.134-0.182-0.166-0.285c-0.032-0.103-0.056-0.264-0.072-0.484l-0.108-1.44l-0.351,0.026l-0.026-0.354l1.116-0.083
				l0.027,0.354L39.717,65.15z"/>
			<path fill="#BCBEC0" d="M43.181,67.031l-0.16-2.128l-0.39,0.029l-0.026-0.354l1.152-0.086c0.241-0.018,0.433-0.014,0.577,0.013
				c0.145,0.027,0.267,0.098,0.369,0.211c0.101,0.113,0.159,0.26,0.172,0.439c0.028,0.374-0.149,0.625-0.532,0.751l0.579,0.995
				l0.347-0.026l0.026,0.355l-0.615,0.046l-0.745-1.277l-0.4,0.029l0.072,0.971l0.364-0.026l0.026,0.354l-1.181,0.088l-0.026-0.354
				L43.181,67.031z M43.51,65.674l0.334-0.025c0.162-0.012,0.28-0.031,0.355-0.059c0.076-0.027,0.135-0.074,0.179-0.143
				c0.044-0.068,0.062-0.157,0.054-0.266c-0.007-0.092-0.038-0.169-0.092-0.229c-0.055-0.061-0.119-0.097-0.193-0.107
				c-0.074-0.012-0.186-0.013-0.335-0.001l-0.363,0.027L43.51,65.674z"/>
			<path fill="#BCBEC0" d="M46.611,66.774l-0.159-2.127l-0.367,0.027l-0.026-0.354l2.358-0.176l0.063,0.854l-0.351,0.026
				l-0.037-0.499l-1.212,0.09l0.063,0.845l1.055-0.079l0.026,0.355l-1.055,0.078l0.069,0.929l1.212-0.091l-0.039-0.516l0.351-0.026
				l0.065,0.87l-2.358,0.177l-0.027-0.354L46.611,66.774z"/>
			<path fill="#BCBEC0" d="M49.78,66.895l-0.077-1.03l0.355-0.026l0.019,0.251c0.193,0.297,0.427,0.434,0.701,0.413
				c0.141-0.01,0.255-0.063,0.345-0.154c0.09-0.094,0.13-0.209,0.12-0.348c-0.01-0.135-0.057-0.229-0.14-0.282
				c-0.083-0.053-0.237-0.101-0.46-0.144c-0.26-0.048-0.452-0.099-0.579-0.15c-0.127-0.051-0.231-0.13-0.312-0.236
				c-0.082-0.106-0.128-0.237-0.139-0.391c-0.018-0.238,0.047-0.435,0.195-0.588c0.148-0.154,0.341-0.24,0.581-0.258
				c0.228-0.018,0.444,0.04,0.649,0.173l-0.015-0.189l0.347-0.026l0.064,0.861l-0.346,0.025l-0.015-0.197
				c-0.163-0.209-0.372-0.303-0.627-0.283c-0.155,0.011-0.271,0.056-0.349,0.133c-0.077,0.078-0.112,0.166-0.105,0.266
				c0.005,0.076,0.031,0.142,0.078,0.195c0.047,0.056,0.104,0.094,0.17,0.117c0.068,0.021,0.199,0.051,0.395,0.084
				c0.254,0.047,0.441,0.094,0.558,0.143c0.117,0.047,0.221,0.134,0.313,0.261c0.092,0.125,0.144,0.274,0.156,0.445
				c0.019,0.242-0.052,0.448-0.21,0.619c-0.159,0.17-0.365,0.265-0.616,0.283c-0.258,0.02-0.498-0.056-0.718-0.227l0.018,0.234
				L49.78,66.895z"/>
			<path fill="#BCBEC0" d="M55.049,66.144l-0.159-2.127l-0.356,0.026l-0.027-0.354l1.014-0.075c0.299-0.022,0.522-0.019,0.674,0.013
				c0.152,0.031,0.283,0.117,0.395,0.258c0.11,0.143,0.174,0.313,0.188,0.517c0.013,0.162-0.01,0.31-0.065,0.443
				c-0.058,0.133-0.132,0.233-0.224,0.302c-0.093,0.069-0.199,0.118-0.32,0.148c-0.119,0.031-0.303,0.055-0.549,0.073l-0.195,0.015
				l0.055,0.73l0.367-0.027l0.026,0.354l-1.153,0.086l-0.026-0.354L55.049,66.144z M55.397,65.039l0.245-0.019
				c0.279-0.021,0.469-0.075,0.571-0.163c0.101-0.087,0.144-0.231,0.129-0.433c-0.01-0.128-0.046-0.232-0.109-0.312
				c-0.063-0.08-0.139-0.129-0.225-0.146s-0.227-0.018-0.425-0.003l-0.266,0.02L55.397,65.039z"/>
			<path fill="#BCBEC0" d="M59.197,66.22l-1.141-2.439l-0.352,0.026l-0.026-0.355l1.12-0.084l0.026,0.355l-0.328,0.024l0.865,1.851
				l0.561-1.958l-0.331,0.025l-0.026-0.354l1.09-0.082l0.026,0.355l-0.345,0.025l-0.745,2.581L59.197,66.22z"/>
			<path fill="#BCBEC0" d="M62.684,65.573l-0.159-2.128l-0.586,0.044l0.055,0.725l-0.352,0.026l-0.08-1.079l2.299-0.172l0.08,1.079
				l-0.351,0.026l-0.054-0.725l-0.584,0.044l0.159,2.127l0.369-0.027l0.026,0.354l-1.16,0.087l-0.027-0.354L62.684,65.573z"/>
			<path fill="#BCBEC0" d="M64.692,65.779l-0.038-0.501l0.502-0.038l0.037,0.502L64.692,65.779z"/>
			<path fill="#BCBEC0" d="M68.721,65.122l-0.159-2.128l-0.367,0.028l-0.026-0.355l1.16-0.087l0.026,0.354l-0.349,0.026l0.159,2.128
				l0.869-0.065l-0.073-0.964l0.4-0.03l0.099,1.319l-2.08,0.155l-0.026-0.354L68.721,65.122z"/>
			<path fill="#BCBEC0" d="M72.325,64.853l-0.159-2.128l-0.584,0.044l0.054,0.725l-0.352,0.026l-0.08-1.079l2.298-0.172l0.081,1.078
				l-0.351,0.027l-0.055-0.725l-0.583,0.043l0.159,2.128l0.369-0.027l0.026,0.354l-1.16,0.087l-0.026-0.354L72.325,64.853z"/>
			<path fill="#BCBEC0" d="M75.042,64.649l-0.159-2.128l-0.385,0.029l-0.026-0.354l1.097-0.082c0.304-0.023,0.538-0.024,0.704-0.007
				c0.167,0.02,0.33,0.079,0.493,0.178c0.161,0.099,0.295,0.24,0.401,0.426c0.105,0.186,0.169,0.401,0.188,0.647
				c0.021,0.28-0.006,0.527-0.079,0.74c-0.072,0.213-0.177,0.376-0.313,0.489c-0.136,0.112-0.302,0.196-0.496,0.251
				c-0.195,0.055-0.445,0.094-0.751,0.116l-1.032,0.078l-0.026-0.355L75.042,64.649z M75.47,64.617l0.225-0.017
				c0.25-0.019,0.447-0.05,0.59-0.092c0.145-0.042,0.264-0.104,0.359-0.188c0.095-0.083,0.168-0.203,0.219-0.36
				c0.052-0.157,0.069-0.338,0.054-0.545c-0.019-0.246-0.085-0.451-0.2-0.615c-0.116-0.163-0.255-0.265-0.42-0.306
				c-0.163-0.04-0.41-0.049-0.742-0.023l-0.243,0.018L75.47,64.617z"/>
			<path fill="#BCBEC0" d="M77.688,64.809l-0.038-0.502l0.502-0.038l0.037,0.502L77.688,64.809z"/>
		</g>
		<g>
			<g>
				<path fill="#FAFBFB" d="M26.062,44.818l-0.502-6.71l-1.125,0.084l-0.084-1.119l3.198-0.239c0.938-0.07,1.647-0.056,2.125,0.042
					c0.477,0.098,0.891,0.37,1.241,0.815c0.351,0.447,0.549,0.989,0.598,1.628c0.038,0.51-0.032,0.976-0.21,1.396
					s-0.413,0.739-0.705,0.955c-0.292,0.217-0.628,0.373-1.007,0.467c-0.378,0.095-0.956,0.171-1.732,0.229l-0.618,0.046
					l0.172,2.304l1.158-0.087l0.083,1.119l-3.634,0.271l-0.084-1.119L26.062,44.818z M27.159,41.333l0.772-0.058
					c0.879-0.066,1.479-0.236,1.799-0.513c0.32-0.276,0.456-0.731,0.409-1.366c-0.03-0.403-0.145-0.73-0.345-0.983
					c-0.2-0.252-0.436-0.405-0.708-0.458c-0.271-0.053-0.718-0.056-1.339-0.009l-0.836,0.062L27.159,41.333z"/>
				<path fill="#FAFBFB" d="M32.626,40.911c-0.097-1.299,0.246-2.418,1.03-3.357c0.784-0.938,1.857-1.458,3.221-1.56
					c1.376-0.103,2.531,0.25,3.463,1.061c0.932,0.81,1.446,1.873,1.545,3.19c0.1,1.342-0.257,2.483-1.074,3.421
					c-0.816,0.939-1.904,1.459-3.263,1.561c-0.866,0.064-1.679-0.083-2.436-0.442c-0.758-0.36-1.347-0.896-1.767-1.608
					C32.925,42.464,32.686,41.709,32.626,40.911z M34.1,40.807c0.073,0.982,0.422,1.785,1.046,2.406s1.404,0.897,2.339,0.828
					c0.926-0.069,1.662-0.466,2.207-1.19s0.783-1.558,0.712-2.501c-0.071-0.953-0.435-1.735-1.091-2.348
					c-0.657-0.613-1.443-0.885-2.36-0.817c-0.914,0.068-1.636,0.448-2.166,1.139C34.257,39.015,34.028,39.843,34.1,40.807z"/>
				<path fill="#FAFBFB" d="M50.813,40.431l1.212,0.563c-0.187,1.015-0.658,1.826-1.413,2.432c-0.754,0.605-1.648,0.948-2.682,1.025
					c-1.356,0.101-2.476-0.257-3.36-1.075c-0.885-0.818-1.376-1.875-1.473-3.17c-0.106-1.419,0.221-2.58,0.981-3.482
					c0.761-0.902,1.804-1.403,3.129-1.502c1.171-0.088,2.179,0.158,3.024,0.738l-0.062-0.816l1.158-0.087l0.215,2.875l-1.158,0.087
					c-0.301-0.564-0.731-0.986-1.292-1.265c-0.56-0.279-1.136-0.397-1.728-0.353c-0.891,0.066-1.6,0.443-2.125,1.129
					c-0.523,0.687-0.75,1.521-0.676,2.502c0.075,1.008,0.444,1.808,1.104,2.401c0.661,0.594,1.412,0.859,2.252,0.796
					c0.69-0.052,1.302-0.321,1.834-0.808C50.291,41.935,50.643,41.272,50.813,40.431z"/>
				<path fill="#FAFBFB" d="M54.153,42.717l-0.502-6.709l-1.119,0.083l-0.083-1.119l3.622-0.271l0.084,1.119l-1.151,0.086
					l0.501,6.71l1.03-0.078l0.083,1.119l-3.499,0.262l-0.084-1.119L54.153,42.717z M55.279,39.007l2.638-3.318l-1.023,0.076
					l-0.083-1.119l3.506-0.262l0.084,1.119l-0.953,0.071l-2.522,3.31l3.103,3.394l0.957-0.071l0.084,1.118l-3.634,0.272
					l-0.084-1.119l0.965-0.072L55.279,39.007z"/>
				<path fill="#FAFBFB" d="M62.548,42.09l-0.502-6.71l-1.158,0.087l-0.083-1.119l7.436-0.556l0.201,2.695l-1.106,0.083
					l-0.117-1.576l-3.821,0.285l0.199,2.664l3.326-0.249l0.083,1.119l-3.325,0.249l0.219,2.927l3.82-0.286l-0.121-1.627l1.106-0.083
					l0.205,2.747l-7.436,0.556l-0.084-1.119L62.548,42.09z"/>
				<path fill="#FAFBFB" d="M72.371,41.355l-0.502-6.71l-1.846,0.138l0.17,2.284l-1.106,0.083l-0.254-3.403l7.25-0.542l0.254,3.403
					l-1.105,0.083l-0.172-2.284l-1.839,0.138l0.501,6.709l1.164-0.087l0.084,1.119l-3.66,0.273l-0.083-1.119L72.371,41.355z"/>
			</g>
			<g>
				<path fill="#FFFFFF" d="M35.995,56.587l-5.189,0.389l-0.858,3.344l1.75-0.131l0.135,1.801l-5.675,0.424l-0.135-1.801
					l1.743-0.131l3.112-11.27l-1.74,0.13l-0.122-1.625l7.362-0.55l0.121,1.625l-1.8,0.134l4.852,10.674l1.611-0.12l0.135,1.802
					l-5.644,0.421l-0.135-1.801l1.792-0.134L35.995,56.587z M35.325,54.939l-2.367-5.883l-0.197,0.015l-1.545,6.176L35.325,54.939z"
					/>
				<path fill="#FFFFFF" d="M51.718,54.609l1.951,0.906c-0.301,1.633-1.059,2.938-2.273,3.914c-1.215,0.976-2.654,1.524-4.318,1.648
					c-2.181,0.163-3.984-0.412-5.409-1.729c-1.424-1.316-2.214-3.017-2.37-5.103c-0.171-2.284,0.355-4.152,1.58-5.604
					c1.224-1.452,2.902-2.258,5.036-2.417c1.885-0.141,3.507,0.254,4.869,1.187l-0.098-1.315l1.863-0.139l0.347,4.628l-1.864,0.139
					c-0.485-0.907-1.178-1.585-2.079-2.036c-0.902-0.449-1.829-0.639-2.781-0.567c-1.436,0.107-2.577,0.713-3.42,1.818
					c-0.845,1.104-1.208,2.447-1.09,4.027c0.122,1.622,0.715,2.911,1.779,3.865c1.064,0.956,2.272,1.383,3.625,1.281
					c1.112-0.083,2.097-0.516,2.955-1.299C50.878,57.031,51.444,55.963,51.718,54.609z"/>
				<path fill="#FFFFFF" d="M56.867,58.307l-0.808-10.8l-1.864,0.14l-0.134-1.802l11.97-0.895l0.325,4.338l-1.782,0.133
					l-0.189-2.536l-6.15,0.46l0.32,4.286l5.354-0.4l0.135,1.802l-5.354,0.4l0.352,4.711l6.151-0.46l-0.195-2.619l1.781-0.134
					l0.33,4.422l-11.971,0.896l-0.135-1.803L56.867,58.307z"/>
				<path fill="#FFFFFF" d="M68.059,59.281l-0.391-5.229l1.802-0.135l0.096,1.273c0.979,1.503,2.167,2.202,3.562,2.098
					c0.71-0.053,1.295-0.316,1.753-0.787c0.457-0.472,0.66-1.06,0.607-1.764c-0.052-0.684-0.288-1.16-0.711-1.431
					s-1.201-0.513-2.334-0.727c-1.317-0.249-2.298-0.503-2.942-0.764c-0.645-0.261-1.173-0.663-1.584-1.204
					c-0.412-0.542-0.646-1.203-0.705-1.983c-0.09-1.208,0.239-2.203,0.989-2.984c0.751-0.781,1.733-1.218,2.948-1.308
					c1.152-0.086,2.251,0.207,3.293,0.878l-0.071-0.963l1.76-0.132l0.327,4.369l-1.76,0.132l-0.075-1.003
					c-0.822-1.057-1.882-1.537-3.18-1.439c-0.787,0.059-1.378,0.286-1.771,0.68s-0.572,0.843-0.534,1.346
					c0.028,0.387,0.161,0.718,0.396,0.996c0.236,0.277,0.525,0.473,0.867,0.586s1.008,0.257,2,0.432
					c1.296,0.236,2.24,0.475,2.835,0.719c0.594,0.244,1.123,0.685,1.588,1.323c0.463,0.64,0.729,1.394,0.793,2.264
					c0.092,1.229-0.266,2.277-1.071,3.143c-0.807,0.866-1.849,1.346-3.126,1.441c-1.312,0.099-2.526-0.286-3.647-1.153l0.09,1.191
					L68.059,59.281z"/>
			</g>
			<g>
				<path fill="#FFFFFF" d="M26.918,67.978l-0.159-2.128l-0.357,0.026l-0.026-0.354l1.015-0.075
					c0.297-0.022,0.521-0.019,0.673,0.013s0.283,0.117,0.394,0.259c0.111,0.142,0.174,0.313,0.189,0.516
					c0.013,0.163-0.01,0.31-0.066,0.443s-0.131,0.234-0.224,0.303s-0.199,0.118-0.319,0.148c-0.12,0.029-0.303,0.054-0.549,0.072
					l-0.196,0.015l0.055,0.731l0.367-0.027l0.026,0.354l-1.152,0.087l-0.026-0.355L26.918,67.978z M27.266,66.872l0.245-0.019
					c0.279-0.021,0.469-0.074,0.571-0.162c0.101-0.088,0.145-0.231,0.129-0.434c-0.01-0.127-0.046-0.231-0.11-0.312
					c-0.063-0.08-0.138-0.128-0.224-0.146c-0.086-0.016-0.228-0.018-0.425-0.003l-0.265,0.021L27.266,66.872z"/>
				<path fill="#FFFFFF" d="M30.18,67.734l-0.159-2.129l-0.306,0.023l-0.026-0.354l1.041-0.078l0.026,0.354l-0.306,0.023
					l0.159,2.128l0.306-0.022l0.026,0.354l-1.04,0.078l-0.027-0.355L30.18,67.734z"/>
				<path fill="#FFFFFF" d="M34.462,66.609l0.385,0.178c-0.06,0.322-0.209,0.579-0.448,0.771c-0.239,0.193-0.522,0.301-0.851,0.326
					c-0.43,0.031-0.785-0.082-1.065-0.342s-0.436-0.595-0.467-1.006c-0.034-0.449,0.07-0.817,0.312-1.104
					c0.241-0.286,0.571-0.444,0.992-0.477c0.371-0.027,0.691,0.051,0.958,0.234l-0.019-0.259l0.367-0.027l0.067,0.911l-0.367,0.027
					c-0.095-0.179-0.232-0.312-0.41-0.401c-0.177-0.088-0.36-0.125-0.547-0.111c-0.283,0.021-0.508,0.141-0.674,0.358
					c-0.166,0.217-0.238,0.481-0.214,0.793c0.024,0.32,0.141,0.574,0.351,0.761c0.209,0.189,0.448,0.273,0.714,0.253
					c0.219-0.016,0.413-0.102,0.582-0.256S34.408,66.876,34.462,66.609z"/>
				<path fill="#FFFFFF" d="M36.945,67.228l-0.159-2.127L36.2,65.144l0.054,0.725l-0.35,0.026l-0.081-1.079l2.299-0.172l0.081,1.079
					l-0.351,0.026l-0.054-0.725l-0.583,0.044l0.159,2.127l0.37-0.027l0.027,0.355l-1.161,0.087l-0.026-0.355L36.945,67.228z"/>
				<path fill="#FFFFFF" d="M39.898,64.867l0.106,1.42c0.016,0.221,0.039,0.372,0.067,0.454c0.029,0.083,0.09,0.15,0.185,0.203
					c0.094,0.052,0.212,0.073,0.354,0.063c0.169-0.013,0.296-0.048,0.382-0.105s0.14-0.131,0.164-0.219
					c0.022-0.089,0.025-0.243,0.009-0.461l-0.107-1.441l-0.329,0.025l-0.026-0.354l1.109-0.083l0.027,0.354l-0.354,0.026
					l0.111,1.483c0.015,0.199,0.017,0.345,0.007,0.437c-0.01,0.093-0.049,0.189-0.117,0.294c-0.067,0.104-0.167,0.191-0.298,0.26
					c-0.132,0.07-0.294,0.111-0.489,0.126c-0.215,0.017-0.396,0.003-0.542-0.042c-0.146-0.045-0.259-0.11-0.339-0.197
					c-0.079-0.087-0.134-0.182-0.166-0.285c-0.032-0.103-0.056-0.264-0.072-0.484l-0.108-1.44l-0.351,0.026l-0.026-0.354
					l1.116-0.084l0.027,0.355L39.898,64.867z"/>
				<path fill="#FFFFFF" d="M43.362,66.748l-0.159-2.128l-0.389,0.029l-0.027-0.354l1.152-0.086
					c0.241-0.018,0.434-0.014,0.578,0.013c0.144,0.027,0.267,0.098,0.369,0.21c0.101,0.114,0.159,0.261,0.172,0.44
					c0.028,0.374-0.149,0.625-0.532,0.75l0.578,0.996l0.347-0.026l0.026,0.354l-0.615,0.046l-0.745-1.276l-0.4,0.029l0.072,0.971
					l0.363-0.027l0.027,0.355l-1.181,0.088l-0.026-0.354L43.362,66.748z M43.69,65.391l0.335-0.025
					c0.162-0.012,0.28-0.031,0.355-0.059c0.076-0.027,0.135-0.074,0.179-0.143c0.044-0.068,0.062-0.157,0.054-0.266
					c-0.007-0.092-0.038-0.169-0.092-0.229c-0.055-0.061-0.119-0.097-0.193-0.108c-0.074-0.011-0.186-0.012-0.335,0l-0.364,0.027
					L43.69,65.391z"/>
				<path fill="#FFFFFF" d="M46.792,66.491l-0.159-2.128l-0.367,0.028l-0.026-0.354l2.358-0.177l0.063,0.854l-0.351,0.026
					l-0.038-0.5l-1.211,0.091l0.063,0.845l1.055-0.079l0.026,0.355l-1.055,0.079l0.069,0.928l1.212-0.091l-0.039-0.516l0.351-0.026
					l0.064,0.87l-2.357,0.177l-0.027-0.354L46.792,66.491z"/>
				<path fill="#FFFFFF" d="M49.961,66.611l-0.077-1.03l0.355-0.026l0.019,0.251c0.193,0.297,0.427,0.434,0.701,0.413
					c0.141-0.011,0.255-0.063,0.345-0.154c0.09-0.094,0.13-0.209,0.12-0.348c-0.01-0.135-0.057-0.229-0.141-0.282
					c-0.083-0.054-0.236-0.101-0.459-0.144c-0.26-0.048-0.453-0.099-0.58-0.15c-0.127-0.051-0.231-0.13-0.313-0.237
					c-0.081-0.105-0.127-0.236-0.139-0.39c-0.018-0.238,0.047-0.435,0.194-0.588c0.148-0.154,0.342-0.24,0.581-0.258
					c0.228-0.018,0.443,0.04,0.649,0.173l-0.014-0.189l0.346-0.026l0.064,0.86l-0.346,0.026l-0.015-0.197
					c-0.163-0.209-0.372-0.303-0.627-0.284c-0.155,0.012-0.271,0.057-0.349,0.133c-0.077,0.079-0.112,0.167-0.105,0.267
					c0.006,0.076,0.032,0.142,0.079,0.195c0.046,0.056,0.104,0.094,0.17,0.117c0.067,0.021,0.199,0.051,0.394,0.084
					c0.255,0.047,0.441,0.094,0.559,0.142c0.117,0.048,0.221,0.136,0.313,0.261c0.091,0.125,0.144,0.274,0.156,0.446
					c0.018,0.242-0.052,0.448-0.211,0.619c-0.159,0.17-0.364,0.265-0.616,0.283c-0.258,0.02-0.498-0.056-0.718-0.227l0.018,0.234
					L49.961,66.611z"/>
				<path fill="#FFFFFF" d="M55.23,65.86l-0.158-2.128l-0.357,0.027l-0.027-0.354l1.014-0.075c0.299-0.022,0.523-0.019,0.674,0.013
					c0.152,0.031,0.283,0.117,0.395,0.258c0.111,0.142,0.174,0.313,0.189,0.517c0.012,0.162-0.011,0.31-0.066,0.443
					c-0.057,0.133-0.131,0.234-0.224,0.302c-0.093,0.069-0.199,0.118-0.32,0.148c-0.119,0.03-0.303,0.055-0.549,0.073l-0.195,0.015
					l0.055,0.73l0.367-0.028l0.026,0.355L54.9,66.242l-0.026-0.354L55.23,65.86z M55.578,64.755l0.245-0.018
					c0.279-0.021,0.469-0.075,0.57-0.163c0.102-0.087,0.145-0.231,0.13-0.433c-0.01-0.128-0.046-0.232-0.109-0.312
					c-0.063-0.08-0.139-0.129-0.224-0.146c-0.087-0.017-0.229-0.018-0.425-0.003l-0.266,0.02L55.578,64.755z"/>
				<path fill="#FFFFFF" d="M59.377,65.937l-1.141-2.44l-0.351,0.026l-0.027-0.354l1.12-0.084l0.026,0.355l-0.328,0.023l0.865,1.852
					l0.561-1.958l-0.33,0.025l-0.027-0.354l1.09-0.082l0.026,0.354l-0.345,0.026l-0.745,2.581L59.377,65.937z"/>
				<path fill="#FFFFFF" d="M62.865,65.29l-0.159-2.128l-0.585,0.044l0.053,0.725l-0.351,0.026l-0.08-1.079l2.299-0.172l0.08,1.079
					l-0.35,0.025l-0.055-0.724l-0.584,0.043l0.159,2.128l0.37-0.027l0.025,0.354l-1.16,0.087l-0.026-0.354L62.865,65.29z"/>
				<path fill="#FFFFFF" d="M64.873,65.496l-0.038-0.501l0.502-0.038l0.037,0.502L64.873,65.496z"/>
				<path fill="#FFFFFF" d="M68.902,64.838l-0.159-2.127l-0.367,0.027l-0.026-0.354l1.16-0.087l0.026,0.354l-0.349,0.026
					l0.159,2.127l0.869-0.064l-0.072-0.965l0.4-0.029l0.099,1.319l-2.081,0.155l-0.026-0.354L68.902,64.838z"/>
				<path fill="#FFFFFF" d="M72.505,64.569l-0.158-2.128l-0.586,0.044l0.055,0.725l-0.352,0.025l-0.08-1.079l2.299-0.171l0.08,1.078
					l-0.351,0.027l-0.054-0.725l-0.584,0.043l0.159,2.128l0.369-0.027l0.026,0.354l-1.16,0.087l-0.026-0.354L72.505,64.569z"/>
				<path fill="#FFFFFF" d="M75.222,64.366l-0.159-2.128l-0.385,0.029l-0.026-0.354l1.098-0.082
					c0.303-0.023,0.537-0.024,0.703-0.006c0.167,0.019,0.33,0.078,0.493,0.177c0.161,0.099,0.295,0.24,0.401,0.425
					c0.105,0.187,0.169,0.402,0.188,0.648c0.021,0.28-0.006,0.526-0.078,0.74c-0.073,0.213-0.178,0.376-0.313,0.488
					c-0.136,0.113-0.301,0.197-0.496,0.252s-0.445,0.094-0.751,0.116l-1.032,0.077l-0.026-0.354L75.222,64.366z M75.652,64.334
					l0.224-0.017c0.25-0.02,0.447-0.05,0.591-0.092s0.264-0.104,0.358-0.188s0.168-0.203,0.219-0.36
					c0.052-0.156,0.069-0.339,0.054-0.545c-0.019-0.247-0.085-0.451-0.2-0.615c-0.116-0.163-0.255-0.265-0.42-0.306
					c-0.163-0.04-0.41-0.049-0.742-0.023l-0.242,0.019L75.652,64.334z"/>
				<path fill="#FFFFFF" d="M77.869,64.525l-0.038-0.502l0.502-0.038l0.038,0.502L77.869,64.525z"/>
			</g>
		</g>
	</g>
</g>
</svg>
