<?xml version="1.0" encoding="utf-8"?>
<!-- Generator: Adobe Illustrator 19.0.0, SVG Export Plug-In . SVG Version: 6.00 Build 0)  -->
<svg version="1.1" id="Layer_1" xmlns="http://www.w3.org/2000/svg" xmlns:xlink="http://www.w3.org/1999/xlink" x="0px" y="0px"
	 viewBox="0 0 102 102" style="enable-background:new 0 0 102 102;" xml:space="preserve">
<style type="text/css">
	.st0{fill-rule:evenodd;clip-rule:evenodd;fill:#FFFFFF;}
</style>
<g>
	<path class="st0" d="M53,51.4L53,51.4c0.5,0,0.9,0.4,0.9,0.9v6h5.2c0.5,0,0.9,0.4,0.9,0.9v0c0,0.5-0.4,0.9-0.9,0.9
		c-2.2,0-3.9,0-6.1,0h0c-0.5,0-0.9-0.4-0.9-0.9v-6.9C52.1,51.8,52.5,51.4,53,51.4L53,51.4z M64.2,51.3c0.6,0,0.8,0.4,0.9,0.9
		l2.1,5.2h0.5c0.5,0,0.9,0.3,0.9,0.8l0,0c0,0.4-0.3,0.7-0.8,0.8l0.1,0.2c0.2,0.5-0.4,0.9-0.9,0.9h0c-0.5,0-0.7-0.4-0.9-0.9l-0.1-0.2
		h-3.7l-0.1,0.2c-0.2,0.5-0.4,0.9-0.9,0.9h0c-0.5,0-1.1-0.4-0.9-0.9l2.8-7C63.4,51.7,63.7,51.3,64.2,51.3L64.2,51.3z M65.5,57.4
		l-1.2-3.1L63,57.4H65.5L65.5,57.4z M74.4,49.6L74.4,49.6c0.5,0,0.9,0.4,0.9,0.9v8.7c0,0.5-0.4,0.9-0.9,0.9h0
		c-0.5,0-0.6-0.4-0.9-0.8l-2.8-4.1v4c0,0.5-0.4,0.9-0.9,0.9h0c-0.5,0-0.9-0.4-0.9-0.9v-6.7c0-0.5,0.3-1,0.9-1h0
		c0.4,0,0.6,0.4,0.9,0.8l2.8,4.2v-6C73.5,50,73.9,49.6,74.4,49.6L74.4,49.6z M79.5,51c2.1,0,3.8,2,3.8,4.5c0,2.5-1.7,4.5-3.8,4.5
		c-2.1,0-3.8-2-3.8-4.5C75.7,53,77.4,51,79.5,51L79.5,51z M79.5,52.6c-1.1,0-1.9,1.3-1.9,3c0,1.6,0.9,3,1.9,3c1.1,0,1.9-1.3,1.9-3
		C81.4,53.9,80.6,52.6,79.5,52.6L79.5,52.6z M100.1,49.6L100.1,49.6c0.5,0,0.9,0.4,0.9,0.9v8.7c0,0.5-0.4,0.9-0.9,0.9h0
		c-0.5,0-0.6-0.4-0.9-0.8l-2.8-4.1v4c0,0.5-0.4,0.9-0.9,0.9h0c-0.5,0-0.9-0.4-0.9-0.9v-6.7c0-0.5,0.3-1,0.9-1h0
		c0.4,0,0.6,0.4,0.9,0.8l2.8,4.2v-6C99.2,50,99.6,49.6,100.1,49.6L100.1,49.6z M84.6,51.4L84.6,51.4c0.5,0,0.9,0.4,0.9,0.9v6h5.2
		c0.5,0,0.9,0.4,0.9,0.9v0c0,0.5-0.4,0.9-0.9,0.9c-2.2,0-3.9,0-6.1,0h0c-0.5,0-0.9-0.4-0.9-0.9v-6.9C83.7,51.8,84.1,51.4,84.6,51.4
		L84.6,51.4z M93,52L93,52c0.5,0,0.9,0.4,0.9,0.9v6.2c0,0.5-0.4,0.9-0.9,0.9h0c-0.5,0-0.9-0.4-0.9-0.9v-6.2C92.1,52.4,92.5,52,93,52
		L93,52z M73,42.3h-2.2l-1.7,2.3l-1.7-2.3h-2.2l2.8,3.8l-2.7,3.7h2.2l1.6-2.2l1.6,2.2h2.2l-2.7-3.7L73,42.3L73,42.3z M55.7,35.7h1.8
		v14.2h-1.8V35.7L55.7,35.7z M59.9,46l3.2-1.8c-0.3-0.2-0.7-0.3-1-0.3C60.9,43.9,59.9,44.8,59.9,46L59.9,46z M62,42.1
		c1.7,0,3.1,1,3.7,2.5l-5.3,3c0.4,0.4,0.9,0.7,1.6,0.7c0.9,0,1.6-0.5,2-1.3l1.6,1c-0.7,1.3-2,2.1-3.5,2.1c-2.2,0-4-1.8-4-4
		C58,43.9,59.8,42.1,62,42.1L62,42.1z M51.3,42.1c2.2,0,4,1.8,4,4c0,2.2-1.8,4-4,4c-2.2,0-4-1.8-4-4C47.3,43.9,49.1,42.1,51.3,42.1
		L51.3,42.1z M51.3,43.9c-1.2,0-2.1,1-2.1,2.1c0,1.2,1,2.1,2.1,2.1c1.2,0,2.1-1,2.1-2.1C53.5,44.9,52.5,43.9,51.3,43.9L51.3,43.9z
		 M42.1,37.5v4.7l2.1,0c1-0.3,1.8-1.2,1.8-2.3c0-1.1-0.7-2.2-1.8-2.3L42.1,37.5L42.1,37.5z M40.2,35.7v14.2h1.8V44l6.4,8.5l1.5-1.1
		l-5.7-7.6c1.9-0.4,3.4-2,3.4-4.1c0-2.1-1.5-3.9-3.5-4.1v0h-0.7h-1.4h-1.4H40.2z"/>
	<path class="st0" d="M40.2,62.3h1.9c0.3,0,0.5,0.1,0.8,0.3c0.2,0.2,0.3,0.4,0.3,0.8c0,0,0,0,0,0c0,0,0,0,0,0c0,0.1,0,0.1,0,0.2
		c0,0.1,0,0.1-0.1,0.2c-0.1,0.2-0.2,0.3-0.3,0.5c-0.2,0.1-0.4,0.2-0.6,0.2h-1.4v1.7h-0.5V62.3L40.2,62.3z M40.8,64.1h1.4
		c0,0,0,0,0.1,0c0.1,0,0.1-0.1,0.2-0.1c0.1-0.1,0.1-0.1,0.2-0.2c0.1-0.1,0.1-0.2,0.1-0.4c0-0.2-0.1-0.3-0.2-0.4
		c-0.1-0.1-0.3-0.1-0.4-0.1h-1.3V64.1L40.8,64.1z M44.4,62.3h2.1c0.3,0,0.5,0.1,0.8,0.3c0.2,0.2,0.3,0.4,0.4,0.7c0,0.1,0,0.1,0,0.2
		c0,0.1,0,0.1,0,0.2c0,0.1-0.1,0.2-0.2,0.3c-0.1,0.1-0.2,0.2-0.4,0.2c0.2,0.1,0.3,0.2,0.4,0.4c0.1,0.2,0.1,0.3,0.1,0.5c0,0,0,0,0,0
		c0,0,0,0,0,0c0,0,0,0,0,0.1c0,0,0,0,0,0.1c0,0.2,0,0.3,0,0.4c0,0.1,0.1,0.2,0.2,0.3v0.1h-0.7c0-0.1,0-0.1-0.1-0.2
		c0-0.1,0-0.2,0-0.2c0,0,0-0.1,0-0.1c0,0,0-0.1,0-0.1c0,0,0,0,0,0c0,0,0,0,0,0c0-0.2,0-0.4-0.1-0.6c-0.1-0.2-0.2-0.3-0.6-0.3h-1.4
		v1.7h-0.5V62.3L44.4,62.3z M46.4,64.1C46.4,64.1,46.4,64.1,46.4,64.1C46.4,64.1,46.4,64.1,46.4,64.1c0.2,0,0.4-0.1,0.5-0.2
		c0.1-0.1,0.2-0.3,0.2-0.4c0,0,0,0,0,0s0,0,0,0c0,0,0,0,0,0c0,0,0,0,0,0c0-0.1-0.1-0.3-0.2-0.4c-0.1-0.1-0.3-0.2-0.6-0.2h-1.3v1.3
		H46.4L46.4,64.1z M48.5,64.1c0-0.1,0-0.1,0-0.2c0-0.1,0-0.1,0-0.2c0.1-0.4,0.3-0.7,0.6-1c0.3-0.3,0.8-0.5,1.4-0.5
		c0.1,0,0.1,0,0.2,0c0.1,0,0.1,0,0.2,0c0.4,0.1,0.8,0.3,1.1,0.6c0.3,0.3,0.5,0.8,0.5,1.4c0,0.5-0.2,1-0.5,1.4
		c-0.4,0.4-0.9,0.6-1.6,0.6c-0.6,0-1.1-0.2-1.4-0.6C48.6,65.3,48.5,64.8,48.5,64.1L48.5,64.1z M49,64.4c0,0.1,0,0.2,0,0.3
		c0,0.1,0,0.2,0.1,0.3c0.1,0.2,0.2,0.4,0.4,0.6c0.2,0.2,0.5,0.3,0.8,0.3c0,0,0.1,0,0.1,0c0,0,0.1,0,0.1,0c0.4,0,0.7-0.2,1-0.5
		c0.3-0.3,0.4-0.8,0.4-1.4c0-0.4-0.2-0.7-0.4-0.9c-0.3-0.3-0.6-0.4-1-0.4c0,0-0.1,0-0.1,0c0,0-0.1,0-0.1,0c-0.3,0.1-0.6,0.2-0.8,0.5
		C49.1,63.5,49,63.9,49,64.4L49,64.4z M55.2,62.3c0,0,0.1,0,0.1,0c0,0,0.1,0,0.1,0c0.3,0.1,0.7,0.3,0.9,0.5c0.3,0.3,0.4,0.7,0.4,1.3
		c0,0.1,0,0.2,0,0.3c0,0.1,0,0.2,0,0.3c-0.1,0.4-0.2,0.7-0.5,1c-0.2,0.3-0.6,0.5-1.2,0.5h-1.7v-3.9H55.2L55.2,62.3z M55.3,65.7
		c0.3,0,0.5-0.1,0.7-0.4c0.2-0.3,0.2-0.6,0.2-1c0,0,0,0,0,0c0,0,0,0,0,0c0-0.4-0.1-0.7-0.3-1c-0.2-0.3-0.5-0.5-0.8-0.5h-1.1v2.9
		H55.3L55.3,65.7z M57.8,62.3h0.6v2.8c0,0.3,0.1,0.5,0.3,0.6c0.2,0.1,0.5,0.2,0.7,0.2c0.3,0,0.5-0.1,0.7-0.2
		c0.2-0.1,0.3-0.4,0.3-0.6v-2.8h0.6v2.8c0,0.4-0.2,0.7-0.5,0.9c-0.3,0.2-0.7,0.3-1.1,0.3c0,0,0,0,0,0c0,0,0,0,0,0
		c-0.4,0-0.7-0.1-1.1-0.3c-0.3-0.2-0.5-0.5-0.6-1V62.3L57.8,62.3z M62,64.3c0-0.1,0-0.2,0-0.2c0-0.1,0-0.2,0-0.2
		c0.1-0.4,0.3-0.7,0.5-1.1c0.3-0.3,0.7-0.5,1.3-0.5c0.1,0,0.2,0,0.3,0c0.1,0,0.2,0.1,0.4,0.1c0.2,0.1,0.4,0.2,0.6,0.4
		c0.2,0.2,0.3,0.4,0.4,0.8H65c-0.1-0.3-0.2-0.5-0.4-0.6c-0.2-0.1-0.4-0.2-0.6-0.2c0,0,0,0,0,0c0,0,0,0,0,0c-0.3,0-0.6,0.2-0.8,0.4
		c-0.3,0.3-0.4,0.6-0.4,1.1c0,0.6,0.1,1,0.4,1.2c0.3,0.3,0.5,0.4,0.8,0.4c0,0,0,0,0,0c0,0,0,0,0,0c0.3,0,0.6-0.1,0.8-0.3
		c0.3-0.2,0.4-0.5,0.4-0.8h0.6c0,0,0,0.1,0,0.1c0,0,0,0.1,0,0.1c-0.1,0.3-0.3,0.6-0.6,0.9c-0.3,0.3-0.6,0.4-1.1,0.4
		c-0.7,0-1.1-0.2-1.5-0.6C62.2,65.3,62,64.9,62,64.3L62,64.3z M67.7,62.7h-1.4v-0.4h3.3v0.4h-1.3v3.5h-0.6V62.7L67.7,62.7z M70.8,65
		c0,0.3,0.1,0.5,0.3,0.7c0.2,0.2,0.5,0.2,0.8,0.2c0,0,0,0,0,0s0,0,0,0c0.2,0,0.5-0.1,0.7-0.2c0.2-0.1,0.3-0.3,0.4-0.5c0,0,0,0,0,0
		c0,0,0,0,0,0c0-0.2-0.1-0.4-0.3-0.5c-0.2-0.1-0.5-0.2-0.8-0.2c0,0-0.1,0-0.1,0c0,0-0.1,0-0.1,0c-0.3-0.1-0.7-0.2-0.9-0.3
		c-0.3-0.1-0.4-0.4-0.4-0.9c0-0.3,0.2-0.5,0.4-0.7c0.2-0.2,0.6-0.3,1.1-0.3c0.5,0,0.9,0.1,1.1,0.3c0.3,0.2,0.4,0.5,0.4,0.9h-0.5
		c0,0,0,0,0,0c0,0,0,0,0,0c0,0,0,0,0,0c0,0,0,0,0,0c0-0.2-0.1-0.4-0.3-0.5c-0.2-0.1-0.4-0.2-0.7-0.2c0,0,0,0,0,0c0,0,0,0,0,0
		c-0.2,0-0.4,0.1-0.6,0.2C71.1,63,71,63.1,71,63.4c0,0.2,0.1,0.3,0.3,0.4c0.2,0.1,0.4,0.1,0.7,0.2c0,0,0.1,0,0.1,0c0,0,0.1,0,0.1,0
		c0.3,0.1,0.6,0.2,0.9,0.3c0.3,0.1,0.4,0.4,0.5,0.7c0,0.4-0.1,0.7-0.5,1c-0.4,0.2-0.7,0.3-1.2,0.3c0,0,0,0,0,0c0,0,0,0,0,0
		c-0.4,0-0.8-0.1-1.2-0.3c-0.4-0.2-0.5-0.6-0.5-1.1H70.8L70.8,65z M77.4,62.3H78v3.4h2v0.5h-2.6V62.3L77.4,62.3z M81,62.3h0.5v3.9
		H81V62.3L81,62.3z M82.8,62.3h0.8l1.2,3.3l1.2-3.3h0.8v3.9h-0.6v-3.1L85,66.2h-0.5l-1.1-3.1v3.1h-0.6V62.3L82.8,62.3z M87.9,62.3
		h0.5v3.9h-0.5V62.3L87.9,62.3z M90.7,62.7h-1.4v-0.4h3.3v0.4h-1.3v3.5h-0.6V62.7L90.7,62.7z M93.5,62.3h2.9v0.4h-2.4V64h2.3v0.5
		h-2.3v1.3h2.4v0.5h-3V62.3L93.5,62.3z M99.3,62.3c0,0,0.1,0,0.1,0c0,0,0.1,0,0.1,0c0.3,0.1,0.7,0.3,0.9,0.5
		c0.3,0.3,0.4,0.7,0.4,1.3c0,0.1,0,0.2,0,0.3c0,0.1,0,0.2,0,0.3c-0.1,0.4-0.2,0.7-0.5,1c-0.2,0.3-0.6,0.5-1.2,0.5h-1.7v-3.9H99.3
		L99.3,62.3z M99.5,65.7c0.3,0,0.5-0.1,0.7-0.4c0.2-0.3,0.2-0.6,0.2-1c0,0,0,0,0,0c0,0,0,0,0,0c0-0.4-0.1-0.7-0.3-1
		c-0.2-0.3-0.5-0.5-0.8-0.5h-1.1v2.9H99.5z"/>
	<path class="st0" d="M1,39.3l34.6,0.1L13.2,56.5L1,39.3L1,39.3z M4.2,41l9.3,13.2L31,41H4.2z"/>
	<path class="st0" d="M22.5,42.1L22.5,42.1c0.7,0,1.3,0.6,1.3,1.3v9.2h7.9c0.7,0,1.3,0.6,1.3,1.3l0,0c0,0.7-0.6,1.3-1.3,1.3h-9.2
		l0,0c-0.7,0-1.3-0.6-1.3-1.3V43.4C21.2,42.7,21.8,42.1,22.5,42.1L22.5,42.1z M14,48.3c3.2-0.4,5.6-3.1,5.6-6.3
		c0-3.4-2.7-6.2-6.1-6.3l-5.2,0v2.8v7.1v2.7v8.6h2.6v-8.4l9,12.3l2.1-1.5L14,48.3L14,48.3z M10.9,38.5l2.6,0
		c1.8,0.1,3.3,1.7,3.3,3.5c0,1.9-1.4,3.4-3.3,3.5v0h-2.6V38.5z"/>
	<path class="st0" d="M32.1,38.1h-0.2v-2.2h-0.5v-0.2h1.2v0.2h-0.5V38.1L32.1,38.1z M32.9,38.1v-2.4h0.4l0.8,2.1l0.8-2.1h0.4v2.4
		h-0.2v-2.2l-0.9,2.2H34l-0.9-2.2v2.2H32.9z"/>
</g>
</svg>
