<?xml version="1.0" encoding="utf-8"?>
<!-- Generator: Adobe Illustrator 16.0.0, SVG Export Plug-In . SVG Version: 6.00 Build 0)  -->
<!DOCTYPE svg PUBLIC "-//W3C//DTD SVG 1.1//EN" "http://www.w3.org/Graphics/SVG/1.1/DTD/svg11.dtd">
<svg version="1.1" xmlns="http://www.w3.org/2000/svg" xmlns:xlink="http://www.w3.org/1999/xlink" x="0px" y="0px" width="102px"
	 height="102px" viewBox="0 0 102 102" enable-background="new 0 0 102 102" xml:space="preserve">
<g id="Layer_2">
</g>
<g id="Layer_1">
	<g>
		<path fill="#CCCCCC" d="M84.056,8.661c-0.548-0.141-1.111-0.21-1.674-0.25c-2.017-0.197-4.022-0.481-6.027-0.758
			c-1.735-0.205-3.479-0.52-5.229-0.38c-0.498,0.074-1.127,0.187-1.314,0.729c-0.36,0.974-0.426,2.03-0.757,3.014
			c-1.077-0.255-2.084-0.727-3.104-1.142c-2.427-1.028-4.796-2.186-7.161-3.344c-2.269-1.082-4.74-1.802-7.265-1.837
			c-3.047-0.224-6.073,0.65-8.799,1.958c-2.338,1.156-4.691,2.283-7.096,3.296c-0.954,0.392-1.901,0.813-2.902,1.072
			c-0.298-1.005-0.428-2.05-0.698-3.062c-0.354-0.517-1.024-0.726-1.63-0.729c-1.754-0.058-3.493,0.238-5.228,0.448
			c-2.457,0.352-4.919,0.671-7.389,0.908c-0.02,0.087-0.057,0.26-0.076,0.347c0.594,0.502,1.278,0.875,1.946,1.268
			c1.208,0.705,2.431,1.385,3.635,2.096c-1.494,1.461-3.07,2.837-4.541,4.324c-0.174,0.18-0.313,0.388-0.444,0.602
			c0.793,0.216,1.594-0.078,2.376-0.205c2.568-0.481,5.153-0.946,7.767-1.079c0.224,0.822,0.326,1.688,0.673,2.471
			c0.607,0.941,1.64,1.593,2.754,1.731c1.892,0.259,3.799-0.208,5.577-0.829c2.746-0.99,5.325-2.377,7.884-3.767
			c1.717-0.916,3.596-1.599,5.549-1.734c2.083,0.142,4.073,0.912,5.887,1.916c1.815,0.991,3.649,1.953,5.546,2.778
			c1.65,0.712,3.351,1.356,5.135,1.64c1.589,0.232,3.387,0.101,4.639-1.015c0.853-0.835,0.923-2.1,1.23-3.188
			c3.224,0.201,6.405,0.817,9.572,1.431c0.316,0.142,0.549-0.333,0.305-0.538c-0.473-0.594-1.062-1.08-1.601-1.608
			c-1.023-0.995-2.105-1.927-3.131-2.92c1.849-1.106,3.77-2.093,5.579-3.262C84.049,8.948,84.054,8.757,84.056,8.661z M70.286,9.236
			c0.838,0.537,1.835,0.7,2.72,1.125c0.449,0.192,0.608,0.675,0.706,1.112c-1.253,0.411-2.576,0.096-3.809-0.231
			C70.023,10.571,70.159,9.904,70.286,9.236z M31.903,11.232c-1.247,0.315-2.625,0.702-3.863,0.146
			c0.128-0.398,0.287-0.843,0.704-1.022c0.902-0.435,1.917-0.612,2.768-1.167C31.63,9.874,31.774,10.551,31.903,11.232z
			 M19.524,16.618c1.541-1.522,3.288-2.833,4.696-4.487c-1.751-1.026-3.522-2.018-5.273-3.045c2.995-0.275,5.955-0.815,8.942-1.152
			c1.15-0.093,2.35-0.284,3.469,0.097c-0.073,0.199-0.067,0.457-0.263,0.588c-0.885,0.677-2.097,0.682-2.987,1.351
			c-0.548,0.402-0.719,1.123-0.737,1.767c0.279,1.193,0.574,2.385,0.842,3.583C25.29,15.534,22.396,16.042,19.524,16.618z
			 M71.992,18.006c-0.405,0.771-1.281,1.178-2.099,1.352c-1.646,0.286-3.313-0.122-4.875-0.625c-2.23-0.754-4.348-1.797-6.418-2.91
			c-1.175-0.625-2.297-1.357-3.547-1.83c-1.695-0.661-3.542-1.197-5.371-0.862c-1.895,0.328-3.703,1.07-5.354,2.047
			c-2.348,1.315-4.752,2.554-7.294,3.455c-1.512,0.515-3.105,0.936-4.716,0.789c-0.93-0.09-1.889-0.48-2.461-1.245
			c-0.265-0.526-0.332-1.126-0.484-1.69c-0.316-1.348-0.619-2.7-0.94-4.046c1.862,0.262,3.695-0.346,5.436-0.938
			c2.914-1.063,5.709-2.417,8.489-3.783c0.901-0.43,1.766-0.948,2.718-1.263c2.303-0.791,4.768-1.218,7.206-0.974
			c1.503,0.137,2.983,0.484,4.409,0.973c0.923,0.302,1.762,0.802,2.634,1.22c2.6,1.287,5.215,2.551,7.925,3.59
			c1.94,0.694,3.984,1.455,6.079,1.173C72.862,14.291,72.519,16.173,71.992,18.006z M77.541,12.133
			c1.411,1.653,3.153,2.973,4.703,4.488c-2.879-0.57-5.774-1.067-8.702-1.297c0.261-1.161,0.472-2.333,0.731-3.493
			c0.153-0.639-0.032-1.369-0.553-1.791c-0.913-0.753-2.229-0.712-3.14-1.47c-0.154-0.111-0.239-0.289-0.198-0.476
			c0.69-0.379,1.519-0.265,2.274-0.253c3.407,0.254,6.764,0.952,10.168,1.246C81.079,10.127,79.294,11.104,77.541,12.133z"/>
		<path fill="#335C70" d="M45.009,9.615c0.087,0.329,0.178,0.658,0.266,0.988c0.269-0.079,0.538-0.159,0.807-0.239
			c-0.105-0.356-0.211-0.709-0.317-1.064C45.512,9.405,45.26,9.51,45.009,9.615z"/>
		<path fill="#CCCCCC" d="M99.094,92.997c-0.83-1.196-1.679-2.377-2.526-3.559c1.477-1.589,2.991-3.144,4.433-4.766
			c-1.433-0.11-2.873-0.08-4.309-0.146c-2.145-0.084-4.292-0.026-6.438-0.07c-0.046-1.02,0.087-2.036,0.069-3.056
			c-0.015-1.186,0.12-2.379-0.04-3.558c-0.192-1.049-1.281-1.636-2.275-1.669c-1.218-0.029-2.416,0.282-3.578,0.616
			c-2.77,0.826-5.411,2.021-8.027,3.236c-0.977,0.454-1.935,0.956-2.949,1.316c0.556-0.654,1.277-1.132,1.892-1.726
			c2.932-2.767,5.094-6.4,5.9-10.366c0.682-3.311,0.588-6.751-0.077-10.058c-0.899-4.146-2.075-8.253-2.494-12.488
			c-0.346-3.198-0.058-6.568,1.39-9.483c0.589-1.188,1.4-2.246,2.275-3.238c0.15-0.214,0.467-0.484,0.199-0.736
			c-1.764-2.037-3.544-4.061-5.316-6.09c-0.96-1.063-1.88-2.169-2.927-3.15c-2.446,0.431-4.936,0.482-7.412,0.394
			c-1.153-0.116-2.307-0.247-3.438-0.508c-4.712-1.017-8.96-3.581-12.542-6.743c-1.534,1.21-3.042,2.465-4.73,3.461
			c-2.699,1.652-5.673,2.885-8.786,3.48c-1.504,0.253-3.031,0.377-4.556,0.337c-1.604,0.034-3.21-0.074-4.794-0.336
			c-0.274-0.035-0.612-0.163-0.818,0.098c-1.118,1.064-2.094,2.265-3.124,3.411c-1.726,1.987-3.463,3.964-5.183,5.958
			c0.699,0.73,1.429,1.447,1.976,2.306c0.985,1.527,1.68,3.247,1.984,5.039c0.328,1.662,0.219,3.358,0.223,5.041
			c-0.246,3.453-1.027,6.84-1.829,10.199c-0.458,1.914-0.949,3.832-1.119,5.799c-0.362,3.471-0.021,7.044,1.204,10.324
			c0.973,2.659,2.792,4.901,4.726,6.926c0.71,0.771,1.587,1.359,2.319,2.105c-0.954-0.356-1.853-0.841-2.773-1.27
			c-2.183-1.025-4.389-2.008-6.663-2.811c-1.562-0.53-3.173-0.994-4.831-1.046c-0.85,0.021-1.832,0.201-2.333,0.968
			c-0.599,0.927-0.281,2.083-0.349,3.117c0.108,1.382,0.122,2.768,0.24,4.148c-1.542-0.009-3.083-0.075-4.625,0.008
			C5.041,84.472,3.017,84.499,1,84.67c0.744,0.957,1.622,1.796,2.428,2.701c0.618,0.693,1.33,1.313,1.875,2.07
			c-0.94,1.352-1.925,2.674-2.856,4.034c-0.376,0.551-0.142,1.052,0.532,0.849c4.627-1.006,9.421-1.08,14.109-0.495
			c1.1,0.096,2.22,0.379,3.319,0.132c0.597-0.116,1.147-0.572,1.26-1.188c0.185-1.549-0.2-3.095-0.083-4.644
			c0.796,0.304,1.57,0.663,2.344,1.021c2.542,1.194,5.088,2.383,7.677,3.473c4.918,2.063,10.034,3.787,15.344,4.467
			c3.282,0.431,6.621,0.291,9.879-0.272c5.814-0.982,11.33-3.186,16.688-5.58c2.284-0.996,4.492-2.162,6.802-3.1
			c0.107,1.507-0.242,3.006-0.086,4.511c0.099,0.757,0.767,1.354,1.516,1.433c1.32,0.143,2.624-0.193,3.935-0.284
			c1.965-0.23,3.941-0.269,5.918-0.231c1.557-0.031,3.109,0.138,4.65,0.342c1.018,0.12,2.015,0.395,3.036,0.491
			c0.251,0.072,0.445-0.203,0.368-0.43C99.527,93.612,99.3,93.308,99.094,92.997z M22.138,37.158
			c-0.65-1.354-1.558-2.573-2.613-3.64c2.653-3.031,5.301-6.066,7.957-9.095c3.151,0.587,6.399,0.688,9.569,0.179
			c-0.489,1.002-1.045,1.979-1.448,3.019c0.193,0.146,0.41,0.003,0.598-0.076c1.178-0.584,2.347-1.187,3.542-1.736
			c-0.848,1.247-1.724,2.476-2.579,3.719c0.041,0.055,0.122,0.165,0.161,0.222c1.887-0.35,3.767-0.739,5.656-1.074
			c-1.119,0.897-2.291,1.729-3.432,2.598c-0.489,0.385-1.055,0.695-1.426,1.21c1.918,0.24,3.859,0.264,5.785,0.433
			c-1.751,0.604-3.535,1.111-5.299,1.675c0,0.073-0.001,0.219-0.003,0.292c1.753,0.667,3.518,1.301,5.26,1.993
			c-1.245,0.024-2.489,0.04-3.734,0.054c-0.669,0.009-1.344-0.022-2.004,0.113c0.526,0.601,1.233,0.997,1.853,1.491
			c1.007,0.78,2.077,1.482,3.044,2.312c-1.969-0.406-3.904-0.969-5.865-1.407c-0.177-0.073-0.471,0.088-0.255,0.264
			c1.117,1.563,2.365,3.032,3.455,4.614c-1.335-0.655-2.619-1.413-3.931-2.111c-0.469-0.237-0.901-0.548-1.399-0.717
			c-0.137,0.067-0.167,0.168-0.088,0.301c0.735,1.803,1.603,3.553,2.294,5.374c-1.062-1.121-1.999-2.355-3.009-3.521
			c-0.4-0.437-0.699-1.013-1.275-1.242c0.186,1.7,0.531,3.381,0.782,5.073c0.416,2.613,0.867,5.222,1.259,7.84
			c-0.773-2.128-1.417-4.302-2.146-6.445c-0.624-1.905-1.261-3.806-1.864-5.717c-0.08-0.01-0.237-0.028-0.316-0.037
			c-0.691,4.453-1.292,8.92-2.017,13.366c-0.058-3.94-0.119-7.882-0.169-11.822c-0.036-0.535,0.133-1.147-0.226-1.605
			c-1.186,2.572-2.164,5.239-3.358,7.808c0.35-2.756,0.781-5.501,1.17-8.251c-0.832,0.495-1.628,1.045-2.444,1.564
			C23.599,41.771,23.203,39.33,22.138,37.158z M20.907,60.669c0.261-1.92,0.845-3.77,1.26-5.658
			c0.804-3.47,1.582-6.983,1.629-10.561c0.616-0.396,1.232-0.79,1.845-1.189c-0.456,3.027-0.886,6.062-1.326,9.092
			c0.078,0.024,0.235,0.071,0.313,0.095c1.172-2.774,2.317-5.56,3.504-8.328c0.072,4.911,0.137,9.821,0.213,14.731
			c0.18-0.078,0.4-0.156,0.374-0.395c0.716-4.828,1.428-9.658,2.154-14.486c1.5,4.471,2.936,8.962,4.416,13.438
			c0.031,0.217,0.239,0.302,0.403,0.411c-0.123-1.498-0.461-2.972-0.668-4.461c-0.556-3.408-1.097-6.819-1.662-10.226
			c1.31,1.581,2.642,3.143,3.953,4.723c0.243,0.229,0.41,0.695,0.808,0.62c-0.033-0.378-0.23-0.709-0.37-1.052
			c-0.784-1.795-1.575-3.587-2.34-5.39c1.718,0.936,3.435,1.877,5.149,2.821c0.222,0.09,0.504,0.373,0.674,0.058
			c-1.21-1.723-2.562-3.348-3.792-5.059c2.212,0.493,4.393,1.13,6.613,1.585c-0.016-0.257-0.185-0.449-0.387-0.585
			c-1.62-1.185-3.222-2.393-4.837-3.582c2.018-0.039,4.036,0,6.051-0.072c0-0.08,0-0.24,0-0.321
			c-1.894-0.699-3.78-1.417-5.668-2.132c1.919-0.582,3.827-1.198,5.745-1.783c0.001-0.08,0.004-0.239,0.005-0.319
			c-2.045-0.146-4.091-0.257-6.135-0.413c1.538-1.157,3.081-2.309,4.625-3.456c0.205-0.144,0.366-0.334,0.481-0.554
			c-0.243,0.003-0.485,0.017-0.723,0.061c-1.821,0.339-3.634,0.72-5.46,1.029c0.599-0.918,1.238-1.808,1.858-2.71
			c0.304-0.459,0.683-0.884,0.839-1.423c-0.547,0.093-1.018,0.395-1.51,0.63c-0.93,0.453-1.854,0.921-2.791,1.36
			c0.367-0.761,0.722-1.529,1.143-2.262c0.111-0.264,0.442-0.235,0.674-0.307c4.822-0.946,9.195-3.478,12.895-6.649
			c3.124,2.676,6.704,4.893,10.661,6.087c4.088,1.265,8.477,1.347,12.67,0.581c2.596,2.959,5.18,5.929,7.776,8.888
			c-1.721,1.736-2.951,3.942-3.527,6.318c-0.723,2.91-0.582,5.959-0.147,8.903c0.396,2.675,1.045,5.303,1.66,7.933
			c0.73,2.635,1.188,5.356,1.184,8.097c-0.015,2.711-0.507,5.438-1.592,7.931c-0.812,1.889-1.955,3.626-3.313,5.166
			c-0.501-0.34-0.987-0.697-1.494-1.026c-1.008,0.871-2.055,1.726-3.279,2.275c0.639-0.855,1.151-1.826,1.329-2.888
			c-0.946-0.396-1.887-0.801-2.831-1.202c0.352-0.514,0.186-1.161,0.338-1.733c0.615-2.847,1.225-5.695,1.846-8.54
			c0.042-0.233,0.104-0.489-0.012-0.71c-0.439-0.706-1.153-1.176-1.653-1.832c-0.19-0.21-0.099-0.512-0.108-0.764
			c0.151-2.802,0.269-5.606,0.435-8.406c0.39-0.334,0.891-0.503,1.326-0.768c-0.08-0.22-0.156-0.435-0.234-0.649
			c-0.682,0.241-1.287,0.824-2.056,0.693c-2.562-0.145-5.129,0.114-7.652,0.551c-0.056-0.758-0.223-1.522-0.113-2.28
			c0.378-1.567,1.253-2.989,2.39-4.121c1.375-1.374,3.067-2.377,4.804-3.222c-0.086-0.21-0.171-0.416-0.256-0.622
			c-2.546,0.882-5.23,1.229-7.891,1.565c-0.332,0.079-0.612-0.146-0.884-0.294c-3.146-1.892-6.326-3.728-9.46-5.638
			c2.645-0.522,5.394-0.53,8.041-0.011c0.065-0.261,0.129-0.522,0.196-0.782c-1.702-0.541-3.253-1.448-4.725-2.445
			c0.702-0.461,1.42-0.9,2.131-1.35c-0.053-0.231-0.104-0.462-0.152-0.692c-2.64,0.038-5.347,0.006-7.895,0.791
			c0.268,1.444,0.493,2.901,0.58,4.37c0.054,0.379-0.284,0.634-0.477,0.917c-1.353,1.722-2.692,3.455-4.043,5.18
			c-1.311,1.687-2.485,3.521-3.147,5.566c-0.5,1.504-0.688,3.124-0.445,4.696c0.2,1.402,0.748,2.721,1.407,3.964
			c-0.749,1.091-1.674,2.234-1.665,3.626c-0.025,0.73,0.593,1.242,1.152,1.597c1.15,0.672,2.508,0.995,3.837,0.913
			c-1.308,1.364-2.342,3.222-2.092,5.17c0.115,1.122,0.708,2.103,1.316,3.021c-0.891-0.352-1.679-0.914-2.404-1.527
			c-0.833,0.732-1.826,1.315-2.931,1.501c-1.548,0.293-3.129-0.111-4.537-0.754c-0.215-0.133-0.437,0.027-0.64,0.1
			c-1.301,0.58-2.761,0.918-4.182,0.656c-1.065-0.179-2.027-0.693-3.012-1.109c-1.357,0.926-2.891,1.585-4.498,1.931
			C20.603,69.609,20.217,65.005,20.907,60.669z M56.366,82.923c1.678-0.474,3.332-1.058,4.895-1.84
			c1.031,0.531,2.147,0.977,3.324,0.974c1.104,0.03,2.178-0.301,3.188-0.718c0.758,0.395,1.531,0.761,2.274,1.18
			c-2.691-0.026-5.38,0.306-7.99,0.955c0.285-0.301,0.596-0.579,0.893-0.867C60.75,82.412,58.548,82.656,56.366,82.923z
			 M43.693,85.853c1.571-0.576,3.165-1.089,4.747-1.642c0.508-0.157,0.997-0.388,1.522-0.486c1.027,0.353,1.999,0.918,3.096,1.039
			c1.131,0.147,2.234-0.219,3.291-0.576c0.275-0.133,0.531,0.078,0.777,0.182c0.877,0.446,1.774,0.851,2.645,1.312
			c-3.237-0.068-6.441,0.522-9.562,1.333c0.699-0.494,1.438-0.929,2.139-1.419C49.471,85.186,46.557,85.5,43.693,85.853z
			 M32.864,81.894c1.347-0.517,2.714-0.975,4.071-1.464c0.941,0.917,2.083,1.785,3.445,1.863c0.728,0.065,1.409-0.219,2.068-0.48
			c1.187,0.56,2.315,1.265,3.461,1.913c-2.49-0.544-5.074-0.678-7.598-0.289c-0.562,0.075-1.115,0.199-1.675,0.281
			c0.601-0.351,1.238-0.633,1.846-0.969C36.671,82.153,34.762,81.942,32.864,81.894z M38.023,79.856
			c0.771-0.365,1.56-0.691,2.34-1.033c0.535,0.387,1.08,0.762,1.606,1.162C40.662,79.792,39.34,79.76,38.023,79.856z M50.226,78.569
			c1.294,0.723,2.688,1.283,4.153,1.532c-3.397-0.146-6.814-0.002-10.164,0.617C46.185,79.912,48.246,79.353,50.226,78.569z
			 M46.095,75.898c1.349-0.601,2.739-1.103,4.101-1.674c0.393,0.797,1.151,1.282,1.9,1.701c-1.08-0.168-2.167-0.318-3.261-0.282
			C47.914,75.645,47.006,75.8,46.095,75.898z M54.515,82.396c-0.743,0.026-1.486,0.026-2.229,0.03
			c-0.794,0.004-1.576,0.152-2.362,0.244c0.777-0.491,1.599-0.905,2.392-1.372C52.978,81.795,53.747,82.104,54.515,82.396z
			 M54.845,78.299c1.075-0.444,2.149-0.889,3.224-1.338c0.941,0.575,1.877,1.158,2.813,1.741
			C58.909,78.234,56.863,78.088,54.845,78.299z M63,79.976c0.73-0.28,1.478-0.521,2.226-0.756c0.67,0.559,1.469,0.922,2.309,1.151
			C66.04,80.075,64.521,79.94,63,79.976z M69.541,79.834c-1.519,0.144-3.116-0.343-4.214-1.43c-0.611,0.338-1.34,0.409-1.994,0.153
			c-1.707-0.602-3.179-1.717-4.515-2.91c-0.096-0.082-0.196-0.153-0.301-0.214c-0.467,0.031-0.896,0.255-1.358,0.319
			c-0.881,0.152-1.791-0.062-2.562-0.494c-1.343-0.743-2.407-1.87-3.575-2.843c-1.021,0.626-2.121,1.207-3.337,1.294
			c-0.579,0.024-1.202,0.09-1.744-0.156c-0.483-0.422-0.598-1.145-0.442-1.742c0.239-0.922,0.848-1.694,1.5-2.365
			c0.185,0.834,0.333,1.677,0.542,2.505c0.208-0.057,0.418-0.108,0.628-0.163c-0.164-0.796-0.327-1.593-0.484-2.39
			c4.873,2.178,9.805,4.219,14.759,6.207c2.662,1.083,5.351,2.104,8.004,3.211C70.166,79.169,69.938,79.595,69.541,79.834z
			 M42.971,61.396c-0.385-0.652-0.354-1.44-0.252-2.163c0.901,1.396,1.958,2.678,2.936,4.019
			C44.626,62.886,43.539,62.378,42.971,61.396z M45.423,63.93c-1.223,0.012-2.478-0.274-3.508-0.95
			c-0.301-0.223-0.663-0.499-0.652-0.913c-0.036-0.716,0.334-1.359,0.676-1.959c0.061,0.836,0.329,1.687,0.936,2.292
			C43.56,63.146,44.518,63.527,45.423,63.93z M61.503,52.987c-0.288,0.056-0.575,0.111-0.86,0.169
			c0.165-1.519,0.23-3.047,0.398-4.565C61.148,50.062,61.396,51.518,61.503,52.987z M61.341,44.83
			c1.689-0.209,3.379-0.44,5.048-0.785c-1.412,0.937-2.733,2.057-3.684,3.473c-0.352,0.507-0.617,1.065-0.901,1.612
			C61.691,47.691,61.479,46.265,61.341,44.83z M69.613,52.978c-1.031,0.927-1.961,2.092-2.139,3.511
			c-0.254,1.812,0.614,3.527,1.591,4.989c-2.36-1.107-5.185-1.192-7.579-0.141c0.187-1.319-0.156-2.655-0.832-3.789
			c-0.165-0.356-0.513-0.682-0.442-1.103c0.113-0.854,0.244-1.707,0.335-2.565C63.519,53.233,66.566,52.833,69.613,52.978z
			 M47.176,63.079c0.591-2.487,1.125-4.988,1.562-7.507c3.328-0.316,6.59-1.138,9.731-2.268c-0.337,1.002,0.06,2.044,0.591,2.896
			c0.145,0.297,0.455,0.571,0.361,0.933c-0.371,2.287-0.853,4.561-1.511,6.783c-1.211-0.811-2.525-1.505-3.954-1.834
			C51.667,61.507,49.249,62.035,47.176,63.079z M51.784,66.283c-1.463-0.83-2.92-1.675-4.342-2.574
			c1.262-0.634,2.632-1.078,4.047-1.179C51.59,63.781,51.707,65.03,51.784,66.283z M45.83,53.654
			c0.995-1.813,1.814-3.877,1.509-5.983c-0.132-1.021-0.702-1.933-1.484-2.587c1.104-0.032,2.204-0.115,3.302-0.229
			c-0.059,2.456-0.269,4.905-0.583,7.341C47.624,52.611,46.716,53.115,45.83,53.654z M48.452,52.991
			c-0.087,0.653-0.188,1.305-0.302,1.954c-1.021,0.054-2.043,0.117-3.065,0.09C46.125,54.229,47.264,53.556,48.452,52.991z
			 M45.899,46.06c0.69,0.809,0.907,1.909,0.812,2.947c-0.169,2.021-1.119,3.89-2.305,5.504C44.209,51.628,44.68,48.688,45.899,46.06
			z M48.042,55.634c-0.402,2.311-0.89,4.605-1.428,6.888c-1.005-2.156-1.718-4.453-2.07-6.807
			C45.711,55.729,46.877,55.709,48.042,55.634z M51.269,52.061c2.115-0.421,4.431-0.296,6.324,0.82
			c-1.991,0.712-4.043,1.25-6.122,1.632C51.412,53.694,51.304,52.88,51.269,52.061z M59.007,54.241
			c0.28-0.077,0.561-0.146,0.844-0.214c-0.069,0.588-0.136,1.177-0.243,1.761C59.313,55.313,59.111,54.789,59.007,54.241z
			 M56.927,64.094c0.25,0.171,0.549,0.3,0.735,0.548c-0.398,1.359-0.95,2.677-1.622,3.926c-1.184-0.604-2.354-1.235-3.522-1.871
			c-0.107-1.393-0.229-2.785-0.332-4.178C53.877,62.591,55.503,63.198,56.927,64.094z M58.294,65.01
			c0.443,0.562,0.807,1.214,0.892,1.937c0.147,1.004-0.179,2-0.594,2.903c-0.65-0.318-1.296-0.645-1.942-0.969
			C57.338,67.654,57.825,66.332,58.294,65.01z M58.92,64.678c-0.146-0.109-0.291-0.217-0.435-0.324
			c0.653-2.159,1.121-4.367,1.524-6.585c0.582,1.038,1.036,2.255,0.77,3.458C60.557,62.548,59.762,63.671,58.92,64.678z
			 M62.796,68.107c-1.124-0.05-2.19,0.396-3.138,0.96c0.368-1.245,0.335-2.634-0.329-3.775c0.45-0.514,0.868-1.057,1.224-1.641
			c2.044,0.113,4.099-0.348,5.929-1.256c-0.952,2.324-0.571,4.9,0.002,7.267C65.43,68.823,64.174,68.132,62.796,68.107z
			 M62.894,71.901c-1.193-0.571-2.398-1.123-3.588-1.702c0.95-0.799,2.115-1.401,3.379-1.433
			C62.755,69.812,62.844,70.855,62.894,71.901z M60.91,62.99c0.122-0.255,0.211-0.529,0.388-0.752
			c0.271-0.203,0.595-0.317,0.9-0.456c0.025,0.386,0.05,0.772,0.074,1.16C61.819,62.97,61.364,62.992,60.91,62.99z M62.872,61.554
			c1.261-0.308,2.587-0.387,3.864-0.116c-1.138,0.743-2.455,1.153-3.777,1.407C62.931,62.414,62.896,61.983,62.872,61.554z
			 M66.791,70.88c0.322,0.343,0.465,0.808,0.717,1.2c0.539,0.94,1.284,1.737,1.862,2.652c-1.792-0.702-3.532-1.53-5.296-2.297
			c-0.172-0.109-0.476-0.146-0.478-0.397c-0.082-1.069-0.129-2.14-0.218-3.207C64.706,69.118,65.854,69.923,66.791,70.88z
			 M67.468,70.441c-0.18-0.376,0.092-0.786,0.417-0.971c0.413-0.241,0.907-0.148,1.36-0.108c-0.023,1.434,0.195,2.855,0.232,4.285
			C68.687,72.665,67.914,71.632,67.468,70.441z M68.096,68.677c-0.382,0.067-0.698,0.303-1.011,0.515
			c-0.379-1.667-0.635-3.394-0.377-5.1c0.924,0.09,1.812,0.459,2.751,0.396c-0.411,1.459-0.168,3.023,0.48,4.376
			C69.342,68.707,68.714,68.545,68.096,68.677z M70.348,69.774c-0.121,0.55-0.239,1.102-0.339,1.657
			c-0.029-0.609-0.076-1.22-0.082-1.827C70.066,69.658,70.206,69.716,70.348,69.774z M69.996,65.269
			c0.093-0.64,0.389-1.222,0.65-1.805c0.277,0.311,0.611,0.58,0.837,0.935c-0.259,1.416-0.586,2.82-0.904,4.225
			C70.092,67.586,69.79,66.416,69.996,65.269z M69.286,63.796c-0.832,0.059-1.617-0.307-2.438-0.379
			c0.195-0.619,0.479-1.207,0.835-1.75c0.872,0.287,1.695,0.712,2.426,1.268C69.924,63.285,69.756,63.771,69.286,63.796z
			 M69.68,61.145c-0.903-1.297-1.708-2.824-1.547-4.454c0.129-1.308,1.003-2.367,1.945-3.213
			C69.951,56.033,69.844,58.592,69.68,61.145z M59.926,53.318c-0.256,0.059-0.513,0.116-0.769,0.172
			c0.119-0.221,0.245-0.438,0.371-0.654c-0.121-0.167-0.24-0.335-0.358-0.502c-0.272,0.071-0.536,0.229-0.82,0.218
			c-1.611-1.019-2.902-2.651-3.271-4.546c-0.213-1.225-0.089-2.534,0.524-3.632c0.325-0.645,0.86-1.141,1.371-1.635
			c1.154,0.691,2.318,1.365,3.467,2.064C60.399,47.647,60.235,50.491,59.926,53.318z M50.421,44.004
			c-0.192-1.833-0.413-3.664-0.612-5.496c2.182,1.264,4.348,2.558,6.51,3.855C54.444,43.191,52.442,43.688,50.421,44.004z
			 M49.378,34.349c1.642-0.33,3.319-0.481,4.993-0.462c-0.53,0.367-1.083,0.702-1.62,1.059c0.938,0.768,1.994,1.373,3.016,2.022
			c-1.96-0.024-3.913,0.159-5.837,0.519C49.754,36.438,49.533,35.398,49.378,34.349z M49.833,44.772
			c1.861-0.24,3.699-0.656,5.477-1.259c-0.703,1.095-1.088,2.397-1.009,3.703c0.058,1.575,0.768,3.051,1.747,4.261
			c-2.233-0.578-4.601-0.323-6.758,0.434C49.588,49.542,49.777,47.159,49.833,44.772z M50.568,52.225
			c0.086,0.799,0.15,1.602,0.229,2.401c-0.644,0.096-1.291,0.183-1.938,0.251c0.122-0.73,0.233-1.463,0.334-2.195
			C49.648,52.518,50.106,52.366,50.568,52.225z M49.164,44.175c-1.333,0.132-2.67,0.224-4.009,0.256
			c1.277-1.695,2.613-3.346,3.897-5.036C49.148,40.986,49.183,42.581,49.164,44.175z M45.219,45.496
			c-0.955,2.069-1.544,4.313-1.666,6.591c-0.205,3.249,0.549,6.476,1.71,9.49c-1.213-1.533-2.388-3.139-3.134-4.96
			c-0.657-1.59-0.89-3.363-0.586-5.063c0.396-2.354,1.607-4.477,3.006-6.374C44.773,45.282,44.996,45.386,45.219,45.496z
			 M46.374,64.711c0.073,0.638,0.133,1.277,0.154,1.922c-0.799,0.574-1.541,1.299-1.89,2.241c-0.178,0.459-0.256,0.946-0.37,1.424
			c-0.239-0.95-0.182-1.965,0.204-2.868C44.894,66.396,45.592,65.497,46.374,64.711z M46.649,67.375
			c0.073,0.402,0.136,0.807,0.194,1.211c-0.71,0.736-1.349,1.543-1.82,2.455C44.827,69.623,45.492,68.198,46.649,67.375z
			 M47.901,68.759c-0.608-0.173-0.421-0.951-0.564-1.424c7.796,3.903,15.907,7.115,23.9,10.579
			c-0.064,0.091-0.198,0.272-0.264,0.364C63.24,75.211,55.498,72.156,47.901,68.759z M47.22,66.52
			c-0.074-0.751-0.141-1.503-0.176-2.256c7.833,4.906,16.295,8.681,24.783,12.293c-0.102,0.25-0.203,0.502-0.307,0.752
			C63.395,73.774,55.133,70.525,47.22,66.52z M39.117,74.877c-1.417-0.18-2.847-0.078-4.254,0.127
			c0.858-0.406,1.724-0.796,2.585-1.193C38.008,74.16,38.561,74.519,39.117,74.877z M24.858,75.4c0.94-0.53,1.919-0.985,2.872-1.493
			c0.784,0.354,1.576,0.693,2.352,1.064C28.329,74.854,26.577,75.054,24.858,75.4z M27.179,77.541
			c1.441-0.426,2.868-0.91,4.251-1.506c0.37-0.141,0.723-0.359,1.12-0.412c1.316,0.657,2.772,1.058,4.252,1.025
			c1.22-0.009,2.434-0.241,3.592-0.628c0.266-0.083,0.554-0.225,0.827-0.073c1.444,0.584,2.906,1.125,4.344,1.725
			c-2.981-0.243-5.983,0.013-8.908,0.61c-1.536,0.282-3.036,0.728-4.553,1.091c1.008-0.688,2.095-1.252,3.114-1.923
			C32.541,77.29,29.847,77.204,27.179,77.541z M20.631,93.271c-0.62,0.32-1.351,0.222-2.017,0.144
			c-5.164-0.747-10.478-0.844-15.595,0.279c1.031-1.453,2.071-2.898,3.103-4.351c-1.291-1.396-2.601-2.774-3.887-4.174
			c3.129-0.132,6.262-0.252,9.394-0.126c0.05,0.661-0.146,1.436,0.341,1.979c0.621,0.695,1.538,0.999,2.379,1.336
			c2.311,0.849,4.763,1.663,6.54,3.453C21.388,92.192,21.106,92.998,20.631,93.271z M12.33,86.042
			c0.234-0.479,0.804-0.642,1.297-0.66c0.854-0.029,1.693,0.188,2.504,0.432c1.652,0.518,3.218,1.266,4.786,1.991
			c0.026,1.074,0.1,2.148,0.15,3.223c-1.512-1.333-3.373-2.17-5.251-2.848c-0.974-0.372-1.991-0.668-2.887-1.212
			C12.625,86.762,12.242,86.454,12.33,86.042z M79.953,87.558c-5.013,2.383-10.021,4.822-15.285,6.605
			c-5.275,1.796-10.879,3-16.476,2.462c-5.432-0.5-10.667-2.21-15.688-4.27c-2.835-1.169-5.611-2.469-8.379-3.781
			c-2.401-1.116-4.753-2.354-7.253-3.238c-1.437-0.47-3.054-0.985-4.525-0.36c-0.134-1.958-0.264-3.916-0.342-5.878
			c-0.022-0.623-0.045-1.351,0.437-1.822c0.551-0.522,1.373-0.537,2.084-0.509c1.595,0.115,3.13,0.617,4.629,1.147
			c4.021,1.482,7.852,3.428,11.664,5.376c1.251,0.637,2.472,1.339,3.786,1.845c4.609,2.175,9.621,3.66,14.742,3.777
			c1.303-0.03,2.608,0.032,3.91-0.041c3.873-0.25,7.666-1.256,11.274-2.656c1.039-0.39,2.029-0.899,3.074-1.275
			c0.965-0.358,1.865-0.86,2.79-1.31c2.779-1.381,5.558-2.769,8.393-4.036c2.058-0.909,4.137-1.79,6.307-2.393
			c0.994-0.258,2.02-0.485,3.053-0.404c0.514,0.047,1.077,0.218,1.373,0.676c0.334,0.52,0.276,1.166,0.268,1.756
			c-0.073,1.887-0.093,3.775-0.226,5.658c-0.741-0.287-1.555-0.361-2.33-0.176c-1.333,0.255-2.593,0.777-3.845,1.287
			C82.225,86.476,81.058,86.954,79.953,87.558z M89.483,86.57c-0.501,0.666-1.34,0.935-2.073,1.26
			c-2.285,0.883-4.683,1.678-6.577,3.294c0.058-1.098,0.086-2.197,0.175-3.292c0.489-0.368,1.095-0.532,1.646-0.784
			c1.454-0.569,2.884-1.231,4.409-1.597c0.647-0.132,1.365-0.262,1.99,0.033C89.431,85.667,89.772,86.175,89.483,86.57z
			 M84.54,93.308c-1.004,0.086-2.043,0.418-3.038,0.107c-0.614-0.174-1.038-1.129-0.458-1.565c1.322-1.234,2.999-1.993,4.664-2.643
			c1.09-0.438,2.218-0.79,3.255-1.348c0.524-0.297,1.074-0.686,1.251-1.293c0.111-0.478,0.045-0.972,0.057-1.455
			c3.135-0.134,6.273-0.027,9.405,0.113c-1.285,1.39-2.574,2.777-3.877,4.152c0.996,1.462,2.073,2.871,3.05,4.347
			C94.148,92.742,89.292,92.709,84.54,93.308z"/>
		<path fill="#FFFFFF" d="M67.251,11.268c-2.71-1.04-5.325-2.303-7.925-3.59c-0.872-0.418-1.71-0.918-2.634-1.22
			c-1.426-0.489-2.906-0.836-4.409-0.973c-2.438-0.244-4.903,0.183-7.206,0.974c-0.953,0.315-1.817,0.833-2.718,1.263
			c-2.78,1.366-5.575,2.721-8.489,3.783c-1.74,0.592-3.574,1.2-5.436,0.938c0.321,1.346,0.624,2.698,0.94,4.046
			c0.152,0.563,0.219,1.164,0.484,1.69c0.572,0.765,1.531,1.155,2.461,1.245c1.611,0.147,3.204-0.274,4.716-0.789
			c2.542-0.9,4.946-2.14,7.294-3.455c1.65-0.977,3.458-1.72,5.354-2.047c1.83-0.335,3.676,0.201,5.371,0.862
			c1.25,0.473,2.372,1.205,3.547,1.83c2.07,1.113,4.188,2.156,6.418,2.91c1.563,0.503,3.229,0.911,4.875,0.625
			c0.817-0.174,1.693-0.581,2.099-1.352c0.526-1.833,0.87-3.716,1.338-5.566C71.235,12.722,69.191,11.962,67.251,11.268z
			 M41.205,14.144c-0.358-0.753-0.718-1.504-1.072-2.259c-0.19,0.096-0.381,0.192-0.571,0.29c0.329,0.863,0.721,1.702,1.018,2.577
			c-0.21-0.041-0.472,0.049-0.641-0.102c-0.155-0.267-0.249-0.563-0.358-0.848c-0.446,0.146-0.915,0.24-1.322,0.482
			c0.433,0.241,0.888,0.44,1.339,0.643c-0.065,0.076-0.196,0.227-0.261,0.303c-0.673-0.346-1.459-0.569-1.95-1.182
			c0.186-0.093,0.374-0.182,0.562-0.27c-0.104-0.259-0.204-0.519-0.302-0.777c-0.337,0.128-0.671,0.263-1.005,0.398
			c0.312,0.89,0.661,1.767,0.954,2.665c-0.208-0.023-0.42-0.024-0.618-0.089c-0.16-0.291-0.252-0.613-0.427-0.895
			c-0.201,0.035-0.396,0.09-0.593,0.14c-0.044,0.211-0.088,0.424-0.136,0.635c-0.316-0.073-0.625-0.173-0.929-0.284
			c0.06-0.167,0.138-0.325,0.183-0.496c-0.065-0.342-0.219-0.657-0.337-0.982c-0.315,0.109-0.631,0.214-0.946,0.316
			c0.288,0.911,0.615,1.812,0.878,2.731c-0.21-0.021-0.418-0.041-0.627-0.063c-0.157-0.538-0.32-1.072-0.484-1.605
			c-0.339,0.109-0.721,0.159-0.992,0.408c-0.144,0.637,0.516,0.999,0.916,1.36c-0.077,0.062-0.23,0.182-0.308,0.242
			c-0.476-0.343-1.043-0.698-1.2-1.302c-0.084-0.251,0.032-0.543,0.278-0.65c0.382-0.181,0.802-0.253,1.208-0.36
			c-0.052-0.2-0.104-0.398-0.152-0.595c-0.709,0.177-1.408,0.394-2.124,0.543c-0.01-0.106-0.031-0.319-0.041-0.425
			c3.101-0.735,6.082-1.91,8.95-3.287c-0.055-0.052-0.108-0.105-0.161-0.159c-0.036-0.036-0.072-0.072-0.108-0.108
			c-0.019-0.018-0.038-0.035-0.056-0.052c-0.029-0.028-0.06-0.055-0.09-0.081c-0.021-0.018-0.042-0.034-0.063-0.05
			s-0.044-0.032-0.066-0.047c-0.42-0.198-0.693,0.005-0.693,0.005l-0.324-0.342H38.53c0.274-0.148,0.596-0.405,0.917-0.219
			c0.368,0.211,0.64,0.545,0.943,0.833c0.288-0.073,0.566-0.001,0.798,0.178c-0.175,0.103-0.351,0.206-0.526,0.309
			c0.392,0.812,0.802,1.614,1.151,2.445C41.61,14.127,41.408,14.136,41.205,14.144z M47.86,11.321
			c-0.262-0.801-0.498-1.612-0.748-2.418c-0.26,0.058-0.519,0.12-0.776,0.183c0.234,0.895,0.517,1.777,0.748,2.675
			c-0.211-0.016-0.421-0.032-0.63-0.049c-0.095-0.337-0.191-0.675-0.291-1.009c-0.243,0.059-0.485,0.119-0.727,0.175
			c-0.008,0.186-0.014,0.373-0.022,0.561c-0.351-0.049-0.681-0.173-0.983-0.353c0.311-0.363,0.188-0.8,0.043-1.203
			c-0.447,0.196-0.889,0.404-1.339,0.591c-0.031-0.097-0.091-0.292-0.12-0.391c1.662-0.741,3.305-1.715,5.167-1.803
			c-0.095,0.23-0.262,0.413-0.458,0.561c0.232,0.842,0.525,1.667,0.752,2.512C48.271,11.344,48.064,11.334,47.86,11.321z
			 M52.731,10.133c-0.274,0.229-0.691,0.133-0.983-0.014c-0.433-0.284-0.517-0.84-0.659-1.298c0.1-0.004,0.301-0.011,0.401-0.017
			c0.12,0.456,0.247,1.076,0.841,1.081c-0.05-0.342-0.164-0.667-0.3-0.983c0.579,0.156,1.33,0.006,1.76,0.497
			c-0.345,0.004-0.688-0.032-1.028-0.081C52.803,9.58,52.973,9.919,52.731,10.133z M69.842,15.605
			c-0.269,0.83-0.541,1.66-0.821,2.487c-0.17-0.106-0.332-0.219-0.488-0.339c0.061-0.246,0.124-0.491,0.188-0.734
			c-0.324-0.107-0.676-0.173-0.949-0.387c-0.295-0.241-0.338-0.64-0.416-0.986c0.273-0.051,0.568-0.045,0.823-0.171
			c0.058-0.145,0.095-0.296,0.138-0.443c-0.319-0.152-0.643-0.299-0.964-0.445c-0.396,0.85-0.733,1.724-1.111,2.581
			c-0.155-0.14-0.308-0.28-0.456-0.422c0.134-0.334,0.268-0.667,0.401-1.001c-0.217-0.089-0.432-0.178-0.646-0.266
			c-0.147,0.107-0.288,0.227-0.451,0.31c-0.294-0.214-0.374-0.589-0.51-0.905c0.164-0.026,0.329-0.05,0.496-0.073
			c0.132-0.332,0.27-0.661,0.412-0.987c-0.358-0.164-0.716-0.331-1.072-0.496c-0.383,0.845-0.746,1.698-1.129,2.542
			c-0.151-0.139-0.301-0.279-0.448-0.418c0.324-0.801,0.699-1.582,1.035-2.378c-0.236-0.11-0.471-0.219-0.705-0.328
			c-0.249,0.544-0.482,1.096-0.771,1.621c-0.411-0.2-0.578-0.618-0.666-1.039c0.176,0.001,0.354,0.008,0.533,0.016
			c0.116-0.284,0.24-0.567,0.364-0.848c-0.341-0.158-0.683-0.309-1.024-0.456c-0.42,0.836-0.764,1.709-1.227,2.524
			c-0.129-0.167-0.271-0.323-0.366-0.508c0.183-0.531,0.472-1.018,0.686-1.537c-0.308-0.048-0.737-0.342-0.968-0.001
			c-0.277,0.462-0.015,1.017-0.018,1.515c-0.555-0.08-0.535-0.703-0.572-1.133c-0.024-0.384,0.069-0.883,0.485-1.021
			c0.44-0.047,0.83,0.234,1.227,0.385c0.067-0.173,0.136-0.346,0.206-0.517c-0.619-0.313-1.254-0.593-1.882-0.889
			c-0.456,0.836-0.771,1.754-1.329,2.533c-0.104-0.168-0.233-0.321-0.295-0.507c0.306-0.781,0.747-1.503,1.084-2.271
			c-0.373-0.178-0.748-0.35-1.125-0.52c-0.384,0.833-0.732,1.681-1.137,2.504c-0.133-0.154-0.281-0.297-0.375-0.476
			c0.237-0.784,0.651-1.502,0.945-2.265c-0.369-0.152-0.739-0.3-1.113-0.436c-0.221,0.877-0.408,1.763-0.668,2.63
			c-0.153-0.143-0.377-0.241-0.453-0.444c0.012-0.228,0.064-0.449,0.107-0.671c-0.37-0.075-0.778-0.12-1.073-0.38
			c-0.243-0.223-0.292-0.57-0.393-0.866c0.31-0.074,0.62-0.152,0.926-0.25c-0.047-0.182-0.083-0.368-0.155-0.541
			c-1.067-0.402-2.213-0.515-3.342-0.613c0.001-0.104,0.003-0.311,0.004-0.415c2.286,0.055,4.469,0.829,6.57,1.667
			c0.001-0.049,0.005-0.097,0.009-0.146c0.001-0.012,0.002-0.024,0.003-0.036c0.004-0.046,0.008-0.093,0.013-0.139
			c0.004-0.042,0.007-0.083,0.009-0.125c0.001-0.012,0.001-0.023,0.002-0.035c0.002-0.047,0.003-0.094,0-0.14
			c0-0.003,0-0.007-0.001-0.01c-0.027-0.408-0.496-0.6-0.496-0.6l0.095-0.463c0.268,0.118,0.65,0.178,0.746,0.504
			c0.087,0.443-0.013,0.896-0.047,1.341c0.339,0.161,0.681,0.324,1.024,0.483c0.132-0.327,0.333-0.729,0.752-0.699
			c0.783,0.099,1.405,0.815,1.538,1.574c-0.446-0.268-0.641-0.79-1.062-1.082c-0.335-0.095-0.575,0.191-0.806,0.376
			c1.696,0.841,3.415,1.638,5.128,2.447c0.073-0.361-0.003-0.95,0.479-1.034c0.511-0.087,0.858,0.37,1.02,0.793
			c-0.259-0.118-0.496-0.281-0.763-0.375c-0.25,0.141-0.329,0.441-0.319,0.711c0.075,0.161,0.274,0.198,0.419,0.286
			c1.719,0.756,3.448,1.505,5.248,2.054c0.001,0.089,0.004,0.268,0.005,0.357C70.178,15.586,70.01,15.595,69.842,15.605z"/>
		<path fill="#F0D6A1" d="M57.389,8.917c0.002,0.046,0.001,0.093,0,0.14C57.39,9.01,57.391,8.963,57.389,8.917z"/>
		<path fill="#F0D6A1" d="M57.377,9.217c0.004-0.042,0.007-0.083,0.009-0.125C57.384,9.134,57.381,9.175,57.377,9.217z"/>
		<path fill="#F0D6A1" d="M57.361,9.392c0.001-0.012,0.002-0.024,0.003-0.036C57.363,9.368,57.362,9.38,57.361,9.392z"/>
		<path fill="#EFEFEF" d="M56.987,7.844l-0.095,0.463c0,0,0.469,0.192,0.496,0.6c-0.003-0.062-0.011-0.124-0.025-0.185
			C57.242,8.427,57.082,8.148,56.987,7.844z"/>
		<path fill="#F0D6A1" d="M40.094,11.405c-0.055-0.052-0.108-0.105-0.161-0.159C39.986,11.3,40.039,11.353,40.094,11.405z"/>
		<path fill="#F0D6A1" d="M39.824,11.138c-0.019-0.018-0.038-0.035-0.056-0.052C39.787,11.103,39.806,11.12,39.824,11.138z"/>
		<path fill="#EFEFEF" d="M38.53,10.571L38.53,10.571l0.325,0.342c0,0,0.273-0.203,0.693-0.005
			c-0.022-0.015-0.042-0.033-0.065-0.046C39.175,10.738,38.842,10.689,38.53,10.571z"/>
		<path fill="#F0D6A1" d="M39.678,11.005c-0.021-0.018-0.042-0.034-0.063-0.05C39.636,10.972,39.657,10.988,39.678,11.005z"/>
		<path fill="#FFFFFF" d="M28.108,9.969c0.89-0.668,2.103-0.673,2.987-1.351c0.196-0.131,0.189-0.389,0.263-0.588
			c-1.119-0.381-2.319-0.19-3.469-0.097c-2.987,0.337-5.947,0.877-8.942,1.152c1.751,1.027,3.522,2.019,5.273,3.045
			c-1.408,1.654-3.156,2.965-4.696,4.487c2.872-0.576,5.766-1.084,8.688-1.299c-0.269-1.197-0.563-2.389-0.842-3.583
			C27.389,11.092,27.56,10.372,28.108,9.969z"/>
		<path fill="#FFFFFF" d="M70.383,8.094c0.69-0.379,1.519-0.265,2.274-0.253c3.407,0.254,6.764,0.952,10.168,1.246
			c-1.746,1.041-3.531,2.018-5.284,3.047c1.411,1.653,3.153,2.973,4.703,4.488c-2.879-0.57-5.774-1.067-8.702-1.297
			c0.261-1.161,0.472-2.333,0.731-3.493c0.153-0.639-0.032-1.369-0.553-1.791c-0.913-0.753-2.229-0.712-3.14-1.47
			C70.427,8.458,70.342,8.281,70.383,8.094"/>
		<path fill="#F0D6A1" d="M54.622,9.85c-0.224,0.108-0.47,0.162-0.708,0.23c0.024,0.114,0.073,0.342,0.097,0.456
			c0.332-0.039,0.658-0.106,0.984-0.187c0.093-0.375,0.185-0.749,0.274-1.124c-0.176-0.059-0.35-0.117-0.522-0.174
			C54.717,9.316,54.749,9.604,54.622,9.85z"/>
		<path fill="#FFFFFF" d="M31.513,9.189c-0.852,0.555-1.866,0.731-2.768,1.167c-0.417,0.179-0.576,0.624-0.704,1.022
			c1.238,0.556,2.616,0.169,3.863-0.146C31.774,10.551,31.63,9.874,31.513,9.189z"/>
		<path fill="#FFFFFF" d="M45.009,9.615c0.087,0.329,0.178,0.658,0.266,0.988c0.269-0.079,0.538-0.159,0.807-0.239
			c-0.105-0.356-0.211-0.709-0.317-1.064C45.512,9.405,45.26,9.51,45.009,9.615z"/>
		<path fill="#FFFFFF" d="M73.006,10.361c-0.885-0.425-1.882-0.589-2.72-1.125c-0.127,0.668-0.263,1.335-0.383,2.006
			c1.232,0.328,2.556,0.643,3.809,0.231C73.614,11.036,73.455,10.553,73.006,10.361z"/>
		<path fill="#F0D6A1" d="M38.188,12.761c0.118,0.279,0.216,0.57,0.374,0.831c0.272,0.169,0.607,0.014,0.778-0.226
			c-0.041-0.336-0.19-0.643-0.295-0.959C38.758,12.521,38.473,12.639,38.188,12.761z"/>
		<path fill="#F0D6A1" d="M35.309,13.88c0.129,0.371,0.264,0.742,0.399,1.114c0.261-0.091,0.521-0.186,0.781-0.282
			c-0.125-0.334-0.227-0.677-0.393-0.991C35.848,13.613,35.564,13.835,35.309,13.88z"/>
		<path fill="#F0D6A1" d="M65.581,15.14c0.25,0.105,0.501,0.211,0.752,0.316c0.149-0.365,0.303-0.727,0.45-1.093
			c-0.257-0.103-0.512-0.208-0.767-0.311C65.87,14.414,65.721,14.774,65.581,15.14z"/>
		<path fill="#F0D6A1" d="M68.618,15.897c-0.228,0.087-0.47,0.124-0.705,0.174c0.009,0.153,0.02,0.309,0.031,0.465
			c0.342,0.006,0.68-0.047,1.013-0.123c0.109-0.352,0.222-0.703,0.336-1.052c-0.179-0.076-0.354-0.15-0.531-0.226
			C68.729,15.391,68.745,15.665,68.618,15.897z"/>
		<path fill="#FFFFFF" d="M29.29,30.112L29.29,30.112c-1.191,0.189-2.28,0.928-2.891,1.968c-0.642,1.059-0.761,2.412-0.321,3.568
			c0.39,1.053,1.231,1.929,2.266,2.364c1.016,0.427,2.198,0.427,3.214,0c1.815-0.729,2.908-2.854,2.422-4.755
			C33.548,31.196,31.364,29.727,29.29,30.112 M27.481,24.424c3.151,0.587,6.399,0.688,9.569,0.179
			c-0.489,1.002-1.045,1.979-1.448,3.019c0.193,0.146,0.41,0.003,0.598-0.076c1.178-0.584,2.347-1.187,3.542-1.736
			c-0.848,1.247-1.724,2.476-2.579,3.719c0.041,0.055,0.122,0.165,0.161,0.222c1.887-0.35,3.767-0.739,5.656-1.074
			c-1.119,0.897-2.291,1.729-3.432,2.598c-0.489,0.385-1.055,0.695-1.426,1.21c1.918,0.24,3.859,0.264,5.785,0.433
			c-1.751,0.604-3.535,1.111-5.299,1.675c0,0.073-0.001,0.219-0.003,0.292c1.753,0.667,3.518,1.301,5.26,1.993
			c-1.245,0.024-2.489,0.04-3.734,0.054c-0.669,0.009-1.344-0.022-2.004,0.113c0.526,0.601,1.233,0.997,1.853,1.491
			c1.007,0.78,2.077,1.482,3.044,2.312c-1.969-0.406-3.904-0.969-5.865-1.407c-0.177-0.073-0.471,0.088-0.255,0.264
			c1.117,1.563,2.365,3.032,3.455,4.614c-1.335-0.655-2.619-1.413-3.931-2.111c-0.469-0.237-0.901-0.548-1.399-0.717
			c-0.137,0.067-0.167,0.168-0.088,0.301c0.735,1.803,1.603,3.553,2.294,5.374c-1.062-1.121-1.999-2.355-3.009-3.521
			c-0.4-0.437-0.699-1.013-1.275-1.242c0.186,1.7,0.531,3.381,0.782,5.073c0.416,2.613,0.867,5.222,1.259,7.84
			c-0.773-2.128-1.417-4.302-2.146-6.445c-0.624-1.905-1.261-3.806-1.864-5.717c-0.08-0.01-0.237-0.028-0.316-0.037
			c-0.691,4.453-1.292,8.92-2.017,13.366c-0.058-3.94-0.119-7.882-0.169-11.822c-0.036-0.535,0.133-1.147-0.226-1.605
			c-1.186,2.572-2.164,5.239-3.358,7.808c0.35-2.756,0.781-5.501,1.17-8.251c-0.832,0.495-1.628,1.045-2.444,1.564
			c-0.023-2.401-0.418-4.842-1.484-7.014c-0.65-1.354-1.558-2.573-2.613-3.64C22.178,30.487,24.825,27.452,27.481,24.424z"/>
		<path fill="#FFFFFF" d="M89.521,77.473c-0.296-0.458-0.859-0.629-1.373-0.676c-1.033-0.081-2.059,0.146-3.053,0.404
			c-2.17,0.603-4.249,1.483-6.307,2.393c-2.835,1.268-5.613,2.655-8.393,4.036c-0.925,0.449-1.825,0.951-2.79,1.31
			c-1.045,0.376-2.035,0.886-3.074,1.275c-3.608,1.4-7.401,2.406-11.274,2.656c-1.302,0.073-2.607,0.011-3.91,0.041
			c-5.122-0.117-10.133-1.603-14.742-3.777c-1.314-0.506-2.535-1.208-3.786-1.845c-3.812-1.948-7.643-3.894-11.664-5.376
			c-1.499-0.53-3.034-1.032-4.629-1.147c-0.712-0.028-1.534-0.014-2.084,0.509c-0.481,0.472-0.458,1.199-0.437,1.822
			c0.078,1.962,0.208,3.92,0.342,5.878c1.471-0.625,3.088-0.109,4.525,0.36c2.5,0.884,4.853,2.122,7.253,3.238
			c2.768,1.313,5.544,2.612,8.379,3.781c5.021,2.06,10.257,3.77,15.688,4.27c5.596,0.538,11.2-0.666,16.476-2.462
			c5.265-1.783,10.272-4.223,15.285-6.605c1.104-0.604,2.271-1.082,3.435-1.56c1.252-0.51,2.512-1.032,3.845-1.287
			c0.775-0.186,1.589-0.111,2.33,0.176c0.133-1.883,0.152-3.771,0.226-5.658C89.797,78.639,89.854,77.992,89.521,77.473z
			 M18.647,82.061c-0.103,0.283-0.276,0.468-0.519,0.556c-0.267,0.097-0.572,0.083-0.914-0.042c-0.454-0.165-0.74-0.396-0.858-0.691
			c-0.085-0.21-0.083-0.436,0.004-0.677l0.56,0.204c-0.041,0.114-0.042,0.221-0.002,0.32c0.061,0.148,0.204,0.264,0.429,0.346
			c0.166,0.061,0.307,0.085,0.422,0.074c0.146-0.014,0.244-0.089,0.292-0.224c0.037-0.101,0.018-0.194-0.056-0.28
			c-0.05-0.057-0.158-0.14-0.323-0.25l-0.274-0.179c-0.273-0.179-0.45-0.325-0.532-0.439c-0.138-0.194-0.156-0.429-0.057-0.704
			c0.079-0.215,0.209-0.373,0.393-0.474c0.261-0.143,0.592-0.142,0.994,0.005c0.381,0.139,0.63,0.352,0.746,0.638
			c0.09,0.221,0.095,0.44,0.015,0.661l-0.56-0.204c0.028-0.116,0.026-0.213-0.004-0.292c-0.054-0.143-0.192-0.255-0.415-0.336
			c-0.132-0.048-0.25-0.064-0.352-0.049c-0.128,0.021-0.213,0.09-0.256,0.206c-0.035,0.097-0.027,0.182,0.022,0.255
			c0.028,0.043,0.084,0.091,0.167,0.145l0.62,0.415c0.21,0.142,0.353,0.276,0.429,0.407C18.722,81.627,18.731,81.83,18.647,82.061z
			 M20.457,83.747l0.478-1.244l-1.082-0.415l-0.478,1.244l-0.58-0.223l1.065-2.774l0.58,0.223l-0.403,1.051l1.082,0.415l0.404-1.051
			l0.58,0.223l-1.065,2.774L20.457,83.747z M24.092,84.547c-0.091,0.216-0.145,0.358-0.161,0.427s0.001,0.125,0.051,0.17
			l-0.031,0.072l-0.632-0.269c0.011-0.082,0.028-0.163,0.05-0.244c0.022-0.08,0.063-0.191,0.124-0.334
			c0.088-0.208,0.125-0.35,0.109-0.426c-0.022-0.103-0.134-0.196-0.335-0.281l-0.59-0.251l-0.455,1.07l-0.56-0.237l1.161-2.735
			l1.383,0.587c0.249,0.105,0.421,0.249,0.515,0.43c0.118,0.224,0.124,0.46,0.018,0.709c-0.064,0.152-0.159,0.272-0.284,0.358
			s-0.264,0.124-0.415,0.114c0.104,0.113,0.164,0.213,0.178,0.3C24.236,84.128,24.194,84.309,24.092,84.547z M24.994,85.682
			l-0.567-0.252l1.209-2.715l0.567,0.252L24.994,85.682z M28.673,87.39l-0.035,0.07l-0.618-0.301
			c0.016-0.082,0.036-0.162,0.063-0.241s0.074-0.188,0.141-0.327c0.099-0.203,0.143-0.343,0.131-0.42
			c-0.017-0.104-0.124-0.203-0.32-0.298l-0.576-0.281l-0.51,1.045l-0.547-0.267l1.303-2.671l1.351,0.658
			c0.243,0.119,0.407,0.271,0.491,0.456c0.106,0.23,0.1,0.466-0.019,0.709c-0.072,0.149-0.173,0.264-0.303,0.343
			c-0.129,0.08-0.27,0.11-0.42,0.093c0.099,0.118,0.153,0.222,0.162,0.309c0.011,0.122-0.04,0.3-0.154,0.533
			c-0.103,0.211-0.164,0.35-0.183,0.417S28.625,87.342,28.673,87.39z M31.459,88.871l-0.606-0.295l0.097-0.635l-0.986-0.48
			l-0.454,0.46l-0.588-0.287l2.259-2.204l0.646,0.315L31.459,88.871z M34.446,90.343l-0.525-0.244l1.049-2.251l-1.56,2.013
			l-0.552-0.257l0.559-2.479l-1.057,2.247l-0.525-0.245l1.256-2.693l0.822,0.383l-0.504,2.351l1.479-1.896l0.814,0.38L34.446,90.343
			z M38.354,89.438c-0.06-0.159-0.194-0.279-0.403-0.359c-0.178-0.068-0.352-0.063-0.521,0.018
			c-0.224,0.106-0.404,0.336-0.539,0.688c-0.105,0.272-0.137,0.514-0.095,0.722c0.048,0.236,0.188,0.4,0.419,0.489
			c0.162,0.063,0.313,0.069,0.453,0.021c0.14-0.048,0.26-0.15,0.361-0.307l0.58,0.223c-0.183,0.293-0.405,0.49-0.666,0.591
			c-0.284,0.109-0.595,0.1-0.933-0.029c-0.384-0.147-0.641-0.387-0.771-0.718c-0.138-0.349-0.117-0.757,0.063-1.226
			s0.443-0.788,0.789-0.957c0.323-0.156,0.673-0.163,1.049-0.019c0.378,0.146,0.638,0.374,0.779,0.685
			c0.12,0.266,0.134,0.518,0.042,0.757l-0.58-0.223C38.396,89.642,38.387,89.523,38.354,89.438z M41.794,91.452
			c-0.125,0.406-0.314,0.706-0.569,0.899c-0.199,0.152-0.434,0.235-0.703,0.248c-0.185,0.01-0.368-0.013-0.55-0.068
			c-0.18-0.055-0.343-0.139-0.491-0.25c-0.216-0.161-0.364-0.361-0.444-0.599c-0.105-0.307-0.097-0.661,0.027-1.065
			c0.124-0.406,0.314-0.706,0.569-0.899c0.199-0.152,0.434-0.235,0.703-0.248c0.185-0.01,0.368,0.014,0.55,0.069
			c0.18,0.055,0.343,0.138,0.491,0.249c0.216,0.161,0.364,0.361,0.444,0.6C41.927,90.693,41.918,91.049,41.794,91.452z
			 M43.982,93.48l-2.053-0.437l0.618-2.907l0.607,0.129l-0.506,2.381l1.445,0.308L43.982,93.48z M46.522,93.894l-2.072-0.328
			l0.465-2.935l0.613,0.097l-0.381,2.403l1.459,0.231L46.522,93.894z M49.363,91.664l-1.573-0.109l-0.043,0.623l1.445,0.102
			l-0.037,0.524l-1.445-0.102l-0.053,0.768l1.643,0.115l-0.037,0.524l-2.25-0.157l0.207-2.965l2.18,0.153L49.363,91.664z
			 M52.481,94.096h-0.414l-0.063-0.372c-0.118,0.138-0.225,0.235-0.318,0.293c-0.168,0.105-0.371,0.158-0.608,0.158
			c-0.384,0-0.701-0.129-0.952-0.386c-0.276-0.281-0.414-0.672-0.414-1.171c0-0.441,0.116-0.805,0.348-1.089
			c0.262-0.322,0.63-0.484,1.105-0.484c0.414,0,0.745,0.116,0.993,0.349c0.207,0.192,0.311,0.411,0.311,0.653h-0.621
			c0-0.086-0.052-0.181-0.157-0.285c-0.135-0.136-0.299-0.203-0.492-0.203c-0.243,0-0.44,0.083-0.592,0.248
			c-0.174,0.19-0.261,0.464-0.261,0.82c0,0.372,0.091,0.644,0.273,0.814c0.146,0.139,0.344,0.207,0.592,0.207
			c0.13,0,0.25-0.033,0.36-0.099c0.185-0.11,0.305-0.296,0.36-0.555h-0.691v-0.501h1.242V94.096z M53.134,94.021l-0.311-2.955
			l2.173-0.229l0.055,0.522l-1.569,0.165l0.066,0.621l1.44-0.151l0.055,0.523l-1.441,0.151l0.081,0.766l1.638-0.173l0.055,0.523
			L53.134,94.021z M59.192,92.622c-0.105,0.229-0.273,0.411-0.505,0.55c-0.159,0.095-0.332,0.161-0.518,0.197
			c-0.184,0.036-0.368,0.039-0.551,0.01c-0.266-0.041-0.491-0.147-0.673-0.32c-0.237-0.221-0.396-0.538-0.476-0.953
			c-0.081-0.417-0.054-0.771,0.08-1.061c0.105-0.229,0.273-0.412,0.505-0.55c0.159-0.095,0.331-0.161,0.518-0.197
			c0.184-0.036,0.368-0.039,0.55-0.01c0.267,0.04,0.491,0.147,0.674,0.32c0.237,0.221,0.396,0.538,0.476,0.952
			C59.354,91.979,59.327,92.332,59.192,92.622z M60.686,92.695l-0.6,0.16l-0.769-2.87l2.043-0.548l0.136,0.508l-1.443,0.387
			l0.174,0.647l1.263-0.338l0.137,0.508l-1.264,0.338L60.686,92.695z M65.394,90.94c-0.146,0.267-0.392,0.459-0.733,0.576
			c-0.389,0.134-0.739,0.116-1.052-0.054c-0.329-0.178-0.576-0.505-0.74-0.979c-0.163-0.475-0.166-0.888-0.011-1.239
			c0.147-0.328,0.411-0.558,0.792-0.688c0.384-0.132,0.729-0.124,1.037,0.023c0.262,0.126,0.435,0.31,0.519,0.553l-0.587,0.202
			c-0.087-0.125-0.171-0.21-0.25-0.256c-0.148-0.083-0.328-0.088-0.54-0.016c-0.18,0.063-0.309,0.179-0.388,0.349
			c-0.104,0.226-0.094,0.517,0.029,0.874c0.096,0.276,0.226,0.481,0.392,0.613c0.188,0.151,0.4,0.187,0.636,0.105
			c0.164-0.057,0.284-0.148,0.36-0.275s0.103-0.282,0.08-0.467l0.587-0.202C65.572,90.401,65.528,90.695,65.394,90.94z
			 M68.415,89.45c-0.059,0.244-0.189,0.456-0.391,0.636c-0.138,0.124-0.294,0.222-0.471,0.293c-0.174,0.07-0.354,0.108-0.538,0.114
			c-0.27,0.011-0.511-0.051-0.723-0.186c-0.274-0.172-0.491-0.453-0.649-0.845c-0.159-0.394-0.2-0.746-0.123-1.057
			c0.059-0.244,0.189-0.456,0.391-0.636c0.137-0.124,0.294-0.222,0.471-0.293c0.174-0.07,0.354-0.108,0.538-0.114
			c0.27-0.012,0.511,0.051,0.723,0.186c0.274,0.172,0.491,0.453,0.649,0.845C68.451,88.787,68.492,89.14,68.415,89.45z
			 M71.438,88.573l-1.01-2.269l0.496,2.498l-0.557,0.247l-1.505-2.048l1.002,2.272l-0.529,0.235l-1.208-2.715l0.828-0.368
			l1.442,1.921l-0.46-2.359l0.821-0.365l1.208,2.715L71.438,88.573z M74.667,87.125l-1.01-2.269l0.495,2.498l-0.556,0.247
			l-1.505-2.048l1.002,2.271l-0.529,0.236l-1.208-2.715l0.827-0.369l1.443,1.922l-0.46-2.359l0.82-0.365l1.209,2.715L74.667,87.125z
			 M75.781,86.605L74.62,83.87l2.012-0.854l0.205,0.483l-1.451,0.616l0.244,0.575l1.333-0.565l0.206,0.483l-1.334,0.566l0.301,0.708
			l1.517-0.644l0.205,0.484L75.781,86.605z M80.036,84.819c-0.051-0.066-0.096-0.136-0.138-0.208
			c-0.041-0.072-0.091-0.181-0.148-0.324c-0.085-0.21-0.159-0.336-0.225-0.378c-0.088-0.057-0.233-0.044-0.436,0.038l-0.595,0.24
			l0.436,1.078l-0.563,0.228l-1.113-2.755l1.393-0.563c0.251-0.102,0.474-0.122,0.668-0.061c0.241,0.075,0.413,0.238,0.515,0.489
			c0.062,0.153,0.079,0.305,0.052,0.454s-0.099,0.273-0.213,0.374c0.154,0.006,0.267,0.034,0.338,0.086
			c0.099,0.073,0.196,0.23,0.293,0.471c0.088,0.218,0.15,0.356,0.188,0.415c0.037,0.06,0.089,0.088,0.156,0.084l0.029,0.073
			L80.036,84.819z M83.065,83.331c-0.139,0.271-0.376,0.472-0.713,0.602c-0.385,0.147-0.735,0.142-1.054-0.017
			c-0.335-0.167-0.594-0.484-0.773-0.953c-0.18-0.47-0.198-0.882-0.054-1.238c0.135-0.333,0.391-0.571,0.767-0.716
			c0.379-0.146,0.725-0.149,1.037-0.013c0.267,0.116,0.445,0.295,0.537,0.534l-0.579,0.223c-0.091-0.122-0.178-0.204-0.259-0.247
			c-0.151-0.078-0.331-0.076-0.54,0.004c-0.177,0.068-0.303,0.188-0.375,0.361c-0.096,0.229-0.075,0.52,0.06,0.872
			c0.105,0.273,0.242,0.473,0.413,0.6c0.193,0.145,0.406,0.172,0.639,0.083c0.162-0.063,0.279-0.158,0.351-0.287
			c0.071-0.13,0.093-0.286,0.063-0.47l0.579-0.223C83.225,82.786,83.191,83.081,83.065,83.331z M84.036,83.191l-0.967-2.81
			l2.065-0.712l0.172,0.497l-1.491,0.514l0.203,0.591l1.37-0.472l0.171,0.497l-1.369,0.472l0.25,0.728l1.558-0.536l0.171,0.497
			L84.036,83.191z"/>
		<path fill="#FFFFFF" d="M2.234,85.17c3.129-0.132,6.262-0.252,9.394-0.126c0.05,0.661-0.146,1.436,0.341,1.979
			c0.621,0.695,1.538,0.999,2.379,1.336c2.311,0.849,4.763,1.663,6.54,3.453c0.5,0.38,0.218,1.186-0.257,1.459
			c-0.62,0.32-1.351,0.222-2.017,0.144c-5.164-0.747-10.478-0.844-15.595,0.279c1.031-1.453,2.071-2.898,3.103-4.351
			C4.831,87.948,3.521,86.569,2.234,85.17"/>
		<path fill="#FFFFFF" d="M90.271,85.111c3.135-0.134,6.273-0.027,9.405,0.113c-1.285,1.39-2.574,2.777-3.877,4.152
			c0.996,1.462,2.073,2.871,3.05,4.347c-4.7-0.981-9.557-1.015-14.309-0.416c-1.004,0.086-2.043,0.418-3.038,0.107
			c-0.614-0.174-1.038-1.129-0.458-1.565c1.322-1.234,2.999-1.993,4.664-2.643c1.09-0.438,2.218-0.79,3.255-1.348
			c0.524-0.297,1.074-0.686,1.251-1.293C90.325,86.089,90.259,85.595,90.271,85.111"/>
		<path fill="#FFFFFF" d="M12.33,86.042c0.234-0.479,0.804-0.642,1.297-0.66c0.854-0.029,1.693,0.188,2.504,0.432
			c1.652,0.518,3.218,1.266,4.786,1.991c0.026,1.074,0.1,2.148,0.15,3.223c-1.512-1.333-3.373-2.17-5.251-2.848
			c-0.974-0.372-1.991-0.668-2.887-1.212C12.625,86.762,12.242,86.454,12.33,86.042"/>
		<path fill="#FFFFFF" d="M87.063,85.451c0.647-0.132,1.365-0.262,1.99,0.033c0.377,0.183,0.719,0.69,0.43,1.086
			c-0.501,0.666-1.34,0.935-2.073,1.26c-2.285,0.883-4.683,1.678-6.577,3.294c0.058-1.098,0.086-2.197,0.175-3.292
			c0.489-0.368,1.095-0.532,1.646-0.784C84.108,86.479,85.538,85.816,87.063,85.451"/>
		<path fill="#AAAAAA" d="M29.29,30.112c2.074-0.386,4.258,1.084,4.69,3.146c0.485,1.901-0.607,4.025-2.422,4.755
			c-1.016,0.427-2.198,0.427-3.214,0c-1.035-0.436-1.876-1.312-2.266-2.364c-0.439-1.156-0.32-2.51,0.321-3.568
			C27.01,31.04,28.099,30.302,29.29,30.112"/>
		<path fill="#AAAAAA" d="M49.378,34.349c1.642-0.33,3.319-0.481,4.993-0.462c-0.53,0.367-1.083,0.702-1.62,1.059
			c0.938,0.768,1.994,1.373,3.016,2.022c-1.96-0.024-3.913,0.159-5.837,0.519C49.754,36.438,49.533,35.398,49.378,34.349"/>
		<path fill="#AAAAAA" d="M47.044,64.264c7.833,4.906,16.295,8.681,24.783,12.293c-0.102,0.25-0.203,0.502-0.307,0.752
			c-8.126-3.534-16.387-6.783-24.3-10.789C47.146,65.769,47.08,65.017,47.044,64.264"/>
		<path fill="#AAAAAA" d="M44.471,67.43c0.423-1.034,1.121-1.933,1.903-2.719c0.073,0.638,0.133,1.277,0.154,1.922
			c-0.799,0.574-1.541,1.299-1.89,2.241c-0.178,0.459-0.256,0.946-0.37,1.424C44.028,69.348,44.086,68.333,44.471,67.43"/>
		<path fill="#AAAAAA" d="M47.687,69.398c4.873,2.178,9.805,4.219,14.759,6.207c2.662,1.083,5.351,2.104,8.004,3.211
			c-0.283,0.353-0.511,0.778-0.908,1.018c-1.519,0.144-3.116-0.343-4.214-1.43c-0.611,0.338-1.34,0.409-1.994,0.153
			c-1.707-0.602-3.179-1.717-4.515-2.91c-0.096-0.082-0.196-0.153-0.301-0.214c-0.467,0.031-0.896,0.255-1.358,0.319
			c-0.881,0.152-1.791-0.062-2.562-0.494c-1.343-0.743-2.407-1.87-3.575-2.843c-1.021,0.626-2.121,1.207-3.337,1.294
			c-0.579,0.024-1.202,0.09-1.744-0.156c-0.483-0.422-0.598-1.145-0.442-1.742c0.239-0.922,0.848-1.694,1.5-2.365
			c0.185,0.834,0.333,1.677,0.542,2.505c0.208-0.057,0.418-0.108,0.628-0.163C48.006,70.992,47.844,70.195,47.687,69.398"/>
		<path fill="#FFFFFF" d="M35.309,13.88c0.129,0.371,0.264,0.742,0.399,1.114c0.261-0.091,0.521-0.186,0.781-0.282
			c-0.125-0.334-0.227-0.677-0.393-0.991C35.848,13.613,35.564,13.835,35.309,13.88z"/>
		<path fill="#FFFFFF" d="M38.188,12.761c0.118,0.279,0.216,0.57,0.374,0.831c0.272,0.169,0.607,0.014,0.778-0.226
			c-0.041-0.336-0.19-0.643-0.295-0.959C38.758,12.521,38.473,12.639,38.188,12.761z"/>
		<path fill="#FFFFFF" d="M68.618,15.897c-0.228,0.087-0.47,0.124-0.705,0.174c0.009,0.153,0.02,0.309,0.031,0.465
			c0.342,0.006,0.68-0.047,1.013-0.123c0.109-0.352,0.222-0.703,0.336-1.052c-0.179-0.076-0.354-0.15-0.531-0.226
			C68.729,15.391,68.745,15.665,68.618,15.897z"/>
		<path fill="#FFFFFF" d="M65.581,15.14c0.25,0.105,0.501,0.211,0.752,0.316c0.149-0.365,0.303-0.727,0.45-1.093
			c-0.257-0.103-0.512-0.208-0.767-0.311C65.87,14.414,65.721,14.774,65.581,15.14z"/>
		<path fill="#FFFFFF" d="M54.622,9.85c-0.224,0.108-0.47,0.162-0.708,0.23c0.024,0.114,0.073,0.342,0.097,0.456
			c0.332-0.039,0.658-0.106,0.984-0.187c0.093-0.375,0.185-0.749,0.274-1.124c-0.176-0.059-0.35-0.117-0.522-0.174
			C54.717,9.316,54.749,9.604,54.622,9.85z"/>
		<path fill="#FFFFFF" d="M79.108,82.689c-0.103-0.057-0.229-0.054-0.381,0.007l-0.718,0.29l0.298,0.736l0.676-0.272
			c0.153-0.063,0.254-0.137,0.303-0.223c0.048-0.087,0.045-0.198-0.01-0.333C79.238,82.8,79.183,82.731,79.108,82.689z"/>
		<path fill="#FFFFFF" d="M67.147,87.958c-0.183-0.075-0.372-0.072-0.569,0.007c-0.194,0.079-0.332,0.209-0.413,0.391
			c-0.104,0.235-0.086,0.527,0.055,0.875s0.33,0.57,0.568,0.667c0.183,0.076,0.372,0.073,0.568-0.006
			c0.194-0.079,0.333-0.209,0.414-0.391c0.104-0.235,0.086-0.527-0.055-0.875S67.386,88.056,67.147,87.958z"/>
		<path fill="#FFFFFF" d="M58.232,90.916c-0.165-0.108-0.351-0.143-0.56-0.103c-0.206,0.04-0.366,0.142-0.48,0.305
			c-0.147,0.211-0.185,0.501-0.113,0.869s0.215,0.623,0.431,0.764c0.165,0.108,0.351,0.143,0.56,0.103
			c0.206-0.04,0.366-0.142,0.481-0.305c0.147-0.211,0.185-0.501,0.113-0.869C58.591,91.311,58.448,91.057,58.232,90.916z"/>
		<path fill="#FFFFFF" d="M40.733,90.041c-0.201-0.061-0.39-0.047-0.567,0.043c-0.229,0.118-0.399,0.356-0.508,0.715
			c-0.11,0.359-0.103,0.651,0.022,0.877c0.094,0.173,0.243,0.29,0.446,0.353c0.201,0.062,0.39,0.047,0.567-0.043
			c0.229-0.117,0.398-0.355,0.508-0.715c0.11-0.358,0.103-0.65-0.022-0.876C41.084,90.221,40.936,90.104,40.733,90.041z"/>
		<polygon fill="#FFFFFF" points="31.02,87.404 31.204,86.187 30.339,87.072 		"/>
		<path fill="#FFFFFF" d="M28.983,85.045c-0.027-0.114-0.114-0.207-0.26-0.278l-0.695-0.34l-0.349,0.715l0.655,0.319
			c0.149,0.072,0.271,0.098,0.368,0.075c0.097-0.021,0.177-0.099,0.241-0.229C28.987,85.215,29.001,85.128,28.983,85.045z"/>
		<path fill="#FFFFFF" d="M23.896,82.521l-0.712-0.303l-0.311,0.731l0.67,0.285c0.152,0.064,0.276,0.083,0.372,0.056
			c0.095-0.026,0.172-0.107,0.229-0.242c0.04-0.094,0.049-0.182,0.026-0.263C24.137,82.673,24.046,82.585,23.896,82.521z"/>
	</g>
</g>
</svg>
