<?xml version="1.0" encoding="utf-8"?>
<!-- Generator: Adobe Illustrator 16.0.0, SVG Export Plug-In . SVG Version: 6.00 Build 0)  -->
<!DOCTYPE svg PUBLIC "-//W3C//DTD SVG 1.1//EN" "http://www.w3.org/Graphics/SVG/1.1/DTD/svg11.dtd">
<svg version="1.1" id="Layer_1" xmlns="http://www.w3.org/2000/svg" xmlns:xlink="http://www.w3.org/1999/xlink" x="0px" y="0px"
	 width="102px" height="102px" viewBox="0 0 102 102" enable-background="new 0 0 102 102" xml:space="preserve">
<g>
	<path fill="#FFFFFF" d="M8.592,47.389c-0.762-0.718-1.632-0.957-2.654-0.957c-1.262,0-1.958,0.392-1.958,1.066
		c0,0.696,0.631,1.088,2.001,1.175c2.024,0.13,4.591,0.587,4.591,3.437c0,1.893-1.545,3.524-4.612,3.524
		c-1.697,0-3.394-0.283-4.96-1.915l1.305-1.892c0.762,0.848,2.502,1.479,3.699,1.501c1,0.021,1.936-0.501,1.936-1.284
		c0-0.74-0.609-1.044-2.132-1.131c-2.023-0.152-4.438-0.892-4.438-3.329c0-2.48,2.567-3.35,4.525-3.35
		c1.675,0,2.937,0.326,4.177,1.414L8.592,47.389z"/>
	<path fill="#FFFFFF" d="M11.071,44.495v10.769h2.655V44.495H11.071z"/>
	<path fill="#FFFFFF" d="M17.554,40.057v15.207h-2.632V40.057H17.554z"/>
	<path fill="#FFFFFF" d="M18.686,44.495v10.769h2.654V44.495H18.686z"/>
	<path fill="#FFFFFF" d="M31.738,53.893c-1.24,1.219-2.545,1.698-4.134,1.698c-3.11,0-5.7-1.872-5.7-5.678
		c0-3.808,2.589-5.678,5.7-5.678c1.523,0,2.698,0.435,3.873,1.588l-1.675,1.762c-0.631-0.565-1.415-0.848-2.154-0.848
		c-1.784,0-3.089,1.305-3.089,3.176c0,2.045,1.392,3.132,3.045,3.132c0.849,0,1.697-0.238,2.35-0.892L31.738,53.893z"/>
	<path fill="#FFFFFF" d="M51.121,55.264v-5.612c0-1.632-0.893-2.872-2.589-2.872c-1.632,0-2.741,1.371-2.741,3.002v5.482h-2.632
		V44.517h2.371l0.174,1.458c1.088-1.066,2.175-1.61,3.524-1.61c2.523,0,4.547,1.893,4.547,5.265v5.634H51.121z"/>
	<path fill="#FFFFFF" d="M65.063,47.389c-0.762-0.718-1.632-0.957-2.653-0.957c-1.263,0-1.958,0.392-1.958,1.066
		c0,0.696,0.631,1.088,2.001,1.175c2.023,0.13,4.591,0.587,4.591,3.437c0,1.893-1.545,3.524-4.612,3.524
		c-1.697,0-3.394-0.283-4.96-1.915l1.305-1.892c0.762,0.848,2.502,1.479,3.699,1.501c1,0.021,1.936-0.501,1.936-1.284
		c0-0.74-0.609-1.044-2.132-1.131c-2.023-0.152-4.438-0.892-4.438-3.329c0-2.48,2.567-3.35,4.525-3.35
		c1.675,0,2.938,0.326,4.177,1.414L65.063,47.389z"/>
	<path fill="#FFFFFF" d="M67.544,44.495v10.769h2.653V44.495H67.544z"/>
	<path fill="#FFFFFF" d="M79.813,43.451l1.958,1.48l-1.196,1.522c0.826,0.936,1.132,2.001,1.132,3.176
		c0,1.327-0.501,3.198-2.264,4.003c1.785,0.891,2.22,2.175,2.22,3.546c0,2.958-2.263,4.786-5.373,4.786
		c-3.111,0-5.439-1.893-5.439-4.786h2.633c0,1.392,1.283,2.306,2.807,2.306c1.522,0,2.719-0.827,2.719-2.306
		c0-1.48-1.392-2.154-2.719-2.154c-3.351,0-5.439-2.045-5.439-5.395s2.437-5.438,5.439-5.438c0.848,0,1.718,0.108,2.458,0.609
		L79.813,43.451z M73.482,49.629c0,1.871,1.262,2.981,2.807,2.981c1.522,0,2.784-1.131,2.784-2.981c0-1.849-1.262-3.024-2.784-3.024
		C74.744,46.605,73.482,47.759,73.482,49.629z"/>
	<path fill="#FFFFFF" d="M85.076,40.035v5.961c0.958-1.24,2.132-1.61,3.351-1.61c3.045,0,4.395,2.066,4.395,5.221v5.656h-2.654
		v-5.634c0-1.958-1.022-2.785-2.437-2.785c-1.566,0-2.654,1.327-2.654,2.937v5.482h-2.654V40.035H85.076z"/>
	<path fill="#FFFFFF" d="M97.606,41.515v3.046h2.959v2.284h-2.98v4.634c0,1.022,0.565,1.523,1.392,1.523
		c0.414,0,0.893-0.131,1.284-0.327L101,54.938c-0.762,0.304-1.393,0.436-2.197,0.456c-2.328,0.088-3.851-1.239-3.851-3.915v-4.634
		H92.95v-2.284h2.002v-2.763L97.606,41.515z"/>
	<path fill="#FFFFFF" d="M37.013,55.536c-3.063,0-5.555-2.492-5.555-5.556c0-3.063,2.492-5.554,5.555-5.554s5.555,2.491,5.555,5.554
		C42.568,53.044,40.076,55.536,37.013,55.536z M37.013,46.246c-0.465,0-0.842,0.376-0.842,0.842c0,0.464,0.376,0.841,0.842,0.841
		c1.133,0,2.054,0.92,2.054,2.053s-0.921,2.052-2.054,2.052s-2.053-0.92-2.053-2.052c0-0.464-0.375-0.843-0.842-0.843
		c-0.465,0-0.841,0.379-0.841,0.843c0,2.061,1.677,3.736,3.736,3.736c2.061,0,3.738-1.677,3.738-3.736
		C40.75,47.92,39.073,46.246,37.013,46.246z"/>
</g>
</svg>
