<?xml version="1.0" encoding="utf-8"?>
<!-- Generator: Adobe Illustrator 19.0.0, SVG Export Plug-In . SVG Version: 6.00 Build 0)  -->
<svg version="1.1" id="Layer_1" xmlns="http://www.w3.org/2000/svg" xmlns:xlink="http://www.w3.org/1999/xlink" x="0px" y="0px"
	 viewBox="0 0 102 102" style="enable-background:new 0 0 102 102;" xml:space="preserve">
<style type="text/css">
	.st0{fill:#FFFFFF;}
</style>
<path class="st0" d="M38.9,42.1c-0.5-0.3-1.1-0.5-1.7-0.7c-0.6-0.1-1.2-0.2-1.9-0.3c-0.3,0-0.7-0.1-1-0.1h-1.1c0,0-0.1,0-0.1,0h-9
	v19.8h4.2V54l5,0h1.3c0.8,0,1.7-0.1,2.5-0.3c0.8-0.2,1.6-0.5,2.3-1c0.8-0.6,1.4-1.4,1.8-2.3c0.4-0.9,0.5-1.9,0.5-2.9
	c0-1.1-0.2-2.1-0.6-3.1C40.6,43.5,39.9,42.7,38.9,42.1z M35.9,49.9c-0.7,0.4-1.6,0.6-2.6,0.6h-5.1v-5.8h4.8v0c1,0,2,0.2,2.8,0.5
	c0.8,0.3,1.2,1.1,1.2,2.4C37,48.7,36.7,49.5,35.9,49.9z M19.7,53.9c-0.1-0.6-0.2-1.2-0.4-1.8c-0.2-0.6-0.6-1.1-1-1.5
	c-0.5-0.5-1-0.8-1.7-1c-0.6-0.2-1.3-0.3-1.9-0.3c-0.2,0-0.4,0-0.7,0c-0.2,0-0.4,0-0.6,0l-5.5,0c-0.7,0-1.3-0.2-1.8-0.5
	c-0.5-0.3-0.8-0.9-0.8-1.7c0-1,0.3-1.7,0.9-2.1c0.6-0.4,1.4-0.5,2.3-0.6h10.3v-3.5l-10.9,0c-2.1,0-3.8,0.4-5,1.3
	C1.7,43.2,1,44.8,1,47.1c0,2.2,0.6,3.7,1.7,4.5c1.2,0.8,2.8,1.2,4.8,1.2l4.9,0c0.8,0,1.4,0.1,2,0.3c0.6,0.2,0.9,0.7,1,1.6
	c0.1,1.1-0.1,1.8-0.8,2.1c-0.7,0.3-1.5,0.5-2.4,0.4H1.8v3.5h11.1c2.1,0,3.8-0.4,5-1.2c1.2-0.8,1.9-2.4,1.9-4.7c0-0.2,0-0.4,0-0.5
	C19.8,54.3,19.7,54.1,19.7,53.9z M94.2,44.6h6.8v-3.4l-6.9,0c-3,0-5.2,0.7-6.7,2.2c-1.5,1.5-2.3,3.8-2.6,6.9c0,0.3,0,0.6,0,0.8
	c0,0.3,0,0.6,0,0.9c0,1.4,0.3,2.7,0.7,4c0.4,1.3,1.2,2.4,2.3,3.3c0.9,0.7,1.9,1.2,2.9,1.4c1,0.2,2.1,0.3,3.2,0.3h7v-3.4l-6.8,0h-0.2
	c-0.6,0-1.2-0.1-1.8-0.2c-0.6-0.1-1.1-0.4-1.5-0.9c-0.5-0.5-0.8-1.1-0.9-1.8c-0.2-0.6-0.2-1.3-0.2-2H101v-3.4l-11.5,0
	c0.1-1.5,0.5-2.6,1.3-3.4C91.5,45,92.6,44.6,94.2,44.6z M51.4,41.1L43,60.9h4.4l6-15.8l6.2,15.8h4.6l-8.4-19.8H51.4z M68.1,43.3
	c-1.5,1.5-2.3,3.8-2.6,6.9c0,0.3,0,0.6,0,0.8c0,0.3,0,0.6,0,0.9c0,1.4,0.3,2.7,0.7,4c0.4,1.3,1.2,2.4,2.3,3.3
	c0.9,0.7,1.9,1.2,2.9,1.4c1,0.2,2.1,0.3,3.2,0.3h7v-3.4l-6.8,0h-0.2c-0.6,0-1.2-0.1-1.8-0.2c-0.6-0.1-1.1-0.4-1.5-0.9
	c-0.4-0.5-0.7-1-0.9-1.6c-0.2-0.6-0.3-1.2-0.4-1.9c0-0.3,0-0.6,0-0.9V51c0.1-1.7,0.4-3.2,1-4.5c0.6-1.3,1.9-2,3.9-2h6.8v-3.4l-6.9,0
	C71.9,41.1,69.6,41.9,68.1,43.3z"/>
</svg>
