<?xml version="1.0" encoding="utf-8"?>
<!-- Generator: Adobe Illustrator 16.0.0, SVG Export Plug-In . SVG Version: 6.00 Build 0)  -->
<!DOCTYPE svg PUBLIC "-//W3C//DTD SVG 1.1//EN" "http://www.w3.org/Graphics/SVG/1.1/DTD/svg11.dtd">
<svg version="1.1" xmlns="http://www.w3.org/2000/svg" xmlns:xlink="http://www.w3.org/1999/xlink" x="0px" y="0px" width="102px"
	 height="102px" viewBox="-19.789 -80.616 102 102" enable-background="new -19.789 -80.616 102 102" xml:space="preserve">
<g id="Layer_2">
</g>
<g id="Layer_1">
	<g>
		<g>
			<path fill="#EFEFEF" d="M-0.263-27.136l1.324-1.367c0.721,0.668,1.473,1.007,2.289,1.007c0.487,0,0.837-0.212,0.837-0.551
				c0-0.296-0.201-0.435-1.24-0.837C1.782-29.34,1.03-29.838,1.03-30.93c0-0.636,0.254-1.197,0.678-1.621
				c0.562-0.562,1.431-0.901,2.458-0.901c1.303,0,2.331,0.424,3.041,1.102L5.936-30.94c-0.562-0.487-1.208-0.805-1.96-0.805
				c-0.499,0-0.806,0.233-0.806,0.519c0,0.308,0.223,0.414,1.24,0.816c1.145,0.434,1.929,0.953,1.929,2.066
				c0,0.668-0.254,1.24-0.689,1.674c-0.562,0.561-1.441,0.89-2.469,0.89C1.729-25.78,0.543-26.278-0.263-27.136z"/>
			<path fill="#EFEFEF" d="M6.689-25.907l2.002-7.418h2.416c1.218,0,2.002,0.233,2.542,0.784c0.393,0.382,0.583,0.89,0.583,1.505
				c0,0.806-0.275,1.473-0.794,1.992c-0.636,0.635-1.653,1.006-2.882,1.006H9.328 M11.034-31.598h-0.763l-0.52,1.96h0.784
				c0.573,0,1.018-0.148,1.304-0.424c0.19-0.201,0.286-0.445,0.286-0.731c0-0.201-0.074-0.392-0.212-0.53
				C11.722-31.513,11.415-31.598,11.034-31.598z"/>
			<path fill="#EFEFEF" d="M15.813-33.325h5.934l-0.477,1.738h-3.899l-0.307,1.134h3.539l-0.435,1.61h-3.539l-0.317,1.188h3.962
				l-0.466,1.749h-5.997L15.813-33.325z"/>
			<path fill="#EFEFEF" d="M22.904-33.325h5.934l-0.477,1.738h-3.9l-0.307,1.134h3.539l-0.435,1.61H23.72l-0.318,1.188h3.963
				l-0.466,1.749h-5.998L22.904-33.325z"/>
			<path fill="#EFEFEF" d="M29.993-33.325h2.395c1.442,0,2.342,0.392,2.904,0.954c0.55,0.551,0.806,1.271,0.806,2.172
				c0,1.112-0.425,2.129-1.219,2.924c-0.89,0.89-2.172,1.367-3.889,1.367h-2.999L29.993-33.325z M32.166-31.513h-0.604l-1.017,3.783
				h0.678c0.869,0,1.643-0.265,2.13-0.752c0.393-0.392,0.636-0.964,0.636-1.558c0-0.455-0.137-0.784-0.37-1.017
				C33.331-31.333,32.875-31.513,32.166-31.513z"/>
			<path fill="#FFFFFF" d="M36.066-25.907l2.002-7.418h2.416c1.219,0,2.003,0.233,2.543,0.784c0.392,0.382,0.583,0.89,0.583,1.505
				c0,0.806-0.275,1.473-0.794,1.992c-0.636,0.635-1.653,1.006-2.882,1.006h-1.229 M40.411-31.598h-0.763l-0.519,1.96h0.784
				c0.572,0,1.018-0.148,1.303-0.424c0.191-0.201,0.286-0.445,0.286-0.731c0-0.201-0.074-0.392-0.212-0.53
				C41.099-31.513,40.792-31.598,40.411-31.598z"/>
			<path fill="#FFFFFF" d="M51.962-30.146c0,1.155-0.478,2.278-1.293,3.094c-0.784,0.773-1.864,1.282-3.115,1.282
				c-2.119,0-3.539-1.44-3.539-3.328c0-1.154,0.477-2.267,1.293-3.083c0.784-0.784,1.865-1.282,3.115-1.282
				C50.542-33.462,51.962-32.021,51.962-30.146z M49.143-28.217c0.456-0.456,0.731-1.134,0.731-1.759
				c0-0.943-0.572-1.643-1.632-1.643c-0.561,0-1.049,0.233-1.409,0.594c-0.455,0.466-0.731,1.144-0.731,1.77
				c0,0.943,0.572,1.643,1.632,1.643C48.295-27.613,48.783-27.857,49.143-28.217z"/>
			<path fill="#FFFFFF" d="M55.534-28.154h-0.171h-0.741l-0.604,2.247h-2.066l2.003-7.418h2.797c1.229,0,2.045,0.265,2.543,0.763
				c0.392,0.392,0.572,0.932,0.572,1.526c0,0.7-0.223,1.324-0.699,1.791c-0.318,0.318-0.784,0.625-1.536,0.837l1.154,2.501H56.52
				L55.534-28.154z M56.223-29.764c0.561,0,1.017-0.148,1.271-0.402c0.169-0.169,0.265-0.382,0.265-0.636
				c0-0.201-0.063-0.36-0.202-0.487c-0.168-0.169-0.466-0.265-0.9-0.265h-1.122l-0.488,1.791H56.223z"/>
			<path fill="#FFFFFF" d="M62.613-31.523h-2.215l0.477-1.801h6.496l-0.478,1.801h-2.226l-1.504,5.617h-2.056L62.613-31.523z"/>
			<path fill="#FFFFFF" d="M68.208-33.325h5.935l-0.477,1.738h-3.9l-0.307,1.134h3.539l-0.434,1.61h-3.539l-0.318,1.188h3.963
				l-0.466,1.749h-5.998L68.208-33.325z"/>
			<path fill="#FFFFFF" d="M76.878-28.154h-0.17h-0.742l-0.604,2.247h-2.066l2.003-7.418h2.797c1.229,0,2.045,0.265,2.543,0.763
				c0.393,0.392,0.572,0.932,0.572,1.526c0,0.7-0.222,1.324-0.699,1.791c-0.318,0.318-0.784,0.625-1.536,0.837l1.154,2.501h-2.268
				L76.878-28.154z M77.566-29.764c0.561,0,1.018-0.148,1.271-0.402c0.17-0.169,0.265-0.382,0.265-0.636
				c0-0.201-0.063-0.36-0.201-0.487c-0.17-0.169-0.466-0.265-0.901-0.265h-1.122l-0.488,1.791H77.566z"/>
		</g>
		<g>
			<g>
				<path fill="#EFEFEF" d="M-13.048-25.908l2.002-7.417h2.416c1.219,0,2.003,0.233,2.543,0.784c0.392,0.381,0.583,0.89,0.583,1.505
					c0,0.805-0.276,1.472-0.795,1.992c-0.635,0.636-1.653,1.007-2.882,1.007h-1.229 M-8.703-31.598h-0.763l-0.52,1.96h0.784
					c0.572,0,1.018-0.148,1.303-0.424c0.191-0.201,0.286-0.445,0.286-0.731c0-0.201-0.074-0.392-0.212-0.529
					C-8.015-31.513-8.322-31.598-8.703-31.598z"/>
			</g>
			<path fill="#EFEFEF" d="M-3.763-22.141h-15.026l4-14.95H0.237L-3.763-22.141z M-15.961-24.312h10.532l2.838-10.608h-10.532
				L-15.961-24.312z"/>
		</g>
	</g>
</g>
</svg>
