<?xml version="1.0" encoding="utf-8"?>
<!-- Generator: Adobe Illustrator 23.0.0, SVG Export Plug-In . SVG Version: 6.00 Build 0)  -->
<svg version="1.1" id="Layer_1" xmlns="http://www.w3.org/2000/svg" xmlns:xlink="http://www.w3.org/1999/xlink" x="0px" y="0px"
	 viewBox="0 0 102 102" style="enable-background:new 0 0 102 102;" xml:space="preserve">
<style type="text/css">
	.st0{fill:#FFFFFF;}
</style>
<g>
	<g>
		<path class="st0" d="M10.9,65.6C10.9,65.5,10.8,65.5,10.9,65.6c-0.4-0.5-2.6-3.2-4.8-6.7c-0.7-1.1-1.1-2-1-2.2
			c0.2-0.6,4.1-0.9,5.3-0.4c0.4,0.2,0.4,0.4,0.4,0.5c0,0.5,0,2,0,2c0,0.3,0.2,0.5,0.5,0.5c0.3,0,0.5-0.2,0.5-0.5l0-3.6h0
			c0-0.3-0.3-0.4-0.4-0.4c-0.6,0-1.9,0-3.2,0c-3,0-3.6,0.1-4.2-0.2C2.8,53.9,1,49,1,46.3c-0.1-3.8,2.2-7.2,5.4-8.8
			c1.3-0.7,2.8-1.1,4.4-1.1c5.1,0,9.2,3.8,9.8,8.7c0,0,0,0,0,0c0.1,1.2-6.5,1.4-7.8,1.1c-0.2-0.1-0.2-0.3-0.2-0.3c0-0.9,0-3.4,0-3.4
			c0-0.3-0.2-0.5-0.5-0.5h0c-0.3,0-0.5,0.2-0.5,0.5l0,4.7c0,0.3,0.3,0.4,0.3,0.4c0.7,0,2.5,0,4.1,0c2.2,0,3.1,0.3,3.7,0.7
			c0.4,0.3,0.6,0.9,0.4,1.7C18.9,56.8,11.2,65.2,10.9,65.6z M31.8,49.7c1.9,0.8,3.2,1.8,3.2,3.8c0,2.1-1.6,3.4-4,3.4
			c-2,0-3.6-0.9-4.3-2.4l-0.1-0.3l2.3-1.3l0.2,0.2c0.5,0.9,1.1,1.2,2,1.2c0.7,0,1.2-0.3,1.2-0.8c0-0.5-0.4-0.7-1.5-1.2L30.1,52
			c-1.5-0.6-2.9-1.5-2.9-3.6c0-1.9,1.5-3.3,3.6-3.3c1.6,0,2.7,0.6,3.4,1.9l0.1,0.2l-2.2,1.4L32,48.5c-0.4-0.7-0.7-0.8-1.2-0.8
			c-0.5,0-0.8,0.3-0.8,0.7c0,0.5,0.2,0.7,1.2,1.1L31.8,49.7z M48.2,50.1l1.6-4.6h2.8l-4.2,11.6h-0.6l-2.5-5.4
			c-0.1-0.2-0.2-0.6-0.3-0.8c-0.1,0.3-0.2,0.6-0.3,0.8L42,57.1h-0.6l-4.2-11.6h3l1.7,4.6c0.1,0.3,0.2,0.6,0.3,1
			c0.1-0.3,0.2-0.7,0.4-1l2.2-4.6h0.6l2.2,4.6c0.1,0.3,0.3,0.7,0.4,1C48,50.7,48.1,50.3,48.2,50.1z M55.9,56.7V45.3h2.8v11.5H55.9z
			 M68,52.9v-2.6h5.3v5.1l-0.1,0.1c-0.6,0.5-2.2,1.3-4.4,1.3c-3.6,0-6.2-2.4-6.2-5.9c0-3.4,2.5-5.9,5.8-5.9c1.9,0,3.2,0.5,4.2,1.6
			l0.2,0.2l-1.9,1.9l-0.2-0.2c-0.5-0.6-1.1-0.9-2.2-0.9c-1.7,0-2.9,1.3-2.9,3.3c0,2,1.3,3.3,3.3,3.3c0.7,0,1.4-0.1,1.8-0.3v-1.1H68z
			 M82.4,52.9v-2.6h5.3v5.1l-0.1,0.1c-0.6,0.5-2.2,1.3-4.4,1.3c-3.6,0-6.2-2.4-6.2-5.9c0-3.4,2.5-5.9,5.8-5.9c1.9,0,3.2,0.5,4.2,1.6
			l0.2,0.2l-1.9,1.9L85,48.6c-0.5-0.6-1.1-0.9-2.2-0.9c-1.7,0-2.9,1.3-2.9,3.3c0,2,1.3,3.3,3.3,3.3c0.7,0,1.4-0.1,1.8-0.3v-1.1H82.4
			z M98,45.3h3l-4.1,7.6v3.8h-2.8v-3.7l-4.3-7.8h3.2l2,3.7c0.2,0.4,0.4,0.9,0.6,1.4c0.2-0.4,0.4-0.9,0.6-1.3L98,45.3z"/>
	</g>
</g>
</svg>
