<?xml version="1.0" encoding="utf-8"?>
<!-- Generator: Adobe Illustrator 16.0.0, SVG Export Plug-In . SVG Version: 6.00 Build 0)  -->
<!DOCTYPE svg PUBLIC "-//W3C//DTD SVG 1.1//EN" "http://www.w3.org/Graphics/SVG/1.1/DTD/svg11.dtd">
<svg version="1.1" id="Layer_1" xmlns="http://www.w3.org/2000/svg" xmlns:xlink="http://www.w3.org/1999/xlink" x="0px" y="0px"
	 width="102px" height="102px" viewBox="0 0 102 102" enable-background="new 0 0 102 102" xml:space="preserve">
<g>
	<g>
		<polygon fill-rule="evenodd" clip-rule="evenodd" fill="#FFFFFF" points="1,69.794 25.113,69.794 25.113,77.19 18.122,77.19 
			18.122,94.718 8.092,94.718 8.092,77.19 1,77.19 		"/>
		<polygon fill-rule="evenodd" clip-rule="evenodd" fill="#FFFFFF" points="37.271,79.926 32.205,94.718 22.58,94.718 
			32.002,69.794 42.438,69.794 52.165,94.718 42.438,94.718 		"/>
		<polygon fill-rule="evenodd" clip-rule="evenodd" fill="#FFFFFF" points="49.834,69.794 73.947,69.794 73.947,77.19 67.059,77.19 
			67.059,94.718 57.028,94.718 57.028,77.19 49.834,77.19 		"/>
		<polygon fill-rule="evenodd" clip-rule="evenodd" fill="#FFFFFF" points="86.105,79.926 81.039,94.718 71.414,94.718 
			80.837,69.794 91.273,69.794 101,94.718 91.273,94.718 		"/>
		<path fill-rule="evenodd" clip-rule="evenodd" fill="#FFFFFF" d="M86.511,24c-0.912-1.723-2.128-3.445-3.546-4.965
			c-3.344-3.647-8.004-6.585-13.576-8.612C63.815,8.295,57.534,7.282,51.05,7.282c-6.484,0-12.867,1.014-18.439,3.141
			c-5.471,2.026-10.132,4.965-13.476,8.612c-1.417,1.52-2.634,3.242-3.546,4.965c7.194-1.723,19.453-3.952,30.902-4.256
			c1.114,0,1.925,0.304,2.33,1.013c0.607,0.709,0.607,3.445,0.607,4.762l-0.304,31.712c0.608,0,1.216,0.101,1.925,0.101
			c0.608,0,1.317,0,1.925-0.101l-0.304-31.712c0-1.317-0.101-4.053,0.507-4.762c0.506-0.709,1.317-1.013,2.33-1.013
			C66.957,20.048,79.317,22.277,86.511,24z"/>
		<path fill-rule="evenodd" clip-rule="evenodd" fill="#FFFFFF" d="M88.03,28.153c-10.537-2.331-17.629-2.837-24.519-3.141
			c-6.079-0.405-6.079,1.824-5.572,5.876c0.102,0.304,0.102,0.608,0.203,0.912c2.025,12.057,4.559,22.391,4.965,24.113
			c14.792-3.343,25.43-12.665,25.43-23.607C88.537,30.889,88.334,29.47,88.03,28.153z"/>
		<path fill-rule="evenodd" clip-rule="evenodd" fill="#FFFFFF" d="M44.059,30.889c0.608-4.053,0.507-6.282-5.471-5.876
			c-6.991,0.304-13.982,0.811-24.519,3.141c-0.304,1.317-0.507,2.735-0.507,4.154c0,4.661,1.925,9.321,5.572,13.272
			c3.344,3.546,8.004,6.484,13.476,8.511c2.026,0.811,4.154,1.418,6.282,1.925c0.405-1.723,3.04-12.259,5.066-24.519
			C44.059,31.294,44.059,31.091,44.059,30.889z"/>
	</g>
</g>
</svg>
