<?xml version="1.0" encoding="utf-8"?>
<!-- Generator: Adobe Illustrator 16.0.0, SVG Export Plug-In . SVG Version: 6.00 Build 0)  -->
<!DOCTYPE svg PUBLIC "-//W3C//DTD SVG 1.1//EN" "http://www.w3.org/Graphics/SVG/1.1/DTD/svg11.dtd">
<svg version="1.1" id="Layer_1" xmlns="http://www.w3.org/2000/svg" xmlns:xlink="http://www.w3.org/1999/xlink" x="0px" y="0px"
	 width="102px" height="102px" viewBox="0 0 102 102" enable-background="new 0 0 102 102" xml:space="preserve">
<g>
	<path fill="#FFFFFF" d="M80.931,52.854h-3.28v1.321h3.28c0.09,0,0.175-0.018,0.252-0.05c0.081-0.034,0.154-0.083,0.215-0.145l0,0
		l0,0l0,0l0,0c0.062-0.061,0.111-0.134,0.145-0.215c0.032-0.077,0.05-0.162,0.05-0.252c0-0.182-0.074-0.347-0.194-0.467
		c-0.061-0.061-0.134-0.11-0.214-0.144C81.105,52.871,81.021,52.854,80.931,52.854 M75.282,50.878h7.063
		c0.678,0,1.12,0.343,1.358,0.824c0.125,0.25,0.193,0.538,0.209,0.833c0.017,0.295-0.019,0.597-0.102,0.876
		c-0.165,0.558-0.52,1.026-1.028,1.167c0.359,0.139,0.652,0.331,0.857,0.567c0.225,0.259,0.345,0.568,0.335,0.916l0,0v2.957v0.04
		h-0.04h-2.331h-0.04v-0.04l0.002-2.312c-0.032-0.233-0.109-0.402-0.229-0.512c-0.119-0.109-0.284-0.16-0.49-0.156h-0.001
		l-3.144-0.009v2.988v0.04h-0.04h-2.38h-0.04v-0.04v-8.1v-0.04H75.282z M42.426,52.854h-3.281v1.321h3.281
		c0.089,0,0.174-0.018,0.252-0.05c0.081-0.034,0.154-0.083,0.215-0.145l0,0l0,0l0,0l0,0c0.061-0.061,0.11-0.134,0.144-0.215
		c0.032-0.077,0.05-0.162,0.05-0.252c0-0.182-0.075-0.347-0.194-0.467c-0.061-0.061-0.134-0.11-0.215-0.144
		C42.6,52.871,42.515,52.854,42.426,52.854z M43.84,50.878c0.677,0,1.12,0.343,1.358,0.824c0.125,0.25,0.193,0.538,0.209,0.833
		c0.017,0.295-0.019,0.597-0.102,0.876c-0.165,0.558-0.52,1.026-1.028,1.167c0.359,0.139,0.652,0.331,0.857,0.567
		c0.225,0.259,0.345,0.568,0.335,0.916l0,0v2.997h-2.412l0.002-2.352c-0.031-0.233-0.109-0.402-0.229-0.512
		c-0.12-0.109-0.284-0.16-0.49-0.156H42.34l-3.144-0.009v2.988v0.04h-0.04h-2.379h-0.04v-0.04v-8.14H43.84z M61.369,52.878h-2.957
		v4.227h2.957c0.239,0,0.456-0.098,0.613-0.255c0.157-0.158,0.255-0.375,0.255-0.613v-2.49c0-0.238-0.098-0.455-0.255-0.612
		C61.825,52.976,61.608,52.878,61.369,52.878z M55.997,50.855h7.043c0.448,0,0.856,0.184,1.151,0.479
		c0.296,0.295,0.479,0.703,0.479,1.151v4.938c0,0.448-0.183,0.855-0.479,1.15c-0.295,0.296-0.703,0.479-1.151,0.479h-7.043h-0.04
		v-0.04v-8.118v-0.041H55.997z M48.785,50.9l-0.007,1.51l0,0v0.9c0,0.239,0.098,0.456,0.255,0.613
		c0.157,0.157,0.375,0.255,0.613,0.255h2.071c0.238,0,0.455-0.098,0.613-0.255l0,0c0.157-0.157,0.255-0.374,0.255-0.613v-0.9l0,0
		l-0.002-1.467v-0.04h0.04l2.35-0.001h0.04v0.04l-0.008,3.819l-0.001,0.009c-0.099,0.408-0.264,0.696-0.45,0.898
		c-0.26,0.282-0.562,0.396-0.779,0.432l-0.007,0.001l-1.892,0.009v2.909h-2.378v-2.923c-0.069,0.001-0.142,0.002-0.215,0.004
		c-0.639,0.014-1.418,0.03-2.043-0.139l-0.003-0.001c-0.217-0.078-0.408-0.224-0.559-0.421c-0.147-0.193-0.256-0.437-0.313-0.718
		l0-0.008l-0.008-3.915L48.785,50.9z M73.487,55.948h-5.541l0.006,1.198l6.232,0.001h0.04v0.04l-0.001,1.788v0.04h-0.04
		l-6.268,0.003c-0.858,0.02-1.401-0.055-1.749-0.27c-0.353-0.217-0.502-0.573-0.571-1.115v-0.006l-0.003-5.102v-0.006
		c0.078-0.56,0.306-0.931,0.646-1.18c0.338-0.248,0.787-0.372,1.313-0.442h0.005l6.63,0.004h0.04v0.04L74.226,52.8v0.04h-0.04
		l-6.232-0.004l-0.003,1.226l5.537-0.002h0.04v0.04v1.809v0.04H73.487z M35.781,50.899v1.941l-3.187-0.001v6.153l-2.366,0.005V52.84
		H27.12v-1.94H35.781z M19.338,50.897c1.085,0.007,2.216,0.003,3.346,0s3.387,0.004,3.387,0.004v1.939h-5.61v1.116l4.024-0.009
		c0.438-0.015,0.758,0.015,1.003,0.071c0.248,0.058,0.421,0.144,0.564,0.242c0.192,0.131,0.336,0.308,0.441,0.522
		c0.104,0.213,0.17,0.462,0.208,0.742l0,0.005c0.002,0.167,0.004,0.81,0.003,1.363c0,0.418-0.001,0.787-0.005,0.865
		c-0.001,0.042-0.016,0.079-0.03,0.113v0.001c-0.004,0.009-0.008,0.019-0.011,0.026c-0.136,0.371-0.391,0.607-0.696,0.771
		c-0.301,0.161-0.651,0.25-0.983,0.325l-0.009,0.001l-6.918-0.003l0-1.807v-0.039l0.04-0.001c1.053-0.006,2.104-0.006,3.154-0.006
		c1.035,0.001,2.07,0.001,3.108-0.005l0-1.019h-4.299h-0.001c-0.525-0.021-1.017-0.11-1.376-0.35
		c-0.363-0.241-0.59-0.635-0.579-1.264c0.005-0.301,0.008-0.629,0.007-0.955c0-0.356-0.004-0.713-0.01-1.03
		c-0.004-0.202,0.039-0.382,0.101-0.538s0.144-0.288,0.219-0.395l0.002-0.003c0.152-0.18,0.307-0.32,0.459-0.431
		c0.152-0.11,0.301-0.191,0.442-0.253L19.338,50.897z"/>
	<path fill="#FFFFFF" d="M101,44.742c-0.124,0-0.341-0.019-0.495,0.042c-4.513,2.938-8.089,4.993-16.493,4.726
		c0,0.239,2.641,1.04,5.409,1.14c-1.364,0.945-2.844,1.349-3.667,1.697c0,0.19,3.06,0.404,4.431,0.211
		c-1.052,0.605-2.082,0.96-3.365,1.445c3.448,2.046,9.021,1.162,9.927,0.56c-2.59,0.258-5.908,0.2-7.628-0.688
		c0.322-0.13,2.753-1.081,4.178-2.688c-0.077,0.059-2.211,0.884-5.153,0.786C93.586,50.003,96.434,48.336,101,44.742"/>
	<path fill="#FFFFFF" d="M1,44.742c0.125,0,0.341-0.019,0.496,0.042c4.512,2.938,8.088,4.993,16.493,4.726
		c0,0.239-2.641,1.04-5.409,1.14c1.364,0.945,2.843,1.349,3.667,1.697c0,0.19-3.06,0.404-4.43,0.211
		c1.051,0.605,2.081,0.96,3.365,1.445c-3.449,2.046-9.022,1.162-9.928,0.56c2.591,0.258,5.908,0.2,7.628-0.688
		c-0.323-0.13-2.753-1.081-4.177-2.688c0.077,0.059,2.21,0.884,5.152,0.786C8.415,50.003,5.566,48.336,1,44.742"/>
	<path fill="#FFFFFF" d="M37.593,49.75l2.623-6.809h2.898l2.623,6.809h-2.731l-1.341-4.021l-1.341,4.021H37.593z M33.486,49.75
		v-4.829h-1.954v-1.98h6.618v1.98h-1.884v4.829H33.486z M23.923,49.75l2.623-6.809h2.898l2.623,6.809h-2.731l-1.341-4.021
		l-1.341,4.021H23.923z M19.816,49.75v-4.829h-1.954v-1.98h6.618v1.98h-1.884v4.829H19.816z"/>
</g>
</svg>
