<?xml version="1.0" encoding="utf-8"?>
<!-- Generator: Adobe Illustrator 23.0.0, SVG Export Plug-In . SVG Version: 6.00 Build 0)  -->
<svg version="1.1" id="Layer_1" xmlns="http://www.w3.org/2000/svg" xmlns:xlink="http://www.w3.org/1999/xlink" x="0px" y="0px"
	 viewBox="0 0 102 102" style="enable-background:new 0 0 102 102;" xml:space="preserve">
<style type="text/css">
	.st0{fill:#FFFFFF;}
	.st1{font-family:'ArialMT';}
	.st2{font-size:17.5408px;}
</style>
<g>
	<g>
		<path class="st0" d="M5,51.9H3.1v3.8H1V45.2h4c2.5,0,3.7,1.5,3.7,3.4C8.7,50.3,7.5,51.9,5,51.9z M4.7,46.7H3.1v3.7h1.5
			c1.4,0,1.9-0.8,1.9-1.8S6,46.7,4.7,46.7z"/>
		<path class="st0" d="M10,55.7V45.2h6.9v1.7h-4.7v2.5H16V51h-3.8V54h4.7v1.7L10,55.7L10,55.7z"/>
		<path class="st0" d="M23.6,46.8v8.9h-2.1v-8.9h-3.6v-1.7h9.3v1.7H23.6z"/>
	</g>
	<text transform="matrix(1 0 0 1 27.3855 55.6787)" class="st0 st1 st2"> </text>
	<g>
		<path class="st0" d="M35.6,51.9h-1.9v3.8h-2.1V45.2h4c2.5,0,3.7,1.5,3.7,3.4C39.2,50.3,38.1,51.9,35.6,51.9z M35.2,46.7h-1.5v3.7
			h1.5c1.4,0,1.9-0.8,1.9-1.8S36.6,46.7,35.2,46.7z"/>
		<path class="st0" d="M48.2,55.8c-1.3,0-2.3-0.5-3-2.1L44,51.5h-1.2v4.2h-2.1V45.2h4.1c2.5,0,3.6,1.5,3.6,3.2c0,1.5-0.8,2.6-2.3,3
			l1,1.8c0.5,0.9,1,1.2,1.8,1.2c0.2,0,0.4,0,0.6-0.1v1.4C49,55.7,48.5,55.8,48.2,55.8z M42.8,50h1.6c1.3,0,1.8-0.7,1.8-1.6
			c0-0.9-0.5-1.7-1.8-1.7h-1.6V50z"/>
	</g>
	<text transform="matrix(1 0 0 1 49.6453 55.6787)" class="st0 st1 st2">      </text>
	<g>
		<path class="st0" d="M68.6,59.2c-0.8,0-1.4-0.3-1.7-0.6v-1.4c0.2,0.2,0.8,0.5,1.1,0.5c0.7,0,1-0.3,1-1.5v-11h2.1v11.2
			C71.2,58,70.3,59.2,68.6,59.2z"/>
		<path class="st0" d="M73.5,55.7V45.2h6.9v1.7h-4.7v2.5h3.8V51h-3.8V54h4.7v1.7L73.5,55.7L73.5,55.7z"/>
		<path class="st0" d="M87.1,55.9c-3,0-5.7-2.1-5.7-5.5c0-3.4,2.6-5.5,5.7-5.5c1.4,0,2.8,0.4,3.7,1.1v1.9c-0.8-0.7-2-1.3-3.4-1.3
			c-2.1,0-3.6,1.4-3.6,3.8c0,2.4,1.5,3.8,3.6,3.8c1.5,0,2.6-0.6,3.4-1.3v1.9C89.9,55.5,88.5,55.9,87.1,55.9z"/>
		<path class="st0" d="M97.4,46.8v8.9h-2.1v-8.9h-3.6v-1.7h9.3v1.7H97.4z"/>
	</g>
	<path class="st0" d="M53.2,46.6c-0.4-0.1-0.8-0.4-0.8-0.4l-0.6-0.6l0.2-0.3l1,0.1l0.3,0.3l0,0.7l-0.1,0.2
		C53.2,46.5,53.2,46.6,53.2,46.6"/>
	<polygon class="st0" points="53.9,44.2 53.9,44.5 54.3,45.2 56.8,46.8 57.3,46.8 57,45.4 55.2,44.4 54,44.1 53.9,44.2 	"/>
	<path class="st0" d="M53.4,43.7c0.2-0.3,1.3,0.4,1.3,0.4s1.5,0.2,2,0.4c1.7,0.7,2.1,2.1,2.1,2.1c0.2,0.5,0.4,1.4,0.7,1.8
		c0.5,0.8,0,2.2,0,2.2s-0.2-1.9-1.3-2.2c-0.5-0.1-1.3-0.6-1.9-0.1c-0.2,0.2-0.1-0.6-1.2-0.1c-0.6,0.3-1.2-1-1.2-1l0.2,1.6l-0.4-0.4
		l0,0.6l-0.2-0.7c0,0-0.5-0.5,0-1.1c0.1-0.1-0.2-0.4-0.2-0.5c-0.1-0.2,0-1,0-1s-0.4-0.3-1-0.3c0,0-0.3,0-0.1,0.3
		c0.1,0.1,0.5,0.5,0.5,0.5s-0.9-0.5-1.1-1.1c-0.1-0.2,0.1-0.2,0.2-0.2c0.5-0.2,1,0.2,1.3,0.2c1.3,0.1,1-0.3,1.4-0.2
		c0.3,0.1,0.1,0.3,1.1,0.7c0.5,0.2,0.5,0.3,1.6,0.9c0,0-0.1-1.1-1-1.2c-1.4-0.2-1.5-1.1-1.8-1.1c0,0-0.3-0.1-0.1,0.5
		C54,44.7,53.3,43.7,53.4,43.7"/>
	<path class="st0" d="M53.6,51.6c0,0,0.6-1,0.5-1.6c-0.1-0.5-0.4-0.7-0.4-0.7s0.5-0.3,0.7,0.2C54.6,50,53.6,51.5,53.6,51.6
		L53.6,51.6z"/>
	<path class="st0" d="M54.5,49.2c0,0-0.1-0.6,0.7-0.6s0.5-0.3,0.5-0.3l0.1,0.1c0,0,0,0.2-0.1,0.2c-0.1,0.1-0.2,0.1-0.3,0.2
		c-0.1,0-0.3,0.1-0.4,0.1C54.8,49,54.5,49.2,54.5,49.2"/>
	<path class="st0" d="M53.1,52.8c0,0-0.1-1,0.7-0.8c0.8,0.2,0.4,1.1,0.4,1.1s0.9,0.8,1.7-0.3c0.8-1.1,0,0.1,0,0.1s-0.5,0.7-1.1,0.6
		c-0.6-0.1-0.8,0-1.5-0.3C52.9,52.8,53.1,52.8,53.1,52.8"/>
	<path class="st0" d="M55.4,53.6c0-0.1,1.6-0.3,2.4-1.6c0.4-0.8,0.2-1.4,0.6-1.5c0.5-0.2,1.6,0.8,1.4,1.2c-0.1,0.3-1-0.1-1.8,0.6
		c-0.2,0.2-0.2,0.2-0.4,0.4C56.7,53.6,55.4,53.7,55.4,53.6"/>
	<path class="st0" d="M55.9,52.4c0,0,0.8-1.2,1-1.6c0,0,0-0.1,0.1-0.1c0.1,0,0.2,0,0.3,0.1s0,0.2-0.1,0.3c-0.2,0.2-0.4,0.3-0.5,0.4
		C56.1,51.9,55.9,52.5,55.9,52.4"/>
	<path class="st0" d="M64.3,50.3c-0.2-3.6-1.8-6.5-4.1-7.2c-2.1-0.6-5.2,0.7-5.2,1c0,0,0,0,0.1,0.1c0.2,0.1,0.5,0.3,1.1,0.2
		c0.5-0.2,2.5-0.7,4.6,0.3C62.8,45.7,64.2,47.9,64.3,50.3"/>
	<path class="st0" d="M54.5,49.4c0,0,0.1,0.7,0.3,0.7c0.3,0,0.7-1.3,0.7-1.3C54.7,49,54.5,49.4,54.5,49.4"/>
	<path class="st0" d="M63.1,44.3c0.7,0.6,2,1.8,2.8,3.6c1.3,3.2,0.8,7.4-1.9,9.9c-0.5,0.5-2.3,2.1-5,2.3c-3.5,0.2-5.8-2.5-6.4-3.1
		c-1.6-2-1.8-4.1-1.9-5c1.6,3.7,5.3,5.7,8.6,5c3.4-0.7,4.9-3.9,5-4.2c1.2-2.6,0.8-5.7-0.9-8.1C63.4,44.6,63.2,44.4,63.1,44.3"/>
	<path class="st0" d="M50.8,52c0,0,2.1,6.2,7.9,5.8c5.1-0.4,6-5.5,6-5.5s-1.5,4.4-6.1,4.6C53.3,57.2,50.8,52,50.8,52"/>
	<rect x="5.1" y="41.4" class="st0" width="1.6" height="0.4"/>
	<rect x="5.1" y="42.3" class="st0" width="1.3" height="0.4"/>
	<rect x="5.1" y="43.4" class="st0" width="1.6" height="0.4"/>
	<polygon class="st0" points="2.1,41.8 2.1,43.8 1.7,43.8 1.7,41.8 1,41.8 1,41.4 2.7,41.4 2.7,41.8 	"/>
	<polygon class="st0" points="4.3,43.8 4.3,42.7 3.4,42.7 3.4,43.8 3,43.8 3,41.4 3.4,41.4 3.4,42.3 4.3,42.3 4.3,41.4 4.6,41.4 
		4.6,43.8 	"/>
	<polygon class="st0" points="5.1,43.8 5.1,41.4 6.3,41.4 6.3,41.8 5.5,41.8 5.5,42.3 6.2,42.3 6.2,42.7 5.5,42.7 5.5,43.4 
		6.3,43.4 6.3,43.8 	"/>
</g>
</svg>
