<?xml version="1.0" encoding="utf-8"?>
<!-- Generator: Adobe Illustrator 16.0.0, SVG Export Plug-In . SVG Version: 6.00 Build 0)  -->
<!DOCTYPE svg PUBLIC "-//W3C//DTD SVG 1.1//EN" "http://www.w3.org/Graphics/SVG/1.1/DTD/svg11.dtd">
<svg version="1.1" id="Layer_1" xmlns="http://www.w3.org/2000/svg" xmlns:xlink="http://www.w3.org/1999/xlink" x="0px" y="0px"
	 width="102px" height="102px" viewBox="255.057 344.767 102 102" enable-background="new 255.057 344.767 102 102"
	 xml:space="preserve">
<g>
	<path fill="#FFFFFF" d="M342.137,383.775c-5.193,0-9.471,4.201-9.471,9.471c0,5.194,4.201,9.471,9.471,9.471
		c5.194,0,9.472-4.201,9.472-9.471S347.331,383.775,342.137,383.775 M349.47,387.976c-0.459,0.306-0.993,0.611-1.528,0.917
		c-0.305-0.611-0.688-1.222-1.146-1.757c0.382-0.229,0.764-0.535,1.069-0.764C348.553,386.753,349.088,387.365,349.47,387.976
		 M345.498,384.844c0.764,0.306,1.451,0.688,2.139,1.222c-0.306,0.306-0.688,0.535-1.069,0.764
		c-0.459-0.535-0.993-0.993-1.528-1.452C345.192,385.149,345.345,384.997,345.498,384.844 M346.262,386.982
		c-0.535,0.306-1.069,0.458-1.604,0.688c-0.229-0.535-0.458-1.069-0.764-1.527c0.306-0.153,0.611-0.306,0.841-0.535
		C345.269,385.99,345.803,386.448,346.262,386.982 M345.115,384.691c-0.152,0.152-0.305,0.305-0.381,0.458
		c-0.535-0.306-0.993-0.611-1.604-0.84C343.817,384.309,344.505,384.462,345.115,384.691 M344.429,385.378
		c-0.229,0.153-0.459,0.306-0.688,0.382c-0.306-0.458-0.611-0.84-0.917-1.299C343.359,384.691,343.894,384.997,344.429,385.378
		 M342.29,384.539c0.382,0.382,0.688,0.84,0.992,1.375c-0.305,0.077-0.61,0.153-0.992,0.153V384.539z M342.29,386.448
		c0.382,0,0.84-0.077,1.222-0.229c0.306,0.458,0.535,0.993,0.764,1.528c-0.611,0.153-1.298,0.229-1.985,0.305V386.448z
		 M341.908,384.539v1.527c-0.306,0-0.611-0.076-0.993-0.153C341.297,385.455,341.603,384.997,341.908,384.539 M340.609,385.761
		c-0.229-0.077-0.534-0.229-0.688-0.382c0.534-0.305,1.069-0.611,1.604-0.84C341.144,384.92,340.839,385.302,340.609,385.761
		 M341.144,384.233c-0.534,0.229-1.068,0.535-1.604,0.84c-0.152-0.153-0.306-0.306-0.382-0.458
		C339.77,384.462,340.456,384.309,341.144,384.233 M347.637,400.426c-1.223-0.688-1.299-1.681-1.223-1.986
		c0.076-0.382,0.306-0.229,0.459-0.229c0.84,0,1.68-0.229,2.749-1.375c1.223-1.222,1.604-3.972-0.306-5.729
		c-1.985-1.909-4.124-1.604-5.499,0.153c-0.306,0.382-0.993,0.611-1.527,0.611c-0.917,0-0.306,0.688-0.306,0.84
		c0,0.153-0.153,0.229-0.229,0.229c-0.306-0.077-0.152,0.382-0.152,0.458c0,0.077-0.153,0.229-0.153,0.229
		c-0.382,0-0.306,0.305-0.229,0.458c0,0.077,0,0.229-0.153,0.306c-0.152,0.076-0.229,0.382-0.229,0.611
		c0,0.382,0.382,0.688,0.992,1.146c0.611,0.458,0.688,0.917,0.688,1.222s0.077,0.841,0.153,1.146
		c0.152,0.383,0.152,1.146-0.688,1.146c-1.069,0.076-2.902,0.84-3.056,0.916c-0.61,0.229-1.375,0.306-1.985,0.153
		c-0.306-0.229-0.611-0.459-0.917-0.765c-0.152-0.382,0.076-0.84,0.306-1.146c0.382,0.382,0.84,0.306,1.146,0.306
		s1.681-0.229,1.91-0.306c0.229-0.076,0.305-0.076,0.382,0c0.534,0.229,1.298,0.229,1.604-0.764
		c0.306-1.069-0.382-0.764-0.534-0.688c-0.077,0.076-0.229,0-0.153-0.076c0.153-0.229-0.076-0.229-0.152-0.229
		c-0.306,0-0.688,0.306-0.764,0.382c-0.153,0.077-0.229,0.077-0.306,0.077c-0.382-0.229-1.527,0.076-1.91-0.535
		c0-0.152-0.305-2.673-0.458-3.131c0-0.077-0.076-0.229,0.076-0.382c0.306-0.458,1.069,0,1.528,0c0.534,0,0.61-0.229,0.764-0.382
		c0.152-0.153,0.229-0.077,0.306-0.153c0.076-0.077,0-0.153,0-0.229c0-0.076,0.076,0,0.152-0.076s0-0.229,0-0.306
		c0.153-0.229,0.458-0.076,0.306-0.535c-0.076-0.305,0.076-0.611,0.229-0.764c0.229-0.306,1.223-1.68-0.458-3.131
		c-1.604-1.375-3.284-1.222-4.354-0.077c-1.069,1.146-0.534,2.826-0.458,3.284c0.076,0.458-0.229,0.84-0.611,0.993
		c-0.306,0.153-0.993,0.611-1.451,0.993c0.076-3.667,2.292-6.875,5.652-8.173c0.152,0.153,0.306,0.382,0.458,0.535
		c-0.382,0.306-1.222,0.993-1.222,0.993s0.076,0,0.229,0.076c0.077,0,0.229,0.076,0.229,0.076s0.688-0.611,1.069-0.84
		c0.229,0.229,0.535,0.382,0.84,0.534c-0.152,0.306-0.61,1.07-0.61,1.07s0.076,0.076,0.152,0.076
		c0.076,0.077,0.153,0.077,0.153,0.077s0.458-0.84,0.61-1.146c0.382,0.153,0.764,0.229,1.146,0.229v1.528
		c-0.229,0-0.764,0-0.992-0.077h-0.153l0.076,0.153c0.077,0.077,0.077,0.153,0.153,0.229l0,0l0,0c0.152,0,0.688,0,0.916,0v2.826
		h0.382v-0.688c0.611,0,1.069-0.076,1.604-0.152l0,0l0.534-0.458h-0.305c-0.611,0.076-1.146,0.153-1.604,0.153c0,0-0.152,0-0.229,0
		v-1.757c0.688,0,1.451-0.076,2.139-0.306c0.153,0.458,0.535,1.604,0.535,1.604l0.382-0.153c0,0-0.382-1.146-0.534-1.604
		c0.61-0.153,1.146-0.458,1.68-0.688c0.459,0.535,0.84,1.146,1.146,1.757c-0.306,0.152-0.764,0.305-0.764,0.305
		c0.382,0.077,0.688,0.153,0.688,0.153s0.153-0.076,0.229-0.076c0,0.076,0.076,0.229,0.076,0.229l0.535,0.229l-0.077-0.153
		c0,0-0.152-0.382-0.229-0.458c0.534-0.229,1.069-0.535,1.604-0.917c0.993,1.451,1.451,3.208,1.451,4.964
		C351.227,396.148,349.775,398.745,347.637,400.426"/>
	<path fill="#FFFFFF" d="M331.825,386.295l-0.152,0.153c-0.535,0.458-1.833,1.756-1.604,3.208v0.077l0.076,0.305l0.152-0.152
		c0.764-0.688,1.375-1.91,1.604-3.285l0.076-0.382L331.825,386.295z"/>
	<path fill="#FFFFFF" d="M329.229,388.739l-0.076,0.153c-0.076,0.229-0.229,0.764-0.306,1.375c-0.152,0.917-0.076,2.292,0.688,3.284
		l0.076,0.153l0.076,0.153l0.153-0.611c0.152-1.069-0.076-3.284-0.458-4.277l-0.153-0.306V388.739z"/>
	<path fill="#FFFFFF" d="M328.313,392.559v0.152c-0.077,0.917,0,3.285,1.909,4.583l0.229,0.152v-0.305
		c0-0.917-1.069-3.59-1.833-4.507l-0.229-0.306L328.313,392.559z"/>
	<path fill="#FFFFFF" d="M328.618,396.759v0.153c0.305,1.375,1.527,3.514,3.513,4.201l0.306,0.076l-0.076-0.306
		c-0.382-0.993-2.291-3.36-3.514-4.125l-0.229-0.152V396.759z"/>
	<path fill="#FFFFFF" d="M332.666,388.357l-0.229,0.077c-1.451,0.917-2.139,1.986-2.139,3.36v0.306l0.229-0.153
		c0.764-0.688,1.833-2.368,2.063-3.284l0.076-0.382V388.357z"/>
	<path fill="#FFFFFF" d="M331.749,391.26l-0.076,0.153c-0.382,0.382-1.604,1.681-1.527,3.284c0,0.229,0.076,0.535,0.152,0.764
		l0.076,0.229l0.153-0.229c0.61-0.84,1.375-2.979,1.298-3.972v-0.306L331.749,391.26z"/>
	<path fill="#FFFFFF" d="M331.825,394.086l-0.076,0.153c-0.611,0.917-0.916,1.833-0.916,2.75c0,0.611,0.229,1.223,0.61,1.833
		l0.153,0.229l0.076-0.229c0.229-0.534,0.458-2.139,0.458-3.437c0-0.458-0.076-0.84-0.152-1.069l-0.076-0.305L331.825,394.086z"/>
	<path fill="#FFFFFF" d="M332.513,397.064l-0.076,0.153c-0.152,0.61-0.306,1.146-0.229,1.757c0,1.222,0.611,2.215,1.681,2.902
		l0.153,0.076l0.076-0.229v-0.229c0-0.993-0.764-3.59-1.375-4.354l-0.152-0.229L332.513,397.064z"/>
	<path fill="#FFFFFF" d="M330.451,401.037l0.076,0.152c0.764,1.299,2.139,3.055,4.659,2.597h0.229l-0.153-0.152
		c-0.458-0.688-3.514-2.444-4.583-2.597l-0.306-0.077L330.451,401.037z"/>
	<path fill="#FFFFFF" d="M334.193,404.397L334.193,404.397l-0.382,0.076l0.382,0.152c1.604,0.688,3.59,0.841,4.812,0.459
		c0.459-0.153,0.688-0.382,0.993-0.688c2.063,0.229,3.972,1.909,5.117,3.284l0.077,0.076h0.076c0.152-0.076,0.306-0.229,0.382-0.306
		l0.076-0.076l-0.076-0.076c-1.146-1.527-2.979-2.444-3.055-2.521C340.915,404.016,338.013,403.404,334.193,404.397"/>
	<path fill="#FFFFFF" d="M334.27,400.12v0.152c0.229,1.528,0.841,3.514,3.438,3.284h0.152l-0.076-0.152
		c-0.152-0.688-2.521-2.673-3.36-3.208l-0.229-0.152L334.27,400.12z"/>
	<path fill="#FFFFFF" d="M352.296,386.143l0.076,0.382c0.229,1.375,0.84,2.597,1.604,3.284l0.153,0.153l0.076-0.306v-0.076
		c0.229-1.451-1.069-2.75-1.604-3.208l-0.152-0.153L352.296,386.143z"/>
	<path fill="#FFFFFF" d="M354.969,388.586l-0.152,0.306c-0.383,0.993-0.535,3.208-0.459,4.277l0.153,0.611l0.076-0.076l0.076-0.153
		c0.841-0.993,0.841-2.292,0.688-3.284c-0.076-0.688-0.229-1.146-0.306-1.375l-0.076-0.153V388.586z"/>
	<path fill="#FFFFFF" d="M355.962,392.406l-0.229,0.305c-0.764,0.993-1.833,3.59-1.833,4.507v0.306l0.229-0.153
		c1.909-1.222,1.985-3.59,1.909-4.583v-0.153L355.962,392.406z"/>
	<path fill="#FFFFFF" d="M355.656,396.606l-0.306,0.152c-1.222,0.765-3.132,3.132-3.514,4.125l-0.076,0.306l0.306-0.076
		c1.985-0.611,3.284-2.826,3.514-4.201v-0.153L355.656,396.606z"/>
	<path fill="#FFFFFF" d="M351.608,388.205l0.076,0.382c0.306,0.993,1.222,2.673,2.063,3.361l0.229,0.153v-0.306
		c0.076-1.375-0.61-2.444-2.063-3.36l-0.152-0.077L351.608,388.205z"/>
	<path fill="#FFFFFF" d="M352.448,391.184v0.306c-0.076,0.993,0.764,3.208,1.299,3.972l0.152,0.229l0.076-0.229
		c0.076-0.306,0.153-0.535,0.153-0.764c0.076-1.604-1.146-2.902-1.528-3.284l-0.076-0.076L352.448,391.184z"/>
	<path fill="#FFFFFF" d="M352.372,393.933l-0.076,0.306c-0.077,0.229-0.153,0.611-0.153,1.069c0,1.298,0.153,2.903,0.458,3.437
		l0.077,0.229l0.152-0.229c0.382-0.534,0.611-1.146,0.611-1.833c0-0.84-0.306-1.833-0.917-2.75l-0.076-0.153L352.372,393.933z"/>
	<path fill="#FFFFFF" d="M351.685,396.912l-0.153,0.229c-0.61,0.764-1.374,3.36-1.374,4.354c0,0,0,0.152,0,0.229l0.076,0.229
		l0.152-0.076c1.069-0.688,1.604-1.681,1.681-2.902c0-0.535-0.076-1.146-0.229-1.757l-0.076-0.153L351.685,396.912z"/>
	<path fill="#FFFFFF" d="M353.899,400.884l-0.306,0.076c-1.069,0.153-4.124,1.91-4.583,2.597l-0.152,0.153h0.229
		c2.521,0.458,3.895-1.299,4.659-2.597l0.076-0.153L353.899,400.884z"/>
	<path fill="#FFFFFF" d="M341.755,404.779c-0.076,0-1.909,0.993-3.055,2.521l-0.077,0.076l0.077,0.076
		c0.076,0.077,0.305,0.229,0.382,0.306h0.076l0.076-0.076c1.146-1.375,3.056-3.132,5.117-3.284c0.306,0.306,0.611,0.534,0.993,0.688
		c1.146,0.382,3.208,0.229,4.813-0.459l0.382-0.152l-0.382-0.076C346.262,403.404,343.359,404.016,341.755,404.779"/>
	<path fill="#FFFFFF" d="M350.004,399.967l-0.229,0.153c-0.841,0.534-3.132,2.521-3.361,3.208l-0.076,0.152h0.152
		c2.521,0.229,3.132-1.757,3.438-3.284v-0.152L350.004,399.967z"/>
	<path fill="#FFFFFF" d="M285.54,384.691h3.208v2.902h-3.208V384.691z M285.845,390.954h2.673v14.207h-2.673V390.954z"/>
	<path fill="#FFFFFF" d="M265.604,390.954h2.673v14.207h-2.597v-2.063h-0.077c-1.069,1.757-2.902,2.521-4.888,2.521
		c-2.979,0-4.659-2.291-4.659-5.117v-9.548h2.673v8.402c0,2.444,0.535,4.277,3.131,4.277c1.069,0,2.597-0.535,3.132-2.063
		c0.535-1.299,0.535-2.979,0.535-3.36v-7.257H265.604z"/>
	<path fill="#FFFFFF" d="M273.624,393.017L273.624,393.017c0.993-1.757,2.902-2.521,4.354-2.521c0.993,0,5.347,0.229,5.347,4.812
		v9.777h-2.673v-8.937c0-2.368-0.993-3.589-3.284-3.589c0,0-1.451-0.077-2.597,1.069c-0.382,0.382-1.146,0.993-1.146,3.818v7.715
		h-2.673v-14.207h2.673V393.017z"/>
	<path fill="#FFFFFF" d="M299.746,395.461c-0.153-1.757-0.993-2.979-2.902-2.979c-2.521,0-3.514,2.215-3.514,5.5
		c0,3.284,0.993,5.499,3.514,5.499c1.756,0,2.826-1.146,2.979-3.208h2.673c-0.229,3.208-2.597,5.118-5.729,5.118
		c-4.506,0-6.339-3.208-6.339-7.333c0-4.125,2.062-7.562,6.568-7.562c2.979,0,5.194,1.91,5.347,4.965H299.746z"/>
	<path fill="#FFFFFF" d="M306.467,398.516c-0.229,2.444,0.84,5.041,3.513,5.041c2.063,0,3.132-0.84,3.438-2.902h2.826
		c-0.458,3.208-2.902,4.813-6.264,4.813c-4.506,0-6.339-3.208-6.339-7.333c0-4.124,2.062-7.562,6.568-7.562
		c4.201,0.077,6.187,2.75,6.187,6.646v1.298H306.467z M313.647,396.683c0.076-2.368-0.993-4.201-3.59-4.201
		c-2.215,0-3.514,1.91-3.514,4.201H313.647z"/>
	<path fill="#FFFFFF" d="M319.452,405.009v-12.221h-2.444v-1.833h2.444v-3.055c0.076-3.056,2.444-3.896,4.43-3.896
		c0.611,0,1.299,0.153,1.91,0.305v2.215c-0.459,0-0.917-0.076-1.375-0.076c-1.528,0-2.368,0.382-2.292,1.909v2.597h3.285v1.833
		h-3.285v12.221H319.452z"/>
</g>
</svg>
