<?xml version="1.0" encoding="utf-8"?>
<!-- Generator: Adobe Illustrator 23.0.0, SVG Export Plug-In . SVG Version: 6.00 Build 0)  -->
<svg version="1.1" id="Layer_1" xmlns="http://www.w3.org/2000/svg" xmlns:xlink="http://www.w3.org/1999/xlink" x="0px" y="0px"
	 viewBox="0 0 102 102" style="enable-background:new 0 0 102 102;" xml:space="preserve">
<style type="text/css">
	.st0{fill:#FFFFFF;}
</style>
<title>wep_logowhite</title>
<g>
	<path class="st0" d="M44.3,3.6c1.1,1,2.9,1.4,2.9,1.4c1.2,0.3,2.3,0.3,2.8,0.4c0.2,0,0.4,0,0.8,0c0.7,0,1.4,0.2,1.9,0.3
		c1.2,0.4,2,1.4,2.4,1.9c-0.2-0.5-0.7-1.2-1.5-1.7c-0.3-0.2-0.7-0.4-2.2-0.6C49,5,48.6,5.3,47,4.8c-0.7-0.2-1.3-0.5-1.9-0.8
		c-0.5-0.3-0.9-0.6-1.3-0.9c0.1,0.1,0.2,0.3,0.4,0.4C44.2,3.5,44.3,3.6,44.3,3.6z"/>
	<path class="st0" d="M50.2,22.6c-0.6-1-1.8-1.6-2.9-1.5l-1-8.5c0.2,0,0.4-0.1,0.6-0.2c1.1-0.6,1.6-2.1,1-3.1
		c-0.6-1.1-2-1.5-3.1-0.9c-0.6,0.3-1,0.8-1.2,1.5l-7.6-1.3c0.1-0.4,0-0.9-0.3-1.3c-0.6-1.1-2-1.4-3-0.8c-0.7,0.4-1,1.1-1,1.8l-8,0.7
		c0-0.2-0.1-0.3-0.2-0.5c-0.5-1-1.8-1.4-2.8-0.8c0,0,0,0,0,0c-1,0.5-1.3,1.8-0.8,2.8c0.5,0.9,1.7,1.3,2.7,0.8l2.6,4.2
		c0,0-0.1,0-0.1,0.1c-1.4,0.8-1.9,2.8-1.1,4.2c0.8,1.4,2.8,2,4.2,1.3l2.7,4.5c-1.4,0.9-2,3.1-1.1,4.6c1,1.6,3.1,2.2,4.7,1.2
		c1.3-0.8,2-2.3,1.6-3.8l8.2-2.5c0.1,0.2,0.1,0.3,0.2,0.5c0.9,1.5,2.9,2.1,4.4,1.2C50.6,26,51.1,24,50.2,22.6z M25.6,15.5L23,11.2
		c0.6-0.4,1-1.2,0.9-1.9l7.9-0.7c0,0.3,0.1,0.5,0.2,0.7c0.1,0.3,0.3,0.5,0.6,0.7l-4.1,5.7C27.7,15.1,26.6,15,25.6,15.5z M34.5,25.5
		c-1-0.5-2.2-0.5-3.2,0L28.6,21c1.4-0.9,1.9-2.8,1-4.3c-0.2-0.4-0.5-0.7-0.8-0.9l4.1-5.7c0.7,0.4,1.6,0.5,2.2,0.1
		c0.1,0,0.1-0.1,0.2-0.1l2.7,3.3c-1.1,0.9-1.4,2.6-0.7,3.9c0.3,0.5,0.7,0.9,1.1,1.1L34.5,25.5z M44.4,24.9l-8.2,2.5
		c-0.3-0.8-0.8-1.4-1.5-1.8l3.9-7c0.9,0.5,2.1,0.5,3-0.1c0.1-0.1,0.2-0.2,0.4-0.3l3.3,3.6C44.5,22.7,44.2,23.9,44.4,24.9z
		 M45.8,21.5c-0.1,0.1-0.2,0.2-0.3,0.2l-3.3-3.6c0.8-0.9,1.1-2.6,0.5-3.7c-0.8-1.5-2.8-2.1-4.4-1.3c-0.1,0-0.2,0.1-0.3,0.2l-2.7-3.3
		c0.3-0.3,0.5-0.7,0.6-1.1l7.6,1.3c0,0.4,0,0.9,0.3,1.3c0.4,0.8,1.2,1.3,2.1,1.2l1,8.5C46.6,21.1,46.2,21.3,45.8,21.5z"/>
	<path class="st0" d="M56.1,8.6C56.1,8.6,56.1,8.6,56.1,8.6c0.2,0,0.5,0,0.8-0.1c0.6-0.3,1.1-1,1-1.7c-0.1-1.1-1.4-1.6-2-1.9
		c-0.5-0.2-0.8-0.2-1.3-0.3c1.3,0.7,2.1,1.4,2.2,2.2C56.9,6.9,56.8,8.3,56.1,8.6z"/>
	<path class="st0" d="M82.2,30.7c0-4.4-1-8.8-2.9-12.8v0C74.6,7.9,64.3,1,52.5,1c-2.2,0-4.3,0.2-6.4,0.7c1.6,0.4,5.4,1.3,8,2.5
		c0.9,0.2,1,0.1,1.6,0.3c0.5,0.2,2.4,0.8,2.6,2.1c0.1,0.8-0.4,1.7-1.1,2c-0.2,0.1-0.5,0.2-0.8,0.3c0.5,0.2,0.9,0.4,1.3,0.7
		c1.3,0.9,1.8,2.5,1.7,2.5c-0.1,0-0.6-1.1-1.8-2c-0.5-0.3-1.1-0.6-1.7-0.8c0.3,0.3,0.8,0.7,1.3,1.3c2.8,3.3,4.5,7.1,4.4,11.7
		c0,1,0.4,2.2,1,2.9c1.3,1.6,2.9,3.1,4.5,4.4c1.4,1.2,1.5,1.5,0.1,2.8c-0.3,0.3-0.8,0.6-1,1c-0.2,0.5-0.3,1.3-0.1,1.5
		c1.5,1.4,0.8,2.4-0.4,3.4c-0.1,0.1-0.2,0.2-0.4,0.6c1.3,1,1.4,2,0.2,3.1c-0.3,0.2-0.4,0.9-0.3,1.3c0.1,0.8,0.4,1.5,0.6,2.3
		c0.6,2.1,0.3,3-1.9,3.5c-2.1,0.5-4.3,0.8-6.5,1c-3.9,0.3-4.8,1.3-4.7,5.4C52.7,61.7,63,74.8,68.4,78c0-1.5,0-3,0-4.6
		c1.4-9.8,4.7-19.2,9.8-27.8h0C80.8,41.1,82.2,36,82.2,30.7z"/>
	<path class="st0" d="M33.8,61.1c1.4-6.2,2.4-10.9,3.1-13.6c0.1-0.5,0.3-1.4,0.1-2.4c0.2,0,0.4,0,0.5,0c2.9,0,5.4,0.8,5.5,0.6
		c0.1-0.3-6.1-2-8.1-3.3l0,0c-0.4-0.3-0.9-0.6-1.3-0.8l-0.1-0.1c-0.6-0.4-3.9-2.7-6.5-6.4c-2.6-3.8-2.8-7.6-3.6-7.5
		c-0.2,0-0.5,0.5-0.7,2.2c0,4,0.6,7,1.2,9c1.8,6.1,4.6,8.8,8.1,17.3C32.4,57.3,33.1,59,33.8,61.1z"/>
	<path class="st0" d="M55.2,86.4c-0.5-0.5-1.2-0.8-2-0.8c-0.8,0-1.4,0.3-2,0.8c-0.5,0.5-0.9,1.2-1,2.1H56C56,87.7,55.7,87,55.2,86.4
		z"/>
	<path class="st0" d="M42.5,91.9l-2.6-9h-4.2l-2.6,9l-2.7-9H26l4.9,13.3h4.3l2.6-8.2l2.5,8.2h8.1c-0.1-0.1-0.1-0.1-0.2-0.1
		c-0.4-0.2-1.1-1-1.3-1.2c-0.6-0.7-0.9-1.4-1.1-2c-0.2-0.5-0.3-0.9-0.4-1.4c-0.1-0.5-0.1-1.1-0.1-1.6c0-1.5,0.3-2.9,1-4.1
		c0.6-1.2,1.6-2.1,2.8-2.7c0.1-0.1,0.3-0.2,0.4-0.2h-4.3L42.5,91.9z"/>
	<path class="st0" d="M69.9,83.6c-0.9-0.6-2-0.8-3.2-0.8c-1.6,0-2.9,0.6-3.9,1.9v-1.7h-5.9c0,0,0,0,0,0c0,0,0.1,0.1,0.4,0.2
		c0.2,0.1,0.3,0.2,0.5,0.3c0.2,0.1,0.4,0.3,0.6,0.5c0.1,0.1,0.1,0.1,0.2,0.2c0.1,0.1,0.2,0.2,0.2,0.2c1.3,1.5,2,3.4,2,6
		c0,0.4,0,0.7,0,0.9H50.3c0.2,0.9,0.7,1.5,1.3,2c0.6,0.5,1.3,0.7,2.2,0.7c0.6,0,1.3-0.1,1.9-0.4c0.6-0.3,1.2-0.7,1.7-1.1l1.1,1.1
		l1.5,1.5c-0.4,0.5-0.9,0.9-1.5,1.3v4.8h4.4v-6.5c0.5,0.6,1.1,1.1,1.7,1.4c0.7,0.3,1.5,0.5,2.3,0.5c1.2,0,2.3-0.3,3.2-0.8
		c0.9-0.6,1.7-1.4,2.1-2.4c0.5-1,0.8-2.2,0.8-3.5c0-1.4-0.3-2.6-0.8-3.6C71.6,85,70.8,84.2,69.9,83.6z M67.6,91.9
		c-0.5,0.6-1.2,0.9-2.1,0.9c-0.8,0-1.5-0.3-2-0.9c-0.5-0.6-0.8-1.4-0.8-2.4c0-1,0.3-1.8,0.8-2.4c0.5-0.6,1.2-0.9,2-0.9
		c0.9,0,1.5,0.3,2.1,0.9c0.5,0.6,0.8,1.4,0.8,2.4C68.4,90.5,68.2,91.3,67.6,91.9z"/>
</g>
</svg>
