<?xml version="1.0" encoding="utf-8"?>
<!-- Generator: Adobe Illustrator 16.0.0, SVG Export Plug-In . SVG Version: 6.00 Build 0)  -->
<!DOCTYPE svg PUBLIC "-//W3C//DTD SVG 1.1//EN" "http://www.w3.org/Graphics/SVG/1.1/DTD/svg11.dtd">
<svg version="1.1" id="Layer_2" xmlns="http://www.w3.org/2000/svg" xmlns:xlink="http://www.w3.org/1999/xlink" x="0px" y="0px"
	 width="102px" height="102px" viewBox="0 0 102 102" enable-background="new 0 0 102 102" xml:space="preserve">
<g id="Layer_3">
</g>
<g>
	<path fill="none" stroke="#000000" stroke-miterlimit="10" d="M56.994,48.483c-0.002,0.292-0.063,0.567-0.104,0.854
		c-0.018,0.131-0.045,0.256-0.045,0.409c0,0.161,0.003,0.323,0,0.484c-0.016,0.598-0.326,1.089-0.328,1.676
		c-0.001,0.291,0.092,0.568,0.132,0.858c0.008,0.058,0.388,0.112,0.397,0.185c0.008,0.073,0.35,0.151,0.35,0.224
		c0,0.161,0,0.322,0,0.484c0,0.314,0,0.627,0,0.941c0,0.331-0.285,0.643-0.275,0.958c0.002,0.051-0.176,0.102-0.176,0.153"/>
	<g>
		<path fill="#FFFFFF" d="M56.896,51c0-2.076,0.119-4.094,0.574-6.025l-4.51,14.667L42.122,27.094H33.06l-10.778,32.61l-9.955-32.61
			H1l16.408,48h9.199l10.847-31.442l10.847,31.442H57.5l3.787-9.57c-2.863-4.06-4.391-8.927-4.391-14.387V51z"/>
		<path d="M69.749,42.927l6.065-16.065l-0.362,0.003c-8.194,1.928-14.365,7.607-17.154,15.005l-0.827,3.105
			c-0.455,1.931-0.574,3.949-0.574,6.025v0.137c0,5.46,1.527,10.466,4.391,14.525l6.869-18.354
			C68.496,45.736,68.995,44.262,69.749,42.927z"/>
	</g>
	<path fill="#FFFFFF" d="M56.651,51.137V51c0-13.662,10.298-24.852,25.058-24.852c9.063,0,14.485,3.021,18.948,7.415L93.93,41.32
		c-3.708-3.364-7.483-5.423-12.289-5.423c-8.101,0-13.937,6.728-13.937,14.966V51c0,8.238,5.698,15.103,13.937,15.103
		c5.492,0,8.856-2.197,12.632-5.629L101,67.271c-4.943,5.287-10.435,8.582-19.702,8.582C67.155,75.852,56.651,64.936,56.651,51.137z
		"/>
</g>
</svg>
