<?xml version="1.0" encoding="utf-8"?>
<!-- Generator: Adobe Illustrator 16.0.0, SVG Export Plug-In . SVG Version: 6.00 Build 0)  -->
<!DOCTYPE svg PUBLIC "-//W3C//DTD SVG 1.1//EN" "http://www.w3.org/Graphics/SVG/1.1/DTD/svg11.dtd">
<svg version="1.1" id="Layer_1" xmlns="http://www.w3.org/2000/svg" xmlns:xlink="http://www.w3.org/1999/xlink" x="0px" y="0px"
	 width="102px" height="102px" viewBox="0 0 102 102" enable-background="new 0 0 102 102" xml:space="preserve">
<g>
	<rect x="11.582" y="15.802" fill="#FFFFFF" width="78.834" height="84.8"/>
	<path fill="#333333" d="M11.979,81.355H90.02v18.851H11.979V81.355z M11.185,101h79.629V80.563H11.185V101z"/>
	<polygon fill="#333333" points="26.494,90.711 28.634,95.275 27.348,95.275 25.851,92.084 24.342,95.275 23.042,95.275 
		25.195,90.711 23.08,86.159 24.378,86.159 25.851,89.338 27.36,86.159 28.66,86.159 	"/>
	<polygon fill="#333333" points="39.012,86.159 36.402,90.859 36.402,95.275 35.239,95.275 35.239,90.859 32.641,86.159 
		33.978,86.159 35.821,89.498 37.677,86.159 	"/>
	<polygon fill="#333333" points="66.104,90.711 68.244,95.275 66.957,95.275 65.461,92.084 63.952,95.275 62.652,95.275 
		64.807,90.711 62.689,86.159 63.988,86.159 65.461,89.338 66.971,86.159 68.27,86.159 	"/>
	<polygon fill="#333333" points="76.075,90.711 78.214,95.275 76.928,95.275 75.432,92.084 73.922,95.275 72.623,95.275 
		74.775,90.711 72.66,86.159 73.959,86.159 75.432,89.338 76.939,86.159 78.238,86.159 	"/>
	<rect x="50.154" y="84.75" fill="#333333" width="0.667" height="12.063"/>
	<path fill="#333333" d="M53.377,50.231h12.381v3.39H53.377V50.231z M53.377,27.676h12.381v3.39h-3.549L44.876,50.234h3.788v3.391
		l-12.423-0.006v-3.388h2.435l9.235-10.05l-8.08-9.115h-3.59v-3.39h12.423v3.381h-2.739l5.084,5.789l5.029-5.78h-2.661V27.676z
		 M11.185,80.631h79.629V1H11.185V80.631z"/>
</g>
</svg>
