<?xml version="1.0" encoding="utf-8"?>
<!-- Generator: Adobe Illustrator 16.0.0, SVG Export Plug-In . SVG Version: 6.00 Build 0)  -->
<!DOCTYPE svg PUBLIC "-//W3C//DTD SVG 1.1//EN" "http://www.w3.org/Graphics/SVG/1.1/DTD/svg11.dtd">
<svg version="1.1" id="Layer_1" xmlns="http://www.w3.org/2000/svg" xmlns:xlink="http://www.w3.org/1999/xlink" x="0px" y="0px"
	 width="102px" height="102px" viewBox="0 0 102 102" enable-background="new 0 0 102 102" xml:space="preserve">
<g>
	<path fill="#FFFFFF" d="M40.499,34.237c0.221,0,0.397-0.132,0.486-0.794c0.133-1.015,0.927-2.649,2.517-3.488
		c1.413-0.75,4.105-0.882,6.356-0.882h7.456l1.09-1.677h-7.309c-1.369,0-3.487,0.044-7.681-0.132
		c-1.191-0.044-1.457-0.309-1.854-0.309c-0.266,0-0.354,0.22-0.441,0.838c-0.222,1.325-0.884,5.342-0.884,5.872
		C40.234,34.017,40.278,34.237,40.499,34.237"/>
	<path fill="#FFFFFF" d="M64.602,53.485c-0.221,0-0.309,0.265-0.397,0.707c-0.088,0.618-0.485,1.81-0.882,2.384
		c-0.928,1.324-2.34,2.163-6.975,2.163H45.029l-1.203,1.782c6.444,0.049,12.7,0.205,18.921,0.205c1.015,0,1.06-0.088,1.324-1.147
		c0.265-1.104,0.883-3.708,0.883-5.077C64.956,53.662,64.867,53.485,64.602,53.485"/>
	<path fill="#999999" d="M70.005,15.083c0.821,0.529,1.065,1.62-1.408,5.499c-2.477,3.881-33.154,48.681-33.154,48.681
		c26.297-44.348,26.218-44.395,30.167-50.584C68.086,14.799,69.179,14.56,70.005,15.083 M65.307,22.367
		c0.355,0.227,1.431-0.827,2.406-2.352c0.973-1.527,1.474-2.952,1.121-3.177c-0.358-0.227-1.435,0.825-2.411,2.353
		C65.446,20.716,64.944,22.14,65.307,22.367"/>
	<path fill="#FFFFFF" d="M6.994,86.341c1.644,0,2.144-0.298,2.473-0.767c0.141-0.204,0.282-0.626,0.313-0.846
		c0.032-0.156,0.063-0.25,0.141-0.25c0.094,0,0.125,0.063,0.125,0.359c0,0.486-0.219,1.409-0.313,1.801
		c-0.094,0.375-0.109,0.406-0.469,0.406c-2.613,0-5.243-0.078-7.982-0.078C1.094,86.967,1,86.951,1,86.842
		c0-0.078,0.031-0.156,0.219-0.438c2.332-3.521,4.695-7.043,6.871-10.58H4.694c-0.799,0-1.753,0.048-2.254,0.313
		c-0.563,0.298-0.845,0.876-0.892,1.236c-0.031,0.234-0.094,0.282-0.172,0.282c-0.078,0-0.094-0.079-0.094-0.204
		c0-0.188,0.235-1.612,0.313-2.081c0.032-0.22,0.063-0.298,0.156-0.298c0.141,0,0.235,0.094,0.658,0.11
		c1.486,0.063,2.238,0.046,2.723,0.046h4.367c0.234,0,0.313,0.032,0.313,0.126c0,0.063,0,0.094-0.063,0.188
		c-2.269,3.6-4.633,7.199-7.012,10.799H6.994z"/>
	<path fill="#FFFFFF" d="M19.015,75.573c0.188-0.517,0.25-0.61,0.344-0.61c0.094,0,0.156,0.078,0.344,0.563
		c0.235,0.595,2.692,7.059,3.646,9.438c0.563,1.393,1.018,1.644,1.346,1.737c0.235,0.078,0.469,0.094,0.626,0.094
		c0.093,0,0.156,0.016,0.156,0.094c0,0.094-0.141,0.125-0.313,0.125c-0.234,0-1.377,0-2.457-0.031
		c-0.297-0.016-0.47-0.016-0.47-0.109c0-0.063,0.047-0.094,0.11-0.109c0.093-0.031,0.188-0.172,0.093-0.423l-1.455-3.85
		c-0.031-0.063-0.063-0.095-0.141-0.095h-3.365c-0.078,0-0.125,0.048-0.157,0.126l-0.939,2.771
		c-0.141,0.391-0.219,0.767-0.219,1.048c0,0.313,0.328,0.454,0.595,0.454h0.156c0.11,0,0.157,0.031,0.157,0.094
		c0,0.094-0.094,0.125-0.235,0.125c-0.375,0-1.049-0.047-1.221-0.047c-0.172,0-1.033,0.047-1.769,0.047
		c-0.204,0-0.297-0.031-0.297-0.125c0-0.063,0.063-0.094,0.141-0.094c0.11,0,0.329-0.016,0.454-0.031
		c0.72-0.094,1.033-0.688,1.314-1.471L19.015,75.573z M20.643,81.833c0.078,0,0.078-0.046,0.063-0.108l-1.487-4.227
		c-0.079-0.234-0.156-0.234-0.235,0l-1.377,4.227c-0.031,0.077,0,0.108,0.047,0.108H20.643z"/>
	<path fill="#FFFFFF" d="M31.584,84.886c0.031,1.283,0.187,1.69,0.61,1.815c0.297,0.078,0.642,0.094,0.782,0.094
		c0.079,0,0.125,0.031,0.125,0.094c0,0.094-0.094,0.126-0.282,0.126c-0.892,0-1.518-0.048-1.659-0.048
		c-0.141,0-0.798,0.048-1.502,0.048c-0.157,0-0.251-0.017-0.251-0.126c0-0.063,0.047-0.094,0.125-0.094
		c0.125,0,0.407-0.016,0.642-0.094c0.392-0.109,0.47-0.563,0.47-1.988l0.016-8.967c0-0.611,0.047-0.783,0.172-0.783
		c0.125,0,0.392,0.345,0.548,0.501c0.235,0.266,2.567,2.785,4.977,5.368c1.549,1.658,3.255,3.568,3.756,4.085l-0.172-7.951
		c-0.016-1.017-0.125-1.361-0.61-1.486c-0.282-0.063-0.642-0.078-0.767-0.078c-0.109,0-0.125-0.047-0.125-0.109
		c0-0.094,0.125-0.109,0.313-0.109c0.704,0,1.456,0.046,1.627,0.046c0.172,0,0.688-0.046,1.33-0.046
		c0.173,0,0.282,0.016,0.282,0.109c0,0.063-0.062,0.109-0.171,0.109c-0.078,0-0.188,0-0.375,0.047
		c-0.517,0.109-0.58,0.454-0.58,1.393l-0.031,9.172c0,1.032-0.031,1.11-0.141,1.11c-0.125,0-0.313-0.172-1.143-1.001
		c-0.171-0.156-2.426-2.457-4.084-4.241c-1.815-1.957-3.583-3.929-4.085-4.492L31.584,84.886z"/>
	<path fill="#FFFFFF" d="M50.742,82.475c0,1.503,0,2.739,0.078,3.396c0.047,0.454,0.141,0.799,0.611,0.861
		c0.219,0.031,0.563,0.063,0.704,0.063c0.094,0,0.125,0.047,0.125,0.094c0,0.078-0.079,0.125-0.25,0.125
		c-0.861,0-1.847-0.047-1.925-0.047s-1.064,0.047-1.534,0.047c-0.172,0-0.25-0.031-0.25-0.125c0-0.047,0.031-0.094,0.125-0.094
		c0.141,0,0.328-0.031,0.469-0.063c0.313-0.063,0.392-0.407,0.454-0.861c0.079-0.657,0.079-1.894,0.079-3.396v-2.754
		c0-2.441,0-2.88-0.031-3.381c-0.032-0.532-0.188-0.798-0.532-0.876c-0.172-0.047-0.376-0.063-0.485-0.063
		c-0.063,0-0.125-0.031-0.125-0.094c0-0.094,0.078-0.126,0.25-0.126c0.517,0,1.503,0.048,1.581,0.048s1.064-0.048,1.534-0.048
		c0.172,0,0.25,0.032,0.25,0.126c0,0.063-0.063,0.094-0.125,0.094c-0.11,0-0.204,0.016-0.392,0.047
		c-0.423,0.078-0.548,0.345-0.579,0.892c-0.032,0.501-0.032,0.939-0.032,3.381V82.475z"/>
	<path fill="#FFFFFF" d="M59.757,79.721c0-2.441,0-2.88-0.031-3.381c-0.031-0.532-0.156-0.782-0.673-0.892
		c-0.125-0.031-0.391-0.047-0.532-0.047c-0.063,0-0.125-0.031-0.125-0.094c0-0.094,0.078-0.126,0.25-0.126
		c0.36,0,0.783,0,1.127,0.017l0.642,0.03c0.109,0,3.224,0,3.583-0.015c0.297-0.016,0.548-0.048,0.673-0.078
		c0.079-0.017,0.141-0.078,0.219-0.078c0.046,0,0.063,0.062,0.063,0.141c0,0.109-0.078,0.297-0.125,0.735
		c-0.015,0.156-0.047,0.845-0.078,1.032c-0.016,0.078-0.047,0.173-0.11,0.173c-0.094,0-0.125-0.078-0.125-0.204
		c0-0.109-0.016-0.375-0.094-0.563c-0.109-0.25-0.266-0.438-1.111-0.531c-0.266-0.032-1.972-0.048-2.144-0.048
		c-0.063,0-0.095,0.048-0.095,0.157v4.319c0,0.109,0.016,0.156,0.095,0.156c0.203,0,2.128,0,2.488-0.031
		c0.376-0.031,0.595-0.063,0.736-0.219c0.109-0.126,0.172-0.204,0.234-0.204c0.047,0,0.079,0.032,0.079,0.126
		s-0.079,0.359-0.125,0.876c-0.031,0.313-0.063,0.893-0.063,1.002c0,0.125,0,0.297-0.109,0.297c-0.078,0-0.11-0.063-0.11-0.141
		c0-0.156,0-0.313-0.063-0.517c-0.062-0.219-0.203-0.485-0.813-0.547c-0.423-0.048-1.972-0.079-2.238-0.079
		c-0.079,0-0.11,0.047-0.11,0.109v1.378c0,0.532-0.016,2.347,0,2.676c0.047,1.08,0.282,1.283,1.816,1.283
		c0.407,0,1.096,0,1.502-0.172s0.595-0.485,0.705-1.127c0.031-0.172,0.063-0.234,0.141-0.234c0.094,0,0.094,0.125,0.094,0.234
		c0,0.125-0.125,1.189-0.204,1.519c-0.109,0.406-0.234,0.406-0.845,0.406c-1.174,0-2.034-0.031-2.645-0.046
		c-0.61-0.032-0.986-0.048-1.22-0.048c-0.032,0-0.298,0-0.626,0.016c-0.313,0-0.673,0.032-0.908,0.032
		c-0.173,0-0.251-0.032-0.251-0.126c0-0.047,0.032-0.094,0.125-0.094c0.141,0,0.329-0.031,0.47-0.063
		c0.313-0.063,0.391-0.407,0.454-0.861c0.078-0.657,0.078-1.894,0.078-3.396V79.721z"/>
	<path fill="#FFFFFF" d="M74.063,82.507c0,2.3,0.063,3.302,0.344,3.584c0.25,0.25,0.658,0.36,1.878,0.36
		c0.83,0,1.519-0.016,1.894-0.471c0.204-0.25,0.36-0.642,0.407-0.938c0.016-0.125,0.047-0.203,0.141-0.203
		c0.079,0,0.094,0.063,0.094,0.234s-0.109,1.111-0.235,1.564c-0.109,0.36-0.156,0.423-0.986,0.423c-1.126,0-1.94-0.031-2.598-0.046
		c-0.658-0.032-1.143-0.048-1.597-0.048c-0.063,0-0.329,0.016-0.642,0.016c-0.313,0.016-0.657,0.032-0.892,0.032
		c-0.172,0-0.25-0.032-0.25-0.126c0-0.047,0.031-0.094,0.125-0.094c0.141,0,0.329-0.031,0.47-0.063
		c0.313-0.063,0.392-0.407,0.454-0.861c0.079-0.657,0.079-1.894,0.079-3.396v-2.754c0-2.441,0-2.88-0.032-3.381
		c-0.031-0.532-0.156-0.782-0.673-0.892c-0.125-0.031-0.391-0.047-0.532-0.047c-0.063,0-0.125-0.031-0.125-0.094
		c0-0.094,0.078-0.125,0.25-0.125c0.705,0,1.69,0.046,1.769,0.046s1.221-0.046,1.69-0.046c0.172,0,0.25,0.031,0.25,0.125
		c0,0.063-0.063,0.094-0.125,0.094c-0.109,0-0.329,0.016-0.516,0.047c-0.454,0.078-0.58,0.344-0.61,0.892
		c-0.032,0.501-0.032,0.939-0.032,3.381V82.507z"/>
	<path fill="#FFFFFF" d="M86.772,82.507c0,2.3,0.063,3.302,0.345,3.584c0.25,0.25,0.657,0.36,1.878,0.36
		c0.83,0,1.518-0.016,1.894-0.471c0.204-0.25,0.36-0.642,0.407-0.938c0.016-0.125,0.047-0.203,0.141-0.203
		c0.079,0,0.094,0.063,0.094,0.234s-0.11,1.111-0.235,1.564c-0.11,0.36-0.156,0.423-0.986,0.423c-1.126,0-1.94-0.031-2.598-0.046
		c-0.658-0.032-1.143-0.048-1.597-0.048c-0.063,0-0.328,0.016-0.641,0.016c-0.313,0.016-0.658,0.032-0.893,0.032
		c-0.172,0-0.25-0.032-0.25-0.126c0-0.047,0.032-0.094,0.125-0.094c0.141,0,0.329-0.031,0.469-0.063
		c0.313-0.063,0.392-0.407,0.454-0.861c0.079-0.657,0.079-1.894,0.079-3.396v-2.754c0-2.441,0-2.88-0.032-3.381
		c-0.031-0.532-0.157-0.782-0.673-0.892c-0.125-0.031-0.391-0.047-0.532-0.047c-0.063,0-0.125-0.031-0.125-0.094
		c0-0.094,0.078-0.125,0.25-0.125c0.704,0,1.69,0.046,1.768,0.046c0.078,0,1.221-0.046,1.69-0.046c0.172,0,0.25,0.031,0.25,0.125
		c0,0.063-0.063,0.094-0.125,0.094c-0.109,0-0.329,0.016-0.517,0.047c-0.454,0.078-0.579,0.344-0.61,0.892
		c-0.032,0.501-0.032,0.939-0.032,3.381V82.507z"/>
	<path fill="#FFFFFF" d="M99.481,82.475c0,1.503,0,2.739,0.079,3.396c0.047,0.454,0.141,0.799,0.61,0.861
		c0.219,0.031,0.563,0.063,0.704,0.063c0.094,0,0.125,0.047,0.125,0.094c0,0.078-0.079,0.125-0.25,0.125
		c-0.861,0-1.847-0.047-1.925-0.047c-0.078,0-1.064,0.047-1.533,0.047c-0.172,0-0.25-0.031-0.25-0.125
		c0-0.047,0.031-0.094,0.125-0.094c0.141,0,0.329-0.031,0.469-0.063c0.313-0.063,0.392-0.407,0.454-0.861
		c0.079-0.657,0.079-1.894,0.079-3.396v-2.754c0-2.441,0-2.88-0.032-3.381c-0.031-0.532-0.188-0.798-0.532-0.876
		c-0.172-0.047-0.376-0.063-0.485-0.063c-0.063,0-0.125-0.031-0.125-0.094c0-0.094,0.078-0.126,0.25-0.126
		c0.517,0,1.503,0.048,1.581,0.048c0.079,0,1.064-0.048,1.534-0.048c0.172,0,0.25,0.032,0.25,0.126c0,0.063-0.063,0.094-0.125,0.094
		c-0.109,0-0.203,0.016-0.391,0.047c-0.423,0.078-0.548,0.345-0.579,0.892c-0.032,0.501-0.032,0.939-0.032,3.381V82.475z"/>
</g>
</svg>
