<?xml version="1.0" encoding="utf-8"?>
<!-- Generator: Adobe Illustrator 16.0.0, SVG Export Plug-In . SVG Version: 6.00 Build 0)  -->
<!DOCTYPE svg PUBLIC "-//W3C//DTD SVG 1.1//EN" "http://www.w3.org/Graphics/SVG/1.1/DTD/svg11.dtd">
<svg version="1.1" id="Layer_1" xmlns="http://www.w3.org/2000/svg" xmlns:xlink="http://www.w3.org/1999/xlink" x="0px" y="0px"
	 width="159.961px" height="39.888px" viewBox="0 0 159.961 39.888" enable-background="new 0 0 159.961 39.888"
	 xml:space="preserve">
<g>
	<g>
		<g>
			<path fill="#FFFFFF" d="M16.164,1.439C18.443,0.48,21.071,0,24.048,0v10.368c-1.249-0.096-2.088-0.145-2.521-0.145
				c-3.216,0-5.736,0.9-7.56,2.7c-1.825,1.8-2.735,4.5-2.735,8.099v18.289H0V0.576h10.729v5.111
				C12.071,3.815,13.883,2.4,16.164,1.439z"/>
			<path fill="#FFFFFF" d="M18.722,39.312h12.232L43.148,9.873l-1.303,0.057c-2.084,0.182-1.893,0.082-5.675,1.344
				c-2.349,0.783-5.589,2.461-7.595,5.248"/>
			<path fill="#FFFFFF" d="M30.735,10.41l11.11-0.48c0.422-0.037,0.866-0.043,1.303-0.058l3.851-9.295H34.767"/>
			<path fill="#FFFFFF" d="M67.58,1.439C69.859,0.48,72.487,0,75.464,0v10.368c-1.249-0.096-2.088-0.145-2.521-0.145
				c-3.216,0-5.736,0.9-7.56,2.7c-1.825,1.8-2.735,4.5-2.735,8.099v18.289H51.416V0.576h10.729v5.111
				C63.487,3.815,65.299,2.4,67.58,1.439z"/>
			<path fill="#FFFFFF" d="M117.53,23.111H88.225c0.527,2.402,1.775,4.297,3.744,5.689c1.967,1.393,4.416,2.088,7.344,2.088
				c2.016,0,3.805-0.299,5.363-0.9c1.561-0.6,3.012-1.549,4.357-2.844l5.975,6.48c-3.648,4.176-8.975,6.264-15.982,6.264
				c-4.369,0-8.234-0.852-11.594-2.557c-3.359-1.703-5.951-4.068-7.776-7.092c-1.824-3.023-2.735-6.455-2.735-10.297
				c0-3.791,0.899-7.21,2.7-10.259c1.799-3.048,4.272-5.424,7.417-7.128C90.18,0.853,93.698,0,97.584,0
				c3.791,0,7.225,0.816,10.297,2.448c3.07,1.632,5.482,3.972,7.236,7.02c1.752,3.049,2.627,6.588,2.627,10.62
				C117.745,20.232,117.672,21.24,117.53,23.111z M91.249,10.656c-1.729,1.439-2.783,3.408-3.168,5.903h19.08
				c-0.385-2.448-1.439-4.403-3.168-5.868c-1.727-1.463-3.84-2.195-6.336-2.195C95.112,8.496,92.977,9.216,91.249,10.656z"/>
			<path fill="#FFFFFF" d="M159.961,0.576l-16.344,38.736h-11.592L115.752,0.576h11.592l10.729,26.351l11.088-26.351H159.961z"/>
		</g>
	</g>
</g>
</svg>
